<svg width="83" height="41" viewBox="0 0 83 41" fill="none" xmlns="http://www.w3.org/2000/svg">
<g clip-path="url(#clip0_729_303)">
<path d="M82.4302 39.5772L72.2902 40.3672C69.8602 33.9072 66.5002 27.6072 65.2902 20.9072C64.2902 15.1572 61.6302 12.9772 56.4702 12.1072C40.4602 9.40724 24.5002 6.63724 8.53016 3.79724C5.64035 3.40431 2.82173 2.59947 0.160156 1.40724C23.5702 -1.70276 46.3502 5.69724 69.9102 4.32724C72.0302 11.6872 70.2902 20.0472 77.9102 23.6972C77.6402 27.8672 77.2802 31.4572 77.2202 35.0472C77.1602 38.4372 79.2702 39.6372 82.4002 39.5672L82.4302 39.5772Z" fill="black"/>
</g>
<defs>
<clipPath id="clip0_729_303">
<rect width="82.27" height="39.73" fill="white" transform="translate(0.160156 0.637207)"/>
</clipPath>
</defs>
</svg>
