<svg width="151" height="31" viewBox="0 0 151 31" fill="none" xmlns="http://www.w3.org/2000/svg">
<g clip-path="url(#clip0_729_259)">
<path d="M3.21287 4.87325C4.58549 6.33724 4.56057 6.32686 3.86076 7.56035C3.58042 8.05873 3.43298 8.63186 3.22117 9.18424C7.08362 10.397 9.60252 9.44381 11.4424 6.24379C12.6759 4.10491 13.4338 3.95955 15.8032 4.8774C18.5028 5.91569 21.3186 6.65288 24.0036 7.7244C28.6905 9.59332 33.6203 9.30052 38.4857 9.55179C40.9527 9.67846 43.4301 9.55179 45.9033 9.57256C47.6788 9.57256 49.4542 9.61201 51.2297 9.64524C51.3585 9.64524 51.481 9.75114 51.6097 9.7989C57.0815 11.8485 62.7112 12.9719 68.5796 12.7061C70.0913 12.6397 71.6038 12.5808 73.1169 12.5296C75.4012 12.4528 77.0624 11.1778 78.651 9.69508C80.8086 7.67871 82.9724 5.65612 85.267 3.80173C88.3113 1.35967 91.9661 0.697235 95.7642 0.637014C96.111 0.619659 96.4582 0.663234 96.79 0.765762C100.673 2.17369 104.66 3.3698 107.898 6.11089C109.472 7.44406 110.994 8.84368 112.611 10.1208C113.264 10.6018 114.002 10.9542 114.786 11.1591C117.296 11.8713 119.834 12.4839 122.357 13.1547C124.548 13.7382 126.707 14.4691 128.923 14.9156C132.661 15.6694 136.449 15.2977 140.218 14.9987C141.453 14.9011 142.691 14.7723 143.928 14.7661C145.991 14.7661 147.361 15.9726 148.372 17.6048C150.169 20.512 150.416 23.6954 149.965 26.9951C149.674 29.1028 148.221 30.0352 146.144 30.1868C143.216 30.3945 140.639 29.1236 137.873 28.6917C133.444 28.0022 129.056 27.0885 124.583 26.6338C122.216 26.3908 119.89 25.6972 117.57 25.1075C115.847 24.6693 114.167 24.0692 112.46 23.548C109.345 22.6177 106.608 21.1329 104.666 18.4416C103.753 17.177 102.548 16.6849 101.059 17.042C99.9944 17.317 98.9449 17.649 97.9155 18.0367C96.6156 18.4977 95.3592 19.0999 94.0364 19.4758C92.2371 19.9958 90.3227 19.9603 88.5439 19.374C86.052 18.5704 83.5123 18.8071 80.9955 19.3014C80.5988 19.4037 80.229 19.5907 79.9115 19.8496C75.2371 23.3548 69.9917 25.4958 64.2437 26.4261C62.5243 26.7044 61.0499 26.3223 59.7022 25.0535C57.8997 23.3569 56.0266 21.6811 53.9604 20.3376C51.4519 18.7033 48.7274 17.4137 45.6001 17.1438C41.5009 16.7887 37.4225 16.174 33.3254 15.7629C30.4431 15.4742 27.5338 15.4389 24.6578 15.1108C19.4725 14.5211 14.3184 13.7901 9.14982 13.1277C7.11684 12.8681 5.07971 12.6438 3.04674 12.3801C1.80079 12.2202 0.718888 11.5972 0.313954 10.4426C-0.0473719 9.4002 0.24335 8.28923 1.10929 7.41706C1.48099 7.0412 1.69696 6.51375 2.02921 6.09843C2.36147 5.68311 2.81416 5.28441 3.21287 4.87325Z" fill="black"/>
</g>
<defs>
<clipPath id="clip0_729_259">
<rect width="150" height="29.5726" fill="white" transform="translate(0.160156 0.637207)"/>
</clipPath>
</defs>
</svg>
