<svg width="142" height="17" viewBox="0 0 142 17" fill="none" xmlns="http://www.w3.org/2000/svg">
<g clip-path="url(#clip0_729_307)">
<path d="M0.160156 10.827C8.38016 7.10699 14.7902 3.94699 21.4102 1.36699C23.9569 0.555352 26.6675 0.400559 29.2902 0.916988C50.0602 4.25699 70.9902 1.84699 91.8202 2.80699C95.1402 2.96699 98.4602 3.07699 101.82 3.25699C111.4 3.76365 120.983 4.28699 130.57 4.82699C134.2 5.01699 137.82 5.17699 141.48 6.95699C137.48 6.95699 133.48 7.11699 129.54 6.95699C106.66 5.95699 83.7902 3.79699 60.8902 6.60699C50.6102 7.83699 40.3902 8.92699 31.4402 14.847C29.792 15.9778 27.8008 16.4977 25.8102 16.317C17.7902 14.847 9.85016 12.947 0.160156 10.827Z" fill="black"/>
</g>
<defs>
<clipPath id="clip0_729_307">
<rect width="141.28" height="15.75" fill="white" transform="translate(0.160156 0.637207)"/>
</clipPath>
</defs>
</svg>
