<svg width="151" height="51" viewBox="0 0 151 51" fill="none" xmlns="http://www.w3.org/2000/svg">
<g clip-path="url(#clip0_729_343)">
<path d="M0.456939 0.104492C2.09139 0.375468 3.74736 0.534612 5.3517 0.934624C11.4465 2.39273 17.5198 3.91966 23.606 5.41647C23.8956 5.44182 24.1831 5.48781 24.4662 5.55411C34.8966 9.60154 45.6883 9.16712 56.5661 8.3843C61.9383 7.99719 67.3535 8.28107 72.7429 8.10472C78.7302 7.91117 84.7303 7.73482 90.6918 7.19717C100.809 6.21421 110.999 6.22718 121.114 7.23588C128.233 7.99289 130.624 11.765 129.79 19.0255C129.205 24.1224 130.65 29.4602 134.332 33.3313C138.108 37.3056 141.833 41.5551 147.691 42.91C150.702 43.6025 150.96 45.9209 148.552 47.9338C147.654 48.6362 146.675 49.2269 145.635 49.693C142.938 51.0221 141.652 50.8199 139.665 48.5489C136.947 45.4348 134.366 42.1874 130.633 40.2046C129.772 39.7486 128.912 39.168 127.957 38.9787C126.147 38.6174 125.415 37.4561 124.848 35.8518C124.101 33.87 123.254 31.9276 122.31 30.0322C121.462 28.391 121.193 26.5121 121.544 24.6987C122.405 20.0362 119.776 16.5265 115.359 14.9479C107.69 12.1952 99.72 12.0704 91.7757 12.2683C84.1626 12.4575 76.571 13.4296 68.9793 13.7522C65.1857 13.9113 61.3705 13.2576 57.5597 13.2059C51.181 13.1156 44.798 13.3522 38.4193 13.2059C28.2341 12.9651 18.165 12.0059 9.10665 6.66812C6.08721 4.88743 3.13659 2.9949 0.160156 1.15829L0.456939 0.104492Z" fill="black"/>
</g>
<defs>
<clipPath id="clip0_729_343">
<rect width="150" height="50.4143" fill="white" transform="translate(0.160156 0.104492)"/>
</clipPath>
</defs>
</svg>
