<svg width="151" height="35" viewBox="0 0 151 35" fill="none" xmlns="http://www.w3.org/2000/svg">
<g clip-path="url(#clip0_729_211)">
<path d="M2.93316 19.3501L0.160156 12.186C1.02949 11.4711 2.06382 10.5573 3.16371 9.76835C3.50214 9.52511 4.06478 9.59279 4.52377 9.51876C6.12496 9.26283 6.55857 8.37234 5.72731 7.01228C5.5454 6.71404 5.15198 6.47291 5.11602 6.1662C5.05468 5.67548 5.02084 4.99863 5.29793 4.68558C6.70452 3.06747 8.39455 2.84114 10.3447 3.78874C10.8564 4.01275 11.4019 4.15 11.9586 4.19486C14.8881 4.52483 17.8177 4.88229 20.7557 5.11073C23.0615 5.31714 25.3767 5.39904 27.6913 5.35609C34.2716 5.15726 40.8329 5.55069 47.4027 5.71779C52.3903 5.84681 57.2954 6.84518 62.302 6.61462C67.6259 6.36926 72.9731 6.58289 78.2906 6.25927C82.944 5.97372 87.5276 6.41791 92.1408 6.73942C94.1672 6.88113 96.2125 6.71404 98.2495 6.72673C99.5736 6.72673 100.511 6.10486 101.289 5.10439C101.89 4.33446 102.457 3.50743 103.182 2.86864C105.568 0.766154 108.47 0.541945 111.474 0.753463C113.889 0.922677 115.873 2.03315 117.608 3.66606C117.859 3.90296 118.177 4.15678 118.272 4.46137C119.033 6.90652 121.102 7.71663 123.23 8.23485C128.835 9.60898 134.625 10.0739 140.377 9.61183C141.843 9.49338 143.282 9.0788 144.737 8.82075C145.706 8.64942 146.679 8.42944 147.656 8.38503C148.971 8.32369 149.9 8.92017 149.961 10.0518C150.12 12.9221 150.249 15.8072 150.107 18.6733C150.006 20.5558 149.28 21.0401 147.489 21.4209C146.186 21.698 144.895 22.0427 143.588 22.3156C141.664 22.7154 141.602 22.7936 141.558 24.8157C141.526 26.2202 141.382 27.6247 141.391 29.0292C141.399 30.4336 140.589 31.0745 139.432 31.432C138.686 31.6373 137.928 31.797 137.162 31.91C133.99 32.4748 130.817 33.1474 127.631 33.5535C125.081 33.8772 122.487 33.9089 119.911 33.9956C118.367 34.0464 116.808 33.8285 115.27 33.947C111.188 34.26 107.349 32.7857 103.364 32.4494C100.358 32.1977 97.3442 32.056 94.3321 31.8699C93.0102 31.7874 91.6734 31.8043 90.362 31.6287C84.7229 30.88 79.0754 30.1693 73.4617 29.2576C69.2313 28.5744 64.9798 27.8933 60.8933 26.6813C57.1113 25.5624 53.4732 25.8162 49.7399 26.4254C49.471 26.4962 49.1926 26.524 48.915 26.5079C42.4109 25.3995 35.765 25.2197 29.3517 23.4726C28.4084 23.2167 27.9282 22.8867 27.5898 21.992C26.7437 19.7647 25.9273 19.4749 23.5308 19.8429C21.9592 20.0841 20.3347 20.0545 18.7335 20.0291C15.9225 19.9952 13.1114 19.8704 10.3003 19.8049C8.60818 19.7647 6.91604 19.8049 5.22389 19.7245C4.47089 19.6885 3.71789 19.4834 2.93316 19.3501Z" fill="black"/>
</g>
<defs>
<clipPath id="clip0_729_211">
<rect width="150" height="33.3289" fill="white" transform="translate(0.160156 0.672852)"/>
</clipPath>
</defs>
</svg>
