<svg width="132" height="22" viewBox="0 0 132 22" fill="none" xmlns="http://www.w3.org/2000/svg">
<g clip-path="url(#clip0_729_319)">
<path d="M0.160156 2.44742C4.16016 1.80742 8.16016 0.437424 12.0202 0.637424C30.8802 1.75742 49.7202 3.30742 68.5602 4.63742C86.7602 5.97076 104.96 7.28409 123.16 8.57742C125.67 8.75742 128.16 8.97742 131.45 9.23742C130.79 12.9974 130.28 15.8274 129.82 18.4474C121.36 24.6174 112.82 19.8074 104.65 18.8974C89.9802 17.2674 75.5102 13.4674 60.8402 12.5174C47.1602 11.6374 34.0702 8.78742 20.8402 5.79742C14.1602 4.29742 7.16016 4.25742 0.290156 3.54742L0.160156 2.44742Z" fill="black"/>
</g>
<defs>
<clipPath id="clip0_729_319">
<rect width="131.29" height="20.9" fill="white" transform="translate(0.160156 0.637207)"/>
</clipPath>
</defs>
</svg>
