<svg width="151" height="95" viewBox="0 0 151 95" fill="none" xmlns="http://www.w3.org/2000/svg">
<g clip-path="url(#clip0_729_267)">
<path d="M0.160156 74.2547C0.597922 72.9222 1.08561 70.7987 1.98034 68.8787C3.08243 66.4902 3.68532 64.1093 3.35892 61.4789C3.05171 59.0021 3.02867 56.4868 2.61395 54.0292C1.13937 45.3507 8.28186 38.1468 14.8599 36.5262C18.7306 35.5816 21.9294 38.1314 24.6251 40.7081C26.4376 42.4399 27.8315 44.6057 29.4905 46.5065C31.1494 48.4074 35.6345 48.968 38 47.6125C42.2837 45.1041 46.3504 42.2423 50.1576 39.0568C53.7442 36.1038 57.9951 33.9189 62.0617 31.6071C64.6499 30.1364 67.5185 29.1534 70.1489 27.7479C72.7793 26.3424 73.5051 23.7158 71.3547 21.792C69.1351 19.799 67.7181 17.2953 65.8288 15.118C64.0816 13.1058 61.9888 12.4299 59.4697 12.1688C57.4619 11.926 55.4842 11.4782 53.5676 10.8325C51.4824 10.1643 50.7374 8.41325 50.6914 6.35114C50.6414 4.04711 51.7051 2.55334 53.8095 1.60484C55.893 0.608044 58.26 0.372977 60.4989 0.940515C65.5792 2.17317 70.3102 3.88199 74.6571 7.01547C77.6842 9.12279 81.0473 10.7005 84.6028 11.6811C89.7063 13.1711 94.5409 15.5711 99.5214 17.5065C101.299 18.1796 103.115 18.7477 104.959 19.2076C110.135 20.5401 115.281 22.0723 120.534 23.0093C124.255 23.6698 128.13 23.6813 131.928 23.616C134.692 23.5699 137.223 23.8886 139.685 25.1981C141.822 26.3381 144.029 27.3411 146.293 28.201C151.308 30.0865 150.84 34.3873 148.305 37.3173C145.368 40.7234 142.3 41.5414 137.811 40.2703C129.362 37.8741 120.753 36.0462 112.128 34.3835C109.214 33.8229 106.034 34.2683 103.02 34.6254C98.0814 35.1976 93.0663 35.6968 88.2893 36.9909C84.6873 37.9701 81.4079 40.1436 77.9903 41.7948C76.2853 42.6166 74.5649 43.4191 72.8984 44.31C69.0775 46.3529 65.3028 48.4726 61.4819 50.5155C53.9285 54.5553 49.1937 61.4251 44.0212 67.8457C42.9997 69.1129 41.8055 70.2342 40.761 71.4822C37.3472 75.5412 32.6969 77.5994 27.9045 79.3889C26.0382 80.0839 25.6504 81.6353 25.2395 83.2712C24.6827 85.4907 24.1873 87.7371 23.4462 89.8953C22.2558 93.3513 19.5562 94.7491 15.9543 94.0425C5.3711 91.9766 1.34289 83.8971 0.160156 74.2547ZM21.1883 51.8711L20.0363 50.5155C19.7674 50.8535 19.2682 51.1952 19.2913 51.5178C19.3143 51.8404 19.8097 52.209 20.1745 52.3511C20.378 52.4317 20.7505 52.0938 21.1883 51.8711Z" fill="black"/>
</g>
<defs>
<clipPath id="clip0_729_267">
<rect width="150" height="93.5858" fill="white" transform="translate(0.160156 0.637207)"/>
</clipPath>
</defs>
</svg>
