<svg width="151" height="57" viewBox="0 0 151 57" fill="none" xmlns="http://www.w3.org/2000/svg">
<g clip-path="url(#clip0_729_351)">
<path d="M0.160156 20.0311C5.77771 14.074 11.8837 11.6911 17.7753 9.3083C23.7859 6.83817 30.0254 4.96653 36.4032 3.72053C44.6181 2.16573 53.0235 1.61767 61.3277 0.521564C70.3647 -0.669858 79.3301 1.08153 88.3432 1.11727C90.4104 1.11727 92.4715 2.19551 94.5565 2.71378C102.771 4.77494 111.093 6.5859 118.635 10.601C125.009 13.9965 131.854 15.7658 138.818 17.267C144.09 18.4048 145.966 20.2456 146.949 25.3091C147.169 26.6468 147.5 27.9639 147.938 29.2467C150.375 35.6745 150.601 42.269 149.606 48.9767C148.927 53.5458 144.286 56.7984 139.705 56.1252C134.791 55.3329 130.621 53.2241 127.708 49.2686C123.746 43.9072 117.748 41.0716 112.934 36.7587C108.901 33.1844 103.999 31.1411 98.9528 29.2527C93.4485 27.1856 88.2717 24.1415 82.6721 22.4318C76.5482 20.5613 70.5553 18.0474 64.3361 16.8202C60.3329 16.0339 56.1093 13.9429 51.6832 15.8135C50.8135 16.1828 49.4552 15.3309 48.3115 15.1403C34.7114 12.8885 21.2126 11.6792 8.16055 17.8687C6.11727 18.8337 3.73442 19.0899 0.160156 20.0311Z" fill="black"/>
</g>
<defs>
<clipPath id="clip0_729_351">
<rect width="150" height="56.0683" fill="white" transform="translate(0.160156 0.104492)"/>
</clipPath>
</defs>
</svg>
