<svg width="151" height="54" viewBox="0 0 151 54" fill="none" xmlns="http://www.w3.org/2000/svg">
<g clip-path="url(#clip0_729_207)">
<path d="M150.16 39.0286L146.499 43.2083C139.458 42.293 133.075 41.573 126.754 40.5968C124.197 40.2062 122.409 40.9568 120.975 42.952C119.053 45.6368 116.466 46.0029 114.166 43.9832C108.503 38.9493 101.639 42.2869 95.4822 40.9324C95.2806 40.909 95.0764 40.9261 94.8815 40.9827C94.6867 41.0393 94.505 41.1342 94.3473 41.2618C90.4421 44.6971 85.6217 44.1663 81.0149 44.2029C73.0826 44.2761 66.0045 47.327 59.1339 50.6464C52.2633 53.9657 45.2402 53.5813 38.3879 52.0376C35.7092 51.4274 33.2502 48.163 31.5051 45.5575C30.1139 43.4707 28.7471 41.7195 26.5565 40.5296C20.0113 36.9703 13.4824 33.3784 6.96981 29.7539C5.04165 28.6678 2.68637 27.8135 1.38059 26.1783C0.337181 24.8786 -0.193673 22.2365 0.416505 20.7538C1.30736 18.5876 3.69926 18.6792 5.65183 20.0155C14.1943 25.9464 23.9572 26.9105 33.9519 27.0691C35.5383 27.0996 37.1065 27.7891 38.7113 27.9966C43.5561 28.6068 47.8029 28.3078 50.5121 23.0663C52.5623 19.0941 55.4545 15.4269 60.8851 16.1225C61.42 16.2563 61.9441 16.4297 62.4533 16.6412C62.7706 17.7029 62.8926 19.1917 63.6309 20.2595C64.5767 21.6446 65.8703 23.4996 67.292 23.7375C72.6066 24.6589 78.0189 25.0982 83.4007 25.5681C87.2143 25.8854 91.0462 26.0196 94.8659 26.0745C101.578 26.1722 106.905 22.4135 111.707 18.7524C117.748 14.1455 122.733 8.1475 128.182 2.73523C128.755 2.16166 129.14 1.17317 129.792 0.971811C130.834 0.620724 131.961 0.620724 133.002 0.971811C133.417 1.14876 133.673 2.96099 133.283 3.55286C131.902 5.54805 130.379 7.4405 128.725 9.21531C124.826 13.5659 120.847 17.8432 116.478 22.6392C116.593 23.3116 116.882 23.9425 117.314 24.4698C119.804 26.8617 119.48 29.2597 118.254 32.2129C116.234 37.0943 117.4 38.2476 122.769 38.0523C131.049 37.7472 139.336 37.674 147.622 37.5642C148.128 37.5398 148.629 38.1072 150.16 39.0286ZM48.6511 37.7228C54.466 41.2374 60.3787 40.9446 67.1638 40.8591C62.7767 37.0394 54.1671 35.7153 48.6511 37.7228Z" fill="black"/>
</g>
<defs>
<clipPath id="clip0_729_207">
<rect width="150" height="52.5058" fill="white" transform="translate(0.160156 0.672852)"/>
</clipPath>
</defs>
</svg>
