<svg width="151" height="67" viewBox="0 0 151 67" fill="none" xmlns="http://www.w3.org/2000/svg">
<g clip-path="url(#clip0_729_271)">
<path d="M0.160156 22.9704C1.23653 20.0327 1.96326 16.8927 3.48526 14.2086C5.16153 11.264 7.85589 10.407 11.1296 11.24C18.8185 13.2008 26.5553 15.0347 34.2614 16.9338C40.987 18.5895 47.6886 20.3618 54.4451 21.8872C59.5184 23.0424 64.3861 24.9723 69.7303 25.1643C75.0745 25.3563 80.3569 26.6383 85.6771 26.8783C90.6373 27.1148 95.721 27.1251 100.592 26.299C104.185 25.6854 107.63 23.7794 110.944 22.0654C116.025 19.4396 119.621 15.2473 122.195 10.1259C123.313 8.01045 124.573 5.97303 125.966 4.02761C127.68 1.51835 129.843 0.202019 133.202 0.76763C137.453 1.4875 141.357 2.91695 144.696 5.50162C148.59 8.52164 149.619 13.1322 150.074 17.6845C150.369 20.6874 149.828 23.7829 149.547 26.8303C149.231 30.2205 148.398 33.6108 148.48 36.9839C148.618 42.52 147.857 47.8744 146.65 53.2289C146.225 55.1108 146.132 57.0648 145.817 58.9776C145.633 60.2144 145.361 61.4367 145.005 62.6352C143.472 67.496 141.453 68.1199 137.302 65.0347C133.415 62.1518 131.132 55.7381 132.979 51.4052C135.322 46.0673 136.317 40.2359 135.879 34.4232C135.66 31.5231 136.472 28.8665 137.353 26.1413C137.953 24.2696 137.912 22.1511 137.922 20.1389C137.922 18.8089 136.849 18.3393 135.756 18.8877C134.654 19.4605 133.655 20.2136 132.801 21.1159C129.898 24.1462 127.203 27.3822 124.204 30.3062C121.268 33.1623 118.178 35.8561 114.948 38.3756C113.577 39.452 111.76 40.3535 110.053 40.5558C106.783 40.9652 103.478 41.0272 100.194 40.7409C95.6833 40.3021 91.1138 39.7536 86.7638 38.547C79.4417 36.5177 71.8625 35.5715 64.7186 32.7195C59.0454 30.4433 53.0054 29.103 47.1607 27.2348C43.5888 26.1001 40.058 24.8352 36.5341 23.512C29.4177 20.8382 22.2327 18.4284 14.6467 17.4343C13.7456 17.3295 12.8556 17.1459 11.9866 16.8858C7.01605 15.3261 4.16742 17.64 1.69588 21.3936C1.3709 21.9623 1.08681 22.5534 0.845745 23.1624L0.160156 22.9704Z" fill="black"/>
</g>
<defs>
<clipPath id="clip0_729_271">
<rect width="150" height="66.2793" fill="white" transform="translate(0.160156 0.637207)"/>
</clipPath>
</defs>
</svg>
