<svg width="151" height="27" viewBox="0 0 151 27" fill="none" xmlns="http://www.w3.org/2000/svg">
<g clip-path="url(#clip0_729_263)">
<path d="M84.9852 16.2864C86.9878 14.832 88.789 13.4 90.7289 12.1515C92.7763 10.8269 94.846 10.4129 97.1775 11.8964C100.017 13.7043 103.367 14.0176 106.636 14.1205C110.856 14.2525 115.089 13.9795 119.313 14.0802C122.193 14.1496 125.066 14.5546 127.941 14.8119C130.087 15.0043 132.229 15.2594 134.377 15.3802C138.006 15.5906 141.628 16.0672 145.247 15.0357C146.627 14.6396 147.994 15.2952 148.621 16.6265C149.283 18.0361 149.771 19.5207 150.075 21.0479C150.409 22.7328 149.764 23.3817 148.104 23.9567C144.748 25.1292 141.367 24.6839 137.966 24.2252C134.207 23.7195 130.694 22.2942 127.053 21.4194C123.862 20.6541 120.627 19.5577 117.19 19.9202C115.74 20.0724 114.241 19.6539 112.764 19.6562C108.907 19.6562 105.049 19.7904 101.259 18.8775C100.037 18.5822 98.7975 18.3114 97.6049 17.9377C97.1134 17.7646 96.5904 17.6993 96.0715 17.7464C95.5526 17.7935 95.0499 17.9519 94.5976 18.2107C92.4675 19.4011 90.3575 20.6273 88.1893 21.7416C85.0284 23.3645 81.8385 24.9308 78.6194 26.4404C78.1517 26.6641 77.4268 26.6037 76.9144 26.418C74.7238 25.6237 72.7078 24.534 71.3205 22.5627C71.1908 22.3815 71.0632 22.1958 70.92 22.0235C69.5775 20.4214 68.9353 20.4997 67.9575 22.3815C67.8345 22.3121 67.6085 22.254 67.6018 22.1756C67.3355 19.0431 64.8048 18.6649 62.5337 18.1481C58.5509 17.2531 54.539 16.4901 50.5226 15.7561C49.5643 15.6152 48.5894 15.6311 47.6362 15.8031C45.4434 16.1321 43.2753 16.6243 41.0825 16.951C39.4759 17.1904 37.8269 17.5059 36.2293 17.3828C32.5261 17.0987 28.8006 16.7116 25.6211 14.474C24.1018 13.4112 22.3118 13.3329 20.5844 13.0241C19.4119 12.8138 18.1723 12.8294 17.0625 12.4491C15.0487 11.7577 13.4109 12.3394 11.8804 13.5455C11.0883 14.1697 10.3141 14.5747 9.03199 13.9795C9.5869 13.7334 9.88449 13.532 10.2089 13.4694C11.0144 13.3038 11.5022 12.731 11.2539 12.0575C11.0704 11.5675 10.3454 11.2408 9.80618 10.9387C9.60032 10.8269 9.164 11.1446 8.95368 11.0349C8.26228 10.6725 7.3874 10.3637 7.01373 9.74836C5.87518 7.77832 4.36079 6.05107 2.55656 4.66467C1.60784 3.95314 0.98357 2.80528 0.160156 1.78273C0.911969 0.500618 1.41094 0.292527 2.52971 1.16964C5.44074 3.45417 8.88655 4.12767 12.4107 4.66467C16.662 5.30461 20.9133 5.98035 25.1781 6.62028C26.6459 6.84404 28.1383 6.92459 29.5882 7.21994C33.589 8.02695 37.5777 8.88243 41.5546 9.7864C45.0317 10.574 48.5111 10.3793 51.9837 9.87366C53.55 9.64991 55.0559 9.24715 56.4074 10.4867C56.6513 10.7105 57.0965 10.7351 57.459 10.809C59.9315 11.3057 62.4062 11.7912 64.9838 12.2992C66.2906 10.9701 64.4133 9.1666 65.4649 7.76366C66.3599 7.62717 66.7135 8.16418 66.9238 8.83768C67.1265 9.47113 67.2887 10.1168 67.4093 10.7709C67.5637 11.6324 68.0381 12.006 68.904 12.1358C70.0653 12.3103 71.202 12.6393 72.3565 12.901C72.2536 13.8431 72.1551 14.7381 72.0187 15.9844C74.6097 15.6913 76.8719 15.4474 79.1295 15.1677C79.6397 15.1028 80.1252 14.8746 80.6332 14.7716C83.307 14.2257 83.3965 14.2637 84.9852 16.2864ZM6.40512 5.11218C6.71838 6.1325 7.07638 7.04318 7.26434 7.98742C7.45229 8.93166 7.79687 9.52908 8.77915 9.94079C10.8354 10.8022 12.6322 10.6859 14.3887 9.26953C15.6708 8.22907 17.1431 7.88673 18.7742 8.48863C19.5454 8.75314 20.3332 8.96618 21.1326 9.12632C21.9806 9.31428 22.7503 9.24939 23.2873 7.86659C17.5212 6.96263 11.8826 6.17501 6.40512 5.11218Z" fill="black"/>
</g>
<defs>
<clipPath id="clip0_729_263">
<rect width="150" height="25.9554" fill="white" transform="translate(0.160156 0.637207)"/>
</clipPath>
</defs>
</svg>
