<svg width="151" height="28" viewBox="0 0 151 28" fill="none" xmlns="http://www.w3.org/2000/svg">
<g clip-path="url(#clip0_729_255)">
<path d="M6.06332 20.4839C3.93851 19.5306 2.41783 17.81 0.173576 18.5681C0.173576 17.3139 0.134525 16.2205 0.189655 15.1225C0.21722 14.6033 0.265459 13.8085 0.582458 13.627C2.27541 12.66 1.99517 10.8705 2.53039 9.43026C2.78537 8.74114 3.00819 7.8223 3.54111 7.5076C6.96607 5.56886 10.2969 3.43256 14.5947 3.8736C16.5932 4.07804 18.7295 3.76334 20.6935 3.27177C23.1288 2.67489 25.6243 2.35813 28.1315 2.32766C29.8589 2.2955 31.5771 1.75569 33.3045 1.53287C34.878 1.33072 36.4676 1.25033 38.0526 1.11939C38.5763 1.07575 39.1621 1.1906 39.6146 0.993052C41.8014 0.044354 43.7011 1.16304 45.6789 1.73501C45.7961 1.76947 45.8765 1.96472 45.9523 2.08647C45.9757 2.16065 45.985 2.23856 45.9799 2.31618C45.8788 2.41725 45.78 2.60331 45.6789 2.60331C43.4806 2.63088 41.28 2.72046 39.0863 2.62399C36.2312 2.47123 33.3681 2.64541 30.5526 3.14313C28.7632 3.47621 26.9508 3.69213 25.182 4.10561C21.7203 4.91878 18.2678 5.771 14.8451 6.73118C13.3498 7.18192 11.8988 7.7686 10.5105 8.48386C8.33743 9.5589 8.10773 10.1286 8.42932 12.5819C8.45343 13.0279 8.45343 13.475 8.42932 13.9211C9.27465 13.8682 9.93391 13.8614 10.5817 13.781C13.9929 13.3583 17.388 12.7886 20.8037 12.529C23.6498 12.2993 26.3351 11.5413 29.009 10.6914C34.9217 8.81464 40.8964 7.47544 47.156 7.83608C48.5916 7.91878 50.048 7.588 51.4952 7.56733C55.0097 7.51909 58.4301 8.29091 61.8321 8.98233C63.0725 9.23272 64.1958 10.0275 65.4178 10.4364C66.3252 10.7396 67.3267 11.0405 68.257 10.9647C71.0756 10.735 73.8459 10.2159 76.2486 8.52981C77.6452 7.55125 79.1269 7.17682 80.7877 7.96702C81.2695 8.18156 81.8105 8.22374 82.3198 8.08647C86.156 6.84374 89.9554 5.49076 93.8053 4.26411C97.4209 3.11556 101.133 2.72276 104.875 3.53134C107.243 4.04359 109.345 4.9785 110.321 7.53057C110.781 8.72965 111.546 9.82766 112.221 10.9303C113.409 12.8805 115.419 13.5237 117.33 12.3751C119.282 11.1847 121.165 9.88559 122.971 8.48386C125.758 6.34987 128.399 4.02291 131.223 1.94175C132.899 0.705916 134.942 0.940219 136.662 1.8269C138.18 2.6102 139.453 3.8759 140.815 4.95094C140.969 5.07269 140.974 5.36671 141.102 5.54129C142.005 6.75416 142.809 8.03823 143.827 9.13624C146.009 11.5137 148.069 13.9923 149.28 16.9877C150.392 19.7442 150.429 22.6248 149.53 25.503C149.151 26.7388 148.416 27.382 147.16 27.6898C144.798 28.2664 142.697 27.869 140.553 26.7067C138.086 25.3721 136.827 23.2243 135.863 20.794C135.114 18.9081 134.321 18.2672 132.417 18.7932C130.582 19.3088 128.801 20.0012 127.099 20.8606C125.053 21.8805 123.112 23.1163 121.15 24.3062C120.309 24.8139 119.404 25.3032 118.742 26.0015C117.238 27.5934 115.527 27.6094 113.726 26.8376C112.614 26.3575 111.481 25.7787 110.579 24.9999C108.282 22.9992 106.111 20.8652 103.917 18.761C103.456 18.3535 103.095 17.8448 102.863 17.2748C102.277 15.5153 100.883 15.1845 99.3849 15.3751C96.0128 15.7978 92.6498 16.0275 89.2685 16.9463C84.6743 18.1822 80.0618 19.5581 75.355 20.4379C73.2647 20.8284 71.2731 20.2358 69.2655 19.8384C66.2011 19.2297 63.1621 18.8047 59.9898 19.078C56.5166 19.379 53.0067 19.2228 49.5151 19.3078C48.2241 19.3422 46.9423 19.5375 45.6537 19.6385C41.3214 19.9555 36.9913 20.3897 32.6521 20.5183C29.9324 20.601 27.2034 20.4953 24.4676 19.9303C21.1943 19.2549 17.806 19.0826 14.4799 18.7197C13.0419 18.5635 11.5924 18.529 10.159 18.3407C8.33284 18.1087 6.80528 18.3889 6.06332 20.4839Z" fill="black"/>
</g>
<defs>
<clipPath id="clip0_729_255">
<rect width="150" height="27.317" fill="white" transform="translate(0.160156 0.637207)"/>
</clipPath>
</defs>
</svg>
