<svg width="74" height="37" viewBox="0 0 74 37" fill="none" xmlns="http://www.w3.org/2000/svg">
<g clip-path="url(#clip0_729_311)">
<path d="M0.160156 31.0371C8.94016 27.8771 17.6602 21.6871 28.4602 21.3771C30.1307 21.1998 31.7385 20.6423 33.1602 19.7471C42.3802 14.6371 51.5902 9.41715 60.8002 4.21715C61.6602 3.73715 62.3802 2.99715 63.2402 2.53715C66.5502 0.767148 70.5402 -0.902852 72.7602 3.11715C75.3402 7.78715 70.7602 9.11715 67.6002 10.8871C61.5102 14.2471 55.3002 17.4371 49.4202 21.1371C39.2302 27.5571 28.1602 31.7571 16.8402 35.6371C13.5302 36.7871 10.9402 37.2472 8.00016 34.0172C6.16016 32.0472 2.43016 31.8271 0.160156 31.0371Z" fill="black"/>
</g>
<defs>
<clipPath id="clip0_729_311">
<rect width="73.35" height="35.88" fill="white" transform="translate(0.160156 0.637207)"/>
</clipPath>
</defs>
</svg>
