<svg width="151" height="28" viewBox="0 0 151 28" fill="none" xmlns="http://www.w3.org/2000/svg">
<g clip-path="url(#clip0_729_251)">
<path d="M0.218476 15.22C1.41886 14.5818 2.37117 14.1557 3.23744 13.6035C3.95167 13.1494 4.58387 12.9673 5.46816 13.1734C6.69402 13.4312 7.94269 13.5653 9.19535 13.5735C9.72427 13.6029 10.2534 13.5189 10.7471 13.327C11.2409 13.1352 11.688 12.8399 12.0583 12.4611C12.6585 11.8769 13.6908 11.6129 14.5731 11.4768C16.9898 11.1007 19.4246 10.7926 21.8614 10.6005C25.1324 10.3425 28.4035 10.2684 31.5465 11.5148C32.1627 11.7675 32.8078 11.9429 33.4671 12.037C36.368 12.3951 39.269 12.7372 42.1799 13.0173C43.4337 13.1602 44.6979 13.1903 45.9571 13.1073C51.2588 12.6652 56.5865 12.3291 61.7462 10.9066C65.2633 9.93833 68.7284 8.77796 72.2195 7.70561C75.5226 6.70529 78.8316 5.70497 82.1327 4.70465C82.955 4.45257 83.7332 4.08846 84.5655 3.84038C88.4887 2.63799 92.3119 1.03748 96.5053 0.937449C97.2979 0.926489 98.0893 0.872392 98.876 0.775397C102.607 0.277238 106.15 1.20954 109.664 2.23786C112.522 3.07413 115.323 4.11046 118.174 4.97874C120.649 5.73298 123.158 6.36118 125.647 7.06741C127.425 7.57357 129.178 8.17577 130.968 8.63391C133.221 9.2121 135.486 9.78228 137.77 10.1564C138.707 10.3104 139.731 9.97034 140.707 9.80629C141.948 9.60622 143.17 9.2181 144.415 9.12807C147.336 8.914 150.891 10.6986 150.016 15.224C149.752 16.5925 149.628 18.0869 148.97 19.2573C147.758 21.416 145.769 22.5904 143.214 22.9285C138.907 23.5027 134.748 22.8945 130.568 21.9062C128.117 21.326 125.647 20.8598 123.39 19.7055C122.456 19.2283 121.583 18.6406 120.789 17.9549C119.843 17.1346 119.115 16.9986 117.788 17.4607C115.755 18.173 113.497 18.231 111.334 18.5811C110.224 18.7612 109.121 18.9952 108.007 19.1653C106.835 19.3453 105.62 19.3533 104.482 19.6554C100.463 20.7178 96.3332 20.8038 92.2339 21.1359C91.1876 21.2199 90.1252 21.0779 89.0689 21.0539C84.6035 20.9499 80.2081 21.6881 75.7867 22.1362C73.5439 22.3623 71.2732 22.2763 69.0305 22.4923C66.7878 22.7084 64.5591 23.0925 62.3303 23.4587C59.0553 23.9808 55.7883 24.569 52.5092 25.0712C49.2302 25.5733 45.9711 26.0715 42.6881 26.4336C40.3913 26.6857 38.0646 26.6577 35.7578 26.8337C31.4105 27.1598 27.0631 27.3979 22.7017 27.2919C19.6653 27.196 16.6592 26.6568 13.7788 25.6914C12.8961 25.4032 11.9792 25.233 11.0519 25.1852C8.4071 25.0552 5.9183 23.7628 3.18943 24.1709C2.8013 24.2289 2.18911 23.7928 1.92102 23.4146C1.56091 22.8925 1.16078 22.1722 1.2328 21.5961C1.503 19.611 1.14258 17.5913 0.202471 15.8222C0.100438 15.6241 0.214475 15.3181 0.218476 15.22ZM19.0045 23.6767C18.9925 23.8508 18.9825 24.0248 18.9725 24.1989C19.3146 24.3489 19.6467 24.599 20.0028 24.631C21.6493 24.8191 23.3039 25.1052 24.9504 25.0712C30.3772 24.9468 35.7931 24.5247 41.1736 23.8068C42.6441 23.6067 44.1025 23.3466 45.7631 23.0825C45.4149 22.7064 45.2949 22.4583 45.1509 22.4423C43.9745 22.3203 42.7881 22.1202 41.6117 22.1682C35.4764 22.419 29.3411 22.7131 23.2058 23.0505C21.7954 23.1286 20.4029 23.4627 19.0045 23.6767Z" fill="black"/>
</g>
<defs>
<clipPath id="clip0_729_251">
<rect width="150" height="26.6845" fill="white" transform="translate(0.160156 0.637207)"/>
</clipPath>
</defs>
</svg>
