<svg width="151" height="49" viewBox="0 0 151 49" fill="none" xmlns="http://www.w3.org/2000/svg">
<g clip-path="url(#clip0_729_339)">
<path d="M0.254072 0.104492C2.02993 0.317936 3.83993 0.373432 5.5731 0.774707C14.2534 2.77229 23.133 3.77482 32.0402 3.76292C35.6645 3.76292 39.2973 4.70635 42.9087 5.22715C44.1638 5.41071 45.4146 5.61562 46.6654 5.82053C49.3163 6.24741 51.9716 6.6743 54.614 7.14388C55.5916 7.3189 56.5393 7.79702 57.5083 7.83971C64.8892 8.16414 71.4334 11.3188 78.238 13.6795C86.4983 16.5482 93.7597 21.1885 101.29 25.4275C108.445 29.4531 116.043 32.6206 124.342 33.5384C126.532 33.7774 128.244 34.7422 130.092 35.9375C135.191 39.2138 140.872 41.4803 146.826 42.614C147.513 42.7464 148.303 42.8659 148.815 43.2757C149.417 43.7581 150.216 44.6247 150.13 45.1967C149.998 46.0505 149.178 47.4336 148.615 47.4549C146.288 47.5318 144.141 48.6972 141.571 47.694C138.049 46.3237 134.156 45.9352 130.51 44.8338C124.022 42.8787 117.704 40.057 111.117 38.7848C102.417 37.1114 95.3861 32.7145 88.5303 27.6345C87.5292 26.8912 86.4567 26.2491 85.3286 25.7178C77.8069 22.2045 70.4174 18.3284 62.6779 15.3914C56.6417 13.099 50.2213 11.6262 43.8522 10.448C36.6335 9.1161 29.2184 8.83009 21.9955 7.51954C14.5384 6.08884 7.22905 3.97392 0.160156 1.20159L0.254072 0.104492Z" fill="black"/>
</g>
<defs>
<clipPath id="clip0_729_339">
<rect width="150" height="47.978" fill="white" transform="translate(0.160156 0.104492)"/>
</clipPath>
</defs>
</svg>
