<svg width="103" height="600" viewBox="0 0 103 600" fill="none" xmlns="http://www.w3.org/2000/svg">
<g clip-path="url(#clip0_729_143)">
<path d="M88.6624 0L98.5005 6.53653L90.0896 9.04838L102.126 39.1145C100.816 40.0733 99.6073 41.1636 98.5195 42.3685C97.2065 43.9765 95.4177 46.0126 95.4843 47.7918C95.8649 57.4587 92.687 67.2301 96.6261 76.8875C97.4539 78.9236 96.4643 82.5962 94.9896 84.4991C93.7599 85.9241 92.9143 87.6395 92.533 89.4827C92.1517 91.3259 92.2473 93.2359 92.8107 95.0318C96.2741 108.352 96.7688 121.996 95.3416 135.469C94.3902 144.527 92.6014 153.404 93.4387 162.623C93.6385 164.793 92.1257 167.552 90.5843 169.369C86.6738 174.031 85.3608 179.217 85.3703 185.173C85.3703 197.123 84.9993 209.083 84.9327 221.034C84.9327 222.813 85.8175 224.583 86.1695 226.381C87.2257 231.709 88.8431 236.609 88.0725 242.603C87.2828 249.13 89.081 256.085 88.1486 263.031C86.6167 274.582 85.6653 286.218 84.7899 297.845C84.495 301.841 85.4655 305.932 85.2752 309.948C85.0563 314.229 84.1715 318.511 83.5435 322.754C82.5921 328.996 81.4598 335.209 80.8319 341.479C80.5845 343.905 81.4979 346.446 81.9831 349.547C76.8262 353.41 73.5532 359.433 72.6588 366.911C72.1831 370.965 70.9557 374.932 70.4229 378.976C69.9757 382.325 69.1194 386.036 70.0899 389.061C71.0206 391.902 71.302 394.916 70.9134 397.88C70.5248 400.844 69.476 403.683 67.8444 406.188C58.463 421.059 60.1852 437.205 61.2984 453.256C62.1262 464.312 63.8293 475.226 65.3516 486.196C66.7027 496.205 67.1499 506.548 70.166 516.053C72.773 524.264 77.1307 532.732 82.9917 538.888C95.1989 551.847 95.4177 577.745 85.0088 589.467C75.9604 599.676 58.8722 603.492 47.2168 596.27C42.6783 593.416 38.2826 590.409 33.9629 587.289C29.5109 584.259 25.9421 580.102 23.6206 575.243C21.594 570.847 17.1982 567.413 15.6949 562.931C12.5965 553.726 10.2202 544.294 8.58752 534.72C7.22693 526.69 7.45528 518.403 6.80829 510.239C6.59221 507.407 6.10149 504.603 5.34304 501.866C2.24609 491.069 0.667369 479.893 0.652344 468.661C0.652344 459.355 1.7941 450.04 2.63138 440.754C2.82167 438.67 3.84925 436.663 4.5343 434.636C5.48576 431.658 7.95004 428.29 7.24596 425.797C5.34304 418.985 10.2431 412.924 8.39723 406.302C8.12433 404.714 8.42803 403.081 9.25354 401.697C14.9052 391.725 13.6112 380.717 13.1831 370.175C12.8501 361.878 15.1431 355.18 19.32 348.463C21.0218 345.51 22.2211 342.294 22.8689 338.948C25.5045 327.302 25.1429 315.352 26.2181 303.535C26.4179 301.346 26.1229 298.511 27.3598 297.122C34.1532 289.415 33.4492 279.406 36.0276 270.481C39.3958 258.74 43.0399 246.951 44.9999 234.934C48.0541 216.191 54.7714 198.665 60.8131 180.892C64.1433 171.12 64.5429 161.301 63.03 151.149C62.5733 148.085 63.1918 143.861 65.0662 141.634C68.7007 137.372 68.7769 132.862 67.4638 128.399C65.2945 121.083 67.8254 114.698 69.9091 108.048C72.7635 99.066 75.4942 90.0557 77.9109 80.9597C79.9946 73.1006 81.574 65.0608 83.4293 57.0876C83.5721 56.4786 83.553 55.6794 83.9336 55.2893C89.6424 49.3808 88.9859 43.9574 86.5026 35.9081C83.8575 27.345 81.1363 16.8789 86.9022 7.41187C87.9107 5.70876 87.9012 3.31108 88.6624 0Z" fill="black"/>
</g>
<defs>
<clipPath id="clip0_729_143">
<rect width="101.426" height="600" fill="white" transform="translate(0.652344)"/>
</clipPath>
</defs>
</svg>
