<svg width="151" height="180" viewBox="0 0 151 180" fill="none" xmlns="http://www.w3.org/2000/svg">
<g clip-path="url(#clip0_729_763)">
<path d="M29.9321 16.9262C30.1509 17.4018 30.3919 18.2928 30.5663 18.2833C31.8346 18.2104 32.1993 19.2568 32.0185 19.91C31.4034 22.1296 32.9286 23.5407 33.7213 25.2403C34.0491 25.8894 34.2636 26.5896 34.3555 27.3109C34.6726 31.097 35.941 34.6674 36.943 38.2854C37.5225 40.5092 38.2146 42.7021 39.0168 44.8556C39.5431 46.1842 40.2058 47.7538 41.2998 48.4926C43.1865 49.761 43.9983 51.6128 44.2868 53.5027C44.8037 56.8638 46.4621 59.5528 48.2314 62.2227C50.692 62.5398 53.0861 62.7681 55.4357 63.2183C58.1754 63.7415 58.2705 64.0142 58.1627 66.7793C58.0834 68.7547 57.4937 70.7778 58.4798 72.6835C58.9079 73.5079 59.2535 74.6526 59.9575 74.9983C62.5259 76.2666 64.3967 78.7495 67.4947 79.1205C68.5792 79.2536 69.5621 80.2334 70.8495 80.9786C69.9585 81.8157 69.4512 82.2977 68.947 82.7765C68.9788 82.9716 69.0397 83.1608 69.1277 83.3378C71.6566 86.7122 75.192 89.196 79.2239 90.4311C81.1043 91.077 82.9112 91.9199 84.6145 92.9456C86.8087 94.227 89.3558 94.7715 91.8822 94.4994C94.0257 94.3186 96.2042 94.5565 98.3699 94.6135C99.2133 94.6326 100.101 94.8513 100.888 94.6548C103.313 94.0428 105.644 94.6548 108 95.0004C109.56 95.235 111.088 95.698 111.891 97.3247C112.063 97.7013 112.374 97.9967 112.759 98.1491C114.269 98.4884 115.356 99.1004 115.949 100.724C116.178 101.358 117.465 101.675 118.321 101.992C119.682 102.503 121.21 102.68 122.443 103.384C124.939 104.802 127.647 105.052 130.371 105.179C133.608 105.328 136.887 105.001 140.08 105.398C141.983 105.636 143.701 106.983 145.569 107.64C146.672 107.994 147.657 108.642 148.418 109.515C149.179 110.388 149.687 111.452 149.888 112.593C150.389 115.012 150.126 117.412 148.515 119.505C147.747 120.498 147.164 121.63 146.416 122.638C142.633 127.759 137.537 130.762 131.297 131.862C130.98 131.919 130.574 131.862 130.38 132.052C128.097 134.158 125.358 133.146 122.957 132.791C121.675 132.614 120.446 132.16 119.357 131.461C118.267 130.761 117.343 129.834 116.647 128.742C114.681 125.647 112.661 122.584 110.644 119.521C110.359 119.087 110.01 118.456 109.601 118.376C106.478 117.787 104.379 115.205 101.455 114.299C100.593 114.032 99.6097 114.096 98.6838 114.118C97.9703 114.137 97.222 114.527 96.5593 114.394C95.5478 114.191 94.5521 113.924 94.2667 115.196C94.0162 116.315 93.9972 117.558 95.3258 118.211C96.2533 118.711 97.2058 119.163 98.1796 119.565C101.579 120.834 102.584 123.963 100.523 126.979C100.285 127.325 99.9553 127.67 99.8888 128.057C99.486 130.042 98.2652 131.361 96.7178 132.566C95.3322 133.638 94.1811 134.998 92.8874 136.21C90.2333 138.708 87.0402 138.315 84.0088 137.478C82.5407 137.069 80.9869 136.463 79.8866 134.89C78.9362 133.501 77.509 132.508 75.8754 132.1C74.03 131.628 72.3874 130.296 70.7449 129.18C70.2344 128.831 70.0441 127.975 69.7936 127.321C67.7008 122.185 65.0309 117.428 60.1255 114.444C58.7148 113.56 57.1579 112.934 55.5277 112.596C53.01 112.13 50.5113 111.917 48.8371 109.58C48.4407 109.025 47.6289 108.768 46.9345 108.312C46.8996 106.137 46.5825 104.155 43.808 103.673C43.2689 103.578 42.9043 102.36 42.4984 101.637C41.1191 99.2018 39.2451 98.5867 37.0571 100.191C35.4717 101.361 33.8196 102.693 32.7764 104.313C30.5568 107.763 28.7018 111.435 26.777 115.06C24.8523 118.684 24.8745 122.797 24.2403 126.713C23.5712 130.863 23.3334 135.087 21.7797 139.048C20.4701 142.383 21.0916 145.865 20.8284 149.283C20.6603 151.569 20.6825 153.913 20.1435 156.117C19.4491 158.97 18.2631 161.675 17.3245 164.456C17.0246 165.357 16.7893 166.277 16.6206 167.212C16.3035 169.048 16.8965 170.44 18.4946 171.54C20.3739 172.843 22.174 174.256 23.8852 175.773C24.4866 176.31 24.8607 177.056 24.9316 177.859C24.9316 179.026 23.8503 179.255 22.8546 179.347C22.2204 179.404 21.5355 179.689 21.0155 179.493C18.4122 178.51 15.5869 178.395 13.0882 176.854C10.5895 175.313 7.59935 174.448 4.85968 173.236C3.8006 172.767 2.69712 172.26 2.87786 170.722L0.975315 171.28L1.92659 168.94C-0.15353 167.909 0.0494087 167.935 0.341133 165.544C0.731155 162.373 2.09148 159.687 3.55327 156.916C4.37136 155.368 4.18745 153.288 4.42527 151.439C4.54576 150.488 4.5743 149.515 4.65991 148.31L3.76255 147.568C6.72418 144.264 6.54661 140.592 5.18629 136.977C4.59333 135.391 4.91993 134.618 6.5371 133.863C6.03365 133.457 5.55205 133.024 5.09433 132.566C4.34917 131.726 4.24135 130.727 5.20214 130.083C7.54545 128.52 6.82882 126.329 6.54027 124.243C6.15659 121.446 5.58899 118.671 5.25605 115.868C5.1197 114.749 5.32264 113.579 5.4463 112.444C5.53509 111.606 5.95682 110.757 5.86169 109.958C5.33849 105.613 6.81297 101.815 8.75991 98.0793C9.05797 97.4991 8.7599 96.6397 8.87089 95.9295C9.47019 91.9024 10.1393 87.888 10.729 83.8641C11.1857 80.7598 11.7374 77.6555 11.9372 74.5321C12.0241 72.6669 11.7947 70.8003 11.2586 69.0116C11.0271 68.2125 9.9046 67.5117 9.03895 67.0837C6.01389 65.606 5.80144 64.1474 8.46184 62.0102C10.7449 60.1774 13.4085 59.854 16.2242 60.0823C17.4387 60.1806 18.6849 59.9903 19.8771 60.1743C22.0016 60.4913 24.0976 61.0145 26.4092 61.4934C26.6819 58.592 25.6323 55.8523 24.0786 53.249C23.8154 52.8051 23.1527 52.4309 23.1527 52.025C23.1527 48.6258 20.1847 47.3511 18.3265 45.3883C17.277 44.2785 16.8109 43.3399 16.703 41.9003C16.5624 40.0445 16.2254 38.2089 15.6979 36.4241C15.3047 35.0955 14.4897 33.8874 13.2182 32.6951C13.6209 31.6456 14.068 30.6087 14.4041 29.5242C14.68 28.6522 15.1112 27.6851 14.9527 26.8606C14.6927 25.532 14.3946 23.9434 12.2923 24.1685C12.9265 21.8189 13.9634 20.2937 16.6808 19.8054C16.8806 21.2957 17.4387 22.7575 17.1723 24.0512C16.6777 26.4548 17.8065 28.1132 19.0305 29.835C19.6647 30.726 20.3432 31.598 20.9108 32.3717C21.2787 30.2091 21.2279 27.8531 19.8835 25.6335C19.2017 24.5078 19.1415 23.3473 19.6583 22.0187C20.2925 20.3539 20.1371 20.1795 19.0241 18.0519C18.6785 18.5021 18.409 18.8604 18.1363 19.2188C17.9746 19.1268 17.7019 19.0634 17.6733 18.9429C17.315 17.2274 16.6491 16.2222 14.4929 16.292C13.6082 16.3174 12.5904 14.6558 11.8135 13.6348C11.6645 13.4413 12.2099 12.544 12.6126 12.1508C13.0153 11.7576 13.6209 11.6054 14.68 11.0727L9.87924 10.4607C10.3929 8.73889 10.1773 6.84268 12.156 6.43363C13.7953 6.09752 15.5235 6.12923 16.405 8.03177C15.2159 11.0917 15.2159 11.0917 17.6131 12.1159C17.9859 11.6337 18.328 11.1285 18.6373 10.6034C19.3856 9.15745 20.4733 8.41545 22.1665 8.50107C22.9402 8.53912 24.0944 8.64059 24.0691 7.43247C24.0691 6.93147 23.3588 6.17996 22.8229 6.00556C20.6033 5.28576 21.9065 3.88105 22.1094 2.45097L17.4894 2.13388L22.1982 0.104492L26.72 1.58848C26.0858 3.23418 26.9419 5.16844 25.6799 7.02659C24.643 8.54863 26.4599 12.2364 28.3054 13.0513C29.5516 13.5904 30.8421 14.0248 32.2532 14.5607C32.1264 15.458 32.0154 16.2508 31.879 17.2401L29.9289 16.9515C28.6605 17.2686 27.1131 16.4569 25.7021 18.2516C27.6237 18.3943 28.7525 17.5445 29.9321 16.9262ZM26.1904 73.1877C24.1515 76.8945 21.304 85.7191 21.545 88.0307C24.142 86.959 26.6692 86.0394 29.0696 84.8598C29.4598 84.6234 29.7944 84.3055 30.0505 83.9279C30.3066 83.5503 30.4782 83.1219 30.5536 82.6719C30.8358 79.5771 31.1434 76.4252 29.6023 73.5745L26.1904 73.1877ZM24.5289 14.2087C22.7056 12.7881 20.9299 12.7216 18.8688 13.7933C18.9677 14.2144 19.1168 14.6221 19.3127 15.0078C19.5347 15.3249 19.9025 15.5532 19.763 15.4295L24.5289 14.2087Z" fill="black"/>
</g>
<defs>
<clipPath id="clip0_729_763">
<rect width="150" height="179.467" fill="white" transform="translate(0.160156 0.104492)"/>
</clipPath>
</defs>
</svg>
