<svg width="151" height="191" viewBox="0 0 151 191" fill="none" xmlns="http://www.w3.org/2000/svg">
<g clip-path="url(#clip0_729_759)">
<path d="M111.579 89.3799C114.121 90.8924 116.255 90.1516 118.331 89.8468C119.213 89.6776 120.071 89.3989 120.885 89.0173C128.053 86.0387 135.546 87.4508 142.942 87.3582C144.69 87.3389 146.445 87.8598 148.189 88.1723C149.632 88.4269 150.473 89.6886 150.049 91.3283C149.258 94.3725 147.692 96.9073 144.983 98.7284C139.285 102.567 133.509 106.318 128.053 110.477C123.902 113.644 120.26 117.464 116.266 120.848C114.18 122.542 111.989 124.104 109.707 125.524C106.257 127.73 103.397 130.744 101.374 134.305C101.091 134.881 100.749 135.427 100.355 135.933C95.4051 141.539 93.993 148.731 92.2953 155.572C91.3231 159.48 92.1564 163.905 94.3209 167.821C98.7964 175.924 105.896 181.36 112.871 186.997C113.774 187.73 114.557 188.606 115.641 189.647C112.516 191.619 110.066 190.469 107.956 189.262C103.777 186.846 99.9462 183.818 95.7214 181.503C91.1996 179.026 87.2333 175.835 83.0279 172.953C78.8224 170.071 77.0399 166.811 77.9813 161.706C79.2738 154.715 80.1304 147.62 82.2678 140.833C83.2517 137.708 84.9917 134.76 86.7511 131.959C90.2235 126.45 94.3248 121.411 98.7116 116.592C100.498 114.636 101.829 112.251 100.841 109.435C97.6313 108.413 94.3093 107.965 91.6703 106.379C87.6114 103.941 83.1128 102.012 80.6628 97.2353C79.2623 94.4998 78.5369 92.1733 78.6604 89.0558C78.8456 84.4877 78.0161 79.881 77.6109 75.2897C77.6109 75.1624 77.5029 75.0351 77.5183 74.9039C78.3671 68.3951 74.1115 63.8732 71.1986 58.8498C70.6386 58.0196 69.8675 57.3537 68.9647 56.9207C67.1629 55.9716 65.2608 55.2231 63.4088 54.3704C62.124 53.7801 60.9473 53.7068 59.9056 54.8527C57.089 57.9586 54.0526 60.8908 51.4985 64.1934C47.5425 69.3725 44.0428 74.8846 41.0388 80.6681C38.1413 86.1429 35.6373 91.664 34.0554 97.5787C33.3157 100.249 32.9878 103.016 33.0832 105.785C33.3378 111.244 33.469 116.785 36.0154 121.851C36.2392 122.302 36.2816 122.889 36.598 123.244C39.6537 126.689 42.5628 130.296 45.9118 133.429C47.5014 134.915 50.0131 135.358 52.0116 136.47C53.8751 137.496 55.6113 138.754 57.4131 139.942C56.5913 142.002 55.0751 141.917 53.744 141.968C47.4512 142.207 41.1816 142.076 35.101 140.146C34.2416 139.888 33.4261 139.502 32.6819 139.001C29.9812 137.106 27.3229 135.142 24.6491 133.19C24.5445 133.116 24.4543 133.023 24.3829 132.916C22.4924 129.76 20.4552 126.681 18.7769 123.417C17.8586 121.627 17.7043 119.466 16.9327 117.584C12.7195 107.298 13.9695 97.135 17.2567 86.9145C18.6573 82.5586 19.8147 78.1139 20.814 73.65C21.1999 71.8752 20.8796 69.9345 20.8796 67.9282C19.8379 67.7353 19.1164 67.5733 18.3872 67.4729C14.3476 66.9174 10.2849 66.4042 6.27239 65.8062C5.51439 65.665 4.79265 65.3724 4.15036 64.9458C1.83543 63.4835 1.68882 60.9564 4.15036 59.7603C9.55188 57.1252 12.106 52.503 13.8461 47.1324C14.2975 45.7318 15.0267 44.4316 15.7752 42.734C12.6655 41.9624 10.1769 40.8319 7.2871 40.9168C5.65765 40.9615 4.03883 40.6411 2.5492 39.9792C-0.429348 38.6289 -0.649267 35.6542 2.05149 33.7752C4.04233 32.3901 6.34183 31.4603 8.34811 30.0829C11.18 28.1538 13.9618 26.0974 16.597 23.9097C20.1767 20.9857 24.2915 18.7867 28.7118 17.4356C32.3887 16.2782 36.571 16.7142 40.5334 16.4325C41.5481 16.3631 42.64 16.4711 43.5544 16.1238C46.1124 15.1516 48.2576 15.6956 49.4999 18.0144C51.1512 21.101 53.9639 22.6905 56.8074 24.3303L55.4454 28.9602C58.2465 32.1162 61.5376 33.4318 65.1875 34.5276C72.8113 36.8116 80.5316 37.0701 88.3368 36.7615C89.7065 36.7036 91.08 36.7615 92.195 36.7615C93.6843 33.8678 95.3703 31.2789 96.3465 28.447C97.026 26.261 97.2299 23.9549 96.9445 21.6835C96.767 20.0322 96.8789 18.678 97.6544 17.289C99.9867 13.1684 102.742 9.30216 105.876 5.75294C109.299 1.84456 113.77 0.744966 118.608 0.413158C119.766 0.335994 120.954 0.663943 122.062 0.451741C127.525 -0.586121 132.425 0.775831 137.109 3.53832C139.721 5.08161 140.859 7.60103 139.4 10.2285C138.173 12.4354 136.792 14.6616 135.041 16.4441C132.158 19.3763 131.53 22.3626 133.192 26.1398C135.199 30.7079 135.226 34.871 130.905 38.6173C128.767 40.4692 127.513 43.4053 126.066 45.9479C121.992 53.1628 120.375 61.1956 118.666 69.1706C118.28 71.0225 118.072 73.0944 118.489 74.9077C119.604 79.7691 117.609 83.3341 114.388 86.5634C113.535 87.447 112.671 88.2958 111.579 89.3799Z" fill="black"/>
</g>
<defs>
<clipPath id="clip0_729_759">
<rect width="150" height="190.608" fill="white" transform="translate(0.160156 0.104492)"/>
</clipPath>
</defs>
</svg>
