<svg width="151" height="68" viewBox="0 0 151 68" fill="none" xmlns="http://www.w3.org/2000/svg">
<g clip-path="url(#clip0_729_327)">
<path d="M113.896 67.636C112.534 49.3087 100.587 43.3588 86.0589 38.2214C64.1592 30.4676 43.0003 20.6348 21.3755 12.1163C14.8641 9.48787 7.86292 8.13781 0.228516 5.98727C5.52123 0.336135 11.8773 -0.309026 18.6515 0.395872C22.2357 0.766242 25.8199 2.09241 29.201 1.59062C49.5117 -1.70688 68.2691 5.41379 87.7434 8.75907C108.699 12.3433 125.653 24.2907 144.446 32.3194C149.93 34.7089 151.961 39.906 148.747 45.151C141.208 57.3732 131.125 66.3337 113.896 67.636Z" fill="black"/>
</g>
<defs>
<clipPath id="clip0_729_327">
<rect width="150" height="67.4671" fill="white" transform="translate(0.228516 0.168945)"/>
</clipPath>
</defs>
</svg>
