<svg width="151" height="151" viewBox="0 0 151 151" fill="none" xmlns="http://www.w3.org/2000/svg">
<g clip-path="url(#clip0_729_671)">
<path d="M91.7112 126.97C92.6411 119.668 91.8441 113.129 90.2376 106.604C88.631 100.078 87.3068 93.5232 85.7916 86.9975C85.5135 85.8019 84.8949 84.6853 84.4591 83.5229C83.1597 80.0567 81.8895 76.5821 80.5735 73.1449C80.2802 72.2189 79.8612 71.3375 79.3282 70.5255C77.3397 67.8811 76.9495 64.7138 76.1359 61.6502C74.7618 56.4695 73.1802 51.3427 71.8145 46.1578C71.1129 43.5052 69.1618 42.0481 67.0779 40.7613C64.6578 39.2461 62.0259 38.0754 59.6306 36.5229C56.4467 34.4473 53.3831 32.3094 50.8633 29.2873C48.576 26.5433 45.8818 23.8617 41.7057 23.2971C40.2652 25.4931 40.6887 27.8012 41.8344 29.5696C46.3551 36.5478 47.3306 44.7713 50.0206 52.3764C51.2161 55.7596 51.1248 59.7157 51.0667 63.402C50.9588 70.0979 51.5648 76.5738 54.479 82.7217C55.2013 84.2535 56.2723 85.8601 54.9273 87.7613C53.3249 90.0196 49.5764 90.4596 46.9653 88.1557C44.8108 86.2544 42.702 84.129 41.1868 81.7171C38.7749 77.8814 36.8073 73.7551 34.8022 69.6786C34.2792 68.6076 34.2709 67.2709 34.1007 66.0463C33.6399 62.6631 33.3161 59.2549 32.7391 55.8883C32.3891 53.9895 31.8552 52.1293 31.145 50.334C30.3148 48.1587 29.3268 46.0416 28.3263 43.9328C25.516 38.0215 21.5059 32.849 17.9234 27.4109C16.678 25.5014 14.9387 24.7666 12.6389 24.8746C6.91437 25.1361 3.50622 21.5536 0.816235 17.1907C-0.719715 14.6999 0.604523 10.9638 3.09525 8.77199C9.29302 3.3422 16.4788 1.15036 24.6525 1.50737C27.1324 1.64404 29.6171 1.34907 31.996 0.635611C36.3091 -0.73429 40.1656 0.843171 44.0927 1.94739C45.3131 2.29195 46.1683 3.86526 47.4136 4.22641C49.3987 4.7673 51.446 5.04641 53.5035 5.05666C56.5255 5.11892 59.5642 4.76192 62.221 6.78356C62.8126 7.14807 63.4899 7.34998 64.1845 7.36888C69.7776 7.88917 75.3734 8.38039 80.972 8.84256C87.9461 9.41543 94.1521 11.3873 97.7139 18.0915C99.0713 20.6403 100.736 22.4544 103.887 22.8737C106.714 23.2473 109.42 24.4262 112.231 24.9949C114.273 25.4101 116.228 25.2399 117.918 23.4673C120.359 20.8977 123.086 18.5979 125.685 16.1736C125.984 15.8996 126.191 15.4679 126.536 15.306C129.857 13.7451 133.07 11.8563 136.54 10.7895C140.92 9.43619 145.029 11.1506 148.463 13.7908C151.157 15.8664 150.455 18.3571 147.981 21.0347C146.259 22.9372 143.892 24.1325 141.339 24.3889C137.786 24.7625 134.697 26.2528 131.791 27.8842C128.599 29.6443 125.942 32.3135 123.036 34.5593C120.658 36.4232 118.441 38.5777 115.834 40.0306C112.629 41.8115 108.926 41.6662 105.315 41.5085C103.148 41.413 100.973 41.5085 98.8555 41.5085C97.4648 43.3309 98.1705 45.091 98.5026 46.8096C100.163 55.4566 101.865 64.0952 103.513 72.7464C104.19 76.2874 105.277 77.2753 108.91 77.3916C109.599 77.4165 110.446 77.155 110.952 77.4622C114.406 79.5378 117.594 78.0807 120.853 76.9432C123.364 76.0632 125.863 76.2043 128.533 76.4534C132.323 76.8146 136.204 76.2832 140.04 76.0383C143.68 75.7851 146.798 76.5821 149.21 80.0899C148.487 80.9201 147.964 81.9579 147.101 82.4062C144.266 83.8965 141.264 84.9509 137.968 84.4819C133.867 83.9256 129.745 83.4648 125.681 82.7051C122.455 82.0516 119.117 82.2288 115.979 83.2199C116.473 85.1959 116.747 87.0888 117.424 88.824C118.877 92.5228 120.267 96.2962 122.206 99.7376C123.651 102.303 125.884 104.433 127.823 106.712C129.674 108.887 131.372 111.278 133.539 113.092C137.91 116.753 139.38 121.963 141.509 126.837C141.821 127.551 141.555 128.497 141.555 129.356L140.633 129.772C138.861 127.962 136.897 126.289 135.345 124.317C131.152 119.041 127.1 113.698 121.857 109.323C119.591 107.434 118.15 104.59 116.137 102.361C114.435 100.476 112.642 98.4507 109.437 99.0194C108.636 103.49 110.201 107.521 111.135 111.635C111.591 113.64 112.268 115.633 112.442 117.663C113.032 124.591 114.518 131.162 118.196 137.223C119.856 139.934 121.783 143.014 119.3 146.501C115.971 147.228 112.5 146.939 109.337 145.671C105.041 144.035 100.549 142.765 96.1323 141.383C93.1849 140.453 89.8764 140.594 86.7215 140.424C85.6319 140.38 84.5486 140.609 83.5707 141.092C79.955 142.923 75.9615 144.118 73.6078 147.946C72.5409 149.673 70.7019 150.822 68.2361 150.021C65.6707 149.166 65.3718 148.776 65.2265 145.924C65.0646 142.653 66.3847 140.332 68.6969 137.97C72.9477 133.628 77.676 130.361 83.5832 128.883C86.1901 128.219 88.8427 127.638 91.7112 126.97Z" fill="black"/>
</g>
<defs>
<clipPath id="clip0_729_671">
<rect width="150" height="150.174" fill="white" transform="translate(0.160156 0.104248)"/>
</clipPath>
</defs>
</svg>
