<svg width="151" height="63" viewBox="0 0 151 63" fill="none" xmlns="http://www.w3.org/2000/svg">
<g clip-path="url(#clip0_729_391)">
<path d="M31.0022 36.5317C26.9957 29.2332 21.9712 23.2484 16.6433 17.5249C11.3154 11.8013 5.84916 6.11227 0.160156 0.104433C2.46495 0.06602 3.76332 1.67938 4.97718 2.74727C10.0059 7.25637 15.7087 10.9515 21.879 13.6989C23.8458 14.5555 25.5821 15.9499 27.5603 16.772C29.208 17.429 30.9547 17.8031 32.7269 17.8783C35.147 17.9781 36.5683 19.7682 38.4428 20.7362C39.9794 21.5314 41.5697 22.4379 43.2406 22.8105C45.4609 23.3061 47.7888 23.3214 50.0705 23.5557C60.2961 24.6083 69.3002 29.0335 78.0354 34.0003C80.6275 35.4245 82.6722 37.6705 83.8473 40.3846C84.6732 42.3437 85.9332 42.6087 87.2469 41.2335C91.8104 36.4511 97.0884 32.579 102.378 28.6532C106.715 25.4341 110.445 21.4161 114.459 17.7438C114.82 17.4135 115.066 16.9256 115.469 16.6759C119.445 14.2059 123.371 11.6361 127.466 9.3774C129.924 8.01757 132.69 7.75252 135.586 7.64112C141.21 7.40296 143.999 10.4184 146 15.0856C147.152 17.7361 148.689 20.2138 150.16 22.9872C148.147 25.7146 146.058 28.6954 143.803 31.5457C141.955 33.8851 139.343 34.6188 136.424 34.8569C133.735 35.0797 131.43 34.9683 128.741 33.9388C127.319 33.399 125.776 33.2568 124.279 33.5275C122.782 33.7982 121.387 34.4716 120.244 35.4754C118.901 36.6054 117.413 37.5498 115.819 38.2834C112.289 40.035 108.804 41.7406 105.582 44.1568C101.894 46.9341 97.5148 48.8048 93.4506 51.0712C92.0217 51.8702 90.4544 52.5193 89.2252 53.568C86.64 55.7845 84.2315 58.216 81.7576 60.5669C79.837 62.3916 73.4911 62.8717 71.4091 61.2276C70.8483 60.7897 70.5333 60.0215 70.1376 59.3838C68.6011 56.9126 67.0825 54.4387 65.5818 51.9624C65.0517 51.0865 64.4294 50.2261 64.1144 49.2734C62.1938 43.3232 57.5496 40.4614 52.0527 38.5869C49.1832 37.6112 46.2907 36.7353 43.3674 35.8979C40.5473 35.0214 37.5202 35.0739 34.7321 36.0477C33.4837 36.4895 32.0432 36.4088 31.0022 36.5317Z" fill="black"/>
</g>
<defs>
<clipPath id="clip0_729_391">
<rect width="150" height="62.1104" fill="white" transform="translate(0.160156 0.104492)"/>
</clipPath>
</defs>
</svg>
