<svg width="151" height="465" viewBox="0 0 151 465" fill="none" xmlns="http://www.w3.org/2000/svg">
<g clip-path="url(#clip0_729_703)">
<path d="M0.160156 464.458C1.31214 459.107 2.30285 453.727 3.61611 448.411C6.02376 438.435 9.14564 428.643 11.0061 418.58C13.2352 406.588 16.6739 394.838 17.4687 382.529C18.2233 370.9 20.2738 359.357 21.2991 347.739C22.1112 338.644 22.2322 329.486 22.6584 320.356C22.8427 316.324 23.1423 312.333 23.1768 308.318C23.269 297.224 23.2517 286.131 23.2805 275.037C23.3385 274.27 23.3231 273.498 23.2344 272.733C21.0687 261.789 21.8002 250.638 21.7541 239.631C21.7138 231.947 21.5122 223.999 24.5477 216.401C26.2008 212.271 26.0222 207.445 26.9553 202.998C27.9403 198.338 29.2593 193.782 30.4516 189.134C31.2119 186.173 31.9837 183.213 32.7556 180.252C33.0436 179.14 33.1415 177.948 33.6311 176.928C38.4349 166.941 42.5417 156.486 49.7992 147.962C54.7274 142.284 61.1215 138.069 68.2828 135.78C77.8155 132.64 86.6742 128.182 95.51 123.615C98.3701 122.054 101.03 120.15 103.43 117.947C107.398 114.445 107.629 109.37 103.562 105.995C100.106 103.115 95.942 100.99 92.0137 98.6683C88.2294 96.4392 84.4451 94.8092 79.6702 94.8898C76.1393 94.9474 72.4472 93.1043 69.8034 89.9017C67.1596 86.6992 64.0435 83.9172 61.1635 80.8932C59.6372 79.2747 58.4506 77.3048 56.7745 75.8878C52.6964 72.4319 48.5551 69.045 44.2005 65.975C35.7219 60.0077 28.6142 52.5198 21.2184 45.3833C17.0943 41.4089 15.136 35.7815 15.8272 29.5953C16.4492 24.1867 20.8959 20.2009 26.4657 19.6882C34.017 18.9798 40.6755 22.1362 47.6507 23.9391C48.7274 24.3379 49.6071 25.1391 50.1045 26.1739C52.6907 31.7898 57.5348 34.6007 62.7763 37.1927C67.511 39.5369 71.7906 42.9526 76.675 44.8246C80.6263 46.3509 85.2746 47.2207 89.439 46.7599C95.556 46.0975 97.3992 43.3039 97.0939 36.801C96.682 30.0849 98.0134 23.3764 100.959 17.3267C101.794 15.5987 102.514 13.6922 103.839 12.4307C107.381 9.03814 111.2 5.92778 114.95 2.75406C115.67 2.17807 116.557 1.43504 117.421 1.34864C122.703 0.824483 128.031 0.432808 133.347 0.104492C134.117 0.164431 134.845 0.48079 135.415 1.00304C140.426 5.12715 145.31 9.64293 146.428 16.2553C147.061 20.0223 146.192 24.2501 145.155 28.0401C143.766 33.2155 143.059 38.5502 143.052 43.9087C143.012 48.2287 141.866 52.5486 141.048 56.8455C140.04 62.1159 138.611 67.3113 137.909 72.6162C137.678 74.3442 138.779 76.6078 139.925 78.1342C143.446 82.6647 146.296 87.6795 148.386 93.0236C148.74 94.1011 148.934 95.2248 148.962 96.3586C149.336 102.66 149.486 108.979 150.039 115.257C150.511 120.573 149.383 124.98 145.184 128.643C140.985 132.306 137.264 136.407 133.249 140.226C125.151 147.927 115.088 152.12 104.87 156.031C102.917 156.78 100.74 157.339 99.1618 158.6C94.6575 162.2 89.4217 163.876 83.944 164.936C76.2661 166.422 71.468 171.791 66.9407 177.418C65.2819 179.54 64.0284 181.949 63.2429 184.526C60.6336 192.93 57.1949 200.993 54.027 209.178C50.4097 218.532 47.8351 228.359 47.1151 238.652C46.2396 250.661 44.1026 262.561 42.7202 274.536C42.2191 278.862 42.4783 283.274 42.1443 287.628C40.9174 303.463 39.7193 319.308 38.2045 335.102C37.5825 341.191 36.5628 347.232 35.1517 353.188C32.2717 365.675 29.2075 378.111 26.0395 390.524C23.1595 401.819 20.1989 413.097 16.9388 424.288C15.4988 429.219 13.2121 433.896 11.3402 438.688C7.9495 447.374 4.5665 456.064 1.19118 464.758L0.160156 464.458Z" fill="black"/>
</g>
<defs>
<clipPath id="clip0_729_703">
<rect width="150" height="464.653" fill="white" transform="translate(0.160156 0.104492)"/>
</clipPath>
</defs>
</svg>
