<svg width="151" height="62" viewBox="0 0 151 62" fill="none" xmlns="http://www.w3.org/2000/svg">
<g clip-path="url(#clip0_729_531)">
<path d="M18.5974 47.6154C20.7778 47.9626 22.9496 48.3724 25.1429 48.6139C25.6972 48.6743 26.4045 48.3271 26.8833 47.9669C28.3628 46.8368 29.8746 45.7132 31.1729 44.3912C32.8357 42.7004 34.8392 41.6458 36.9765 40.809C39.9081 39.6588 42.8642 38.5732 45.8447 37.5524C47.2594 37.0693 48.7562 36.8256 50.2054 36.431C50.7964 36.2692 51.3571 35.9996 52.127 35.6977C51.0271 34.5352 49.841 34.5805 48.8079 34.9191C47.13 35.4691 45.5729 35.1068 43.9447 34.8113C41.9109 34.4382 39.847 34.2592 37.8003 33.9163C36.0556 33.6208 34.3324 33.1917 32.5942 32.8509C28.3865 32.0271 24.1379 31.3801 19.9777 30.3621C15.1511 29.1781 10.3957 27.6965 5.62298 26.2968C4.39593 25.9241 3.19732 25.4636 2.03645 24.9187C1.26615 24.5564 0.615236 23.9818 0.160156 23.2624C0.567765 23.3249 1.05086 23.2624 1.3722 23.4781C4.39152 25.3802 7.89825 25.4687 11.2303 26.2127C14.9376 27.0365 18.6384 27.8798 22.3436 28.7166C23.2494 28.9322 24.1487 29.1889 25.0653 29.3226C28.9473 29.8876 32.8594 30.4139 36.7544 30.9617C37.1842 30.9905 37.6073 31.0835 38.0095 31.2377C40.6579 32.4929 43.578 32.4605 46.3666 33.0472C47.6196 33.3103 48.8144 33.8581 50.0717 34.091C52.4311 34.5223 54.7819 34.5827 56.8372 32.8617L58.0427 34.3713L70.5514 32.26C69.9324 31.6691 69.6887 31.2636 69.3523 31.1428C66.3157 30.0774 63.2669 29.0437 60.2059 28.0415C58.4417 27.4614 56.6733 26.8877 54.8789 26.4241C52.5993 25.8353 50.2939 25.3457 47.9927 24.8368C44.5701 24.0776 41.141 23.3422 37.7162 22.5917C36.2945 22.2998 34.8892 21.9327 33.5064 21.4918C34.2699 21.4918 35.0333 21.4767 35.7968 21.4918C36.5603 21.5069 37.3733 21.5371 38.1562 21.6147C39.0188 21.701 39.8578 21.8562 40.7097 21.9662C46.964 22.7728 53.1903 23.8145 59.2828 25.4622C63.8808 26.7066 68.412 28.1968 72.9625 29.6008C73.5664 29.7884 74.1055 30.1766 74.7029 30.388C75.4858 30.664 76.2989 30.8581 77.2025 31.1169C77.5562 29.8575 77.1853 29.176 76.1414 29.176C75.4772 29.176 75.1688 28.915 74.7137 28.5182C73.4844 27.4398 72.1559 26.4823 70.8317 25.5139C68.8907 24.0841 66.939 22.6542 64.9505 21.2869C62.9621 19.9196 61.1074 18.4832 58.8256 17.6206C57.5316 17.131 56.3002 16.3266 55.1916 15.4639C53.3721 14.0883 51.3822 12.9538 49.2716 12.0887C43.8778 9.7617 38.5271 7.30742 33.1743 4.84883C31.4253 4.04871 29.7236 3.13644 28.0415 2.20692C27.4462 1.87695 26.9631 1.34426 26.4822 0.93665C26.769 -0.0101231 27.2737 -0.0209064 27.8819 0.244363C29.5123 0.953904 31.1643 1.62247 32.771 2.38377C35.1433 3.50523 37.4596 4.71296 39.8211 5.83442C40.9124 6.35418 42.0145 7.01412 43.1769 7.19743C47.9884 7.96952 52.1658 10.4561 56.6646 12.0542C60.7515 13.5035 64.5882 15.658 68.5263 17.5063C69.4299 17.9376 70.3465 18.3323 71.2156 18.8154C72.941 19.7815 74.6318 20.8383 76.3765 21.7808C78.4296 22.8914 80.5 23.9806 82.6136 24.9705C85.3266 26.2407 88.0548 27.5002 90.8499 28.5786C92.435 29.191 94.1625 29.4412 95.8274 29.8424C99.9898 30.8517 104.137 31.9257 108.321 32.8315C109.686 33.127 111.146 33.0019 112.565 33.0277C113.201 33.0407 113.84 32.907 114.476 32.9134C115.91 32.9264 117.174 32.784 118.494 31.8826C119.572 31.1364 121.22 30.8495 122.592 30.9228C124.563 31.0307 126.519 31.5936 128.46 32.0594C130.474 32.5403 132.465 33.1377 134.462 33.6855C135.971 34.1169 137.481 34.5482 138.991 34.9968C139.608 35.1758 140.22 35.5101 140.841 35.5252C143.621 35.6006 145.39 37.3669 147.018 39.2454C148.646 41.1238 149.882 43.1813 149.778 45.8038C149.798 46.1577 149.871 46.5067 149.994 46.839C150.928 50.2508 147.622 54.1307 143.912 53.9258C141.54 53.7942 139.573 52.8776 137.725 51.4456C136.687 50.6036 135.544 49.899 134.326 49.3493C132.706 48.6549 130.841 48.4112 129.493 46.977C128.578 46.0108 125.9 46.1704 124.696 46.867C122.835 47.9454 121.6 49.6038 120.478 51.3486C119.587 52.731 118.785 54.176 118.035 55.6382C117.433 56.8135 116.728 57.838 115.576 58.5497C115.109 58.8644 114.705 59.2638 114.385 59.7272C113.355 61.1376 112.149 61.6358 110.588 61.211C107.952 60.4971 105.787 59.1557 104.506 56.6389C103.167 54.0034 101.109 51.8791 99.1853 49.7203C96.9252 47.1797 93.7074 46.5069 90.3754 46.4573C89.2345 46.44 88.0936 46.3322 86.7091 46.2524C85.7537 47.5464 84.2117 48.0014 82.4173 48.1934C80.2163 48.4375 78.0388 48.8601 75.9064 49.4572C73.9805 49.9834 72.1279 50.7857 70.2645 51.5146C67.4826 52.6006 64.6464 53.5421 61.7673 54.3355C57.7149 55.4592 53.7553 56.9235 49.69 58.0019C47.3608 58.6144 44.9065 58.7653 42.4997 59.0522C38.732 59.5029 34.9622 59.9731 31.1794 60.2771C28.9796 60.454 26.7518 60.3397 24.539 60.3181C24.3306 60.3078 24.127 60.2509 23.9434 60.1517C23.7598 60.0524 23.6008 59.9132 23.478 59.7444C24.6361 59.6905 25.7985 59.6841 26.9523 59.5784C30.513 59.2484 34.0866 58.9875 37.6256 58.5001C40.4552 58.1075 43.2567 57.4692 46.0474 56.8416C48.9093 56.1946 51.7841 55.5476 54.5813 54.6849C57.3785 53.8223 60.0484 52.6577 62.7766 51.6483C63.9843 51.2019 65.2115 50.8029 66.4322 50.3932C68.9878 49.5305 71.5499 48.7045 74.0969 47.8311C74.4118 47.7254 74.662 47.4299 75.1494 47.0676C74.6663 46.88 74.3428 46.6212 74.1012 46.6816C71.3407 47.3803 68.5996 48.1589 65.8369 48.849C63.1432 49.5197 60.4302 50.1171 57.7236 50.7404C55.843 51.1717 53.8976 51.4176 52.0904 52.0516C47.4557 53.6799 42.8491 53.3586 38.1691 52.3665C35.9348 51.8942 33.6401 51.6893 31.3692 51.4133C31.0173 51.4133 30.6787 51.5475 30.4224 51.7885C27.9444 54.0422 24.662 54.5922 21.7332 55.8689C21.3364 56.0415 20.5298 55.8538 20.2236 55.5346C19.5324 54.8212 18.9627 53.9994 18.5371 53.1019C18.0583 52.0646 17.8167 50.9194 17.4264 49.6815L18.8153 48.8425C18.7376 48.4414 18.6621 48.0359 18.5845 47.6305L18.5974 47.6154ZM73.713 42.1763C65.9491 39.0535 39.5817 43.6018 34.4618 49.5089C38.0063 49.9741 41.5934 50.0175 45.1481 49.6383C46.4227 49.496 47.7253 49.4529 48.9632 49.1466C53.2528 48.0877 57.5187 46.9274 61.7975 45.8167C62.6903 45.5838 63.6112 45.4458 64.4933 45.1697C67.1482 44.3567 69.7901 43.5048 72.4341 42.6594C72.8159 42.5559 73.1696 42.392 73.713 42.1763ZM131.581 41.745C131.192 41.3417 130.934 40.8219 130.545 40.7227C129.754 40.507 128.906 40.507 128.078 40.4618C127.647 40.4402 126.983 40.369 126.842 40.589C126.111 41.7363 125.315 40.8845 124.942 40.5049C124.33 39.8838 123.748 39.9075 123.001 39.9161C121.74 39.9291 120.34 39.3015 119.499 40.865C119.464 40.9297 119.234 40.8823 119.096 40.9017C118.151 41.0354 117.209 41.1734 116.389 41.2921C116.111 42.4135 115.858 43.2331 115.714 44.0698C115.58 44.8419 114.636 45.476 115.414 46.6816L117.961 44.5465L117.549 44.3524V42.3273L117.916 42.2518L119.065 43.9771C119.182 43.2525 119.262 42.7737 119.376 42.062C119.807 42.4588 120.055 42.8664 120.301 42.8686C122.137 42.8901 124.041 43.1101 125.779 42.681C126.67 42.4653 127.321 42.5667 128.134 42.6012C129.333 42.6529 130.291 43.0929 131.348 43.535C132.404 43.9771 133.504 44.1475 134.47 42.957C134.977 45.1439 136.735 45.4436 138.426 46.453C138.626 45.642 139.053 44.9217 138.857 44.4494C138.575 43.755 138.339 42.8384 137.145 42.806C135.363 42.7586 133.813 41.9175 132.299 40.8305L131.581 41.745ZM100.723 38.6954L100.507 39.1915C102.362 41.0721 104.218 42.9527 106.074 44.8333C106.221 44.9881 106.393 45.1178 106.583 45.2172C107.014 45.4329 107.469 45.6334 108.071 45.9095L111.228 42.6033C107.926 40.0239 104.049 40.1555 100.723 38.6954ZM23.8187 50.005L23.7475 49.4529L20.0295 48.7325C19.6456 50.7167 20.064 51.5362 21.2501 51.2149C22.1581 50.9712 22.9647 50.4191 23.8187 50.005Z" fill="black"/>
</g>
<defs>
<clipPath id="clip0_729_531">
<rect width="150" height="61.2642" fill="white" transform="translate(0.160156 0.104248)"/>
</clipPath>
</defs>
</svg>
