<svg width="151" height="197" viewBox="0 0 151 197" fill="none" xmlns="http://www.w3.org/2000/svg">
<g clip-path="url(#clip0_729_747)">
<path d="M83.2006 104.741C84.9153 110.326 89.2727 111.961 94.0213 112.89C97.9292 113.651 101.866 114.409 105.824 114.679C108.396 114.858 111.026 114.134 113.636 113.847C118.418 113.339 123.262 113.189 127.582 110.576C128.473 110.035 129.717 110.084 130.799 109.843C132.364 109.485 133.995 109.281 135.481 108.711C139.414 107.209 142.223 107.933 145.207 110.942C148.087 113.855 149.261 117.505 150.002 121.276C150.418 123.394 150.023 125.483 147.888 127.152C145.037 129.387 142.365 131.68 138.565 132.034C137.754 132.109 136.771 132.196 136.197 132.675C131.349 136.737 125.376 136.42 119.683 136.791C115.771 137.045 112.458 138.039 109.603 140.745C108.221 142.072 106.7 143.246 105.067 144.249C101.633 146.309 99.7188 149.122 100.53 153.176C101.342 157.229 100.289 160.476 97.4881 163.372C95.3614 165.57 94.8537 168.458 94.45 171.346C93.9672 174.805 93.2722 178.143 90.0551 180.273C89.6107 180.614 89.2729 181.075 89.0812 181.601C85.0484 191.731 75.8259 193.866 66.7032 196.084C62.6662 197.066 58.8332 196.084 55.1999 194.224C54.7088 193.97 54.0055 193.774 53.8099 193.358C51.9371 189.417 48.3371 186.45 47.4298 181.967C46.56 177.656 46.9512 173.569 48.9322 169.565C51.9079 163.547 52.8818 156.996 53.6767 150.421C54.5091 143.595 55.5578 136.799 56.2695 129.965C56.5109 127.618 56.5275 125.387 57.7678 123.207C58.2547 122.345 57.6013 120.497 56.9562 119.407C55.7659 117.405 54.1969 115.624 52.7944 113.759C47.8793 107.275 44.1586 100.025 39.6472 93.2833C37.8909 90.6572 37.0003 87.3277 34.9069 85.0803C30.9324 80.8186 29.2136 75.092 25.0934 70.9676C23.4287 69.3029 22.6338 66.8058 21.5101 64.6375C19.887 61.5162 19.013 60.7004 15.3797 59.352C12.7827 62.7938 13.2447 66.8891 13.4861 70.7221C13.8321 76.5292 14.5423 82.3088 15.6128 88.0269C16.287 91.6102 18.0558 94.9938 19.167 98.4897C19.862 100.683 20.1991 102.989 20.7526 105.232C21.585 108.561 22.0677 112.016 23.3954 115.12C25.1267 119.166 25.4971 123.386 26.138 127.606C26.2629 128.438 26.1047 129.329 26.4002 130.061C28.4312 135.055 27.5738 140.403 28.3646 145.535C30.0293 156.177 24.852 164.563 19.4125 172.761C17.3774 175.837 14.1145 178.043 10.5229 179.162C7.28499 180.178 3.86398 180.606 0.534536 181.297L0.201591 180.361C2.34076 179.304 4.46329 178.209 6.62327 177.19C15.9624 172.782 21.6474 165.878 22.4381 155.199C23 147.641 22.022 140.428 20.0576 133.108C17.9767 125.35 15.0634 117.992 11.9878 110.605C9.18694 103.896 7.15182 96.825 5.24987 89.7957C3.48942 83.2991 2.20758 76.6818 0.992335 70.0562C0.201591 65.6114 -0.618286 61.0542 1.54169 56.6718C1.68082 56.4301 1.73503 56.1488 1.69568 55.8727C0.780083 52.4725 2.86515 50.0462 4.60895 47.7031C7.23505 44.2197 9.59896 40.5032 14.1603 38.9841C17.7603 37.7897 20.8858 37.6565 23.67 40.6031C25.9424 43.0086 28.248 45.3933 30.5786 47.7322C32.1393 49.2888 33.7666 50.7912 35.4355 52.2353C38.1762 54.552 40.488 57.3329 42.265 60.4507C44.271 64.0174 46.5933 67.5258 49.4233 70.4391C52.7528 73.8726 54.1595 78.513 57.4681 81.8549C60.552 84.968 62.3999 86.6951 66.9196 87.2944C67.4107 85.9044 67.9226 84.3812 68.4719 82.9079C70.3656 77.793 72.4548 72.7406 74.1112 67.5508C75.3597 63.6345 75.9507 59.5143 77.0245 55.544C77.9692 52.0897 78.6309 48.369 80.4371 45.385C83.9664 39.5584 85.8225 33.1409 88.0657 26.8608C89.5432 22.7239 90.2008 18.3041 91.5242 14.109C92.9434 9.61837 95.6028 6.16407 100.43 4.73241C105.171 3.32572 109.749 0.986778 114.581 0.35002C119.412 -0.286737 124.477 0.483198 129.409 0.936836C131.339 1.15278 133.198 1.79227 134.853 2.80965C136.488 3.78725 137.881 5.12176 138.927 6.71343C142.673 12.6149 142.136 18.6412 138.927 24.6092C136.713 28.7419 133.284 31.1974 128.772 32.3543C124.802 33.374 120.865 34.506 116.945 35.7587C115.93 36.1537 115.059 36.8474 114.447 37.7481C112.783 40.0995 111.301 42.5841 109.753 45.0187C109.387 45.6014 108.821 46.1674 108.733 46.7958C107.992 52.1812 104.655 56.3888 102.432 61.1041C98.8573 68.6953 95.4946 76.3905 91.9445 83.9941C90.4921 87.0947 88.7816 90.0745 87.1959 93.1126C86.9462 93.5912 86.5092 94.099 86.5342 94.5734C86.7256 98.3856 84.6447 101.411 83.2006 104.741ZM72.871 139.567C76.6457 141.369 78.6559 141.323 81.0531 139.325C82.2191 138.364 83.2694 137.271 84.1828 136.067C86.3677 133.153 85.9807 131.684 82.7553 129.866C81.7023 129.27 80.6744 128.617 79.6214 128.018C78.1898 127.185 76.4293 127.535 75.9049 129.104C74.7479 132.571 73.8532 136.125 72.871 139.567Z" fill="black"/>
</g>
<defs>
<clipPath id="clip0_729_747">
<rect width="150" height="196.379" fill="white" transform="translate(0.160156 0.104492)"/>
</clipPath>
</defs>
</svg>
