<svg width="151" height="80" viewBox="0 0 151 80" fill="none" xmlns="http://www.w3.org/2000/svg">
<g clip-path="url(#clip0_729_555)">
<path d="M131.447 63.2909C129.54 62.3441 129.312 62.3462 127.967 63.7612C126.785 65.0098 125.697 66.3353 124.546 67.6067C124.255 67.892 123.936 68.1471 123.593 68.3683C122.688 69.0217 121.775 69.6627 120.703 70.4243C121.668 68.1249 123.308 66.2479 124.426 64.0942C125.599 61.8301 126.923 59.6452 128.192 57.4353C129.541 55.1618 130.507 52.6814 131.049 50.0938L128.704 50.381C128.036 50.4987 127.361 50.5765 126.683 50.6141C125.88 50.6141 125.42 50.9241 125.096 51.667C124.854 52.2184 124.428 52.7074 124.034 53.1736C123.202 54.1793 122.347 55.1671 121.471 56.1368C121.094 56.5404 120.693 56.9205 120.27 57.275C120.01 57.5019 119.627 57.6205 119.438 57.8847C117.998 59.8907 116.599 61.9279 115.166 63.9381C114.674 64.6634 114.127 65.35 113.53 65.992C112.956 66.5809 112.171 66.9762 111.632 67.5901C109.868 69.6002 107.554 70.0768 105.061 70.1017C102.72 70.1226 100.372 70.0039 98.0397 70.133C93.6228 70.3806 89.2708 71.3099 85.1381 72.8881C84.6865 73.0587 84.2246 73.3355 83.7668 73.3334C79.1888 73.3105 75.7928 75.6557 72.738 78.7437C71.9785 79.5137 71.9389 79.4762 70.5738 78.8936C70.6155 77.31 71.3459 76.0282 72.4009 74.8816C75.3953 71.6291 79.0598 69.3172 82.976 67.3633C84.8926 66.4061 86.7217 65.2512 88.6798 64.4105C90.1885 63.7654 91.8553 63.4949 93.443 63.0225C95.0682 62.5397 96.8598 62.5397 98.3394 61.4348C98.2312 61.1871 98.2041 60.9145 98.073 60.848C95.3158 59.4184 93.4555 56.7278 90.5401 55.5125C89.9908 55.2836 89.5829 54.7343 89.071 54.393C86.8569 52.9093 84.5804 51.513 82.4225 49.9544C81.2801 49.122 80.3291 48.04 79.3012 47.064C78.8101 46.6 78.3315 46.1235 77.8882 45.6927C75.8427 46.4085 73.9095 46.9621 72.0846 47.7611C70.4365 48.4853 69.5188 50.0293 68.6552 51.5442C67.4228 53.6954 66.4651 55.9926 65.8044 58.3821C65.7007 58.7812 65.6311 59.1885 65.5963 59.5994C65.126 64.2731 63.3406 68.3184 59.9258 71.6083C58.8854 72.6072 57.9448 73.71 56.8919 74.6943C56.3096 75.2339 55.5894 75.6019 54.811 75.7576C55.7536 74.4654 56.6963 73.1773 57.6202 71.8726C57.6535 71.8268 57.4953 71.6479 57.3934 71.4731L51.2901 75.0168L51.0404 74.7172C52.7467 72.8714 54.3386 70.9008 56.1927 69.2174C57.6764 67.8731 58.644 66.2292 59.5763 64.5644C61.318 61.4431 61.9755 57.9846 62.3397 54.4721C62.6081 51.8959 63.5216 49.5278 64.5871 47.2118C65.2467 45.776 66.0146 44.3901 66.8386 42.7795C66.333 42.8523 65.9834 42.8918 65.6379 42.9522C63.9503 43.2456 62.2565 43.8199 60.5772 43.7845C57.152 43.7159 53.8309 44.3235 50.4869 44.825C47.5294 45.3011 44.5268 45.4331 41.539 45.2183C39.7223 45.0747 37.9328 44.5586 36.1432 44.1633C31.9106 43.231 27.6843 42.2592 23.4497 41.3228C20.3116 40.6299 17.1944 39.6581 14.0169 39.3813C10.6271 39.1067 7.00842 39.0172 4.28243 41.7099C3.3377 42.6421 2.76753 43.9739 2.10996 45.1704C1.4524 46.3669 1.33795 47.9151 0.160156 48.8973C0.74281 45.8987 1.33587 42.9709 1.86858 40.0264C2.05794 38.986 2.61354 38.2805 3.47088 37.7228C4.85052 36.8239 6.11571 35.85 7.96355 35.8896C9.441 35.9166 10.9205 35.3423 12.4146 35.1758C13.5789 35.0655 14.7504 35.053 15.9168 35.1384C18.1205 35.2653 20.32 35.4547 22.5153 35.6523C24.1572 35.8022 25.7907 36.0956 27.4346 36.1601C28.9328 36.2184 30.4415 36.0103 31.946 35.9999C34.9904 35.9791 38.0389 36.1081 41.0791 35.9895C43.4897 35.8675 45.8922 35.6196 48.2769 35.2466C49.6316 35.051 50.9447 34.5765 52.2785 34.2353C55.5497 33.4029 58.8063 32.5102 62.0962 31.759C64.8472 31.1347 67.6252 30.5999 70.4199 30.1712C71.1794 30.0547 72.0846 30.3086 72.8087 30.6478C75.3807 31.8589 77.6323 33.4778 79.4676 35.7418C81.6651 38.4707 84.4245 40.6943 87.5582 42.2613C90.1885 43.5952 92.7605 45.0518 95.372 46.4793C96.9535 47.3429 97.7463 47.1972 98.9387 45.8217C99.9791 44.6273 101.248 43.6805 102.385 42.6234C105.637 39.5957 109.691 38.7446 113.707 37.6438C115.761 37.0798 117.796 36.4493 119.843 35.8667C120.503 35.6773 121.184 35.5587 121.845 35.3756C123.138 35.0135 123.362 34.3497 122.584 33.2551C122.551 33.1946 122.508 33.1392 122.459 33.0908C120.081 31.2929 119.182 28.5731 118.116 25.9865C116.703 22.5551 114.477 19.7147 112.015 17.0074C111.471 16.3944 111.027 15.6991 110.7 14.9473C109.616 12.5064 107.762 10.6856 105.87 8.91688C104.769 7.88891 103.29 7.89723 101.916 8.19688C99.5026 8.72335 97.3509 9.77421 95.8444 11.8614C94.7082 13.4324 93.5845 15.016 92.3692 16.5247C91.9697 17.0178 91.3288 17.5464 90.7461 17.6005C89.9304 17.6817 89.4976 16.9429 89.1938 16.173C88.5695 14.5749 88.2595 13.0329 89.0731 11.364C89.5538 10.3839 89.739 9.26023 90.0698 8.20521C90.9376 5.44593 92.5669 3.29843 95.1597 1.94792C96.015 1.50469 96.864 1.03441 97.7546 0.67441C100.364 -0.366042 102.763 0.0085207 104.851 1.92295C107.354 4.2342 109.698 6.7127 111.865 9.34138C113.172 10.9125 114.749 12.2546 116.152 13.7487C117.817 15.5113 119.352 17.3799 120.027 19.7646C120.36 20.9383 120.859 21.9267 121.866 22.6529C122.194 22.9009 122.449 23.2332 122.603 23.6143C123.036 24.6881 123.793 25.3976 124.763 26.0032C125.899 26.7107 126.943 27.568 128.069 28.3921L128.402 27.208L136.572 32.5081C138.52 31.6175 140.696 31.4031 142.883 31.4676C145.262 31.5301 148.71 34.3934 149.19 36.7323C149.607 38.7508 149.788 40.8172 150.098 42.8585C150.395 44.8146 149.473 46.4814 148.731 48.1315C147.936 49.8816 146.117 50.073 144.461 50.1542C143.252 50.2145 142.026 49.9211 140.806 49.8067C140.168 49.7463 139.695 49.9357 139.173 50.4309C137.413 52.1123 136.597 54.3202 135.5 56.3907C134.252 58.7504 132.799 61.0061 131.447 63.2909ZM104.622 60.54C106.349 60.3048 106.896 59.7076 107.148 57.7641C105.964 58.4549 105.038 59.202 104.622 60.54Z" fill="black"/>
</g>
<defs>
<clipPath id="clip0_729_555">
<rect width="150" height="79.2222" fill="white" transform="translate(0.160156 0.104248)"/>
</clipPath>
</defs>
</svg>
