<svg width="151" height="68" viewBox="0 0 151 68" fill="none" xmlns="http://www.w3.org/2000/svg">
<g clip-path="url(#clip0_729_383)">
<path d="M29.2151 40.9003C22.733 39.7336 16.1136 39.0286 9.81235 37.1944C6.69294 36.2835 3.80436 33.6258 1.47728 31.1365C-1.08687 28.3914 0.260714 25.6838 4.0664 25.0599C4.88474 24.8761 5.72707 24.8235 6.56192 24.9039C14.4603 26.1517 22.1091 24.8041 29.7579 22.9387C35.6093 21.601 40.9835 18.6885 45.2988 14.5163C50.9886 9.02612 56.9342 3.71688 65.1008 2.28819C67.4903 1.87643 70.2416 1.45842 72.4002 2.2258C78.5205 4.40315 85.4269 5.4887 88.9393 12.2079C89.7947 13.6147 90.9156 14.8416 92.2397 15.8202C95.696 18.6464 99.8323 18.2284 102.222 14.5724C105.51 9.63128 109.883 5.95661 114.849 2.88088C119.684 -0.113759 131.513 -1.76705 137.677 3.66073C138.29 4.21929 138.969 4.70114 139.698 5.09566C147.185 8.95125 150.304 15.5956 149.93 23.4191C149.618 30.3504 151.178 37.4128 148.869 44.2318C147.229 49.0731 146.218 54.0455 142.762 58.2691C136.816 65.5249 129.036 67.0971 120.302 67.6274C111.568 68.1577 103.27 66.4857 94.7976 65.2067C90.9919 64.6327 86.9866 65.45 83.0686 65.5498C80.1863 65.6247 77.2665 65.2629 74.4341 65.6434C68.0518 66.4981 63.8281 62.2183 59.4609 59.0864C57.5019 57.7076 56.7158 54.1952 56.1044 51.4938C55.1312 47.1828 52.7791 44.1694 48.6178 43.2585C42.2854 41.861 35.822 41.0375 29.4085 39.9707C29.3211 40.2826 29.2712 40.5946 29.2151 40.9003Z" fill="black"/>
</g>
<defs>
<clipPath id="clip0_729_383">
<rect width="150" height="67.6288" fill="white" transform="translate(0.160156 0.104492)"/>
</clipPath>
</defs>
</svg>
