<svg width="151" height="156" viewBox="0 0 151 156" fill="none" xmlns="http://www.w3.org/2000/svg">
<g clip-path="url(#clip0_729_419)">
<path d="M93.4281 5.72887C95.1346 3.80647 95.9981 2.58053 97.0937 1.65599C99.7003 -0.580021 102.417 -0.22568 105.138 1.79854C109.284 4.87764 110.184 9.58995 111.964 13.9031C112.599 15.4386 112.778 17.418 114.925 17.8946C117.161 16.7786 117.181 13.3207 120.456 13.1171C120.456 16.017 119.352 18.367 117.075 19.9921C114.798 21.6172 114.082 23.5151 114.965 26.2765C116.9 32.3003 117.613 38.7558 121.413 44.1117C121.768 44.6901 122.049 45.3114 122.248 45.9607C124.439 51.899 126.728 57.7965 128.764 63.7918C130.288 68.3005 131.868 72.6462 135.452 76.0715C136.979 77.5296 137.798 79.7045 139.118 81.407C140.824 83.5941 142.69 85.4392 146.001 84.3843C147.117 84.0259 148.563 84.6938 150.135 84.9341C149.524 89.6912 148.852 93.9963 146.734 98.0162C145.794 99.9503 145.05 101.974 144.514 104.056C142.641 110.54 140.826 117.042 139.069 123.561C138.405 126.025 137.672 128.546 137.558 131.068C137.427 133.988 136.487 136.444 134.47 138.342C130.846 141.751 127.4 145.388 122.724 147.53C121.502 148.092 120.773 149.685 119.69 150.658C119.059 151.224 118.175 151.505 117.405 151.917C116.998 151.139 116.391 150.397 116.252 149.575C115.65 146.06 114.79 145.445 111.365 146.826C105.968 149 100.596 151.249 95.2975 153.652C91.3183 155.452 87.4491 156.205 83.1237 154.747C80.2197 153.766 77.047 153.607 74.0371 152.886C69.2841 151.75 66.7548 148.267 66.9748 143.445C67.2191 137.996 65.2601 136.069 59.6924 136.908C52.2146 138.04 44.7124 139.181 37.369 140.936C33.6138 141.832 30.4981 141.246 27.2683 139.714C24.7105 138.492 21.945 137.568 19.6194 136C16.748 134.061 14.6994 131.662 13.7911 127.773C12.6589 122.942 12.9155 118.124 13.1272 113.489C13.3838 107.84 12.9155 101.816 15.8805 96.4807C16.2104 95.8902 16.243 94.5665 15.8805 94.2895C15.2574 93.813 13.8441 93.4505 13.392 93.8171C10.2681 96.2852 5.88974 97.556 5.16884 102.423C4.83894 104.663 4.25652 104.965 0.134766 106.846C2.70882 102.582 4.22801 98.4968 6.99756 94.9656C9.97484 91.1656 13.1069 87.276 15.0334 82.918C16.9598 78.5601 20.21 77.0816 24.0792 75.8597C24.848 75.6513 25.5811 75.3286 26.2541 74.9026C30.327 72.019 34.3999 69.1273 38.3872 66.1337C39.6498 65.1847 40.6477 63.8814 41.8207 62.8062C42.4968 62.1912 43.2136 61.5029 44.0404 61.177C53.4895 57.5141 62.9562 53.9015 72.4406 50.3391C73.8783 49.7974 75.4871 49.7119 77.7068 49.2801C77.1081 50.4654 76.9655 51.1903 76.6682 51.2596C73.0596 52.1026 70.62 54.7785 67.8423 56.872C64.1767 59.6375 60.3237 61.7594 55.5707 61.9305C52.683 62.0364 49.8361 65.0422 49.2903 68.272C48.7446 68.5367 48.1703 68.9766 47.5308 69.0865C41.0672 70.4021 37.2916 75.3262 32.7626 79.4724C27.3945 84.4128 25.5251 91.019 22.56 97.1242C21.6396 99.0181 21.2771 101.303 21.163 103.433C20.8657 108.809 20.5073 114.194 21.4441 119.57C21.8513 122.034 22.7433 123.973 25.2318 124.865C28.6653 126.086 32.0498 127.5 35.5525 128.494C37.0187 128.901 38.7538 128.636 40.3137 128.375C43.6372 127.813 46.9281 127.076 50.2271 126.376C54.7072 125.423 59.1182 124.131 63.635 123.549C68.5224 122.918 73.5769 122.494 78.053 125.626C79.8939 126.913 80.627 128.4 80.4967 130.746C80.0894 138.281 81.3113 139.266 88.952 139.568C92.3366 139.698 95.3668 138.839 98.3481 137.552C102.323 135.833 106.355 134.196 110.159 132.127C113.703 130.159 117.09 127.923 120.293 125.439C121.588 124.449 122.545 122.73 123.144 121.146C125.18 115.713 127.009 110.198 128.797 105.054C127.954 102.659 127.168 100.529 126.455 98.3828C124.178 91.5933 121.82 84.8282 119.678 77.998C116.688 68.4634 113.882 58.8555 110.962 49.3127C110.693 48.4411 110.119 47.6836 109.781 46.8161C109.496 46.1183 109.301 45.3876 109.198 44.6411C108.909 42.2585 108.885 39.827 108.384 37.4932C107.744 34.4997 106.522 34.1087 103.732 35.5383C103.152 35.7961 102.547 35.998 101.928 36.141C101.843 36.1655 101.704 36.0189 101.366 35.8152C101.505 32.3614 105.712 32.1496 106.763 29.2334C105.614 23.6129 104.246 17.8294 103.309 11.9726C102.771 8.62876 100.694 7.49242 97.9042 6.80003L93.4281 5.72887Z" fill="black"/>
</g>
<defs>
<clipPath id="clip0_729_419">
<rect width="150" height="155.392" fill="white" transform="translate(0.160156 0.104248)"/>
</clipPath>
</defs>
</svg>
