<svg width="151" height="49" viewBox="0 0 151 49" fill="none" xmlns="http://www.w3.org/2000/svg">
<g clip-path="url(#clip0_729_567)">
<path d="M103.524 32.1534C105.078 32.8442 106.66 33.2915 108.408 32.9565C112.725 32.1292 116.754 30.594 120.402 28.0985C120.914 27.7264 121.489 27.4507 122.099 27.2851C123.448 26.9807 124.706 26.3617 125.769 25.4787C126.191 25.1333 126.793 24.9606 127.343 24.8328C129.736 24.2991 132.161 23.895 134.532 23.2785C136.012 22.8951 137.418 22.2268 138.849 21.6707C139.863 21.2769 140.863 20.8521 141.873 20.4532C142.082 20.372 142.355 20.2476 142.528 20.3167C144.124 20.954 145.662 20.2425 147.215 20.1181C148.961 19.9765 149.287 20.334 149.926 21.8572C150.239 22.5946 150.185 23.5617 150.066 24.3924C149.581 27.7444 147.707 30.0102 144.51 31.176C143.065 31.7027 141.609 32.2121 140.193 32.82C137.881 33.813 135.644 34.9995 133.294 35.8871C130.622 36.8957 127.862 37.6677 125.139 38.5363C124.434 38.7608 123.728 38.9802 123.015 39.1736C121.409 39.6071 119.818 40.1372 118.179 40.4222C115.359 40.9144 112.826 42.1492 110.29 43.3339C108.322 44.2578 106.434 45.3596 104.439 46.2196C103.303 46.7101 102.022 46.888 100.813 47.1798C98.977 47.6185 97.1637 48.216 95.2295 47.9863C95.0561 47.9878 94.8857 48.0323 94.7338 48.1159C92.6994 49.0312 90.6063 48.9137 88.4908 48.4941C86.1922 48.0364 83.8832 47.6306 81.5915 47.1488C79.8991 46.7895 79.0408 45.9537 78.9095 44.2595C78.7368 42.0024 76.9218 41.0301 75.5972 39.6709C75.3899 39.4568 74.953 39.3687 74.6301 39.3825C72.9135 39.4516 71.2003 39.5725 69.4854 39.6813C69.2574 39.6969 69.026 39.8039 68.805 39.7832C65.2388 39.4603 61.8781 40.5586 58.4431 41.2287C57.2187 41.4687 55.939 41.4566 54.6818 41.4946C53.7319 41.5223 52.9393 41.0456 52.8063 40.0716C52.5006 37.8058 50.8738 36.8111 49.1503 35.8371C45.9035 34.003 42.605 32.2536 39.6519 29.936C39.2307 29.6368 38.7642 29.4071 38.2703 29.2556C37.2548 28.8963 36.1617 28.7185 35.4173 27.8083C35.2539 27.6426 35.0424 27.5327 34.8129 27.494C31.9548 26.8654 29.0569 25.8949 26.1556 26.5459C24.5011 26.9172 23.1144 27.2056 21.7 26.1591C18.3065 25.6669 14.9544 24.9968 11.4607 25.249C9.3331 25.4027 7.14329 24.9329 5.00529 24.6428C3.7636 24.4701 2.54262 24.1247 1.32338 23.8173C0.977982 23.7292 0.667127 23.4719 0.138672 23.1939C1.25603 22.5739 2.14715 22.3217 3.22651 22.4616C4.81014 22.6671 6.4145 22.7034 8.01196 22.7949C8.24064 22.7994 8.46807 22.7601 8.68202 22.6792C10.2116 22.1517 11.8436 21.9908 13.4468 22.2095C15.659 22.4703 17.8937 22.5549 20.1198 22.6689C20.555 22.6913 21.0005 22.4582 21.4444 22.358C23.0591 21.9971 24.679 21.6517 26.292 21.2838C26.9828 21.1284 27.6011 21.2666 27.9793 21.8399C28.3834 22.4547 28.8756 22.4375 29.4748 22.3235C32.7837 21.7 36.0373 22.2095 39.1459 23.2267C41.5188 24.0021 43.712 25.3198 46.0123 26.3352C48.4198 27.3939 50.8013 28.5803 53.3054 29.3298C55.3916 29.9584 57.5589 29.7961 59.6814 28.8117C61.0871 28.1624 62.5879 27.8204 63.5636 26.4596C63.8054 26.1228 64.3131 25.8949 64.7414 25.7895C66.1575 25.4441 66.8293 24.4407 67.1851 23.1559C67.3837 22.4409 67.5063 21.7052 67.6358 20.973C67.7036 20.5511 67.8598 20.1483 68.0944 19.7911C68.3289 19.4339 68.6364 19.1304 68.9967 18.9006C70.7824 17.6693 72.499 16.3378 74.2467 15.0581C74.6279 14.805 74.9919 14.5269 75.3364 14.2257C75.8631 13.7076 76.5453 13.2327 76.8112 12.5937C78.426 8.82369 81.3169 6.11407 84.3806 3.62722C85.6447 2.59622 86.9348 1.56349 88.2352 0.565293C89.1332 -0.125497 91.0329 -0.0322406 92.0259 0.760442C92.7426 1.33207 92.8894 2.37516 92.4214 3.5875C92.3254 3.85885 92.1886 4.11394 92.0155 4.34392C90.0088 6.84113 88.0435 9.37115 85.9539 11.7958C85.1163 12.7664 84.3996 13.7611 83.9126 14.9337C82.9247 17.3101 81.652 19.6138 81.8108 22.3097C81.8821 23.2724 82.0096 24.2302 82.1925 25.1782C82.2218 25.3157 82.2802 25.4453 82.364 25.5582C82.4477 25.6711 82.5547 25.7647 82.6778 25.8327C84.1578 26.4181 85.6499 26.9759 87.1679 27.4716C87.5524 27.5826 87.9651 27.5392 88.3181 27.3507C90.8429 25.7878 93.3263 24.142 95.8529 22.5912C97.1602 21.7933 98.5539 21.1353 99.913 20.4255C100.319 20.2131 100.849 20.1388 101.139 19.8297C102.785 18.0786 105.085 17.3118 106.959 15.9008C107.619 15.4052 108.513 15.1755 109.316 14.9182C112.413 13.9355 115.521 12.9874 118.63 12.0324C118.954 11.9193 119.288 11.8395 119.628 11.7941C122.255 11.5489 124.557 10.3279 126.881 9.24853C128.049 8.70626 128.988 7.74606 130.386 7.57164C132.285 7.33331 133.282 8.34187 132.94 10.2847C132.316 13.8216 130.194 16.2221 127.282 18.1407C123.198 20.8279 118.81 22.6309 113.945 23.2543C112.553 23.427 111.354 23.8173 110.663 25.3094C110.282 26.1435 109.467 26.8309 108.727 27.4388C107.013 28.8463 105.636 30.6596 103.633 31.7251C103.571 31.7597 103.578 31.9324 103.524 32.1534ZM98.0531 29.2556C99.7006 28.9274 100.528 28.1503 100.816 26.7894L98.0531 29.2556Z" fill="black"/>
</g>
<defs>
<clipPath id="clip0_729_567">
<rect width="150" height="48.7094" fill="white" transform="translate(0.160156 0.104248)"/>
</clipPath>
</defs>
</svg>
