<svg width="151" height="188" viewBox="0 0 151 188" fill="none" xmlns="http://www.w3.org/2000/svg">
<g clip-path="url(#clip0_729_783)">
<path d="M71.567 187.126C71.6573 186.602 71.7764 186.084 71.9236 185.574C73.5067 180.967 73.6103 176.176 73.3284 171.42C73.1501 168.417 72.2393 165.461 71.7043 162.475C71.4634 161.143 71.4055 159.777 71.1501 158.446C70.7742 156.519 70.5333 154.591 69.4851 152.772C68.4369 150.953 67.9598 148.745 67.3165 146.688C66.3839 143.726 65.5237 140.746 64.6225 137.772C64.3334 136.808 63.6731 136.62 62.7406 136.794C61.3355 137.089 59.9123 137.29 58.4804 137.396C57.3937 137.449 56.2901 137.201 55.1986 137.071C54.8058 137.023 54.3649 136.77 54.0396 136.883C51.789 137.661 50.0252 136.536 48.0324 135.391L48.7698 134.726C47.3794 132.606 45.9987 130.485 44.5963 128.382C44.2445 127.852 43.8036 127.637 43.2711 128.447C43.1915 127.794 43.1289 127.264 43.047 126.572C42.3602 126.572 41.6373 126.478 40.9482 126.592C39.235 126.871 38.2254 126.03 37.4711 124.64C36.2471 122.389 34.7387 120.409 32.6664 118.811C29.958 116.724 27.9002 113.811 24.5942 112.479C24.5195 112.45 24.4111 112.416 24.3918 112.358C22.9461 108.336 17.9413 108.059 16.1052 104.459C14.5293 103.736 12.9993 102.855 11.3655 102.291C9.70717 101.704 7.98654 101.311 6.23792 101.12C3.3464 100.838 1.80907 102.103 1.11752 104.999C0.953664 105.683 0.85969 106.385 0.705475 107.23C-0.335472 104.628 0.13922 102.505 2.05003 100.965C2.37067 100.737 2.74183 100.589 3.13194 100.534C7.18489 99.8113 11.0836 100.737 14.8305 102.055C16.7582 102.727 18.3919 104.165 20.2546 105.055C22.0335 105.931 23.7069 107.007 25.2424 108.262C27.5364 110.069 30.0737 111.594 32.6062 113.069C36.0784 115.088 39.394 117.153 41.5819 120.748C42.594 122.411 44.1578 123.849 45.7409 125.023C47.1023 126.035 48.8734 126.469 50.4155 127.261C51.6266 127.863 52.797 128.543 53.9191 129.298C56.3118 130.931 58.5624 131.876 61.6611 130.618C65.0827 129.228 67.8201 127.153 70.3357 124.594C71.5043 123.389 72.7838 122.31 73.9043 121.071C75.1091 119.746 76.1741 118.305 77.2512 116.975C76.5838 114.464 74.5525 113.148 72.9332 111.594C70.9766 109.72 69.8513 107.324 68.3116 105.199C65.0008 100.621 63.4008 95.4306 62.8828 89.8596C62.8485 89.5416 62.7938 89.2261 62.7189 88.9151C61.5912 84.0959 61.7551 79.255 62.4009 74.3828C62.7551 71.7442 62.4298 69.3226 60.9406 66.8262C58.3359 62.4528 56.066 57.6698 55.948 52.5373C55.8636 48.9229 55.2034 44.9905 57.3552 41.5423C57.7696 40.8773 57.9768 40.0676 58.1865 39.3014C58.7238 37.3328 59.7913 35.7328 61.0563 34.1232C63.6008 30.8871 66.4249 28.0076 69.8465 25.7185C71.6248 24.5305 73.4151 23.3595 75.1814 22.1523C76.5789 21.1884 77.3717 19.9475 77.4585 18.162C77.603 15.1042 78.5476 12.2946 79.897 9.49946C81.3156 6.54408 83.3929 3.95326 85.9692 1.92609C86.5752 1.41678 87.2786 1.03635 88.0366 0.808038C92.0148 -0.220861 95.916 -0.435315 99.4075 2.31886C99.6485 2.51403 100.056 2.65861 100.13 2.90921C100.853 5.15014 102.559 7.10673 102.138 9.685C101.641 12.7091 100.769 15.468 98.7304 17.974C96.3762 20.8655 94.6967 24.239 96.0124 28.1835C96.4153 29.3093 96.99 30.3659 97.716 31.316C98.4388 32.2798 99.5834 32.5762 100.745 32.3642C101.998 32.1229 103.236 31.8107 104.453 31.4292C105.492 31.1136 106.313 30.4654 106.704 29.4172C107.203 28.0678 107.668 26.7088 108.15 25.3546C108.764 23.6221 109.304 21.8583 110.005 20.1595C111.66 16.1451 113.896 12.5235 116.981 9.38862C118.865 7.47299 121.398 6.85131 123.532 5.47784C123.826 5.28989 124.328 5.31881 124.708 5.38387C126.667 5.71398 128.72 5.82001 130.554 6.50192C134.838 8.09708 139.277 9.28019 142.628 12.9259C145.134 15.6512 147.065 18.4849 148.171 21.9981C149.074 24.9233 149.889 27.8317 149.725 30.9473C149.424 36.7135 146.39 40.9231 142.202 44.5423C138.65 47.6121 134.344 49.0699 130.034 50.6121C125.214 52.3349 120.516 54.3228 115.733 56.1084C111.518 57.6842 108.586 60.8625 105.521 63.9179C103.627 65.8046 102.362 68.0865 101.159 70.4117C100.482 71.6763 100.174 73.1057 100.27 74.537C100.434 77.0815 100.253 79.6525 101.263 82.2477C101.812 82.2067 102.342 82.1899 102.87 82.1248C103.885 82.0019 104.911 81.6766 105.909 81.7489C107.578 81.8718 108.769 81.3055 109.311 79.7562C109.937 77.9658 111.455 77.749 112.94 77.5682C113.798 77.4622 114.713 77.6887 115.13 78.6935C115.533 79.6574 115.166 80.5176 114.499 81.0887C113.658 81.8116 112.61 82.279 111.677 82.8983C110.745 83.5175 109.875 84.185 108.959 84.8043C107.844 85.5561 106.704 86.2741 105.586 87.0211C105.138 87.3199 104.711 87.6524 104.068 88.1175C107.542 93.1535 111.923 97.3896 114.928 102.744C113.039 103.568 112.193 102.199 111.402 101.435C108.492 98.6113 105.738 95.6258 102.969 92.6644C102.352 91.9439 101.788 91.1796 101.282 90.3777C99.9111 88.4066 97.9304 87.6934 95.663 87.8476C94.8534 87.903 93.9763 88.3729 93.3208 88.8837C92.2992 89.6693 91.251 89.7078 90.1402 89.3656C87.0246 88.4235 83.8343 87.6452 80.8415 86.397C78.4512 85.3994 76.2922 83.838 74.0657 82.4694C73.2585 81.973 72.5887 81.2525 71.7838 80.7513C71.2899 80.4429 70.6586 80.3537 70.0971 80.1682C68.2056 83.0597 68.6514 86.0669 68.6682 88.997C68.6865 90.192 68.8213 91.3823 69.0706 92.5511C69.4586 94.4138 70.1863 96.2282 70.4031 98.0932C70.8634 102.091 73.0947 105.235 75.0778 108.505C76.2271 110.404 77.4054 112.3 79.1452 113.775C79.803 114.332 80.3162 114.833 81.2295 114.348C83.3981 113.194 85.5668 112.045 87.7547 110.948C89.2318 110.209 90.6101 109.346 92.1859 108.712C99.3665 105.821 106.333 107.291 113.222 109.464C115.516 110.187 117.482 111.91 119.665 113.045C121.058 113.768 122.557 114.288 124.043 114.825C125.155 115.201 126.164 115.831 126.988 116.666C128.065 117.737 129.418 118.487 130.896 118.835C133.065 119.293 134.284 120.837 135.665 122.192C137.477 123.965 139.556 125.151 141.848 126.206C145.279 127.787 148.354 129.941 149.71 133.765C150.893 137.088 149.725 139.82 147.696 142.439C145.467 145.331 142.498 146.827 139.036 147.529C138.431 147.651 137.665 147.77 137.171 147.529C135.05 146.432 132.923 145.336 132.318 142.635C131.812 140.382 131.091 138.177 130.419 135.965C130.267 135.461 130.041 134.832 129.643 134.575C128.128 133.584 126.559 132.666 124.954 131.825C123.257 130.919 121.813 129.603 120.754 127.996C120.178 127.153 119.583 126.666 118.504 126.457C116.451 126.057 114.684 124.994 113.202 123.466C112.039 122.262 110.827 121.348 108.933 121.168C107.465 121.028 106.077 119.915 104.682 119.182C102.458 118.016 100.195 117.165 97.622 117.898C97.225 117.974 96.8191 117.991 96.4172 117.948C93.3329 117.905 90.8365 118.881 89.4944 121.984C92.3401 124.139 96.3569 122.999 99.475 125.437L94.2244 127.107C93.9353 126.934 93.2606 126.666 92.745 126.204C90.839 124.452 88.451 123.811 86.0463 123.259C85.5378 123.143 84.8053 123.481 84.3306 123.823C80.0801 126.881 75.897 130.03 71.6152 133.052C70.6345 133.743 70.2104 134.343 70.3863 135.587C71.4401 143.116 72.4433 150.645 73.3959 158.174C73.6368 160.078 73.6368 162.015 73.8898 163.921C74.1983 166.282 74.6489 168.627 75.0464 170.979C75.073 171.133 75.2079 171.28 75.2007 171.425C75.085 173.564 75.0344 175.714 74.7983 177.841C74.6173 179.674 74.282 181.489 73.7959 183.265C73.391 184.663 72.5911 185.947 71.9694 187.28L71.567 187.126ZM96.063 84.7079C96.1425 84.0404 96.275 83.7441 96.181 83.585C94.8028 81.1489 94.5522 78.4429 94.157 75.7466C93.5594 71.6864 94.622 68.0648 96.4798 64.5034C98.0846 61.4263 100.576 59.2216 103.097 57.012C104.48 55.8072 105.665 54.2409 107.244 53.4216C110 51.9928 112.051 49.4675 115.147 48.5832C116.352 48.2434 117.414 47.4796 118.564 46.9543C121.535 45.6025 124.426 43.9977 127.513 42.9953C133.506 41.0484 136.05 36.3858 137.744 30.9256C137.901 30.4268 137.73 29.8196 137.682 29.263C137.376 25.7763 135.843 22.8992 133.518 20.3089C130.834 17.3162 125.101 17.6825 123.282 21.2728C122.287 23.2342 121.667 25.439 121.205 27.6052C120.798 29.516 120.325 31.2943 119.137 32.9063C118.419 33.866 117.91 34.9661 117.643 36.1352C117.236 38.1086 116.255 39.7038 114.981 41.1592C113.138 43.2897 110.725 44.8504 108.027 45.6579C105.28 46.494 102.61 47.4603 99.6268 47.0242C98.1593 46.8073 96.6341 46.8651 95.169 47.5832C94.5763 47.8747 93.4172 47.7832 92.9305 47.3736C91.4124 46.0941 90.3402 46.8916 89.4245 47.9591C87.3017 50.441 84.1933 51.9735 82.6777 55.0264C82.5427 55.2963 82.1957 55.4554 82.0006 55.7035C80.7958 57.183 79.5909 58.6625 78.4199 60.1685C77.7838 60.9902 77.1813 61.8552 76.6247 62.7227C75.2248 64.9395 73.8537 67.1781 72.4802 69.4118C72.1219 69.9556 71.9413 70.5973 71.9633 71.2482C71.9853 71.899 72.2089 72.527 72.6031 73.0454C74.6007 75.9104 76.7597 78.7634 79.8777 80.4019C82.8801 81.9778 86.0246 83.4308 89.6245 83.3489C90.9498 83.32 92.2895 83.7971 93.6172 84.0718C94.3594 84.2356 95.0991 84.4573 96.063 84.7079ZM67.2683 61.5613C67.7309 61.0794 68.1694 60.7444 68.4393 60.3107C70.2417 57.3927 71.9694 54.4265 73.8031 51.5277C74.8224 49.9205 76.0103 48.4193 77.1018 46.8579C78.9139 44.2652 80.2126 41.4676 80.5885 38.2821C80.7909 36.5617 79.8873 35.3545 78.4729 35.6725C75.806 36.2474 73.347 37.5406 71.3622 39.4122C68.1116 42.4724 66.555 46.429 65.943 50.6578C65.4346 54.2457 65.4008 57.9541 67.2634 61.5613H67.2683ZM88.5932 112.363C87.3475 114.772 89.439 114.736 90.3209 116.042C90.5209 114.107 89.4269 113.452 88.5932 112.363ZM76.0633 122.883V125.163C76.5621 124.404 77.1886 123.984 76.0633 122.883Z" fill="black"/>
</g>
<defs>
<clipPath id="clip0_729_783">
<rect width="150" height="187.178" fill="white" transform="translate(0.160156 0.104492)"/>
</clipPath>
</defs>
</svg>
