<svg width="151" height="125" viewBox="0 0 151 125" fill="none" xmlns="http://www.w3.org/2000/svg">
<g clip-path="url(#clip0_729_231)">
<path d="M68.4236 42.4177C60.7481 43.6475 52.426 47.0117 50.281 49.7009C53.73 52.8177 57.3486 55.249 62.3772 54.9663C67.89 54.6553 73.4381 54.9168 78.9438 54.5422C82.1949 54.3231 85.4389 53.5139 88.6052 52.6728C93.1285 51.4713 97.6094 50.0861 102.034 48.6125C104.829 47.7324 107.548 46.6238 110.162 45.2978C112.227 44.2386 114.094 42.8316 115.681 41.1385C118.544 37.958 121.466 35.7105 126.138 35.6151C129.654 35.5409 133.206 34.2334 136.626 33.1591C140.047 32.0848 141.782 32.5725 143.814 35.5055C145.33 37.6894 146.309 40.0041 146.45 42.6827C146.556 44.6935 146.995 46.524 148.511 48.1213C149.323 48.9765 149.747 50.4395 149.86 51.6551C150.281 56.3374 150.426 61.0409 149.051 65.6172C148.797 66.4689 148.277 67.4442 147.578 67.9213C145.086 69.6175 142.743 71.4339 139.768 72.5152C129.954 76.0738 119.819 77.6251 109.515 78.8408C102.221 79.6995 95.0262 79.8691 87.8031 78.9432C85.5838 78.6605 83.6226 78.8372 82.1843 80.8975C81.2125 82.311 79.6081 82.9471 78.1522 82.0742C74.7527 80.0317 70.8867 80.4487 67.2645 79.6359C62.2359 78.5051 57.1861 77.4449 52.1433 76.3636C51.5714 76.2245 50.9885 76.1358 50.4011 76.0985C48.6342 76.0349 48.1465 76.5579 48.1854 78.4238C48.2066 79.2436 48.0829 80.1907 48.4363 80.8515C49.7014 83.2156 49.3021 85.8872 49.9947 88.2725C50.9665 91.6367 49.3869 94.591 49.8216 98.1672C48.143 97.5064 47.1041 97.0081 46.0121 96.6901C43.9978 96.107 43.1038 96.7431 43.0684 98.8528C42.9766 104.415 43.9484 109.808 45.2382 115.225C45.899 117.992 45.74 120.957 45.8955 123.833C45.8955 124.063 45.482 124.321 45.1887 124.65C44.3652 124.19 43.6589 123.547 43.125 122.77C42.5911 121.992 42.244 121.102 42.1108 120.169C41.0506 113.207 39.8279 106.26 39.0187 99.2662C38.6653 96.2342 37.644 93.5945 36.2658 90.99C35.5591 89.6543 34.6933 88.3891 34.1244 87.0004C31.7284 81.1625 29.3325 75.3388 27.1309 69.4125C26.3959 67.4371 24.9612 67.211 23.1766 66.8788C22.5864 67.5608 21.8549 68.1828 21.4097 68.9637C18.5826 73.9111 14.6 77.6145 9.74808 80.4487C6.66659 82.2438 3.79713 84.2334 2.68044 87.9969C-1.46473 84.0744 -0.0618027 78.0421 3.79359 77.0103C4.45088 76.8336 5.10464 76.1657 5.48629 75.5543C6.06937 74.6179 6.41569 73.533 7.20373 71.7307C7.55711 73.7768 7.76914 74.9748 8.01297 76.3636C8.695 76.1233 9.40883 76.095 9.72334 75.7239C11.9921 73.0418 14.3173 70.3879 16.3457 67.5219C17.6073 65.755 17.4447 63.769 16.2821 63.0163C14.7202 62.0057 13.0169 60.896 11.2994 62.4757C9.81875 60.3554 8.4335 58.1397 6.79734 56.1148C5.299 54.2631 3.92081 52.4608 3.6169 49.9801C3.48615 48.98 2.74758 48.0753 2.45781 47.0753C1.93127 45.2554 5.19299 38.7319 6.95989 37.8873C7.6548 37.5479 8.44818 37.4682 9.19671 37.6627C9.94524 37.8571 10.5996 38.3128 11.0415 38.9475C11.5185 39.6083 11.7482 40.4953 12.303 41.043C12.8578 41.5908 13.7166 42.0679 14.3244 41.9477C14.9322 41.8276 15.8192 41.0042 15.9217 40.3822C16.1514 38.9687 16.2362 37.6612 17.6285 36.7424C18.0066 36.495 18.0844 35.4066 17.9253 34.8023C17.3246 32.4735 17.1797 30.4239 19.7594 29.0775C20.1128 28.8867 20.3248 27.7417 20.1128 27.2117C18.8512 23.8121 19.406 21.0275 21.9504 18.7128C22.8338 19.2288 23.7455 20.2076 24.6078 20.1652C26.3146 20.0875 26.9118 18.5008 27.6327 17.0979C29.23 13.9952 30.1064 10.4084 33.2338 8.28454C34.195 7.62725 35.1704 6.91342 36.2446 6.51763C38.114 5.83207 39.7785 7.19966 39.5841 9.19627C39.4781 10.3483 39.2307 11.4826 38.9798 13.0411C43.5738 14.3662 47.6978 15.6844 52.6663 14.603C60.7587 12.8361 67.6603 8.59552 75.0318 5.32674C79.5551 3.31953 83.9795 1.13563 89.0081 0.732772C89.8207 0.637029 90.6393 0.602772 91.457 0.630291C95.1393 0.881192 96.3549 2.28058 95.6658 5.87094C95.376 7.40109 95.8036 8.51071 96.3408 9.86063C97.229 12.0074 97.8153 14.267 98.0829 16.5749C98.2773 18.5397 97.1429 20.144 95.1181 20.8543C93.8989 21.2855 92.7045 21.8085 91.457 22.1336C87.637 23.1266 84.3894 25.2009 81.2266 27.4343C79.9827 28.3107 78.5763 28.9574 77.3571 29.862C74.5548 31.9435 71.7525 34.0425 69.1162 36.3219C68.4731 36.8767 68.2999 38.1453 68.1939 39.1171C68.0879 40.0889 68.3211 41.2091 68.4236 42.4177ZM13.607 49.556C13.5222 49.3758 13.4409 49.2026 13.3561 49.033C13.1794 49.132 12.8402 49.2521 12.8508 49.3192C12.9186 49.5589 13.021 49.7875 13.1547 49.9977L13.607 49.556Z" fill="black"/>
</g>
<defs>
<clipPath id="clip0_729_231">
<rect width="150" height="124.019" fill="white" transform="translate(0.160156 0.672852)"/>
</clipPath>
</defs>
</svg>
