<svg width="151" height="220" viewBox="0 0 151 220" fill="none" xmlns="http://www.w3.org/2000/svg">
<g clip-path="url(#clip0_729_727)">
<path d="M75.4261 150.408C73.7282 153.832 70.712 156.321 70.8199 160.024C70.9277 163.871 69.146 166.037 66.0259 167.411C64.3759 168.13 63.0097 168.977 62.1707 170.607C62.0134 170.977 61.7613 171.3 61.4396 171.542C56.7615 174.298 55.1595 179.532 51.8516 183.315C48.7236 186.91 46.6182 190.905 44.6007 195.06C42.0759 200.254 39.603 205.447 36.8944 211.104L40.3581 214.068C39.4592 214.14 38.5044 214.5 37.8053 214.224C35.0487 213.129 32.4639 213.157 29.6754 215.383C29.6754 213.257 30.7621 212.586 31.8727 211.991C33.3388 211.192 34.4415 210.189 34.9009 208.507C36.0994 204.057 37.6415 199.674 38.5763 195.168C39.2714 191.82 39.9546 188.744 41.8841 185.7C43.5421 183.083 43.6619 179.468 44.3371 176.268C44.4362 175.47 44.3146 174.66 43.9855 173.927C42.8469 171.018 41.5885 168.15 40.434 165.258C40.1383 164.534 39.635 163.707 39.7748 163.024C40.6737 158.182 37.8292 154.084 37.234 149.545C36.6387 145.007 34.837 140.928 32.9953 136.797C30.9978 132.319 30.3306 127.441 29.3718 122.651C28.5049 118.32 27.0427 114.11 25.8323 109.867C24.6218 105.624 23.3953 101.226 22.1329 96.9351C21.8804 96.2282 21.5551 95.5493 21.1621 94.9097C20.7227 94.1107 20.0555 93.3876 19.7918 92.5366C18.5933 88.6615 17.6545 84.7025 16.3002 80.8873C15.5731 78.8258 14.5344 76.6605 13.0363 75.1345C11.1067 73.1769 10.0121 71.3272 10.6393 68.5427C11.1027 66.4773 10.1919 64.9792 7.55916 63.8206C7.97863 66.1617 8.31821 68.0433 8.64979 69.929C9.00535 71.9624 9.35291 73.9999 9.10522 76.1811C8.39811 73.3847 7.74293 70.5882 6.95592 67.8156C6.64431 66.713 6.27677 65.4786 5.5337 64.6756C2.87303 61.8112 1.71848 58.3795 1.2271 54.6362C0.855562 51.7638 0.476038 48.8874 0.184403 46.007C0.162886 45.2049 0.215039 44.4025 0.340208 43.61C1.97416 43.4222 3.56417 43.6739 4.47503 43.0027C5.38588 42.3316 5.48975 40.7695 6.10498 39.2195C6.71622 39.7149 7.70298 40.1943 7.64705 40.5218C6.90798 45.3997 10.3277 48.4639 12.8405 51.6399C15.9287 55.527 18.074 60.2092 22.2368 63.2254C22.4764 63.4417 22.6704 63.7037 22.8076 63.9959C22.9448 64.2881 23.0224 64.6047 23.0358 64.9273C23.1516 69.5774 25.205 73.5764 26.9309 77.7472C28.7925 82.2575 30.1269 86.9916 31.6649 91.6338C31.7888 92.0093 31.7448 92.4328 31.8967 92.8043C34.4108 98.5997 36.941 104.39 39.4871 110.175C39.643 110.526 40.0984 110.766 40.2022 111.121C42.1997 117.913 47.2055 123.406 48.5917 130.521C49.0312 132.786 50.4933 134.856 51.5001 137.009C52.4469 139.038 53.3458 141.092 54.3965 143.065C55.0556 144.316 55.9505 145.438 56.9892 146.984C62.4024 142.642 68.1113 139.294 72.6416 134.42C73.0611 133.969 73.5085 133.274 73.4765 132.718C73.2768 129.175 73.077 125.623 72.6336 122.108C71.8346 115.792 71.4031 109.599 73.7882 103.419C75.3462 99.3921 76.3969 95.1414 75.5859 90.675C75.3542 89.3886 75.6738 88.0143 75.5539 86.7C75.2743 83.5919 76.2611 80.308 74.2795 77.4076C73.9081 76.8422 73.7653 76.1567 73.88 75.49C75.0785 70.676 73.3367 66.3455 71.7347 62.0149C70.2845 58.1038 69.0781 54.0569 65.8421 51.0646C64.7358 50.0952 63.8433 48.9061 63.2214 47.573C61.6234 43.7578 58.4274 41.7883 55.2314 39.5551C51.2364 36.7586 46.4145 35.2684 43.554 30.7021C40.0584 25.1092 38.6921 19.5162 40.5458 13.1242C41.6484 9.30896 44.1413 6.8081 47.3773 4.89849C49.175 3.80135 51.0434 2.82443 52.9702 1.97416C58.1637 -0.195125 63.3572 -0.890254 68.4628 2.2618C68.8988 2.55905 69.3733 2.7956 69.8731 2.96491C76.2211 4.74269 79.8605 9.30497 81.8101 15.2096C82.6091 17.6066 83.7357 19.5521 85.5534 21.1222C91.466 26.2198 95.2532 32.9793 99.7716 39.1635C100.291 39.8747 100.419 40.8774 100.722 41.7443C101.43 43.7418 102.013 45.7753 102.86 47.7008C104.1 50.3669 104.558 53.33 104.182 56.2461C104.042 57.2808 103.858 58.4354 104.182 59.3782C105.313 62.8499 104.929 66.3655 104.805 69.885C104.777 70.684 105.017 71.4431 105.061 72.2261C105.189 74.6231 105.6 77.0441 105.317 79.3851C104.841 83.3282 104.142 87.1953 104.474 91.2263C104.618 92.9601 103.938 94.9976 103.024 96.5356C100.766 100.343 99.2083 104.27 98.6889 108.712C98.4213 111.013 97.2467 113.195 96.6515 115.472C95.5808 119.563 94.4862 123.726 95.1294 127.972C96.0682 134.184 96.5436 140.489 99.3481 146.349C100.874 149.545 101.549 153.101 102.816 156.417C103.713 158.735 104.787 160.982 106.028 163.136C109.431 169.094 112.91 175.007 116.463 180.874C117.537 182.644 119.075 184.122 120.322 185.792C121.568 187.462 122.679 189.239 123.917 190.913C125.264 192.715 126.554 194.593 128.128 196.175C130.361 198.416 132.826 200.425 135.211 202.515C135.576 202.897 136.025 203.189 136.522 203.37C142.071 204.68 145.119 209.202 148.742 212.938C150.392 214.636 150.5 217.029 149.485 218.423C148.407 219.905 146.489 220.332 144.144 219.078C141.116 217.48 138.283 215.483 135.355 213.705C132.674 212.083 130.189 209.814 126.634 210.868C124.604 209.338 122.311 210.337 120.138 210.153C118.74 210.062 117.394 209.59 116.244 208.789C115.095 207.987 114.187 206.887 113.618 205.607C112.184 202.627 110.254 200.35 107.086 199.027C104.689 198.024 101.402 191.393 103.351 187.522C104.629 184.981 103.779 183.299 102.356 181.401C99.7476 177.93 98.0497 173.731 94.1546 171.302C91.3981 165.873 86.7439 162.066 82.6091 157.819C80.4158 155.57 78.2426 153.312 75.4261 150.408Z" fill="black"/>
</g>
<defs>
<clipPath id="clip0_729_727">
<rect width="150" height="219.713" fill="white" transform="translate(0.160156 0.104492)"/>
</clipPath>
</defs>
</svg>
