<svg width="151" height="111" viewBox="0 0 151 111" fill="none" xmlns="http://www.w3.org/2000/svg">
<g clip-path="url(#clip0_729_175)">
<path d="M1.16291 13.6025C0.94015 11.8479 0.546875 10.085 0.546875 8.32215C0.560626 6.61154 1.0034 4.90093 1.30317 2.8603C3.65732 2.27727 5.7392 0.635412 8.59939 0.77017C11.7676 0.92143 15.0293 0.0853768 18.126 0.536405C22.3118 1.14419 26.6735 0.660163 30.6778 2.90706C33.0924 4.26289 36.0214 4.67542 38.6863 5.61048C45.5848 8.00751 52.2587 11.0076 58.6306 14.576C61.6007 16.2454 63.8009 18.9543 63.6551 22.7606C63.5699 25.3017 63.2289 27.8374 63.2261 30.3758C63.2261 31.8939 63.3719 33.5275 63.9439 34.9026C65.0192 37.4877 64.8735 39.8694 63.6496 42.2868C63.3581 42.8588 62.9648 43.4199 62.8466 44.0277C62.4038 46.3186 61.1167 47.9687 59.3264 49.3932C57.9513 50.4768 56.8512 51.7942 56.8017 53.7468C56.7494 55.8974 57.2885 56.6922 59.3814 57.3055C62.4423 58.2021 65.5527 58.9776 68.5119 60.1354C70.2528 60.8175 72.0872 61.8488 73.2725 63.2376C75.7284 66.0951 78.6601 68.8287 78.6381 73.0942C78.6533 73.7355 78.7251 74.3742 78.8526 75.0029C79.0011 75.8609 79.3394 76.499 80.3542 76.7052C81.4185 76.9197 82.4141 77.4725 83.4784 77.687C89.9248 78.9934 95.1831 82.6374 100.505 86.1933C100.805 86.3547 101.121 86.4847 101.448 86.5811C102.779 85.9403 102.628 84.8017 102.661 83.7017C102.752 80.8057 102.908 77.9263 102.996 75.0194C103.038 74.0139 102.996 73.0067 102.873 72.0079C102.372 68.3282 102.991 64.7255 103.45 61.0925C103.909 57.4595 105.895 54.5691 107.658 51.4669C109.924 47.4995 113.03 44.0754 116.758 41.4342C122.517 37.309 128.942 36.2089 135.916 37.5702C142.063 38.7611 145.61 42.8863 148.611 47.8559C150.341 50.7188 151.05 53.5818 150.165 56.9672C149.56 59.2774 148.223 60.977 146.625 62.3603C142.896 65.5918 138.325 66.4856 133.54 65.7733C131.89 65.5285 130.292 64.6155 128.796 63.7794C126.871 62.7013 125.908 62.7701 124.17 64.0324C122.432 65.2948 121.59 67.1704 120.87 69.002C118.788 74.3401 118.169 79.9064 118.708 85.624C118.912 87.7912 118.818 89.9858 118.804 92.1695C118.788 95.3432 118.865 98.5279 118.62 101.688C118.453 103.489 118 105.253 117.281 106.913C116.368 109.075 114.3 109.831 112.127 109.996C108.161 110.299 104.363 109.669 100.763 107.812C97.2925 106.022 94.6688 103.412 92.2129 100.414C90.6136 98.5193 88.6495 96.9649 86.4376 95.8437C81.3497 93.242 76.2014 90.6184 70.4096 89.9061C69.2902 89.7686 68.0637 90.0436 66.9526 90.3598C65.3575 90.8109 63.8394 91.3334 62.1508 90.7174C59.5821 89.7768 58.2565 87.9837 58.0888 85.239C57.943 82.8986 58.2593 80.649 59.4391 78.6386C59.9787 77.7112 60.7239 76.92 61.6172 76.3257C63.5919 75.0689 63.8724 73.7983 61.9528 72.3599C60.2862 71.1114 58.3335 70.2368 56.4992 69.2138C52.6489 67.0659 48.3752 66.0648 44.1646 64.9345C42.7043 64.544 41.189 64.3624 39.7039 64.0517C39.2693 63.9582 38.7578 63.8537 38.4525 63.5704C36.5852 61.8323 36.3266 59.6266 36.8024 57.2615C37.2782 54.8963 37.754 52.6165 40.7544 52.0362C43.0673 51.5934 45.4297 51.0764 47.5529 50.0945C49.69 49.0965 51.6486 47.754 53.3502 46.1205C54.2853 45.2157 54.7913 43.5161 54.8601 42.1438C55.0003 39.2534 55.9601 36.5527 57.0355 34.0555C59.3043 28.7669 56.909 24.4684 52.8139 21.4295C47.1101 17.1915 41.3375 12.9864 34.7755 10.1235C32.3004 9.04269 29.6217 8.41565 27.0448 7.54935C25.1527 6.91406 23.2578 6.27602 21.3987 5.54722C15.9203 3.39934 10.321 3.47359 4.68039 4.62866C2.40874 5.09344 2.22998 5.42346 1.96321 7.75286C1.7432 9.70549 1.53694 11.6581 1.32517 13.6135L1.16291 13.6025Z" fill="black"/>
</g>
<defs>
<clipPath id="clip0_729_175">
<rect width="150" height="109.693" fill="white" transform="translate(0.546875 0.401855)"/>
</clipPath>
</defs>
</svg>
