<svg width="151" height="166" viewBox="0 0 151 166" fill="none" xmlns="http://www.w3.org/2000/svg">
<g clip-path="url(#clip0_729_731)">
<path d="M82.1938 34.8728C83.3321 35.366 84.5944 35.6916 85.5838 36.3957C87.0632 37.4502 88.3317 38.7963 89.7243 39.978C90.5587 40.6851 91.4302 41.8172 92.3358 41.8668C94.1774 41.9447 96.0175 41.6818 97.7635 41.0914C98.4862 40.8495 98.846 39.5096 99.4818 38.4892C102.754 38.1202 103.669 35.0775 104.705 32.5374C105.536 30.4966 107.257 28.7783 107.202 26.3622C107.202 26.052 107.589 25.6271 107.902 25.4131C111.131 23.2017 112.325 19.5698 114.208 16.4186C115.619 14.0646 116.854 11.605 118.268 9.25097C121.205 4.35674 125.817 2.18566 131.273 1.44749C131.583 1.40717 131.949 1.48471 132.181 1.33893C135.007 -0.444454 138.214 0.262698 141.229 0.0983164C145.766 -0.131198 150.223 3.19986 150.161 8.25228C150.127 10.963 148.638 13.7327 147.475 16.3163C146.746 17.9353 145.475 19.2379 143.949 20.4165C142.299 21.6882 141.142 23.6856 139.982 25.5C136.496 30.9556 133.174 36.5198 129.663 41.9568C126.896 46.2369 123.86 50.3309 121.112 54.6328C119.905 56.5154 118.631 58.5748 118.24 60.7118C117.34 65.5781 113.898 68.4657 110.694 71.592C106.352 75.8473 100.893 76.7282 95.152 76.5824C90.3912 76.4614 85.8257 73.0466 84.3339 68.6518C84.2328 68.2538 84.191 67.843 84.2098 67.4328C84.0764 62.5014 81.9674 58.4198 78.7759 54.8096C78.5149 54.4856 78.1841 54.2247 77.8082 54.0466C73.466 52.3004 69.1735 50.2596 64.6763 48.9942C62.3718 48.3428 59.7603 47.5302 57.1302 48.7026C56.1098 49.1554 54.7234 48.7802 53.5045 48.7926C47.6736 48.8484 42.5529 50.9326 37.8417 54.2451C36.6817 55.0608 35.3915 55.6997 34.1788 56.4441C29.1667 59.5177 28.689 64.8493 27.7958 69.8303C27.3399 72.3798 28.5805 74.8579 29.7529 77.1655C29.9762 77.6267 30.3632 77.9882 30.8384 78.1797C32.7242 78.6604 34.6595 79.4203 36.5422 79.3397C40.8651 79.0914 45.202 79.4042 49.4446 80.2701C51.5644 80.7069 53.7133 80.9878 55.8741 81.1107C58.9756 81.3061 61.9965 81.6317 64.7166 83.3717C65.5447 83.9021 66.6178 84.0509 67.6662 84.4045C67.6351 85.0248 67.7468 85.5769 67.5669 86.0049C65.6036 90.6696 62.3439 94.4752 58.8454 97.8683C56.178 100.455 52.4965 101.987 49.2771 104.009C42.4847 108.277 35.5745 112.384 28.9496 116.89C22.5077 121.282 17.235 126.958 12.8929 133.452C11.9283 134.895 11.2956 136.554 10.4644 138.089C9.24856 140.328 8.39874 142.72 6.99684 144.913C5.72521 146.901 5.38094 149.531 4.85057 151.925C4.51871 153.417 4.24577 155.073 4.56523 156.522C5.24137 159.598 3.80535 162.176 3.01446 165.032C1.74593 162.936 1.13492 160.634 0.703806 158.283C-0.518202 151.64 0.508409 145.111 1.92271 138.638C2.77874 134.712 5.27858 131.61 7.48999 128.384C7.95212 127.708 8.53521 127.097 8.88878 126.368C11.1777 121.685 14.4281 117.786 18.3547 114.369C24.3903 109.096 30.2894 103.69 36.3623 98.47C38.5675 96.5626 40.723 94.7016 42.3017 92.2204C42.8941 91.2899 43.7005 90.3595 42.9065 89.0289C39.3491 89.2212 35.7916 89.4228 32.231 89.5934C31.6107 89.6213 30.8756 89.7175 30.4228 89.4228C28.2517 88.0023 26.0465 88.6288 23.8661 89.2708C19.6387 90.5114 15.2842 90.5394 11.0816 89.733C8.88878 89.3111 6.82315 87.9589 6.04156 84.9876C5.15142 81.6317 3.88289 78.3751 3.6968 74.8517C3.63477 73.7197 3.32151 72.5659 3.44867 71.4618C4.17443 65.1563 5.66007 59.1517 10.5202 54.5459C11.5592 53.5627 12.3439 52.3159 13.3488 51.2924C15.6688 48.9166 18.2554 46.9378 21.3353 45.5546C22.7093 44.9342 23.8165 43.7743 25.1254 42.9586C26.1545 42.2795 27.2523 41.7109 28.4006 41.262C31.4804 40.1486 34.6037 39.1406 37.7052 38.1108C41.3961 36.8888 44.9535 35.3629 48.9887 35.1985C52.8749 35.0372 56.7177 34.0788 60.6008 33.6787C65.6377 33.1639 70.625 34.085 75.6278 34.4851C77.7524 34.6526 79.8987 34.5131 82.0356 34.5131L82.1938 34.8728Z" fill="black"/>
</g>
<defs>
<clipPath id="clip0_729_731">
<rect width="150" height="164.931" fill="white" transform="translate(0.160156 0.104492)"/>
</clipPath>
</defs>
</svg>
