<svg width="151" height="254" viewBox="0 0 151 254" fill="none" xmlns="http://www.w3.org/2000/svg">
<g clip-path="url(#clip0_729_591)">
<path d="M3.30185 0.104248C21.899 10.6468 38.8093 22.8973 49.7947 42.4222C54.4967 50.8563 60.9909 58.215 67.0424 65.7846C99.0257 105.716 122.601 151.704 136.349 200.983C140.566 216.291 145.542 231.451 150.16 246.632C135.928 260.57 123.656 248.129 113.071 247.644C113.071 225.357 113.851 204.694 113.071 184.072C111.469 143.483 95.1911 108.904 67.6327 79.4478C54.6443 65.4683 41.0232 52.6064 34.5712 33.4821C32.2518 26.5872 22.8056 21.9696 16.3536 16.6139C11.1455 12.2915 5.57905 8.41181 0.160156 4.32128L3.30185 0.104248Z" fill="black"/>
</g>
<defs>
<clipPath id="clip0_729_591">
<rect width="150" height="253.107" fill="white" transform="translate(0.160156 0.104248)"/>
</clipPath>
</defs>
</svg>
