<svg width="151" height="213" viewBox="0 0 151 213" fill="none" xmlns="http://www.w3.org/2000/svg">
<g clip-path="url(#clip0_729_187)">
<path d="M67.2766 158.977C68.8588 159.476 70.1166 160.33 70.702 159.998C77.7349 155.971 84.6965 160.48 91.7136 160.188C98.9442 159.887 106.254 161.097 113.556 162.474C120.51 163.795 127.004 166.358 133.887 167.782C140.77 169.206 145.382 173.533 148.182 180.788C152.09 190.882 149.464 198.493 142.55 205.652C140.92 207.337 139.425 209.157 138.001 210.755C137.21 210.913 136.711 210.968 136.221 211.126C125.936 214.496 117.551 209.077 109.189 204.885C97.1247 198.849 84.1902 196.309 71.1688 193.96C68.8904 193.548 66.3114 194.751 63.8749 195.202C62.4113 195.471 60.8924 196.119 59.4843 195.929C50.7822 194.767 43.1165 197.393 36.0282 202.1C29.9368 206.135 23.9244 210.011 16.2508 210.723C8.43475 211.419 -1.30366 202.575 0.120312 194.901C0.800516 191.534 2.55827 188.479 5.12796 186.199C14.1069 178.794 18.0466 168.067 24.1618 158.803C27.3262 154.057 30.7674 150.164 36.0282 147.617C38.9869 146.169 41.3602 143.472 43.9392 141.241C46.5182 139.01 48.8361 135.877 51.8502 134.192C56.1063 131.819 59.7612 129.192 61.4699 124.485C61.644 124.019 61.8259 123.33 62.1898 123.172C67.3715 120.965 72.4741 118.426 77.8219 116.78C83.5732 115.024 89.6251 114.288 95.4713 112.825C97.6705 112.279 99.672 110.95 101.705 110C98.8414 101.781 95.8036 99.9297 87.6315 100.167C83.771 100.278 79.7205 100.238 76.0419 99.1782C70.4014 97.5485 67.506 92.7624 68.1863 87.913C68.7876 83.467 73.4551 78.7204 78.2254 78.0638C92.6313 76.0069 102.014 66.6008 109.679 55.5096C113.754 49.6238 111.262 43.4375 106.452 38.1529C100.075 39.1181 98.2797 45.2728 94.1897 48.635C91.413 50.9291 89.008 53.6663 86.3895 56.1504C83.3517 59.0379 80.393 62.0124 77.1811 64.6863C71.3824 69.5279 66.0029 74.6383 58.0524 76.6082C48.931 78.8549 40.1419 82.581 31.4003 86.1013C26.8594 87.9446 22.3106 90.1122 19.3044 94.4712C18.1652 96.1166 16.3615 97.3112 14.4392 99.1149C11.2748 95.4758 11.8048 91.995 13.5057 88.712C17.746 80.5637 22.9751 74.8361 33.4651 73.1827C45.5372 71.3632 56.4702 64.9711 65.9475 56.7042C72.7927 50.6468 78.7384 43.6435 83.6048 35.9062C84.8627 33.9364 85.6775 31.6897 86.9274 29.7119C89.2058 26.0966 88.747 23.2882 84.8706 21.2234C84.397 20.9912 83.9489 20.7102 83.5336 20.3849C78.7159 16.3107 76.5403 10.686 78.1858 6.58813C79.7205 2.76713 85.4164 0.196065 91.6345 0.417572C96.0963 0.575792 100.566 0.552059 105.02 0.749833C110.724 1.0109 114.687 3.91422 114.244 9.17502C113.667 15.9231 117.139 20.1475 121.135 24.3324C126.72 30.1787 130.295 37.1245 132.803 44.6478C136.664 56.2216 133.254 64.4965 122.748 70.6037C119.584 72.4549 114.45 72.4549 114.331 77.7236C114.189 83.7992 120.019 83.1189 123.373 84.9305C134.061 90.6976 137.858 97.4615 136.284 109.391C136.068 111.238 135.393 113.001 134.323 114.52C133.252 116.04 131.819 117.268 130.153 118.093C127.83 119.335 125.368 120.299 122.82 120.965C114.128 123.082 106.027 127.139 99.1262 132.831C94.6486 136.51 88.5017 138.076 83.5653 141.288C76.9992 145.568 69.2622 149.025 67.2766 158.977Z" fill="black"/>
</g>
<defs>
<clipPath id="clip0_729_187">
<rect width="150" height="211.777" fill="white" transform="translate(0.0332031 0.401855)"/>
</clipPath>
</defs>
</svg>
