<svg width="151" height="75" viewBox="0 0 151 75" fill="none" xmlns="http://www.w3.org/2000/svg">
<g clip-path="url(#clip0_729_475)">
<path d="M50.8078 58.1526C54.4101 57.2083 57.6961 56.0115 60.4179 53.4643C62.2309 51.767 64.3154 50.3601 66.2298 48.7666C68.1443 47.1732 69.9313 45.4405 71.8812 43.9037C73.2976 42.7919 74.7754 41.654 76.4137 40.9836C78.0519 40.3132 79.9074 40.207 81.6732 39.8812C83.6656 39.5106 85.6863 39.2745 87.655 38.7953C90.0842 38.2004 92.466 37.4426 95.0203 37.7991C95.3366 37.8058 95.6505 37.7412 95.9385 37.6102C97.5556 37.046 99.0263 37.1121 100.674 37.8676C101.942 38.4483 103.507 38.8118 105.015 38.1225C105.412 37.9384 105.938 37.9903 106.403 37.9974C109.286 38.054 112.175 38.2854 115.048 38.1603C119.207 37.9785 123.265 37.242 127.064 35.3417C129.223 34.2589 131.455 33.3281 133.744 32.5561C137.238 31.3876 140.557 31.6803 143.938 33.5004C147.393 35.3653 148.98 38.2571 149.938 41.7626C150.585 44.1233 149.747 46.144 148.286 47.8625C147.025 49.3379 145.47 50.5536 144.089 51.9299C140.847 55.1569 135.878 55.3694 132.413 52.402C132.12 52.1494 131.804 51.7953 131.469 51.7529C128.603 51.3846 125.704 50.7496 122.97 52.2982C122.554 52.496 122.185 52.781 121.889 53.1338C120.546 55.0601 118.61 55.9454 116.41 56.4576C115.19 56.7409 113.898 56.9439 112.808 57.5105C109.146 59.4131 105.49 58.8726 101.864 57.6191C99.4771 56.7952 97.0362 56.4387 94.5646 56.0351C91.7925 55.5814 88.9774 55.4491 86.1749 55.6408C82.3696 55.9005 78.6327 56.408 75.2829 58.5114C73.5478 59.602 72.089 60.9641 70.5475 62.2884C67.5919 64.8332 64.3673 67.09 61.1049 69.2429C59.9954 69.9747 58.4326 70.0054 57.0918 70.4232C54.1764 71.3131 51.2586 72.2008 48.3739 73.1828C47.6657 73.4188 47.0827 74.0421 46.4122 74.4363C44.8991 75.3215 44.0516 75.0996 42.9327 73.8249C42.0702 72.8183 41.1059 71.9038 40.055 71.096C36.3842 68.36 36.252 64.7647 39.5286 61.5849C40.657 60.4896 41.4738 58.9245 42.0333 57.4255C43.2136 54.2717 44.1295 51.0211 45.1469 47.8082C45.2483 47.5098 45.311 47.1996 45.3334 46.8852C45.5081 43.2097 45.7324 39.5342 45.8056 35.8563C45.8622 33.2808 45.9708 30.6629 45.6073 28.1275C45.2248 25.3632 44.3963 22.6461 43.596 19.955C42.6092 16.6501 40.6428 14.077 38.1264 11.6455C34.79 8.41389 30.5943 6.21034 26.0399 5.29776C21.6727 4.39127 17.1875 3.244 12.6031 4.10563C11.9162 4.22603 11.2292 4.3535 10.547 4.5093C8.82844 4.88701 7.25861 5.78169 5.36774 5.62117C4.54623 5.55035 3.6303 6.17592 2.81116 6.59375C1.99202 7.01159 1.25549 7.54981 0.160156 8.23912C0.776284 6.69054 1.47976 5.7392 2.6648 5.19861C5.44092 3.93095 8.12969 2.36584 11.0191 1.48532C14.6828 0.371096 18.4835 -0.440965 22.3762 0.552866C25.0319 1.23037 27.782 1.64112 30.3339 2.58538C32.7961 3.49659 35.0812 4.89881 37.3946 6.17356C38.3979 6.72831 39.2595 7.53093 40.2108 8.18483C44.2239 10.935 46.3485 14.9693 48.001 19.3554C48.44 20.5357 48.9192 21.683 49.3772 22.8468C49.5495 23.2811 49.8281 23.7084 49.8729 24.1569C50.3191 28.6658 50.7251 33.1793 51.1477 37.6905C51.2988 39.3005 51.3838 40.9222 51.6411 42.518C52.1557 45.7615 51.6411 48.8918 50.888 52.0385C50.4253 54.0025 50.109 55.9997 50.8078 58.1526Z" fill="black"/>
</g>
<defs>
<clipPath id="clip0_729_475">
<rect width="150" height="74.8654" fill="white" transform="translate(0.160156 0.104248)"/>
</clipPath>
</defs>
</svg>
