<svg width="151" height="46" viewBox="0 0 151 46" fill="none" xmlns="http://www.w3.org/2000/svg">
<g clip-path="url(#clip0_729_539)">
<path d="M86.8374 45.7433C87.8143 44.5437 88.5349 43.5814 89.3354 42.6927C91.9973 39.7325 95.1655 37.9383 99.3044 37.8332C101.355 37.7807 103.401 37.0979 105.429 36.621C107.054 36.2382 108.712 36.0123 110.381 35.9466C113.291 35.8268 116.192 35.4339 119.085 35.0662C121.917 34.7049 124.741 34.2574 127.558 33.791C128.554 33.6271 129.52 33.2993 130.457 33.0598C130.441 31.7867 129.739 31.2992 128.987 30.9358C127.543 30.2424 126.098 29.5176 124.589 28.9945C121.039 27.7633 117.482 27.9083 113.94 29.1605C111.856 29.9 109.855 30.9484 107.477 30.6101C106.731 30.5051 105.899 31.0786 105.093 31.2971C104.042 31.5829 102.992 31.9274 101.912 32.0598C100.351 32.2447 99.2855 31.3391 98.443 30.1248C97.0606 28.1331 95.8147 27.6205 93.6907 28.6646C91.1695 29.9063 88.4257 29.9063 85.7848 30.4715C84.9717 30.6479 84.104 30.6101 83.3077 30.8349C80.7866 31.5429 78.2087 31.4064 75.6476 31.5724C74.6762 31.67 73.7105 31.8186 72.7546 32.0178C70.9772 32.3266 69.1977 32.6186 67.4308 32.9779C66.127 33.2106 64.8398 33.5285 63.5776 33.9296C61.8759 34.5095 60.2602 35.352 58.5353 35.8856C56.0547 36.6458 53.7526 37.8977 51.7661 39.5665C48.8625 42.0078 45.5409 42.4574 41.9588 42.1381C40.8495 42.0393 39.7318 41.9784 38.6183 41.9784C37.4102 41.9784 36.5425 41.4511 36.2232 40.327C35.6937 38.4614 35.263 36.5642 34.8807 34.6545C34.7966 34.2343 35.0004 33.6901 35.2231 33.2867C36.5026 30.9757 37.6371 28.5407 40.0553 27.2276C40.3053 25.2758 38.7359 24.8808 37.6413 24.4165C36.4158 23.9191 35.0965 23.6954 33.7756 23.761C29.1044 23.9921 24.4382 24.3276 19.7769 24.7674C17.5688 24.9774 15.3943 25.5447 13.2009 25.9334C12.7954 26.0048 12.3164 26.1435 11.9676 26.0027C8.68382 24.7043 5.17942 24.4858 1.76537 23.8303C0.294696 23.5467 0.109812 23.2694 0.164437 21.7294C0.271585 18.5779 1.99857 16.2669 4.10583 14.1239C7.51359 10.6804 11.8079 8.67191 15.9741 6.43439C17.5036 5.61502 18.9638 4.66539 20.4954 3.84811C21.1593 3.49305 21.9451 3.3775 22.6342 3.06235C24.2141 2.33963 25.7688 1.57067 27.3277 0.805926C28.4034 0.276485 29.5064 -0.0344571 30.7271 0.175639C31.309 2.18415 30.0632 3.45103 29.0274 4.6885C27.0945 6.99955 24.794 8.8673 21.777 9.61945C21.047 9.82289 20.2964 9.9434 19.5395 9.97871C17.8272 10.0018 16.5141 10.7414 15.2577 11.8486C14.4467 12.5566 13.3963 12.9873 12.4445 13.5146C11.31 14.1449 10.3268 14.8781 10.0599 16.2459C9.81624 17.5064 10.0053 17.956 11.2869 18.1367C13.2156 18.4348 15.1603 18.6179 17.1108 18.6851C19.4094 18.7706 21.7112 18.7089 24.0019 18.5002C26.4936 18.246 28.9644 17.7291 31.4351 17.2753C36.4656 16.3295 41.6505 16.6179 46.5452 18.1157C48.0032 18.559 49.5054 18.9309 50.8795 19.5696C52.6863 20.41 53.0855 21.3092 52.264 23.0803C51.3627 25.0216 50.163 26.8263 49.0243 28.652C48.5138 29.4735 47.7112 30.1353 47.3036 30.9946C47.1864 31.3051 47.1316 31.6356 47.1424 31.9673C47.1533 32.299 47.2295 32.6253 47.3667 32.9275C47.7259 33.6649 48.4571 33.2552 49.0306 33.001C53.0224 31.2362 57.2244 29.9336 60.9451 27.507C63.4184 25.9127 66.2189 24.8958 69.1389 24.532C73.6139 23.9228 78.1436 23.4248 82.4379 21.8281C83.2027 21.5445 84.0683 21.534 84.9339 21.389C85.1839 20.1116 84.1649 19.7944 83.4086 19.4645C82.6373 19.1237 81.8042 18.9449 80.961 18.9393C77.7717 18.9666 74.5825 19.1242 71.3932 19.1851C69.4599 19.1974 67.548 19.5908 65.7668 20.3427C65.0588 20.6474 64.5588 20.1621 64.2962 19.5234C63.7163 18.1136 63.5966 16.6724 64.2163 15.2458C64.521 14.5441 64.9391 13.8928 65.2836 13.2079C65.8089 12.1574 65.5715 11.3653 64.5084 11.1069C63.6428 10.9073 62.6679 10.7918 61.817 10.983C59.9483 11.429 58.1034 11.9696 56.2894 12.6028C55.2389 12.9537 54.2494 13.4768 53.1044 13.9768C52.7892 12.7015 53.5918 12.0461 54.4154 11.6889C57.0353 10.5481 59.7098 9.53331 62.3759 8.50174C63.2772 8.15508 64.2079 7.87145 65.1366 7.61513C66.6086 7.19494 68.0863 6.79786 69.5696 6.42389C70.3091 6.2348 71.1159 6.2264 71.8071 5.93647C75.3136 4.4763 79.0722 4.08342 82.7321 3.27665C83.667 3.06656 84.5452 3.27665 85.2049 4.43638C83.5515 6.15286 82.3308 8.31475 79.8307 9.3106C78.505 9.83794 77.3305 10.8086 76.196 11.712C75.7317 12.0797 75.5531 12.8045 75.2043 13.4411C75.6687 13.6071 75.8851 13.7709 76.0447 13.7268C81.5324 12.2561 86.955 12.7015 92.3082 14.3445C94.634 15.0588 96.8715 16.0589 99.1952 16.7816C100.125 17.0404 101.101 17.0892 102.052 16.9245C103.212 16.7417 104.343 16.3152 105.456 15.9118C108.355 14.8613 111.229 15.2458 114.07 16.0589C115.028 16.332 115.885 16.5316 116.91 16.269C119.268 15.6387 121.654 15.0966 124.054 14.6743C127.306 14.1029 130.176 14.5021 132.443 17.4497C133.829 19.2544 135.466 20.8701 136.777 22.7777C137.893 24.4018 139.458 24.6854 141.385 24.0593C142.114 23.824 142.83 23.5194 143.576 23.3576C145.269 22.9878 146.65 23.866 146.956 25.5405C147.186 26.8517 147.868 28.0411 148.883 28.902C150.423 30.2803 150.528 31.3076 149.368 33.1166C148.396 34.6455 147.338 36.1185 146.2 37.5286C145.571 38.2784 144.81 38.9058 143.954 39.3795C142.195 40.3607 140.426 41.4237 138.527 42.0204C136.983 42.5436 135.231 42.5436 133.571 42.512C130.079 42.4637 126.592 42.262 123.102 42.1213C120.596 42.0204 118.087 41.9322 115.581 41.8061C114.046 41.7409 112.518 42.0457 111.127 42.6948C110.324 43.052 109.408 43.1738 108.532 43.3503C107.257 43.6066 105.977 43.8672 104.687 44.0289C103.803 44.1424 102.866 44.2537 102.008 44.0836C98.8968 43.4701 95.9156 43.9512 92.9007 44.737C91.0645 45.2181 89.2408 45.9051 86.8374 45.7433Z" fill="black"/>
</g>
<defs>
<clipPath id="clip0_729_539">
<rect width="150" height="45.6643" fill="white" transform="translate(0.160156 0.104248)"/>
</clipPath>
</defs>
</svg>
