<svg width="151" height="94" viewBox="0 0 151 94" fill="none" xmlns="http://www.w3.org/2000/svg">
<g clip-path="url(#clip0_729_551)">
<path d="M33.4675 36.0126C30.9286 36.0126 29.4589 36.9351 28.1076 37.8011C21.3965 42.0664 14.7164 46.3684 8.15764 50.8538C6.18295 52.2135 4.59756 54.1741 2.83727 55.861C2.1828 56.4873 1.64963 57.4013 0.160156 56.6537C2.69904 52.9047 4.92197 49.023 7.7091 45.5898C12.1945 40.0692 17.086 34.8955 23.2386 31.1069C24.824 30.1309 26.2119 28.8332 27.7268 27.7387C30.3089 25.8655 32.907 24.0197 35.5211 22.2011C39.5523 19.3801 42.8557 15.8511 45.8431 11.9638C47.9165 9.25561 50.2862 6.88599 53.8011 6.07637C54.7772 5.85069 55.4937 6.01149 56.3992 6.58697C59.8324 8.79861 63.226 11.1005 67.3362 12.0202C69.5111 12.5167 71.5676 13.5209 73.7398 14.0541C74.8182 14.2713 75.934 14.2131 76.9839 13.8848C81.1223 12.6746 84.2451 9.69569 87.8927 7.58559C91.9661 5.23854 96.1384 3.18768 100.824 2.33575C104.316 1.69821 107.761 0.739073 111.262 0.265148C117 -0.513443 121.389 1.53459 123.705 6.6716C125.042 9.63927 125.877 12.8439 126.808 15.9808C127.499 18.1993 128.043 20.461 128.436 22.7512C129 26.2323 129.322 29.75 129.75 33.296C131.183 34.0802 138.439 34.825 144.225 34.7545C144.6 36.3935 144.6 36.3934 143.548 38.5712C139.613 37.8688 135.686 37.1608 131.753 36.4668C129.228 36.0239 129.02 36.1847 128.331 38.8139C127.11 43.491 129.505 49.1048 133.722 51.4744C133.959 51.6241 134.184 51.7909 134.397 51.9737C137.652 54.4695 141.034 56.7962 144.529 58.9444C149.607 62.0757 151.514 69.0717 149.136 74.5585C148.321 76.4373 147.585 78.3725 146.546 80.1243C144.606 83.3995 139.968 84.0934 137.057 81.7266C135.342 80.3161 133.567 79.0015 131.838 77.6164C131.119 77.0522 130.45 76.9197 129.516 77.2328C125.409 78.6066 121.245 78.6433 117.056 77.529C115.428 77.0974 114.557 77.3795 113.99 79.0326C112.201 84.2542 108.046 87.8171 105.002 92.1501C103.622 94.1248 102.13 94.1559 100.271 92.6241C98.9045 91.5191 97.6037 90.3351 96.3753 89.0781C94.6404 87.2727 93.5544 85.25 94.065 82.5334C94.3611 80.8749 94.3896 79.1796 94.1496 77.5121C93.45 72.4343 90.7334 68.4849 87.0266 65.0067C85.0068 63.1138 82.671 62.4001 80.1547 62.1518C74.005 61.5369 67.8439 61.1814 61.6463 61.6638C58.8619 61.881 56.0381 61.6299 53.2369 61.5002C48.0826 61.2965 42.9282 61.9019 37.9613 63.2943C31.7382 64.9869 25.611 67.0096 19.7124 69.6528C18.7939 70.1059 17.907 70.6205 17.0578 71.1931C15.7799 71.9886 15.0465 71.9293 14.6233 70.6289C13.7404 67.9151 12.7587 65.1787 12.3665 62.3747C11.9265 59.1813 13.0859 56.0754 13.9745 53.0203C14.8434 50.0301 16.677 48.0018 19.5008 46.3572C23.8508 43.8183 27.8058 40.608 31.9131 37.6572C32.3391 37.3413 32.6522 36.8815 33.4675 36.0126ZM18.7984 58.8626C20.2653 59.7089 21.4839 59.1672 22.7054 58.6651C26.4291 57.1361 30.1697 55.6495 33.8681 54.0641C36.012 53.1444 37.9923 51.7255 40.2096 51.1246C45.0618 49.7584 49.9852 48.6594 54.9577 47.8325C59.7534 47.0793 64.4108 45.3811 69.3447 45.5165C70.9357 45.5616 72.5832 45.7986 74.115 45.4855C78.3859 44.6392 82.5469 45.4516 86.6627 46.2048C88.6532 46.5601 90.5536 47.3059 92.2545 48.3991C93.9553 49.4924 95.423 50.9115 96.5728 52.5746C98.0228 54.6057 99.1709 56.8512 100.548 58.9416C100.993 59.5418 101.573 60.0297 102.24 60.3661C104.023 61.3507 104.404 61.1814 105.329 59.2603C105.487 58.9274 105.611 58.414 105.876 58.3238C107.902 57.6467 108.545 55.9231 109.231 54.1797C109.435 53.6529 109.767 53.1854 110.198 52.82C112.049 51.339 113.956 49.9285 115.84 48.4729C116.28 48.1316 116.833 47.7846 117.031 47.3106C118.182 44.563 119.307 41.7984 120.286 38.9859C120.517 38.1839 120.463 37.3268 120.134 36.5599C119.064 34.1423 118.675 31.6232 118.54 29.0166C118.44 27.1685 118.245 25.3268 117.956 23.4987C117.273 19.3181 115.188 17.8765 111.307 17.5944C107.002 17.2898 102.644 16.9287 98.4516 18.1586C95.3485 19.0642 92.0395 19.4986 89.4019 21.7554C86.863 23.9275 84.1548 25.8881 81.489 27.9023C78.8232 29.9165 76.1884 30.0067 73.5057 28.2803C72.6396 27.7302 71.7905 27.1519 70.8793 26.6695C68.4053 25.386 65.8664 24.2209 63.4235 22.881C61.3247 21.73 60.642 21.8231 59.0848 23.4903C57.8238 24.8444 56.3992 26.0489 55.0141 27.2817C54.3879 27.8459 53.6036 28.2324 53.0197 28.8219C49.3129 32.5118 45.6456 36.2439 41.9502 39.9451C40.5651 41.3273 39.2731 42.862 37.6961 43.9819C34.0288 46.5913 30.5083 49.3079 27.7409 52.9385C26.3953 54.7044 24.5842 55.7595 22.1384 55.4548C19.7773 55.1699 19.1397 55.9034 18.804 58.8738L18.7984 58.8626ZM131.92 57.2433C134.162 56.507 134.481 56.2616 134.385 55.4717C134.258 54.4026 132.563 52.9075 131.547 53.1585C130.009 53.529 128.507 54.0331 127.056 54.6649C126.636 54.8511 126.518 55.7143 126.173 56.4563C128.402 57.5706 130.464 58.6143 132.549 59.6158C132.687 59.6835 132.983 59.4183 133.378 59.2208L131.92 57.2433ZM126.989 51.6775C126.532 49.0314 124.946 50.0667 123.651 49.4207C123.79 50.315 123.753 51.1613 123.956 51.2233C124.847 51.4913 125.787 51.528 127 51.6888L126.989 51.6775ZM136.298 60.3408C135.782 60.0756 135.516 59.8781 135.223 59.8217C135.116 59.7991 134.941 60.1207 134.803 60.2843C135 60.4282 135.184 60.6539 135.398 60.6906C135.612 60.7272 135.832 60.5552 136.318 60.352L136.298 60.3408Z" fill="black"/>
</g>
<defs>
<clipPath id="clip0_729_551">
<rect width="150" height="93.586" fill="white" transform="translate(0.160156 0.104248)"/>
</clipPath>
</defs>
</svg>
