<svg width="151" height="325" viewBox="0 0 151 325" fill="none" xmlns="http://www.w3.org/2000/svg">
<g clip-path="url(#clip0_729_775)">
<path d="M71.529 118.434C72.2501 113.382 72.762 108.771 70.068 104.235C69.0703 102.564 69.3207 100.184 68.8125 98.174C68.4388 96.642 67.77 95.1847 67.2132 93.6901C67.131 93.4659 66.8172 93.2716 66.8396 93.0699C67.0862 87.6593 63.7009 83.0596 63.4169 77.75C63.3795 77.0662 62.9386 76.4086 62.6696 75.7397C61.8737 73.7071 61.784 71.7678 62.763 69.6753C63.5365 68.0275 63.8541 66.1592 64.2987 64.3694C65.3599 60.1048 66.3949 55.8327 67.4038 51.5531C67.5992 50.7112 67.739 49.8575 67.8223 48.9973C68.6593 41.0085 69.373 33.0048 70.3407 25.0348C71.1628 18.2716 70.2884 11.5234 70.5126 4.77147C70.5649 3.30675 70.2996 1.78224 72.5005 0.0783691C72.7209 0.642588 73.1095 1.19933 73.1394 1.77103C73.386 6.6958 75.2431 11.3478 74.8246 16.4669C74.4173 21.4851 75.1422 26.6228 75.6429 31.6784C76.1287 36.5695 76.9694 41.4233 77.642 46.2957C77.7157 46.6657 77.7157 47.0467 77.642 47.4167C76.1847 52.689 77.1002 58.0584 77.1338 63.3643C77.1599 67.1008 78.0268 70.8374 78.7965 74.5328C80.3099 81.7855 81.67 89.083 84.293 96.0554C85.2047 98.4841 86.0081 100.969 87.1253 103.304C87.6858 104.47 88.8441 105.352 90.0174 106.693C89.853 111.353 91.2281 116.001 94.4639 120.238C97.0795 123.642 99.6278 127.226 99.5269 131.911C99.5269 132.535 100.121 133.174 100.409 133.746C101.933 133.768 102.37 133.036 102.21 131.851C102.098 131.011 101.627 130.125 101.795 129.363C102.464 126.329 103.069 123.242 104.153 120.343C106.23 114.798 108.637 109.436 113.008 105.131C114.925 103.237 116.132 100.648 117.866 98.529C120.59 95.1661 123.844 92.345 127.289 89.7107C130.454 87.3132 132.983 84.1763 134.654 80.5748C136.026 77.6155 137.199 77.0625 140.147 78.3329C142.415 79.3194 144.567 80.5748 146.835 81.5501C148.737 82.3721 149.746 83.7397 150.198 86.0339C148.786 86.7102 147.407 87.5285 145.927 88.0517C140.861 89.8826 136.418 92.7298 132.222 96.0554C130.776 97.2025 129.012 97.9461 127.536 99.0446C122.936 102.52 119.928 107.418 116.379 111.816C111.192 118.239 107.915 125.697 105.244 133.44C104.687 135.061 104.306 136.743 103.813 138.514L101.533 138.181C101.515 138.555 101.384 138.929 101.5 139.22C102.942 142.762 104.257 146.364 105.943 149.787C107.086 152.238 108.568 154.517 110.344 156.558C112.96 159.409 112.926 162.738 113.117 166.172C113.221 167.991 113.528 169.793 114.032 171.545C114.679 173.787 115.803 175.909 116.338 178.173C116.609 179.485 116.45 180.849 115.886 182.063C113.778 186.371 113.382 190.967 112.896 195.623C112.224 202.009 113.27 208.152 114.391 214.396C115.243 219.309 115.773 224.451 113.244 229.245C112.943 229.922 112.829 230.668 112.915 231.404C113.322 236.262 112.216 240.974 111.607 245.745C111.136 249.418 111.458 253.185 111.189 256.891C110.972 259.851 110.292 262.776 110.004 265.732C109.716 268.688 109.631 271.613 109.522 274.558C109.429 277.274 109.444 279.994 109.403 282.715C109.347 286.19 109.104 289.672 109.264 293.14C109.638 300.766 110.12 308.396 109.309 316.011C109.01 318.806 108.465 321.616 106.6 324.441C105.92 323.693 105.154 323.219 104.926 322.572C101.937 313.818 99.0673 305.011 96.093 296.267C95.2299 293.715 93.952 291.294 93.2047 288.716C91.9754 284.475 91.1197 280.121 89.9352 275.869C88.0931 269.241 88.8142 262.418 88.2762 255.692C87.7904 249.684 87.6073 243.649 87.3495 237.626C87.2561 235.384 87.2636 233.142 87.3495 230.93C87.5438 225.699 86.0081 221.043 82.9852 216.731C79.4243 217.523 76.0203 218.786 72.564 218.928C67.075 219.156 61.4926 220.269 56.0447 218.151C53.9971 217.355 51.6879 216.619 49.5655 216.772C44.5548 217.146 40.7361 214.65 36.8314 212.262C33.6702 210.326 30.539 208.324 27.5311 206.16C24.837 204.221 22.2999 202.05 19.7553 199.916C18.5447 198.908 17.4275 197.783 16.3028 196.673C12.9399 193.336 10.9221 189.387 10.8997 184.544C10.8997 182.018 9.8236 179.788 8.92682 177.478C7.09591 172.77 5.69097 167.917 1.48736 164.513C0.138461 163.418 -0.0446296 161.643 0.523326 159.707C1.50819 156.415 2.22914 153.049 2.67931 149.641C3.15012 145.83 3.99458 142.321 7.13328 139.78C5.49294 136.092 3.91611 132.558 2.003 128.264C2.34468 127.164 2.96765 126.171 3.81038 125.385C4.6531 124.598 5.6864 124.045 6.8082 123.781C6.63632 122.547 6.49059 121.475 6.32619 120.294C6.54233 120.047 6.7942 119.833 7.0735 119.659C9.50973 118.587 12.5176 118.434 13.7619 115.175C13.3883 119.846 15.0996 123.534 17.3752 127.151C18.4027 128.78 18.7539 130.843 19.3667 132.722C19.6358 133.544 19.5311 134.639 20.0431 135.207C22.8529 138.319 20.8502 140.842 18.8436 142.893C17.349 144.421 17.0351 145.684 17.7227 147.489C18.9333 150.721 20.2934 153.916 21.2911 157.204C22.5503 161.374 25.4237 164.513 27.5722 168.133C28.2896 169.344 29.1714 171.003 28.8725 172.173C27.9197 175.872 30.0495 178.525 31.7385 181.069C34.3092 184.925 37.5413 188.333 41.73 190.642C42.4773 191.046 42.9107 191.954 43.6319 192.38C45.0069 193.194 46.4231 194.065 47.9364 194.487C50.6603 195.235 53.4702 195.694 56.2465 196.273C58.8957 196.823 61.7878 195.683 63.1143 193.658C63.9699 192.354 63.8616 191.24 62.5239 190.493C56.863 187.306 52.013 182.982 47.2414 178.689C42.0625 174.015 38.5875 167.905 39.1181 160.705C39.4918 155.825 42.0737 151.551 46.3446 148.647C47.1592 148.094 48.1083 147.709 48.8444 147.078C51.0116 145.21 51.0041 144.772 50.1036 141.91C49.2554 139.216 48.5791 136.466 47.8841 133.724C46.6099 128.705 49.005 125.171 52.693 122.234C53.2991 121.832 53.9896 121.577 54.7108 121.486C60.196 120.477 65.6775 119.495 71.529 118.434Z" fill="black"/>
</g>
<defs>
<clipPath id="clip0_729_775">
<rect width="150" height="324.381" fill="white" transform="translate(0.160156 0.104492)"/>
</clipPath>
</defs>
</svg>
