<svg width="151" height="126" viewBox="0 0 151 126" fill="none" xmlns="http://www.w3.org/2000/svg">
<g clip-path="url(#clip0_729_367)">
<path d="M121.05 80.3549C113.501 80.4801 106.055 78.5938 99.4758 74.8898C88.4215 68.8429 74.8398 76.0534 73.0753 88.6432C72.4744 92.9066 73.5617 97.4179 73.9337 101.805C74.3343 106.507 75.2499 111.21 75.1355 115.893C74.9638 122.75 71.9689 125.65 65.283 125.821C61.185 125.774 57.0931 125.494 53.027 124.982C51.4628 124.839 49.7842 123.895 48.3917 124.248C38.4152 126.737 29.8789 122.407 21.066 118.983C4.47038 112.535 -4.73354 89.7591 2.84896 73.6976C3.62018 71.9343 4.89328 70.437 6.5096 69.3922C8.12591 68.3474 10.014 67.8015 11.9384 67.8223C22.0007 67.6411 26.3976 61.8517 30.6801 53.3154C38.4056 37.7785 51.0431 26.1806 65.9697 17.1483C73.495 12.5798 80.5815 7.17187 88.412 3.18509C92.9415 0.962301 97.9537 -0.0965057 102.995 0.104403C127.059 1.22986 148.948 22.6898 150.093 46.7726C150.712 59.267 146.974 70.2259 135.519 77.8751C130.616 81.1752 126.239 81.0989 121.05 80.3549Z" fill="black"/>
</g>
<defs>
<clipPath id="clip0_729_367">
<rect width="150" height="125.726" fill="white" transform="translate(0.160156 0.104492)"/>
</clipPath>
</defs>
</svg>
