<svg width="151" height="144" viewBox="0 0 151 144" fill="none" xmlns="http://www.w3.org/2000/svg">
<g clip-path="url(#clip0_729_363)">
<path d="M69.4622 42.0449C76.1494 43.3225 80.5296 46.9434 83.4278 53.2582C85.4354 57.6384 89.2681 61.1572 93.1518 66.0922C85.6325 68.3845 76.2954 66.3112 75.631 77.2252C81.7925 78.386 87.9248 79.8095 94.1447 80.5177C95.8822 80.7148 98.1453 79.1233 99.6856 77.802C102.927 75.0132 105.847 71.8668 109.132 68.64C111.884 73.0202 107.92 75.882 107.957 79.8168C109.198 79.9921 110.753 80.7221 111.731 80.2549C116.301 78.0648 121.046 76.0061 125.062 73.0129C127.252 71.3631 129.084 69.83 131.895 69.5599C133.334 69.3184 134.724 68.845 136.012 68.1582C142.896 65.041 143.853 65.2892 148.591 71.3777C149.057 71.8512 149.588 72.2567 150.167 72.5822C149.854 81.693 145.305 87.5844 137.713 91.1397C130.697 94.4175 123.485 97.25 116.367 100.302C114.177 101.251 111.987 102.302 109.797 103.258C105.19 105.251 104.11 109.15 104.818 113.479C105.811 119.596 105.825 126.181 112.622 130.766C105.526 133.817 99.6053 136.365 93.6921 138.935C92.3294 139.434 91.0286 140.088 89.8156 140.884C86.1654 143.629 82.7416 144.534 77.9087 143.235C71.0391 141.395 68.5716 137.336 72.1269 130.985C72.6146 130.147 73.1458 129.336 73.7183 128.554C74.5433 127.393 75.4047 126.262 76.2589 125.115L77.8576 125.984C77.1787 128.284 76.3976 130.569 75.8281 132.89C74.4557 138.168 76.4925 140.191 81.8801 139.066C89.3119 137.489 94.1082 132.445 98.1015 126.495C99.6345 124.217 99.6345 121.772 98.4373 118.939C95.7215 112.5 90.531 108.164 86.1581 103.12L82.5663 98.9583C84.0264 95.7462 86.2165 97.0675 88.2971 97.0602C93.818 97.0889 99.3353 96.7768 104.818 96.1258C108.337 95.6659 110.943 93.3371 112.213 89.1759C110.994 88.7087 109.724 87.7158 108.563 87.8691C103.131 88.4969 97.8532 91.0594 92.2247 88.8985C91.9851 88.8445 91.7372 88.8386 91.4953 88.8812C91.2534 88.9238 91.0224 89.0141 90.8157 89.1467C84.8733 92.8552 79.6827 90.1322 74.4995 87.2924C69.8784 84.7884 65.4252 81.8682 60.6069 79.8168C55.8613 77.686 50.8719 76.1463 45.7508 75.2322C43.7213 74.9037 40.9179 77.0135 39.0271 78.6561C28.0766 88.1976 17.2648 97.929 6.40194 107.58C3.81032 109.909 3.75192 109.872 0.160156 108.639C4.97838 104.324 10.1689 100.104 14.8046 95.3447C17.7021 92.4293 20.0863 89.0454 21.8568 85.3359C28.3103 71.312 33.9388 56.9011 40.6989 43.0305C46.2034 31.7149 49.7805 20.3994 48.9702 7.58732C48.6125 1.97336 50.8902 1.17763 56.7013 0.345388C63.016 -0.559854 68.6884 1.25793 74.3827 3.26552C79.6754 5.10521 84.2965 11.7631 83.4424 16.8514C83.1577 18.5743 81.172 20.6038 79.4564 21.3996C70.4989 25.5315 68.5205 32.8173 69.4622 42.0449Z" fill="black"/>
</g>
<defs>
<clipPath id="clip0_729_363">
<rect width="150" height="143.744" fill="white" transform="translate(0.160156 0.104492)"/>
</clipPath>
</defs>
</svg>
