<svg width="151" height="88" viewBox="0 0 151 88" fill="none" xmlns="http://www.w3.org/2000/svg">
<g clip-path="url(#clip0_729_471)">
<path d="M134.58 30.8915C132.61 33.3172 132.181 36.0681 131.957 38.9123C131.811 40.8341 131.573 42.7534 131.307 44.6619C130.99 47.1382 129.318 48.7882 127.591 50.3103C123.419 53.9968 118.323 56.0546 113.258 58.1257C112.232 58.5469 111.027 58.6189 109.897 58.6829C107.085 58.8428 104.43 60.3009 101.532 59.6638C101.02 59.5518 100.263 59.5812 100.05 59.2613C98.7174 57.2301 96.7982 55.3216 97.0194 52.6986C97.286 49.6199 97.8644 46.5945 100.048 44.0808C101.591 42.3082 101.05 40.0665 98.5468 38.8563C95.923 37.5873 93.4984 35.9422 91.3497 33.973C90.3555 33.0693 89.4465 33.5545 88.4336 34.0449C84.6245 35.8895 81.655 38.843 78.5843 41.6098C75.7534 44.1635 72.4988 45.984 69.3081 47.9752C63.769 51.4405 58.3792 55.1163 52.8535 58.6082C49.7321 60.5834 46.4401 62.2894 43.316 64.2619C39.5842 66.6183 35.4659 68.1776 31.7767 70.6806C26.1331 74.551 19.3398 76.3842 12.5153 75.8785C9.83372 75.6972 7.18414 74.8309 4.53722 74.2791C3.16178 73.9966 1.77835 73.746 0.152344 73.4208C1.39184 72.3839 2.72196 72.4346 3.91614 72.6212C6.39779 73.0103 8.65287 72.4346 10.9186 71.5549C13.7175 70.4727 16.5883 69.5691 19.3605 68.4255C20.7279 67.8631 21.9461 66.9381 23.2309 66.1758C25.3314 64.9363 27.064 63.1077 29.431 62.2814C29.8288 62.096 30.1985 61.8555 30.5293 61.567C34.4023 58.7815 38.2248 55.9213 42.1618 53.2264C44.0277 51.9416 46.1922 51.07 48.1061 49.8331C50.2545 48.447 52.259 46.8424 54.3515 45.371C58.6564 42.3349 63.02 39.3814 67.2849 36.2867C70.1611 34.1969 70.4329 32.9387 69.0575 29.764C68.4897 28.4552 68.3405 27.0771 69.2228 25.9842C70.6329 24.2356 71.0167 22.1724 71.5285 20.12C72.1203 17.7369 73.3944 15.855 75.2763 14.205C78.5789 11.2916 81.8789 8.34077 84.7924 5.03812C86.9035 2.65509 89.6198 1.55154 92.256 0.181437C92.4587 0.108387 92.6752 0.0821886 92.8894 0.10481C93.1036 0.127432 93.3099 0.198285 93.4929 0.312051C96.5236 2.44451 99.6237 4.54499 101.204 8.11686C101.796 9.44965 101.847 10.7504 101.543 12.2378C100.967 15.0847 100.429 17.9795 101.05 20.9223C101.364 22.4177 101.135 23.6492 99.5704 24.5075C98.3453 25.2205 97.2242 26.0986 96.2384 27.1171C94.8203 28.5192 94.9909 28.983 96.6089 30.1319C98.8293 31.7099 100.874 33.5305 103.172 34.9912C105.005 36.1614 107.055 37.0117 109.062 37.8807C110.297 38.4138 111.366 38.8696 112.04 40.2557C112.922 42.071 113.517 42.087 115.145 40.9621C116.945 39.7199 118.725 38.4485 120.503 37.1743C122.636 35.6469 122.79 33.152 123.563 30.9529C123.83 30.2317 124.161 29.5359 124.552 28.8737C124.901 28.2633 125.469 27.7595 125.722 27.1224C127.095 23.6758 129.838 22.4497 133.277 22.4763C135.369 22.4763 137.47 22.6016 139.12 24.2862C140.37 25.5657 142.001 25.8456 143.768 25.779C146.191 25.6883 146.461 25.9309 147.175 28.178C148.612 32.7281 149.84 37.2889 148.58 42.1323C148.313 43.1319 148.5 44.2461 148.508 45.307C148.538 47.0563 148.411 48.8048 148.129 50.5315C147.751 52.72 148.342 55.063 148.513 57.3554C148.561 57.9951 148.702 58.6482 148.633 59.2746C148.281 62.2528 148.398 65.2677 148.98 68.2096C149.291 69.7583 149.705 71.2857 150.072 72.8237C150.094 72.909 150.163 73.0077 150.142 73.077C149.062 76.4729 150.494 80.2367 148.748 83.4727C148.017 84.8215 146.698 85.8717 145.616 87.0073C145.398 87.1643 145.13 87.2338 144.864 87.2019C142.361 87.1032 140.199 86.2636 138.778 84.0885C137.406 81.9907 137.155 79.8689 138.65 77.6378C139.309 76.6542 139.546 75.4813 139.735 74.2232C140.418 69.9628 140.216 65.6076 139.144 61.4284C138.877 60.4421 139.144 59.3226 139.176 58.2644C139.319 54.1194 139.506 49.9771 139.607 45.8321C139.624 44.3571 139.724 42.8842 139.909 41.4206C140.196 39.2881 139.791 37.0037 139.325 34.8606C139.13 33.965 138.099 33.1786 137.307 32.5069C136.598 31.9045 135.697 31.534 134.58 30.8915Z" fill="black"/>
</g>
<defs>
<clipPath id="clip0_729_471">
<rect width="150" height="87.1244" fill="white" transform="translate(0.160156 0.104248)"/>
</clipPath>
</defs>
</svg>
