<svg width="151" height="242" viewBox="0 0 151 242" fill="none" xmlns="http://www.w3.org/2000/svg">
<g clip-path="url(#clip0_729_755)">
<path d="M9.03967 241.012C9.88824 239.712 10.6697 238.365 11.595 237.128C16.517 230.551 21.463 223.999 26.4329 217.472C26.7676 216.931 27.2059 216.462 27.7226 216.091C33.2358 213.038 38.7779 210.046 44.3008 207.016C45.9452 206.115 47.5369 205.132 49.1717 204.221C56.1112 200.393 63.5566 197.564 71.2872 195.817C82.4097 193.228 93.6855 191.282 104.846 188.894C111.664 187.456 118.414 185.668 125.188 184.004C125.576 183.838 125.927 183.599 126.224 183.299C125.715 178.635 125.154 174.099 124.742 169.554C124.191 163.408 124.172 157.181 123.136 151.126C122.24 145.89 120.298 140.823 118.682 135.727C118.136 134.01 116.765 133.402 114.847 133.713C108.586 134.734 102.214 135.276 96.0443 136.695C89.7591 138.133 83.6657 140.42 77.486 142.319C70.2085 144.548 62.9261 146.749 55.6534 148.992C48.7018 151.135 41.7503 153.336 34.8083 155.455C33.7787 155.69 32.7318 155.843 31.6777 155.91C28.6286 166.208 27.037 176.501 27.8424 187.072C28.0102 189.268 28.7485 191.454 28.6958 193.631C28.6286 196.675 25.6515 198.233 23.3503 196.311C20.4738 193.914 17.976 191.037 15.4734 188.204C12.6209 184.996 11.245 180.931 9.40882 177.129C8.58902 175.303 7.35212 173.653 6.10564 171.736L0.995051 176.348L0.227984 175.758C1.59912 173.577 2.75451 171.175 4.47562 169.276C5.8899 167.694 6.24946 166.002 6.39329 164.123C7.00215 157.31 7.59662 150.526 6.70491 143.647C6.24946 140.089 6.74806 136.384 7.01653 132.764C7.76801 122.96 7.55927 113.106 6.39329 103.342C5.91387 99.2767 6.09605 95.1297 5.91387 91.0259C5.62143 84.8942 5.38172 78.7529 4.84956 72.6403C4.64821 70.3295 3.51199 68.1146 3.13325 65.799C2.84081 64.0395 3.07572 62.1986 3.07572 60.5254C2.11689 57.5003 1.15805 54.5087 0.199219 51.4165C1.46009 48.4153 2.75931 45.582 7.08844 46.5648C7.96578 46.7614 9.591 45.8121 10.1375 44.9348C11.2546 43.0746 12.7743 40.8549 12.6257 38.9085C12.3285 35.217 15.2769 31.0413 11.3409 27.7956C11.2162 27.6949 11.0197 27.5176 11.0436 27.4361C12.7456 22.1864 7.50553 21.7694 5.33378 19.2236C3.41611 16.9992 1.01902 15.1822 3.12846 11.505C4.18317 9.69284 3.07093 7.4971 0.290308 6.49033C4.62903 2.92347 8.69928 -0.27904 14.3324 0.142847C19.467 0.526381 24.6735 0.200377 29.1272 4.03571C33.7488 8.01487 36.2274 15.1726 34.4871 21.1461C33.5666 24.3198 33.1112 27.6422 32.6078 30.9214C31.8024 36.0895 31.2463 41.296 30.4169 46.4545C29.4916 52.1836 30.1915 57.8119 30.8963 63.4834C31.4141 67.5537 31.9942 71.6958 31.7449 75.7565C31.4189 81.1547 32.2914 86.4235 32.488 91.7403C32.742 98.5144 31.8839 105.332 31.5579 112.13C31.4668 114.009 31.5243 115.893 31.5579 117.777C31.5914 119.033 32.0373 120.366 31.764 121.536C30.3881 127.404 32.2818 133.267 31.6729 139.116C31.6729 139.346 31.9942 139.596 32.2962 140.046C37.3109 138.608 41.9229 136.542 45.8877 132.822C48.3175 130.6 51.1139 128.815 54.1528 127.548C68.0491 121.7 82.3749 116.93 97.0031 113.28C101.625 112.111 106.112 110.466 110.647 108.913C114.698 107.518 115.336 106.152 114.157 102.038C113.941 101.271 113.605 100.538 113.38 99.7753C111.501 93.447 111.395 93.2504 104.89 94.2093C96.5716 95.4366 88.3065 97.033 79.9838 98.2172C75.1225 98.9123 70.0599 100.005 65.3328 99.3007C59.6027 98.475 54.1543 96.2868 49.4449 92.9196C51.3003 90.2589 53.2803 88.4946 56.4924 88.533C57.2992 88.5158 58.1022 88.4178 58.8895 88.2405C62.1207 87.6125 62.9453 86.6297 62.9645 83.4463C62.9981 78.82 62.9933 78.8008 67.7587 77.842C68.9926 77.5913 70.2447 77.4406 71.5029 77.3913C75.5923 77.2331 79.7824 77.6454 83.7568 76.9119C87.8942 76.1209 91.8302 74.2559 95.8381 72.8177C99.2756 71.5856 102.948 70.6555 104.947 67.1462C105.537 66.0962 106.304 64.7491 106.093 63.6992C104.487 55.8175 106.572 48.1756 107.454 40.4762C107.976 36.237 108.788 32.0387 109.885 27.9107C110.349 26.0681 111.269 24.3717 112.56 22.9775C115.578 19.7626 118.85 16.7965 122.345 14.1083C123.302 13.3634 124.437 12.8828 125.638 12.7145C126.838 12.5463 128.062 12.6962 129.186 13.1494C130.035 13.509 131.152 13.7966 131.981 13.5569C138.736 11.6105 142.548 16.6012 147.006 19.9236C148.104 20.7482 148.54 22.6515 148.962 24.1521C150.616 29.9674 150.88 35.5286 147.586 41.157C142.821 49.2543 141.733 58.3393 141.32 67.6448C140.841 78.3501 142.322 88.8877 143.089 99.4924C143.468 104.713 142.859 110.092 143.904 115.155C146.302 126.824 145.29 138.507 145.213 150.205C145.175 155.929 145.606 161.668 145.319 167.373C144.951 174.802 145.469 182.249 146.862 189.556C147.534 193.108 149.116 196.416 149.005 200.204C148.886 204.485 147.802 206.8 143.818 208.354C141.902 209.148 139.891 209.688 137.835 209.96C130.764 210.746 123.64 211.125 116.587 212.045C109.832 212.927 103.14 214.303 96.4182 215.435C92.6979 216.063 88.9297 216.451 85.2526 217.266C78.9339 218.666 72.6679 220.32 66.3827 221.864C59.9864 223.477 53.7035 225.511 47.5752 227.952C47.1393 228.144 46.6846 228.29 46.2185 228.389C41.6976 229.151 37.1095 229.558 32.6749 230.718C27.1638 232.188 21.7488 233.997 16.461 236.136C13.7475 237.224 11.4176 239.281 8.91982 240.901L9.03967 241.012Z" fill="black"/>
</g>
<defs>
<clipPath id="clip0_729_755">
<rect width="150" height="240.907" fill="white" transform="translate(0.160156 0.104492)"/>
</clipPath>
</defs>
</svg>
