<svg width="151" height="156" viewBox="0 0 151 156" fill="none" xmlns="http://www.w3.org/2000/svg">
<g clip-path="url(#clip0_729_571)">
<path d="M64.2034 86.6358C62.7218 85.999 61.7589 84.9565 61.0194 83.4852C59.3453 80.1472 55.2729 79.6568 52.7386 82.4273C49.0591 86.4458 45.2922 90.4078 41.9106 94.6702C40.3186 96.6807 38.5417 98.4832 36.8753 100.404C35.3732 102.137 33.4038 103.118 31.3368 103.952C31.0243 104.089 30.6925 104.175 30.3533 104.209C27.801 104.356 24.3988 102.101 23.6183 99.69C22.016 94.742 20.1596 89.8454 19.7924 84.5945C19.646 82.4838 19.474 80.3039 19.8335 78.2471C20.4651 74.6523 21.5872 71.1269 22.3447 67.5424C23.3101 62.9898 23.9007 58.427 21.0891 54.2057C20.9597 53.9837 20.8686 53.7416 20.8195 53.4893C20.8047 53.2956 20.8133 53.1007 20.8451 52.909C23.2922 54.4497 24.7763 56.188 25.0408 59.354C25.4927 64.7462 24.2705 69.8482 23.4565 75.0452C22.6194 80.3989 23.0277 85.6267 25.2847 90.5798C26.3773 92.9856 27.679 95.2908 29.1748 97.4689C30.9157 99.9904 32.8029 99.7953 34.7107 97.338C37.3503 93.9358 40.1029 90.6132 42.799 87.2598C42.9068 87.1262 43.0558 87.0261 43.1508 86.8874C45.2871 83.837 47.3644 80.7455 49.57 77.7464C50.9874 75.8155 51.9066 73.7382 52.6718 71.4658C53.37 69.2542 54.808 67.3503 56.7442 66.0737C58.7521 64.7898 60.4314 63.2363 61.2274 60.7354C61.8334 58.825 63.1429 57.1406 64.1725 55.3663C65.4975 53.0939 66.8584 50.842 68.2038 48.585C68.3106 48.3524 68.4584 48.1411 68.6404 47.9611C71.6369 45.6502 71.4109 41.9373 72.5972 38.8483C73.2237 37.2204 71.7421 36.2575 70.7459 35.5103C68.5094 33.8464 67.3437 31.4893 66.1805 29.1501C64.93 26.6415 66.3012 23.6013 68.9202 22.6333C69.1898 22.5357 69.5545 22.6949 69.9088 22.7386C67.6467 28.2334 67.8418 28.8086 73.8939 34.2136C75.1931 32.1594 76.3794 30.1412 76.0738 27.6711C75.6117 23.9556 74.6667 20.366 72.9181 16.9997C71.8397 14.9225 70.3735 13.2226 68.2963 12.2623C66.2342 11.2693 64.0574 10.5346 61.8154 10.0746C60.6188 9.84612 59.0371 10.2647 57.9972 10.9502C56.5644 11.9157 54.9776 12.0235 53.4396 12.4292C50.4122 13.2201 47.3567 13.9031 43.7336 14.771C44.1393 13.7439 44.1881 13.0917 44.5322 12.8375C47.2591 10.8116 49.9655 8.72917 52.831 6.93178C55.504 5.23966 58.4645 4.0919 61.4123 2.90305C63.0282 2.29552 64.6045 1.58715 66.1317 0.782131C68.3938 -0.483746 70.4095 0.26859 72.5201 1.23661C73.4163 1.64488 74.5281 1.57555 75.6502 1.74759C75.7657 2.30735 75.9069 2.939 76.0559 3.69904L78.5979 3.83256L79.4247 6.37202H81.2221C81.5867 7.35288 81.8974 8.36199 82.3416 9.30947C82.7384 10.1553 83.2184 10.9595 83.7744 11.7103C85.0582 13.4358 86.0853 15.2588 86.1007 17.4568C86.1264 20.0784 86.1418 22.7077 86.0006 25.3242C85.6848 31.1093 83.9464 36.5399 81.5636 41.7575C79.8638 45.4653 77.9688 49.0806 76.2664 52.7986C75.6635 54.2096 75.1991 55.6758 74.8799 57.1766C74.5743 58.4604 74.6873 59.6929 76.0097 60.5685C76.5232 60.9074 76.762 61.6469 77.1574 62.181C77.6889 62.9025 78.2538 63.6035 79.0729 64.6563C80.0589 63.1157 80.8344 61.9345 81.5816 60.7328C83.8745 57.0585 85.998 53.2634 88.5144 49.7405C89.7982 47.9277 91.7266 46.5488 93.452 45.0776C93.999 44.6102 94.8155 44.4408 95.5319 44.1994C97.1264 43.6602 98.9777 43.4291 98.8853 41.0642C98.8853 40.8871 99.3578 40.6894 99.6094 40.5019C99.7481 40.7587 99.8893 41.036 100.084 41.4134C101.368 41.1567 102.375 40.6431 103.009 39.1693C103.643 37.6954 104.452 37.7981 105.484 39.1898C105.952 38.8278 106.368 38.3296 106.894 38.1371C107.8 37.8033 108.509 36.8712 109.801 37.5465C110.453 37.888 111.57 37.359 112.474 37.1947C114.474 36.825 116.415 35.8698 118.495 37.1305C119.44 37.7005 121.155 36.9533 122.809 35.6567C123.823 36.1291 124.891 36.4835 125.8 37.0843C127.854 38.4298 129.965 37.3154 132.037 37.3924C133.955 37.4643 135.888 37.2486 137.807 37.0612C139.408 36.9424 140.997 36.7021 142.562 36.3422C144.103 35.9545 145.548 35.2792 146.881 34.7862L150.142 36.3448C150.342 37.3462 149.731 37.8058 148.973 38.0575C148.007 38.367 147.025 38.6242 146.031 38.8278C143.651 39.3413 141.237 39.7367 138.888 40.3684C137.794 40.6611 136.821 41.3955 135.793 41.9347C135.4 42.1629 134.962 42.3057 134.51 42.354C134.057 42.4022 133.6 42.3547 133.167 42.2146C131.562 41.7652 129.844 41.6779 128.165 41.529C127.074 41.434 126.085 41.2722 125.233 40.2041V42.1709C124.942 42.2993 124.719 42.4816 124.498 42.4867C122.906 42.5304 121.294 42.6459 119.73 42.7281C118.346 42.8026 116.549 42.6613 115.321 43.9067C115.144 44.0864 114.874 44.392 114.723 44.3509C111.824 43.596 109.706 46.1688 107.02 45.9172L105.967 48.1203C102.531 48.3514 100.254 50.557 98.4 52.8988C94.9824 57.2099 91.932 61.8215 90.7226 67.3472C90.4815 68.4219 90.3354 69.5157 90.2861 70.6159C90.2039 72.7471 90.304 74.8834 90.2039 77.0146C90.0653 79.9598 91.4518 82.6251 91.6444 85.506C91.6865 85.8474 91.8215 86.1707 92.0347 86.4407C94.4329 89.6349 95.0954 93.3735 95.5088 97.2096C95.5448 97.4052 95.5937 97.5982 95.6551 97.7873C96.4691 98.0441 97.3139 98.419 98.1972 98.5936C98.9264 98.7374 99.7635 98.8504 100.436 98.6398C102.347 98.0133 104.182 97.6744 106.006 98.8221C107.546 97.831 108.643 99.3562 109.968 99.5924C111.362 99.8492 112.664 100.571 114.045 100.953C115.511 101.306 116.819 102.132 117.768 103.303C117.975 103.573 118.238 103.794 118.539 103.952C119.566 104.438 120.539 104.466 121.717 104.271C122.529 104.137 123.515 105.555 124.465 105.619C125.22 105.67 126.041 104.715 127.225 103.955C130.085 103.793 130.635 104.402 130.098 107.647C129.644 110.408 128.211 112.783 126.791 115.045C124.709 118.35 122.015 121.259 119.774 124.471C118.047 126.911 115.795 128.933 113.185 130.389C110.946 131.673 108.974 131.578 106.74 130.187C103.674 128.276 100.423 126.656 97.1983 125.023C95.5062 124.168 92.9642 124.938 91.6701 126.525C90.2219 128.304 88.861 130.151 87.3769 131.897C85.6129 133.977 83.1042 134.978 80.7471 136.157C80.1951 136.387 79.5799 136.416 79.0087 136.239C77.3834 135.725 76.0893 136.47 74.9928 137.386C72.9669 139.084 70.864 140.778 69.2104 142.812C66.1625 146.561 62.5061 149.56 58.6186 152.312C58.0255 152.734 57.2064 152.826 56.508 153.106C55.5014 153.506 54.5077 153.943 53.5063 154.359C53.0467 154.552 52.5871 154.872 52.1172 154.898C49.8242 155.006 47.5261 155.14 45.2357 155.062C41.4997 154.937 38.9937 152.669 37.4736 149.586C35.8304 146.163 34.5399 142.583 33.622 138.899C33.3198 137.786 32.7813 136.751 32.0431 135.865C31.3049 134.978 30.3844 134.262 29.3442 133.763C26.15 132.238 22.8557 130.906 19.533 129.681C18.1491 129.167 16.5956 129.018 15.1038 128.926C10.7849 128.669 6.45574 128.515 2.13173 128.32C1.95834 128.316 1.78599 128.292 1.61819 128.248C0.172578 127.817 -0.202306 126.849 0.532056 125.529C1.70036 123.452 3.69547 122.34 5.80868 121.747C10.3869 120.463 15.0267 119.32 19.7025 118.437C23.9572 117.633 28.2838 116.896 32.5924 116.796C35.7251 116.749 38.8372 117.31 41.7565 118.447C43.5231 119.138 44.8865 121.215 46.0934 122.91C47.8702 125.406 49.3107 128.138 50.9592 130.728C52.1403 132.582 52.9183 132.783 55.0495 132.269C57.7096 131.614 59.5635 130.197 60.624 127.532C61.23 126.006 62.5806 124.792 63.4485 123.351C64.7606 121.177 65.9648 118.938 67.1768 116.704C67.9805 115.217 68.6737 113.669 69.4877 112.192C71.9167 107.845 74.2842 103.352 74.5923 98.3779C74.772 95.4661 74.428 92.2026 72.8103 89.4937C71.9219 88.0018 70.6791 86.6949 69.4569 85.4393C69.1102 85.0849 68.209 84.9925 67.6749 85.1568C66.4886 85.5266 65.3588 86.1223 64.2034 86.6358ZM82.2543 80.2012C82.2956 80.2748 82.3218 80.356 82.3313 80.4399C82.3313 80.5067 82.2543 80.612 82.1978 80.6197C80.8446 80.8225 80.0538 79.8956 79.3374 79.0072L78.0767 79.8802L76.9469 77.957C75.568 77.957 74.1224 77.9287 72.6793 77.957C71.2363 77.9852 70.2554 79.2948 68.7533 79.3281C67.4695 79.3589 66.1985 79.7184 64.8273 79.9495C65.2484 80.8405 64.3138 82.4094 65.9289 83.3415C66.789 82.5326 67.377 82.4941 68.607 83.249C70.6094 84.4555 72.8509 85.2109 75.1751 85.4624C77.0774 85.6527 78.9258 86.2044 80.6212 87.0877C81.4485 87.497 82.3159 87.8197 83.2095 88.0506C84.4163 88.3767 85.297 87.8529 85.4331 86.6255C85.5795 85.3134 85.4665 83.9731 85.4665 82.6816C84.0774 82.0139 82.2132 82.2194 82.2517 80.1703L83.8925 81.4542C84.6397 80.7558 84.7142 80.137 84.0902 79.6157C83.2531 78.9327 82.8629 79.9598 82.2543 80.1934V80.2012ZM106.391 116.426C106.355 116.629 106.321 116.832 106.288 117.035C104.642 117.215 102.786 117.122 101.366 116.673C99.2653 116.008 97.5835 115.938 95.573 116.881C94.0324 117.559 92.3619 117.892 90.6789 117.856C89.2308 117.844 87.7903 117.156 86.1778 116.722C85.5204 118.76 82.9347 116.835 81.7613 118.819L84.4009 120.083C84.1852 120.268 84.008 120.491 83.9439 120.463C80.6058 118.963 77.9098 120.915 75.0904 122.106C74.6924 122.273 74.3946 122.825 74.1815 123.264C73.7526 124.145 73.4111 125.061 72.9823 126.104L77.5682 128.215L79.3836 125.886C79.5865 126.348 79.8509 126.959 80.0743 127.473C81.1245 127.473 82.0438 127.473 82.9656 127.473C85.3997 127.491 87.6593 126.959 89.7212 125.578C91.0739 124.692 92.4783 123.887 93.9271 123.169C94.4461 122.898 95.0431 122.814 95.6166 122.933C97.3267 123.434 99.0959 123.891 100.642 124.73C102.506 125.744 104.288 125.976 106.196 125.105C107.307 126.176 108.137 127.516 109.947 126.861C111.531 126.289 111.231 124.851 111.565 123.68C113.698 125.477 113.852 125.316 116.472 124.427C117.933 123.932 118.526 122.691 119.63 121.965C123.261 119.569 125.035 115.956 126.324 112.01C126.487 111.364 126.615 110.71 126.706 110.051C125.343 110.444 124.187 110.544 123.307 111.078C122.426 111.612 121.828 112.603 120.996 113.509C120.523 113.34 119.94 112.924 119.455 113.009C118.908 113.104 118.428 113.658 117.915 114.036L116.79 112.603H112.766L112.43 113.964L116.844 114.644C114.764 115.497 112.838 116.888 110.622 115.571C110.455 115.471 110.109 115.571 109.89 115.671C108.445 116.334 107.467 116.031 106.853 114.467C106.753 114.21 105.882 114.262 105.369 114.169C105.338 114.683 105.168 115.273 105.33 115.73C105.436 116.044 106.018 116.195 106.388 116.421L106.391 116.426ZM59.2169 67.6348C58.4081 67.8916 57.5607 68.0405 56.8443 68.4308C55.9302 68.9289 55.5605 69.7609 56.0355 70.8188C56.5105 71.8767 58.0049 73.1502 58.6674 72.9089C59.0782 72.7574 59.5738 72.326 59.6765 71.928C60.054 70.526 60.2003 69.0881 59.2169 67.6348ZM102.277 44.3175C102.11 46.0636 102.668 46.3101 104.28 45.9917L102.277 44.3175ZM100.955 43.1569C100.66 43.4804 100.336 43.6705 100.308 43.9272C100.28 44.184 100.58 44.3868 100.737 44.6205C100.958 44.4107 101.148 44.1703 101.302 43.9067C101.355 43.768 101.137 43.5241 100.955 43.1569ZM82.9989 76.6218C82.8397 76.9556 82.6446 77.179 82.696 77.2894C82.7476 77.3942 82.8196 77.4877 82.9078 77.5644C82.996 77.6411 83.0985 77.6995 83.2095 77.7362C83.3353 77.767 83.5253 77.5179 83.6871 77.3972L82.9989 76.6218Z" fill="black"/>
</g>
<defs>
<clipPath id="clip0_729_571">
<rect width="150" height="154.999" fill="white" transform="translate(0.160156 0.104248)"/>
</clipPath>
</defs>
</svg>
