<svg width="151" height="57" viewBox="0 0 151 57" fill="none" xmlns="http://www.w3.org/2000/svg">
<g clip-path="url(#clip0_729_179)">
<path d="M35.6811 12.0757C35.7031 12.2824 35.7031 12.4908 35.6811 12.6975C31.4776 14.3111 27.8214 17.1093 23.3257 18.098C20.3161 18.7664 18.5439 16.7548 16.4329 15.4428C15.6618 14.964 15.0866 14.1712 14.4244 13.5152C12.1206 11.2362 8.84363 11.23 6.52427 13.5152C4.2049 15.8004 4.20179 15.7755 0.446041 16.9321C-0.617259 14.9578 1.34456 13.537 1.41918 11.8239C1.4938 10.033 1.67412 8.27641 3.6204 7.25353C3.30949 6.43274 3.03278 5.699 2.7654 5.00878C2.95506 4.84089 3.07631 4.61393 3.2442 4.59839C5.07855 4.41806 6.9129 4.26572 8.75036 4.11337C9.06126 4.08539 9.40948 3.97346 9.68308 4.07917C13.7466 5.68967 17.8102 3.48223 21.8986 4.05119C23.3443 4.25017 25.3466 2.42204 26.1145 0.320312C26.7736 2.36297 27.9799 2.24793 29.5345 1.77225C33.8623 0.450893 38.2834 0.450893 42.7293 1.25303C46.5597 1.96501 49.2242 4.673 52.1964 6.81204C53.353 7.64838 54.264 8.81739 55.3242 9.79364C55.7719 10.204 56.3502 10.8569 56.8072 10.8103C59.5245 10.5305 60.4852 12.7224 61.7817 14.2956C63.3279 16.161 63.615 18.2949 62.6429 20.6971C62.0615 22.1273 60.8241 23.5606 61.7755 25.6716C64.0171 25.8582 66.3614 26.0105 68.6932 26.2561C74.7496 26.8966 80.8185 27.4687 86.8501 28.2739C91.5604 28.8956 96.1844 30.0524 100.633 31.7219C101.808 32.1634 103.154 32.1571 104.158 32.3157C105.324 28.333 106.126 24.6985 107.46 21.2754C109.015 17.3051 111.685 14.0779 115.118 11.4445C123.36 5.12382 132.759 4.51133 142.533 5.69589C148.13 6.37056 150.409 10.0051 150.107 14.7868C149.943 17.2494 149.643 19.701 149.209 22.1304C148.898 23.8497 147.654 24.6177 145.935 24.9286C143.084 25.526 140.113 25.0522 137.59 23.5979C130.439 19.6183 122.154 21.5148 116.918 26.396C115.074 28.1091 114.611 31.2275 116.296 33.8081C118.003 36.5137 120.002 39.0242 122.256 41.2947C124.168 43.1601 124.992 44.9789 124.408 47.5781C124.139 48.8959 124.054 50.2446 124.156 51.5857C124.349 54.6948 121.833 57.4929 117.841 55.6866C113.451 53.6905 108.984 51.5608 105.163 48.6787C97.6541 43.0525 89.4338 38.4452 80.7159 34.9771C79.4878 34.4827 78.1323 34.262 76.8171 34.0444C71.7525 33.1458 66.6692 32.325 61.6076 31.4048C60.9477 31.2622 60.2616 31.3002 59.6214 31.5146C58.9813 31.7291 58.4108 32.1122 57.97 32.6235C56.1045 34.604 54.5656 36.7648 54.55 39.6593C54.5433 40.0766 54.5017 40.4926 54.4256 40.9029C53.8038 44.5157 51.5093 45.5821 48.164 43.8721C46.6095 43.0824 45.0891 41.9911 43.4506 41.7548C40.6525 41.3507 38.3487 40.2967 36.3931 38.3349C33.8789 35.8614 32.1377 32.7106 31.3812 29.2657C30.7594 26.4831 31.347 25.8147 34.1794 25.5131C34.8762 25.4149 35.5562 25.2214 36.2003 24.9379C37.3306 24.5113 38.428 24.0022 39.4835 23.4145C40.4117 22.8145 41.2893 22.1396 42.1075 21.3967C43.6248 20.1157 45.1637 18.813 46.112 17.044C46.5597 16.2045 47.0105 15.0853 46.8115 14.2458C46.5193 13.0022 45.1731 13.2665 44.1564 13.2882C43.1397 13.31 42.0889 13.5401 41.0878 13.4126C38.9643 13.1452 38.6005 12.6633 38.3269 10.4776C38.0875 8.50648 37.5496 8.05878 35.5039 8.20801C32.5254 8.42565 29.5438 8.62774 26.5777 8.94486C25.9559 9.01015 24.8926 9.58844 24.9144 9.87758C24.9641 10.5647 25.4056 11.6622 25.9031 11.7959C27.3587 12.2016 28.8722 12.3593 30.3801 12.2622C32.1803 12.1161 33.9307 11.6435 35.6811 12.0757ZM51.2668 15.8656L50.9559 15.7537C50.9559 15.3464 51.0896 14.8707 50.9279 14.5412C50.5915 13.9662 50.2078 13.4202 49.7807 12.9089C49.2895 13.3318 48.5806 13.6613 48.3505 14.1961C47.8738 15.4349 47.4801 16.7042 47.1722 17.9954C46.8613 19.0711 46.4633 20.153 46.4291 21.2412C46.4291 21.7293 47.1193 22.4227 47.6572 22.6652C47.937 22.7926 48.82 22.261 48.9972 21.8413C49.8429 19.8857 50.5269 17.8648 51.2668 15.8656Z" fill="black"/>
</g>
<defs>
<clipPath id="clip0_729_179">
<rect width="150" height="55.9445" fill="white" transform="translate(0.134766 0.320312)"/>
</clipPath>
</defs>
</svg>
