<svg width="151" height="303" viewBox="0 0 151 303" fill="none" xmlns="http://www.w3.org/2000/svg">
<g clip-path="url(#clip0_729_699)">
<path d="M37.6519 75.5808C36.531 77.5968 35.6441 78.8163 35.1309 80.1754C33.1929 85.1179 32.3185 90.4134 32.5646 95.7166C32.8767 102.142 32.7165 108.72 31.3698 115.175C30.4254 119.691 30.1708 124.356 29.5878 128.95C29.3825 130.564 29.2921 132.235 28.8528 133.779C25.9786 143.904 24.4142 154.264 22.9073 164.648C22.2463 169.197 20.9406 173.648 20.0578 178.173C19.7786 179.618 20.0578 181.17 19.8607 182.64C18.8547 189.793 17.7092 196.925 16.7401 204.086C16.2269 207.859 16.0585 211.678 15.5864 215.455C15.0772 219.508 14.3546 223.532 13.792 227.58C12.9216 234.072 12.1825 240.58 11.2833 247.067C9.8585 257.332 8.52406 267.597 6.80365 277.809C5.7443 284.099 4.09369 290.291 2.59501 296.499C2.09299 298.489 1.27063 300.383 0.160156 302.108C0.283336 300.49 0.287442 298.848 0.570755 297.255C1.14559 293.777 2.08587 290.345 2.46362 286.85C3.1411 280.383 3.99515 273.88 3.94998 267.404C3.88839 259.082 4.88615 250.865 5.41582 242.604C5.61702 239.492 5.68271 236.367 5.93318 233.255C6.12616 230.82 6.25344 228.328 6.87756 225.987C7.87942 222.21 7.26762 218.428 7.41133 214.651C7.46061 213.419 7.30047 212.138 7.62074 210.984C9.73943 203.376 8.73757 195.587 9.13996 187.875C9.30419 184.763 9.71069 181.663 10.0268 178.555C10.5976 172.995 11.1437 167.428 11.7719 161.872C12.5931 154.725 13.4499 147.581 14.3422 140.439C15.1142 134.255 16.2721 128.121 16.0339 121.827C15.9477 119.544 16.8839 117.228 16.8551 114.933C16.7484 108.408 16.7976 101.834 15.9682 95.384C15.4057 91.0193 15.5864 86.7368 15.6233 82.4173C15.6644 77.6502 15.8656 72.879 16.1858 68.1202C16.387 65.1475 17.0317 62.2035 17.3109 59.2307C17.6402 55.7458 18.2959 52.2994 19.2694 48.937C20.0003 46.3872 19.68 43.5294 19.8114 40.8072C20.1769 33.4698 21.7905 26.6374 28.4915 22.3795C31.6531 20.3717 34.9666 18.6143 39.0192 18.5814C41.4535 18.5662 43.8481 17.9633 45.9994 16.8241C49.6291 14.7957 53.6571 14.1634 57.4182 14.2989C61.0479 14.4303 64.1027 13.4366 67.3013 12.3937C74.0228 10.2011 80.7484 8.08243 87.9708 8.66137C90.3728 8.85435 92.7872 8.8831 95.1851 9.11714C100.88 9.67966 106.218 8.18097 111.527 6.43182C111.661 6.40581 111.791 6.36591 111.917 6.31275C117.021 2.97868 122.728 1.37735 128.678 0.453501C129.088 0.391911 129.458 0.104492 129.848 0.104492C135.251 0.104492 140.277 1.63603 144.929 4.24333C145.96 4.82227 146.838 6.3497 147.068 7.57329C148.136 13.2847 149.089 19.0249 149.815 24.7856C150.636 31.1786 150.086 37.5757 147.803 43.5828C145.52 49.5899 142.724 55.3095 139.973 61.0784C138.216 64.7738 136.208 68.3378 134.192 71.8936C132.02 75.7327 128.854 78.7137 125.422 81.4113C124.233 82.3098 123.204 83.4006 122.375 84.6386C120.174 88.1205 117.739 91.2903 114.574 94.0372C111.946 96.316 109.921 99.3257 107.778 102.13C105.442 105.177 102.264 106.474 98.6382 106.885C96.6041 107.124 94.5551 107.212 92.508 107.148C89.5266 107.022 86.5451 107.391 83.6842 108.24C80.9221 109.013 78.018 109.134 75.2012 108.593C69.6335 107.505 64.0329 106.076 59.8941 101.732C58.148 99.8373 56.5073 97.8484 54.9792 95.774C52.0311 91.9103 49.3212 87.8536 46.1965 84.1377C43.7863 81.2635 40.8998 78.7958 37.6519 75.5808ZM87.8641 22.2768V21.8375C87.1948 21.9442 86.5173 22.0346 85.848 22.1537C79.1471 23.3444 72.4133 24.3955 65.7533 25.7916C61.0027 26.7893 58.884 29.487 60.4443 34.4388C61.2942 37.1528 61.1834 39.7437 60.7481 42.4947C60.1076 46.6787 59.697 51.0188 61.208 55.0467C63.5484 61.2878 65.8765 67.5823 69.7197 73.1131C71.4935 75.6793 73.0045 78.9066 76.0101 79.8674C79.9683 81.1239 83.1874 83.842 87.5726 84.384C93.1813 85.0944 98.1044 84.655 102.436 80.8447C106.226 77.5147 109.917 74.0698 113.785 70.8425C121.78 64.1743 128.723 56.7014 132.927 47.0277C133.298 46.2974 133.733 45.6021 134.229 44.9501C140.24 36.0483 141.882 26.2473 140.302 15.7606C140.035 14.0156 139.148 13.026 137.345 13.0178C134.627 13.0178 131.88 12.7961 129.199 13.1205C126.518 13.4449 123.656 13.8513 121.332 15.0831C118.503 16.5818 116.072 18.8894 113.625 21.0286C112.122 22.3384 110.751 23.0529 108.587 22.9215C101.689 22.5191 94.7745 22.4739 87.8641 22.2768Z" fill="black"/>
</g>
<defs>
<clipPath id="clip0_729_699">
<rect width="150" height="302.004" fill="white" transform="translate(0.160156 0.104492)"/>
</clipPath>
</defs>
</svg>
