<svg width="151" height="60" viewBox="0 0 151 60" fill="none" xmlns="http://www.w3.org/2000/svg">
<g clip-path="url(#clip0_729_583)">
<path d="M1.57046 30.2646C-1.73476 18.4381 0.718333 11.6469 12.7256 11.9568C24.7328 12.2667 36.6109 14.539 48.3083 13.5578C66.8743 11.8277 85.1821 7.69616 103.671 5.08814C118.054 3.0482 132.565 1.73128 147.026 0.104492L150.228 4.90738L123.244 38.8375C100.288 30.3421 86.7056 48.8823 70.1537 59.4951C66.5644 50.6898 65.5832 40.361 60.2122 37.0041C53.1628 32.6144 42.7049 33.4407 33.6672 32.5627C22.8478 31.4008 11.9767 30.936 1.57046 30.2646Z" fill="black"/>
</g>
<defs>
<clipPath id="clip0_729_583">
<rect width="150" height="59.2615" fill="white" transform="translate(0.228516 0.104492)"/>
</clipPath>
</defs>
</svg>
