<svg width="151" height="110" viewBox="0 0 151 110" fill="none" xmlns="http://www.w3.org/2000/svg">
<g clip-path="url(#clip0_729_655)">
<path d="M0.226673 98.1443C-0.0237448 96.782 0.427007 95.7837 1.67909 95.1393C8.07976 91.8505 14.2567 87.9807 20.9412 85.4565C26.5272 83.333 32.4404 81.5166 38.6374 81.5867C39.7478 81.5478 40.8501 81.382 41.9228 81.0926C47.3719 79.8672 52.6975 80.0542 57.9896 82.0107C61.4027 83.3013 64.8931 84.3774 68.4404 85.2328C71.5956 85.9707 73.599 88.0341 75.6557 90.2178C76.9178 91.5533 78.3268 92.7353 79.8694 94.1476C80.811 93.3229 81.5622 92.8521 82.0564 92.191C83.7258 89.9707 85.412 87.767 86.831 85.3997C88.2834 82.9824 90.24 81.343 92.9379 80.7653C94.6073 80.4047 96.4537 80.1376 97.8227 81.767C98.0998 82.1009 98.6273 82.2278 98.8778 82.5683C102.34 87.2762 108.127 88.9523 112.263 92.7887C112.901 93.383 114.03 93.4565 114.985 93.7703C116.04 91.6668 115.726 89.7937 115.422 87.9807C114.637 83.3062 113.722 78.6318 112.911 73.9573C112.364 70.8221 112.674 67.55 111.198 64.5617C110.904 63.9673 111.232 63.0825 111.218 62.3346C111.172 58.9022 111.088 55.4765 111.055 52.0441C111.055 50.7653 110.48 49.9406 109.285 49.5333C108.09 49.1259 106.948 48.6451 105.886 49.7403C105.349 50.2946 104.854 50.8889 104.377 51.4098C103.041 51.54 101.676 51.4431 100.467 51.8371C96.6106 53.1026 92.4971 53.2328 88.6874 54.4648C85.7623 55.3919 82.6802 55.719 79.6257 55.4264C79.2918 55.3997 78.8844 55.6335 78.6507 55.5032C75.5756 53.7737 72.0998 53.7537 68.7743 53.4465C66.1232 53.1994 63.8394 51.3864 61.0948 51.9206C60.8911 51.9607 60.5539 51.9406 60.4571 51.8138C58.3268 48.9991 54.1131 49.9774 51.9729 47.1593C51.6056 46.6752 50.8978 46.4081 50.3035 46.1577C47.1482 44.8488 44.7743 42.8021 43.4187 39.56C42.831 38.151 41.6858 36.979 41.0447 35.58C40.4704 34.3246 40.24 32.9089 39.7859 31.3062C41.5422 31.1326 42.2901 32.1109 43.2584 32.7486C44.7008 33.7002 46.3001 34.4181 47.8494 35.1961C48.437 35.4932 49.3085 35.5099 49.6524 35.9573C51.5689 38.4415 54.6407 38.6552 57.1482 39.964C57.4387 40.1143 57.8594 40.388 58.0564 40.2979C60.6374 38.9623 62.5572 41.0158 64.7876 41.4264C67.8928 41.9941 71.1816 41.8839 74.3569 41.6234C77.0907 41.3453 79.7865 40.7721 82.397 39.9139C83.9262 39.4398 85.2384 38.2879 86.6808 37.5032C90.23 35.5633 93.8026 33.6635 97.3652 31.737C98.2434 31.2595 99.2851 30.9156 99.9228 30.2111C103.081 26.7286 107.295 24.9623 111.412 23.1193C113.749 22.0775 114.644 20.2478 115.375 18.1109C116.417 15.0859 117.435 12.0542 118.51 9.04247C119.682 5.76701 122.25 3.59005 124.744 1.39306C126.587 -0.229647 128.854 0.00407645 131.045 0.38805C132.898 0.72194 134.717 1.18271 136.564 1.58338C136.896 1.60882 137.224 1.6704 137.542 1.76701C140.29 3.10257 143.021 4.47152 145.769 5.80708C147.238 6.51827 147.739 7.78705 147.993 9.28621C148.29 11.0224 148.791 12.7253 149.031 14.4682C149.365 16.752 149.522 19.0558 149.716 21.3563C149.896 23.54 150.086 25.7236 150.147 27.9106C150.144 28.9054 150.01 29.8955 149.749 30.8555C149.225 33.0024 148.671 35.0759 148.898 37.3864C149.178 40.2378 146.838 41.8104 144.818 43.0358C142.527 44.4248 140.591 46.7086 137.472 46.5617C136.884 46.535 135.926 47.2628 135.699 47.8572C134.826 50.1103 134.101 52.4179 133.529 54.7653C132.988 57.0124 132.691 59.3196 132.354 61.6101C131.686 66.1042 130.958 70.5951 130.48 75.1126C130.213 77.6101 130.48 80.1577 130.377 82.6785C130.157 87.984 129.853 93.2829 129.569 98.585C129.469 100.451 129.569 102.368 129.165 104.174C128.183 108.628 124.157 110.809 119.816 109.47C113.629 107.563 108.544 103.987 104.123 99.3263C102.38 97.4865 100.45 95.8138 98.5773 94.0241C93.1582 96.4348 91.5656 101.29 90.023 106.231C87.6056 107.086 85.452 107.233 83.1716 105.49C82.0831 104.658 80.2534 104.548 78.7609 104.562C76.7843 104.562 75.6724 103.784 74.9245 102.047C74.1899 100.312 73.348 98.6235 72.4036 96.9924C71.0681 94.7486 69.3719 93.0325 66.6941 92.2044C64.7208 91.59 62.8978 90.378 61.1415 89.2294C55.1315 85.2929 48.5339 84.7887 41.649 85.5567C34.9011 86.3012 28.2934 87.56 21.8627 89.8371C19.5021 90.6752 16.9245 90.8989 14.447 91.4097C14.1153 91.4326 13.7916 91.5223 13.4955 91.6735C10.5506 93.8449 7.11809 95.2607 3.49879 95.7971C2.39028 95.974 1.43869 97.2428 0.226673 98.1443Z" fill="black"/>
</g>
<defs>
<clipPath id="clip0_729_655">
<rect width="150" height="109.756" fill="white" transform="translate(0.160156 0.104248)"/>
</clipPath>
</defs>
</svg>
