<svg width="151" height="186" viewBox="0 0 151 186" fill="none" xmlns="http://www.w3.org/2000/svg">
<g clip-path="url(#clip0_729_631)">
<path d="M114.007 0.485118C110.174 6.8683 105.859 13.0201 102.644 19.6877C99.2687 26.6928 96.8871 34.1849 94.1873 41.5033C91.3717 49.1352 88.8454 56.8731 85.8708 64.4375C84.7812 67.2 82.6744 69.5431 81.1943 72.1513C78.0606 77.7004 75.0377 83.3122 71.5858 89.599C73.548 91.4985 75.7705 93.6873 78.0364 95.8231C78.9428 96.6764 80.0131 97.3514 80.9002 98.2336C82.8817 100.162 84.4919 100.013 85.5044 97.3514C86.7531 94.073 87.5244 90.6018 88.6912 87.3089C90.6919 81.6538 92.4999 75.8925 95.0213 70.4687C97.4313 65.1615 100.169 60.009 103.217 55.0411C104.726 52.6305 105.584 49.8294 106.693 47.1826C108.815 42.1253 110.83 41.1851 115.993 42.8436C117.666 43.3884 119.368 43.8802 121.041 44.3767C124.131 45.2831 126.749 46.9753 127.55 50.1621C128.032 52.0906 131.17 53.1319 129.613 55.5473C128.596 57.1238 126.942 58.2761 125.698 59.7272C124.234 61.4229 122.858 63.193 121.576 65.0305C118.153 70.0107 114.296 74.7836 111.529 80.1351C107.966 87.01 102.629 93.0943 101.274 101.001C100.57 105.118 99.9244 109.158 97.5813 112.74C96.6171 114.187 97.0462 115.464 98.5118 116.419C99.5821 117.113 100.551 117.995 101.674 118.579C107.219 121.472 111.828 125.608 116.813 129.253C121.658 132.792 125.636 136.967 129.68 141.185C130.317 141.85 131.334 142.149 132.062 142.733C134.386 144.632 136.678 146.561 138.937 148.518C141.569 150.827 144.129 153.209 146.747 155.528C147.586 156.27 148.734 156.767 149.336 157.649C149.939 158.532 149.9 159.636 150.151 160.653C149.139 160.831 147.856 161.492 147.152 161.101C143.295 158.951 139.472 156.651 135.774 154.202C131.402 151.31 127.169 148.21 122.863 145.211C117.411 141.412 112.054 137.449 106.438 133.9C103.405 131.972 99.9196 130.776 96.8437 129.344C94.6496 131.071 93.1172 133.5 92.5047 136.224C91.8731 138.635 90.5521 140.838 89.4963 143.118C88.2235 145.866 86.9604 148.619 85.6008 151.314C83.465 155.581 81.6378 159.906 78.3161 163.623C74.3145 168.102 71.3254 173.463 67.6565 178.26C65.8482 180.628 63.7416 182.752 61.3891 184.58C58.8049 186.566 56.134 185.785 54.114 183.018C51.0505 178.705 46.979 175.206 42.254 172.826C36.1793 169.847 31.9319 164.838 27.0963 160.47C23.548 157.273 20.1876 153.898 16.837 150.49C13.978 147.597 13.8575 142.877 16.837 139.531C18.9438 137.184 20.636 134.903 20.8915 131.61C20.9783 130.516 22.3379 129.581 22.82 128.457C24.6183 124.408 26.1417 120.232 28.075 116.255C30.4856 111.256 33.2481 106.405 35.8612 101.493C36.1499 101.111 36.4017 100.702 36.6133 100.273C38.0596 95.635 40.7546 92.6267 45.8939 91.918C47.1667 91.7444 48.2225 89.9654 49.2061 89.0783C49.0904 88.3455 49.153 87.8971 48.9698 87.738C43.8305 83.264 40.1761 77.4787 37.0327 71.6933C33.5856 65.3149 28.4993 60.2576 24.8497 54.1202C23.4949 51.8495 21.1037 50.2248 19.4693 48.089C15.5883 43.0413 12.1846 37.6368 8.06731 32.8108C4.92875 29.1275 2.47479 25.314 0.869351 20.7146C-1.36283 14.317 1.85286 5.70159 8.00945 2.99693C9.44581 2.30086 10.9374 1.72517 12.469 1.27578C17.4058 0.0608579 25.5487 5.69194 26.1321 10.6577C26.1851 11.1398 25.9634 11.6219 26.0694 12.1041C26.6431 14.558 27.0963 17.0602 27.9497 19.4129C28.7268 21.342 29.6959 23.1882 30.8424 24.9235C35.7069 32.7819 40.6293 40.6018 45.5034 48.4892C46.223 49.5419 46.8184 50.6743 47.2776 51.864C49.4471 58.387 54.4274 63.0972 58.0191 68.6945C59.1376 70.4398 60.3332 72.1417 61.5675 73.8146C63.5682 76.5241 64.8072 76.7073 67.5794 74.8318C70.771 72.6864 72.5307 69.4225 74.2085 66.1538C78.3257 58.1266 82.4815 50.1139 86.3288 41.9613C88.5513 37.2559 89.8241 32.0925 92.2202 27.4979C94.4862 23.1589 97.4656 19.1188 100.484 15.2185C104.297 10.3251 108.424 5.69677 112.435 0.967231C112.768 0.643451 113.133 0.354308 113.525 0.104248L114.007 0.485118ZM75.3704 117.59C74.7725 115.58 74.7725 113.116 73.5383 111.873C69.0788 107.36 64.2239 103.238 59.4847 99.0098C57.9612 97.6503 56.1099 96.8548 54.1815 97.8913C48.9457 100.721 43.9607 104.303 40.7835 109.182C37.2545 114.592 34.9789 120.864 32.4623 126.9C31.0738 130.275 30.3602 133.886 29.2899 137.376C28.3546 140.433 27.2072 143.437 26.3973 146.537C25.8477 148.706 25.5198 151.126 27.5543 152.804C32.5876 156.97 37.5727 161.217 42.847 165.055C45.1129 166.699 48.0201 168.116 50.7151 168.275C52.4073 168.372 54.2393 165.932 56.0183 164.65C56.2738 164.466 56.6402 164.433 56.8909 164.245C60.7479 161.323 63.7514 157.842 65.1737 152.992C66.9623 146.903 69.4066 141.007 71.176 134.908C72.8585 129.262 73.9819 123.463 75.3704 117.59Z" fill="black"/>
</g>
<defs>
<clipPath id="clip0_729_631">
<rect width="150" height="185.594" fill="white" transform="translate(0.160156 0.104248)"/>
</clipPath>
</defs>
</svg>
