<svg width="151" height="182" viewBox="0 0 151 182" fill="none" xmlns="http://www.w3.org/2000/svg">
<g clip-path="url(#clip0_729_771)">
<path d="M14.3691 42.38C12.9182 41.9592 11.8526 41.0685 10.888 39.899C9.64481 38.3989 8.24856 36.9918 5.8987 37.101C6.01346 36.5546 6.11456 36.0873 6.26484 35.3906L2.61983 34.3851C2.92313 33.2484 3.22642 32.1035 3.54065 30.9286L0.925752 30.2291C0.707161 29.0296 0.548682 27.9749 0.354682 26.9448C0.171612 25.9748 -0.232781 25.0321 1.22358 24.5348C1.77006 24.3463 2.01871 23.5047 1.08423 22.8954C-0.385795 21.9445 -0.0661055 20.3406 1.73727 19.5345C1.48316 18.8869 1.22905 18.2312 0.958541 17.5399C2.06516 16.3048 1.77826 14.0151 4.13631 13.8102C4.08439 12.9549 4.04341 12.28 3.97783 11.2281L6.21566 12.5587C6.39326 12.5587 6.62552 12.6079 6.74301 12.5177C8.1338 11.4603 9.64208 11.3292 11.3444 11.5887C13.7734 11.9603 16.2627 12.2882 18.3311 13.5861C20.2055 14.7583 21.793 16.3813 23.5035 17.8104C23.6401 17.9251 23.8259 18.0836 23.8368 18.2312C24.0172 20.5701 25.4763 22.4199 26.2249 24.5348C27.4695 27.904 29.0438 31.1421 30.9247 34.202C31.1641 34.5868 31.348 35.0035 31.4711 35.4398C32.1952 38.2159 33.9603 40.3963 35.4085 42.7899C37.4578 46.1808 40.2831 49.0225 41.8843 52.7604C42.9308 55.2059 44.7888 57.1568 47.2944 58.6678C50.4722 60.5805 53.6445 62.4932 57.06 63.8949C59.6694 64.955 62.4947 65.5343 65.2708 66.1272C66.8447 66.466 68.5087 66.4005 70.4623 66.5344C70.9924 65.2228 71.6427 63.8593 72.1018 62.4358C72.5608 61.0122 72.8286 59.4575 73.1947 57.9683C73.9735 54.8479 75.7905 52.4079 78.3617 50.5909C80.4793 49.088 81.2635 46.7655 82.422 44.6479C82.5054 44.4401 82.5438 44.2171 82.5349 43.9934C82.5259 43.7697 82.4698 43.5505 82.3701 43.35C81.0039 40.828 79.2415 38.4672 78.2934 35.8086C77.1676 32.6582 74.7413 29.9722 74.7986 26.3983C73.1401 25.1687 73.3532 23.0429 72.4433 21.4445C71.5334 19.846 70.8039 18.182 69.6044 16.6792C68.4048 15.1764 68.0633 13.0833 67.331 11.2499C67.1705 10.7398 66.9456 10.2522 66.6616 9.79901C64.3418 6.66223 65.9566 4.47632 68.1152 2.509C68.6371 2.03903 69.3803 1.81224 70.0279 1.46522L72.0799 2.64015C72.5089 6.14308 72.9188 9.49572 73.3505 13.0232L74.7522 13.8156C75.0801 15.5971 75.4162 17.3267 75.714 19.0591C76.0774 21.1849 76.5638 23.3052 76.7195 25.4474C76.9326 28.3465 78.4245 30.1335 81.3209 31.2975C82.3674 29.4968 83.739 27.8574 84.168 25.5321C85.1653 20.1356 84.1134 14.9906 82.8155 9.80175C82.3728 8.03935 81.5586 6.34254 81.9411 4.33697C82.2663 2.60736 80.9711 1.40511 78.6923 0.306691C79.2825 0.241114 79.8809 0.0771702 80.4602 0.137283C81.0394 0.197395 81.7854 0.323085 82.2335 0.683761C84.6708 2.68114 87.7802 3.17024 90.5645 4.26866C96.0867 6.45457 101.464 8.67873 105.735 12.9631C105.86 13.0915 105.992 13.2637 106.15 13.3047C110.995 14.5206 113.301 18.9443 116.847 21.7969C118.746 23.297 120.386 25.0949 122.154 26.7699C125.266 24.0211 128.501 21.2723 131.602 18.3787C133.602 16.5125 135.635 14.7911 138.16 13.6326C139.196 13.1571 140.024 12.209 140.892 11.4248C143.078 9.47659 146.404 8.90279 148.713 10.116C150.524 11.0668 150.658 12.1598 148.964 13.3511C148.172 13.8976 147.171 14.2009 146.232 14.5069C143.737 15.3266 141.193 15.9715 138.734 16.8704C137.135 17.4756 135.6 18.2352 134.149 19.1383C130.597 21.3242 127.124 23.6112 124.137 26.5486C123.82 26.897 123.521 27.2618 123.241 27.6415C125.52 31.1636 128.594 33.5954 132.258 35.3496C134.373 36.3633 136.51 37.3333 138.625 38.3416C141.273 39.571 143.413 41.6824 144.677 44.3146C145.09 45.1117 145.3 45.9988 145.286 46.8967C145.196 48.4159 144.685 49.9023 144.587 51.4297C144.439 53.6894 143.477 55.307 141.581 56.5529C138.726 58.4301 136.179 60.7472 132.821 61.8538C130.43 62.6407 128.231 62.7281 126.009 61.4466C125.397 61.0942 124.643 61.0149 123.987 60.7144C123.441 60.4575 122.779 60.1679 122.471 59.7061C120.689 57.0147 118.919 54.3069 117.306 51.5089C116.549 50.0993 115.939 48.615 115.487 47.0797C114.582 44.3064 112.801 42.2598 110.18 40.4236C107.175 42.0467 104.022 43.7708 100.844 45.4676C99.8219 46.0141 99.7508 46.9158 100.024 47.8093C100.494 49.2684 101.169 50.6592 101.664 52.1073C101.941 53.0424 102.172 53.9908 102.355 54.949C102.926 57.4082 103.431 59.9028 104.076 62.3511C105.035 65.9906 106.09 69.6028 107.218 73.6413C108.188 73.573 109.503 73.42 110.82 73.4009C114.957 73.338 118.97 71.5975 123.14 72.3434C125.279 72.7204 127.368 73.3429 129.364 74.1987C133.02 75.789 136.644 77.3738 140.524 78.4339C143.529 79.2536 144.499 80.8931 144.843 83.4014C145.333 86.9781 145.048 90.3143 143.699 93.7572C142.193 97.5962 141.513 101.755 140.179 105.673C139.458 107.788 139.491 109.938 139.086 112.059C137.81 118.953 139.543 125.447 141.745 131.896C141.944 132.478 142.089 133.079 142.444 134.322C141.704 133.666 141.351 133.478 141.182 133.186C139.45 130.358 137.417 127.661 137.108 124.185C137.094 124.007 137.108 123.778 137.021 123.658C135.062 121.199 135.28 118.146 135.07 115.354C134.674 110.58 135.105 105.773 136.343 101.146C137.436 97.1125 138.135 93.0085 137.346 88.7951C136.586 84.7485 133.837 82.538 129.695 82.0461C126.569 81.6745 123.391 81.0406 120.457 79.9395C117.151 78.699 114.238 79.4504 111.232 80.5597C110.216 80.9368 109.235 81.404 107.88 81.9833C107.88 83.8222 107.861 85.7868 107.88 87.7541C107.88 88.3006 108.279 88.9372 108.09 89.3471C107.12 91.4619 108.705 92.4538 109.762 93.7954C111.724 96.2792 113.451 98.946 115.407 101.43C118.454 105.302 121.033 109.438 122.621 114.108C123.577 116.92 124.279 119.824 124.987 122.712C125.457 124.639 125.807 126.6 126.08 128.565C126.674 132.689 127.216 136.82 127.706 140.956C127.788 141.642 127.504 142.369 127.408 143.08C126.67 148.648 125.913 154.211 125.222 159.785C124.531 165.359 124.84 170.988 125.577 176.546C125.807 178.27 126.67 179.912 127.039 181.658C125.495 179.163 124.509 176.494 123.76 173.663C122.984 170.709 122.023 167.813 121.722 164.753C121.282 160.274 120.615 155.788 121.047 151.288C121.681 144.659 121.003 138.172 119.498 131.726C119.356 131.114 119.05 130.543 118.875 129.937C118.23 127.677 117.383 125.442 117.044 123.133C116.784 121.256 116.151 119.45 115.181 117.821C113.034 114.137 110.482 110.704 107.571 107.589C107.339 107.343 106.97 107.231 106.478 106.952C106.109 107.498 105.765 107.998 105.459 108.507C104.478 110.146 103.737 111.977 102.491 113.368C98.4366 117.895 96.5676 123.404 94.9937 129.081C94.8449 129.501 94.7584 129.94 94.7369 130.385C94.8243 132.912 94.868 135.448 95.1085 137.964C95.2424 139.38 95.6796 140.773 96.073 142.151C96.4118 143.347 96.8928 144.506 96.9228 145.951C96.5649 145.55 96.073 145.205 95.8763 144.738C94.6221 141.732 92.6521 139.06 92.3078 135.675C92.1193 133.811 91.5646 131.972 91.0564 130.155C90.4935 128.142 90.8897 126.248 91.4007 124.303C91.8597 122.567 91.9034 120.704 92.4936 119.021C93.1521 117.058 94.0447 115.182 95.1522 113.433C97.3818 110.007 98.4857 106.266 98.9202 102.269C98.9666 101.82 98.9393 101.337 99.1005 100.932C100.338 97.8339 98.9803 95.5769 96.6195 93.8282C92.0865 90.481 87.3868 87.3962 81.9056 85.7349C79.7361 85.0791 77.6403 84.2239 75.2932 84.3168C73.6128 84.3851 72.3504 83.4479 71.4378 82.1035C70.282 80.3903 68.689 79.893 66.7217 80.1471C61.6897 80.8068 56.5802 80.5578 51.6362 79.4121C46.584 78.2481 41.8733 76.6989 37.9168 73.267C35.2664 72.9691 35.0642 70.3242 33.6789 68.8186C32.2116 67.2284 30.6542 65.7256 29.8754 63.5752C29.4874 62.5095 28.5092 61.6789 27.8917 60.6734C26.326 58.0803 25.0773 55.2469 23.2166 52.8943C21.64 50.9269 20.353 48.741 18.9677 46.6808C17.6507 44.7326 15.8473 43.738 14.2817 42.309C14.6779 42.2024 15.0768 42.1013 15.5085 41.992C14.4702 39.7487 14.4702 39.7487 13.1341 39.3307L14.3691 42.38ZM10.0519 13.026C9.93991 13.5014 9.70492 13.9003 9.80055 14.1954C10.5438 16.4988 11.0274 18.988 12.2296 21.0428C13.4096 22.9549 14.0594 25.1466 14.1123 27.3929C14.1314 28.3164 14.0877 29.4586 15.5003 29.7209C15.8419 29.7837 16.0468 30.3985 16.3883 30.6772C18.3803 32.3358 17.2327 35.0108 18.3447 37.0655L15.3801 35.2485C15.5167 35.9152 15.4757 36.4343 15.6725 36.5464C17.5523 37.6393 18.4376 39.2105 18.6125 41.3718C18.6781 42.1751 19.4322 42.7817 20.4487 42.5358C21.5635 42.2625 22.6783 42.003 23.9434 41.6997C23.9434 39.8717 24.1019 38.0574 23.9133 36.2813C23.4789 32.1827 22.2739 28.2864 20.8148 24.4583C20.2028 22.8489 19.5142 21.3707 18.0824 20.1739C17.1534 19.3952 16.6069 17.9224 16.3556 16.6682C16.2244 16.0125 17.0988 15.1545 17.5769 14.2801C16.32 13.8675 15.0631 13.3101 13.7516 13.0697C12.6231 12.8648 11.4345 13.026 10.0519 13.026ZM82.4603 68.1711C88.6983 71.4882 93.3406 72.9992 95.8681 72.4527C95.3353 70.3734 95.0484 68.1902 94.2068 66.2365C93.2997 64.1135 91.8734 62.2144 90.7148 60.1952C89.7257 58.4765 89.0043 58.2142 87.5644 59.4383C84.9058 61.7062 82.81 64.3621 82.4712 68.1711H82.4603ZM64.2052 76.2835C62.4455 74.8681 60.7897 75.0977 59.2295 75.0348C55.7293 74.8955 52.557 73.3462 49.1579 72.7724C48.886 72.7332 48.6315 72.6155 48.4256 72.4336C47.0594 71.0674 45.2724 70.5209 43.5702 69.7504C41.9471 69.0154 40.5153 67.8568 39.018 66.8568C36.7802 65.3622 34.556 63.8511 32.3264 62.3265C38.3267 71.633 50.0459 79.5733 64.2052 76.2835ZM91.9881 21.2204C91.8843 26.3436 93.1767 30.5706 96.2424 34.314C98.3081 34.1391 98.9748 32.527 99.5732 30.9341C100.106 29.5351 100.42 28.1279 98.6142 27.2672C98.3792 27.1552 98.2808 26.6633 98.2043 26.3272C97.9311 25.1769 97.2261 24.4938 96.1769 23.9856C95.3872 23.603 94.7287 22.9582 93.991 22.4582C93.4335 22.0784 92.8461 21.745 91.9881 21.2204ZM97.6687 84.6119C98.1715 82.1718 97.9283 80.9422 96.6222 80.2974C94.6112 79.3028 92.4226 78.964 89.6547 78.8902C92.3379 81.3275 94.9309 82.9533 97.6687 84.5982V84.6119ZM9.04095 25.9228C8.99996 27.6852 8.99996 27.6852 10.2978 28.7345C10.0847 27.7426 10.746 26.4119 9.04095 25.9228ZM10.3689 22.7205C10.0109 21.6275 9.70492 20.7149 9.32785 19.5673C8.74858 21.7669 8.74858 21.7669 10.3689 22.7205ZM15.6779 32.027C15.5003 32.4833 15.2325 32.8467 15.3227 32.9943C15.4148 33.1313 15.536 33.2462 15.6777 33.3307C15.8195 33.4153 15.9782 33.4674 16.1424 33.4834C16.32 33.4834 16.6561 32.956 16.6015 32.7456C16.5468 32.5352 16.126 32.3467 15.6779 32.027ZM8.97264 35.366C8.84149 35.5381 8.65022 35.6939 8.68027 35.7704C8.78245 35.986 8.90995 36.1887 9.06008 36.3742C9.19123 36.2158 9.45354 36.0218 9.42622 35.9043C9.3743 35.7021 9.13932 35.5491 8.97264 35.366ZM9.60655 17.2202L8.86334 16.5262C8.74312 16.7338 8.5218 16.9442 8.53273 17.1437C8.54365 17.3431 8.78137 17.5399 8.91799 17.7366L9.60655 17.2202ZM1.63071 27.994L2.2291 27.8656C2.09521 27.453 1.95586 27.0459 1.82471 26.6278L1.3684 26.759L1.63071 27.994Z" fill="black"/>
</g>
<defs>
<clipPath id="clip0_729_771">
<rect width="150" height="181.554" fill="white" transform="translate(0.160156 0.104492)"/>
</clipPath>
</defs>
</svg>
