<svg width="151" height="156" viewBox="0 0 151 156" fill="none" xmlns="http://www.w3.org/2000/svg">
<g clip-path="url(#clip0_729_623)">
<path d="M125.902 24.3493C129.937 19.8329 135.562 19.1153 139.004 14.775C141.23 11.9646 147.036 12.8112 149.318 15.6861C150.345 16.9752 150.543 18.3589 149.369 19.5536C148.103 20.8927 146.674 22.0678 145.115 23.0516C143.491 23.9338 141.776 24.6397 140.001 25.1572C133.556 27.3058 130.199 32.5786 127.505 38.1435C126.495 40.232 127.075 43.21 127.294 45.7454C127.561 48.5944 127.668 50.9278 125.889 53.7511C124.463 56.0072 124.849 59.879 125.46 62.8098C125.954 65.1174 128.038 67.0812 129.379 69.1353C131.467 68.2759 133.122 67.4852 134.862 66.9867C135.973 66.7135 137.126 66.661 138.257 66.832C140.68 67.1285 142.309 68.5509 142.597 70.3557C142.924 72.4313 141.738 74.3565 139.219 75.1687C134.871 76.561 130.505 77.9748 126.048 78.9288C120.819 80.0503 117.78 83.0541 116.68 88.1765C116.203 90.4067 115.52 92.6413 115.43 94.8888C115.361 96.5131 115.937 98.2363 116.547 99.7919C117.265 101.627 118.395 103.299 119.22 105.095C120.771 108.472 118.902 111.184 115.245 110.522C113.292 110.13 111.474 109.242 109.964 107.944C107.385 105.739 105.28 103.041 102.826 100.703C102.462 100.413 102.038 100.208 101.584 100.102C101.131 99.9964 100.659 99.9933 100.205 100.093C94.0079 102.095 87.7124 103.96 82.8866 108.735C82.401 109.216 81.6705 109.439 80.536 110.075C80.9657 111.747 81.2794 113.513 81.8682 115.193C82.4569 116.874 83.2906 118.305 84.0168 119.852C84.2574 120.372 84.352 121.029 84.7301 121.399C87.764 124.342 90.6647 127.471 93.9607 130.088C98.3052 133.525 103.054 136.469 107.48 139.817C110.604 142.184 110.209 145.373 106.646 147.272C101.558 149.984 96.625 152.949 91.2362 155.141C87.8628 156.511 85.0224 155.231 82.1217 154.552C79.7888 153.97 77.3542 153.924 75.0012 154.419C71.8126 155.085 69.7714 154.242 69.3718 152.244C68.783 149.279 70.1882 146.821 73.0459 145.863C75.9036 144.905 78.4347 144.746 80.8841 147.152C83.3335 149.558 86.5393 148.467 89.4786 148.261C89.7545 148.192 90.0192 148.085 90.265 147.943L98.0344 144.874L97.2953 142.012C96.8465 141.97 96.3948 141.97 95.946 142.012C92.4394 142.786 91.3694 142.352 89.4056 139.627C86.333 135.369 83.1316 131.201 80.1149 126.903C79.4402 125.936 79.1437 124.617 78.9589 123.418C78.6925 121.665 78.0995 120.84 76.127 121.295C75.6635 121.389 75.1861 121.389 74.7226 121.295C74.2592 121.201 73.8192 121.016 73.4284 120.75C70.2699 118.068 66.4496 117.888 62.6251 117.351C57.8639 116.625 53.0145 116.708 48.2808 117.595C43.8847 118.455 40.3395 121.085 36.9619 123.955C35.2605 125.424 33.3842 126.677 31.3754 127.685C26.6484 129.984 21.6765 131.772 17.1085 134.312C14.0489 136.031 11.4104 138.536 8.77186 140.904C5.94856 143.418 3.35731 146.211 0.160156 148.441C0.267588 148.08 0.258993 147.582 0.495342 147.371C6.31812 141.785 10.8517 134.849 18.2774 130.934C20.0085 129.978 21.3519 128.447 22.0762 126.607C22.8153 124.458 24.2549 122.739 25.8921 122.335C29.3944 121.45 31.1734 118.575 33.6272 116.599C38.7839 112.434 44.4692 110.604 50.9365 110.509C52.8918 110.479 54.847 110.114 56.8023 109.916C58.4378 109.674 60.1032 109.72 61.7226 110.054C64.1936 110.638 66.9739 109.908 69.2944 109.762C73.0717 103.745 77.3646 99.3579 83.282 95.933C90.063 92.0053 97.6563 88.95 102.929 82.7275C104.373 81.0086 105.77 79.0663 106.461 76.9864C107.836 72.9405 108.861 68.7842 109.525 64.563C109.934 61.8042 109.435 58.8735 109.096 56.0545C108.604 52.7886 109.208 49.4519 110.814 46.5661C111.44 45.4769 111.709 44.2192 111.584 42.9693C110.866 38.6205 109.701 34.349 109.061 29.9959C108.511 26.2573 106.986 22.9613 104.201 20.731C102.237 19.1582 99.3795 18.6254 96.8484 17.8605C94.0165 17.001 91.0428 16.5713 88.2539 15.6345C84.6399 14.4098 82.5858 11.6123 82.805 8.81904C83.0843 5.26091 86.1998 1.94343 89.5345 0.804659C94.5064 -0.862676 99.0658 0.916388 103.715 2.01219C105.907 2.53216 107.983 3.52482 110.161 4.1866C113.835 5.31248 116.607 7.59003 118.953 10.5594C119.813 11.6509 121.072 12.4373 122.159 13.3441C124.334 15.1575 125.958 17.1643 125.464 20.3056C125.258 21.3069 125.64 22.4156 125.902 24.3493Z" fill="black"/>
</g>
<defs>
<clipPath id="clip0_729_623">
<rect width="150" height="155.634" fill="white" transform="translate(0.160156 0.104248)"/>
</clipPath>
</defs>
</svg>
