<svg width="151" height="200" viewBox="0 0 151 200" fill="none" xmlns="http://www.w3.org/2000/svg">
<g clip-path="url(#clip0_729_603)">
<path d="M0.228516 26.6867C17.2844 17.8805 28.6768 11.6605 40.3638 6.09528C57.387 -1.95797 73.4607 -3.95491 86.9483 13.3629C89.9601 17.2258 96.1146 21.4488 100.403 21.0233C122.239 18.9608 129.866 33.7579 139.458 49.0787C150.621 67.0185 151.669 85.8421 148.985 105.353C148.199 111.148 144.27 119.07 139.458 121.231C119.325 130.822 120.078 147.42 121.289 165.393C122.206 179.404 123.941 195.379 105.215 199.308C92.7427 201.894 72.9697 179.142 76.3743 162.119C80.0408 143.819 74.4756 130.626 64.5891 117.466C60.8626 112.372 56.4568 107.812 51.4943 103.913C42.0007 96.7435 32.5725 91.2437 32.8344 76.0865C32.8344 69.5392 23.0133 62.9918 18.0701 55.7243C12.2102 47.2454 7.16872 38.2101 0.228516 26.6867Z" fill="black"/>
</g>
<defs>
<clipPath id="clip0_729_603">
<rect width="150" height="199.498" fill="white" transform="translate(0.228516 0.104492)"/>
</clipPath>
</defs>
</svg>
