<svg width="151" height="44" viewBox="0 0 151 44" fill="none" xmlns="http://www.w3.org/2000/svg">
<g clip-path="url(#clip0_729_735)">
<path d="M0.160156 2.79459C1.05174 2.79459 1.99959 2.98552 2.81787 2.74004C3.63616 2.49455 4.2959 1.71718 5.10396 1.34725C6.29729 0.806843 7.40879 1.31316 8.49813 1.83311C10.9649 3.0111 13.5238 3.95212 16.2923 3.83279C18.1675 3.75267 19.8808 4.09191 21.4901 4.98521C23.546 6.12739 25.7793 6.64734 28.0739 7.01387C29.0132 7.16389 29.9338 7.44688 30.856 7.69577C32.6034 8.15435 34.3508 8.60782 36.0879 9.10049C39.1872 9.98185 42.2592 10.9655 45.3789 11.7701C48.6094 12.6021 51.8672 13.3573 55.1437 13.9863C57.0343 14.346 58.9522 14.0903 60.8325 13.5636C62.6208 13.0624 64.4585 12.735 66.2502 12.2424C67.7709 11.8247 69.2506 11.2638 70.7559 10.7933C71.7191 10.4916 72.7266 10.3143 73.654 9.94094C74.7963 9.46089 75.9137 8.92378 77.0021 8.33165C77.5954 8.02309 78.1392 7.62076 78.7444 7.23549C78.6643 6.89454 78.6183 6.61836 78.5347 6.35583C77.8341 4.10896 78.8075 2.03086 80.9538 1.12734C84.6787 -0.434222 88.303 -0.166575 91.8915 1.60467C94.4077 2.84744 96.9853 3.96746 99.493 5.22728C100.541 5.75405 101.481 6.49903 102.47 7.14513C102.8 7.36505 103.128 7.60542 103.469 7.79465C104.885 8.60952 106.292 9.43974 107.73 10.212C108.614 10.7183 109.541 11.1445 110.501 11.4855C111.827 11.9133 112.95 12.8936 114.48 12.8186C114.971 12.7947 115.514 13.2396 115.988 13.5414C118.518 15.1507 121.051 16.7566 123.547 18.4187C124.81 19.2609 125.954 20.2837 127.228 21.1054C129.635 22.6567 132.056 24.1961 134.744 25.2429C136.331 25.86 137.821 26.6067 139.088 27.8C140.182 28.8365 141.543 29.6036 142.572 30.6981C144.318 32.5443 145.902 34.5457 147.543 36.4943C148.27 37.3569 149.026 38.199 149.664 39.1298C150.421 40.2311 150.312 40.6914 149.398 41.6256C147.693 43.3661 145.525 43.7139 143.304 43.3764C140.946 43.0184 138.733 42.2086 137.052 40.2942C135.869 38.9457 134.134 38.4377 132.512 37.8001C130.678 37.089 128.736 36.6986 126.769 36.646C122.603 36.4943 118.624 35.5225 114.759 33.9081C111.691 32.6227 108.484 31.6408 105.347 30.4986C104.348 30.1372 103.405 29.5746 102.383 29.3428C99.0822 28.5978 95.7579 27.9671 92.4438 27.2834C91.704 27.1317 91.2761 27.5085 90.9096 28.0727C90.3555 28.9251 89.839 29.8014 89.1912 30.5702C88.2092 31.7363 87.4864 31.9562 86.2317 31.3152C84.977 30.6742 83.6643 30.577 82.2801 30.6486C78.7546 30.831 75.3877 31.8113 71.9799 32.5852C70.8731 32.8311 69.7818 33.1425 68.7119 33.5177C67.655 33.8945 66.6423 34.3957 65.6092 34.8423C64.8847 35.156 64.1653 35.4867 63.4306 35.7766C59.6409 37.2733 55.7097 38.274 51.7223 39.077C48.2343 39.7776 44.772 40.6402 41.2585 41.1721C38.6689 41.5642 36.1101 42.6092 33.27 41.854C33.2495 41.5267 33.2257 41.121 33.2035 40.7647C33.4302 40.6641 33.5325 40.5806 33.6297 40.584C34.7037 40.6317 35.7777 40.7545 36.85 40.7323C37.8027 40.7117 38.7517 40.6045 39.685 40.4118C41.8375 39.9674 43.9815 39.4804 46.117 38.9508C47.7621 38.5451 49.3868 38.0575 51.0199 37.6058C52.2525 37.2648 53.5242 37.0193 54.709 36.5556C56.112 36.0033 57.4366 35.2685 58.8004 34.602C61.2246 33.4086 63.6113 32.1318 66.0798 31.0424C68.238 30.0895 70.4848 29.3377 72.6959 28.5126C73.8893 28.0642 75.0979 27.6329 76.564 27.0959C76.0628 26.7055 75.8497 26.4618 75.5804 26.3441C73.5188 25.4349 71.4497 24.5411 69.3733 23.6625C67.7129 22.9653 66.0286 22.3226 64.3665 21.6271C62.2304 20.7321 60.0858 19.8558 57.9839 18.8875C55.9774 17.9635 53.8379 17.8544 51.7035 17.6499C50.8597 17.568 50.026 17.372 49.1822 17.2953C48.2957 17.2151 47.3939 17.2782 46.5125 17.1657C44.9476 16.9662 43.3996 16.5776 41.8313 16.4531C38.5462 16.1923 35.597 14.9359 32.6563 13.6079C32.459 13.4962 32.2438 13.4195 32.0204 13.3811C28.9518 13.151 26.3384 11.6951 23.7012 10.2955C23.4508 10.1685 23.1803 10.086 22.9016 10.0517C20.757 9.76364 18.7505 9.05446 16.8156 8.11685C16.6128 8.01968 16.3775 7.9924 16.1695 7.90375C14.8296 7.33266 13.4112 7.03262 12.1361 6.18876C11.1576 5.54096 9.7068 5.65688 8.5936 5.15227C5.88474 3.91803 2.9713 3.62822 0.160156 2.79459ZM90.8908 12.6532C90.2617 12.4827 89.7299 12.3242 89.186 12.2066C88.3626 12.0259 87.4932 11.6304 86.7124 11.7548C84.1093 12.1725 81.5249 12.7316 78.9558 13.3334C77.101 13.7681 75.2872 14.3852 73.4409 14.8677C71.8657 15.2751 70.2615 15.5666 68.6897 15.9843C68.3113 16.0849 68.0078 16.477 67.6669 16.7344C67.9413 17.0498 68.1561 17.5305 68.4971 17.6516C69.8609 18.134 71.2639 18.521 72.6584 18.9148C74.0529 19.3086 75.49 19.699 76.9203 20.0433C77.8494 20.2684 78.7955 20.4269 79.74 20.5837C80.9657 20.7883 82.2698 20.7679 83.4086 21.1958C84.9775 21.8112 86.6306 22.1853 88.3115 22.3056C89.6037 22.3874 90.8925 22.5647 92.1711 22.7692C93.2093 22.9397 94.2168 23.296 95.2618 23.4154C97.328 23.6523 99.4044 23.7904 101.479 23.9558C104.747 24.2132 107.933 24.8968 111.067 25.831C112.63 26.2964 114.212 26.7635 115.692 27.4369C118.249 28.5978 120.929 29.082 123.682 29.3275C123.731 29.3275 123.796 29.157 123.89 29.0223C123.251 28.4376 122.637 27.7949 121.936 27.2647C121.401 26.8607 120.743 26.6186 120.163 26.2742C119.338 25.7867 118.539 25.2514 117.713 24.7689C117.182 24.4535 116.65 24.0035 116.075 23.9165C114.64 23.7137 113.428 22.984 112.107 22.5238C108.349 21.2318 104.818 19.3588 101.641 16.9731C100.671 16.2237 99.6209 15.585 98.5094 15.0689C96.8677 14.3256 95.1646 13.705 93.4803 13.0675C93.3627 13.0231 93.1752 13.1544 93.0252 13.2021C93.0746 13.5976 93.1189 13.9539 93.1718 14.3733L90.5533 14.5199C90.6828 13.8039 90.7817 13.2635 90.8908 12.6532Z" fill="black"/>
</g>
<defs>
<clipPath id="clip0_729_735">
<rect width="150" height="43.381" fill="white" transform="translate(0.160156 0.104492)"/>
</clipPath>
</defs>
</svg>
