<svg width="151" height="455" viewBox="0 0 151 455" fill="none" xmlns="http://www.w3.org/2000/svg">
<g clip-path="url(#clip0_729_711)">
<path d="M55.3085 65.5774C54.0268 69.2099 52.9223 72.1631 51.9536 75.1163C50.731 78.8846 47.7542 80.6861 44.2753 80.2903C40.2766 79.8355 36.337 78.4239 32.5392 76.9709C31.5823 76.6047 31.2752 74.5197 30.6727 73.2262L31.7595 72.2812C32.9408 73.2971 34.1575 74.3307 35.3861 75.3171C40.3061 79.2685 43.9268 78.4475 46.5315 72.8541C47.4352 70.9168 48.522 69.0622 49.3902 67.1131C50.8078 63.9413 49.7328 61.7973 46.2362 61.0708C44.6827 60.7512 43.0913 60.6577 41.5111 60.7932C37.1344 61.1476 33.8327 59.3579 31.5587 55.7845C28.0148 50.1734 24.5655 44.4796 21.2047 38.7444C18.7831 34.5745 16.1074 30.4577 14.3355 25.9806C13.042 22.6612 13.1129 18.8161 12.5636 15.0478C16.0484 14.15 17.0643 15.9751 18.1038 17.8947C23.4196 27.723 28.7768 37.51 34.0512 47.356C36.78 52.4297 41.8772 54.3433 46.4961 56.8063C48.6224 57.9463 50.4652 56.511 50.796 54.2252C51.5461 49.1929 52.3198 44.1252 52.4084 39.087C52.497 34.0488 51.4988 28.9102 51.4516 23.8129C51.3925 17.9833 51.3689 12.0709 52.2135 6.32397C53.129 0.0454276 59.2245 -1.93323 63.7665 2.50251C66.7197 5.36123 70.2223 6.74924 73.6834 8.51526C76.9556 10.1809 80.1037 12.1123 83.8543 14.2327C83.8543 16.3531 83.435 18.9106 83.9252 21.285C86.6126 34.3619 82.673 46.7654 80.1805 59.3107C79.33 63.5928 79.141 63.9177 83.1337 65.3825C85.3656 66.1008 87.6452 66.6614 89.9557 67.0599C95.6554 68.2766 97.7345 71.1472 97.4746 77.408C94.2733 75.6833 90.9775 74.0354 87.8176 72.1513C85.9393 71.029 83.9311 70.3793 82.5018 72.039C81.793 72.8364 82.5018 74.8269 82.4191 76.2681C82.2478 78.7488 82.4958 81.4421 81.5981 83.6511C78.6448 90.9515 77.5699 98.181 79.1705 106.096C80.2337 111.323 80.7416 116.887 78.2846 122.202C77.4572 124.21 77.0666 126.37 77.1387 128.54C77.1682 137.146 77.434 145.751 77.5758 154.357C77.6315 155.543 77.5543 156.732 77.3454 157.901C76.0165 164.28 77.1033 170.671 77.1682 177.05C77.1682 177.947 77.7589 178.822 78.0955 179.66C83.37 179.235 84.7285 177.369 84.2501 172.076C83.8661 167.818 83.7008 163.536 83.559 159.259C83.1928 147.937 97.3565 142.845 105.147 147.488C109.5 150.081 114.048 152.508 115.85 157.866C116.389 159.113 117.303 160.162 118.466 160.866C121.845 163.04 123.091 166.412 124.526 169.926C128.59 179.867 127.397 190.398 128.483 200.675C129.434 209.618 132.328 217.745 139.564 223.711C141.218 225.081 142.883 226.445 144.626 227.691C151.938 232.925 152.026 243.095 144.785 248.323C142.127 250.242 139.227 251.914 136.888 254.17C133.628 257.318 129.83 258.104 125.572 258.133C119.86 258.181 115.058 261.022 110.108 263.384C106.24 265.233 102.395 267.17 98.3901 268.7C95.6141 269.745 94.2969 271.883 93.5822 274.264C91.1606 282.297 88.5972 290.099 88.7685 298.905C88.9929 310.553 87.1206 322.242 86.3055 333.919C85.4904 345.596 84.9057 357.261 84.1674 368.926C83.7067 376.162 83.5767 383.45 82.5254 390.609C81.037 400.839 82.6494 410.933 82.9506 421.08C82.992 422.539 82.9506 423.998 82.9506 425.457L81.7694 425.628C81.2945 424.678 80.8993 423.69 80.5881 422.675C77.3809 409.013 72.3191 395.747 71.7698 381.513C71.504 374.26 71.5571 366.983 70.9724 359.754C70.1514 349.642 71.7993 339.382 68.8992 329.389C68.231 326.731 68.0153 323.979 68.2613 321.249C69.0351 308.805 65.3081 296.773 65.0955 284.399C64.9892 279.024 62.9455 273.691 61.8824 268.322C61.2917 265.197 59.1122 263.821 56.4012 262.793C49.4434 260.153 42.527 257.43 35.5987 254.731C29.1016 252.203 25.6523 254.808 26.5087 261.63C26.993 265.516 27.4714 269.403 28.0975 273.266C28.3397 274.795 28.6882 276.461 29.4855 277.725C33.62 284.104 34.949 291.505 37.2939 298.545C43.2889 316.566 44.2162 335.366 46.4547 354.007C47.5061 362.784 47.3702 371.578 48.4039 380.302C50.1108 394.667 51.8355 409.043 54.0563 423.331C54.9541 429.089 57.2931 434.606 58.7815 440.288C59.7679 444.068 60.4235 447.966 61.1441 451.794C61.2208 452.195 60.7011 452.709 59.9628 454.091C59.4194 452.13 59.1595 450.955 58.7815 449.827C56.1059 442.089 53.2531 434.405 50.7546 426.609C49.219 421.824 48.1617 416.887 46.9627 411.996C46.3721 409.521 45.9999 406.987 45.3857 404.519C43.2594 395.972 41.3634 387.455 40.8082 378.56C40.4361 372.588 38.1385 366.747 36.78 360.84C35.7286 356.275 34.3584 351.727 33.8917 347.096C32.3797 332.212 25.8708 318.916 21.057 305.072C18.4169 297.494 12.6345 291.398 11.0693 283.301C10.7916 281.842 9.33276 280.69 8.42907 279.432C7.75574 278.505 6.61579 277.695 6.40907 276.685C4.64895 268.257 -0.353808 260.644 0.425842 251.548C0.786135 247.336 -0.0643925 243.025 0.219117 238.802C0.626661 232.818 6.54492 227.502 12.6049 225.648C20.679 223.167 27.9617 224.467 35.2384 228.199C37.0812 229.15 39.2843 229.487 41.3693 229.889C44.4525 230.479 47.5592 230.958 50.6778 231.353C55.4916 231.944 60.3053 232.629 65.1427 232.972C68.1845 233.184 73.7898 228.637 73.4649 225.92C73.1211 223.62 71.9414 221.527 70.1514 220.043C67.3399 217.934 66.6075 215.725 66.2354 212.24C65.3967 204.928 61.6343 198.561 57.2281 192.654C53.6842 187.959 51.6701 182.868 52.1545 176.813C52.7983 168.834 52.8573 160.907 54.7887 152.951C56.9682 143.938 57.6534 134.517 58.4212 125.227C58.8406 120.165 59.4017 115.481 61.5516 110.667C63.2881 106.775 62.4376 101.808 63.4299 97.484C65.3081 89.2977 64.0205 80.7038 67.2986 72.6769C69.0174 68.4302 66.5248 65.7723 61.8528 65.5892C59.5789 65.5183 57.3049 65.5774 55.3085 65.5774ZM63.672 16.7134C61.7288 18.7393 59.697 20.777 59.4607 23.9547C59.0827 28.9811 58.7342 33.9957 58.2794 39.022C57.9191 43.1152 57.3758 47.1965 57.0332 51.2897C56.7969 54.1721 56.7615 57.0721 56.6315 59.9072C58.1968 60.6278 59.2363 61.1417 60.3054 61.5846C65.9401 63.9472 67.0328 63.4688 68.7279 57.6746C71.4862 48.2243 72.4254 38.5318 72.5376 28.733C72.6262 21.7339 70.8897 19.4894 63.672 16.7134Z" fill="black"/>
</g>
<defs>
<clipPath id="clip0_729_711">
<rect width="150" height="453.957" fill="white" transform="translate(0.160156 0.104492)"/>
</clipPath>
</defs>
</svg>
