<svg width="151" height="50" viewBox="0 0 151 50" fill="none" xmlns="http://www.w3.org/2000/svg">
<g clip-path="url(#clip0_729_707)">
<path d="M87.6191 41.1422C87.3826 40.9981 87.0838 40.9035 86.9226 40.6993C85.3725 38.7644 83.8482 36.8079 82.225 34.744C81.7305 35.0343 81.3177 35.2536 80.935 35.5094C80.4277 35.8469 79.931 36.1995 79.4494 36.5693C79.1227 36.8187 78.6841 37.0487 78.5465 37.3906C77.4027 40.2392 75.3624 42.445 73.3394 44.6423C71.9763 46.1236 70.4305 47.4372 68.9299 48.7938C68.4776 49.1553 67.9513 49.4129 67.3884 49.5484C69.519 46.2482 71.4431 42.8944 72.4901 38.816C71.8925 38.8977 71.4345 38.8267 71.2002 39.031C70.4778 39.6093 69.8801 40.3403 69.1621 40.9229C66.9197 42.7503 64.2431 42.7568 61.6201 42.3741C59.8697 42.131 58.2156 41.4261 56.828 40.3317C51.9928 36.5865 48.3186 31.9599 45.2678 26.7635C44.6535 25.7469 43.9375 24.7953 43.1308 23.9235C43.6468 26.4561 44.6723 28.7715 45.801 31.0526C46.4288 32.3211 46.9469 33.6325 47.536 34.9225C47.8284 35.5674 48.0799 36.2468 48.497 36.7993C49.6515 38.3301 50.9114 39.7813 52.0659 41.3142C52.4959 41.8925 52.7625 42.6041 53.1968 43.4319C51.3199 43.7758 50.0815 43.0728 49.357 41.9506C46.8975 38.1409 43.9478 34.5935 42.8427 30.0185C42.5503 28.8081 41.8344 27.6987 41.3055 26.5464C41.1872 26.3711 41.0837 26.1863 40.996 25.9938C39.749 21.3651 36.6252 17.8241 33.8195 14.1843C30.9042 10.4112 26.4775 9.4115 22.2873 12.3461C21.8703 12.6385 21.3263 13.2556 21.3822 13.6361C21.7757 16.3579 19.7612 17.6392 18.1294 19.0109C15.9346 20.797 14.1015 22.9862 12.7288 25.4607C11.3012 28.0513 9.36846 30.3646 7.53028 32.9854C6.71976 31.2547 8.17526 30.6033 8.57729 29.5864C8.72134 29.2166 9.10187 28.9048 9.43726 28.6533C10.6025 27.7933 10.8906 26.7571 9.95324 25.3811C11.2432 24.0224 12.5202 22.7045 13.7715 21.3672C14.4315 20.6642 14.0983 20.0902 13.3222 19.3871C12.2085 20.8147 11.0691 22.1541 10.0672 23.5924C9.26312 24.7469 8.73209 26.0949 7.89577 27.2236C5.47281 30.4979 3.71202 34.17 1.53415 37.5862C1.26111 38.0162 0.78813 38.3086 0.158203 38.8998C1.29336 36.2103 2.30812 33.8948 3.24119 31.5471C3.58303 30.6871 3.59163 29.6917 4.01301 28.8941C6.03179 25.0565 7.48298 20.9265 10.1102 17.392C11.3399 15.7452 12.1483 13.7995 13.2749 12.0731C15.5022 8.66548 18.3358 5.90928 22.2078 4.40433C24.3921 3.54436 26.7377 3.66906 28.8833 4.13989C30.9042 4.58493 33.0025 5.15036 34.8128 6.43171C36.1715 7.39487 37.4292 8.38814 38.3795 9.76194C38.7154 10.225 39.0925 10.6567 39.5061 11.0519C42.7406 14.2585 45.5003 17.9109 47.7016 21.8982C48.8797 24.0482 50.533 25.8025 52.4314 27.3461C52.9286 27.7422 53.3723 28.2011 53.7514 28.7113C55.0414 30.5044 56.8043 31.689 58.7823 32.5361C59.4842 32.8429 60.2751 32.8782 61.0016 32.6351C61.7282 32.392 62.3385 31.8878 62.7145 31.2203C64.0035 29.0902 65.145 26.8742 66.1307 24.5878C67.0337 22.4121 68.0656 20.389 69.7296 18.6992C71.8538 16.5342 75.012 16.0053 77.8993 17.1534C79.4698 17.8007 80.9316 18.6853 82.2336 19.7763C83.1645 20.5309 84.3169 21.0103 85.265 21.7477C86.5549 22.7453 87.7653 23.8353 88.9456 24.9554C89.8787 25.8412 90.7107 26.8302 91.5922 27.7718C93.5271 29.8465 95.7738 31.5643 98.1108 33.1466C98.5945 33.4756 99.3771 33.74 99.8909 33.5895C102.544 32.8155 105.326 32.2716 107.401 30.1991C107.499 30.1002 107.68 30.0421 107.725 29.9282C108.622 27.6192 109.778 25.2693 109.514 22.7905C109.228 20.1289 108.362 17.5253 107.678 14.9131C107.409 13.9497 107.049 13.0139 106.603 12.1183C105.47 9.75334 105.059 7.21213 105.597 4.70962C105.906 3.26917 106.962 1.96632 107.794 0.67422C108.009 0.336682 108.654 0.11739 109.097 0.100191C111.227 -0.00947412 113.353 0.382283 115.304 1.24395C118.591 2.7102 121.033 5.13961 123.549 7.56687C124.755 8.72997 125.877 10.0285 127.56 10.6907C128.433 11.0347 129.018 12.0452 129.846 12.5762C134.459 15.5244 139.092 18.439 143.743 21.3199C145.785 22.5927 147.843 23.7966 149.249 25.8691C150.375 27.531 150.526 29.423 149.322 31.0462C148.376 32.3361 147.258 33.3659 145.549 33.6132C144.652 33.7422 143.812 34.2452 142.915 34.4108C139.658 35.0128 136.895 33.9013 134.395 31.8631C133.473 31.1128 132.426 30.513 131.344 29.7842L129.852 31.7406H124.998C124.654 32.5296 124.314 33.2176 124.05 33.9357C123.282 36.006 121.876 37.4959 120.167 38.8805C115.701 42.5074 110.389 43.5436 104.939 44.309C104.343 44.3929 103.761 44.7111 103.219 45.012C101.069 46.2139 98.8912 47.4952 96.3543 47.5017C93.9442 47.5017 91.7986 46.4761 89.8787 45.0658C89.5519 44.825 89.5132 44.1929 89.3412 43.7393L89.2875 43.7801C91.1622 44.9755 94.7891 45.0529 96.2683 43.8253C96.0167 43.5866 95.8103 43.2169 95.5373 43.1588C92.4629 42.4945 90.1367 40.738 88.2276 38.3172C87.8341 37.8184 87.3268 37.4572 86.4388 37.6873C86.8344 38.9278 87.1978 40.0522 87.5589 41.2002L87.6191 41.1422Z" fill="black"/>
</g>
<defs>
<clipPath id="clip0_729_707">
<rect width="150" height="49.4439" fill="white" transform="translate(0.160156 0.104492)"/>
</clipPath>
</defs>
</svg>
