<svg width="151" height="58" viewBox="0 0 151 58" fill="none" xmlns="http://www.w3.org/2000/svg">
<g clip-path="url(#clip0_729_395)">
<path d="M0.160156 20.2742L1.3276 17.1598C9.10096 16.3372 16.7737 15.8595 24.4573 17.0125C27.0364 17.4005 28.7068 18.2985 29.594 21.0249C31.1063 25.6696 33.064 30.1382 33.5454 35.0989C33.7034 36.7297 34.8601 38.2636 35.733 40.2284C40.762 37.1536 45.5251 34.6606 49.7926 31.5068C53.1117 29.0569 55.9746 25.921 58.7729 22.8426C61.449 19.897 60.375 16.3767 59.5703 12.9894C59.247 11.6208 58.6184 10.2989 58.464 8.91947C58.27 7.19166 59.7176 6.21101 60.8671 7.28865C62.8895 9.19248 64.7107 8.316 66.7977 7.68019C74.043 5.47103 81.4176 4.08806 89.0186 5.39919C92.0683 5.92364 94.5253 7.55447 95.9873 10.3815C98.4479 15.1662 100.445 20.0802 100.948 25.5402C101.124 27.4477 102.295 29.3299 103.283 31.0721C104.454 33.1376 105.733 33.5327 107.726 32.412C111.351 30.3681 114.835 28.0763 118.442 25.9928C122.048 23.9094 125.45 21.4416 128.27 18.356C131.61 14.6956 134.815 10.8987 137.9 7.01924C139.125 5.47822 139.696 3.42711 140.878 1.83939C142.699 -0.596068 145.799 -0.466751 147.322 2.19861C149.546 6.07451 150.936 10.1013 149.657 14.8106C146.313 27.1531 139.524 36.7513 128.334 43.1884C125.755 44.6683 123.578 46.8344 121.017 48.3395C116.707 50.854 112.235 53.117 107.838 55.4986C107.111 55.8967 106.408 56.3368 105.733 56.8169C103.577 58.3471 102.676 58.2537 100.934 56.1883C98.2827 53.0416 97.2841 49.2483 97.0183 45.2754C96.6878 40.3937 96.6087 35.512 95.4952 30.6914C93.9613 24.0244 90.0675 20.3317 83.3718 18.9235C78.4829 17.8926 73.7018 17.6663 68.8919 19.0421C66.5498 19.7138 66.1439 20.3029 66.223 22.4726C66.2768 24.0172 66.3846 25.5654 66.3882 27.11C66.3882 29.0929 67.3832 31.3307 65.756 32.9688C63.7552 34.9839 61.4454 36.701 59.2614 38.515C58.9597 38.7161 58.613 38.8396 58.252 38.8742C52.2855 39.9016 47.138 43.0483 41.642 45.2898C39.4149 46.195 37.2991 47.2403 36.1281 50.4876C35.0828 48.3969 34.1022 47.0535 33.7142 45.5556C32.3636 40.2608 31.1889 34.948 29.9748 29.6353C29.4095 27.4391 28.9658 25.2134 28.6457 22.9683C28.4482 21.2764 27.5681 20.5292 26.1312 19.8719C21.4327 17.7058 16.4289 17.6124 11.4035 17.6699C8.42205 17.7022 5.45495 17.8495 2.85425 19.6851C2.31543 20.0622 1.47847 20.0048 0.160156 20.2742Z" fill="black"/>
</g>
<defs>
<clipPath id="clip0_729_395">
<rect width="150" height="57.7434" fill="white" transform="translate(0.160156 0.104492)"/>
</clipPath>
</defs>
</svg>
