<svg width="151" height="167" viewBox="0 0 151 167" fill="none" xmlns="http://www.w3.org/2000/svg">
<g clip-path="url(#clip0_729_687)">
<path d="M130.67 120.238C129.975 115.079 129.901 110.852 128.921 106.621C127.963 102.49 127.863 98.1629 127.349 93.9248C127.164 92.3752 126.924 90.8256 126.628 89.2909C125.518 83.5254 123.843 77.8819 123.61 71.9092C123.451 67.9225 122.612 63.9396 121.831 60.0046C121.014 56.0439 120.765 51.9868 121.092 47.9558C121.495 43.2147 121.772 38.3774 119.96 33.7694C119.746 33.3848 119.507 33.0142 119.246 32.66C113.359 32.819 107.149 33.2258 100.955 33.0964C93.4251 32.9336 85.9473 32.2162 78.5953 30.208C72.826 28.6289 66.8386 27.8745 61.0028 26.532C56.0028 25.3893 51.0879 23.8841 46.11 22.6156C39.235 20.8626 32.545 18.3663 25.4 17.7339C21.7313 17.4122 18.1404 16.3767 14.4828 16.0475C9.99318 15.637 5.46286 15.6001 0.817887 15.3967C-0.128858 13.9174 -0.247201 12.6341 1.77203 12.0387C4.81197 11.1474 7.86301 9.84562 10.9547 9.69029C18.7617 9.32047 26.576 8.46988 34.4052 9.01722C40.1337 9.41662 45.8697 9.92698 51.5723 10.4484C60.8179 11.2879 70.0634 12.2458 79.309 13.0372C83.9207 13.407 88.5842 13.9026 93.181 13.6289C99.1648 13.2591 105.104 12.1755 111.066 11.4433C112.489 11.2694 113.126 10.4521 113.68 9.22432C114.456 7.59363 115.344 6.01818 116.336 4.50908C118.703 0.699907 122.774 0.79976 126.447 0.27831C130.134 -0.239228 133.891 0.431792 137.171 2.19399C140.992 4.2576 144.028 7.14961 145.944 11.5468C148.455 17.3197 148.362 23.1592 148.488 29.1171C148.521 30.6814 148.747 32.2421 148.891 33.8064C149.328 38.6474 149.975 43.4773 150.134 48.3256C150.234 51.3508 149.694 54.4129 149.265 57.4344C148.736 61.1844 147.785 64.89 147.441 68.6511C146.761 76.0734 146.04 83.518 145.962 90.9588C145.87 98.6696 145.925 106.362 145.418 114.076C145.097 118.94 145.833 123.88 146.206 128.781C146.395 131.255 145.492 133.958 147.782 136.077C148.129 136.403 147.881 137.764 147.508 138.414C145.862 141.262 138.721 143.011 135.785 141.399C134.183 140.522 132.615 139.572 130.977 138.81C122.759 134.997 114.66 130.866 106.239 127.56C98.414 124.491 90.4111 121.865 81.6611 122.298C76.452 122.558 71.3147 123.623 66.4318 125.456C61.1137 127.401 55.951 129.483 51.1248 132.357C46.2284 135.275 41.1803 138.037 37.4636 142.56C37.2969 142.741 37.0957 142.887 36.8719 142.989C32.8038 145.031 30.8512 148.977 28.5176 152.538C27.7373 153.725 27.2787 154.975 26.0287 155.977C25.0487 156.758 24.7972 158.566 24.4569 160.001C23.9059 162.305 23.5509 164.657 22.8408 166.998C21.4281 162.897 20.4 158.692 21.0916 154.394C22.1321 147.961 25.05 141.978 29.4791 137.198C32.6929 133.655 35.7661 129.997 38.9947 126.451C39.9673 125.374 41.1766 124.513 42.2676 123.544C43.8985 122.098 45.4444 120.537 47.1714 119.213C49.1644 117.608 51.2843 116.167 53.5102 114.905C57.2713 112.897 60.8475 110.545 65.008 109.239C68.0738 108.278 71.0324 107.445 74.3053 107.39C80.9251 107.246 87.4007 107.157 93.9244 109.132C100.356 111.077 107.075 112.05 113.155 115.153C113.691 115.426 114.342 115.46 114.93 115.644C118.543 116.776 122.146 117.941 125.77 119.043C127.097 119.435 128.488 119.705 130.67 120.238Z" fill="black"/>
</g>
<defs>
<clipPath id="clip0_729_687">
<rect width="150" height="166.89" fill="white" transform="translate(0.160156 0.104492)"/>
</clipPath>
</defs>
</svg>
