<svg width="151" height="193" viewBox="0 0 151 193" fill="none" xmlns="http://www.w3.org/2000/svg">
<g clip-path="url(#clip0_729_635)">
<path d="M0.160156 192.818C1.83734 190.044 3.04306 187.949 4.36472 185.928C4.75117 185.321 5.41586 184.653 6.07282 184.483C9.10644 183.71 11.1855 181.523 13.2917 179.521C17.6585 175.366 22.0563 171.197 25.9672 166.629C28.4211 163.765 30.6046 160.542 31.6364 156.682C32.3706 154 34.0594 151.592 34.9251 148.929C38.0446 139.425 39.9735 129.57 40.6677 119.59C41.0541 114.052 41.7729 108.41 44.366 103.263C44.8607 102.277 44.7293 100.994 45.0346 99.893C47.1987 92.0983 49.3396 84.3191 53.3084 77.1505C55.0397 74.0318 56.2918 70.6079 57.4357 67.211C59.2559 61.8007 63.5339 59.0647 68.3026 57.0397C69.462 56.5373 71.4174 57.6889 72.94 58.23C74.2926 58.7092 75.4828 60.6916 77.0055 59.2309C78.3658 57.9285 79.2314 56.1393 78.8797 54.0138C78.3967 51.1 78.1571 48.1437 77.5929 45.2492C76.9861 42.1228 78.0218 39.4756 80.298 37.6864C87.1459 32.2761 92.4866 25.0881 100.374 20.9261C101.483 20.3426 102.349 19.2953 103.326 18.4683C104.01 17.8925 104.606 17.0848 105.394 16.7834C112.064 14.2019 117.656 10.0244 123.136 5.52225C128.766 0.911921 135.715 -0.201051 142.717 0.169939C148.39 0.471369 152.034 7.89891 149.144 12.66C145.797 18.1784 141.882 23.3143 136.499 26.9856C133.126 29.3043 129.381 31.051 125.798 33.0413C121.891 35.2131 117.498 36.8169 114.162 39.6457C107.446 45.3187 99.9257 50.4044 97.1587 59.5825C96.3202 62.3611 94.5193 64.8382 93.2943 67.5202C92.2586 69.8157 92.7416 71.0446 94.8864 72.2851C95.3228 72.561 95.8021 72.7622 96.3047 72.8802C102.666 74.0396 108.118 77.591 114.124 79.701C116.632 80.586 118.939 82.0622 121.292 83.3607C124.199 84.9645 125.829 85.0147 128.279 82.9318C129.98 81.5651 131.492 79.9783 132.774 78.2132C135.811 73.7265 140.074 71.945 145.264 72.003C146.129 72.0292 146.949 72.3942 147.548 73.0193C148.535 74.1994 149.318 75.5355 149.866 76.9727C150.508 78.7852 149.14 79.9097 147.753 80.5937C143.335 82.7694 139.687 85.7915 136.437 89.4821C132.047 94.5059 127.445 99.3172 122.726 104.009C119.461 107.251 115.789 110.084 112.408 113.218C111.407 114.145 110.715 115.44 110 116.638C107.682 120.525 105.568 121.7 102.271 120.823C101.785 120.696 101.093 120.599 100.896 120.255C99.6436 118.075 97.352 118.064 95.3695 117.279C92.9967 116.344 90.7978 114.961 88.5757 113.67C86.1991 112.306 83.7606 111.332 80.9511 111.278C78.3503 111.228 76.5185 109.983 75.0384 107.668C72.1091 103.081 71.8309 98.0303 71.7691 92.8944C71.6715 89.8227 71.7503 86.748 72.0048 83.6853C72.1826 81.9463 72.9864 80.2537 73.6395 78.5881C74.5167 76.3505 74.3621 75.4617 72.6463 74.3371C70.1499 72.7218 68.7432 72.7179 67.2128 74.4994C63.7928 78.4837 60.7205 82.6496 58.7612 87.6387C56.4734 93.4741 53.5055 99.0505 51.3182 104.921C49.2159 110.559 47.589 116.39 46.02 122.207C44.2539 128.753 43.1526 135.493 41.0812 141.915C39.2881 147.496 36.5984 152.79 34.2024 158.166C33.3268 160.026 32.3261 161.824 31.2074 163.549C25.4803 172.847 17.2528 179.513 8.56541 185.754C5.77912 187.756 3.29039 190.167 0.160156 192.818ZM118.297 95.557L118.023 94.3629C116.033 94.104 114.035 93.9108 112.064 93.5668C110.592 93.3118 108.884 93.2422 107.751 92.4307C104.065 89.7912 100.432 87.1402 96.2351 85.3045C93.9396 84.3036 91.8605 82.8197 89.623 81.6719C88.3477 81.0227 87.3739 81.5792 86.9372 82.9202C85.3218 87.8938 85.7778 94.846 90.5273 98.5018C92.046 99.6611 93.2672 101.292 94.898 102.235C98.2022 104.14 101.676 106.014 105.607 103.75C108.59 102.038 111.558 100.272 114.468 98.4554C115.82 97.5897 117.026 96.5116 118.297 95.557Z" fill="black"/>
</g>
<defs>
<clipPath id="clip0_729_635">
<rect width="150" height="192.714" fill="white" transform="translate(0.160156 0.104248)"/>
</clipPath>
</defs>
</svg>
