<svg width="151" height="273" viewBox="0 0 151 273" fill="none" xmlns="http://www.w3.org/2000/svg">
<g clip-path="url(#clip0_729_599)">
<path d="M110.212 272.456C104.152 266.048 98.5452 259.082 91.9281 253.301C74.2359 237.838 57.1011 221.33 37.6676 208.548C30.1449 203.638 16.7714 207.747 8.51735 207.747C5.90532 185.563 3.29329 163.517 0.228516 137.362L28.5081 125.904C56.3697 143.317 37.5979 178.144 58.8772 199.041L86.2513 190.125C91.6146 169.438 94.9929 148.82 102.341 129.7C112.232 103.963 106.486 79.9322 100.008 55.3095C95.5501 38.3139 91.6146 21.2138 86.5647 0.317627C103.734 6.93476 115.959 12.0892 128.357 16.4077C150.368 24 155.069 34.1695 145.213 55.7623C139.467 68.2652 132.362 80.1412 127.208 92.8879C117.677 116.401 114.32 141.962 117.456 167.139C121.252 200.991 118.397 235.609 118.397 269.879L110.212 272.456Z" fill="black"/>
</g>
<defs>
<clipPath id="clip0_729_599">
<rect width="150" height="272.138" fill="white" transform="translate(0.228516 0.317627)"/>
</clipPath>
</defs>
</svg>
