<svg width="151" height="108" viewBox="0 0 151 108" fill="none" xmlns="http://www.w3.org/2000/svg">
<g clip-path="url(#clip0_729_435)">
<path d="M17.6397 44.6984C16.5654 41.516 14.4168 40.1805 11.4772 39.2865C6.95192 37.9031 2.73569 35.7913 0.767378 30.9386C-0.376817 28.1425 0.00948659 26.9836 2.66947 25.7622C4.00319 25.1595 5.29283 24.4636 6.52883 23.6798C11.8782 20.2288 17.7316 18.3893 24.0744 18.4996C30.5496 18.6063 37.0211 18.989 43.4926 19.2575C44.795 19.3127 46.6161 19.9602 46.9804 18.301C47.2857 16.9139 46.9804 14.4526 46.1158 13.9449C44.0592 12.7566 43.0916 10.906 41.7598 9.2357C41.3918 8.78317 40.6891 8.60657 39.4309 7.90755C42.5691 7.42559 44.0629 8.47781 45.2402 10.2217C49.0517 9.34607 49.8795 10.023 50.1113 14.3202C53.4225 15.5821 55.1038 12.7566 57.7932 11.4137C57.2634 10.4277 57.0316 9.32032 56.3584 8.86411C53.1097 6.65666 49.6771 4.81712 45.5639 4.86862C45.1986 4.82782 44.8288 4.87578 44.486 5.00843C42.4036 6.26668 40.5604 5.67434 38.684 4.48232C38.1175 4.11441 37.3044 4.15856 36.6017 4.00772C37.3375 0.527302 38.1763 -0.18644 41.3624 0.203543C48.4446 1.07181 55.251 2.97389 61.5643 6.28875C63.7717 7.45134 65.6113 9.36079 67.6237 10.917C70.0298 12.7566 72.2042 15.1737 74.9083 16.3437C80.449 18.7388 85.1104 22.451 90.1544 25.5745C91.7401 26.5605 92.888 28.2786 94.161 29.7282C94.551 30.166 94.6687 30.8319 94.9483 31.3801C95.445 32.3477 95.9674 33.3043 96.4788 34.2682C99.8599 34.4779 103.171 34.4742 106.412 34.9341C110.239 35.4786 113.988 36.575 117.817 37.1416C124.41 38.1349 131.018 39.1577 137.655 39.7169C143.174 40.1731 148.92 44.6138 149.837 50.0184C150.33 52.5407 150.253 55.1415 149.612 57.6304C148.751 60.7503 146.713 62.4684 143.726 62.8768C141.073 63.2447 138.398 63.0534 135.922 61.6112C133.586 60.2499 131.077 59.2749 128.281 59.3081C127.675 59.3477 127.069 59.2391 126.515 58.9916C122.946 57.0454 118.918 57.4979 115.128 56.7327C113.837 56.4715 112.575 56.0705 111.28 55.8607C109.985 55.651 108.594 55.3567 107.288 55.4928C102.575 55.9748 98.1749 54.757 93.7195 53.4914C90.8424 52.671 87.8329 52.2994 84.8713 51.8027C82.3842 51.3907 79.8824 51.0338 77.377 50.7542C74.0658 50.3863 73.4404 50.8719 72.0386 53.8667C69.7576 58.7194 67.4802 63.5868 64.9821 68.3292C61.59 74.7602 56.7815 80.1354 51.7374 85.2971C49.8648 87.2176 47.9112 89.0571 45.9466 90.8856C44.7104 92.0409 43.3234 93.0453 42.1203 94.2299C40.8584 95.4735 39.5449 96.7354 38.5884 98.1997C36.9806 100.65 35.6451 103.28 34.1735 105.808C33.6815 106.749 32.8624 107.478 31.8704 107.857C32.3634 106.787 32.7423 105.65 33.3714 104.66C35.3508 101.562 35.3103 98.6228 33.239 95.536C29.7181 90.286 29.9278 84.8667 32.6614 79.2928C33.479 77.5175 34.0877 75.6532 34.4752 73.7374C34.7346 72.6731 34.6745 71.5559 34.3022 70.5256C31.8888 64.9371 29.4679 59.3375 26.7822 53.8851C25.5534 51.387 23.7653 49.1501 22.1024 46.8948C21.0281 45.4305 19.8876 43.8485 17.6397 44.6984ZM34.3758 67.6559C35.3361 64.7126 36.0792 62.1741 36.9733 59.7054C38.0549 56.7253 39.0593 53.6901 40.4794 50.8756C42.2123 47.432 43.9635 43.9479 46.8663 41.2327C47.8955 40.2138 48.8324 39.1057 49.6661 37.9215C50.6852 36.5603 50.7919 35.0666 49.2614 34.0953C47.0098 32.6715 44.7251 31.1263 42.2344 30.2911C37.3191 28.6245 31.9771 28.4663 27.1869 26.2625C26.8889 26.1264 26.4695 26.2404 26.1052 26.2625C23.7985 26.3471 21.4622 26.2625 19.1922 26.5789C16.4403 26.9615 13.5706 27.3515 11.0688 28.4589C7.20578 30.166 7.15059 33.216 10.5354 35.703C12.4189 37.0225 14.2166 38.4602 15.9179 40.0076C17.7059 41.6963 19.4719 43.2599 21.8044 44.2532C22.9339 44.7315 23.9824 45.8647 24.6189 46.961C27.6689 52.2332 30.9101 57.4244 32.86 63.2594C33.3052 64.5986 33.7688 65.9341 34.3758 67.6559ZM56.2811 41.0083L55.1774 40.5337C54.0736 41.4056 52.7308 42.0973 51.9324 43.19C49.4785 46.5527 45.6302 49.0765 45.4057 53.8593C45.3726 54.5179 44.6442 55.1139 44.3977 55.7945C43.7391 57.6341 42.926 59.4405 42.6096 61.3389C41.7929 66.4896 41.2079 71.6992 40.5567 76.8867C40.5567 77.0376 40.8142 77.2252 41.2079 77.7072C42.4661 76.3716 43.7832 75.1318 44.9127 73.7485C48.0583 69.856 50.4056 65.4521 52.9184 61.1439C55.549 56.6481 56.2002 51.7144 56.6711 46.7293C56.8366 44.8456 56.4136 42.914 56.2627 41.0083H56.2811Z" fill="black"/>
</g>
<defs>
<clipPath id="clip0_729_435">
<rect width="150" height="107.76" fill="white" transform="translate(0.160156 0.104248)"/>
</clipPath>
</defs>
</svg>
