<svg width="151" height="71" viewBox="0 0 151 71" fill="none" xmlns="http://www.w3.org/2000/svg">
<g clip-path="url(#clip0_729_359)">
<path d="M0.160156 40.679C1.02001 39.6368 1.67141 38.9437 2.24465 38.1776C4.26139 35.4157 6.49701 32.7736 8.20108 29.8397C11.5884 23.9666 9.54037 18.4114 6.45532 13.195C4.4959 9.8546 4.32914 7.77532 6.63771 4.7945C7.28729 3.97539 7.98327 3.19416 8.7222 2.45466C11.9323 -0.833627 13.4644 -0.625178 16.5755 2.97578C18.5714 5.29999 20.6038 7.81701 23.1417 9.41165C28.4728 12.7468 28.8219 17.3014 27.2585 22.6846C24.6529 20.2979 22.0473 17.9424 19.1603 15.2847C18.3682 16.6761 17.4719 17.5151 17.4719 18.3541C17.4719 22.7732 15.0278 26.171 13.0475 29.7719C12.346 30.9573 11.7547 32.2046 11.2809 33.4979C10.5357 35.7544 11.036 37.422 13.5009 38.5059C17.0028 40.038 26.3987 42.0131 31.0002 41.7265V35.473C35.1692 35.2333 38.9265 35.2177 42.6212 34.7382C46.316 34.2588 50.3755 35.5407 53.6274 31.8929C56.358 35.5929 60.0789 33.1749 63.7319 33.7116C64.0081 32.2681 64.2531 31.0591 64.5814 29.2925L68.2709 33.5501C73.2581 33.0967 78.5631 32.5078 83.9046 32.1535C91.2837 31.6844 98.6836 31.5281 106.063 31.0382C116.589 30.3347 127.106 29.725 137.33 26.541C141.301 25.3007 145.668 25.3163 150.186 24.717C148.962 32.3515 143.125 34.165 137.768 36.1817C135.407 37.0781 132.64 37.1614 130.066 37.1458C126.829 37.1458 124.636 38.4799 123.645 41.3825C122.76 43.9569 121.884 46.6876 121.858 49.3557C121.827 52.7326 122.655 56.1303 123.15 59.7782C120.143 58.6942 118.981 54.4784 115.068 55.2757C111.847 55.9271 108.575 56.3179 104.921 56.8755C102.212 53.7175 99.4341 50.4918 96.6721 47.2556C92.8783 42.8208 84.6342 42.0444 79.7096 46.0779C79.8555 42.727 79.9701 39.5325 75.8741 38.0838C72.8724 41.3825 66.6711 39.3033 63.6485 45.0721H77.4427C77.1977 47.9904 76.9215 49.9133 73.6906 49.9394C72.5076 49.9394 71.184 50.9191 70.1782 51.7581C68.0937 53.4934 66.4418 55.9271 64.1332 57.1934C58.8438 60.1586 57.6087 64.6976 58.0673 70.284H55.5451C54.8364 68.2621 54.1328 66.2766 53.1636 63.5094C50.0368 66.8081 46.9466 67.5064 43.3195 66.8915C37.608 65.9847 35.0233 63.598 34.3093 57.949C33.9654 55.2079 33.7361 52.4408 33.2306 49.7257C32.8502 47.7246 32.105 45.7912 31.4692 43.6286C26.0652 43.1075 20.9165 42.5342 15.7626 42.0652C10.8328 41.5754 5.89251 41.1793 0.160156 40.679ZM105.531 54.3012C112.983 56.073 115.182 51.0077 117.585 45.859C118.736 43.3784 118.424 41.6379 116.423 39.7306C113.619 40.0016 110.742 40.1527 107.913 40.5852C105.766 40.9187 103.426 43.566 103.702 45.218C104.208 48.2145 104.906 51.1744 105.531 54.3012ZM102.467 38.6362C97.3913 35.1447 96.3073 35.275 94.0248 39.3658C96.8389 41.5076 99.3403 40.4341 102.467 38.6362ZM104.301 37.7399L104.489 38.5372C105.036 38.5372 105.688 38.7248 106.104 38.4903C106.657 38.1776 107.022 37.5366 107.465 37.0416L106.99 36.4788L104.301 37.7399Z" fill="black"/>
</g>
<defs>
<clipPath id="clip0_729_359">
<rect width="150" height="70.2213" fill="white" transform="translate(0.160156 0.104492)"/>
</clipPath>
</defs>
</svg>
