<svg width="151" height="113" viewBox="0 0 151 113" fill="none" xmlns="http://www.w3.org/2000/svg">
<g clip-path="url(#clip0_729_423)">
<path d="M69.5433 15.9209L68.0708 14.5542C65.1107 16.1537 62.208 17.7381 59.3022 19.2953C58.5191 19.7125 57.6906 20.0542 56.8833 20.4291C55.1659 21.2243 53.3366 21.7626 52.0032 23.2925C51.3742 24.0122 50.4037 24.502 49.5056 24.9102C46.3239 26.3918 43.4513 28.4621 41.0394 31.0119C39.7393 32.3725 38.0158 33.334 36.4586 34.4437C35.1584 35.369 33.8643 36.2821 33.1145 38.0902C36.637 39.0639 39.8965 40.5303 43.5581 40.2824C43.7593 40.2453 43.9664 40.2556 44.1628 40.3126C47.117 41.7216 49.7899 40.7722 52.5263 39.5083C55.0359 38.3503 59.5774 40.0133 61.697 42.5924C63.3055 44.5487 64.639 46.6955 65.2377 49.1386C65.7728 51.3217 67.1546 52.6007 68.9658 53.5864C75.8869 57.3539 82.8746 61.0125 89.0549 65.9834C90.6816 67.2896 92.6319 68.1816 94.3614 69.3698C96.0093 70.5007 97.5997 71.3322 99.426 69.5392C99.9672 70.4463 100.635 71.0812 100.729 71.7978C101.11 74.4889 103.248 76.0642 104.639 78.0658C106.834 81.2165 110.771 81.4523 113.347 78.7431C117.205 74.6884 120.906 70.4946 124.722 66.3916C126.01 65.0037 127.253 63.4919 128.792 62.4366C131.31 60.7041 135.495 61.9014 137.6 64.7376C138.854 66.4339 140.151 68.1181 141.192 69.9443C142.047 71.4562 142.546 73.1524 143.369 75.1722C144.427 74.4617 145.558 73.7602 146.628 72.968C147.699 72.1758 148.745 71.2778 150.172 70.8091C149.28 71.8281 148.442 72.8984 147.481 73.8327C146.491 74.8317 145.421 75.7479 144.282 76.5722C143.154 77.3734 142.67 78.4166 142.855 79.6835C143.583 84.6906 140.321 87.3061 136.771 89.5376C131.155 93.0546 126.151 97.4646 121.955 102.594C120.664 104.169 119.143 105.013 117.072 105.127C114.828 105.242 113.988 106.657 114.653 108.783C114.98 109.856 115.222 110.96 115.5 112.052L114.756 112.424C114.287 111.882 113.658 111.414 113.374 110.788C112.467 108.786 111.744 106.703 110.846 104.698C110.142 103.12 108.969 102.01 107.52 100.943C105.126 99.1709 103.1 96.9032 100.917 94.841C99.6528 93.6467 98.3949 92.4463 96.7864 90.9103C96.9376 88.9328 95.8097 86.8314 94.2465 84.9325C91.9516 82.1508 89.7534 79.2693 87.2468 76.6901C84.5896 73.9529 81.2891 71.9248 77.6467 70.791C73.6615 69.5331 70.3899 66.9812 67.0186 64.6923C65.4735 63.6431 64.0977 62.8297 62.1233 62.8418C59.4655 62.8599 56.9317 61.8349 54.8242 60.3231C51.6917 58.0796 48.3385 55.9751 46.4306 52.386C45.0609 49.8069 42.3154 49.3382 39.9418 48.4765C34.2231 46.3743 28.2805 44.9406 22.2324 44.2041C20.7642 44.0161 19.2735 44.1188 17.845 44.5064C13.9718 45.6373 10.682 44.319 7.71281 42.154C5.85833 40.7791 4.22133 39.133 2.85684 37.2708C1.69273 35.6925 0.973107 33.7513 0.256503 31.8948C-0.142618 30.8668 0.722144 29.9778 1.97393 30.0987C3.05337 30.2046 4.1177 30.5976 5.16086 30.9544C6.8541 31.535 8.3629 31.5924 10.0229 30.5523C11.6012 29.5605 13.3912 28.853 15.3929 28.8863C16.2697 28.8863 17.1677 28.5597 18.0295 28.2997C23.0487 26.7879 28.198 26.1499 33.4108 25.914C33.7139 25.9385 34.019 25.9223 34.3179 25.8656C37.9039 24.6562 41.502 23.4467 45.0548 22.1345C47.9545 21.0641 50.7997 19.8184 53.6722 18.7026C58.3316 16.8884 63.0062 15.1468 67.5991 13.3992C68.089 11.4429 68.5244 9.70729 68.8872 8.25896C67.3361 6.71388 66.4199 9.41097 64.8688 8.12895C64.1612 7.54236 62.5617 8.02916 61.3432 8.02916C62.0628 6.17567 63.6442 5.8854 65.5309 5.84609C66.2324 4.30101 67.0246 2.68941 69.2833 2.56846C69.2258 1.78231 69.1714 1.02943 69.1049 0.0981445C69.4889 0.216067 69.888 0.228161 69.9424 0.373296C70.4353 1.66742 71.0491 2.94944 71.2849 4.30403C72.2676 9.87056 71.9229 11.6999 79.0285 10.6053C79.095 10.6053 79.1827 10.699 79.6332 10.9954C78.2484 11.6787 77.051 12.2713 75.8506 12.8579L69.5433 15.9209Z" fill="black"/>
</g>
<defs>
<clipPath id="clip0_729_423">
<rect width="150" height="112.319" fill="white" transform="translate(0.160156 0.104248)"/>
</clipPath>
</defs>
</svg>
