<svg width="151" height="63" viewBox="0 0 151 63" fill="none" xmlns="http://www.w3.org/2000/svg">
<g clip-path="url(#clip0_729_455)">
<path d="M45.108 0.155985C50.9546 0.155985 56.2161 0.00787682 61.4925 0.215228C64.2436 0.326309 66.9725 1.05574 69.7088 1.52969C73.9298 2.27023 78.1842 2.84044 82.3498 3.80314C86.417 4.72424 90.4245 5.8915 94.3502 7.29849C98.1899 8.69811 102.048 9.80522 106.121 10.1755C106.969 10.2552 107.804 10.4405 108.606 10.7272C115.541 13.1932 122.561 15.337 129.881 16.3664C130.596 16.4664 131.47 16.5663 131.944 17.0107C136.154 20.954 141.456 23.5533 145.114 28.215C149.606 33.9431 150.491 40.4636 150.068 47.3469C149.825 51.1773 148.288 54.8116 145.71 57.6552C142.319 61.4838 137.613 63.4499 132.81 62.5205C125.982 61.1987 119.34 58.9733 113.36 54.9633C107.564 51.0373 101.502 47.5198 95.2166 44.4366C88.5528 41.2746 81.7039 38.5185 74.7074 36.1832C68.2166 33.9616 61.5295 32.2769 54.8535 30.6625C51.41 29.8294 47.7814 29.8072 44.2823 29.1814C38.7024 28.1558 33.1261 29.0704 27.5869 29.2666C22.7734 29.4369 17.9969 31.1735 13.113 31.0476C9.72876 30.9624 6.34449 30.2737 2.99355 29.6628C1.40139 29.3555 0.531255 28.1447 0.557174 26.4118C0.589149 25.9175 0.570539 25.4213 0.501633 24.9307C-1.15347 16.5182 3.34531 11.0826 11.021 7.24665C22.0069 1.75925 33.7667 0.733606 45.108 0.155985Z" fill="black"/>
</g>
<defs>
<clipPath id="clip0_729_455">
<rect width="150" height="62.646" fill="white" transform="translate(0.160156 0.104248)"/>
</clipPath>
</defs>
</svg>
