<svg width="151" height="89" viewBox="0 0 151 89" fill="none" xmlns="http://www.w3.org/2000/svg">
<g clip-path="url(#clip0_729_411)">
<path d="M7.41526 88.1811C-1.1738 86.7436 -2.0339 73.2647 4.28943 67.7298C6.6786 65.6353 9.34651 63.9549 12.7033 63.6204C13.9968 63.4362 15.2309 62.958 16.3109 62.2227C22.7975 58.0337 28.4638 52.8333 33.6762 47.2068C36.6149 44.0212 38.8527 40.2145 41.4569 36.7223C47.2507 28.9536 54.7925 23.5819 64.1023 20.9419C70.6327 19.0783 76.968 20.4601 83.0365 23.1001C87.6197 25.0911 92.1113 27.305 96.6627 29.3717C97.3888 29.7058 98.177 29.8835 98.9762 29.8933C105.347 29.8256 110.922 28.4399 115.784 23.5222C121.359 17.8837 125.122 11.218 129.064 4.55217C132.082 -0.556665 136.741 -1.22961 141.261 2.35812C146.696 6.66261 149.698 12.0502 149.65 19.0345C149.694 19.6959 149.793 20.3526 149.945 20.9976C150.622 25.0831 149.79 28.5872 146.286 31.2193C145.37 31.9797 144.583 32.8817 143.952 33.8912C139.807 39.9238 134.352 44.7698 129.307 49.9583C124.712 54.669 118.922 56.3056 112.555 57.09C105.706 57.9342 100.354 55.099 94.9863 51.5631C91.0558 48.9122 86.9413 46.5449 82.6741 44.4792C79.2855 42.8864 75.423 42.8864 71.8074 43.9814C66.8538 45.4547 62.2507 47.8001 57.8984 50.5755C57.332 50.9268 56.8582 51.4088 56.5167 51.9812C52.7697 58.7505 46.8804 63.4452 40.9473 68.0842C35.5477 72.313 30.1203 76.51 24.6213 80.6114C23.5143 81.4396 22.029 82.2957 20.7428 82.2599C15.2916 82.1325 11.0986 84.5216 7.41526 88.1811Z" fill="black"/>
</g>
<defs>
<clipPath id="clip0_729_411">
<rect width="150" height="88.0767" fill="white" transform="translate(0.160156 0.104248)"/>
</clipPath>
</defs>
</svg>
