<svg width="151" height="168" viewBox="0 0 151 168" fill="none" xmlns="http://www.w3.org/2000/svg">
<g clip-path="url(#clip0_729_227)">
<path d="M37.719 55.9777C38.0192 52.2949 38.6913 48.6121 38.5389 44.9293C38.3104 39.0198 38.1895 32.9848 36.8723 27.268C35.107 19.6112 35.7298 12.5189 39.0228 5.52964C39.4782 4.59777 39.9992 3.69945 40.5819 2.84147C41.8006 1.00007 43.6823 0.471394 45.676 0.735731C47.7594 1.01351 48.5344 2.65329 48.7629 4.57534C49.659 11.9409 50.5551 19.2976 51.366 26.6721C51.7378 30.0637 51.926 33.4821 52.1321 36.8916C52.6115 44.7725 55.2145 52.2366 56.5586 59.9427C57.1597 63.1656 57.4968 66.4321 57.5667 69.7097C57.6294 77.147 59.668 80.9105 66.3839 83.5762C72.7056 86.0762 79.1796 88.2268 85.6805 90.2205C88.4359 91.0673 91.3973 92.0395 94.3633 90.6416C94.6197 90.504 94.9169 90.4627 95.2011 90.5252C102.37 93.3925 109.493 91.2062 116.635 90.3952C118.234 90.2115 119.865 90.3415 121.474 90.2563C126.904 89.9696 131.805 88.1237 136.496 85.4221C141.621 82.4696 146.671 84.5843 148.593 90.1623C150.602 95.8409 150.681 102.024 148.817 107.752C147.889 110.655 145.927 113.213 142.473 114.051C135.874 115.653 129.469 117.965 123.369 120.946C119.699 122.738 115.801 123.634 111.751 121.905C111.218 121.677 110.546 121.385 110.044 121.52C104.417 123.003 98.7943 121.408 93.1715 121.569C89.7844 121.668 89.4395 121.771 89.0318 125.319C88.6056 128.555 88.4512 131.82 88.5703 135.082C88.9511 141.959 87.1366 147.42 81.1868 151.69C75.0577 156.09 68.3597 158.979 61.5228 161.95C54.9457 164.817 48.1223 165.736 41.2361 166.766C35.6357 167.604 30.6626 166.385 26.7423 161.901C25.1115 160.037 24.6948 158.016 25.0129 155.704C25.6468 151.544 27.4367 147.646 30.1787 144.454C31.4556 142.913 33.9153 142.214 35.9628 141.488C38.3194 140.655 40.8911 140.377 43.2387 139.58C47.5981 138.115 50.7387 131.851 49.2513 127.586C48.9646 126.766 47.9296 125.794 47.1142 125.651C45.2303 125.291 43.2997 125.249 41.4018 125.525C32.8669 127.017 29.6993 125.561 25.9852 117.94C25.5398 116.907 25.3492 115.782 25.4296 114.66C25.6357 110.709 24.7576 107.187 21.3973 104.804C18.3642 102.644 16.3749 99.647 14.8472 96.4705C12.5443 91.6811 9.22889 87.8594 5.29071 84.432C4.18169 83.438 3.19098 82.3195 2.3382 81.0986C-0.125953 77.6757 -0.766634 74.2707 1.79609 70.3908C3.23874 68.2089 3.70021 65.4042 4.76204 62.949C6.90362 58.0207 10.8104 56.8648 15.1115 60.1936C19.4126 63.5225 23.4583 67.2142 27.5981 70.785C29.3678 72.3173 31.3391 73.6255 33.6554 72.6712C35.7522 71.8065 37.2396 70.1757 37.374 67.5682C37.5398 63.7106 37.8893 59.8576 38.1626 56.0045L37.719 55.9777ZM26.5183 76.6856C23.8301 74.7501 21.926 73.5494 19.7083 75.1981C18.0819 76.4123 19.3185 77.7071 19.5963 79.4723L26.5183 76.6856ZM33.9242 82.958C33.9825 80.3191 32.7773 80.0816 31.2002 80.3908C30.5237 80.5634 29.858 80.7759 29.2065 81.027C29.4887 81.4123 29.7665 81.7976 30.0488 82.1784L33.9242 82.958ZM17.4681 77.3666C16.8902 76.8603 16.5721 76.4257 16.124 76.2599C15.9135 76.1793 15.5102 76.6004 15.1966 76.7931C15.4617 77.2138 15.7861 77.5941 16.1599 77.9221C16.3346 78.0296 16.8051 77.6667 17.4681 77.3666ZM26.6751 81.0628L26.1823 81.4481L27.3248 82.8952L27.8266 82.4965C27.4413 82.0171 27.0425 81.5422 26.6751 81.0628Z" fill="black"/>
</g>
<defs>
<clipPath id="clip0_729_227">
<rect width="150" height="166.34" fill="white" transform="translate(0.160156 0.672852)"/>
</clipPath>
</defs>
</svg>
