<svg width="151" height="126" viewBox="0 0 151 126" fill="none" xmlns="http://www.w3.org/2000/svg">
<g clip-path="url(#clip0_729_117)">
<path d="M0.0722656 125.402C0.586972 117.034 4.01834 109.667 8.18011 102.637C10.8076 98.2255 14.0625 94.3382 18.7438 91.6274C24.1115 88.5098 29.7585 87.9363 35.6948 88.2794C36.6752 88.3333 37.6115 88.4167 39.1262 88.5294C41.9232 81.0872 44.1422 73.4403 45.7634 65.6568C40.8259 65.8812 35.9204 66.5688 31.1115 67.7108C29.3712 68.1594 27.5974 68.466 25.8076 68.6274C23.3566 68.7451 22.1801 67.5049 22.1458 65.1225C22.087 61.098 21.7095 57.0294 22.1458 53.0588C22.4938 49.8823 23.2634 46.4657 24.886 43.7892C27.6507 39.2353 31.1752 35.1274 34.4987 30.9265C36.7144 28.1274 39.5919 25.7647 41.3615 22.7353C44.0527 18.1127 48.3027 18.4216 52.4693 18.3235C54.4546 18.2794 55.3762 19.9265 54.9203 22.2451C54.5821 23.9461 53.8762 25.5784 53.0772 28.0392C55.8419 27.549 58.0625 27.3921 60.1556 26.7843C67.0183 24.7843 73.9154 22.7304 80.7438 20.5C84.6194 19.2527 88.4114 17.7594 92.0968 16.0294C93.6997 15.2892 95.0625 13.7255 96.2634 12.2549C97.9056 10.2647 99.1507 7.94116 100.788 5.94606C104.886 0.980374 110.479 -0.264724 116.592 0.0440999C118.435 0.137237 119.626 1.25488 120.023 3.01959C120.759 6.25979 120.445 10.8137 117.195 12.5245C114.479 13.9608 111.837 15.6863 108.969 16.6666C106.661 17.4412 105.768 18.7549 105.705 20.8578C105.607 24.1127 105.401 27.4068 105.817 30.6127C106.018 32.1765 107.352 33.7304 108.484 35.0245C111.915 38.897 114.469 43.1225 115.062 48.3774C115.754 54.549 111.95 58.897 108.69 63.2402C106.538 66.0833 102.406 64.7794 100.028 61.5098C96.4497 56.6078 95.3321 50.9019 94.1458 45.1666C93.7046 43.0245 94.1458 40.4068 91.6948 39.0882C88.5036 37.3578 85.1899 35.7843 81.4448 36.3774C79.0576 36.7451 76.7291 37.5441 74.4105 38.2647C71.9105 39.049 70.8419 41.0833 70.6066 43.4804C70.3615 46.0294 72.4595 46.5882 74.2929 47.3431C79.1948 49.3725 81.7487 53.4657 80.0134 56.9363C78.6556 59.6421 76.8321 62.1225 75.1605 64.6667C74.5752 65.4648 73.9451 66.2291 73.2733 66.9559C73.7634 69.9657 76.1213 71.3676 78.337 72.5784C85.1997 76.348 91.9546 80.299 99.0772 83.4559C106.542 86.6886 114.182 89.5034 121.96 91.8872C126.861 93.4265 131.911 92.897 136.798 90.8578C140.685 89.2304 144.759 88.0539 148.896 86.6274C150.45 88.3725 150.46 90.0588 148.822 91.3431C146.665 93.0533 144.333 94.532 141.866 95.7549C138.076 97.6409 134.152 99.2449 130.126 100.554C127.341 101.363 124.44 101.704 121.543 101.564C112.925 101.225 104.876 98.2794 97.2929 94.5637C87.8174 89.9412 78.5036 84.8333 69.4154 79.4657C65.1213 76.9363 61.4595 73.3382 57.3615 70.1078C54.6311 71.8039 54.1458 74.9216 53.3027 77.5588C51.0772 84.5294 49.5036 91.7108 47.2291 98.6618C45.7291 103.235 44.7046 108.25 40.5674 111.456C39.3909 112.368 37.5772 113.5 36.435 113.176C34.4448 112.618 33.0036 110.873 32.8027 108.466C32.611 106.528 32.2983 104.604 31.8664 102.706C31.2782 99.9853 29.9056 97.7255 26.9644 97.25C23.7389 96.7304 21.0821 98.3676 19.6115 101C17.2978 105.088 15.4889 109.461 13.4791 113.745C11.734 117.441 10.2242 121.191 10.8566 125.426L0.0722656 125.402ZM37.5723 56.0049C39.2585 55.5147 40.7978 55.2647 42.1311 54.598C46.0527 52.6372 49.9105 50.5784 53.7193 48.4265C54.7782 47.8284 55.9644 46.9559 56.4399 45.9216C57.9742 42.5833 59.2046 39.1078 60.8517 34.9608C58.7193 35.5392 56.9007 35.9412 55.1458 36.5245C50.3762 38.1078 45.9448 40.6274 40.7732 41.1078C36.0429 41.549 34.7732 43.7598 35.9399 48.8088L41.038 45.9117C43.636 50.6912 37.3272 51.7451 37.5723 56.0049Z" fill="black"/>
</g>
<defs>
<clipPath id="clip0_729_117">
<rect width="150" height="125.402" fill="white" transform="translate(0.0722656)"/>
</clipPath>
</defs>
</svg>
