<svg width="151" height="408" viewBox="0 0 151 408" fill="none" xmlns="http://www.w3.org/2000/svg">
<g clip-path="url(#clip0_729_651)">
<path d="M47.7049 173.789C46.8106 175.139 46.3555 176.435 45.4295 177.123C41.8736 179.769 41.7254 183.33 41.355 187.362C40.4607 197.988 38.7357 208.528 37.6932 219.159C36.8254 228.038 36.8783 237.018 35.7459 245.855C34.804 253.221 37.3334 260.031 37.7303 267.101C38.2594 276.705 38.0848 286.468 35.4866 295.845C32.5498 306.47 29.0944 316.958 25.8613 327.499C25.6549 328.171 25.5808 328.996 25.1469 329.467C21.7497 333.124 22.6916 338.108 21.1624 342.167C18.4319 349.422 18.5166 357.206 15.5004 364.444C13.4896 369.265 12.8546 374.863 11.1613 380.012C10.9338 380.711 11.6217 381.668 11.6905 382.52C11.7963 384.065 12.389 386.124 11.6429 387.082C9.28811 390.108 10.3729 393.506 9.88076 396.707C9.33397 400.288 8.78717 403.87 8.24038 407.454L6.99157 407.28C7.13444 405.946 7.26144 404.634 7.43077 403.29C7.99167 398.977 8.76953 394.881 7.32494 390.331C6.23487 386.886 7.36198 382.716 7.61068 378.874C7.85938 375.033 8.39912 371.228 8.542 367.397C8.77482 361.243 8.73778 355.078 8.90182 348.924C9.06586 342.77 8.62666 342.125 2.94352 340.167C2.14449 339.891 1.3243 339.701 0.160156 339.373C0.250113 337.918 0.160156 336.526 0.440609 335.214C2.79006 324.101 5.33002 312.989 7.56306 301.829C8.58962 296.675 9.02882 291.405 9.80668 286.203C11.3677 275.811 12.4154 265.296 14.7173 255.073C17.6223 242.098 17.9769 228.949 18.6806 215.831C19.2733 204.613 19.7019 193.447 21.628 182.33C22.9668 174.599 23.1785 166.683 24.0727 158.867C24.5232 155.384 25.1644 151.929 25.9936 148.517C27.3218 142.696 29.1685 136.971 30.0945 131.097C30.6237 127.731 30.0945 124.117 29.5654 120.678C28.5441 113.54 27.1842 106.454 26.0571 99.3369C25.2316 94.1089 26.8085 89.738 30.9253 86.2827C35.2856 82.6209 35.4443 81.1869 32.8514 75.8953C31.0259 72.1912 28.089 68.8258 28.3272 64.3332C28.6711 58.2268 28.2689 52.0356 30.9147 46.2149C33.2324 41.1139 34.5924 35.4625 37.5451 30.7953C44.2442 20.2122 53.5203 12.2748 65.4475 7.90928C71.1941 5.79266 77.0413 3.95119 82.8726 2.08856C90.2173 -0.303226 97.8266 0.262972 105.378 0.104225C109.574 0.0195596 113.389 0.522258 117.458 2.36901C125.089 5.8297 133.259 8.12095 141.228 10.8355C142.745 11.271 144.293 11.5895 145.858 11.788C149.657 12.4389 150.726 14.2168 149.89 18.0638C148.959 22.3605 145.572 24.6412 142.202 26.1705C136.958 28.5517 131.343 30.2026 125.766 31.7002C123.649 32.2664 121.236 31.4197 118.956 31.4567C117.643 31.4567 115.913 31.5414 115.104 32.3351C112.124 35.2667 108.865 38.1559 106.79 41.7224C103.573 47.2309 99.4193 51.8822 95.2549 56.5705C88.27 64.4444 81.1423 72.1912 74.0886 79.9963C73.7341 80.3878 73.5595 81.007 73.1308 81.2451C67.2519 84.5735 67.8657 90.1508 67.998 95.6329C68.1673 102.798 68.8076 109.978 67.4689 117.117C67.3207 117.932 67.6329 118.842 67.7493 119.704C68.8605 127.821 70.9243 135.753 71.9826 143.924C72.7287 149.866 75.7766 155.565 78.0361 161.264C80.6819 167.937 83.6716 174.467 86.3439 181.123C89.0584 187.881 88.1642 191.643 82.8726 196.617C81.2763 198.208 79.5349 199.647 77.671 200.914C76.0835 201.903 74.2421 202.835 72.4482 202.983C65.4157 203.565 56.3354 199.707 55.2453 191.124C54.7162 187.177 53.4938 183.325 52.6313 179.414C52.044 176.842 50.6787 174.975 47.7049 173.789ZM145.414 17.1589C142.117 15.762 140.149 14.5502 138.005 14.0845C128.825 12.0896 119.649 9.99416 110.373 8.54427C102.366 7.30664 94.1789 8.00522 86.4973 10.5815C80.2745 12.6082 74.6654 15.7461 68.7494 18.3072C61.0132 21.6674 55.7216 27.1865 52.0704 34.3777C49.5463 39.3359 47.8636 44.7121 45.5195 49.7709C42.9901 55.2317 42.7996 60.9572 42.8155 66.7779C42.8155 70.7995 44.1807 74.2867 46.6466 77.6997C52.9171 76.943 59.0447 76.8637 63.8018 81.8907C65.2305 80.5413 66.6857 79.774 67.1831 78.5993C69.0458 74.1967 72.8186 71.4504 75.893 68.1379C80.5496 63.1215 85.0845 57.8669 90.3813 53.6072C93.805 50.8556 96.2603 47.6489 98.5515 44.1618C101.52 39.6322 104.049 34.7957 107.214 30.4037C110.378 26.0117 113.982 22.3553 120.321 23.948C125.083 25.1386 129.708 20.1963 134.677 23.3289C134.942 23.4982 135.667 23.0802 136.111 22.7997C138.799 21.2282 141.445 19.5825 145.414 17.1748V17.1589Z" fill="black"/>
</g>
<defs>
<clipPath id="clip0_729_651">
<rect width="150" height="407.35" fill="white" transform="translate(0.160156 0.104248)"/>
</clipPath>
</defs>
</svg>
