<svg width="151" height="178" viewBox="0 0 151 178" fill="none" xmlns="http://www.w3.org/2000/svg">
<g clip-path="url(#clip0_729_639)">
<path d="M150.16 2.44545C149.764 7.19918 149.483 12.1787 148.896 17.1028C148.029 24.3958 146.456 31.7601 147.09 39.0016C147.649 45.3796 146.896 51.607 146.864 57.8938C146.832 63.7686 145.799 69.6394 145.2 75.5143C144.206 85.3188 142.768 95.0917 143.121 104.987C143.382 112.304 143.307 119.645 144.083 126.922C144.832 133.91 144.955 141.06 147.538 147.771C147.811 148.363 147.946 149.009 147.934 149.661C147.565 153.277 140.573 156.395 137.662 154.196C135.725 152.727 134.009 150.96 132.116 149.411C131.49 148.931 130.769 148.59 130 148.413C128.866 148.06 127.686 147.876 126.498 147.866C121.677 148.124 117.756 146.194 113.754 143.683C109.001 140.692 103.478 139.183 98.0315 137.741C97.1639 137.511 96.0508 137.277 95.3258 137.618C91.5664 139.345 87.4426 140.312 84.317 143.386C81.4489 146.202 78.0104 148.472 75.3205 151.431C73.6567 153.265 72.2425 155.278 70.0875 156.581C66.8708 158.562 63.9116 161.022 60.0096 161.604C59.8788 161.624 59.7045 161.632 59.6332 161.719C56.6027 165.253 52.0431 165.629 48.1054 167.265C46.4218 167.966 44.6471 168.454 42.9239 169.04C36.2766 171.377 29.8234 174.317 22.8552 175.652C20.1573 176.18 17.4313 176.553 14.6907 176.769C11.577 176.998 8.43952 176.947 5.31394 177.018C2.71523 177.082 1.20988 175.699 0.164062 173.057C1.12669 172.74 1.92294 172.265 2.73504 172.245C6.33995 172.138 9.46949 170.973 12.5555 169.048C15.6414 167.123 19.1196 165.847 22.5224 164.504C25.8223 163.209 29.3163 162.408 32.5924 161.07C35.4962 159.881 38.2454 158.296 41.0145 156.811C47.9232 153.079 55.347 150.223 61.3168 144.875C64.4464 142.07 67.564 139.234 70.8718 136.651C73.5458 134.56 76.3188 132.42 79.381 131.038C82.5191 129.659 85.8495 128.768 89.2569 128.396C96.4509 127.579 103.605 127.603 110.609 130.21C115.636 132.084 121.024 132.9 125.837 135.49C128.875 137.127 131.957 138.469 132.631 142.427C132.829 143.615 133.819 144.804 135.182 144.206C135.879 143.905 136.557 142.581 136.525 141.75C136.43 139.278 135.907 136.829 135.673 134.365C134.94 126.672 134.267 118.979 133.566 111.286C133.019 105.281 132.191 99.2869 131.981 93.2694C131.751 86.5627 131.648 79.8005 132.274 73.1334C133.419 60.9837 131.878 49.0162 130.828 36.9892C130.321 31.2451 130.143 25.4733 129.675 19.7253C129.557 18.2239 129.244 16.5561 128.443 15.3281C126.772 12.7888 125.144 12.5154 122.307 13.482C118.452 14.7653 114.912 16.8498 111.92 19.5985C107.998 23.243 103.601 24.1938 98.5742 23.2747C93.4956 22.3398 88.4131 21.9239 83.283 22.7478C82.386 22.8589 81.5047 23.073 80.6566 23.3856C78.2629 24.3837 75.6596 24.7742 73.0784 24.5226C69.8696 24.277 66.5539 24.7404 63.2817 24.8791C61.8477 24.9385 59.8511 25.6714 59.1816 26.737C58.0804 28.5117 56.4086 29.2605 55.0261 30.5162C51.5598 33.6854 47.8044 32.9882 43.9776 31.9384C41.3195 31.2095 38.8832 29.9933 36.9579 27.8739C34.1849 24.8197 33.3213 18.5804 35.5239 15.2964C38.4197 10.9784 42.6268 8.26877 47.7291 9.58001C53.695 11.1091 59.039 9.81373 64.692 8.44704C69.9845 7.16749 75.4711 6.56931 80.9101 6.11375C83.9406 5.86022 87.0425 6.58912 90.1165 6.73173C91.657 6.83508 93.2043 6.73787 94.7197 6.44255C100.547 5.16696 106.164 4.98077 112.15 6.46235C116.706 7.58344 121.903 7.9479 126.376 4.56086C133.082 -0.517706 142.376 -1.30207 150.16 2.44545Z" fill="black"/>
</g>
<defs>
<clipPath id="clip0_729_639">
<rect width="150" height="176.958" fill="white" transform="translate(0.160156 0.104248)"/>
</clipPath>
</defs>
</svg>
