<svg width="151" height="183" viewBox="0 0 151 183" fill="none" xmlns="http://www.w3.org/2000/svg">
<g clip-path="url(#clip0_729_615)">
<path d="M109.515 181.925C95.3976 184.156 83.8917 179.187 72.6964 173.074C69.5117 171.154 66.2113 169.433 62.8141 167.921C44.9411 160.862 32.9694 147.845 24.5129 131.088C19.3458 120.881 11.9764 112.001 10.2541 99.8454C7.99525 83.8219 2.98349 68.1937 0.625843 52.1702C-0.828114 42.825 0.98225 33.2642 5.75213 25.0976C10.522 16.9309 17.9601 10.6571 26.8141 7.3325C49.4023 -1.13809 72.2023 -3.41103 95.0023 7.3325C103.854 11.3984 110.122 18.4572 110.278 27.5772C110.56 39.8878 112.226 50.6454 118.071 62.109C122.306 70.3396 121.063 82.5231 119.172 92.3349C116.758 104.956 120.019 114.26 128.8 122.631C133.882 127.488 138.852 132.452 143.708 137.525C151.416 145.572 152.292 155.06 145.628 164.081C136.536 176.434 124.96 184.34 109.515 181.925Z" fill="black"/>
</g>
<defs>
<clipPath id="clip0_729_615">
<rect width="150" height="182.358" fill="white" transform="translate(0.160156 0.104248)"/>
</clipPath>
</defs>
</svg>
