<svg width="151" height="129" viewBox="0 0 151 129" fill="none" xmlns="http://www.w3.org/2000/svg">
<g clip-path="url(#clip0_729_519)">
<path d="M102.402 0.76119C103.288 3.89994 103.989 6.64199 104.865 9.33008C105.2 10.327 105.786 11.221 106.566 11.9261C109.194 14.1953 110.765 17.1532 112.326 20.1491C112.669 20.902 113.147 21.5859 113.735 22.1675C115.712 23.8877 117.658 25.6935 119.841 27.1185C123.355 29.4098 127.1 31.3394 130.632 33.58C133.463 35.37 136.757 36.0238 139.607 37.9851C143.853 40.9017 146.513 44.9894 149.595 48.82C150.547 50.0069 150.093 51.3589 149.547 52.3491C148.49 54.257 147.249 56.0575 145.843 57.7253C144.342 59.4598 142.749 61.1124 141.07 62.6762C139.864 63.8377 138.531 64.8787 137.281 65.9863C136.497 66.675 135.71 67.3637 134.964 68.0904C132.184 70.7912 129.489 73.5491 125.76 75.0439C124.384 75.5937 123.192 76.5211 122.32 77.7193C120.06 81.0676 117.055 83.597 114.084 86.2343C111.897 88.2013 109.913 90.3818 108.159 92.7435C107.42 93.7241 107.118 95.3649 107.274 96.6248C107.623 99.4621 108.48 102.249 110.857 104.14C112.913 105.778 113.675 107.98 114.075 110.414C114.348 112.077 114.71 113.734 114.833 115.41C114.903 116.283 114.649 117.203 114.43 118.072C113.269 122.658 110.708 126.121 106.074 127.565C100.19 129.399 95.3408 129.653 91.2658 125.042C89.9963 123.62 88.7268 122.16 87.2638 120.992C83.3157 117.869 82.4811 113.664 82.2811 108.932C82.1129 104.908 83.503 101.35 84.5693 97.6595C85.3247 95.0475 86.0387 92.4197 86.8829 89.8332C87.835 86.9007 89.5615 84.3999 91.7291 82.2355C95.8168 78.1605 99.9457 74.1236 104.075 70.093C104.483 69.7639 104.924 69.4778 105.392 69.2393C109.397 66.7289 113.491 64.3487 117.379 61.6701C120.302 59.6517 123.021 57.3635 126.24 55.7703C127.509 55.1356 127.592 53.4376 126.322 52.2793C125.082 51.1396 123.694 50.1715 122.196 49.4007C117.077 46.7698 112.723 43.1804 108.626 39.1911C106.975 37.5852 105.036 36.2808 103.278 34.7765C100.685 32.5549 98.4192 30.2033 98.0225 26.4583C97.8844 25.4473 97.4931 24.4875 96.8851 23.6681C96.277 22.8486 95.4718 22.196 94.5442 21.7708C92.9034 20.9838 92.2528 19.8032 91.8497 18.1687C91.2848 15.8742 90.7897 15.3854 88.5491 15.871C84.6424 16.6708 80.797 17.7451 77.0414 19.0859C75.3879 19.7016 73.8075 21.2059 72.7919 22.7102C69.8531 27.0804 65.4861 29.6193 61.3064 32.4058C59.2023 33.8117 59.0848 34.786 61.1858 36.2142C61.7951 36.6204 62.4553 36.9536 63.09 37.3123C63.4232 38.5817 63.8136 39.7909 64.0421 41.0318C64.4483 43.1804 65.4195 44.5768 67.7458 45.1576C70.0721 45.7383 70.5735 47.9218 68.8343 49.807C67.2475 51.5144 66.7397 53.2377 67.4062 55.5196C68.3932 58.9122 69.7674 60.0135 73.2933 59.585C75.2894 59.3747 77.2726 59.0569 79.2344 58.6329C82.151 57.9538 84.9216 58.5409 87.6256 59.4517C90.3295 60.3626 90.7992 62.0795 89.4187 64.5962C86.8449 69.2615 82.7223 72.213 78.4569 75.1487C75.626 77.0973 72.7221 77.3893 69.4944 77.4528C67.2316 77.5004 64.991 78.3636 62.7219 78.7413C61.7126 78.9095 60.5003 79.1094 59.6466 78.7127C57.8408 77.8717 56.4285 78.4334 54.8607 79.2268C51.8965 80.7216 50.0653 79.468 50.1288 76.0944C50.1922 72.7208 50.0653 72.505 46.844 72.0575C44.9497 71.839 43.2003 70.9362 41.9248 69.5186C39.5541 66.9797 37.0596 64.5518 34.6254 62.07C32.6446 60.0112 30.1089 58.5714 27.326 57.9252C21.7308 56.5637 16.2182 56.9731 10.7849 58.3759C8.09359 59.0455 5.65622 60.7466 3.11094 61.9907C2.23184 62.4255 1.3686 62.8888 0.229256 63.4791C-0.0881098 61.321 0.794169 60.2007 1.98747 59.6485C5.79586 57.8903 9.54713 55.5989 13.5713 54.8594C21.2992 53.4408 28.9541 51.1494 36.9422 51.5081C41.1663 51.6985 45.0826 52.7014 48.0278 56.0718C49.2306 57.446 50.5953 58.6107 52.6074 58.5345C53.6071 58.4901 54.5116 58.2616 54.829 57.1413C55.1463 56.021 54.9654 55.0499 53.9022 54.4024C53.4541 54.1237 52.9887 53.8735 52.509 53.6535C49.9129 52.4982 48.9608 50.6004 49.6717 47.8964C49.805 47.3886 50.078 46.9126 50.1827 46.4016C50.8397 43.2597 48.5959 41.2635 45.5269 42.3171C42.7786 43.2692 40.2079 43.6723 37.2342 42.6345C35.33 41.968 32.8989 42.4695 30.9789 43.8532C30.3441 44.307 29.5729 44.545 28.8811 44.8719C27.7068 42.4123 28.3035 39.1371 30.1093 37.4456C33.1338 34.6178 36.5042 32.4216 40.6141 31.4156C42.4485 30.9681 44.1591 30.0287 45.9713 29.4638C48.1637 28.7309 50.403 28.1467 52.674 27.7151C55.5996 27.2637 58.2917 25.8512 60.3257 23.7004C62.4362 21.5074 64.4896 19.2192 66.8317 17.296C68.7582 15.7091 71.021 14.5095 73.2299 13.3162C77.2921 11.1264 81.4814 9.16505 85.5087 6.92127C87.981 5.54707 90.2248 3.773 92.6336 2.2782C95.6867 0.393045 98.9048 -0.657437 102.402 0.76119Z" fill="black"/>
</g>
<defs>
<clipPath id="clip0_729_519">
<rect width="150" height="128.692" fill="white" transform="translate(0.160156 0.104248)"/>
</clipPath>
</defs>
</svg>
