<svg width="151" height="216" viewBox="0 0 151 216" fill="none" xmlns="http://www.w3.org/2000/svg">
<g clip-path="url(#clip0_729_683)">
<path d="M102.267 87.8996C107.049 96.6498 111.723 105.291 111.322 115.889C111.084 122.161 112.3 128.524 112.994 134.824C113.174 136.446 113.885 138.01 114.403 139.586C116.03 144.527 114.027 148.365 108.922 148.946C104.462 149.469 99.7248 150.518 95.5692 147.788C93.2019 146.154 90.9463 144.363 88.8173 142.429C84.8665 139.005 81.7561 134.636 76.919 132.169C75.8446 131.622 75.3011 130.024 74.5318 128.933C70.8528 128.666 70.117 129.063 69.3979 132.077C69.0512 133.418 68.9228 134.805 69.0174 136.187C69.494 141.258 70.0752 146.321 70.7148 151.375C71.4213 156.965 72.5376 162.521 72.9264 168.128C73.3445 174.486 73.2232 180.887 73.2734 187.271C73.2734 189.629 72.9097 192.004 73.1062 194.341C73.5033 199.123 69.423 202.514 64.983 200.695C63.7915 200.206 62.8927 199.579 61.5507 200.118C61.222 200.219 60.8759 200.249 60.5347 200.208C60.1935 200.167 59.8646 200.055 59.569 199.88C56.3582 197.748 52.1775 197.476 49.4266 194.382C48.4859 193.325 46.7677 193.007 45.5636 192.133C41.3049 189.04 37.0865 185.889 32.9086 182.681C30.1786 180.59 27.5698 178.329 24.89 176.163C23.456 175.001 21.8798 175.147 20.7636 176.414C18.7861 178.667 16.2986 180.594 15.7216 183.889C15.5335 184.972 14.6305 186.456 13.7024 186.815C10.9473 187.815 10.3578 190.11 9.96897 192.384C8.93634 198.434 8.63951 204.487 10.663 210.457C11.1528 211.988 11.2093 213.625 10.826 215.186C10.0735 213.551 9.15373 211.971 8.60188 210.269C6.96861 205.121 5.42174 199.944 3.96128 194.738C2.75723 190.327 1.41522 185.971 0.645971 181.51C-0.733666 173.454 0.767212 165.912 5.89277 159.352C6.18721 158.994 6.55296 158.701 6.96681 158.491C7.38065 158.282 7.83354 158.161 8.29669 158.136C10.7591 158.299 13.3135 158.441 15.6213 159.231C18.067 160.067 20.2953 161.585 22.5488 162.923C23.2491 163.335 23.7997 163.961 24.1207 164.708C24.7185 166.276 25.9853 166.857 27.2353 167.768C29.6624 169.572 31.8486 171.68 33.7405 174.039C36.9806 178.015 41.6337 179.633 45.965 181.69C48.7159 182.994 51.8974 183.391 55.5388 184.374C55.6684 182.212 55.982 180.611 55.8105 179.081C55.4259 175.657 54.8072 172.262 54.272 168.855C53.1892 161.923 52.1315 154.988 50.9818 148.064C50.8046 146.964 50.3754 145.919 49.7276 145.012C46.312 140.493 45.6639 135.112 44.7985 129.79C43.7366 123.227 44.4975 116.83 46.567 110.559C46.8596 109.673 46.7384 108.653 46.7969 107.796C51.1909 104.76 55.7562 106.291 60.2128 106.876C67.4706 107.8 73.7835 111.182 80.0545 114.656C81.4467 115.43 82.8974 116.09 85.0714 117.165C84.6324 115.195 84.7328 113.866 84.114 113.201C81.7603 110.651 81.8104 107.306 80.7694 104.334C80.2217 102.628 79.4752 100.991 78.5453 99.4593C74.3646 93.0168 69.9247 86.7833 66.4923 79.8099C64.6611 76.089 64.1762 72.2846 63.1184 68.5219C61.4462 62.6689 64.6904 57.8569 67.1946 52.5558C66.4923 49.5289 64.172 47.3132 61.5758 44.972C58.6827 42.3632 56.2746 39.0688 55.6141 34.8964C55.2921 32.8479 54.4894 30.8788 54.1675 28.8344C53.8791 27.0074 53.3314 24.8669 53.971 23.3033C57.0271 15.778 60.748 8.61643 67.1445 3.23585C69.2641 1.45068 71.5844 0.171382 74.3562 0.668887C77.0486 1.15385 79.4358 -0.167256 82.2494 0.15884C89.7747 1.08278 96.259 4.39391 99.892 10.6106C100.611 11.8398 100.728 13.4284 101.092 14.8624C101.155 15.1049 100.887 15.4728 100.987 15.6651C102.083 17.7304 102.906 19.804 101.824 22.1536C100.87 24.244 99.892 26.3343 99.035 28.4498C97.555 32.1204 98.4288 34.5285 102.028 36.1883C105.628 37.848 109.445 39.1691 113.04 40.8832C116.798 42.5932 119.958 45.387 122.117 48.906C122.886 50.1602 124.483 51.1427 125.917 51.7447C129.604 53.2832 133.442 54.4956 137.163 55.9254C138.267 56.3435 139.475 56.7616 139.483 58.4924C139.483 59.015 140.805 59.9097 141.574 59.9807C144.918 60.2901 147.088 62.0251 148.802 64.7718C150.395 67.3263 150.738 69.2536 148.957 71.4108C147.176 73.5681 145.993 75.6877 145.646 78.4261C145.449 79.9897 144.346 80.9345 142.999 81.9002C137.84 85.6336 132.426 86.6704 126.118 85.3953C121.138 84.3655 116.268 82.8648 111.573 80.9136C108.166 79.5214 104.763 78.8776 101.263 81.3609C100.31 83.6102 102.129 85.6671 102.329 87.9288C101.456 87.5108 100.239 87.3728 99.821 86.7081C97.9438 83.8903 99.1562 78.3132 102.308 77.2638C105.369 76.2437 106.619 73.9193 108.479 71.8623C110.022 70.1608 111.193 68.7519 109.675 66.4483C109.403 66.0302 109.8 65.1648 109.897 64.5085C110.076 63.2919 110.708 61.9373 110.369 60.8921C108.906 56.4146 109.604 50.7455 103.876 48.442C103.299 48.212 102.982 47.3884 102.467 46.9327C101.213 45.829 100.093 44.3783 98.6253 43.7805C94.5616 42.1082 91.6602 39.236 89.0096 35.9082C87.9519 34.5829 86.7395 32.9817 84.4945 34.3613L87.0405 37.2C85.8699 39.8422 84.4945 41.9368 84.0555 44.2111C83.5705 46.7195 83.9426 49.4161 83.9426 52.1544L86.2211 52.7146C83.2946 55.4363 83.604 58.1078 85.2094 60.9799C85.7905 62.0126 84.1809 63.9441 86.5054 64.3956C84.0847 67.3597 87.0154 70.2904 86.2086 73.2169L88.4578 73.4385C87.9519 77.5189 88.9762 80.8007 91.5975 83.6687L89.5615 85.4706C89.5615 87.5359 89.6158 89.1496 89.5615 90.755C89.4779 92.7743 87.5673 94.9357 90.1886 96.7209C90.3224 96.8129 90.0883 97.4442 90.0381 97.8246C89.8583 99.1833 89.7036 100.542 89.5071 101.892C88.7881 106.784 90.2973 111.889 88.0731 116.642C87.8558 117.102 88.0063 117.742 88.0063 118.314C88.0063 120.338 88.0063 122.361 88.0063 124.585C88.5498 125.162 89.5155 125.81 89.9294 126.713C90.6485 128.285 93.2196 132.307 94.361 132.964C95.9956 133.9 97.6595 134.795 99.2649 135.681C104.069 130.702 105.348 125.112 103.508 118.649L105.933 114.907C104.436 112.917 104.612 110.873 104.679 108.611C104.846 103.364 104.378 98.1256 102.321 93.1171C101.706 91.5953 100.047 89.6388 102.267 87.8996ZM107.952 45.6743C108.195 47.0205 108.316 47.8023 108.525 48.559C108.525 48.6092 109.432 48.6008 109.55 48.4043C110.231 47.2295 109.746 46.5105 107.952 45.6743ZM97.0115 26.2131C97.2749 25.9371 97.6136 25.703 97.7306 25.3769C97.7766 25.2599 97.3125 24.9589 97.0826 24.7289C96.8597 25.0233 96.6678 25.34 96.5098 25.6738C96.4764 25.7657 96.7899 25.9873 97.0115 26.2131ZM89.666 4.84542C89.3315 5.45999 88.9344 5.88224 89.0264 6.07456C89.2145 6.46754 89.6618 6.73511 90.0005 7.05702C90.2011 6.76437 90.6067 6.42156 90.5523 6.18744C90.4645 5.77354 90.0674 5.42236 89.666 4.84542Z" fill="black"/>
</g>
<defs>
<clipPath id="clip0_729_683">
<rect width="150" height="215.056" fill="white" transform="translate(0.160156 0.104492)"/>
</clipPath>
</defs>
</svg>
