<svg width="151" height="158" viewBox="0 0 151 158" fill="none" xmlns="http://www.w3.org/2000/svg">
<g clip-path="url(#clip0_729_371)">
<path d="M125.039 0.793292C124.268 2.26044 123.455 3.69314 122.766 5.17406C121.815 6.94993 120.991 8.7914 120.301 10.6845C119.384 13.5843 120.597 15.5061 123.448 16.5737C126.892 17.8411 130.219 19.3289 133.663 20.5274C140.613 22.9933 145.022 28.1042 147.921 34.5376C153.273 46.4401 149.017 55.4358 136.852 59.9406C133.188 61.3182 130.157 64.466 126.934 66.9319C123.613 69.3399 120.421 71.9219 117.373 74.6671C107.282 84.2414 96.778 93.5402 92.0666 107.296C89.9107 113.577 83.1122 116.725 77.1886 115.658C73.2073 114.969 69.4533 113.075 65.479 112.007C63.4126 111.449 60.9466 110.802 59.0938 111.435C55.0505 112.813 50.8282 114.411 47.5082 117.028C42.3766 121.12 37.865 126.045 33.3327 130.804C32.1755 132.017 31.5831 133.98 31.2663 135.702C30.1759 141.29 27.964 146.6 24.764 151.31C21.8986 155.539 17.7933 158.294 13.385 157.84C8.5634 157.296 3.14254 154.713 1.9647 149.209C0.518044 142.779 -0.0496512 136.182 0.277135 129.599C0.552655 125.273 3.3974 121.444 8.14323 119.363C20.3855 113.917 31.6339 106.468 41.4261 97.3217C48.011 91.2465 53.7487 84.2345 59.8652 77.6634C60.0216 77.4942 60.1973 77.3439 60.3887 77.2157C76.2311 66.7872 85.3302 50.2147 97.5495 36.4938C99.1544 34.6891 99.9396 32.1544 101.111 29.964C103.689 24.9129 107.103 20.3344 111.208 16.4222C115.128 12.7922 117.724 7.74329 120.969 3.3694C121.904 2.22699 122.902 1.13703 123.958 0.104492L125.039 0.793292Z" fill="black"/>
</g>
<defs>
<clipPath id="clip0_729_371">
<rect width="150" height="157.756" fill="white" transform="translate(0.160156 0.104492)"/>
</clipPath>
</defs>
</svg>
