<svg width="151" height="377" viewBox="0 0 151 377" fill="none" xmlns="http://www.w3.org/2000/svg">
<g clip-path="url(#clip0_729_723)">
<path d="M112.78 157.732C118.834 160.063 124.212 162.073 129.556 164.188C133.157 165.616 135.33 168.436 137.335 171.682C139.304 174.738 141.607 177.565 144.199 180.114C148.307 184.309 151.407 188.703 149.665 194.99C148.954 197.572 148.5 200.235 147.695 202.769C146.394 207.03 146.174 211.548 147.054 215.915C148.412 223.001 147.742 230.139 147.089 237.277C146.763 240.89 147.13 244.567 147.218 248.215C147.218 249.572 147.707 251.006 147.404 252.294C145.854 258.703 147.404 264.979 147.719 271.325C148.08 278.317 146.553 284.727 141.227 289.843C139.036 291.947 137.685 295.087 135.255 296.76C126.695 302.587 117.5 305.308 107.43 300.407C106.903 300.155 106.358 299.942 105.799 299.772C99.3483 297.745 96.4756 298.927 94.2672 305.448C92.0587 311.968 89.6521 318.681 88.6033 325.499C87.5168 332.025 88.8825 338.723 92.4375 344.303C96.5637 351.001 101.3 357.303 106.586 363.13C108.823 365.589 109.837 369.167 111.393 372.197C109.272 375.501 106.673 376.858 103.317 375.728C99.9602 374.598 95.823 373.788 93.4514 371.422C86.5114 364.488 78.6623 358.474 72.8993 350.275C69.4031 345.264 68.4067 339.647 66.6644 334.164C65.9069 331.792 64.992 329.246 65.161 326.851C65.3941 323.488 64.386 319.975 67.2762 316.752C69.4089 314.381 68.8962 310.861 66.1108 308.478C67.2762 305.564 70.8715 304.131 69.1992 300.128C68.4999 298.455 70.2364 295.682 73.3422 295.466C74.0414 297.482 74.7057 299.417 75.3759 301.351L76.6695 301.107C76.6787 300.488 76.7352 299.87 76.8384 299.26C78.5399 292.535 78.3535 292.302 71.4892 292.809C71.1266 292.815 70.7642 292.791 70.4054 292.739C70.8482 288.858 73.3772 282.198 75.7779 279.89C77.6076 278.142 77.0657 275.573 79.1693 273.638C87.0766 266.36 97.5711 264.012 107.413 268.032C109.196 268.761 111.253 268.813 113.415 269.198C114.58 260.405 109.651 256.046 104.092 251.489L101.673 254.269C99.6739 256.649 97.1231 258.504 94.2428 259.673C91.3626 260.842 88.2404 261.289 85.1478 260.976C77.9864 260.393 70.9356 261.424 64.0714 262.59C59.3689 263.394 54.6665 265.707 50.4011 268.877C46.5494 271.733 42.7152 274.343 39.5977 278.072C28.5263 291.282 25.4147 305.139 33.1239 321.571C35.2275 326.052 38.0536 330.19 40.4135 334.56C40.9496 335.545 40.9147 336.832 40.1338 338.604C38.7353 337.438 36.9581 336.524 35.9908 335.073C29.7151 325.604 22.8916 316.304 21.5164 304.58C21.0269 300.431 20.9337 296.014 21.8019 291.982C23.3344 285.082 24.9136 278.102 30.053 272.519C32.0284 270.369 32.512 266.925 34.1669 264.361C36.4977 260.772 39.2656 257.433 41.9577 254.082C42.9133 252.888 44.5624 252.171 45.2791 250.889C47.0739 247.667 49.8126 247.078 53.1223 247.131C54.2877 247.131 56.0359 246.729 56.5078 245.919C57.6033 244.013 55.9251 243.833 54.4975 243.757C55.0802 239.678 51.2344 239.095 49.2532 236.98C45.4073 232.854 43.9156 227.581 43.4261 222.179C42.9541 216.865 41.8819 212.238 37.8496 208.224C33.0598 203.469 32.209 196.937 33.287 190.521C33.928 186.745 32.8267 183.797 31.335 180.714C30.5017 178.995 29.4995 177.363 28.5904 175.679C24.5698 168.244 27.023 162.032 32.2731 156.363C33.8523 154.661 35.5946 153.1 37.0105 151.27C38.6421 149.155 40.4776 146.993 41.3633 144.54C43.1115 139.692 44.2769 134.634 45.7045 129.663C46.6077 126.517 46.5203 123.562 44.44 120.829C42.5812 118.388 40.5417 117.024 37.1271 117.106C33.4269 117.187 31.9585 114.979 32.547 111.32C33.0714 108.068 33.9455 104.875 34.8778 100.744C34.8196 100.697 33.5667 98.9663 32.9316 99.1702C28.1418 100.697 26.5218 96.1635 23.1014 94.9864L30.9096 90.5578C28.2292 84.8531 24.7737 80.9665 18.6728 79.9468C17.0121 79.6729 15.4912 78.6299 13.8538 78.0938C11.727 77.3887 9.57094 76.4039 7.39162 76.3049C2.81739 76.1009 0.404987 73.671 0.16025 68.281C-0.0145611 64.2603 3.68562 60.7058 7.92188 61.8072C12.5136 62.9726 15.6252 61.8887 18.935 58.8936C21.6155 56.4754 25.1467 58.1419 26.551 61.7664C27.5869 64.4239 28.838 66.9925 30.2919 69.4464C33.5268 75.0568 37.1687 80.4224 41.1885 85.4999C41.3271 84.3398 41.3914 83.172 41.3808 82.0037C40.7981 73.7293 39.1491 65.6472 37.5408 57.5301C36.0549 49.9316 32.9899 43.1489 30.3677 36.1157C29.9015 34.857 29.2023 33.4702 29.3829 32.2349C30.1754 25.8251 28.5496 19.1182 31.5914 12.9065C32.2207 11.6304 31.8827 9.87063 31.9876 8.33229C32.209 5.23813 32.4596 2.16727 35.4489 0.104492C39.0733 1.69528 39.4579 4.98174 39.7026 8.33812C42.0859 9.11312 44.3643 9.6492 46.4329 10.5757C50.809 12.5103 52.3299 15.7093 49.9291 19.8524C46.497 25.8426 46.8466 31.5706 48.146 38.0969C50.0923 47.9213 51.6423 58.072 51.3684 68.0246C51.0596 78.4783 51.8695 88.8272 52.1201 99.2168C52.3065 106.792 54.5849 114.14 58.1103 120.864C61.3093 126.959 65.4116 132.583 68.599 138.695C69.6828 140.781 69.1817 143.712 69.3856 146.602H62.3932C62.7836 148.992 63.0691 151.025 63.4537 153.012C64.1005 156.386 64.8172 159.742 65.499 163.105C66.5945 168.541 67.2879 174.106 68.9544 179.362C69.6537 181.559 72.4099 183.097 74.6766 185.387C76.0518 183.872 77.5901 182.829 78.1728 181.396C82.7179 171.187 91.3653 165.319 100.584 160.133C102.687 158.967 105.403 158.828 108.339 158.099C108.141 154.935 107.879 151.893 107.757 148.846C107.634 145.798 107.757 142.762 107.693 139.721C107.657 138.82 107.552 137.924 107.378 137.04C106.216 130.258 106.508 123.306 108.235 116.646C109.227 112.306 109.922 107.904 110.315 103.471C110.898 98.2962 113.007 93.8443 115.955 89.6663C116.679 88.6174 117.67 87.7811 118.826 87.2442C119.982 86.7073 121.26 86.4894 122.528 86.6129C123.07 86.6985 123.589 86.8935 124.052 87.186C124.516 87.4785 124.916 87.8625 125.226 88.3144C125.553 88.7981 125.11 90.2956 124.539 90.8026C119.959 94.8815 117.127 99.6655 117.593 106.069C117.651 106.856 116.637 107.701 116.194 108.558C115.478 109.927 114.295 111.296 114.225 112.712C113.933 118.668 111.894 124.285 111.608 130.339C111.171 138.882 112.191 147.238 112.477 155.675C112.537 156.366 112.638 157.053 112.78 157.732ZM86.6046 303.024C85.4392 303.181 84.3146 303.333 83.1724 303.496C80.5736 303.857 79.0411 305.151 78.6914 307.924C78.505 309.393 77.4911 310.756 77.2929 312.225C77.1822 313.035 77.9864 313.973 78.5341 315.197C81.401 310.756 83.9183 306.858 86.4006 302.96C88.6499 299.265 88.4809 298.053 85.2352 294.47C84.973 295.728 85.0546 297.232 84.3553 298.164C83.6561 299.096 82.1527 299.574 80.4337 300.576L86.6046 303.024ZM87.77 237.982C85.4042 235.651 83.7785 236.123 82.1527 237.644C79.4023 240.22 76.3257 242.522 73.9482 245.394C71.4076 248.465 67.3462 250.889 67.7948 255.912C70.1606 254.7 72.2059 253.476 74.3852 252.585C76.549 251.63 78.8178 250.934 81.1446 250.51C84.029 250.073 85.7189 248.372 85.1187 245.849C84.3437 242.591 85.5207 240.331 87.7816 237.982H87.77ZM78.5982 316.933C75.3875 321.595 78.1146 325.901 77.8232 330.568C84.2621 325.837 84.4602 321.606 78.5982 316.933ZM78.8255 198.475C77.899 201.12 78.4001 203.037 80.8941 203.521C83.4988 204.022 84.0115 202.163 83.7377 199.873L78.8255 198.475ZM90.4504 230.891L82.8286 232.516C87.3155 235.075 87.3155 235.075 90.4446 230.891H90.4504ZM86.2783 206.901C82.7471 207.186 82.7471 207.186 83.8076 210.292C84.6525 209.092 85.3634 208.13 86.2724 206.901H86.2783ZM88.0264 288.736L87.0241 287.786C85.6839 288.445 84.3145 289.08 85.0488 292.174L88.0264 288.736ZM84.4544 212.984L83.0734 213.817C83.8367 214.814 84.5884 215.822 85.4042 216.783C85.7039 216.637 85.9839 216.453 86.2375 216.236C85.6839 215.123 85.0662 214.033 84.4602 212.955L84.4544 212.984ZM82.1585 291.539L80.7717 291.276C80.5969 292.051 80.4162 292.821 80.2414 293.607C80.6821 293.73 81.1324 293.816 81.5875 293.864C81.8288 293.092 82.0215 292.306 82.1644 291.51L82.1585 291.539ZM86.861 229.568C86.2783 228.828 85.8995 228.105 85.3285 227.82C85.0604 227.692 84.3786 228.443 83.8833 228.799C84.2763 229.379 84.7468 229.902 85.2818 230.355C85.48 230.477 86.1209 229.935 86.8668 229.539L86.861 229.568Z" fill="black"/>
</g>
<defs>
<clipPath id="clip0_729_723">
<rect width="150" height="376.014" fill="white" transform="translate(0.160156 0.104492)"/>
</clipPath>
</defs>
</svg>
