<svg width="151" height="158" viewBox="0 0 151 158" fill="none" xmlns="http://www.w3.org/2000/svg">
<g clip-path="url(#clip0_729_535)">
<path d="M80.6426 109.284C78.9827 110.777 79.3406 112.524 80.0144 113.705C81.5753 116.438 80.5969 118.863 79.6337 121.319C77.2847 127.296 72.5982 130.783 66.7086 132.683C60.6515 134.636 54.5258 134.918 48.5677 132.169C44.2162 130.166 42.6705 126.702 42.0385 121.974C41.5208 118.109 43.7403 114.573 42.484 110.876C41.6845 108.523 40.9611 106.064 39.6667 103.974C38.1058 101.434 35.6768 101.598 34.3367 104.259C31.7593 109.284 29.0944 114.317 27.0994 119.606C26.0068 122.472 26.2657 125.834 25.7327 128.941C25.1807 132.158 24.4116 135.34 23.734 138.534C23.3152 140.514 22.6337 142.471 22.5119 144.466C22.0855 151.387 17.9433 156.173 11.1972 156.854C8.31898 157.144 5.3837 157.029 2.47888 156.904C0.575325 156.824 -0.292695 155.594 0.388777 153.778C1.52356 150.595 2.88492 147.497 4.46238 144.508C6.60197 140.602 7.08928 136.304 7.48142 132.097C7.96492 126.915 10.2378 122.735 13.1121 118.684C14.4941 116.739 15.8951 114.805 17.2505 112.837C17.8939 111.9 18.2898 110.739 19.0741 109.958C22.7631 106.288 23.7073 101.514 24.3126 96.7096C24.7979 92.7086 24.9964 88.678 24.9065 84.6487C24.8723 82.867 24.3545 80.7198 23.2581 79.3987C19.6264 75.0158 16.358 70.3443 13.4852 65.4304C9.46873 58.5357 6.81898 51.3708 7.64131 43.1741C8.20857 37.5205 8.50553 31.8327 8.68065 26.1525C8.78738 22.6226 8.62703 19.0897 8.20096 15.584C7.99918 13.9088 7.03979 12.2642 6.19081 10.7337C3.75045 6.35936 3.70857 6.38601 8.24664 4.01037C10.1502 3.01291 12.0538 2.00022 13.9268 0.964686C14.7978 0.432257 15.7951 0.142016 16.8158 0.123946C17.8364 0.105875 18.8434 0.36063 19.7327 0.861894C23.418 2.79971 26.4294 5.47991 27.64 9.62205C29.022 14.3276 30.4573 19.0484 31.3253 23.8568C31.9916 27.5154 33.6629 30.1804 36.7543 32.0611C39.6058 33.7934 41.7035 36.1766 43.8241 38.7731C47.3759 43.2432 51.9444 46.8 57.1489 49.1474C61.5309 51.0852 65.8634 53.1487 70.2949 54.9837C71.654 55.5472 73.2416 55.6119 74.7378 55.7718C78.2568 56.1245 81.6909 57.0693 84.8951 58.5662C89.6883 60.8124 94.6223 62.754 100.124 62.6741C102.891 62.6322 105.667 63.2109 108.446 63.4355C115.462 64.037 122.346 62.6741 129.21 61.6385C132.762 61.1094 136.143 59.419 139.592 58.2121C143.19 56.9672 146.684 56.4571 150.16 59.7083C148.74 60.8505 147.533 62.1601 146.056 62.971C139.946 66.3213 133.653 69.367 126.693 70.3949C120.705 71.2819 114.644 71.6969 108.613 72.2984C107.734 72.3898 106.835 72.3441 105.967 72.5002C101.837 73.2312 98.0144 72.8162 94.3406 70.4406C91.0284 68.2972 87.2022 68.2858 83.8406 70.1931C78.5373 73.2007 72.1032 70.886 69.7543 64.4825C68.7682 61.8175 67.0664 60.7363 64.5652 60.1918C61.3063 59.4799 58.0702 59.004 54.838 60.2261C51.7923 61.3682 51.0652 63.4012 52.7403 66.188C53.1258 66.8411 53.6308 67.4158 54.2289 67.8822C56.9319 69.9114 59.5588 72.07 62.4332 73.8289C67.3824 76.8746 72.64 79.372 77.4104 82.6309C81.6705 85.5358 85.5576 89.0345 89.4104 92.4913C95.1591 97.6462 101.46 101.96 107.86 106.269C114.96 111.047 121.539 116.693 127.866 122.488C131.802 126.085 133.995 131.084 135.004 136.441C135.099 136.939 135.039 137.488 135.225 137.941C136.066 139.981 136.835 142.128 135.442 144.093C133.951 146.249 132.239 148.244 130.333 150.043C126.526 153.554 121.683 153.93 116.822 153.927C114.157 153.927 112.253 151.97 112.588 149.282C113.639 140.96 110.049 134.564 104.616 128.807C101.407 125.408 98.418 121.787 95.0982 118.528C92.3076 115.795 89.3076 113.248 85.5271 111.816C83.8672 111.211 82.3939 110.21 80.6426 109.284Z" fill="black"/>
</g>
<defs>
<clipPath id="clip0_729_535">
<rect width="150" height="156.933" fill="white" transform="translate(0.160156 0.104248)"/>
</clipPath>
</defs>
</svg>
