<svg width="151" height="85" viewBox="0 0 151 85" fill="none" xmlns="http://www.w3.org/2000/svg">
<g clip-path="url(#clip0_729_543)">
<path d="M94.0815 59.7778C94.2154 60.4331 94.3894 61.0794 94.6026 61.7133C96.0319 65.1109 96.2165 68.6961 95.6389 72.2187C94.9629 76.3459 92.2532 79.0467 88.4417 80.6457C84.1567 82.4324 79.7616 83.1113 75.1521 82.1018C72.8325 81.5956 70.483 81.2085 68.1276 80.9107C63.6015 80.3539 59.2749 81.3842 55.0733 82.9415C52.6196 83.8527 50.172 84.3768 47.5337 84.0731C46.2265 83.9212 45.2915 83.4597 44.7019 82.2864C42.7544 78.3797 42.406 74.3032 43.7877 70.2028C45.1128 66.2841 46.6821 62.4459 48.2186 58.5897C49.636 55.0522 51.9348 52.4198 55.8058 51.3896C56.5562 51.19 57.1726 50.4962 57.9617 49.9334C56.443 47.983 54.5016 47.9354 52.712 47.6019C50.7794 47.2386 48.8409 46.9706 46.8845 46.6907C46.3912 46.6231 45.8917 46.6111 45.3957 46.655C41.2686 47.0183 37.1414 47.3518 33.0262 47.8044C31.8541 47.9862 30.7083 48.3091 29.6137 48.7662C24.8494 50.5528 20.085 51.595 14.8948 50.6094C11.7236 50.0138 8.39147 50.1627 5.13384 50.1598C1.36702 50.1598 -0.133756 48.6709 0.196771 44.9994C0.393301 42.8316 0.792317 40.6638 0.744673 38.502C0.691074 35.7744 2.44495 34.3331 4.31794 33.0944C5.62871 32.1932 7.13155 31.61 8.70711 31.3911C16.5207 30.5395 23.9352 28.0025 31.5433 26.2873C32.7097 26.0611 33.891 25.9198 35.0779 25.8645C39.4105 25.5369 43.743 25.1856 48.0816 24.9444C50.5412 24.8074 52.974 24.8014 55.252 26.1801C56.0589 26.6655 57.3006 26.5553 58.3369 26.5166C60.2813 26.4451 62.2079 26.201 64.1643 26.0878C64.8492 26.0491 65.5817 26.3499 66.2279 26.2069C69.8428 25.4 73.2791 26.4422 76.775 27.0466C79.4966 27.5171 82.2659 27.7166 84.9965 28.1484C90.669 29.0417 95.3768 27.1836 99.7035 23.5716C103.92 20.049 108.339 16.7616 112.761 13.4891C116.105 11.001 119.938 9.24942 124.008 8.3495C124.305 8.32889 124.598 8.26156 124.874 8.14999C128.203 6.05962 132.074 5.19311 135.624 3.55833C138.13 2.39596 140.694 1.36233 143.306 0.461499C145.647 -0.336532 147.374 0.163726 148.666 2.26898C150.122 4.62734 150.783 6.99463 149.417 9.99022C146.463 16.443 141.198 19.4594 134.844 21.4574C132.104 22.2758 129.501 23.496 127.119 25.0784C124.663 26.7757 121.885 27.2551 119.24 28.2467C116.691 29.2025 115.25 31.3911 113.603 33.3088C112.71 34.345 113.261 35.2771 114.604 35.7505C116.644 36.4741 118.645 37.3228 120.714 37.9481C124.243 39.0141 126.152 41.6047 127.521 44.779C128.284 46.5448 128.677 48.2332 127.777 50.1598C126.994 51.8362 126.938 53.9028 125.991 55.4393C123.722 59.0929 120.866 62.2374 116.397 63.3064C116.298 63.3191 116.203 63.3504 116.117 63.3987C113.467 65.4295 110.31 65.096 107.329 65.0067C104.369 64.9095 101.525 63.8329 99.2419 61.9456C97.4076 60.4448 97.4612 60.3793 94.0815 59.7778Z" fill="black"/>
</g>
<defs>
<clipPath id="clip0_729_543">
<rect width="150" height="84.0493" fill="white" transform="translate(0.160156 0.104248)"/>
</clipPath>
</defs>
</svg>
