<svg width="151" height="37" viewBox="0 0 151 37" fill="none" xmlns="http://www.w3.org/2000/svg">
<g clip-path="url(#clip0_729_415)">
<path d="M146.762 28.0584L144.397 29.8065C144.229 29.0876 144.021 28.3786 143.774 27.6826C143.604 27.2673 143.307 26.6777 142.944 26.5739C141.862 26.2645 141.715 25.3614 141.397 24.5496C140.658 22.6519 140.089 22.5294 138.715 23.9267C138.302 24.3784 137.794 24.733 137.228 24.9648C135.895 25.4216 134.517 25.7372 132.974 26.1607C133.95 24.3087 136.503 24.8049 137.267 23.009C137.139 22.8263 137.06 22.6249 136.981 22.6187C133.273 22.2927 129.529 21.1986 126.068 23.8291C125.209 24.4831 123.747 24.3689 122.553 24.5558C120.961 24.8029 119.362 25.0001 117.382 25.27L118.957 26.2811L117.259 26.8417C117.531 27.0825 117.674 27.3026 117.793 27.2964C119.128 27.2424 120.463 27.1511 121.862 27.0659C121.918 27.5829 121.989 28.2473 122.07 28.9345C122.827 29.464 123.349 28.9345 123.897 28.5359L123.847 28.5857L126.436 28.2037C126.382 27.857 126.334 27.558 126.276 27.178L128.56 26.1939C129.39 26.4534 128.682 28.0625 129.924 27.612C130.246 27.4936 130.296 26.6299 130.547 25.8513L132.069 25.6437V27.3774H138.322C137.579 28.0459 137.317 29.0155 135.928 29.1297C135.098 29.1982 134.419 30.2342 133.184 29.7899C132.289 29.4702 131.186 29.7276 130.125 30.0951L131.857 31.0502C129.988 31.6502 128.593 32.4122 126.857 31.7852C126.245 31.563 125.385 31.8537 124.688 32.0717C123.128 32.5596 121.677 33.1721 119.912 32.6717C118.943 32.3976 117.761 32.844 116.68 32.9935C114.734 33.2613 112.793 33.5624 110.846 33.824C110.52 33.8655 110.173 33.7077 109.832 33.6953C106.911 33.5894 104.019 32.9831 101.135 32.8316C97.6992 32.6552 94.2921 32.1109 90.9721 31.208C90.1894 31.0004 89.3444 31.017 88.5367 30.8758C87.9367 30.7699 87.3512 30.583 86.7616 30.4232C86.0432 30.228 85.3186 30.0515 84.6148 29.8128C83.9109 29.574 83.2383 29.2854 82.5614 28.9823C80.5807 28.129 78.4464 27.6224 76.6982 26.2271C76.3058 25.9136 75.5314 25.8929 74.9812 25.9967C73.2953 26.3123 71.6426 26.7981 69.9609 27.1365C68.0798 27.5165 66.1656 27.7345 64.297 28.1746C63.1011 28.4508 61.9758 29.0217 60.7965 29.3996C58.9113 30.0038 56.9721 30.4585 55.1243 31.1602C52.5685 32.1319 50.05 33.2136 47.5648 34.3555C44.1993 35.9002 40.6323 36.6144 36.9927 36.847C34.5283 37.0068 32.0368 36.8324 29.5641 36.6871C28.5571 36.6269 27.5792 36.1743 26.5702 36.0227C23.1506 35.5078 20.0156 34.0898 16.7663 33.035C15.7282 32.6966 14.6693 32.3893 13.6333 32.0302C10.0394 30.7844 6.79633 28.8535 3.5699 26.8915C2.58992 26.2957 1.63902 25.6458 0.719258 24.9565C0.198129 24.5703 -0.18597 24.0554 0.582228 23.2395C1.62033 23.7689 2.70619 24.3087 3.78167 24.8818C7.35483 26.7836 10.8408 28.8099 14.9122 29.6342C19.4799 30.5581 23.9687 31.9077 28.5114 32.9894C29.5682 33.2406 30.708 33.1451 31.8064 33.2281C37.5533 33.6641 43.0179 32.5243 48.3413 30.4066C53.0066 28.5504 57.6842 26.7192 62.3931 24.9814C64.0541 24.3586 65.8811 24.1509 67.266 22.6851C67.1206 22.4775 67.023 22.1578 66.8258 22.0768C65.1648 21.3875 63.5039 20.694 61.8097 20.0919C58.7327 18.9999 55.662 17.8704 52.5353 16.9402C48.933 15.8689 45.2685 14.999 41.6351 14.0336C38.9174 13.3152 36.2059 12.5802 33.4839 11.8784C30.162 11.0251 26.8048 10.2465 23.4849 9.36C21.1554 8.73714 18.693 8.3219 16.5877 7.22566C13.0582 5.39859 9.30439 4.39786 5.53814 3.32238C3.99552 2.876 2.52348 2.13894 1.03277 1.54099C1.17395 0.490431 1.80096 0.0876459 2.62314 0.106332C3.64256 0.141627 4.72842 0.154085 5.65649 0.507041C12.3253 3.04002 19.2432 4.52243 26.2504 5.69757C29.3128 6.21247 32.3275 6.98482 35.3858 7.54955C38.226 8.07691 41.087 8.48384 43.9397 8.94061C44.2117 8.98421 44.5169 8.94061 44.7578 9.05065C47.5773 10.313 50.6708 10.3151 53.6086 11.0147C55.5354 11.4736 57.4019 12.1712 59.3078 12.7255C60.892 13.1865 62.5696 13.4148 64.0644 14.0668C66.8653 15.2897 69.8114 15.9208 72.7243 16.7326C74.8338 17.3202 76.856 18.2566 78.8761 19.1286C80.8963 20.0006 82.8853 20.9307 85.1048 21.1736C85.5165 21.2096 85.9116 21.3528 86.2508 21.5889C88.1817 23.0838 90.6109 23.0941 92.7888 23.8125C93.0587 25.8576 93.092 25.8887 95.2201 25.7475C94.7861 25.106 94.4332 24.589 93.9889 23.935C95.4422 23.9599 96.8229 23.7274 97.234 25.6894C97.3253 26.1233 98.0749 26.5406 98.6064 26.7275C99.6777 27.1241 100.805 27.3628 102.2 27.7449C101.335 25.7164 99.821 25.324 98.2223 25.0063C99.6881 25.3593 101.573 23.8582 102.447 25.9718C102.848 25.7641 103.209 25.4008 103.558 25.4153C107.088 25.5545 110.547 25.1683 114.041 24.724C117.581 24.2755 121.16 24.0886 124.59 23.063C127.547 22.1827 130.516 21.2422 133.31 19.9757C134.89 19.2635 136.103 17.7687 137.569 16.7513C139.759 15.2315 142.032 15.6011 144.711 16.6786L143.212 17.1292V17.397C143.768 17.397 144.387 17.559 144.873 17.37C146.97 16.5395 149.359 17.8392 149.916 20.0027C150.823 23.5322 149.085 25.9261 146.7 28.0999C146.673 27.5725 146.907 26.904 145.811 26.74C145.853 27.5268 145.682 28.1912 146.762 28.0584ZM115.359 28.5068C115.64 27.5829 115.887 26.769 116.177 25.8077C115.638 25.0541 114.745 25.324 113.86 25.4548C112.11 25.7122 110.416 26.4784 108.574 26.0112C108.367 25.9552 108.043 26.2666 107.773 26.4078C107.789 26.5427 107.808 26.6777 107.825 26.823C108.607 26.8583 109.423 27.0514 110.167 26.8998C111.884 26.551 113.281 27.1448 114.608 28.0854C114.851 28.2392 115.101 28.3799 115.359 28.5068ZM134.186 20.3971C135.874 20.2477 136.574 19.6995 136.647 18.5971C135.339 18.5493 134.847 19.5916 134.186 20.3971ZM138.144 18.896C139.128 18.1984 139.128 18.1984 138.144 17.2849V18.896ZM114.087 30.1076L114.145 29.6923H113.217C113.217 29.7982 113.217 29.9 113.2 30.01L114.087 30.1076ZM105.367 27.3005L105.782 26.8853C105.501 26.6984 105.223 26.5033 104.931 26.3372C104.906 26.3247 104.683 26.5884 104.696 26.6009C104.893 26.8479 105.128 27.0763 105.358 27.3026L105.367 27.3005Z" fill="black"/>
</g>
<defs>
<clipPath id="clip0_729_415">
<rect width="150" height="36.7967" fill="white" transform="translate(0.160156 0.104248)"/>
</clipPath>
</defs>
</svg>
