<svg width="151" height="180" viewBox="0 0 151 180" fill="none" xmlns="http://www.w3.org/2000/svg">
<g clip-path="url(#clip0_729_659)">
<path d="M66.3722 18.4816C69.347 14.4703 72.954 11.0256 76.5161 7.56713C78.5304 5.60813 81.0077 4.0741 83.4262 2.58844C84.4178 1.9769 86.1695 1.37572 86.933 1.83524C89.1684 3.1827 90.5435 2.22911 92.1881 0.107727C94.04 5.76706 90.9685 11.0014 92.24 16.0285L93.197 16.1874L95.5464 9.43284L98.2103 8.45162L100.753 11.3608L99.9274 13.0192C99.8618 14.2042 102.64 15.3824 105.78 15.3409L103.683 11.1949C106.267 10.2171 107.522 8.39634 107.321 5.349C109.985 9.45358 109.543 14.028 106.202 17.3069C102.619 20.8344 99.0671 24.4657 95.0524 27.4439C91.2311 30.2736 86.7603 32.2291 82.7041 34.7513C80.3754 36.1955 78.2713 37.9956 76.0773 39.654C75.6247 39.9995 75.3 40.6076 74.8059 40.7838C67.9269 43.2541 61.9014 47.7215 54.6631 49.3419C52.2446 49.8843 49.8502 50.5649 47.062 51.2836C47.563 52.1543 47.7219 52.8694 48.0985 53.0111C50.3547 53.823 52.1375 55.5989 54.9637 55.3329C57.7899 55.0668 60.6161 55.8477 63.4527 56.1172C65.2666 56.2934 67.1219 56.2001 68.8978 56.5318C74.5226 57.5856 80.1163 58.8156 85.7341 59.9108C87.51 60.2563 89.3274 60.4014 91.124 60.6294C91.3486 60.6571 91.6422 60.5292 91.815 60.6294C95.5188 63.0099 99.7097 62.5677 103.794 62.7025C105.566 62.7577 106.412 64.0257 107.276 65.2143C108.313 66.6654 107.235 67.6742 106.482 68.8731C105.397 70.6006 104.661 72.5389 103.738 74.3666C100.242 81.3043 96.6382 88.1867 93.2627 95.1866C91.4868 98.8697 90.0944 102.736 88.2218 107.279C90.2188 106.968 91.4971 106.854 92.734 106.564C97.1864 105.518 101.633 104.433 106.074 103.309C107.406 102.978 108.713 102.548 109.982 102.024C114.539 100.117 119.479 100.756 124.185 99.8164C128.438 98.9699 132.705 98.1787 136.989 97.5118C139.909 97.0558 142.863 96.4753 145.762 97.8332C146.888 98.3652 148.135 98.6416 149.659 99.1461L150.181 102.459C149.144 102.546 148.36 102.591 147.596 102.67C146.926 102.739 145.952 102.594 145.644 102.974C143.882 105.134 141.498 104.529 139.259 104.65C133.776 104.947 128.269 105.047 122.817 105.648C119.832 105.994 116.943 107.193 114.007 107.949C113.128 108.18 112.223 108.296 111.315 108.295C109.56 108.278 108.036 108.889 106.392 109.446C103.282 110.499 100 111.066 96.7522 111.608C94.161 112.037 91.5075 112.085 88.892 112.379C86.7188 112.624 85.437 113.457 84.5353 115.906C82.172 122.43 81.5985 129.305 79.8502 135.946C79.0508 138.81 78.4379 141.723 78.0156 144.666C77.3246 150.125 76.523 155.608 76.4332 161.091C76.3503 166.274 76.0152 171.619 78.9036 176.418C79.4045 177.25 79.2042 178.491 79.3562 179.786C73.4308 179.607 70.1623 175.986 66.9526 172.292C66.0612 171.256 66.0509 170.002 66.8559 169.114C69.9654 165.659 70.0172 161.233 70.3662 157.135C71.0226 149.489 71.5824 141.847 72.6396 134.239C73.1751 130.393 73.3133 126.489 73.5794 122.609C73.6139 122.081 73.3479 121.531 73.1717 120.778C70.266 121.168 67.4985 121.334 64.9072 122.803C62.316 124.271 59.5554 125.401 56.8709 126.693C56.2524 126.99 55.4439 127.18 55.0881 127.678C53.5229 129.872 51.1666 130.787 48.831 131.668C43.0646 133.852 37.2152 135.814 31.4902 138.091C29.1581 139.017 26.9987 138.813 24.7771 138.191C23.1843 137.749 21.633 137.155 19.9401 136.595C20.9109 134.083 23.1049 133.81 24.7771 133.385C26.887 132.846 28.8027 131.724 30.3051 130.148C34.5919 125.826 39.6251 122.314 45.1618 119.783C53.6128 115.941 62.4369 113.087 71.2541 110.302C75.0858 109.09 76.9238 107.621 78.0709 103.575C79.5497 98.3411 80.7866 92.965 82.7628 87.9069C84.1944 84.1286 85.0278 80.1501 85.2332 76.1149C85.4232 73.2437 84.3487 71.6233 81.5501 70.7769C77.9431 69.7092 74.3567 68.5484 70.6979 67.6673C69.135 67.2666 67.4963 67.2666 65.9334 67.6673C61.8254 68.9146 58.0283 67.3944 54.1172 66.807C53.7717 66.7587 53.4538 66.4615 53.1463 66.4857C48.3749 67.0316 44.2289 64.8653 39.8721 63.542C38.3934 63.0929 36.728 63.1965 35.1456 63.1551C32.0776 63.0825 29.0441 63.6768 25.9311 62.7439C21.5467 61.4345 17.0482 62.1635 12.6465 63.0238C8.84597 63.7631 5.62934 62.7543 2.75131 60.3288C-0.482599 57.5994 -0.58625 54.0614 2.15704 50.7826C5.03508 47.3276 8.75614 46.2738 13.0162 45.7348C16.1257 45.3409 19.1074 43.8726 22.2066 43.1539C27.7346 41.8686 32.5336 39.0079 37.5123 36.465C41.2507 34.5647 45.4105 33.4418 49.0072 31.3308C53.6611 28.5979 58.2494 25.6646 62.0154 21.6395C63.2246 20.3542 64.9383 19.5423 66.4171 18.5299L65.3806 20.9657L67.7991 22.676C67.3016 23.9267 66.5518 25.1394 66.3618 26.4385C66.0405 28.6393 66.0578 30.8817 65.1491 32.9823C64.9867 33.3589 65.1249 33.8668 65.1249 34.3643L67.8475 35.0553L72.4565 32.1807C72.2181 28.8743 69.1362 26.0204 70.4284 22.3132L67.7196 22.7727C67.4985 21.9504 67.2912 21.1247 67.0286 20.3093C66.8041 19.6494 66.576 19.0689 66.3722 18.4816ZM96.2098 17.0097C96.0647 17.2447 97.0148 18.2155 97.4985 18.8996L99.4195 17.0581V20.6168L102.975 17.7456C101.524 16.1252 100.363 14.4841 98.4832 14.6776C97.5918 15.5655 96.7315 16.1736 96.2098 17.0097Z" fill="black"/>
</g>
<defs>
<clipPath id="clip0_729_659">
<rect width="150" height="179.644" fill="white" transform="translate(0.160156 0.104248)"/>
</clipPath>
</defs>
</svg>
