<svg width="151" height="320" viewBox="0 0 151 320" fill="none" xmlns="http://www.w3.org/2000/svg">
<g clip-path="url(#clip0_729_793)">
<path d="M111.549 21.423C112.721 25.8752 114.279 30.2701 114.96 34.7962C115.559 38.547 115.526 42.3716 114.861 46.1114C113.714 51.9658 111.787 57.6725 110.098 63.4121C108.458 68.9795 108.31 83.6811 109.958 88.9369C110.196 89.7076 110.877 90.5768 110.663 91.1917C106.998 101.539 116.067 102.917 121.585 106.697C123.996 108.337 126.652 109.64 129.497 111.272C128.923 112.39 128.277 113.469 127.562 114.503C124.807 117.905 125.004 120.652 128.604 123.522C130.334 124.908 132.006 127.368 132.195 129.467C132.876 137.149 136.204 144.226 136.983 152.343C133.056 153.712 128.62 155.188 133.064 160.46C130.703 163.74 128.53 167.208 125.898 170.3C124.619 171.739 122.88 172.689 120.978 172.989C112.639 173.809 109.934 179.934 107.859 186.592C104.793 196.431 96.5685 201.572 89.2465 207.525C87.9708 208.603 86.3494 209.185 84.6794 209.165C75.6601 208.148 66.2471 208.87 58.1789 203.761C50.7256 199.03 50.1763 193.611 55.9159 187.051C56.9572 185.87 57.9575 184.657 59.5154 182.82C55.4157 179.95 51.8572 177.13 47.9952 174.785C31.498 164.773 17.764 151.859 7.53936 135.493C-0.660054 122.333 -2.29994 108.263 3.91522 93.7171C4.66821 91.9868 5.6954 90.3893 6.9572 88.9861C10.7289 84.7716 14.4679 80.4833 18.6086 76.6378C21.5848 73.8947 24.8735 71.5114 28.4069 69.5371C35.2982 65.6933 41.1949 60.2909 45.6256 53.7614C48.2412 49.9733 47.8559 46.0048 48.3314 42.1511C50.5125 24.6289 60.8355 13.4121 75.6355 5.38491C75.8732 5.25372 76.0946 4.99134 76.3324 4.99134C80.0467 4.91755 83.9005 5.47511 87.4344 4.65516C90.7962 3.83522 93.8381 1.67878 97.0113 0.104492L97.9296 1.67058L91.9933 6.86081C94.1907 9.14024 96.093 11.1163 98.602 13.7073L96.339 20.357C101.857 18.3646 106.892 18.8319 111.606 21.6033L111.549 21.423ZM96.7899 155.778C97.3504 155.231 97.8233 154.6 98.192 153.909C98.3649 153.213 98.3103 152.481 98.0362 151.818C97.9379 151.548 96.8391 151.31 96.7735 151.425C96.1935 152.155 95.8021 153.016 95.6338 153.934C95.6338 154.516 96.4538 155.131 96.9129 155.729C96.7735 158.517 96.298 161.362 96.6751 164.084C96.8145 165.101 99.9549 166.708 100.012 166.602C102.726 163.478 106.285 165.995 109.245 165.511C109.245 157.861 108.95 157.459 103.095 156.574C101.013 156.262 98.8562 156.074 96.8063 155.778H96.7899ZM46.1586 116.757C41.1651 120.349 41.5997 124.391 43.5594 128.696C48.2494 138.994 56.3258 146.661 64.0087 154.59C64.6801 155.189 65.4677 155.644 66.3225 155.926C67.1774 156.209 68.0811 156.312 68.9775 156.229C74.7171 155.352 80.7355 147.768 80.1205 141.93C79.8909 139.773 78.62 137.01 76.9064 135.846C66.9933 129.393 56.8014 123.309 46.1586 116.757ZM129.899 145.578C127.489 144.004 126.004 143.004 124.455 142.126C124.406 142.126 123.249 143.34 123.34 143.865C123.758 146.366 125.078 147.694 129.899 145.578ZM88.4019 52.3921L90.4846 52.8431C92.2803 51.0064 93.4364 49.0796 90.2222 45.4636C89.4433 48.4154 88.9267 50.3997 88.4019 52.3921ZM122.511 170.595C123.331 168.889 123.84 168.225 123.856 167.536C123.873 166.848 123.323 166.282 123.036 165.651C122.511 166.069 121.708 166.413 121.552 166.938C121.396 167.463 121.839 168.25 122.511 170.595Z" fill="black"/>
<path d="M85.6143 275.473C74.6599 271.931 64.2303 268.75 56.6622 259.698C54.7354 257.394 51.5294 255.967 48.6678 254.68C41.0342 251.236 39.4025 246.94 45.265 241.028C50.3487 235.911 56.4408 231.131 62.9922 228.343C70.2568 225.252 75.7996 220.595 81.5966 215.667C87.6888 210.485 95.0929 207.845 103.309 209.247C108.827 210.182 111.59 214.429 110.787 219.906C109.147 231 103.095 238.183 92.1821 241.159C89.5353 241.753 86.9536 242.608 84.4746 243.709C80.3749 245.759 79.6288 248.112 81.531 252.351C82.9056 255.608 84.5858 258.726 86.5491 261.666C89.7058 266.175 88.9515 270.226 85.6143 275.473Z" fill="black"/>
<path d="M106.597 319.357C103.202 318.619 99.6849 318.217 96.4297 317.069C91.9036 315.487 90.6901 311.477 93.0351 307.279C95.741 302.409 106.777 297.53 112.115 298.85C115.469 299.67 120.077 306.229 120.044 310.173C120.044 314.544 116.994 317.553 111.582 318.373C109.983 318.627 108.352 318.643 106.736 318.766L106.597 319.357Z" fill="black"/>
<path d="M148.176 89.1337C146.913 92.5856 145.65 96.0458 144.289 99.7929C142.28 100.875 140.042 102.753 137.525 103.269C134.86 103.802 131.473 103.811 129.325 102.54C128.153 101.851 128.85 97.9809 128.686 95.1603C135.147 95.0455 140.419 94.5781 144.412 90.175C145.158 89.3551 146.921 89.4535 148.217 89.1255L148.176 89.1337Z" fill="black"/>
<path d="M139.738 73.9647C140.705 77.3019 141.378 79.7043 142.198 82.5331C135.605 78.8188 135.45 78.3186 139.738 73.9647Z" fill="black"/>
<path d="M124.314 17.9218C126.012 13.404 127.594 13.076 130.349 16.3639L124.314 17.9218Z" fill="black"/>
<path d="M111.606 21.6034L113.426 13.5844L115.238 14.1829C113.992 16.5607 112.778 18.9468 111.516 21.3738C111.552 21.4478 111.582 21.5246 111.606 21.6034Z" fill="black"/>
<path d="M108.393 6.22949L106.982 4.5896C107.786 4.10234 108.66 3.74275 109.573 3.52368C109.893 3.52368 110.336 4.6388 110.721 5.24556L108.393 6.22949Z" fill="black"/>
<path d="M148.192 89.1583C147.102 86.5262 145.946 83.8778 149.447 80.0487C148.889 83.9926 148.529 86.5344 148.176 89.0681C148.172 89.0834 148.171 89.0994 148.174 89.115C148.177 89.1306 148.183 89.1454 148.192 89.1583Z" fill="black"/>
<path d="M150.159 72.9316L149.339 76.4081C148.862 76.2733 148.395 76.1005 147.945 75.8916C148.183 74.7765 148.536 73.6859 148.864 72.6118L150.159 72.9316Z" fill="black"/>
</g>
<defs>
<clipPath id="clip0_729_793">
<rect width="150" height="319.252" fill="white" transform="translate(0.160156 0.104492)"/>
</clipPath>
</defs>
</svg>
