<svg width="151" height="213" viewBox="0 0 151 213" fill="none" xmlns="http://www.w3.org/2000/svg">
<g clip-path="url(#clip0_729_715)">
<path d="M122.392 87.6195L116.152 85.7548C116.456 89.4254 114.489 90.4202 111.795 91.2607C106.219 92.9602 100.761 95.0525 95.2769 97.0567C94.5207 97.3319 93.8967 98 93.2544 98.5249C92.8873 98.8259 92.579 99.5747 92.3257 99.538C89.2717 99.1122 87.5539 101.634 85.0909 102.842C84.5954 102.427 84.1255 102.078 83.7071 101.674C81.9745 100.004 81.156 100.004 79.3464 101.359C77.6175 102.654 75.7382 103.748 73.9799 105.007C72.141 106.304 70.4091 107.746 68.8007 109.32C67.6995 109.662 66.1688 107.422 65.0897 109.871C65.0383 109.985 64.6015 110.051 64.418 109.966C61.3016 108.571 60.0793 111.383 58.3541 112.84C57.8218 113.292 57.6677 114.624 57.8696 115.41C58.1412 116.463 59.1433 116.786 60.2518 116.338C62.1348 115.575 63.7205 116.243 65.4567 117.091C68.9438 118.794 72.5631 120.237 76.1603 121.712C76.8613 121.931 77.5977 122.013 78.3296 121.954C82.1874 121.929 86.0783 122.164 89.8957 121.749C95.9192 121.092 101.957 120.2 106.913 116.151C107.261 115.869 107.867 115.931 108.297 115.725C111.207 114.327 113.74 112.484 115.271 109.544C116.688 106.854 117.983 104.097 119.496 101.469C121.999 97.097 125.178 93.2943 129.616 90.7469C130.533 90.2183 131.682 89.7631 132.706 89.7998C137.478 89.9613 142.29 90.4936 146.027 93.8742C149.044 96.6052 150.799 100.184 149.925 104.302C149.558 106.05 148.09 107.709 146.787 109.074C144.015 111.959 140.547 114.165 138.473 117.73C137.539 119.405 136.47 121.001 135.276 122.501C133.183 125.008 131.065 127.537 128.669 129.722C127.013 131.219 124.847 132.151 122.428 133.642C123.614 134.684 124.488 135.62 125.519 136.336C131.983 140.825 136.861 146.573 139.912 153.882C141.13 156.8 142.657 159.589 144.056 162.43C146.115 166.611 147.547 170.906 147.359 175.692C147.29 177.594 147.848 179.565 148.376 181.433C149.881 186.737 148.618 188.591 143.428 190.07C137.863 191.66 134.05 189.56 130.669 185.449C126.58 180.479 122.961 175.12 118.266 170.638C116.322 168.781 114.925 166.425 114.228 163.829C113.626 161.652 112.309 159.648 111.127 157.677C110.76 157.06 109.783 156.403 109.111 156.433C100.963 156.767 97.1012 150.424 92.2266 145.7C91.0006 144.514 89.8811 143.222 88.7175 141.974C86.3646 139.445 83.2115 138.671 80.0365 138.74C75.4356 138.891 70.9016 139.886 66.6607 141.677C62.1495 143.512 58.8827 146.324 55.8948 149.925C54.1255 152.061 51.6736 153.621 49.8456 155.717C40.669 166.259 30.9162 176.272 20.9321 186.051C18.1498 188.774 15.1068 191.304 12.7062 194.336C10.1882 197.518 8.474 202.011 12.0969 205.494C13.2546 206.571 14.3272 207.735 15.305 208.978C16.0391 209.972 16.5384 211.18 17.4377 212.832C16.0502 212.832 15.2353 213.085 14.7691 212.788C12.4199 211.319 10.0927 209.785 7.89037 208.104C5.87153 206.566 3.81965 204.988 2.14217 203.105C-0.287779 200.377 -0.405239 197.4 1.56589 194.413C4.59018 189.858 8.3673 185.851 12.7356 182.564C13.9616 181.631 14.8902 180.277 15.8703 179.051C16.3952 178.394 16.6044 177.41 17.1991 176.885C21.0239 173.582 23.9567 169.57 26.7133 165.4C30.7253 159.325 34.8474 153.324 38.7199 147.164C40.5149 144.309 41.8546 141.163 43.3523 138.124C43.6055 137.61 43.5982 136.971 43.7193 136.424C42.519 135.106 41.1756 134.827 39.6413 135.099C37.6298 135.466 35.6256 135.925 33.5994 136.101C29.9545 136.424 26.4344 136.835 23.0023 138.461C20.264 139.768 17.2101 140.109 14.5012 137.547C13.5652 136.659 11.8767 136.512 10.4965 136.152C9.11636 135.793 7.56001 135.785 6.23125 135.257C3.23602 134.108 2.69644 131.48 4.72262 128.888C6.04772 127.189 7.65912 126 9.81744 125.585C10.7664 125.399 11.6853 125.084 12.5484 124.649C18.2856 121.712 24.3348 119.877 30.8061 120.101C34.7483 120.244 36.7598 118.467 38.1473 114.962C39.8872 110.616 41.3408 106.215 41.1499 101.546C41.0471 99.0718 40.2579 96.5281 39.3146 94.2046C38.485 92.2114 37.1122 90.4055 35.7174 88.6986C34.9245 87.7223 33.6545 87.1313 32.5826 86.3531C32.5826 86.1439 32.4285 85.7732 32.5313 85.6924C35.354 83.3726 35.1961 80.7591 33.9004 77.584C31.7935 72.4158 30.0683 67.0934 28.266 61.8003C27.5319 59.6163 27.062 57.3332 26.3573 55.1308C25.2268 51.6672 23.7033 48.3444 21.8167 45.2275C20.2861 42.658 19.5152 39.6518 18.392 36.8438C17.8047 35.3755 17.3496 33.8338 16.5567 32.4941C13.2788 26.9551 10.6837 21.0527 7.549 15.4734C5.3303 11.4194 3.38185 7.22335 1.71638 2.91252C1.46678 2.30687 1.4521 1.57274 1.18047 0.104492C3.4636 2.20409 4.47669 4.21192 5.48244 6.18304C6.92499 9.00575 8.6612 11.6082 10.4011 14.2584C12.6952 17.7235 15.4005 20.6893 18.1901 23.6993C19.6364 25.2593 20.3925 27.4506 21.4717 29.363C23.9041 33.7017 26.323 38.044 28.7285 42.3901C29.0122 42.7902 29.2314 43.2324 29.3782 43.7005C30.6262 50.7591 34.6639 56.7495 37.1232 63.3346C39.12 68.6607 41.0251 74.0235 43.1137 79.3129C44.1341 81.9043 45.5656 84.3306 46.6521 86.9C47.3089 88.3178 47.7316 89.8326 47.9038 91.3855C48.2085 95.7279 49.0491 99.7876 51.9415 103.275C52.8335 104.354 53.1969 105.87 53.9824 107.573C55.0836 107.272 56.2912 107.279 56.9886 106.677C59.5911 104.427 62.8249 104.068 65.9082 103.921C68.3162 103.803 69.8798 102.985 70.9737 101.102C72.3355 98.7635 73.9836 97.7467 76.6778 98.9911C77.3496 99.3031 78.5535 99.3581 79.0637 98.947C80.3888 97.934 81.8968 97.1862 83.5052 96.7446C84.1879 96.5391 84.7899 95.4085 85.0505 94.579C85.9755 91.6425 87.5135 89.6603 90.7033 88.5995C93.6581 87.6195 96.2349 85.5492 99.0503 84.0994C102.277 82.4366 105.602 80.9646 108.851 79.3275C109.921 78.7866 110.93 78.1319 111.861 77.3748C113.094 76.3837 114.17 75.2054 115.385 74.1923C119.488 70.7787 119.507 70.7933 123.886 75.1797C122.417 75.8772 121.052 76.4608 119.749 77.1766C118.352 77.9176 117.003 78.7463 115.711 79.6579C114.658 80.4214 113.509 81.2473 112.874 82.3228C112.547 82.8697 112.988 84.2388 113.527 84.8188C113.894 85.2152 115.3 85.2262 115.803 84.8408C119.841 81.7502 123.93 78.6889 127.714 75.2972C131.385 71.9936 134.486 70.819 139.067 71.9239C139.009 73.572 138.168 75.4147 139.838 76.9306C140.114 77.1839 139.611 78.7659 139.067 79.3422C138.275 80.0981 137.332 80.6774 136.3 81.0417C133.525 82.1429 130.636 83.0055 127.927 84.2572C125.853 85.2189 123.992 86.6284 122.392 87.6195ZM131.014 168.182C131.073 164.537 129.95 162.309 128.812 160.254C127.013 156.969 125.108 153.669 122.718 150.817C121.32 149.143 118.552 148.662 117 147.058C112.859 142.789 107.684 144.323 102.772 143.729C103.316 146.548 103.36 146.449 105.676 147.48C109.181 149.044 112.988 150.31 114.118 154.715C114.258 155.254 114.768 155.754 115.219 156.154C118.372 159.006 121.459 161.942 124.763 164.596C126.4 165.936 128.448 166.751 131.014 168.182ZM29.3378 129.6C34.0766 132.056 38.9842 133.546 44.4351 133.385C44.3653 132.676 44.4351 132.126 44.2736 132.019C43.4697 131.538 42.6291 130.995 41.7372 130.819C37.6554 130.015 33.6104 128.848 29.3341 129.6H29.3378Z" fill="black"/>
</g>
<defs>
<clipPath id="clip0_729_715">
<rect width="150" height="212.837" fill="white" transform="translate(0.160156 0.104492)"/>
</clipPath>
</defs>
</svg>
