<svg width="151" height="296" viewBox="0 0 151 296" fill="none" xmlns="http://www.w3.org/2000/svg">
<g clip-path="url(#clip0_729_779)">
<path d="M28.3466 118.099C26.8997 115.604 25.5882 113.546 24.4779 111.387C23.031 108.547 21.7389 105.63 20.3887 102.74C18.9708 99.7424 18.0846 96.5209 17.7696 93.2196C17.5027 90.4573 17.9785 87.9079 18.3035 85.2733C18.4428 84.1475 18.7174 82.9947 18.6168 81.8844C17.9514 74.6074 22.265 68.2434 29.5381 66.4097C32.223 65.7327 35.0974 65.841 37.8635 65.4464C41.5465 64.9241 45.214 64.2858 48.8815 63.6436C52.3633 63.0362 56.112 62.9975 59.2263 61.57C64.5805 59.1018 70.1824 57.4073 75.5985 55.1751C76.7339 54.6589 77.7987 53.9998 78.767 53.2136C83.8349 49.345 88.8951 45.4763 93.9051 41.5341C96.1837 39.7429 97.3134 37.4024 96.7176 34.4235C96.6436 34.1725 96.6278 33.9079 96.6712 33.6498C97.6577 30.0751 97.1199 26.5701 96.2417 23.0728C96.1113 22.7002 96.0832 22.2994 96.1605 21.9122C97.4256 18.0436 96.3655 14.0898 96.6209 10.1785C96.853 6.69674 98.9769 4.91715 101.693 3.6018C104.006 2.51259 106.392 1.58574 108.834 0.827965C110.285 0.367593 111.929 -0.0889099 113.364 0.135473C117.62 0.793147 121.93 0.990449 126.042 2.8977C131.481 5.42008 134.186 9.86131 135.683 15.0879C136.843 19.1925 136.341 23.4094 134.851 27.5605C132.511 34.0869 131.857 40.7643 134.023 47.5615C134.36 48.6138 134.07 50.0452 133.636 51.1207C132.835 53.055 132.402 54.854 132.797 57.0514C133.191 59.2488 132.476 61.6706 132.758 63.926C133.168 67.2066 133.656 70.5646 134.785 73.6441C136.861 79.3007 139.231 84.8444 141.888 90.2523C142.855 92.2253 144.983 93.6103 146.562 95.2816C147.468 96.1582 148.286 97.1223 149.003 98.1599C150.937 101.274 150.419 102.226 147.947 104.71C143.652 109.027 137.838 109.592 132.549 111.089C129.586 111.928 125.996 110.594 122.696 110.191C121.067 109.994 119.45 109.689 117.589 109.398C117.415 110.52 117.276 111.426 117.067 112.791C115.04 111.015 114.08 107.677 110.343 109.743L112.556 111.058C112.293 112.455 112.018 113.925 111.697 115.65C109.047 115.65 106.215 114.938 104.443 116.911C106.795 122.633 110.27 127.809 107.391 134.32C106.683 135.914 106.618 137.802 106.405 139.597C106.223 141.075 106.908 142.085 107.999 143.241C111.125 146.572 113.976 150.166 116.819 153.753C119.891 157.621 122.359 161.981 127.385 163.97C130.39 165.161 131.288 167.742 129.706 170.694C127.829 174.175 127.303 177.936 126.201 181.592C125.114 185.021 123.603 188.302 121.701 191.356C117.684 198.031 114.264 205.048 111.48 212.324C109.349 217.822 109.368 223.667 109.62 229.435C109.836 234.465 111.685 239.01 113.713 243.645C116.192 249.313 120.104 253.344 124.851 256.915C127.52 258.923 130.054 261.112 132.642 263.228C133.416 263.867 134.348 264.459 133.605 265.936C133.133 265.878 132.58 265.971 132.209 265.751C125.148 261.561 117.875 257.677 111.136 253.019C103.453 247.773 99.7622 240.074 99.8628 230.677C98.1877 226.704 99.7351 222.611 99.739 218.626C99.739 213.713 101.213 208.742 102.447 203.902C103.747 198.83 105.492 193.867 107.132 188.884C107.614 187.445 108.25 186.063 109.028 184.76C111.666 180.292 110.653 175.541 109.484 171.131C108.78 168.469 106.432 166.14 104.509 163.935C100.962 159.873 96.5977 156.704 92.2609 153.54C91.9475 153.312 91.4523 153.215 91.2937 152.921C88.8294 148.279 84.1096 148.147 79.9082 147.768C74.3102 147.265 68.6272 147.381 62.9982 147.64C56.4834 147.93 49.9918 148.704 43.4847 149.161C41.7941 149.28 41.1635 150.174 41.1905 151.594C41.2447 155.432 41.353 159.273 41.5774 163.103C41.8676 168.457 42.5639 173.75 44.2855 178.872C44.5622 179.866 44.6926 180.896 44.6723 181.928C44.7613 186.52 44.3977 191.167 44.978 195.693C45.4538 199.403 45.5621 203.159 46.1927 206.881C46.715 209.976 45.2643 213.384 44.7652 216.665C43.9915 221.694 41.2834 226.155 40.97 231.412C40.6799 236.055 39.0009 240.624 38.2233 245.274C37.8364 247.595 38.0221 250.044 38.0801 252.431C38.1382 254.818 38.3471 257.216 38.5289 259.603C38.5295 260.359 38.6604 261.109 38.9158 261.82C41.2022 266.803 43.5582 271.751 45.8794 276.73C46.6106 278.312 46.8233 280.336 47.9569 281.488C50.9963 284.545 54.2267 287.406 57.6285 290.054C60.1316 292.027 60.4178 292.019 61.1568 294.855C58.5609 295.578 56.3712 294.162 54.3982 293.149C49.9918 290.889 45.8871 288.077 42.6645 284.177C42.2119 283.628 41.3569 283.431 40.7302 283.017C39.3452 282.123 37.701 281.442 36.6642 280.239C33.43 276.525 30.2074 272.768 27.4877 268.691C25.6694 265.983 24.7796 262.64 23.3444 259.638C20.0405 252.675 18.8799 245.196 19.0888 237.672C19.2376 232.587 19.08 227.499 18.6168 222.433C18.3809 219.837 19.1275 217.118 19.6614 214.499C20.4754 210.842 20.4991 207.054 19.731 203.388C19.437 202.057 19.7852 200.579 19.4989 199.241C18.4157 194.037 18.3422 188.613 15.7115 183.712C14.8217 182.037 15.0964 179.754 14.752 177.766C14.5758 176.644 14.2801 175.544 13.87 174.485C11.7925 169.405 10.8872 163.881 8.01668 159.099C6.7052 156.913 5.72643 154.77 6.02432 151.946C6.20615 150.255 4.80182 148.398 4.41495 147.501C2.86748 146.487 1.38965 146.073 1.173 145.307C-0.416559 139.985 -0.157481 134.281 1.90805 129.125C4.80182 121.999 10.7596 118.873 18.5279 119.503C21.6615 119.766 24.8609 119.77 28.3466 118.099ZM96.1566 68.0693C95.2978 67.489 94.3035 67.1912 94.1449 66.6495C93.4099 64.1504 92.0558 64.5024 90.3652 65.5547C87.6572 67.2337 85.0922 69.2686 82.1791 70.4408C76.8984 72.5647 71.4977 75.0523 65.6173 72.1508C65.0113 71.9262 64.3717 71.8059 63.7256 71.7949C55.8219 70.8973 47.9066 70.4331 39.9448 70.9941C38.32 71.1063 36.7919 71.261 35.7667 72.5415C34.3972 74.2283 32.8381 75.9344 32.0721 77.9035C29.8515 83.5982 27.2169 89.3354 27.8398 95.6607C28.2266 99.5681 28.9346 103.591 30.397 107.197C31.7626 110.559 34.1612 113.553 36.4127 116.482C37.5733 117.979 38.7842 119.511 41.1944 119.875C43.4421 120.211 46.1115 120.807 47.8292 121.929C50.5759 123.72 52.6766 122.594 55.0404 122.026C55.7135 121.863 56.2629 120.865 56.8819 120.865C60.1857 120.815 63.5166 121.074 66.5187 119.256C72.1554 119.782 74.8828 114.869 78.9488 112.489C80.0204 111.863 80.6897 110.269 81.181 108.981C82.7788 104.81 85.8582 101.816 89.1389 99.0961C93.228 95.7071 98.2109 94.0049 103.453 94.4537C107.728 94.8406 110.61 93.1577 113.411 90.2717C112.769 89.1459 111.983 88.1129 111.55 86.9523C110.184 83.3003 109.132 79.5129 105.178 77.5669C104.54 77.2536 104.405 76.0195 103.867 75.3579C103.329 74.6964 102.513 73.5783 102.01 73.6712C98.9459 74.2515 96.9613 72.1856 94.6246 70.9902C94.4544 70.9012 94.4119 70.5608 94.3035 70.3364C94.343 70.0869 94.4282 69.8469 94.555 69.6284C94.9689 69.1371 95.4525 68.727 96.1566 68.0693ZM9.49838 126.943C17.9739 127.316 26.4606 126.528 34.7221 124.598C35.2637 123.314 34.4281 122.629 33.2211 122.277C32.1224 121.968 30.9192 121.987 29.8592 121.592C26.3542 120.285 22.7834 121.008 19.232 121.089C18.3615 121.109 17.2589 120.83 16.6593 121.252C14.4309 122.827 12.3689 124.629 9.49838 126.943ZM43.8406 121.79L43.2603 122.83C43.9644 123.801 44.7768 124.455 46.8698 123.132L43.8406 121.79Z" fill="black"/>
</g>
<defs>
<clipPath id="clip0_729_779">
<rect width="150" height="294.955" fill="white" transform="translate(0.160156 0.104492)"/>
</clipPath>
</defs>
</svg>
