<svg width="151" height="198" viewBox="0 0 151 198" fill="none" xmlns="http://www.w3.org/2000/svg">
<g clip-path="url(#clip0_729_611)">
<path d="M150.16 194.388C146.715 198.739 142.289 197.587 137.575 195.454C133.031 193.396 128.381 191.561 122.088 188.906C122.888 189.972 122.088 189.428 122.088 188.906C122.558 177.558 122.43 178.048 111.423 174.763C103.054 172.129 94.9057 168.841 87.0522 164.93C69.2408 156.397 50.8641 149.102 34.4712 137.53C20.606 127.696 12.1802 115.26 9.44983 98.7393C8.57526 93.0546 8.07398 87.2419 0.160156 85.2261C5.04497 80.9599 5.85555 76.2884 5.78089 70.177C5.67423 62.0712 6.35683 54.1787 3.40248 46.4036C2.73055 44.6011 4.12773 41.6361 5.26894 39.5989C11.9562 27.6109 18.8355 15.7402 25.6934 3.84809C26.692 2.52511 27.7826 1.27415 28.9571 0.104492C28.4694 3.13904 27.8286 6.147 27.0373 9.11686C23.763 18.9078 21.7045 28.5388 24.2429 39.1083C25.8747 45.9023 24.2429 52.5042 19.2301 58.7436C12.6175 67.02 14.5053 77.5256 15.6572 87.3165C16.1051 91.1028 17.7903 94.7824 18.9635 98.43C20.9259 104.52 22.7924 110.653 29.5117 113.49C30.7774 114.137 31.832 115.133 32.5514 116.359C45.8086 137.69 68.2702 143.684 90.0386 150.67C96.7045 152.803 103.765 153.709 110.559 155.491C116.318 156.994 120.638 159.511 121.171 166.807C121.619 172.971 124.926 178.165 132.295 178.901C133.625 179.136 134.852 179.768 135.815 180.715C140.305 184.885 144.678 189.151 150.16 194.388Z" fill="black"/>
</g>
<defs>
<clipPath id="clip0_729_611">
<rect width="150" height="197.259" fill="white" transform="translate(0.160156 0.104492)"/>
</clipPath>
</defs>
</svg>
