<svg width="151" height="112" viewBox="0 0 151 112" fill="none" xmlns="http://www.w3.org/2000/svg">
<g clip-path="url(#clip0_729_511)">
<path d="M9.48312 24.0509L6.73572 24.4554C7.80685 23.4846 8.64175 22.6788 9.55107 21.9507C10.0768 21.5802 10.4846 21.066 10.7256 20.4697C10.9667 19.8734 11.0308 19.2202 10.9102 18.5884C10.6449 16.5044 11.3859 15.6275 13.3502 15.1615C15.2238 14.7149 17.2334 14.5661 18.955 13.8218C20.6071 13.0967 22.0986 12.0506 23.3431 10.7443C27.1907 6.6766 31.925 3.77711 36.9506 1.8193C41.6623 -0.0155278 46.7105 -0.769524 51.9561 1.57337C60.7905 5.53104 68.324 11.3235 75.9416 17.0707C77.9965 18.6208 80.0902 20.2032 82.3554 21.3941C85.2193 22.8956 86.4975 25.6009 88.2062 28.0247C88.7534 28.7769 89.3594 29.4846 90.0184 30.1411C91.7399 31.8983 93.743 33.4354 95.196 35.3867C98.5 39.8363 101.704 44.3829 104.623 49.0881C106.273 51.7481 108.341 53.9777 110.38 56.2624C111.978 58.0551 113.198 57.9969 114.476 56.0132C115.124 54.9874 115.716 53.5862 115.583 52.4536C115.299 50.0081 115.67 47.5311 116.657 45.276C117.305 43.7292 117.392 41.9688 117.952 40.3896C118.274 39.6079 118.87 38.9705 119.628 38.5969C122.469 37.3445 125.379 36.2475 128.278 35.1278C128.971 34.8592 129.744 34.8042 130.433 34.5227C133.993 33.0891 137.394 33.8011 140.698 35.2476C141.309 35.4983 141.819 35.9449 142.148 36.5173C142.477 37.0896 142.607 37.7551 142.517 38.4092C142.345 39.791 142.326 41.354 141.64 42.4704C140.52 44.2923 140.772 45.7744 141.61 47.5413C142.924 50.321 143.031 53.3338 142.423 56.2786C141.517 60.6602 142.546 64.5078 144.95 68.1613C146.451 70.3708 147.815 72.6693 149.037 75.0443C151.933 80.8692 149.011 89.1179 143.008 91.7552C138.973 93.5286 134.714 94.6385 130.226 94.6968C128.507 94.7172 126.796 94.9255 125.123 95.3181C121.858 96.0883 118.606 96.1724 115.253 96.1368C110.231 96.085 105.192 96.5931 100.176 97.0235C97.292 97.2534 94.4275 97.686 91.604 98.3179C87.4295 99.2887 83.3295 100.583 79.1809 101.648C75.6212 102.57 72.0195 103.227 68.5311 104.305C65.6834 105.185 62.9489 106.457 60.2112 107.654C57.6709 108.767 55.1954 110.023 52.681 111.191C52.3024 111.366 51.7619 111.624 51.4707 111.482C48.9207 110.233 45.8044 109.981 44.0278 107.327C43.6104 106.699 43.2415 105.942 42.646 105.557C37.669 102.34 37.8632 97.3665 38.5427 92.5384C39.164 88.1373 37.4295 84.8851 34.8148 81.7882C34.3359 81.2187 33.5204 80.8627 33.2162 80.2317C31.5496 76.7174 28.1615 75.1058 25.4012 72.7985C22.7217 70.5613 20.0477 68.3199 17.379 66.074C12.1399 61.6892 6.88134 57.3367 1.66162 52.9131C0.211871 51.6899 -0.160273 50.0006 0.42545 48.2597C1.64867 44.6126 2.89778 40.9689 4.30869 37.3995C5.71961 33.8302 7.41205 30.3223 8.91681 26.7627C9.24041 26.0151 9.2663 25.1479 9.48312 24.0509ZM116.544 73.9311C114.984 73.0995 114.056 72.3778 113.004 72.0898C110.642 71.4426 108.182 71.1384 105.836 70.4395C104.85 70.1057 104.017 69.4294 103.487 68.5334C102.687 67.061 102.306 65.3653 101.688 63.7829C100.477 60.686 99.4223 57.4985 97.9337 54.544C96.4313 51.4795 94.616 48.5786 92.5166 45.8876C89.9278 42.6516 86.5849 40.0304 84.0252 36.7847C80.9089 32.8335 78.0774 28.7302 74.0809 25.5071C70.6863 22.7565 67.7512 19.4654 64.5184 16.5174C63.7242 15.8029 62.7392 15.3352 61.6836 15.1712C55.2407 14.3881 48.7395 14.7376 42.426 15.8184C35.4847 17.0254 28.6922 19.09 21.8415 20.7469C20.1685 21.1384 18.7608 21.9151 18.0651 23.5007C16.6898 26.6268 15.2206 29.7366 14.1818 32.9791C12.6027 37.859 10.9458 42.7681 11.3341 48.3891C15.1947 51.6996 19.1653 55.4437 23.4984 58.7056C26.6956 61.11 30.4332 62.783 33.8084 64.9641C37.0444 67.0481 40.3064 69.1418 43.1929 71.6497C46.4095 74.4424 49.2249 77.6946 52.1826 80.7818C52.6273 81.2093 52.9406 81.755 53.0855 82.3545C53.4835 84.7719 54.1048 87.1859 52.6777 89.5677C51.9949 90.71 51.584 92.0982 52.5709 93.4897C56.0303 91.9753 59.3084 90.4511 62.6544 89.0984C66.2141 87.6584 69.7737 86.0986 73.4596 85.1084C77.8088 83.9434 82.213 83.0503 86.4425 81.4226C88.1641 80.7754 90.1446 80.7754 92.0053 80.4517C96.1183 79.7592 100.205 78.8337 104.344 78.413C107.92 78.0506 111.14 76.8177 114.376 75.5006C114.929 75.2773 115.363 74.7919 116.544 73.9311ZM27.2295 12.3494C35.5494 12.1358 43.8401 11.796 52.4027 10.4595C46.6361 4.90972 33.6434 6.57628 27.2295 12.3494Z" fill="black"/>
</g>
<defs>
<clipPath id="clip0_729_511">
<rect width="150" height="111.41" fill="white" transform="translate(0.160156 0.104248)"/>
</clipPath>
</defs>
</svg>
