<svg width="151" height="67" viewBox="0 0 151 67" fill="none" xmlns="http://www.w3.org/2000/svg">
<g clip-path="url(#clip0_729_375)">
<path d="M0.250752 61.8426C1.93849 59.1438 3.67343 56.8778 7.45019 56.6417C9.36217 56.5198 11.2191 54.8084 13.3042 54.1593C14.091 53.9232 14.6024 53.3135 15.6646 53.518C16.4514 53.6715 17.4901 53.3095 18.1903 52.8414C21.2005 50.7494 24.7933 49.6592 28.4584 49.7255C29.1115 49.7085 29.7446 49.4961 30.2759 49.1158C32.9 47.2589 35.8742 46.9638 38.9664 46.6648C43.0854 46.2714 47.1533 45.3705 51.2526 44.7528C53.2944 44.446 55.3559 44.0683 57.4017 44.088C62.4609 44.1391 67.5714 43.7536 72.5362 45.1344C75.7858 46.0393 79.0432 46.9481 82.2259 48.0457C85.4086 49.1433 86.6636 48.5768 87.9737 45.5121C89.7008 41.4757 88.1507 37.8681 86.9823 34.1504C86.2958 32.0518 85.7232 29.9178 85.267 27.7574C84.7752 25.3537 85.924 23.3158 87.6747 21.9271C89.6103 20.377 91.8881 20.6367 93.8985 22.053C96.4714 23.8627 99.0128 23.7289 102.042 23.0168C109.218 21.3212 115.308 17.6861 121.189 13.5002C122.052 12.9419 122.949 12.4399 123.876 11.9974C127.531 10.0303 130.494 7.37084 132.28 3.58229C134.314 -0.682296 137.406 -1.07571 140.25 2.75219C142.807 6.20241 145.408 9.64476 147.631 13.3114C148.811 15.2784 149.468 17.6389 149.964 19.9167C150.644 23.064 149.57 24.2836 146.545 25.2829C136.135 28.6938 125.722 32.0889 115.394 35.7358C112.457 36.8454 109.688 38.3588 107.168 40.2325C106.094 40.9957 105.567 42.8408 105.248 44.2925C104.41 48.1047 104.206 52.0978 103.026 55.788C101.967 59.0927 100.016 62.1259 98.3047 65.1984C97.5375 66.5793 96.0898 66.8271 94.5358 66.7917C89.7865 66.6478 85.2031 65.0127 81.4352 62.118C73.6338 56.2719 65.1204 52.6407 55.4228 51.4408C46.516 50.3353 37.7744 50.7012 29.1114 53.0145C28.6148 53.1831 28.0996 53.2914 27.5771 53.3371C21.5461 53.4197 16.2783 56.2404 10.7352 58.058C7.19447 59.2146 3.65376 60.5247 0.144531 61.7679L0.250752 61.8426Z" fill="black"/>
</g>
<defs>
<clipPath id="clip0_729_375">
<rect width="150" height="66.6754" fill="white" transform="translate(0.160156 0.104492)"/>
</clipPath>
</defs>
</svg>
