<svg width="151" height="129" viewBox="0 0 151 129" fill="none" xmlns="http://www.w3.org/2000/svg">
<g clip-path="url(#clip0_729_739)">
<path d="M47.708 45.741L38.3464 40.2476C36.4247 35.3007 31.1028 34.9257 27.4739 32.279C26.4024 31.5111 24.7486 31.2503 23.3842 31.3111C17.9873 31.5361 13.2082 30.0788 8.96141 26.7499C7.48985 25.5962 5.90041 24.6069 4.31811 23.5032C4.54671 21.0708 5.77897 19.5278 8.12562 18.9492C9.95437 18.4991 11.801 18.1169 13.6369 17.7026C14.7834 17.4455 15.9192 17.1633 17.0693 16.9311C22.0091 15.9275 26.9881 16.0096 31.9493 16.6275C33.0994 16.7704 34.2853 17.7455 35.1639 18.6241C39.1443 22.5475 44.1019 25.3346 49.5224 26.6963C50.3118 26.9035 51.2369 27.0857 51.7941 27.6071C53.8693 29.5538 56.5052 29.5395 59.0412 30.1395C64.3774 31.3968 69.8494 30.2574 75.1427 31.3611C76.9643 31.7916 78.7038 32.5154 80.2932 33.5041C82.1112 34.5757 83.6185 35.1686 85.3794 33.4041C86.0938 32.6898 87.2439 32.404 88.2082 31.9504C91.53 30.3824 94.916 28.9394 98.1521 27.2107C99.4558 26.5177 100.52 25.2855 101.535 24.1568C103.798 21.5744 106.726 19.661 110 18.6241C112.678 17.7562 115.132 16.3239 118.133 16.4811C119.604 16.5597 120.372 15.3774 120.483 13.8523C120.64 11.7092 120.883 9.59114 121.061 7.45879C121.365 3.82987 122.458 2.4976 126.019 1.62966C128.208 1.0939 130.405 0.525987 132.63 0.200956C136.245 -0.331237 139.252 1.45465 142.317 3.00837C142.628 4.8514 141.21 5.5086 140.099 6.33011C137.391 8.27372 135.198 10.8483 133.709 13.8308C132.938 15.3988 132.595 16.8668 133.638 18.5134C134.913 20.5315 134.434 22.6317 133.388 24.5854C131.548 28.0322 129.598 31.4182 127.755 34.8614C127.305 35.7043 127.098 36.6723 126.615 38.051C130.569 37.1795 133.87 36.4901 137.149 35.7186C140.428 34.9471 143.617 34.3542 146.935 35.5436C149.65 36.5187 150.807 38.5868 149.793 41.3727C148.721 44.3873 146.539 46.5447 144.028 48.4341C140.831 50.8451 137.306 52.8845 134.852 56.1599C132.155 59.7602 128.962 63.1248 126.969 67.0859C122.033 76.894 120.379 87.3378 123.04 98.1817C123.922 101.782 125.73 104.632 129.648 105.897C132.266 106.743 133.713 109.004 134.22 112.008C132.434 113.719 132.434 115.676 133.791 117.909C134.441 118.98 134.613 120.38 134.816 121.663C135.384 125.174 132.92 127.735 129.459 128.517C125.172 129.47 122.094 127.51 118.686 125.613C113.096 122.495 109.475 117.498 105.753 112.63C104.206 110.604 102.46 109.093 100.113 108.64C97.0555 108.051 95.8018 105.425 93.8552 103.639C93.4016 103.221 93.6445 101.496 94.1338 100.711C95.6661 98.296 95.6947 95.8672 95.1268 93.1884C94.9089 92.1526 95.2518 90.8525 95.7161 89.8452C97.4448 86.0734 97.3127 85.2984 93.573 84.0768C90.0763 82.9338 88.3868 80.6265 88.0832 77.0976C88.0547 76.7404 88.0511 76.3832 87.9904 76.026C87.276 71.7756 86.3974 71.222 82.0434 71.6756C78.0823 72.09 74.0962 72.2757 70.1244 72.615C64.2345 73.1186 58.4697 73.9473 52.7084 75.676C48.608 76.9047 45.3577 79.2121 41.6824 80.9587C38.007 82.7052 33.9388 83.8161 30.0348 85.1591C26.777 86.2721 23.7401 87.949 21.0626 90.1131C17.7515 92.7919 13.7512 93.6849 9.71149 93.3598C7.15767 93.1562 4.52885 92.0526 2.23935 90.7917C-0.871665 89.0809 -0.3359 84.8805 2.81083 83.0981C5.95756 81.3158 8.97213 79.2263 12.0474 77.2833C12.8404 76.7833 13.6369 76.2796 14.4691 75.8546C16.5757 74.7665 18.4739 73.3156 20.0768 71.5685C21.8841 69.629 24.3629 68.311 26.5488 66.7323C31.7922 62.9498 37.1248 59.2852 42.2646 55.3455C44.2265 53.8252 45.9016 51.9674 47.2115 49.8593C47.9473 48.6449 47.6115 46.759 47.708 45.741Z" fill="black"/>
</g>
<defs>
<clipPath id="clip0_729_739">
<rect width="150" height="128.669" fill="white" transform="translate(0.160156 0.104492)"/>
</clipPath>
</defs>
</svg>
