<svg width="151" height="108" viewBox="0 0 151 108" fill="none" xmlns="http://www.w3.org/2000/svg">
<g clip-path="url(#clip0_729_403)">
<path d="M0.160156 107.062C1.03218 104.716 1.77907 102.284 2.79969 99.9921C5.59956 93.6924 9.88147 88.6792 15.5633 84.6711C18.8246 82.3678 21.82 79.7596 25.3707 77.777C32.7223 73.6515 40.0856 69.5025 47.0853 64.8257C52.9978 60.88 59.0316 56.9618 63.6342 51.3073C67.8445 46.1285 70.3822 39.7928 70.9115 33.1395C71.1813 30.1715 70.5204 26.9141 69.4607 24.0868C68.6786 21.9635 68.5418 20.1256 69.144 18.143C69.8469 15.7878 69.9076 13.2875 69.3199 10.9009C68.9682 9.24964 68.803 7.56412 68.8272 5.876C68.8661 4.99982 69.1964 4.1617 69.7657 3.49455C72.7689 0.104207 78.6033 -1.06892 82.4707 1.50414C86.999 4.5269 92.2468 5.49277 97.0488 7.62396C102.469 10.0328 107.759 13.0282 111.979 17.2632C114.947 20.2429 117.109 24.0125 119.745 27.3364C121.833 29.9681 124.109 32.4473 126.275 35.0204C127.331 36.2756 128.602 36.4477 130.131 36.1388C138.992 34.3517 147.916 41.8402 149.683 49.5633C150.829 54.5491 149.816 59.7304 147.317 64.2547C145.651 67.2853 142.199 68.2903 139.156 69.088C133.533 70.5623 128.375 69.6355 123.385 65.9362C119.201 62.8313 114.094 60.9778 109.425 58.5064C103.423 55.3272 100.017 50.2945 99.3481 43.5647C99.2034 42.1139 99.9659 40.538 100.443 39.0638C102.832 31.634 100.169 25.5142 93.0132 22.0573C91.8401 21.4942 90.7764 20.7747 89.705 20.153C87.214 20.7395 86.1582 22.1473 86.3303 24.6812C86.4359 26.2063 86.0526 27.7587 85.9392 29.2994C85.8689 30.3201 85.8962 31.3407 85.8845 32.3613C85.861 34.9226 86.1621 37.5387 85.7555 40.0336C84.289 48.9923 80.1127 56.5199 73.6019 62.9135C70.5517 65.9049 67.6189 69.0489 63.8258 70.9807C59.9427 72.9554 55.7664 74.3632 51.7035 75.9313C49.2907 76.858 46.7685 77.4954 44.3792 78.477C38.6466 80.8232 32.8826 83.1147 27.2946 85.7699C23.9199 87.3732 20.8776 89.6569 17.6398 91.5534C12.0635 94.8108 8.11787 99.7653 4.00019 104.536C3.09689 105.584 2.15056 106.597 1.2277 107.625L0.160156 107.062Z" fill="black"/>
</g>
<defs>
<clipPath id="clip0_729_403">
<rect width="150" height="107.521" fill="white" transform="translate(0.160156 0.104248)"/>
</clipPath>
</defs>
</svg>
