<svg width="151" height="201" viewBox="0 0 151 201" fill="none" xmlns="http://www.w3.org/2000/svg">
<g clip-path="url(#clip0_729_619)">
<path d="M33.6716 42.6167L23.9923 38.1553C20.0773 36.3539 19.1466 32.9914 19.5969 29.1484C20.1974 23.9245 25.7936 15.5601 32.3987 15.0797C38.1526 14.5943 43.8457 13.5506 49.3976 11.9634C56.6571 9.97587 63.7365 7.33987 70.8999 4.99208C71.8306 4.68585 72.7914 4.45768 73.7401 4.20548C78.1414 3.0406 82.5247 1.80366 86.9501 0.75286C88.6794 0.338545 90.5949 -0.105793 92.2762 0.212449C98.0345 1.30528 104.129 1.3353 109.443 4.57176C111.803 6.01286 114.559 6.78745 117.063 8.01238C126.965 12.816 136.446 18.2201 141.64 28.6501C143.219 31.8325 146.317 33.7359 147.608 37.4347C149.627 43.2844 150.462 49.4772 150.064 55.6526C149.746 61.5971 149.079 67.5476 149.217 73.4801C149.392 81.2861 146.215 88.2814 144.93 95.697C143.591 103.365 139.688 109.508 134.548 115.362C131.783 118.649 128.731 121.684 125.427 124.429C122.689 126.603 120.708 129.743 118.408 132.469C111.094 141.146 102.274 148.135 93.6332 155.406C89.0157 159.291 84.0259 162.21 78.976 165.332C76.1299 167.097 73.7641 169.637 71.1701 171.829C69.669 173.108 68.378 174.831 66.6547 175.606C59.6053 178.818 53.6608 184.132 46.7496 187.273C40.4328 190.149 33.9058 193.451 26.4902 193.728C22.1669 193.89 17.8916 194.88 14.3429 198.051C12.8418 199.396 10.458 200.056 8.3804 200.363C5.62387 200.702 2.82718 200.477 0.160156 199.702C0.99479 199.354 1.82342 199 2.65805 198.663C6.48897 197.102 10.3019 195.487 14.1688 194.01C21.1641 191.338 28.2735 188.954 35.1848 186.066C39.7302 184.162 44.0115 181.616 48.3948 179.317C56.3689 175.113 63.6464 170.058 69.4828 163.062C70.5937 161.723 72.311 160.883 73.7641 159.832C79.3603 155.767 84.3321 150.825 89.8143 146.802C96.8156 141.674 101.349 134.462 107.774 128.944C111.118 126.074 113.01 121.559 115.79 117.962C118.936 113.885 122.425 110.072 125.601 106.019C126.802 104.482 128.105 102.674 128.4 100.837C129.871 91.6139 131.27 82.3669 132.231 73.0778C133.209 63.6807 131.222 54.4637 129.697 45.2227C129.414 43.5414 128.316 41.9141 127.295 40.455C120.63 30.7817 111.022 24.7231 100.526 20.4178C95.8429 18.4903 90.4448 18.2622 84.8425 19.9314C77.1747 22.2072 71.5064 27.5332 64.1628 30.9078C64.7632 32.2768 65.1355 33.5378 65.754 34.6786C72.5932 47.2882 79.3303 59.8978 86.4157 72.3633C88.4512 75.966 91.4836 78.9683 94.1376 82.1447C98.0646 86.8763 102.166 91.4638 105.949 96.3095C106.747 97.3363 106.507 99.1857 105.798 101.155C103.497 99.1096 101.195 97.0641 98.8932 95.0185C95.0322 91.6019 91.1293 88.2333 87.3164 84.7627C85.9826 83.577 84.788 82.2435 83.7557 80.7877C79.4204 74.5189 75.3073 68.1301 71.4884 61.495C67.5734 54.6979 64.1268 47.3603 57.9541 42.0462C56.7532 41.0075 55.6904 39.7705 54.3994 38.8578C46.8156 33.5018 43.0748 33.6339 36.6859 40.1668C35.9954 40.8754 35.1427 41.4278 33.6716 42.6167Z" fill="black"/>
</g>
<defs>
<clipPath id="clip0_729_619">
<rect width="150" height="200.426" fill="white" transform="translate(0.160156 0.104492)"/>
</clipPath>
</defs>
</svg>
