<svg width="151" height="56" viewBox="0 0 151 56" fill="none" xmlns="http://www.w3.org/2000/svg">
<g clip-path="url(#clip0_729_559)">
<path d="M117.858 23.0361C118.763 22.841 119.662 22.6278 120.574 22.4605C120.88 22.4048 121.366 22.3359 121.505 22.4999C122.41 23.5641 122.971 22.6737 123.896 21.8784C123.63 22.9623 123.453 23.6822 123.211 24.676C124.465 23.6773 125.178 22.7081 125.369 21.4077C125.533 20.3074 125.124 19.7679 124.027 19.658C123.703 19.5997 123.371 19.5892 123.043 19.6268C121.444 19.9548 120.285 19.1644 119.314 18.0755C118.38 17.0211 117.574 15.8469 116.666 14.7564C116.307 14.3219 115.93 13.8086 114.972 14.0825L116.39 15.9093L114.316 18.1542C113.294 17.841 112.512 16.6652 111.105 17.2621C110.087 17.6967 108.9 17.7705 108.342 19.1037C108.178 18.8151 107.943 18.5937 107.952 18.3805C107.981 17.6639 107.624 17.354 106.979 17.372C106.363 17.3884 106.159 17.8148 106.159 18.3773C106.159 18.5872 106.135 18.7971 106.12 19.0332C104.972 19.5908 103.972 19.248 103.004 18.7151C102.676 18.533 102.388 18.2362 102.04 18.1296C100.249 17.5885 99.0177 16.3586 97.7665 15.0385C96.575 13.8033 95.2425 12.7124 93.7964 11.7883C93.1404 11.357 92.127 11.3504 91.2743 11.3373C88.6308 11.298 86.0923 11.9621 83.5915 12.7312C81.7991 13.2822 80.0232 13.8791 78.1636 14.148C77.7962 14.2022 77.4158 14.148 77.0452 14.1743C75.8218 14.2579 74.6395 14.0972 73.4211 14.8056C72.6011 15.2812 71.3237 14.986 70.2496 15.0155C69.0033 15.0483 67.7586 15.0713 66.5123 15.0729C65.5956 15.0729 64.674 15.0893 63.7639 15.0024C61.66 14.804 59.5495 14.7778 57.4439 14.4121C54.9841 13.989 52.5571 13.5544 50.1957 12.7722C47.1931 11.7555 44.0773 11.2553 40.9436 10.8782C37.8377 10.501 34.7121 10.2419 31.6062 9.88604C27.8427 9.45148 24.0628 9.1235 20.3305 8.4856C17.3361 7.9756 14.4106 7.06711 11.4391 6.39969C8.46771 5.73227 5.54383 4.87626 2.44613 4.97465C1.68359 4.99925 0.909574 4.64668 0.160156 4.14652C1.28182 4.04157 2.40185 3.9071 3.5268 3.83986C5.85376 3.70211 8.17089 3.93333 10.4913 4.04976C11.4014 4.09404 12.323 3.89562 13.2364 3.9153C15.2502 3.95793 17.2623 4.10224 19.276 4.13668C20.3042 4.15308 21.3439 3.91694 22.3656 3.98253C23.8808 4.07764 25.3927 4.29738 26.8949 4.54172C29.3907 4.94677 31.8899 4.82214 34.3956 4.73359C35.1483 4.70735 35.9059 4.89757 36.6635 4.92053C37.8 4.95005 38.9462 4.83034 40.0761 4.92053C41.8488 5.06812 43.6067 5.37314 45.3761 5.54696C46.8733 5.69291 48.3836 5.69783 49.8775 5.85526C51.173 5.99136 52.4571 6.23734 53.7411 6.46364C55.6728 6.8031 57.58 7.20486 59.5773 7.11959C60.9204 7.06383 62.2766 7.42133 63.6311 7.52792C67.0272 7.79685 70.3398 7.19994 73.6343 6.50136C75.1692 6.17339 76.7008 5.84542 78.239 5.54696C78.9343 5.41249 79.4591 5.02384 80.0428 4.67947C80.6824 4.30394 81.5942 4.36462 82.3928 4.29738C83.8391 4.17275 85.1067 3.61356 86.3432 2.89038C87.1588 2.4473 88.0056 2.06419 88.8768 1.74412C89.9821 1.29807 91.1447 0.983219 92.2172 0.473221C93.3995 -0.087612 94.6032 0.12393 95.756 0.292836C98.1617 0.643767 100.649 1.00618 102.729 2.28855C104.641 3.46925 106.653 4.58436 108.232 6.26194C108.335 6.39083 108.461 6.49882 108.604 6.58008C111.474 7.84441 113.011 10.5633 115.164 12.6017C116.189 13.5692 117.132 14.6318 118.079 15.6715C118.471 16.0995 118.75 16.6456 119.177 17.0309C120.037 17.8082 120.903 18.6216 121.897 19.1955C122.299 19.4284 123.045 19.0939 123.624 18.984C124.045 18.9053 124.455 18.7708 124.834 18.6724C126.367 20.3648 126.436 21.5274 125.129 23.3182C124.801 23.756 124.422 24.1381 124.063 24.5546C123.383 25.3336 123.365 25.3959 123.484 26.7127C122.309 26.9029 122.163 27.7409 121.977 28.8101C121.508 31.5257 121.689 34.361 120.546 36.9635C120.37 37.3636 120.443 37.8703 120.361 38.7591C121.033 38.2868 121.408 38.1147 121.661 37.831C122.963 36.3748 124.231 34.889 125.516 33.4164C125.729 33.1721 125.925 32.8097 126.195 32.7326C127.586 32.3407 127.915 31.0829 128.294 30.0088C128.561 29.1802 129.076 28.4538 129.77 27.9278C131.156 26.8996 132.615 25.9715 134.058 25.022C134.253 24.9233 134.469 24.8727 134.688 24.8744C135.69 24.7973 136.608 24.5858 137.335 23.7839C137.548 23.5477 137.999 23.5281 138.483 23.6199L137.12 24.753C137.592 25.4713 138.119 25.6304 138.855 25.4303C139.793 25.1745 140.756 24.9925 141.715 24.8268C141.972 24.7826 142.259 24.9023 142.535 24.958C142.679 24.9892 142.907 25.122 142.948 25.0794C143.888 24.0364 144.883 24.7514 145.919 24.8547C147.217 24.9948 148.525 24.7192 149.655 24.0676L147.851 21.434C148.412 21.7275 148.717 21.7997 148.886 21.9899C150.404 23.7068 150.59 26.0059 149.304 28.4001C148.528 29.8399 147.638 31.2748 145.911 31.7389C144.726 32.0471 143.52 32.2718 142.304 32.4112C141.448 32.5162 140.569 32.4473 139.699 32.4473C138.146 32.4473 136.997 33.1164 135.813 34.1675C133.14 36.542 130.775 39.2511 127.899 41.4042C127.604 41.6256 127.415 41.9864 127.136 42.2389C126.74 42.603 126.341 43.154 125.884 43.2228C124.398 43.4508 123.452 44.556 122.23 45.1907C120.347 46.1371 118.403 46.9588 116.412 47.6505C114.473 48.3425 112.543 49.1067 110.423 49.187C109.888 49.2083 109.264 49.5691 108.863 49.9594C106.687 52.0814 104.123 53.5819 101.368 54.779C100.682 55.0758 99.9131 55.2037 99.1702 55.3414C97.9436 55.5677 96.7104 55.7891 95.4723 55.9088C94.9804 55.9547 94.3244 55.8891 93.9817 55.5956C92.4304 54.2509 90.9348 52.839 89.4835 51.3877C88.6849 50.5875 88.0995 49.5658 87.2632 48.8148C86.23 47.8866 84.8919 47.4799 83.5062 47.4914C81.2826 47.5127 79.0622 47.6292 76.9058 48.2687C75.6906 48.6295 75.1905 48.3474 74.8363 47.1536C74.4034 45.6859 74.9134 44.3658 76.2826 43.7263C77.6158 43.0998 78.9359 42.5784 80.4954 43.3229C81.2153 43.664 82.2009 43.5295 83.0586 43.4754C83.9785 43.4163 84.8854 43.1687 85.8037 43.0523C89.3376 42.6013 92.1106 44.0362 94.4654 46.5419C95.9293 48.0915 97.8449 49.1394 99.9393 49.5363C101.758 49.9053 103.27 49.4937 104.549 47.8965C106.189 45.8548 107.009 43.4311 108.175 41.173C109.09 39.3872 109.782 37.4899 110.635 35.668C111.317 34.2019 112.397 33.1819 114.078 32.9688C115.041 32.8474 115.464 32.116 115.718 31.3289C115.823 31.0009 115.672 30.345 115.421 30.1925C114.437 29.5644 113.491 28.6805 112.142 29.0446C111.938 29.0987 111.673 29.1544 111.504 29.0708C109.267 27.9705 107.089 28.7674 104.92 29.2905C104.428 29.4103 103.998 29.8268 103.532 30.0957C103.158 30.3122 102.796 30.6287 102.384 30.7025C100.894 30.9714 99.7491 31.9553 98.4093 32.5063C96.5169 33.2935 94.5491 33.9035 92.6026 34.5578C91.5252 34.9186 90.4297 35.2351 89.3228 35.5253C88.8669 35.645 88.3783 35.6417 87.8568 35.6991C87.7076 35.2875 87.6207 34.9792 87.4878 34.6923C87.0729 33.7887 86.5564 33.5444 85.6659 33.8461C83.3472 34.6103 81.1957 35.6106 79.2049 37.116C77.3977 38.4771 75.5677 39.8218 73.7786 41.232C71.2335 43.2327 68.2145 43.8427 64.9938 43.0146C62.37 42.339 59.7462 41.619 57.088 41.0828C55.1907 40.6991 53.236 40.604 51.3108 40.3416C50.3679 40.2137 49.4364 39.9972 48.5001 39.8218L48.5394 39.4807C49.1954 39.5167 49.8513 39.5938 50.5073 39.5823C52.7932 39.5413 55.0792 39.4626 57.3652 39.4184C58.7771 39.3905 60.1939 39.3446 61.6026 39.4184C62.1716 39.4462 62.7144 39.8218 63.29 39.9316C65.1627 40.2875 67.0338 40.6991 68.9246 40.8844C70.3348 41.0238 71.7287 40.7614 72.9455 39.8414C75.5955 37.843 78.2696 35.8752 80.9677 33.9379C81.7614 33.3673 82.6387 32.9146 83.4833 32.4161C83.9867 32.1177 84.5 31.8356 85.1035 31.4945C84.3163 30.0465 83.1832 29.1823 81.8155 28.8412C79.4115 28.2443 77.1075 27.1702 74.5067 27.4211C73.4522 27.5228 72.3584 27.1013 71.2761 27.0554C67.3831 26.8914 63.4884 26.7127 59.5921 26.6832C56.5551 26.6602 53.5246 26.898 50.4794 26.9291C48.9617 26.92 47.4459 26.8198 45.9402 26.6291C45.4024 26.57 44.7546 26.4241 44.5513 25.714C47.3768 25.714 50.1268 25.7304 52.8801 25.7009C53.5255 25.6673 54.1666 25.5756 54.7955 25.427C55.276 25.3336 55.7663 25.0089 56.2123 25.0695C59.1641 25.4762 61.9863 24.2824 64.9184 24.4808C66.9284 24.6116 68.9465 24.4296 70.9006 23.9413C71.7009 23.7462 72.6208 24.0922 73.4867 24.1151C75.4939 24.1676 77.5011 24.1857 79.5082 24.1939C83.2996 24.2086 86.786 25.1974 89.8492 27.4736C90.6282 28.0525 91.2956 28.7855 91.9958 29.4627C93.2962 30.7254 93.5996 30.7631 95.2903 30.1187C96.3037 29.7317 97.3762 29.5005 98.3946 29.1266C99.6113 28.6789 100.817 28.1869 101.986 27.6326C102.243 27.5097 102.527 27.0013 102.478 26.7356C102.117 24.9072 102.534 23.2247 103.288 21.5143C103.521 22.0669 103.731 22.5622 103.88 22.9148C104.656 23.1755 105.375 23.2755 105.931 23.633C107.571 24.6809 107.773 24.7973 109.8 24.8728C110.346 24.0036 110.821 23.2477 112.202 23.6232C112.799 23.7872 113.699 23.3542 114.51 23.4018C114.852 23.4215 115.218 23.1165 114.911 22.5819C114.833 22.4458 115.031 22.1506 115.375 21.9522C115.484 22.3408 115.474 22.8574 115.726 23.0902C116.105 23.4379 116.668 23.5822 117.271 23.879L117.911 23.0132L117.858 23.0361ZM79.8133 9.92868L79.5902 9.52199C78.5456 9.76961 77.5257 8.93328 76.445 9.62694C76.2449 9.75485 75.8366 9.55315 75.525 9.50887C75.1036 9.4482 74.6838 9.3908 74.2623 9.33341C72.3847 9.08087 70.9236 10.2468 69.2476 10.788C69.7143 11.0317 70.2208 11.19 70.7432 11.2553C72.2961 11.3701 73.9163 11.7227 75.3856 11.4062C76.6237 11.1405 77.8585 10.8175 79.1196 10.6076C79.3787 10.5715 79.5788 10.1665 79.8051 9.92868H79.8133ZM139.455 25.7009C140.378 26.4339 141.344 26.1781 142.595 25.9354C141.389 24.9941 140.406 25.6205 139.447 25.7009H139.455ZM113.053 27.8868L112.873 28.1738L114.677 29.0856L114.829 28.7822C114.339 28.3114 113.719 27.9994 113.048 27.8868H113.053ZM144.14 26.0141L144.644 25.3582C144.529 25.2729 144.373 25.0909 144.316 25.1187C144.143 25.1944 144.002 25.3262 143.914 25.4926C143.871 25.5763 144.017 25.7484 144.14 26.0141Z" fill="black"/>
</g>
<defs>
<clipPath id="clip0_729_559">
<rect width="150" height="55.8046" fill="white" transform="translate(0.160156 0.104248)"/>
</clipPath>
</defs>
</svg>
