<svg width="151" height="109" viewBox="0 0 151 109" fill="none" xmlns="http://www.w3.org/2000/svg">
<g clip-path="url(#clip0_729_431)">
<path d="M53.1188 104.685C48.0582 105.568 42.2133 106.341 36.4946 107.665C32.3169 108.634 28.8328 107.957 25.5143 105.363C24.4694 104.594 23.2826 104.039 22.0223 103.731C17.8202 102.643 13.9848 100.452 10.9119 97.3861C8.20824 94.7178 5.55183 91.9984 2.92302 89.2592C1.43717 87.7142 0.692273 85.9092 0.420327 83.6784C-0.115932 79.7861 0.142838 75.8254 1.18099 72.036C1.84802 69.8073 2.40052 67.5461 2.83631 65.261C3.88469 59.2821 8.52354 55.4078 11.3376 50.4379C12.6461 48.1362 13.4304 46.0513 12.386 43.4422C10.8607 39.6192 11.7041 36.5608 14.8768 33.5891C17.2416 31.3859 19.2122 28.7808 21.9947 26.9717C24.5644 25.2927 27.2445 24.7567 30.2319 25.6435C31.97 26.1559 33.113 27.3974 33.1406 28.9699C33.176 31.2519 33.2352 33.5142 32.1868 35.8395C28.5766 43.8521 24.4422 51.5691 20.3158 59.3097C18.4476 62.8134 17.5569 66.8887 16.54 70.7826C15.6257 74.2312 17.0958 76.9231 20.0241 78.8504C22.0893 80.214 24.0796 81.7275 26.2552 82.8862C32.3996 86.1614 39.1589 87.8561 45.9142 86.7486C51.7512 85.7909 57.5527 83.6311 62.0536 79.2603C62.4477 78.8977 63.1729 78.5863 63.1847 78.2316C63.3384 74.0657 66.6412 71.0467 67.1496 66.9596C67.4846 64.2638 68.5685 61.6665 69.2976 59.018C69.5341 58.1509 69.9243 57.2642 69.8927 56.3971C69.6602 50.1266 72.7935 44.865 74.8075 39.2448C76.5105 34.3303 79.1693 29.8015 82.6308 25.9194C84.8242 23.5229 87.2086 21.3085 89.7606 19.2981C93.623 16.216 97.7219 13.4217 101.643 10.4066C108.998 4.7549 117.456 1.78714 126.497 0.581115C130.761 0.00525805 135.08 -0.0490053 139.357 0.419523C144.122 0.959474 147.291 4.17553 149.096 8.57397C150.751 12.6137 150.641 16.4565 147.547 19.9129C146.696 20.8588 146.006 21.9506 145.218 22.9595C144.753 23.5586 144.359 24.3547 143.732 24.6621C137.004 27.9452 130.332 31.4135 122.37 29.2419C120.967 28.8924 119.497 28.9019 118.098 29.2695C111.761 30.9642 105.329 32.7023 100.165 36.9234C96.8982 39.5955 93.6624 42.5909 93.0279 47.2928C92.7688 49.1144 92.2485 50.8891 91.4829 52.5622C89.6817 56.535 88.4363 60.4802 88.7004 65.0048C88.8344 67.3183 87.3643 69.7067 86.7297 72.099C84.9877 78.5272 82.7333 84.7898 79.5685 90.6229C77.7831 93.9138 75.2095 96.8028 72.8093 99.7193C72.021 100.665 70.7519 101.339 69.5656 101.781C64.5248 103.637 59.5233 105.789 53.1188 104.685Z" fill="black"/>
</g>
<defs>
<clipPath id="clip0_729_431">
<rect width="150" height="107.982" fill="white" transform="translate(0.160156 0.104248)"/>
</clipPath>
</defs>
</svg>
