<svg width="151" height="154" viewBox="0 0 151 154" fill="none" xmlns="http://www.w3.org/2000/svg">
<g clip-path="url(#clip0_729_675)">
<path d="M0.160156 150.771C2.10115 148.581 3.6863 146.691 5.38466 144.915C10.2145 139.865 12.8025 133.651 14.6691 127.081C16.4671 120.674 19.3919 114.64 23.3065 109.259C27.98 102.843 32.7581 96.5048 37.6407 90.244C39.0124 88.4809 40.8757 87.1125 42.4479 85.4918C44.6866 83.182 46.7731 80.7169 49.0894 78.4848C51.6288 76.0391 54.3301 73.7585 57.0022 71.4519C58.5388 70.1288 60.2372 68.9804 61.7155 67.6088C64.1943 65.3615 67.0475 63.5659 70.1459 62.3034C71.5479 61.7491 72.9108 61.1006 74.2252 60.3624C76.5609 58.9875 78.9872 57.9264 81.7175 57.8294C83.4062 57.7679 84.5384 57.0271 85.3666 55.6005C87.7766 51.4403 91.4451 48.4156 94.7674 45.0479C98.2256 41.5444 101.338 37.6916 104.489 33.8969C106.892 31.0048 107.4 27.689 105.783 24.2405C104.256 20.9861 104.728 17.7479 105.478 14.4579C105.695 13.5197 105.876 12.5686 106.012 11.6176C106.523 8.03966 108.439 5.17669 110.816 2.65016C113.621 -0.326026 119.919 -0.985964 123.569 2.27814C125.422 3.93445 126.367 6.80713 127.273 9.27542C128.499 12.643 128.567 16.2112 128.114 19.7827C127.913 21.3678 128.088 23.0015 127.845 24.5737C126.93 30.5875 124.416 35.9447 121.349 41.1789C118.878 45.4038 115.85 48.752 111.479 50.9291C110.891 51.2079 110.376 51.6199 109.975 52.1326C107.232 55.9078 103.114 58.224 100.028 61.6273C99.1735 62.5686 98.3939 63.5683 97.349 64.8267C98.5394 65.6095 99.4452 66.3245 100.451 66.8485C103.861 68.6245 107.326 70.297 110.719 72.1022C111.314 72.4257 111.79 73.1309 112.117 73.7649C114.481 78.3554 117.59 82.4185 120.79 86.4461C122.365 88.4291 123.339 90.8877 124.888 92.8967C126.03 94.3783 127.596 95.5752 129.123 96.6913C129.569 97.0148 130.627 96.8434 131.235 96.549C132.885 95.7604 134.48 94.8634 136.01 93.8639C137.806 92.6864 139.469 91.3115 141.245 90.1081C142.839 89.0309 144.645 87.6366 146.537 88.7785C147.617 89.4064 148.517 90.3017 149.15 91.3782C149.784 92.4547 150.129 93.6762 150.154 94.925C150.241 98.0241 149.183 100.657 146.375 102.265C144.062 103.595 142.6 105.659 140.97 107.664C138.55 110.637 135.794 113.342 133.206 116.179C130.698 118.938 128.282 121.785 125.71 124.483C122.52 127.828 119.24 131.076 115.95 134.33C112.66 137.585 108.982 140.425 106.656 144.524C105.812 146.015 104.715 147.435 104.233 149.053C102.962 153.333 98.4877 155.112 94.7901 152.514C91.4839 150.195 88.4366 147.662 86.4632 144.171C85.056 141.68 82.6718 140.435 80.7082 138.656C80.32 138.306 79.3624 138.141 78.9192 138.371C76.548 139.607 75.0372 138.193 73.5524 136.753C71.4043 134.667 69.3663 132.467 67.2603 130.332C66.6046 129.698 66.0838 128.939 65.7291 128.099C65.3744 127.259 65.1932 126.356 65.1964 125.444C65.0896 115.17 66.5939 105.063 68.7549 95.0835C70.0359 89.3317 71.9769 83.7384 73.5944 78.0675C73.7432 77.5563 74.0344 77.0646 74.0797 76.547C74.2058 75.198 73.4068 74.3084 72.1387 74.7451C68.6061 75.9841 65.0832 77.3008 61.6929 78.8827C59.8748 79.7303 58.2703 81.0954 56.6948 82.3797C53.7122 84.8189 50.8233 87.3713 47.8892 89.8719C45.1297 92.2173 42.3606 94.553 39.6044 96.9048C38.6736 97.6319 37.7968 98.4255 36.9808 99.2793C34.2278 102.437 31.4522 105.578 28.8578 108.861C24.7461 114.079 20.353 119.116 17.4868 125.182C15.6525 129.064 14.1159 133.091 12.4111 137.038C10.0042 142.609 5.88609 146.792 1.31828 150.599C1.18565 150.709 0.923614 150.667 0.160156 150.771ZM128.055 111.194C126.438 110.757 125.277 110.566 124.225 110.12C123.397 109.767 122.44 109.256 121.996 108.535C119.984 105.271 118.845 101.463 115.85 98.8005C115.572 98.5514 115.526 98.0274 115.387 97.6327C114.789 96.0508 114.304 94.3977 113.566 92.8999C112.346 90.3993 110.771 88.0474 109.684 85.5015C107.882 81.241 104.382 78.5463 101.072 75.6865C99.5879 74.4632 97.9581 73.4278 96.2199 72.6036C93.5187 71.2611 91.5001 71.8045 89.8923 74.3602C88.7088 76.2721 87.6801 78.2755 86.8158 80.3514C85.111 84.3919 83.0956 88.2642 82.248 92.7026C81.4943 96.6622 81.601 100.599 81.3034 104.543C81.1837 106.215 81.284 107.907 81.284 109.625C82.3289 109.751 82.9533 109.864 83.5808 109.897C87.3399 110.1 88.6339 111.718 89.4297 115.441C90.2061 119.068 91.733 122.558 93.1823 126.007C94.0913 128.165 95.5115 130.102 96.6179 132.186C98.355 135.463 100.241 135.951 103.282 133.628C105.747 131.742 108.066 129.662 110.493 127.725C111.829 126.657 113.333 125.784 114.614 124.674C116.38 123.124 117.978 121.384 119.703 119.783C122.064 117.589 124.494 115.47 126.846 113.271C127.26 112.873 127.46 112.232 128.055 111.194Z" fill="black"/>
</g>
<defs>
<clipPath id="clip0_729_675">
<rect width="150" height="153.607" fill="white" transform="translate(0.160156 0.104248)"/>
</clipPath>
</defs>
</svg>
