<svg width="151" height="222" viewBox="0 0 151 222" fill="none" xmlns="http://www.w3.org/2000/svg">
<g clip-path="url(#clip0_729_787)">
<path d="M50.2133 221.504C52.8623 213.83 55.2265 206.224 60.6519 200.177C61.1524 199.645 61.5682 199.04 61.8846 198.382C63.9529 193.759 65.6577 188.955 68.835 184.894C70.0602 183.335 69.5094 181.844 68.3928 180.484C67.0552 178.854 65.6839 177.25 64.3313 175.631C60.9929 171.626 61.42 169.063 65.8975 166.242L67.3962 165.313C65.2605 159.438 63.1436 153.739 61.124 148.002C59.1045 142.266 57.1524 136.488 55.1628 130.681C52.4089 130.853 50.8652 132.554 49.3965 134.177C45.5822 138.422 41.7942 142.697 38.1298 147.073C33.8285 152.206 29.7032 157.489 25.4393 162.652C20.5423 168.584 18.3429 175.676 16.773 182.986C16.3458 184.983 16.6381 187.217 17.009 189.266C17.1626 190.128 18.2455 191.181 19.1335 191.492C22.1735 192.574 25.2813 193.457 28.4368 194.133C30.7448 194.609 30.7149 196.542 31.4005 198.011C32.0862 199.48 30.9622 200.499 29.9543 201.114C26.9568 202.934 23.6296 204.261 20.1151 204.032C14.4949 203.658 10.025 200.765 6.33059 196.685C3.55795 193.62 1.52343 190.094 0.710369 185.976C-0.325261 180.819 0.0964057 175.475 1.92808 170.543C3.31815 166.725 4.89931 162.975 6.38305 159.19C8.09207 154.69 10.283 150.387 12.9175 146.358C15.4391 142.581 17.039 138.197 19.0773 134.09C20.501 131.22 20.6322 128.201 20.6434 125.042C20.6434 120.546 21.1305 116.05 21.5052 111.553C21.8349 107.66 21.0818 104.232 18.3804 101.182C15.6302 98.0761 16.1323 94.7077 19.8229 92.8006C25.0684 90.0954 28.9239 85.9477 32.7456 81.6913C35.1698 78.9973 35.2672 76.0336 33.5212 72.9275C30.9622 68.3639 27.0542 64.988 23.1913 61.7732C18.5845 58.0198 14.6492 53.5106 11.5537 48.4383C9.82296 45.5174 9.23438 42.0593 9.90131 38.7303C10.2235 36.9656 12.1494 35.4893 13.146 34.1479C20.4111 36.6733 24.8886 42.1062 30.1041 46.6061C33.6674 49.671 37.7177 52.1626 41.5394 54.9315C43.85 56.6026 46.1455 58.2949 48.4261 60.0085C48.9169 60.3831 49.2841 60.9114 49.7712 61.2899C53.6229 64.2611 54.5034 64.1824 58.741 61.7732C62.0832 59.8773 65.6277 58.3449 69.0523 56.5951C70.0418 56.0749 70.9801 55.4628 71.8549 54.7667C75.0959 52.2563 79.1874 51.8217 82.8143 50.248C85.5495 49.0603 88.4346 48.1685 91.2334 47.1794C92.1739 46.8497 93.1443 46.43 94.1072 46.3925C100.379 46.2839 106.277 44.0096 112.422 43.2864C118.926 42.5371 124.411 44.995 128.78 49.7572C129.552 50.5965 129.987 51.979 130.095 53.1555C130.47 57.4756 129.762 61.4323 126.723 64.9318C123.351 68.8584 119.398 71.7585 114.778 74.1377C109.552 76.8279 105.411 81.0918 101.387 85.3781C99.8886 86.9893 99.8174 88.6566 100.99 90.4738C101.878 91.8526 102.114 93.0966 100.694 94.4679C99.5439 95.5695 99.8136 96.716 100.964 98.0162C104.021 101.437 103.662 103.295 99.9036 105.746C98.9144 106.39 98.0714 107.271 96.9061 108.252C98.1201 109.515 98.9144 110.699 100.012 111.411C103.122 113.427 106.247 115.469 109.578 117.061C111.522 117.987 113.913 117.93 116.019 118.582C117.782 119.106 119.468 119.862 121.032 120.831C124.119 122.798 127.3 124.3 130.987 124.791C136.422 125.518 141.59 127.588 146.023 130.816C152.299 135.342 150.965 140.149 144.85 143.93C141.587 145.945 137.84 146.519 134.112 146.841C132.127 146.979 130.231 147.717 128.675 148.958C126.427 150.745 124.262 152.622 121.931 154.297C115.389 159.033 108.769 163.664 102.223 168.385C100.724 169.475 99.4277 170.869 97.9627 172.027C97.322 172.533 96.4977 172.803 95.1901 173.466C95.7483 170.997 95.7633 168.853 96.6888 167.239C98.9369 163.342 100.207 159.067 101.732 154.919C102.92 151.556 104.336 148.277 105.97 145.106C106.955 143.233 108.18 141.494 109.076 139.591C110.503 136.575 110.099 135.488 107.322 133.738C101.552 130.104 95.8383 126.387 90.0007 122.873C88.221 121.797 86.1453 121.168 84.1519 120.501C81.9713 119.77 80.7798 120.126 80.0642 122.266C79.3108 124.621 78.8662 127.064 78.7415 129.534C78.6136 132.512 78.6824 135.495 78.9476 138.463C79.12 140.782 79.5771 143.087 79.9705 145.387C81.6753 155.331 84.1482 165.088 87.0108 174.755C87.7864 177.377 89.2888 179.075 91.7168 180.607C96.1905 183.429 101.058 185.137 105.955 186.857C108.015 187.584 110.365 187.449 112.493 188.037C117.15 189.326 119.342 193.256 121.111 197.202C122.171 199.555 119.863 202.489 117.233 202.665C115.627 202.83 114.006 202.713 112.44 202.32C103.587 199.697 95.0514 196.325 87.4716 190.877C85.9991 189.824 84.7739 190.034 83.5337 191.342C80.4613 194.579 77.4826 197.929 74.1667 200.911C70.3749 204.321 66.3771 207.528 62.2743 210.559C58.5837 213.298 54.5559 215.546 52.2403 219.784C51.8207 220.507 50.8952 220.938 50.2133 221.504Z" fill="black"/>
<path d="M70.8425 28.8912C71.2171 27.1902 71.5469 25.9312 71.7754 24.6573C72.4011 21.1953 73.8174 17.6508 70.7938 14.5409C70.6257 14.3544 70.5128 14.1248 70.4678 13.8777C69.7446 10.1909 68.9091 6.51898 68.3771 2.80589C68.1035 0.932481 69.2164 -0.191564 71.056 0.183118C73.5327 0.726406 76.1667 0.640229 78.4073 2.4949C79.8386 3.6789 81.9817 4.09479 83.8739 4.61185C87.7931 5.68344 88.5537 8.10389 85.8972 11.1238C84.2636 12.9972 82.8585 15.0392 81.2211 16.8902C79.8498 18.4451 78.19 19.749 76.8374 21.3227C74.934 23.537 73.1992 25.8938 70.8425 28.8912Z" fill="black"/>
<path d="M59.2277 53.6614L58.9579 55.4374L58.291 55.3362L58.617 53.5677L59.2277 53.6614Z" fill="black"/>
</g>
<defs>
<clipPath id="clip0_729_787">
<rect width="150" height="221.399" fill="white" transform="translate(0.160156 0.104492)"/>
</clipPath>
</defs>
</svg>
