<svg width="151" height="275" viewBox="0 0 151 275" fill="none" xmlns="http://www.w3.org/2000/svg">
<g clip-path="url(#clip0_729_595)">
<path d="M125.862 272.101C127.651 259.901 129.239 247.651 131.256 235.476C135.314 210.775 139.574 186.325 126.694 162.38C123.291 156.103 123.593 147.76 122.484 140.324C116.611 100.928 96.4969 69.0675 67.9387 42.5005C61.612 36.6024 51.8573 34.107 43.3378 31.0319C37.9689 29.091 31.1129 30.3513 26.3994 27.8307C17.3505 22.5879 9.36029 15.5555 0.160156 8.7499C5.70544 -0.198173 12.9143 -0.82832 21.8372 0.81006C60.2005 7.84249 89.2628 27.9568 108.848 61.6066C117.897 77.1586 127.828 92.4333 135.011 108.842C151.572 146.651 154.092 185.972 144.842 226.251C141.893 239.157 140.733 252.465 137.935 265.421C137.23 268.723 133.499 271.37 131.155 274.319L125.862 272.101Z" fill="black"/>
</g>
<defs>
<clipPath id="clip0_729_595">
<rect width="150" height="274.214" fill="white" transform="translate(0.160156 0.104248)"/>
</clipPath>
</defs>
</svg>
