<svg width="151" height="161" viewBox="0 0 151 161" fill="none" xmlns="http://www.w3.org/2000/svg">
<g clip-path="url(#clip0_729_499)">
<path d="M12.0006 36.7845C12.6713 36.0126 13.2521 35.1321 14.0277 34.4913C17.565 31.5761 21.2859 28.8707 24.6995 25.8243C29.6906 21.3652 34.3108 16.4865 39.4181 12.1699C41.8199 10.1389 44.8289 8.30286 47.8378 7.64337C51.6748 6.80028 54.9348 4.90425 58.3559 3.36794C65.4379 0.190399 72.5386 -0.963707 80.089 1.24708C83.304 2.1876 86.6052 2.86957 89.779 3.92251C93.7322 5.23399 96.7149 7.6696 98.2512 11.7577C98.9562 13.4882 99.8456 15.1377 100.904 16.6776C103.995 21.4327 103.838 26.8135 103.928 32.1269C103.912 33.2442 103.551 34.3292 102.894 35.2332C100.683 38.2309 98.6671 41.3785 95.0699 43.0459C92.8217 44.0914 90.802 45.6389 88.5575 46.7031C85.4436 48.2019 84.2858 47.7523 82.5321 44.9345C81.4905 43.2558 80.6174 42.9148 78.8225 44.0089C77.2105 44.9499 75.7428 46.1185 74.4646 47.4788C67.7948 54.913 60.3269 61.5416 51.9483 66.825C46.2528 70.4185 42.442 75.3459 39.1145 80.6893C37.6157 83.1174 37.0836 86.7708 37.5108 89.6598C38.7623 98.1957 43.9258 104.326 53.0537 106.023C59.5212 107.226 66.1423 107.65 72.6998 108.332C73.8726 108.455 75.0829 108.152 76.5443 108.021C76.4131 106.822 76.4693 105.952 76.2033 105.199C75.645 103.621 75.9447 102.509 77.0389 101.141C78.3092 99.5447 78.8038 97.3563 79.9504 95.6327C83.0492 90.99 86.298 86.4523 89.5167 81.8883C90.2324 80.8729 91.1842 80.0148 91.8174 78.9544C93.5036 76.1253 92.7467 73.8133 89.6291 72.7642C88.1303 72.262 86.4516 72.352 84.8516 72.1796C84.1546 72.1047 83.4539 72.0485 82.6633 71.9735C86.2118 65.0676 94.4591 61.2793 100.17 61.7102C102.084 61.8526 104.067 62.6657 105.772 63.6212C108.395 65.0938 109.144 67.5295 107.997 70.3398C107.398 71.8386 106.416 73.1464 105.625 74.5553C105.018 75.6307 104.479 76.7436 103.842 77.8003C103.205 78.8569 102.695 80.0747 101.796 80.8242C98.0489 83.953 95.9992 88.2621 93.7097 92.3765C93.2001 93.287 93.1589 95.0444 93.7097 95.8538C95.1786 97.9784 97.0484 99.8369 98.8432 101.718C99.7763 102.696 100.942 102.865 102.279 102.34C106.356 100.74 110.328 98.9976 113.633 95.9924C117.495 92.4776 121.408 89.0153 125.373 85.6055C126.339 84.833 127.41 84.2021 128.554 83.7319C129.573 83.2823 130.828 83.286 131.747 82.7164C136.779 79.5876 141.665 81.3975 146.461 83.1661C149.32 84.219 149.549 87.2879 149.991 89.6935C150.913 94.7596 148.118 99.7058 143.246 102.194C140.586 103.547 137.798 104.663 135.003 105.754C133.575 106.312 132.874 107.114 132.548 108.669C131.181 115.17 126.474 118.595 119.808 118.82C115.353 118.97 110.905 119.723 106.484 120.405C103.535 120.862 100.646 121.731 97.7116 122.316C93.365 123.185 89.9214 125.523 88.6437 129.69C87.261 134.187 83.8661 136.81 80.8272 139.807C76.8853 143.689 71.9728 146.177 67.1316 148.714C60.0625 152.389 52.7276 155.528 45.1886 158.104C40.9656 159.562 36.5703 159.382 32.2686 159.768C27.7009 160.176 23.1032 160.311 18.5168 160.517C17.0779 160.574 15.6315 160.409 13.8291 160.334C14.5486 158.689 15.5828 159.007 16.4521 158.887C18.528 158.61 20.6039 158.325 22.6573 157.924C26.9252 157.096 31.2119 156.306 35.4386 155.283C41.6064 153.784 47.834 152.427 53.8481 150.441C63.4403 147.267 72.2759 142.151 79.8043 135.412C82.8019 132.733 84.5219 129.387 85.2713 124.942C83.8886 124.879 82.5921 124.661 81.3331 124.793C77.2113 125.227 73.1569 125.422 69.0463 124.568C63.7142 123.444 58.6706 125.07 53.657 126.636C49.1343 128.049 44.5516 129.293 40.1188 130.945C33.745 133.321 27.5135 136.015 21.9341 140.111C19.9594 141.561 17.6175 142.513 15.4441 143.7C13.9191 144.536 12.3903 145.368 10.8802 146.237C10.2357 146.612 9.69609 147.268 9.00663 147.451C6.8483 148.032 4.65625 149.838 2.40799 147.687C-0.0576001 145.312 -0.428563 142.734 0.954116 139.624C3.30729 134.336 7.54526 131.065 12.5251 128.517C14.2975 127.607 16.0324 126.644 17.8086 125.722C21.2034 123.994 24.677 122.406 28.0044 120.555C31.5979 118.554 31.804 117.43 28.7988 114.848C22.7397 109.643 20.0006 102.55 17.7074 95.3329C16.4071 91.2411 17.4638 87.3591 20.0606 83.4434C23.0582 78.9469 27.3412 75.241 28.9786 69.8452C29.2108 69.1316 29.6179 68.4876 30.1627 67.9716C35.3824 62.9992 40.4597 57.8545 45.9642 53.223C48.3549 51.2109 51.5849 50.1654 54.5451 48.8802C57.5053 47.5949 60.9151 47.6099 63.4819 45.3616C69.3461 44.8146 73.7377 40.438 79.3621 39.2389C80.3214 39.0328 81.2169 38.5194 82.1275 38.1148C86.3429 36.2037 87.7668 33.4759 86.3017 28.9081C83.72 20.9043 78.8488 15.1675 70.414 12.5633C61.9793 9.95908 53.9006 11.1357 45.7357 13.1104C44.1479 13.4805 42.6828 14.255 41.4827 15.3586C38.9234 17.8767 35.0602 18.8397 33.2953 22.2496C33.2228 22.3516 33.1296 22.4371 33.0218 22.5006C26.6017 27.3244 20.1667 32.1406 13.7167 36.9494C13.387 37.193 12.8774 37.193 12.4502 37.3241L12.0006 36.7845Z" fill="black"/>
</g>
<defs>
<clipPath id="clip0_729_499">
<rect width="150" height="160.424" fill="white" transform="translate(0.160156 0.104248)"/>
</clipPath>
</defs>
</svg>
