<svg width="151" height="98" viewBox="0 0 151 98" fill="none" xmlns="http://www.w3.org/2000/svg">
<g clip-path="url(#clip0_729_579)">
<path d="M0.160156 88.1367C0.970407 87.8889 2.22463 87.8815 2.51691 87.3487C4.16701 84.3519 7.26372 83.7784 9.95346 82.4613C11.2479 81.8555 12.4272 81.0292 13.4386 80.0194C15.7066 77.6331 17.8155 75.2097 20.7605 73.456C23.3281 71.9169 25.4444 69.5158 27.5126 67.2663C30.5945 63.9143 34.4312 61.5909 38.0792 59.0121C40.2768 57.4545 42.5374 56.0893 43.8064 53.5549C44.1764 52.815 44.9903 52.334 45.6193 51.7495C48.9306 48.6823 52.3862 45.7484 55.5236 42.5C58.0283 39.9102 58.9163 36.5804 57.7028 33.0989C57.4715 32.5486 57.1285 32.0523 56.6954 31.6415C56.2623 31.2308 55.7486 30.9144 55.1869 30.7125C52.1309 29.8542 48.9528 29.4398 45.8524 28.7331C43.5716 28.2565 41.3266 27.6223 39.1336 26.8352C37.095 26.0582 36.7768 24.7818 37.6537 22.6803C39.3926 18.4478 42.752 15.5767 45.9153 12.4689C50.725 7.75912 57.0701 5.97583 62.7456 2.91611C62.9573 2.8018 63.1879 2.7266 63.4263 2.69412C69.5383 1.92827 75.3655 -0.787364 81.7883 0.433562C85.8766 1.21421 90.0906 1.30671 94.2269 1.86538C96.0521 2.11539 97.8439 2.56705 99.5694 3.21209C102.718 4.39232 103.243 6.368 101.02 8.83575C99.2155 10.7892 97.2955 12.6326 95.2703 14.3558C93.2058 16.1576 93.0504 17.0567 94.7227 19.2691C97.4531 22.8986 100.731 25.3109 105.382 26.4874C113.58 28.563 121.579 31.4266 129.637 34.0386C131.021 34.4863 132.227 35.4149 133.6 35.9662C135.509 36.7358 135.82 37.9382 135.117 39.7807C134.007 42.6813 132.897 45.5153 129.323 46.2368C128.683 46.3663 128.032 46.9767 127.614 47.5539C127.187 48.143 126.641 48.6347 126.01 48.9964C125.379 49.3581 124.678 49.5815 123.955 49.6517C121.424 50.0217 120.033 51.8012 118.716 54.4318C120.129 54.6168 121.032 54.8351 121.931 54.8388C129.804 54.8388 137.673 54.7796 145.543 54.8388C146.982 54.8388 148.421 55.2753 149.816 55.5047C150.693 57.8504 149.816 59.4043 148.144 60.4439C146.042 61.7081 143.876 62.8628 141.654 63.9032C138.169 65.594 134.625 67.196 130.648 69.0607C127.928 67.5808 124.728 65.4275 121.235 64.0845C117.491 62.6453 113.466 61.8424 109.526 61.0433C107.787 60.6918 106.802 62.0274 107.047 63.807C107.276 65.4719 108.12 66.6928 109.466 67.7769C112.796 70.4629 115.989 73.3265 119.274 76.094C120.384 77.03 121.616 77.8329 122.789 78.6838C125.213 80.4856 125.346 82.3836 123.281 84.548C120.229 87.7446 116.281 88.6436 112.152 88.4401C110.613 88.3661 108.897 87.2784 107.679 86.187C105.13 83.8968 102.818 81.3329 100.48 78.817C98.0451 76.2013 95.3332 74.6215 91.6334 75.9016C91.1665 76.0689 90.6708 76.1406 90.1757 76.1125C84.8554 75.7425 80.6451 78.1363 76.2941 80.8926C70.0859 84.8291 63.1895 87.419 56.2192 89.7166C52.7821 90.8598 49.2192 91.4295 46.0485 93.6309C43.873 95.1404 40.817 95.3735 38.1568 96.1911C37.2058 96.4163 36.277 96.7271 35.382 97.1198C33.4766 98.1076 33.4988 98.1557 30.6204 96.661C31.8339 95.5178 32.7996 94.2747 34.0538 93.4866C39.0448 90.3381 43.8101 86.9528 47.9539 82.7018C49.0194 81.5918 50.6843 81.0961 52.0754 80.3154C55.7012 78.2731 59.2604 76.1014 62.9749 74.2367C65.0357 73.2044 67.3777 72.7568 69.5494 71.928C73.4083 70.4666 73.893 69.4159 72.4723 65.483C71.6102 63.0893 70.6816 60.7066 69.6197 58.3943C68.8132 56.6406 66.0828 55.5787 63.8925 55.9376C60.1594 56.5518 57.2329 58.7494 54.9723 61.4873C52.327 64.695 48.9972 66.9222 45.5897 69.0385C41.8899 71.3324 38.5934 73.8741 36.1035 77.5184C34.4608 79.9195 32.4037 82.0543 30.4428 84.2187C29.7443 84.9119 28.9273 85.4745 28.0306 85.8799C24.5528 87.6336 21.001 89.2097 17.5565 91.0596C13.8567 93.0463 9.78697 93.2794 5.85041 94.0194C3.97092 94.3894 2.05814 94.5374 0.160156 94.7889L0.160156 88.1367ZM105.815 54.2357C104.978 53.5216 104.268 52.6485 103.354 52.2304C102.792 51.9714 101.908 52.4117 101.171 52.5375C101.434 53.259 101.497 54.2135 102.004 54.6501C103.132 55.6194 104.431 55.6009 105.815 54.2357Z" fill="black"/>
</g>
<defs>
<clipPath id="clip0_729_579">
<rect width="150" height="97.7222" fill="white" transform="translate(0.160156 0.104248)"/>
</clipPath>
</defs>
</svg>
