<svg width="151" height="63" viewBox="0 0 151 63" fill="none" xmlns="http://www.w3.org/2000/svg">
<g clip-path="url(#clip0_729_467)">
<path d="M95.3369 2.64905C94.8498 2.70761 94.3627 2.79279 93.8729 2.81941C87.1677 3.21868 80.4865 3.80429 73.9464 5.43067C72.8444 5.69686 71.7903 6.17599 70.7149 6.55929C69.0592 7.15288 67.3743 7.6746 65.7639 8.36668C64.573 8.91653 63.4221 9.54893 62.3194 10.2592C60.5839 11.324 58.8191 12.3302 57.1688 13.5094C52.8646 16.6077 48.8399 20.0202 45.7122 24.3803C44.9935 25.3812 44.0406 26.209 43.2686 27.1779C42.5175 28.0483 41.8608 28.9959 41.3095 30.0048C40.5589 31.5273 41.1472 32.3073 42.8747 32.294C43.4071 32.294 43.9394 32.1875 44.4718 32.1582C46.6705 32.0411 48.8692 31.892 51.0705 31.8388C53.6205 31.7909 56.1732 31.8707 58.7233 31.8388C59.25 31.8004 59.7613 31.6439 60.2192 31.3809C63.3602 29.7413 66.7274 29.3659 70.2171 29.2089C74.532 29.0172 78.8308 28.5115 83.1324 28.0776C85.7383 27.8114 87.5191 25.8842 89.6459 24.6598C91.243 23.7441 92.8401 22.8444 94.4372 21.8942C95.7894 21.0796 97.0325 20.0468 98.4513 19.3867C103.719 16.9351 108.707 13.8927 114.324 12.1651C116.914 11.3666 119.328 10.0037 121.851 8.97092C123.917 8.12712 126.041 7.56813 128.322 7.99136C129.848 8.27618 131.272 7.95143 132.701 7.29662C134.054 6.67693 135.475 6.21516 136.933 5.92045C138.565 5.59304 139.92 5.93376 141.049 7.54151C142.297 9.32494 143.993 10.8049 145.574 12.3328C146.125 12.8652 146.905 13.1553 147.623 13.512C148.462 13.9326 149.324 14.3106 150.176 14.6992L150.112 15.3407C149.135 15.4259 148.156 15.4844 147.184 15.6069C144.123 15.9795 141.033 16.2164 138.014 16.8047C134.78 17.4329 131.581 17.8694 128.296 17.409C126.22 17.1215 124.303 17.6751 122.405 18.503C120.627 19.2669 118.82 20.1001 116.94 20.4621C114.526 20.9386 113.366 22.8045 111.193 24.3351C112.224 24.6305 112.684 24.894 113.123 24.8674C115.074 24.729 116.501 25.634 117.763 26.9783C121.513 30.971 121.67 35.4962 118.085 39.6886C116.94 41.0195 115.559 42.1534 114.313 43.4151C112.716 45.0335 110.69 45.3663 108.659 44.8286C105.407 43.9688 102.239 43.7638 98.9783 44.7434C98.128 44.9783 97.2238 44.9249 96.407 44.5917C93.5614 43.306 90.4737 43.7745 87.5297 43.2315C86.7871 43.093 85.733 43.8091 85.0409 44.392C82.1714 46.817 80.1777 49.9686 77.9923 52.9791C76.2914 55.3269 74.2152 57.4058 72.2348 59.5432C71.1993 60.6612 69.8152 60.8954 68.3192 60.7144C66.3015 60.4722 65.8863 59.9159 66.4826 57.9088C67.2119 55.46 68.9501 53.6499 70.5152 51.7387C71.918 50.0325 73.4965 48.4726 74.878 46.7504C75.4237 46.069 75.6446 45.1267 76.1956 43.8889C74.6251 43.6707 73.5338 43.3992 72.4371 43.3965C70.5738 43.3965 68.7105 43.5669 66.8632 43.6627C64.3052 43.7745 61.7445 43.833 59.1891 43.9848C56.293 44.1551 53.365 44.1871 50.5168 44.6662C47.3226 45.1986 44.1843 44.8046 41.0194 44.7647C40.2208 44.7647 39.4436 44.8126 38.6557 44.8312C37.3567 44.8605 36.0551 44.8658 34.7561 44.9191C33.0845 44.9883 31.3968 44.9696 29.7492 45.2252C28.4342 45.4301 27.7475 46.5428 27.1619 47.6954C25.799 50.3732 24.3403 53.0004 22.9881 55.6809C21.7903 58.0499 19.9376 59.7828 17.8002 61.2548C17.3576 61.5421 16.8775 61.7669 16.3734 61.9229C14.244 62.6469 13.1792 61.9229 13.094 59.6098C12.9701 57.4559 13.6164 55.3283 14.9174 53.6073C16.3468 51.7147 17.9226 49.9233 19.2243 47.9482C19.8498 46.9953 19.9909 45.7229 20.4354 44.3335C17.2412 43.7053 14.6592 44.5251 12.1012 45.4168C8.85373 46.5481 5.62758 47.7326 2.36948 48.8293C1.77589 49.0289 1.07583 48.9225 0.160156 48.973C0.987988 46.4203 2.4866 44.8232 4.17155 43.4151C9.33019 39.1402 14.5341 34.9345 19.746 30.7155C21.7849 29.0625 23.9304 28.0536 26.5736 29.4431C27.8167 30.09 28.9293 29.6534 29.9861 28.775C32.337 26.7748 34.4566 24.5177 36.3053 22.0459C37.2981 20.7549 38.7488 19.8179 39.944 18.6707C41.7807 16.905 43.5934 15.1153 45.3822 13.3017C48.7936 9.84741 52.6919 6.9105 56.9532 4.58421C59.0081 3.45026 61.4117 2.93387 63.669 2.18855C65.3326 1.62956 67.0176 1.12381 68.6945 0.612742C69.1976 0.458355 69.7087 0.226775 70.2198 0.221451C72.0591 0.200156 73.9756 -0.0447328 75.7271 0.357205C78.759 1.05195 81.7189 0.314616 84.7055 0.370514C88.3522 0.447708 91.8339 1.23295 95.3209 2.10337L95.3369 2.64905Z" fill="black"/>
</g>
<defs>
<clipPath id="clip0_729_467">
<rect width="150" height="62.0501" fill="white" transform="translate(0.160156 0.104248)"/>
</clipPath>
</defs>
</svg>
