<svg width="151" height="183" viewBox="0 0 151 183" fill="none" xmlns="http://www.w3.org/2000/svg">
<g clip-path="url(#clip0_729_199)">
<path d="M114.686 91.0236C117.521 91.3811 119.177 90.666 119.87 88.3027C120.439 86.3648 121.343 84.4662 121.529 82.4962C121.936 78.3652 122.114 74.215 122.062 70.0644C121.983 64.9944 122.42 60.1712 125.416 55.8235C126.32 54.5113 126.825 52.8666 127.257 51.3005C128.802 45.6943 129.924 39.9486 131.791 34.4531C134.136 27.5454 135.366 20.4267 136.199 13.2794C136.575 10.0615 136.607 6.36097 134.276 3.35404C133.918 2.89996 133.965 1.63426 134.34 1.25526C134.791 0.808332 136.067 0.518722 136.507 0.83336C137.519 1.54845 138.681 2.55314 138.985 3.66152C139.566 5.83174 139.842 8.07253 139.803 10.319C139.793 13.0496 139.486 15.7709 138.888 18.4352C138.298 20.8879 138.974 22.8366 140.193 24.7673C140.951 25.9686 141.816 27.0985 142.735 28.4071C139.821 31.3711 139.743 35.2004 139.56 39.0225C139.382 42.6909 139.035 46.3629 139.049 50.0313C139.07 56.0845 139.267 62.1341 139.514 68.1801C139.575 69.664 140.118 71.1299 140.479 72.7782C141.394 72.5887 141.942 72.4635 142.492 72.3598C145.324 71.8342 147.001 72.5887 148.374 75.1594C149.83 77.8224 150.369 80.8907 149.908 83.8906C149.296 88.317 149.332 92.8292 148.774 97.2663C148.395 100.248 147.401 103.151 146.804 106.112C145.967 110.249 145.249 114.407 144.473 118.558C143.633 123.052 144.448 127.693 143.182 132.166C142.825 133.367 142.982 134.744 143.082 136.024C143.422 139.822 143.02 143.649 141.899 147.294C140.876 150.63 141.602 154.294 142.428 157.752C142.732 159.021 143.207 160.255 143.554 161.513C145.134 167.28 143.969 172.121 139.206 176.137C137.15 177.871 135.184 179.712 133.014 181.325C130.153 183.448 127.103 182.444 124.075 182.304C121.769 182.197 120.95 180.391 119.835 178.879C116.356 174.163 116.552 169.225 118.862 164.12C120.035 161.524 120.392 158.817 120.4 155.896C120.463 151.654 120.848 147.423 121.551 143.239C121.83 141.451 121.401 140.239 120.246 139.131C118.283 137.25 116.274 135.42 114.257 133.589C111.947 131.494 110.946 131.526 108.629 133.829C102.683 139.746 95.4752 143.393 87.5771 145.985C84.1125 147.122 80.8696 148.924 77.5266 150.429C76.8759 150.723 76.2466 151.076 75.5815 151.323C74.1979 151.831 72.5675 152.206 71.6486 150.933C71.1087 150.183 71.1659 148.588 71.5699 147.633C73.6294 142.749 74.3123 137.222 78.1916 133.167C78.3024 133.053 78.1916 132.742 78.1916 132.066C76.6291 132.52 75.199 132.967 73.7545 133.353C70.5366 134.218 67.2329 135.112 63.9042 134.251C61.7509 133.635 59.67 132.79 57.6972 131.73C56.3207 131.015 55.1944 131.312 53.9967 131.912C49.0554 134.365 43.846 135.638 38.347 136.349C29.0509 137.547 19.8477 139.36 10.5874 140.811C7.41955 141.308 4.21954 141.28 1.48076 139.21C-0.138905 137.983 -0.30695 136.989 0.622662 135.187C1.69529 133.078 2.76792 130.965 3.89418 128.887C5.76413 125.455 9.55766 124.171 13.3691 125.065C19.5273 126.524 25.9332 126.595 32.1222 125.273C32.5691 125.18 33.227 124.979 33.3521 124.658C34.3962 121.972 37.2494 121.297 38.9942 119.441C40.9678 117.342 43.0201 116.72 45.6695 117.979C49.96 120.017 54.3471 119.566 58.4838 117.725C62.0706 116.174 65.4958 114.274 68.7096 112.051C75.9069 106.941 83.7621 103.112 91.6388 99.2542C94.3117 97.9615 96.7849 96.2914 98.9827 94.2951C100.449 92.9364 101.428 90.8448 102.108 88.8962C103.459 85.0347 106.438 82.4783 109.008 79.6001C110.367 78.0841 114.189 78.0376 115.684 79.1567C117.421 80.4582 118.312 84.3339 117.285 86.3076C116.52 87.7592 115.701 89.1822 114.686 91.0236ZM127.307 89.0428L128.115 89.1536C135.17 71.5268 136.017 53.0203 135.649 34.303C134.997 35.0998 134.546 36.0415 134.333 37.0489C133.282 42.8697 132.324 48.7119 131.276 54.5363C131.133 55.3122 130.636 56.0237 130.332 56.7781C129.259 59.4668 127.089 61.7623 127.425 64.9658C127.572 66.396 127.661 67.8047 127.715 69.2278C127.926 74.5551 129.006 79.8647 127.983 85.2099C127.736 86.4828 127.533 87.7628 127.307 89.0428ZM113.76 109.48C114.118 110.731 114.897 111.582 116.445 111.268C116.745 111.207 117.21 110.481 117.121 110.224C116.61 108.708 115.533 108.311 114.082 109.004C114.007 109.037 113.964 109.183 113.76 109.48Z" fill="black"/>
</g>
<defs>
<clipPath id="clip0_729_199">
<rect width="150" height="181.943" fill="white" transform="translate(0.0605469 0.701172)"/>
</clipPath>
</defs>
</svg>
