<svg width="151" height="122" viewBox="0 0 151 122" fill="none" xmlns="http://www.w3.org/2000/svg">
<g clip-path="url(#clip0_729_743)">
<path d="M84.9485 68.2313C82.4413 64.517 79.3771 61.7091 75.0983 60.4314C74.655 60.2726 74.2885 59.9513 74.0731 59.5325C72.4017 55.8777 69.616 54.5443 65.6009 55.4729C64.3121 57.6271 65.3335 59.7925 66.1395 61.7239C67.7384 65.576 68.8151 69.6245 69.3412 73.7618C69.46 74.6718 70.0246 75.5781 70.5595 76.3618C71.6737 77.9998 71.9263 79.5263 70.3292 80.986C68.8843 82.312 68.5018 83.586 69.5863 85.5286C70.4926 87.174 70.3292 89.2428 71.7629 90.8919C72.7471 92.0396 72.3014 93.9488 71.1389 94.9776C69.0589 96.805 67.0829 98.7699 63.9109 98.9816C61.6824 99.1301 59.491 100.137 57.2959 100.805C55.4165 101.381 53.5593 102.012 51.6948 102.633C48.7977 103.598 46.0937 104.702 43.6051 106.748C39.9949 109.675 35.7532 111.822 31.9424 114.503C27.3237 117.792 22.1023 120.138 16.5765 121.408C8.66519 123.243 3.84038 116.951 3.20524 110.808C3.04182 109.218 5.80522 106.25 8.0672 105.872C14.114 104.861 18.2628 100.961 22.4711 96.9944C25.8139 93.8448 29.7733 91.5902 34.0261 89.8557C37.2018 88.5557 40.4443 87.3857 43.5086 85.8591C46.1308 84.5517 45.9563 80.8189 43.3711 79.3963C42.8326 79.0992 42.2569 78.7129 41.67 78.6832C35.5007 78.3675 30.3267 74.6347 24.3468 73.7024C22.2408 73.3755 20.5322 71.2213 17.8951 72.4544C16.8217 74.371 16.3054 76.8446 13.7686 78.0629C10.6412 79.5486 5.59722 78.9395 3.26467 76.3729C2.52182 75.5521 1.75669 74.7387 1.06955 73.8695C0.663565 73.4329 0.375895 72.8997 0.233843 72.3207C-0.367865 67.8004 2.7781 63.5253 7.38006 62.6265C11.3617 61.8502 15.3471 60.6951 19.3548 60.5799C23.4209 60.5305 27.4751 61.0303 31.4075 62.0656C34.1825 62.7719 37.039 63.1066 39.902 63.0611C40.2735 59.8408 38.8138 57.2223 37.1312 55.1831C34.1598 51.5877 32.2358 47.5578 30.7241 43.2975C29.0193 38.469 29.8178 34.6953 34.0447 31.1631C34.4959 30.7459 34.9859 30.3728 35.5081 30.0488C37.2946 29.0942 37.5063 27.694 36.7375 25.9966C34.8432 21.8292 35.3038 17.8921 37.6995 14.0367C38.5315 12.6958 38.9995 11.1321 39.6495 9.67614C40.2995 8.22015 40.9346 6.70474 42.9032 6.53017C43.0879 6.50167 43.2644 6.43387 43.4208 6.33136C43.5771 6.22884 43.7096 6.09398 43.8094 5.93589C45.7186 2.30335 49.5071 1.63479 52.8351 0.817654C57.2922 -0.27805 61.9201 -0.136909 66.3326 1.70536C67.9038 2.36278 69.5566 3.12049 71.2094 3.22449C76.2757 3.54763 79.9677 6.63417 83.0393 9.91014C85.0265 12.0235 85.8176 15.6709 86.2299 18.7538C86.6301 21.8015 87.6407 24.7373 89.2013 27.3857C90.9135 30.3014 93.5878 30.6579 96.7858 29.2428C101.027 27.3597 105.21 25.3391 109.786 24.2694C112.191 23.7171 114.493 22.7815 116.601 21.4986C121.181 18.6609 125.646 20.0129 130.132 21.402C133.197 22.3492 135.407 24.5146 137.104 27.1703C138.181 28.8565 137.966 30.3645 136.164 31.1891C132.959 32.6748 129.85 34.2533 126.069 34.3648C120.316 34.5319 114.503 34.6879 109.136 37.3807C106.773 38.5656 104.114 42.005 104.263 44.4935C104.3 45.1064 104.868 46.1501 105.28 46.1984C108.155 46.5289 108.779 48.8912 109.801 50.8969C110.432 52.1412 111.13 52.9694 112.686 53.3854C114.759 53.9351 116.401 55.3429 117.983 57.0106C119.814 58.9382 122.407 60.1454 124.687 61.6385C124.832 61.7351 125.322 61.5419 125.33 61.5754C126.247 64.6916 128.988 63.7259 131.105 64.2273C135.217 65.2079 138.66 67.5182 142.01 69.9696C142.296 70.1776 142.504 70.7533 142.731 70.7421C146.999 70.5898 147.827 74.3821 149.662 76.8855C151.04 78.7686 149.29 82.5869 146.653 84.0354C141.947 86.6027 136.807 88.2763 131.492 88.9717C128.817 89.3431 126.087 89.6031 123.517 90.3682C118.588 91.8539 111.594 96.5933 112.003 103.116C112.016 104.207 112.22 105.288 112.605 106.31C114.532 110.615 112.668 115.191 108.148 116.476C105.461 117.276 102.705 117.827 99.9169 118.121C98.1303 118.285 96.2026 117.898 94.4607 117.378C89.7176 115.941 85.1416 114.195 82.3931 109.578C79.7225 105.073 79.2991 100.746 82.1516 96.025C84.629 91.9394 86.527 87.4823 88.6813 83.1849C88.9041 82.7466 89.0007 82.0706 89.3536 81.896C92.2655 80.3249 91.649 77.0192 92.9304 74.6495C94.0149 72.6401 91.5933 69.2304 88.8447 68.6102C87.6933 68.287 86.4304 68.3427 84.9485 68.2313ZM127.187 79.0955C125.783 80.3509 125.783 80.3509 126.797 82.4383C126.897 81.0752 126.979 80.0203 127.057 78.9692L128.836 81.4243C130.493 80.6815 131.039 79.7863 130.812 78.3118C130.636 77.3685 130.689 76.3969 130.964 75.4778C132.272 71.7635 131.611 70.0661 128.736 67.2767C127.413 65.9879 126.507 66.3853 125.129 66.9536C125.129 65.2376 125.181 63.4808 122.797 63.7668L121.044 66.1105C120.446 63.1391 118.952 62.0916 115.669 62.4445L119.32 65.8913C116.063 66.4447 115.298 63.2579 112.768 62.6525L111.412 65.7762C113.879 66.6787 115.275 68.3762 114.867 71.0801C114.406 74.1184 115.803 75.6487 118.054 76.9709C118.206 77.0601 118.228 77.3646 118.306 77.5726L117.069 78.1298C117.612 79.5189 118.135 80.8486 118.655 82.1783L119.316 82.2266C119.688 80.6072 120.059 78.9878 120.431 77.3981L122.466 79.9423L123.146 79.5709L120.264 73.123L127.187 79.0955ZM93.0901 53.4263C92.2544 52.2526 91.6044 50.8263 90.5347 49.9646C88.9518 48.7576 87.2204 47.759 85.383 46.9932C84.7925 46.7332 83.8305 47.3089 82.9688 47.5206C84.7627 50.3583 85.3125 50.7186 93.0901 53.4263ZM103.999 58.8157L104.931 58.3588C104.589 57.616 104.251 56.8397 103.91 56.0783L103.148 56.3866L103.999 58.8157Z" fill="black"/>
</g>
<defs>
<clipPath id="clip0_729_743">
<rect width="150" height="121.627" fill="white" transform="translate(0.160156 0.104492)"/>
</clipPath>
</defs>
</svg>
