<svg width="151" height="67" viewBox="0 0 151 67" fill="none" xmlns="http://www.w3.org/2000/svg">
<g clip-path="url(#clip0_729_463)">
<path d="M3.29229 48.3614C3.48204 47.1385 3.61322 46.2788 3.76081 45.2996L0.209456 46.1968C0.209456 45.1075 0.0829566 44.3415 0.235224 43.6387C0.548582 42.0433 0.980023 40.4734 1.52599 38.9419C2.91279 35.3296 4.3769 31.7462 5.91832 28.1918C6.42094 27.0562 7.12312 26.02 7.9915 25.1324C10.0787 23.024 10.5683 20.4472 10.5215 17.451C9.81871 16.8631 9.00584 16.1228 8.12737 15.495C5.11013 13.3375 3.90839 10.2382 3.47735 6.72437C3.2876 5.19467 3.051 3.67902 2.88702 2.13995C2.80572 1.4524 2.88593 0.75536 3.12128 0.104248C3.69287 2.02282 4.29257 3.93436 4.82668 5.85996C5.59739 8.60078 7.32387 10.6646 9.44859 12.4379C9.84683 12.7706 10.4137 12.9064 10.9197 13.0962C15.7829 14.8789 20.3861 17.1488 23.9843 20.9649C26.2519 23.3731 28.9037 25.54 30.2202 28.6954C31.2931 31.2535 32.4105 33.821 31.6398 36.7492C31.4923 37.3138 31.7218 38.1547 32.0873 38.6233C32.7385 39.476 33.6006 40.1787 34.4298 40.8909C36.7092 42.8657 39.1619 44.6671 41.2631 46.8129C43.0674 48.6378 45.063 50.2627 47.2156 51.6597C48.3562 52.4202 49.6383 52.9431 50.9854 53.1971C52.3326 53.451 53.7171 53.4309 55.0562 53.1379C57.9376 52.5288 60.737 51.5496 63.5715 50.7227C63.8759 50.648 64.1667 50.5263 64.4336 50.3619C68.4488 47.6328 72.4874 44.9295 76.4534 42.1278C77.972 41.0556 79.3911 39.849 80.6934 38.5225C81.5696 37.6253 82.5464 37.1826 83.6966 36.8827C84.5337 36.7002 85.346 36.4186 86.1165 36.0441C88.5223 34.765 90.8532 35.1914 93.3434 35.8965C96.3465 36.7492 98.4619 38.6818 100.507 40.8159C102.147 42.5377 103.498 42.4253 104.988 40.4505C106.434 38.5366 107.933 36.6649 109.355 34.7346C111.681 31.5838 114.715 29.1382 117.488 26.4348C119.543 24.4319 121.396 22.2065 123.579 20.3676C127.276 17.2824 131.328 14.6282 135.796 12.7776C138.08 11.8289 140.392 11.8265 142.685 13.3094C144.034 14.1831 145.536 14.7664 146.698 15.9822C148.912 18.2944 149.924 21.0797 150.139 24.1813C150.207 25.1652 149.952 26.1771 149.8 27.1681C149.565 28.6228 148.741 29.5575 147.307 29.9464C145.215 30.5156 143.09 31.0005 141.045 31.6963C139.373 32.2632 137.644 32.8676 136.194 33.8421C133.036 35.9504 130.103 38.4007 126.957 40.5184C124.237 42.348 121.553 44.1705 119.269 46.5576C117.228 48.6917 115.01 50.6547 112.988 52.8076C109.908 56.0872 106.898 59.4418 103.929 62.8198C103.276 63.5624 102.908 64.5509 102.36 65.3966C102.116 65.7926 101.779 66.1233 101.379 66.36C100.978 66.5967 100.526 66.7324 100.062 66.7553C97.4452 67.0223 95.1963 66.4156 93.3082 64.5392C89.6257 60.8824 89.1853 56.5744 90.6494 51.8331C90.9722 50.7975 91.1411 49.7201 91.1507 48.6354C91.1507 47.3634 90.6143 46.8012 89.4383 46.9488C87.3721 47.2112 85.2076 47.3728 83.3124 48.1435C78.8615 49.9543 74.6144 52.2711 70.1565 54.0585C66.2749 55.6163 62.2152 56.7197 58.2422 58.0409C57.2892 58.3451 56.3592 58.7169 55.4592 59.1536C53.2244 60.271 51.0668 60.6131 48.5158 59.8962C43.3106 58.4345 39.881 54.9768 36.7467 50.8562C33.3569 46.4053 29.6604 42.1887 25.268 38.6748C23.4736 37.2388 22.8036 35.5287 23.2721 33.1651C23.5275 31.879 23.3963 30.2064 22.7497 29.1147C21.1427 26.3927 19.1586 23.8814 17.2611 21.3304C16.8661 20.8507 16.3489 20.4865 15.7642 20.2762C15.4151 20.1403 14.6772 20.2317 14.5296 20.4753C13.5411 22.0847 11.742 23.2232 11.831 25.4814C11.9294 27.9364 10.7956 30.1291 9.95693 32.3686C9.09251 34.6948 8.14143 36.9858 7.27702 39.312C6.95374 40.1834 6.82958 41.1251 6.51568 41.9989C5.92769 43.6762 5.29754 45.316 4.59711 46.9558C4.40033 47.3986 3.90839 47.7195 3.29229 48.3614Z" fill="black"/>
</g>
<defs>
<clipPath id="clip0_729_463">
<rect width="150" height="66.7096" fill="white" transform="translate(0.160156 0.104248)"/>
</clipPath>
</defs>
</svg>
