<svg width="151" height="160" viewBox="0 0 151 160" fill="none" xmlns="http://www.w3.org/2000/svg">
<g clip-path="url(#clip0_729_487)">
<path d="M43.4382 118.861C37.6855 118.18 34.7507 121.021 31.9677 124.474C30.5081 123.143 31.1893 121.924 32.357 120.971C34.9142 118.846 37.4402 116.635 40.2232 114.833C42.905 113.097 44.567 110.94 45.2832 107.827C45.6458 106.479 46.3527 105.249 47.3344 104.257C48.6967 102.841 49.8721 101.467 50.5182 99.5205C50.9075 98.3528 52.1413 97.5043 53.3635 96.7648C52.9985 99.2342 51.9859 101.563 50.4287 103.514C47.5134 107.239 46.0616 111.26 47.023 116.113C47.3227 117.623 46.7856 119.472 46.1472 120.959C44.3801 125.069 42.3172 129.051 40.4606 133.126C39.184 135.933 39.9274 137.264 42.9439 138.303C46.8362 139.657 50.8296 139.358 54.8348 138.996C57.0144 138.797 59.2175 138.805 61.3971 138.572C62.9229 138.408 64.6043 138.338 65.8966 137.634C68.5745 136.182 70.832 136.151 73.7979 137.307C75.9425 138.147 78.8345 137.182 81.3761 136.871C84.3225 136.505 87.2378 135.785 90.1921 135.559C93.6161 135.329 97.0495 135.271 100.479 135.388C101.88 135.441 103.252 134.983 104.34 134.099C105.765 133.064 107.629 132.644 109.264 131.881C111.362 130.904 111.67 129.841 110.502 127.922C108.381 124.419 105.302 121.87 102.009 119.605C96.8894 116.162 92.2552 112.047 88.2304 107.371C82.7929 100.968 77.2464 94.6863 71.7778 88.3575C70.6802 87.0847 69.7266 85.6913 68.6328 84.4185C67.6637 83.282 66.5933 82.235 65.4062 80.9739L62.2028 85.5628C61.7396 83.029 62.4753 81.6706 63.6819 80.534C65.1181 79.1717 64.9819 77.8445 63.7792 76.4549C61.7513 74.1196 59.5794 71.8815 57.7423 69.3983C56.5746 67.8414 55.3057 67.6507 53.7021 68.0671C52.0985 68.4836 50.526 68.9779 48.9769 69.4255C47.42 67.3626 48.6305 65.8096 49.5491 64.6225C50.8724 62.906 52.4371 61.1506 54.2937 60.1269C57.6138 58.3053 58.8983 55.3472 59.7974 52.0738C61.0624 47.4771 61.9887 42.7791 63.4016 38.2329C64.4642 34.8116 66.025 31.546 67.434 28.2415C68.3837 26.0073 68.2747 25.4001 66.3559 24.0962C65.5162 23.4817 64.5612 23.0429 63.5479 22.8062C62.5347 22.5694 61.4841 22.5396 60.4591 22.7184C55.2412 23.6805 50.2034 25.4437 45.5245 27.9457C42.3406 29.6271 39.3864 31.7562 36.3971 33.7841C31.6875 36.9757 27.1063 40.3425 22.3461 43.4563C20.2053 44.8615 17.7921 45.8462 15.4918 47.0061C11.798 48.8705 8.11594 50.7621 4.39494 52.5681C2.55001 53.4672 2.49551 53.4011 0.160156 51.7897C0.502675 48.7109 1.9 46.2743 4.6168 44.5618C8.97224 41.806 13.5184 39.28 17.5741 36.1311C22.4511 32.34 28.0521 29.4247 32.1701 24.7229C34.2019 22.3875 35.7432 19.663 37.5687 17.168C38.931 15.3075 40.2038 13.3147 41.8502 11.7422C45.9643 7.84994 50.1057 3.95767 55.5509 1.77801C61.2336 -0.487289 66.7723 -0.354952 72.5329 1.58339C76.5692 2.94569 79.6557 5.58075 82.9252 8.02898C83.3144 8.3209 83.801 8.76851 83.8516 9.19666C84.2953 12.9254 86.3854 16.2494 85.4085 20.4142C84.3926 24.7696 83.0303 28.8098 80.6521 32.5541C80.3714 32.988 80.2127 33.4895 80.1929 34.0059C80.1929 37.5362 78.5698 40.5566 76.9428 43.4602C74.1754 48.3956 74.2455 53.5801 74.9033 58.8892C75.3236 62.3066 77.6823 64.7276 79.609 67.2497C81.0375 69.1219 83.2522 70.3636 85.0582 72.0022C87.0549 73.8082 88.8064 75.9295 90.955 77.5175C93.8236 79.6349 96.77 81.9158 100.051 83.1457C105.205 85.0919 109.782 87.8165 114.133 91.0509C116.504 92.8102 118.901 94.554 121.089 96.5351C125.001 100.069 128.815 103.716 132.575 107.433C136.047 110.851 139.091 114.611 143.73 116.81C147.369 118.538 149.288 122.006 149.868 126.182C150.596 131.464 149.985 136.474 147.751 141.316C146.482 144.067 146.61 147.399 144.042 149.618C141.064 152.194 138.912 155.775 134.595 156.663C131.991 157.2 130.111 156.612 128.508 154.475C126.484 151.79 124.475 149.205 123.502 145.835C122.443 142.156 122.198 142.429 118.275 142.503C115.212 142.561 112.401 143.052 109.712 144.503C108.61 145.091 107.217 145.103 105.999 145.5C101.717 146.889 97.4356 148.271 93.193 149.781C92.0976 150.172 91.1198 150.835 90.3517 151.708C85.8366 157.099 79.9749 159.123 73.1323 158.986C70.9409 158.944 68.734 159.321 66.5505 159.208C62.8217 159.018 59.1124 158.512 55.3836 158.282C52.9782 158.138 51.9895 156.78 51.6587 154.635C51.5614 153.997 51.4719 153.354 51.394 152.712C51.0709 150.085 50.382 149.376 47.8248 149.116C46.8094 148.978 45.7862 148.907 44.7616 148.902C40.1921 149.018 36.8914 146.414 33.6064 143.764C33.2171 143.456 32.6995 143.055 32.645 142.647C32.2168 139.288 30.7456 135.983 33.6492 132.733C36.5528 129.483 38.9232 125.727 41.4921 122.166C42.0448 121.352 42.4885 120.461 43.4382 118.861Z" fill="black"/>
</g>
<defs>
<clipPath id="clip0_729_487">
<rect width="150" height="159.112" fill="white" transform="translate(0.160156 0.104248)"/>
</clipPath>
</defs>
</svg>
