<svg width="151" height="58" viewBox="0 0 151 58" fill="none" xmlns="http://www.w3.org/2000/svg">
<g clip-path="url(#clip0_729_527)">
<path d="M0.160156 32.7401C2.37124 30.1472 4.73554 27.7216 7.88716 26.2059C9.35571 25.4987 10.8738 24.8929 12.3942 24.3201C16.5123 22.7455 20.5313 23.0048 24.3288 25.263C28.784 27.9055 33.6517 28.7729 38.7244 28.7659C39.8205 28.7231 40.901 28.4918 41.9185 28.0823C44.2569 27.2195 46.541 26.2083 48.8629 25.2937C51.0386 24.4356 53.1931 23.5847 55.5645 23.2382C57.7255 22.9038 59.8339 22.2905 61.8371 21.4137C63.3319 20.7642 64.9023 20.3048 66.5115 20.0465C67.1904 19.9357 67.8362 19.6316 68.5245 19.4077C68.6778 17.5219 67.3459 16.6332 66.231 15.7681C63.506 13.6772 60.5972 11.9965 57.2075 10.9971C51.611 9.33996 45.8939 8.12152 40.1081 7.35278C38.8305 7.18306 37.5765 6.83419 36.2376 6.55132C36.6524 4.09509 38.5359 3.72265 40.0799 3.32192C43.2574 2.46153 46.5104 1.99008 49.8411 2.40731C50.8335 2.53224 51.8684 2.40731 52.8773 2.29888C57.5705 1.85572 62.0964 2.82926 66.5728 4.0173C68.9795 4.68007 71.3475 5.47648 73.6657 6.40282C75.113 6.96619 76.4543 7.80065 77.8309 8.54082C78.1727 8.72233 78.4438 9.03348 78.7738 9.23385C81.9796 11.1503 83.0168 10.9546 84.9474 7.77944C86.3806 5.42221 88.0495 3.50578 90.8805 2.80097C91.9766 2.52517 92.9431 1.77086 94.0086 1.33713C95.067 0.867942 96.1693 0.504727 97.2993 0.252802C100.793 -0.40015 103.553 1.11083 105.255 4.55946C104.053 6.02802 102.356 6.74933 100.618 7.43293C99.9865 7.68043 99.2982 7.94916 98.8197 8.40175C97.5232 9.62515 96.2149 10.8698 95.1259 12.2747C94.4329 13.1704 93.9968 14.3255 93.6668 15.431C92.7922 18.3375 92.0167 21.2746 91.2553 24.2117C91.1332 24.7528 91.1029 25.3106 91.1657 25.8618C91.5594 30.4159 93.523 32.6011 98.2964 32.1249C100.46 31.9104 102.525 31.9646 104.517 32.8321C107.169 34.0107 109.717 35.2977 111.386 37.8577C112.668 39.826 114.085 41.7188 114.686 44.0384C114.986 45.2052 115.667 45.5776 116.831 45.7874C120.148 46.3814 123.387 45.6861 126.656 45.4527C127.67 45.3796 128.679 45.257 129.692 45.1698C130.164 45.1321 130.635 45.1958 131.093 45.0897C133.139 44.6017 135.187 44.1114 137.221 43.5433C140.383 42.676 143.403 41.3598 146.191 39.635C147.994 38.5106 149.618 39.2178 150.026 41.2851C150.544 43.9228 149.514 46.0373 147.697 47.8311C147.414 48.1093 146.862 48.2012 146.426 48.2248C141.921 48.4595 137.434 48.9664 132.99 49.7429C130.381 50.2025 127.778 50.7329 125.155 51.0983C124.092 51.2444 122.981 51.0134 121.892 50.9875C120.006 50.9403 118.125 50.9089 116.249 50.8932C113.892 50.8767 112.687 52.7648 111.348 54.1933C108.468 57.2577 104.569 58.1582 100.757 56.4091C98.6924 55.4662 96.5685 54.6812 94.2136 54.8722C92.3161 55.0254 90.6613 54.4644 89.379 52.9864C89.3271 52.9275 89.2752 52.8379 89.2116 52.8261C86.8379 52.3688 84.7164 50.6787 82.2318 51.0158C79.6931 51.3599 77.2345 52.2651 74.7028 52.6823C72.9397 52.9657 71.1467 53.0141 69.3708 52.8261C68.7461 52.7601 67.9423 51.8101 67.7019 51.103C66.8603 48.5996 66.1767 46.0396 65.5309 43.475C65.0099 41.4053 64.8708 39.3545 65.9882 37.3462C66.5657 36.3066 66.2003 35.2624 65.0618 34.8263C64.0152 34.4279 62.7423 34.1191 61.6909 34.3289C58.3649 35.0361 55.1331 36.1346 51.8825 37.1081C48.3679 38.1594 44.7425 39.3192 40.9072 39.2791C38.2468 39.2635 35.5909 39.5003 32.9752 39.9863C29.7151 40.5803 27.0279 39.5855 24.4137 37.8153C21.9598 36.1487 19.5389 34.3431 16.8706 33.1197C14.8693 32.2051 12.4932 31.776 10.2703 31.7548C7.97437 31.7336 5.67372 32.462 3.37542 32.8674C2.40188 33.0372 1.4307 33.2234 0.459524 33.4025L0.160156 32.7401Z" fill="black"/>
</g>
<defs>
<clipPath id="clip0_729_527">
<rect width="150" height="57.184" fill="white" transform="translate(0.160156 0.104248)"/>
</clipPath>
</defs>
</svg>
