<svg width="151" height="65" viewBox="0 0 151 65" fill="none" xmlns="http://www.w3.org/2000/svg">
<g clip-path="url(#clip0_729_495)">
<path d="M86.7627 64.1343C84.8119 64.2209 82.8051 64.3329 80.7957 64.3889C80.3934 64.3889 79.9808 64.203 79.5784 64.0808C76.013 62.9908 73.6496 60.3422 71.192 57.7776C67.7743 54.2122 68.3473 50.0839 69.5366 45.9302C69.8881 44.7078 69.6487 44.0584 68.6809 43.3835C66.6868 41.9777 64.7335 40.5439 63.3685 38.4148C62.3803 36.8715 61.7538 35.4555 62.9024 33.7441C64.051 32.0327 63.0246 30.5454 62.1104 29.3052C58.3743 24.2321 53.7061 20.1369 48.3809 16.7829C47.2341 16.0743 45.9232 15.6751 44.5761 15.6241C39.7373 15.5171 34.9138 15.4739 30.0954 15.7031C25.4459 15.8951 20.8096 16.3304 16.2055 17.007C13.3175 17.4527 10.4957 18.4968 7.74017 19.5283C6.43624 20.0147 5.36152 21.1047 4.17474 21.912C3.49477 22.3755 2.80205 22.8186 1.97182 23.3636C-0.0655673 19.7982 -0.40683 16.327 1.08046 12.731C1.19358 12.4327 1.36543 12.1602 1.58581 11.9295C1.80619 11.6989 2.07063 11.5148 2.36345 11.3882C2.65628 11.2617 2.97153 11.1951 3.29054 11.1926C3.60954 11.1901 3.9258 11.2517 4.22058 11.3736C7.10858 12.5502 9.61202 11.5901 12.1155 10.2454C13.2257 9.67265 14.3765 9.18236 15.5586 8.77849C18.2607 7.81073 20.9832 6.90155 23.6954 5.97709C24.0953 5.84211 24.5435 5.7708 24.8771 5.53395C26.9986 4.02884 29.5759 3.68248 31.8934 2.68925C33.2839 2.08568 34.5063 1.12301 35.8663 0.468503C36.5195 0.193263 37.2263 0.0687842 37.9342 0.10432C38.6804 0.10432 39.4215 0.445582 40.1652 0.453223C45.2026 0.509251 49.7536 2.2614 54.1722 4.44395C54.9108 4.80559 55.471 5.51358 56.1485 6.01274C57.297 6.86335 58.3743 7.90496 59.6579 8.4627C62.8387 9.84048 65.1435 12.3567 67.6852 14.5035C70.7412 17.0936 73.4459 20.1318 76.2422 23.0326C77.4162 24.2499 78.4349 25.6149 79.5326 26.9061C81.1879 28.8493 81.5318 28.8493 83.3527 27.1735C85.7008 25.0266 88.1227 22.9562 90.4453 20.7838C92.3757 18.9782 94.7748 18.1938 97.2094 17.5138C99.3665 16.9128 100.938 15.5299 102.086 13.7319C103.451 11.6181 105.367 10.3906 107.633 9.52723C110.017 8.61805 112.38 7.93552 115.019 8.07559C119.476 8.31499 123.308 12.1147 123.372 16.574C123.395 18.2472 123.701 19.9204 123.927 21.586C124.116 22.9714 125.231 23.2643 126.349 23.4171C131.285 24.092 136.238 24.6497 141.158 25.4163C142.301 25.5609 143.391 25.9785 144.338 26.6337C145.285 27.2888 146.06 28.1624 146.598 29.1804C148.771 33.1049 149.654 37.3707 150.131 41.7434C150.301 43.2969 149.912 44.5066 148.205 45.4311C146.594 46.3469 144.772 46.8262 142.918 46.8216C139.024 46.8216 135.416 45.645 131.855 44.2749C130.358 43.6993 128.929 42.9429 127.462 42.2859C127.013 42.0481 126.534 41.8725 126.038 41.7638C122.947 41.3105 119.845 40.9361 116.756 40.4598C115.42 40.2588 114.103 39.9531 112.816 39.5456C109.673 38.5269 106.548 37.4649 104.794 34.3018C104.35 33.4996 103.831 32.7382 103.38 31.9385C102.575 30.5072 101.343 30.0004 99.7638 30.1965C96.5473 30.5964 93.4199 31.1923 90.784 33.3468C89.4979 34.3935 88.0005 35.1779 86.6074 36.0973C84.6795 37.3707 84.5547 37.6406 85.4308 39.8206C86.2166 41.8707 87.1065 43.8793 88.0972 45.8385C90.1677 49.7834 89.7832 53.848 88.8205 57.9202C88.3366 59.9525 87.514 61.9008 86.7627 64.1343Z" fill="black"/>
</g>
<defs>
<clipPath id="clip0_729_495">
<rect width="150" height="64.2821" fill="white" transform="translate(0.160156 0.104248)"/>
</clipPath>
</defs>
</svg>
