<svg width="151" height="115" viewBox="0 0 151 115" fill="none" xmlns="http://www.w3.org/2000/svg">
<g clip-path="url(#clip0_729_627)">
<path d="M79.2266 40.3292C78.3924 40.7412 79.4154 42.6053 77.6337 42.389C77.3247 42.3513 76.7926 42.9967 76.6038 43.4189C75.5464 45.6779 74.6572 48.0192 73.514 50.2267C72.9682 51.2806 71.9829 52.1045 70.9255 52.8976C72.4017 48.4586 74.259 44.1742 73.6719 39.2581C71.8215 38.6985 69.5248 39.0521 68.4262 36.9065C64.8284 36.7073 61.2168 36.4567 57.6259 36.3778C57.1418 36.3778 56.5033 37.1468 56.1668 37.6995C54.4743 40.47 52.8643 43.2885 51.2198 46.0933C49.9393 43.7794 48.9128 41.2046 49.5582 38.0703C49.9736 36.0654 48.724 34.7059 46.671 34.7951C44.0276 34.9084 41.1129 33.7652 38.6411 36.443C39.8496 38.4719 41.0443 40.7171 42.4827 42.8113C43.5126 44.3253 42.6715 45.5783 41.9575 46.5567C41.5695 47.0889 39.9938 47.1884 39.1836 46.8829C37.5494 46.2649 36.5779 44.9947 36.1385 43.1065C35.1085 38.7431 34.0786 34.4518 32.0188 30.291C29.959 26.1301 26.8692 23.7167 23.2199 21.2689C19.756 18.9413 16.8345 15.7761 13.7619 12.9129C12.2685 11.5157 11.0154 9.87123 9.57356 8.40876C9.04147 7.84171 8.386 7.40474 7.65792 7.13166C4.17339 5.98159 2.50493 3.02231 0.160156 0.272441C3.17437 -0.544623 4.17682 1.82074 5.76632 2.83006C6.88206 3.54413 7.62359 4.74226 9.19936 4.68734C9.65939 4.68734 10.2293 5.14393 10.6 5.5456C12.7251 7.89723 14.6304 10.4686 16.9203 12.6314C19.2959 14.8663 21.7574 17.496 24.6858 18.5568C27.5559 19.5867 29.7736 21.4063 31.5519 23.2807C33.9962 25.8383 36.7598 26.4219 39.7912 26.6382C44.5529 26.9815 49.3385 27.0159 54.1104 27.1841C56.8363 27.2768 59.6033 27.7059 62.2811 27.4038C66.2634 26.9541 70.1599 26.9026 74.0702 27.7746C74.6195 27.8981 75.2443 28.0458 75.7558 27.9016C79.7965 26.7755 83.8818 27.3935 87.9603 27.4107C89.1344 27.4107 90.5591 27.1566 91.4311 26.4666C92.7082 25.4367 93.9166 25.5122 95.2726 25.78C95.9387 25.9138 96.5738 26.2091 97.2398 26.3292C100.106 26.8373 102.887 27.8295 105.822 26.01C107.051 25.2444 109.19 24.8942 110.45 25.4367C113.574 26.7755 116.516 25.5053 119.52 25.5156C120.423 25.5156 121.323 25.2375 122.225 25.0865C123.63 24.8496 125.439 25.7731 126.366 24.2076C127.619 22.1169 129.243 20.1807 128.865 17.3415C128.522 14.6741 128.625 11.9276 128.759 9.22582C128.796 8.46025 129.462 7.31361 130.132 7.05957C132.106 6.29057 134.402 5.0684 136.243 5.4838C140.52 6.44505 144.897 7.67065 148.021 11.2342C149.827 13.294 150.026 15.165 148.396 17.4136C146.295 20.2871 144.485 23.2498 143.72 26.8167C143.497 27.8466 142.69 28.8148 142.062 29.7383C141.032 31.2213 139.978 32.6975 138.817 34.0811C138.089 34.9486 137.247 35.7142 136.315 36.3572C135.096 37.1914 133.675 37.7304 132.477 38.6058C128.961 41.1394 125.071 41.0913 121.02 40.6313C115.679 40.0202 110.313 39.6014 104.957 39.1105C104.792 39.1105 104.614 39.3405 104.168 39.646C105.63 41.5308 107.457 42.9623 109.396 44.2497C113.983 47.2914 117.862 51.1158 121.481 55.1977C122.612 56.4773 123.668 57.8207 124.646 59.2212C126.273 61.5488 127.663 63.9348 128.501 66.7739C129.713 70.8936 131.646 74.7867 133.17 78.8171C133.685 80.1903 134.224 81.6802 134.162 83.0878C134.028 86.1466 135.233 88.6699 136.909 90.9838C139.634 94.7773 142.401 98.5364 145.474 102.072C148.708 105.79 149.683 110.236 150.198 114.957C149.837 114.174 149.302 113.426 149.151 112.605C148.317 108.118 145.011 105.33 142.082 102.344C139.397 99.5252 136.206 97.2367 132.676 95.5978C131.548 95.0432 130.517 94.3093 129.624 93.4246C128.673 92.5252 128.25 91.3648 127.78 90.0465C126.043 85.2677 127.485 79.998 125.13 75.36C124.526 74.1653 124.1 72.998 123.173 71.9063C121.515 69.9323 120.2 67.6562 118.806 65.4659C117.042 62.692 115.353 59.9284 112.428 58.0986C110.814 57.0893 109.527 55.5582 108.081 54.2742C105.867 52.3071 103.66 50.4429 100.717 49.468C96.306 48.0123 91.9701 46.2958 87.6925 44.4729C85.0044 43.3297 82.488 41.7951 79.8857 40.4459C79.6725 40.3768 79.4506 40.3375 79.2266 40.3292Z" fill="black"/>
</g>
<defs>
<clipPath id="clip0_729_627">
<rect width="150" height="114.808" fill="white" transform="translate(0.160156 0.104248)"/>
</clipPath>
</defs>
</svg>
