<svg width="151" height="165" viewBox="0 0 151 165" fill="none" xmlns="http://www.w3.org/2000/svg">
<g clip-path="url(#clip0_729_379)">
<path d="M2.12846 102.654C0.828435 92.5018 5.55059 83.5928 9.25948 75.3243C15.4537 61.5784 14.8133 48.4157 10.4639 34.8801C7.85431 26.7645 4.42262 18.9166 1.59316 10.8583C0.474751 7.65606 -1.37014 3.6126 2.50126 1.34711C4.14177 0.294723 6.11355 -0.113713 8.03711 0.200411C9.96068 0.514535 11.7001 1.52902 12.9206 3.04862C15.4633 5.91632 18.1876 8.55461 20.8259 11.3076C24.2958 14.9305 28.3106 18.1901 31.1018 22.2813C35.1931 28.294 38.185 35.0426 42.0851 41.2082C43.9969 44.2671 46.8646 46.8002 49.4169 49.4003C52.514 52.5165 56.1082 55.1357 58.909 58.5196C62.1973 62.4483 65.8488 63.9491 70.6379 62.1902C79.2474 59.0039 87.8505 55.7634 96.4472 52.4687C106.637 48.5686 116.798 45.4619 127.896 49.1135C140.132 53.1378 146.403 62.8211 149.5 73.9669C151.297 80.4097 149.07 87.99 148.544 95.0541C148.41 96.9659 147.339 99.002 147.827 100.656C151.335 112.633 146.183 124.104 145.829 135.852C145.6 143.662 139.3 149.416 134.205 154.712C122.591 166.775 110.451 167.33 96.3516 157.522C89.278 152.561 83.4183 146.539 79.4991 138.71C77.0711 133.931 74.0505 129.409 71.2497 124.802C66.0687 116.294 61.4421 114.87 52.3611 119.124C49.2161 120.596 45.7558 121.905 43.28 124.19C35.6328 131.292 26.0738 130.002 17.0979 129.925C9.89038 129.925 6.39178 123.569 4.4513 117.432C2.93142 112.738 2.83583 107.605 2.12846 102.654Z" fill="black"/>
</g>
<defs>
<clipPath id="clip0_729_379">
<rect width="150" height="164.224" fill="white" transform="translate(0.160156 0.104492)"/>
</clipPath>
</defs>
</svg>
