<svg width="151" height="125" viewBox="0 0 151 125" fill="none" xmlns="http://www.w3.org/2000/svg">
<g clip-path="url(#clip0_729_447)">
<path d="M0.160156 113.364C4.61898 109.023 9.82473 106.373 15.4058 104.481C22.5301 102.07 28.7634 98.0126 35.1938 94.3273C39.5723 91.8645 43.8149 89.1673 47.9029 86.2476C50.1058 84.6475 51.7589 82.2854 53.6357 80.2494C54.739 79.0475 55.6528 77.6257 56.904 76.6133C59.8007 74.2702 60.7486 71.2142 59.8273 67.8473C58.6898 63.6767 60.0548 60.6435 63.2851 58.3344C69.0937 54.1865 70.4245 48.4992 68.8814 42.0309C67.8349 37.6403 68.4302 34.1408 72.199 31.3502C73.5917 30.2589 74.8629 29.0208 75.9905 27.6573C76.7386 26.8316 77.3068 25.8593 77.6588 24.8022C78.9138 20.5178 79.3081 16.222 78.0379 11.7973C76.8246 7.58117 78.3412 4.67308 82.2579 2.92898C84.2181 2.05314 86.1518 1.08251 88.184 0.445537C91.1149 -0.47201 93.3936 0.445537 94.2504 3.31572C96.0931 9.56414 100.582 13.6855 105.189 17.7424C109.534 21.5719 114.035 25.2231 118.399 29.0336C122.869 32.9188 127.807 36.2304 133.098 38.8915C137.648 41.193 141.792 44.1049 145.106 47.8585C148.219 51.3846 149.656 55.9344 150.096 60.67C150.662 66.2642 149.313 71.885 146.27 76.6133C145.064 78.5091 144.374 80.7423 143.362 82.7707C142.546 84.4605 141.622 86.0955 140.594 87.6656C138.619 90.5661 136.458 93.3529 134.471 96.2306C132.279 99.4117 129.288 101.285 125.591 102.24C122.3 103.093 119.036 104.068 115.779 105.046C112.269 106.125 109.131 108.163 106.717 110.93C106.134 111.593 105.475 112.185 104.753 112.693C101.75 114.752 98.9936 117.099 96.1803 119.401C91.7632 122.949 86.6067 125.046 80.6844 124.022C79.3115 123.81 77.9256 123.692 76.5365 123.67C71.4824 123.499 67.7781 120.875 64.8169 117.088C63.0008 114.84 61.6303 112.266 60.7789 109.505C58.1704 100.959 65.8671 93.3756 73.3554 93.2315C78.3829 93.1405 83.3915 92.3519 88.4191 92.1472C92.435 91.9631 96.4586 92.0391 100.465 92.3747C103.797 92.678 106.501 91.0021 109.504 90.3045C112.878 89.5196 113.94 86.7898 115.57 84.185C117.201 81.5802 119.892 79.7717 122.114 77.5991C123.703 76.0484 125.565 74.6796 126.77 72.8711C127.976 71.0625 128.245 68.9317 126.911 66.8047C125.155 64.0027 123.403 61.3449 120.26 59.779C118.49 58.8994 117.091 57.3069 115.453 56.1353C113.731 54.9069 111.779 53.9628 110.186 52.5941C107.153 49.9969 104.302 47.2215 101.447 44.4385C100.378 43.3996 99.7216 41.8413 98.5311 41.0261C96.0287 39.3313 94.3377 37.0981 92.9841 34.4858C92.5024 33.6003 91.9016 32.7851 91.1983 32.063C89.3897 30.1672 87.5167 29.8943 85.5337 31.5929C84.2103 32.7459 83.1191 34.1408 82.3185 35.7029C79.6379 40.9617 77.1204 46.3191 74.6104 51.6272C74.1402 52.6282 73.5905 53.868 73.7914 54.85C74.2729 57.2008 73.3023 59.0472 72.3089 60.9164C70.3184 64.6852 68.2444 68.4085 66.2425 72.1621C65.8292 72.9204 65.3591 73.7545 65.2415 74.5962C64.7297 78.3081 63.0728 81.3072 60.8548 84.3821C58.068 88.2457 54.4509 91.0742 50.902 93.9254C47.7285 96.4733 43.9143 98.316 40.1872 100.06C35.1976 102.392 30.0601 104.435 24.8998 106.384C22.5604 107.268 19.9936 107.522 17.5784 108.223C12.8769 109.611 8.21713 111.135 3.52702 112.564C2.43507 112.928 1.29761 113.11 0.160156 113.364ZM90.3262 107.298H89.6058V109.3H90.3262V107.298Z" fill="black"/>
</g>
<defs>
<clipPath id="clip0_729_447">
<rect width="150" height="124.18" fill="white" transform="translate(0.160156 0.104248)"/>
</clipPath>
</defs>
</svg>
