<svg width="151" height="86" viewBox="0 0 151 86" fill="none" xmlns="http://www.w3.org/2000/svg">
<g clip-path="url(#clip0_729_503)">
<path d="M0.160156 42.6624C1.18313 40.8285 2.97208 40.6464 4.34685 40.5391C8.78555 40.1848 12.7377 38.074 17.0716 37.3879C21.0637 36.7541 24.9984 35.7112 28.968 34.8928C33.4217 33.9771 37.8878 33.1288 42.3415 32.2206C43.7437 31.9362 44.0182 31.4995 43.7088 30.1447C43.6048 29.5705 43.3949 29.0205 43.09 28.5229C41.7302 26.5768 41.3061 24.3113 40.5775 22.1156C39.547 19.0093 40.3929 16.0527 40.5351 13.0312C40.5925 11.7836 40.7996 10.5361 40.7122 9.32351C40.6124 7.94375 39.7417 6.95571 38.7162 6.02755C37.3788 4.82244 37.803 2.25503 39.4198 0.862795C40.8569 -0.384731 42.7058 -0.0828299 43.9308 1.59384C45.5127 3.75705 46.0067 6.24961 46.0192 8.85943C46.0374 10.2682 45.9758 11.6768 45.8346 13.0786C45.6174 14.9083 46.0329 16.7573 47.0122 18.3182C48.9559 21.4694 50.7548 24.7479 53.0602 27.6222C55.2359 30.3368 58.0728 32.1632 61.9825 31.1951C66.2241 30.1472 70.5356 30.5564 74.8296 30.993C76.3965 31.1527 77.9808 31.4372 79.5377 31.3448C82.8462 31.1477 85.9126 32.1557 89.0788 32.7945C92.8513 33.5555 96.3145 35.1722 99.9497 36.2152C102.756 36.9888 105.685 37.2167 108.578 36.8863C112.727 36.4173 116.849 36.8065 120.893 37.1359C124.316 37.4103 127.38 37.1558 130.589 36.1029C132.755 35.3943 135.152 35.3843 137.448 35.0749C138.997 34.8654 140.547 34.5909 142.106 34.5111C142.979 34.4661 143.972 34.5535 144.733 34.9352C148.132 36.6468 151.405 41.6993 149.691 45.901C148.414 49.0422 146.121 51.0034 142.922 51.9515C139.429 52.9919 135.906 52.9894 132.333 52.5079C131.063 52.3357 129.723 52.191 128.516 53.2314C129.079 54.3467 130.165 54.4016 130.993 54.8432C132.954 55.8887 135.013 56.7969 136.827 58.0544C138.695 59.3493 138.703 61.6123 137.009 63.8753C136.355 63.4537 135.669 63.0445 135.013 62.5829C132.767 60.9861 130.394 59.7086 127.64 59.1272C126.353 58.8278 125.13 58.2978 124.032 57.5628C121.417 55.8562 118.658 54.6461 115.549 54.2319C113.66 53.9824 111.791 53.5558 109.902 53.2888C107.673 52.9963 105.405 53.2621 103.303 54.0623C100.985 54.8956 98.4552 55.0378 96.267 56.3652C92.9411 58.3812 89.5853 60.3573 86.1646 62.2061C83.5473 63.6183 80.7503 64.7012 78.138 66.1258C75.8241 67.4064 73.5818 68.8123 71.4213 70.3375C67.3494 73.1694 63.6567 76.6076 58.8837 78.3217C54.5972 79.8536 50.3456 81.5652 45.9493 82.683C41.3884 83.8507 36.6727 84.4146 32.0245 85.2404C31.0464 85.4126 30.0683 85.5873 29.0828 85.722C27.8777 85.8867 26.6451 86.1087 25.5897 84.9909C26.2908 83.424 27.6032 82.8202 29.0404 82.3437C33.1323 80.9889 37.2965 79.8012 41.2836 78.1844C44.7617 76.7722 48.3047 75.4049 51.3886 73.1369C52.7708 72.119 54.3502 71.3704 55.7724 70.3924C58.976 68.2092 61.7081 65.4597 64.6073 62.9072C66.0345 61.6597 67.6189 60.5893 69.0984 59.3917C69.9093 58.7355 70.6429 57.9845 71.5935 57.1187C70.7302 56.1806 70.1738 55.3298 69.4028 54.7734C63.9686 50.8487 58.5019 46.9564 53.4345 42.5676C51.3686 40.7811 49.0158 40.4667 46.5007 40.5067C42.4488 40.5715 38.3943 40.6264 34.3449 40.7936C31.4506 40.9109 28.5638 41.2003 25.6721 41.4224C22.6181 41.6719 19.5417 41.7592 16.5102 42.1709C11.575 42.862 6.55497 41.6993 1.6522 42.9643C1.25299 43.0841 0.758969 42.7996 0.160156 42.6624ZM69.1433 41.6045L68.8464 42.4204C69.7222 42.9693 70.558 43.603 71.4812 44.0546C74.2956 45.4344 77.1225 46.7992 79.9843 48.0667C81.661 48.8152 82.5418 48.5357 83.1356 47.3032C83.8043 45.9259 83.3077 44.9404 81.5038 44.4089C78.5098 43.5232 75.4808 42.6824 72.4418 41.9264C71.3814 41.6619 70.2462 41.7018 69.1433 41.6045Z" fill="black"/>
</g>
<defs>
<clipPath id="clip0_729_503">
<rect width="150" height="85.7474" fill="white" transform="translate(0.160156 0.104248)"/>
</clipPath>
</defs>
</svg>
