<svg width="151" height="90" viewBox="0 0 151 90" fill="none" xmlns="http://www.w3.org/2000/svg">
<g clip-path="url(#clip0_729_515)">
<path d="M50.7286 22.2467C51.0523 25.3178 48.7131 25.8048 46.737 26.7506C45.3951 27.3738 44.1495 28.1862 43.0381 29.163C39.2492 32.6254 35.5645 36.2003 31.8347 39.7247C30.6158 40.8788 29.3012 41.9541 28.1752 43.1758C25.6981 45.819 22.2976 47.0013 19.28 48.7409C16.0822 50.5847 14.2694 53.3997 12.6987 56.4426C11.6853 58.4131 11.1279 60.6031 10.3425 62.6862C10.3031 62.7875 10.0385 62.8044 9.74578 62.9029C9.77393 59.3167 11.4066 56.2653 12.5607 53.0506C13.3067 50.9647 14.0132 48.8282 14.3285 46.6354C14.4342 45.8458 14.7043 45.0871 15.1213 44.4083C15.5383 43.7295 16.0929 43.1457 16.7494 42.6944C19.9218 40.3355 22.4721 37.3686 25.1407 34.5114C25.3321 34.3059 25.6446 34.1623 25.7375 33.9259C26.9085 30.9899 29.5658 29.0645 31.0014 26.4269C32.3498 23.9497 33.3378 21.0306 33.0141 17.7343C31.0071 18.2185 29.3406 18.8181 27.6319 18.987C25.3321 19.2178 22.9929 19.0067 20.6875 19.1868C17.8979 19.4036 14.9422 19.0123 12.5241 21.0193C12.2889 21.1692 12.0112 21.2384 11.7331 21.2164C8.42839 21.1432 6.38474 23.5303 3.97233 25.1827C3.08562 25.7879 2.1398 26.3086 1.23901 26.8716C-0.31765 24.4677 -0.131864 20.3972 1.4051 18.2354C2.89983 16.1495 4.35516 14.0017 5.81049 11.8595C6.66135 10.5195 7.85735 9.43342 9.27287 8.71522C13.2053 6.76446 17.0675 4.72644 21.4137 3.76373C23.0267 3.38934 24.4933 2.421 26.0584 1.85801C32.3385 -0.393942 38.8157 0.00296547 45.307 0.450542C47.9671 0.630698 49.9348 2.31685 52.243 3.26549C52.6568 3.43157 53.0228 3.90729 53.414 3.91011C57.1326 3.92981 60.3275 5.65256 63.7083 6.84891C66.4529 7.82007 69.3832 8.25639 72.3811 8.97701C73.5071 6.63498 75.0328 6.59838 77.2425 7.51605C80.6683 8.9376 84.7669 7.42035 86.9851 4.22538C89.2849 0.912193 95.4609 -0.74581 99.3455 1.01916C99.8888 1.26406 100.303 1.84112 100.725 2.31122C102.132 3.87915 103.644 4.87564 105.924 5.17965C109.403 5.64412 112.829 6.66031 116.201 7.6934C117.927 8.22542 119.32 8.75463 121.198 7.80036C122.47 7.15293 124.294 7.4485 125.871 7.56672C128.351 7.75251 130.808 8.21135 133.288 8.41121C133.893 8.45625 134.696 8.05652 135.146 7.6005C136.734 5.98472 136.866 5.94813 138.428 7.39501C139.774 8.64203 141.243 9.76801 142.527 11.0741C144.672 13.2473 146.845 15.4176 148.77 17.7793C150.696 20.1411 150.544 25.5599 148.582 27.9779C148.157 28.5043 147.408 28.8646 146.738 29.0757C144.767 29.7091 144.43 30.0525 144.306 32.1722C144.148 34.9393 145.209 37.4727 145.792 40.099C146.169 41.8224 146.432 43.5686 146.58 45.3264C146.648 46.0686 146.472 46.8126 146.079 47.4461C144.9 49.135 144.252 50.9056 144.317 52.9549C144.28 53.3287 144.213 53.6987 144.114 54.0612C143.957 55.2012 143.399 56.0739 142.203 56.1245C140.959 56.1808 140.438 55.1956 140.131 54.1541C139.76 52.9014 139.287 51.6431 139.166 50.3567C138.808 46.8408 138.304 43.2968 139.382 39.8119C139.627 39.0181 140.052 38.2806 140.371 37.5093C141.01 35.9639 141.727 34.441 142.217 32.8477C142.449 32.0598 142.427 31.2188 142.155 30.4438C141.012 27.5106 139.726 24.6366 138.434 21.6049C137.834 21.8272 137.325 21.8864 137.009 22.1678C134.853 24.0482 132.466 23.5753 130.147 22.7534C128.512 22.1204 126.935 21.3491 125.432 20.4479C124.162 19.7301 122.918 19.9778 121.716 20.3775C119.781 21.009 117.884 21.7486 116.032 22.5929C113.868 23.6007 111.621 23.0686 109.42 23.1559C106.546 23.2769 105.89 24.1214 107.168 26.7252C108.41 29.2334 109.797 31.6683 111.109 34.1483C111.827 35.5107 111.757 36.7887 111.439 38.3876C110.735 41.9259 108.798 44.6987 107.005 47.6431C105.997 49.3039 105.33 51.1787 104.564 52.9915C104.204 53.836 103.968 54.7311 103.669 55.6235C100.854 54.0978 100.418 51.7783 100.725 49.0027C101.006 46.5678 101.313 44.2792 102.718 42.1145C104.409 39.4914 105.2 36.3884 104.97 33.2756C104.913 32.2663 104.596 31.2888 104.049 30.4382C103.205 29.2334 102.079 28.2425 101.077 27.1587C98.4813 27.7668 95.703 26.5395 93.1639 28.1665C91.1428 29.4586 89.3975 30.8097 88.5248 33.1771C88.1186 34.3236 87.4024 35.335 86.4559 36.099C84.8345 37.2954 84.795 38.5593 85.42 40.2539C86.667 43.6318 85.6339 46.7789 83.686 49.4728C82.0617 51.7248 79.7816 53.6417 77.1018 54.4243C74.2869 55.2435 72.201 57.0535 69.8224 58.4694C68.0011 59.5222 66.3121 60.9071 64.5415 62.1007C62.2964 63.5984 60.5481 65.7308 59.5196 68.226C58.146 71.3759 56.091 74.2218 54.6554 77.3492C53.5294 79.7729 52.9665 82.433 52.0854 84.9693C51.5759 86.4499 50.9594 87.8968 50.3964 89.3578L49.8334 89.2874C49.7856 88.7244 49.642 88.1614 49.6983 87.621C50.4161 80.7834 52.6033 74.3091 54.6413 67.7981C55.0298 66.5539 55.1762 65.2252 55.6491 64.0205C57.5802 59.1027 60.0657 54.4496 63.7393 50.641C66.5767 47.705 69.8871 45.2335 72.9019 42.4608C74.0787 41.405 75.1003 40.1882 75.9364 38.8464C76.3333 38.1905 76.3164 36.9913 75.9955 36.2482C74.7355 33.3378 72.5941 30.8961 69.873 29.2671C68.1475 28.2228 66.1376 27.6682 64.291 26.8125C62.2727 25.8779 60.1502 25.056 58.3458 23.7949C56.9091 22.7578 55.1532 22.2595 53.3859 22.3874C52.5836 22.4325 51.7645 22.3086 50.7286 22.2467Z" fill="black"/>
</g>
<defs>
<clipPath id="clip0_729_515">
<rect width="150" height="89.2535" fill="white" transform="translate(0.160156 0.104248)"/>
</clipPath>
</defs>
</svg>
