<svg width="151" height="123" viewBox="0 0 151 123" fill="none" xmlns="http://www.w3.org/2000/svg">
<g clip-path="url(#clip0_729_719)">
<path d="M0.160156 89.7166C0.391835 88.8404 0.489853 88.3622 0.647275 87.9018C1.51458 85.3296 2.05517 85.083 4.74917 85.285C9.96194 85.6711 15.1807 85.9682 20.4023 86.2266C21.5901 86.2455 22.7767 86.1409 23.9429 85.9147C27.4359 85.3503 30.9021 84.5751 34.4129 84.1652C39.8663 83.5266 45.1533 84.4474 50.4671 85.8642C55.0828 87.0939 59.4105 88.7275 63.3936 91.3324C63.5955 91.4661 63.9609 91.3502 64.6826 91.3502C65.1757 89.2384 65.8975 87.0969 66.1678 84.8989C67.2014 76.1664 70.136 68.1616 74.131 60.3231C76.4299 55.8143 79.5843 52.6005 83.7486 50.3996C87.699 48.2966 92.0118 46.8709 96.185 45.1987C99.1255 44.0106 102.247 44.266 105.283 44.468C107.843 44.6403 109.893 43.6096 111.93 42.4482C112.471 42.1512 112.735 41.2007 112.931 40.4968C113.05 40.0661 112.815 39.5285 112.708 39.0443C111.455 33.4603 111.223 27.7337 110.79 22.0754C110.537 18.7517 111.5 15.2438 112.376 11.9469C113.366 8.20786 115.273 4.77474 117.924 1.95794C119.222 0.570841 120.568 -0.0677598 122.608 0.146097C126.342 0.535199 130.034 0.870835 133.574 2.27576C135.63 3.09257 136.072 4.16186 134.43 5.71826C132.452 7.59546 130.949 9.96571 128.35 11.2281C126.389 12.1845 125.415 14.1775 124.726 16.1379C123.386 19.9487 122.293 23.8278 122.409 27.9475C122.451 29.5247 122.231 31.1049 122.201 32.6999C122.178 33.9355 122.261 35.1711 122.308 36.8077C123.176 36.3622 123.683 36.2464 123.96 35.9167C125.911 33.6949 127.693 31.3722 128.278 28.3515C128.485 27.5234 128.773 26.7176 129.137 25.9456C129.573 24.8733 130.188 23.8664 130.476 22.7437C130.842 21.3358 131.391 20.1744 133.084 19.3398C133.542 20.0705 134.189 20.718 134.37 21.4754C134.991 24.1011 135.152 26.7386 134.005 29.3138C132.275 33.2878 131.062 37.4674 130.396 41.7502C130.317 42.242 130.264 42.7378 130.239 43.2353C130.072 46.461 130.399 46.5887 133.586 46.663C135.853 46.722 138.099 47.1153 140.251 47.8303C142.595 48.6085 144.897 49.3422 147.38 49.4818C148.033 49.5174 148.669 49.853 149.236 50.0283C149.578 52.3302 150.074 54.4539 150.151 56.5955C150.162 58.4565 149.963 60.3127 149.557 62.129C148.928 65.322 148.155 68.4883 147.389 71.6516C146.89 73.7664 146.251 75.8456 145.723 77.9248C144.321 83.5415 142.785 89.1315 142.28 94.9323C142.042 97.6917 140.118 99.0135 137.207 98.9154C134.623 98.8323 132.668 98.0244 130.699 96.2244C128.73 94.4244 126.054 93.4116 123.716 92.0067C122.96 91.568 122.261 91.0361 121.637 90.4235C119.739 88.478 119.424 88.4839 117.202 89.9691C115.738 90.9492 114.03 91.57 112.593 92.5829C110.323 94.1838 107.742 95.3898 106.076 97.8075C105.315 98.9125 104.136 99.7233 103.221 100.733C101.249 102.907 99.2889 105.091 97.4057 107.342C96.785 108.085 96.4434 109.053 95.9206 109.89C95.3979 110.728 94.9494 111.604 94.2811 112.284C91.1475 115.489 87.7881 118.578 83.7991 120.53C81.1823 121.81 78.1764 122.864 75.0072 122.547C71.8973 122.25 69.1825 121.252 66.6668 119.238C64.8401 117.776 63.1708 116.44 62.6243 114.084C62.4728 113.428 62.2203 112.772 62.1965 112.109C62.0866 108.872 60.4441 106.582 57.459 105.75C54.8333 105.016 53.4462 103.029 51.6611 101.387C50.675 100.496 49.7869 99.3521 48.6285 98.7699C44.9098 96.9016 41.2623 94.8224 37.1485 93.8541C36.7654 93.765 36.3406 93.5571 35.9931 93.6403C31.9566 94.6086 27.8487 93.8987 23.7884 94.0324C20.5211 94.1393 17.1915 94.1601 13.8351 93.6225C10.2544 93.0652 6.72572 92.2138 3.28485 91.077C2.29279 90.7502 1.34825 90.2394 0.160156 89.7166ZM68.4281 93.9225C70.7449 95.4878 72.6637 96.8541 74.6508 98.1075C77.1279 99.6699 78.123 99.5065 79.9972 97.4095C80.4576 96.8927 80.8556 96.3224 81.2774 95.7759C84.503 91.5879 87.6842 87.3939 91.6732 83.8355C93.1583 82.5138 94.382 80.5415 92.9385 78.0376C92.3445 77.0218 92.2494 74.8803 92.9147 74.1526C94.7979 72.0972 95.4751 69.5249 96.7107 67.2081C98.4929 63.8666 96.182 58.6093 92.4781 57.7034C91.8039 57.537 90.9692 57.7895 90.2653 58.0212C87.0218 59.0905 85.305 62.0934 82.8159 64.1221C81.0338 65.5715 79.7477 67.6863 78.4348 69.6437C76.5161 72.5011 74.4874 75.3436 73.0409 78.4416C71.7667 81.1683 71.2172 84.2335 70.3677 87.1533C69.7053 89.3899 69.0697 91.6443 68.4281 93.9225ZM116.843 74.5506C117.11 74.6813 117.47 74.8476 117.835 75.0288C121.028 76.499 122.273 79.1871 122.091 82.4811C121.958 84.9226 123.321 86.2474 125.16 87.0256C127.07 87.8364 128.828 88.683 130.506 89.9958C133.179 92.1195 134.382 91.6294 135.297 88.3354C136.705 83.286 137.112 78.0911 136.865 72.8516C136.803 72.0796 136.82 71.3033 136.916 70.5348C137.667 65.8804 136.889 61.3538 135.728 56.8717C135.199 54.8193 133.779 53.6044 132.211 53.9846C130.204 54.4337 128.257 55.1186 126.41 56.0252C124.88 56.8153 123.737 58.4014 122.204 59.1499C120.143 60.1568 119.448 61.6597 119.189 63.7864C118.768 67.2854 118.744 70.8764 116.852 74.5506H116.843Z" fill="black"/>
</g>
<defs>
<clipPath id="clip0_729_719">
<rect width="150" height="122.513" fill="white" transform="translate(0.160156 0.104492)"/>
</clipPath>
</defs>
</svg>
