<svg width="151" height="48" viewBox="0 0 151 48" fill="none" xmlns="http://www.w3.org/2000/svg">
<g clip-path="url(#clip0_729_667)">
<path d="M76.6813 24.4624C75.4657 25.9147 74.7166 27.5255 74.1536 29.288C73.4576 31.375 72.6483 33.4224 71.7293 35.4212C70.9873 37.1014 69.651 38.4483 67.9767 39.2036C66.1729 40.0653 64.5299 41.2534 62.7099 42.0967C60.8536 42.9452 58.9419 43.6669 56.988 44.2568C54.7475 44.9462 52.4473 45.4494 50.1747 46.0423C48.7752 46.4053 47.3896 46.8397 45.9763 47.1407C44.5723 47.4415 43.1532 47.667 41.7251 47.8163C39.8684 48.0093 38.2782 47.3682 36.9133 46.0882C36.302 45.5092 35.7206 44.868 35.0175 44.4291C34.2063 43.9213 33.2963 43.3307 32.3909 43.2618C30.0264 43.0802 28.3695 42.0485 27.2826 39.9596C26.4347 38.3327 25.4098 36.862 23.6726 36.0003C23.1325 35.7001 22.6869 35.2552 22.3857 34.7158C20.2992 31.0758 16.6271 28.5803 15.0323 24.6048C14.1775 22.5183 12.5 21.2039 10.641 20.4961C6.71381 19.0025 4.78814 15.698 2.80962 12.4809C1.66755 10.6242 0.89774 8.46874 0.334746 6.34775C0.00384305 5.10226 0.178486 3.59022 0.564539 2.33555C0.80812 1.52438 1.76866 0.510991 2.54536 0.361625C4.46873 -0.00374688 6.6127 -0.173794 8.23505 1.21416C10.8846 3.48911 13.2905 6.01914 15.0714 9.07999C17.5279 13.2921 20.2188 17.3227 23.4497 21.0293C26.0854 24.0464 28.1926 27.5186 30.741 30.6208C32.5656 32.8452 34.5349 35.0421 36.7915 36.8C40.1396 39.4104 44.0782 40.1067 48.1318 38.5418C51.666 37.1768 55.2899 35.9934 58.4725 33.7759C60.104 32.6269 61.2553 31.3975 61.793 29.3776C62.2576 27.5398 62.5567 25.6641 62.6869 23.773C63.0201 19.8205 61.5379 16.5276 59.5433 13.2967C57.6613 10.2359 58.1944 7.83681 60.2902 5.12754C60.5383 4.80583 61.0485 4.59902 61.4713 4.51859C65.0009 3.86138 68.287 4.1716 70.8584 7.0693C72.4669 8.88237 74.7281 9.55107 76.8904 10.1876C80.2661 11.1803 83.0949 12.8256 85.4204 15.4889C86.8436 17.0989 88.6204 18.3573 90.6114 19.1656C91.1032 19.3678 91.6891 19.4667 92.0614 19.8022C94.8534 22.3046 98.5806 22.624 101.844 24.0235C104.077 24.9794 106.361 24.1889 108.623 23.8695C111.782 23.4099 114.963 23.0928 118.115 22.601C120.06 22.3184 121.98 21.8905 123.86 21.3211C124.733 21.0476 125.377 20.1124 126.223 19.6597C128.155 18.6279 130.147 17.7087 132.117 16.7459C133.387 16.1255 134.553 15.3671 135.906 14.8225C138.967 13.5908 141.775 14.2159 144.578 15.1396C148.08 16.2886 149.705 19.1197 150.137 22.6056C150.457 25.177 147.743 29.704 145.442 30.8322C144.491 31.2918 143.558 31.8181 142.579 32.2225C141.749 32.594 140.877 32.8647 139.983 33.0291C138.638 33.2359 137.273 33.1646 136.136 34.1895C135.741 34.5434 134.987 34.525 134.382 34.6123C131.754 34.9846 129.175 35.4442 126.682 36.4829C125.471 36.9884 123.98 36.8299 122.612 36.9425C119.899 37.1722 117.24 37.7881 114.439 37.078C113.06 36.7287 111.435 37.3078 109.937 37.5376C108.073 37.8363 106.235 38.3166 104.365 38.528C103.503 38.6268 102.549 38.3833 101.704 38.096C99.6124 37.386 97.5558 36.5587 95.4853 35.782C95.2004 35.674 94.8396 35.6487 94.6328 35.458C93.0357 33.9735 91.2939 33.1256 89.0235 33.746C88.6099 33.8609 87.9504 33.5162 87.5597 33.1876C85.811 31.7422 83.8233 30.4485 82.9777 28.2264C82.201 26.1881 80.836 25.1632 78.7081 24.9725C78.0417 24.922 77.396 24.6439 76.6813 24.4624Z" fill="black"/>
</g>
<defs>
<clipPath id="clip0_729_667">
<rect width="150" height="47.7396" fill="white" transform="translate(0.160156 0.104248)"/>
</clipPath>
</defs>
</svg>
