<svg width="151" height="178" viewBox="0 0 151 178" fill="none" xmlns="http://www.w3.org/2000/svg">
<g clip-path="url(#clip0_729_647)">
<path d="M25.356 138.37C22.6207 142.581 19.8869 146.79 17.1546 150.998C16.4924 152.021 15.6264 152.999 15.3023 154.124C13.2369 160.978 9.42102 167.35 9.60625 174.829C9.60625 175.491 9.20799 176.158 8.79121 177.445C7.99469 176.343 7.40194 175.861 7.23986 175.259C5.66534 170.114 3.57217 165.039 2.77565 159.769C1.71054 152.772 -1.16063 145.83 0.923286 138.564C1.66886 135.957 2.72471 133.438 3.67405 130.891C4.30385 129.205 5.52642 127.964 5.64682 125.797C5.76259 123.833 7.4112 121.258 8.79121 119.85C12.9035 115.655 15.2374 110.033 20.1694 106.504C25.6894 102.559 31.3669 99.2707 38.1651 97.9925C42.9581 97.0942 47.6075 95.4548 52.3774 94.3943C54.1325 94.0007 56.0404 94.3017 57.8789 94.3063C60.7177 94.3063 63.436 95.0519 66.4415 94.4592C68.8496 93.9961 71.6466 95.4872 74.2677 96.117C75.1569 96.3254 76.0367 96.7098 76.9305 96.7329C84.979 96.9552 92.5737 99.5578 100.372 101.086C103.489 101.693 106.629 102.156 109.12 102.577C112.825 99.6458 112.283 96.858 110.972 93.8155C109.421 90.2497 108.296 86.4847 106.573 83.0115C105.915 81.6871 104.105 80.9415 103.035 80.0987C98.6865 81.7705 94.6993 83.6136 90.5315 84.8315C84.8818 86.4847 77.301 82.817 74.3696 77.7091C72.6238 74.6666 69.521 72.0733 68.7662 68.8687C67.326 62.7605 63.2091 58.1435 61.0881 52.5957C58.7032 46.3625 55.3412 40.5553 53.8037 33.9053C52.6275 29.0289 50.1731 24.4536 48.3207 19.744C48.2404 19.6137 48.1737 19.4756 48.1216 19.3318C47.0796 12.9828 46.033 6.63384 45.5653 0.104248C48.3207 4.27207 51.0066 8.48621 53.8408 12.6077C55.1096 14.4601 56.4387 16.368 58.1382 17.7712C63.2323 22.0085 67.1176 27.2553 71.2252 32.3771C73.462 35.1557 76.7823 37.1377 79.8063 39.1984C80.3296 39.555 82.2422 38.8419 82.7377 38.1009C85.1874 34.4425 87.6835 30.7609 89.5822 26.8061C92.3607 21.0128 95.8756 16.9006 103.012 16.97C105.295 16.9932 107.596 15.4557 109.879 14.6083C113.265 13.3533 116.65 11.6538 120.341 12.5614C124.939 13.696 130.117 14.2563 133.794 16.845C137.989 19.7949 141.592 24.3934 141.944 30.0802C142.276 35.0372 141.249 39.9909 138.976 44.4082C137.67 46.9228 138.207 50.0765 135.989 52.1928C135.805 52.4472 135.724 52.7613 135.762 53.0727C136.104 59.5559 136.447 65.9976 136.827 72.4577C137.068 76.5885 137.105 80.7563 137.707 84.8361C138.753 91.9446 139.559 99.192 141.629 106.013C143.213 111.172 144.32 116.664 147.742 121.295C149.937 124.259 150.886 128.019 149.529 131.826C149.066 133.109 148.515 134.507 147.589 135.438C144.461 138.572 140.3 140.462 135.882 140.754C130.829 141.214 125.783 139.814 121.688 136.818C117.984 134.151 113.779 132.247 109.805 130.038C102.623 126.056 95.0189 123.379 87.401 120.698C83.4879 119.309 79.1024 119.383 75.0411 118.355C69.7804 117.021 64.7697 119.651 59.6016 118.883C59.2955 118.817 58.9779 118.824 58.6754 118.906C50.4833 121.967 41.541 123.208 34.8725 129.867C32.3163 132.419 29.3478 134.544 27.2408 137.573C26.8749 138.101 25.9117 138.217 25.2217 138.499C25.268 137.647 25.3143 136.8 25.3699 135.795C23.3045 136.165 21.4429 137.267 20.1694 135.091C20.5676 133.118 20.9613 131.196 21.341 129.311L23.6565 129.02C25.1059 122.976 25.1106 122.976 30.1397 119.985C31.0659 119.434 31.9921 118.915 32.9183 118.308C33.2476 118.002 33.5328 117.651 33.7657 117.266C33.3026 115.965 32.8812 114.738 32.3765 113.233L36.6138 115.085C34.8447 110.709 34.3631 110.51 29.6674 111.575C29.1811 112.788 28.681 114.029 28.0373 115.622C24.8975 113.673 22.119 115.233 19.8313 116.688C17.5436 118.142 14.8623 120.165 15.5292 123.865L18.3077 121.962C17.803 125.449 14.3668 127.209 14.9087 130.83L17.4881 129.58C15.1726 136.406 15.3208 138.254 18.5486 143.519C19.482 143.209 20.3438 142.715 21.0828 142.066C21.8218 141.417 22.4229 140.626 22.8507 139.74C23.2073 139.032 24.4946 138.814 25.356 138.37ZM114.608 70.295C117.011 69.7393 117.178 67.9796 115.904 66.5903C114.288 64.775 114.409 62.9782 114.566 61.1629C115.099 62.3947 115.386 63.9414 116.279 64.9324C117.734 66.5533 118.215 68.3176 118.298 70.3691C118.359 71.726 118.683 73.069 118.799 74.4258C119.007 76.7413 120.461 76.4032 121.721 76.2782C121.721 73.5321 121.091 70.8739 121.874 68.7344C122.934 65.8494 122.313 63.3533 121.823 60.6442C121.123 57.1983 120.611 53.7169 120.29 50.2154C119.933 45.1214 117.122 41.5834 113.871 37.7814L112.227 41.1064L110.023 36.9386L104.818 40.2774L103.373 38.9576C99.2052 43.4913 98.9088 49.3216 98.279 54.448C97.3251 62.3206 102.164 69.0864 106.013 75.6345C107.402 78.0009 108.861 80.1913 109.588 82.8448C109.912 84.0164 110.245 85.2992 110.977 86.23C113.13 89.041 113.593 92.3984 114.399 95.6539C115.265 99.1503 115.446 102.244 111.199 104.059C109.518 104.781 107.439 106.717 107.258 108.296C106.99 110.653 106.124 113.261 107.925 115.845C109.101 117.526 108.953 120.124 109.421 122.411C110.417 123.282 111.917 124.166 112.82 125.468C114.409 127.755 116.71 128.436 119.137 128.807C121.452 129.159 123.967 129.645 126.139 129.094C127.722 128.691 129.278 126.889 130.117 125.32C130.677 124.268 129.964 122.541 129.825 121.11C129.954 121.184 130.084 121.309 130.214 121.314C130.343 121.318 130.594 121.212 130.603 121.133C130.723 120.063 130.552 119.207 131.478 118.044C133.303 115.729 132.867 112.793 131.501 110.172C130.663 108.551 129.677 107 128.811 105.393C127.884 103.647 126.634 102.86 124.671 103.837C124.935 107.14 123.999 110.429 122.036 113.099C118.22 113.353 118.373 109.894 116.553 108.574C117.479 106.55 118.266 104.781 118.822 103.54C120.211 103.077 121.165 102.739 122.119 102.42L120.785 107.944C123.406 105.865 122.073 104.045 122.119 102.424C120.007 100.887 120.674 98.7196 120.767 96.6542C120.98 91.9168 120.526 87.3924 117.553 83.3311C114.821 79.6263 112.89 75.6021 115.279 70.8693C115.325 70.7767 114.927 70.4525 114.737 70.2348L114.608 70.295ZM132.247 101.693C130.589 100.053 129.241 98.7613 127.935 97.4276C126.63 96.0939 126.833 93.3894 124.309 92.5188C125.152 100.595 126.583 102.397 132.247 101.697V101.693ZM20.1786 109.185C18.4745 110.542 18.4745 110.542 19.2108 112.121C19.5442 111.117 19.7665 110.431 20.1786 109.19V109.185Z" fill="black"/>
</g>
<defs>
<clipPath id="clip0_729_647">
<rect width="150" height="177.341" fill="white" transform="translate(0.160156 0.104248)"/>
</clipPath>
</defs>
</svg>
