<svg width="151" height="251" viewBox="0 0 151 251" fill="none" xmlns="http://www.w3.org/2000/svg">
<g clip-path="url(#clip0_729_691)">
<path d="M46.6514 50.015C44.7415 54.2663 42.7789 57.3811 41.9161 60.7748C39.5063 70.4033 37.3561 80.095 35.4655 89.8498C32.9136 103.04 30.3776 116.247 28.4466 129.537C26.8682 140.402 26.4262 151.425 25.0372 162.322C23.7639 172.355 23.2641 182.457 21.975 192.502C20.9227 200.673 21.7803 209.27 23.0273 217.494C24.3058 226.228 27.0681 234.767 29.0991 243.375C29.5884 245.48 30.0619 247.705 28.3835 250.741C25.2266 246.064 22.4222 242.181 19.9125 238.114C17.6395 234.43 15.3297 230.705 13.6671 226.733C9.84198 217.641 3.84387 209.438 2.66003 199.247C2.20228 195.306 0.518606 191.491 0.260792 187.566C-0.0241043 183.405 0.296685 179.224 1.21312 175.154C2.69458 168.689 3.11748 162.025 2.46536 155.424C1.69015 147.636 1.79959 139.784 2.79157 132.021C3.13357 129.5 2.39696 126.849 2.26542 124.249C1.82346 115.037 1.07632 105.834 1.12894 96.6003C1.18155 87.74 2.70739 78.8586 2.44431 70.0245C2.14967 60.7801 3.8807 52.0091 6.16945 43.2488C7.62163 37.6979 9.42106 32.1996 11.3415 26.8118C12.6779 23.0551 14.5615 19.4931 16.0768 15.7627C17.0037 13.3981 18.4587 11.2767 20.3309 9.56051C22.203 7.84431 24.4426 6.57877 26.8787 5.86057C30.2724 4.7767 33.7502 3.00883 37.549 4.62411C38.0469 4.79489 38.5875 4.79489 39.0854 4.62411C46.8356 2.0565 54.7225 3.78754 62.5622 3.7244C69.1759 3.66652 75.7896 3.0825 82.4033 2.71945C83.4187 2.66684 84.5079 2.31958 85.4497 2.5353C95.0782 4.68199 104.438 2.33536 113.904 1.1147C119.386 0.409655 125.169 -0.421661 130.499 0.546454C149.082 3.95064 154.944 22.2764 146.136 35.5775C144.494 38.0557 142.826 40.5233 141.022 42.8857C136.965 48.2209 131.34 50.3833 124.816 50.778C117.376 51.2094 110.321 50.2834 103.712 46.4214C100.156 44.3168 96.2094 42.9436 92.4212 41.281C90.8929 40.639 89.1792 40.5948 87.6199 41.1571C86.0606 41.7194 84.7695 42.8472 84.0028 44.3168C83.3182 45.7314 82.7975 47.2195 82.4506 48.7523C78.5992 65.7364 78.3046 82.6995 82.6874 99.6625C83.1945 101.512 83.2576 103.456 82.8715 105.334C81.0563 113.011 82.7295 120.593 83.2819 128.18C83.8081 135.309 84.3342 142.386 83.8081 149.547C83.808 150.08 83.7355 150.611 83.5924 151.125C82.7663 153.403 82.2875 156.355 79.3411 156.508C77.0155 156.629 75.516 154.708 74.1743 152.662C69.8441 146.09 66.4399 139.197 64.3669 131.537C61.1416 119.64 57.4217 107.897 56.8271 95.4428C56.6746 92.1912 55.5065 89.0027 54.912 85.7616C53.5966 78.5797 52.2075 71.403 51.1395 64.1895C50.5817 60.4012 50.7238 56.5025 48.5982 53.0878C48.2141 52.4669 47.8458 51.8934 46.6514 50.015Z" fill="black"/>
</g>
<defs>
<clipPath id="clip0_729_691">
<rect width="150" height="250.637" fill="white" transform="translate(0.160156 0.104492)"/>
</clipPath>
</defs>
</svg>
