<svg width="151" height="182" viewBox="0 0 151 182" fill="none" xmlns="http://www.w3.org/2000/svg">
<g clip-path="url(#clip0_729_767)">
<path d="M32.5222 80.8359C30.6595 77.0446 30.0925 73.2533 30.2145 69.2214C30.343 64.9356 31.787 61.3091 33.9761 57.7354C36.2509 54.0232 38.2355 50.1264 40.1938 46.2329C41.0279 44.5846 40.9257 42.9032 40.3158 40.9251C38.5223 35.136 35.1695 30.0952 32.9013 24.5402C31.8464 21.9555 29.5057 19.6939 27.2968 17.8345C24.1451 15.1971 22.6055 11.7981 21.6923 8.0431C21.033 5.29359 23.5187 1.26493 26.1001 0.32205C28.032 -0.38346 30.5573 0.678102 31.1738 2.65946C32.4925 6.9123 35.7201 9.164 39.4751 10.9574C41.4586 11.8558 43.3804 12.8844 45.228 14.0366C45.95 14.5081 46.4511 15.5663 46.6951 16.4565C47.2357 18.4345 48.3797 19.9214 49.616 21.5038C51.9007 24.4215 53.7567 27.6688 55.992 30.6293C56.6942 31.5623 57.97 32.4359 59.0909 32.6074C61.5437 32.9865 62.9119 32.1228 63.3767 29.6139C63.9306 26.6468 65.9713 24.8633 67.7351 22.8225C68.0245 22.5212 68.3715 22.281 68.7554 22.1162C69.1394 21.9514 69.5525 21.8654 69.9703 21.8632C72.4013 22.0064 74.8143 21.3687 76.8573 20.0434C80.5727 17.6994 84.3475 18.0653 88.1652 19.5983C90.0039 20.2797 91.7854 21.1065 93.4928 22.0709C96.361 23.805 98.7017 26.0039 99.46 29.5447C100.053 32.3074 100.449 32.5678 103.274 32.5118C105.226 32.4755 107.171 32.1227 109.123 31.9612C112.354 31.6975 115.601 31.5656 118.822 31.203C121.967 30.8502 125.142 30.4876 128.214 29.7557C133.077 28.5985 137.445 30.4744 141.853 31.7766C143.462 32.2513 144.863 33.9261 146.007 35.3404C146.347 35.775 146.594 36.2751 146.733 36.8093C146.872 37.3436 146.899 37.9006 146.813 38.4458C146.727 38.991 146.53 39.5127 146.233 39.9784C145.937 40.444 145.548 40.8437 145.091 41.1526C142.387 43.0219 139.555 44.3637 136.048 44.5021C128.422 44.8054 120.823 45.5967 113.376 47.4198C112.449 47.6473 111.562 48.0396 110.409 48.4451C111.325 50.0117 112.725 51.239 114.398 51.943C116.577 52.932 118.746 53.921 120.925 54.8837C125.211 56.8024 128.435 60.1256 131.62 63.4026C135.355 67.2466 138.774 71.3906 142.47 75.271C143.643 76.5039 145.252 77.3314 146.683 78.3139C147.313 78.7458 148.084 79.0029 148.628 79.5106C150.689 81.4392 150.708 83.9678 148.552 85.7448C146.123 87.7492 143.413 88.8009 140.076 88.3526C134.571 87.6174 129.457 85.7613 124.41 83.6052C123.207 83.0909 121.954 82.7019 120.718 82.27C114.889 80.2458 109.71 77.0743 104.863 73.3061C103.508 72.2511 101.965 71.806 100.228 72.317C98.5232 72.7875 96.7096 72.6714 95.0785 71.9874C94.0895 71.6049 92.8631 71.2324 91.8972 71.4731C89.5894 72.0467 87.5058 71.4203 85.4783 70.6654C82.0299 69.3796 78.6672 67.8598 75.133 66.3795C75.133 67.7774 75.133 69.2477 75.133 70.7181C75.1067 76.0886 75.4396 81.3667 77.599 86.4338C78.2584 87.9668 78.1661 89.8724 78.1628 91.6065C78.1628 96.5286 78.2155 101.464 77.8727 106.369C77.6419 109.699 76.943 113.022 76.1485 116.276C75.588 118.584 74.4078 120.737 73.722 123.021C73.2275 124.67 73.2341 126.47 72.7726 128.135C71.3121 133.41 70.1351 138.684 70.3791 144.207C70.4125 144.642 70.3702 145.081 70.2538 145.502C68.4109 151.037 68.7109 156.84 68.2131 162.533C68.0153 164.782 68.6747 167.096 68.6648 169.381C68.6549 171.665 68.2296 173.92 68.1175 176.195C68.0713 177.141 68.3516 178.107 68.5131 179.057C68.7538 180.491 68.5131 181.49 66.4263 181.229C66.7559 178.922 65.9746 176.775 66.3076 174.26C66.8581 170.126 66.0241 165.81 65.79 161.571C65.7504 160.819 65.79 160.067 65.79 159.316C65.7471 158.145 65.6911 156.972 65.6087 155.805C65.5757 155.373 65.2559 154.862 65.3977 154.529C66.5977 151.72 65.5328 148.74 66.1131 145.891C66.2184 145.134 66.2526 144.37 66.2153 143.607C66.2614 140.461 66.09 137.296 66.3999 134.178C66.634 131.83 67.5505 129.562 68.0186 127.222C68.1768 126.443 67.8933 125.573 67.7911 124.545C64.7185 124.99 61.9031 125.431 59.2558 123.968C58.9261 123.78 58.4118 123.869 57.9832 123.865C53.6216 123.865 49.2599 123.865 44.9016 123.809C44.3972 123.809 43.873 123.48 43.3983 123.246C42.9235 123.012 42.518 122.418 42.0466 122.379C35.7827 121.881 30.7551 117.78 24.7451 116.576C24.4154 116.51 24.1023 116.247 23.8121 116.299C19.889 116.843 16.9515 114.582 13.7899 112.89C12.2419 112.084 10.6229 111.422 8.95357 110.912C4.25896 109.459 0.642394 105.034 0.266562 100.122C0.200626 99.2649 0.0193036 98.2462 0.378652 97.5572C2.62046 93.2713 3.64576 88.2734 7.86893 85.092C9.25028 84.0503 10.536 83.3151 12.2273 83.2327C13.2021 83.2072 14.1744 83.1202 15.1383 82.9722C18.412 82.3887 21.6659 81.6535 24.9561 81.1821C25.9451 81.0337 27.0463 81.3568 28.0287 81.67C29.7925 82.2337 30.0628 82.2568 32.5222 80.8359ZM127.684 72.528C126.935 71.2851 126.652 70.55 126.137 70.0357C125.534 69.439 124.591 69.1653 124.031 68.5389C121.581 65.7894 118.426 64.0256 115.288 62.3014C112.05 60.5311 108.734 58.8992 105.427 57.2574C105.055 57.0727 104.514 57.2343 103.578 57.2343C105.477 59.5651 107.141 61.4739 107.115 64.2136C107.115 64.6191 107.685 65.1795 108.127 65.4202C110.61 66.785 113.115 68.1104 115.65 69.3763C116.808 69.95 118.05 70.3653 119.26 70.8236C121.766 71.7896 124.252 72.8808 127.684 72.528ZM70.445 113.576C74.1572 103.376 71.1044 94.867 67.534 86.4206C65.6153 86.4206 64.7416 87.0009 64.3889 88.791C63.835 91.6263 64.5933 94.201 65.3152 96.8352C65.7999 98.5989 66.3043 100.356 66.6966 102.143C67.4779 105.852 68.2362 109.557 70.445 113.576ZM8.56455 106.716C8.49531 106.439 8.45246 106.257 8.4063 106.073C8.11686 106.148 7.83361 106.245 7.55903 106.363C7.56155 106.537 7.60205 106.708 7.67771 106.864C7.97662 106.837 8.27306 106.787 8.56455 106.716Z" fill="black"/>
</g>
<defs>
<clipPath id="clip0_729_767">
<rect width="150" height="181.184" fill="white" transform="translate(0.160156 0.104492)"/>
</clipPath>
</defs>
</svg>
