<svg width="151" height="74" viewBox="0 0 151 74" fill="none" xmlns="http://www.w3.org/2000/svg">
<g clip-path="url(#clip0_729_399)">
<path d="M86.2541 39.298C87.3061 41.4734 88.7009 42.1385 90.3977 42.0367C94.9283 41.7686 99.0176 43.6284 103.226 44.772C105.425 45.3727 107.271 46.9542 108.802 48.9496C110.617 51.3252 112.382 53.8942 115.25 55.2517C117.652 56.3852 119.227 55.9915 119.512 53.4904C119.95 49.6962 122.04 46.8693 123.771 43.7166C125.564 40.4042 126.119 36.5615 125.336 32.8772C124.779 30.1114 125.817 28.1668 127.888 26.4293C129.388 25.1634 130.976 23.7652 131.882 22.0786C134.23 17.7042 137.99 15.9496 142.609 15.4915C146.023 15.1521 148.141 17.9553 147.537 21.8478C147.225 23.8467 146.997 25.8557 146.729 27.858C146.556 29.1781 146.834 30.2336 148.026 31.0888C149.8 32.3784 150.221 34.1804 150.136 36.4168C149.97 40.8286 147.761 44.1883 145.362 47.3614C143.783 47.66 142.365 47.9349 140.95 48.1962C137.274 48.875 134.936 51.3625 132.89 54.203C130.932 56.918 129.415 59.8637 126.581 62.0085C124.494 63.5797 123.119 66.0809 121.395 68.151C120.533 69.1691 119.634 70.1872 118.681 71.1476C116.037 73.8218 114.788 73.7098 112.457 70.8082C110.699 68.6329 109.026 66.3286 106.962 64.4756C104.78 62.5209 102.503 60.7426 101.264 57.9904C101.022 57.6172 100.665 57.3335 100.246 57.1827C95.6783 55.1838 91.0595 53.3342 85.9317 53.6533C84.2959 53.7585 83.2744 53.3139 82.4056 51.7562C80.7903 48.8444 78.6455 46.2245 77.064 43.2992C75.0787 39.6272 75.7065 37.3738 78.6081 34.3128C80.0142 32.8725 81.2165 31.2465 82.1817 29.4802C83.7122 26.5684 82.7721 25.0684 79.4396 24.729C78.2024 24.5545 76.9482 24.5362 75.7065 24.6747C68.6138 25.7471 61.4531 26.6057 54.4724 28.1329C48.9102 29.3478 43.5007 31.3128 38.0912 33.1385C31.7993 35.2562 25.5346 37.4756 19.3581 39.9055C17.9667 40.4553 16.9826 42.0605 15.6556 43.3467C14.5221 43.0073 13.555 42.4881 14.0199 40.8184C14.1624 40.3094 14.3016 39.6781 14.1285 39.2234C13.0798 36.4813 14.2982 34.4723 16.0289 32.5141C17.8717 30.4406 19.5346 28.272 20.495 25.591C21.0176 24.1318 21.9203 22.8014 22.6873 21.4338C24.1059 18.9021 25.555 16.3942 27.0855 13.6793C22.1783 9.97678 17.5832 6.66796 11.9769 4.58085C8.12169 3.15891 4.44636 2.71773 0.160156 3.09782C0.557215 2.75845 0.713324 2.54465 0.910156 2.50393C1.24952 2.43945 1.58889 2.54805 1.92826 2.50393C3.01423 2.32067 4.16807 2.27995 5.16242 1.86253C11.831 -0.944035 18.3977 -0.0582881 24.9136 2.32406C25.952 2.76239 26.9629 3.26331 27.9407 3.82406C31.2665 5.5209 32.3525 7.86253 31.5142 11.5175C30.581 15.5356 29.5289 19.4994 27.8016 23.2901C26.7258 25.6453 26.8412 26.565 27.1907 28.5809C29.064 28.8965 30.6862 28.0616 32.1794 27.1453C35.1584 25.2957 38.4554 24.016 41.9022 23.3716C43.7552 23.0322 45.4826 22.0684 47.3321 21.5628C53.9531 19.7404 60.6421 18.1487 67.2122 16.1566C71.2846 14.9315 75.0617 12.8207 79.1375 11.7109C82.0697 10.91 84.0346 9.30144 86.0063 7.20416C86.6996 6.43386 87.6227 5.90759 88.6388 5.7034C89.6548 5.49922 90.7095 5.62801 91.6466 6.07067C92.5892 6.49453 93.3866 7.18584 93.9398 8.05881C94.493 8.93178 94.7777 9.94798 94.7586 10.9813C94.7586 12.9836 94.2835 14.9892 93.9848 16.9881C93.4045 20.8671 92.8513 24.7528 92.1862 28.6148C91.8468 30.5152 90.8932 32.0865 89.6409 33.6306C88.1783 35.3987 87.2382 37.591 86.2541 39.298Z" fill="black"/>
</g>
<defs>
<clipPath id="clip0_729_399">
<rect width="150" height="72.9468" fill="white" transform="translate(0.160156 0.104492)"/>
</clipPath>
</defs>
</svg>
