<svg width="151" height="69" viewBox="0 0 151 69" fill="none" xmlns="http://www.w3.org/2000/svg">
<g clip-path="url(#clip0_729_387)">
<path d="M0.160156 19.0235C1.13384 18.9126 2.04178 18.5182 2.46494 18.814C5.75162 21.1229 8.89451 23.6577 12.2141 25.9256C13.578 26.8581 13.8204 28.0455 13.882 29.4218C13.9889 31.7553 15.1146 32.7413 17.5056 32.844C22.4356 33.0618 27.341 33.3247 32.2176 33.9327C42.0777 35.1652 51.9993 36.1718 61.3047 40.0336C64.5914 41.3976 67.2167 43.5832 69.8583 46.0688C74.2461 50.1771 79.0076 53.9568 85.8809 53.735C89.4083 53.6403 92.9251 53.304 96.4065 52.7284C101.961 51.7794 106.936 47.1123 107.803 41.866C108.054 40.3459 107.947 38.3862 107.17 37.1496C105.063 33.793 102.869 30.3379 100.022 27.6305C97.9677 25.6544 94.8946 24.6068 92.1379 23.5222C88.2637 21.9733 84.9237 19.8493 84.3526 15.4739C83.6953 10.396 84.7347 5.51116 89.0402 2.19983C92.4378 -0.437735 96.6448 -0.236426 100.449 0.926237C104.857 2.25734 109.225 2.02728 113.678 2.10944C119.253 2.20804 124.82 2.8284 130.395 3.14475C132.294 3.25434 134.198 3.22825 136.093 3.06669C141.512 2.59834 144.684 4.33206 146.906 9.22921C147.966 11.5628 149.318 13.8634 149.848 16.3284C151.179 22.491 148.25 28.029 141.422 28.5837C139.014 28.7767 136.414 27.573 134.027 26.6897C128.037 24.4794 121.702 24.5616 115.502 23.6906C114.947 23.62 114.384 23.6816 113.858 23.8704C113.331 24.0592 112.857 24.3697 112.474 24.7768C112.09 25.1838 111.809 25.6757 111.652 26.2124C111.495 26.749 111.467 27.3152 111.57 27.8647C112.15 31.0404 112.926 34.3764 114.533 37.1044C116.092 39.6609 117.196 42.4689 117.795 45.4032C118.312 48.0696 118.653 50.7729 119.138 53.4474C119.623 56.1219 118.892 57.9871 116.837 59.9427C111.55 64.996 105.083 67.0378 98.1361 67.9129C94.7414 68.308 91.3202 68.4261 87.9063 68.2662C83.3214 68.0937 79.1391 66.4257 75.2279 64.0552C73.9503 63.2828 72.574 62.6706 71.3127 61.8695C68.6792 60.2056 65.9143 59.1292 64.3285 55.707C62.5758 52.1074 59.5455 49.2895 55.8283 47.8025C52.8744 46.5906 49.9082 45.2348 47.2953 43.4395C44.5797 41.5702 41.5888 41.0443 38.5527 40.3007C36.4698 39.7871 34.5553 38.4889 32.4641 38.115C26.4824 37.0797 20.476 35.8144 14.3381 37.3714C13.6438 37.5481 12.4565 36.9606 11.9265 36.3361C11.0514 35.3255 10.1886 34.0847 9.90927 32.8153C9.0876 29.015 6.93072 26.1638 4.15758 23.6043C2.78128 22.3472 1.68435 20.7942 0.160156 19.0235Z" fill="black"/>
</g>
<defs>
<clipPath id="clip0_729_387">
<rect width="150" height="68.2233" fill="white" transform="translate(0.160156 0.104492)"/>
</clipPath>
</defs>
</svg>
