<svg width="151" height="82" viewBox="0 0 151 82" fill="none" xmlns="http://www.w3.org/2000/svg">
<g clip-path="url(#clip0_729_575)">
<path d="M150.159 43.9168C149.892 45.1173 149.622 46.4438 149.298 47.7585C148.962 49.1236 148.458 50.3947 147.369 51.3887C146.976 51.7497 146.707 52.2736 146.465 52.7656C145.738 54.2432 144.811 55.5411 143.411 56.4596C143.127 56.6351 142.87 56.8493 142.645 57.096C140.52 59.571 138.296 61.9653 136.33 64.5662C134.96 66.3746 133.924 68.4013 133.781 70.8158C133.481 75.9001 130.329 78.9712 126.066 81.1137C125.614 81.3404 124.86 81.1557 124.315 80.9659C122.77 80.4303 121.365 79.7251 120.849 77.9285C120.607 77.0889 120.083 76.3333 119.692 75.5391C118.267 72.641 117.812 69.5095 117.528 66.3511C117.372 64.6586 117.299 64.4907 115.651 64.6217C114.937 64.6787 114.183 64.7795 113.54 65.0666C110.845 66.2722 108.185 67.5567 105.512 68.811C104.001 69.5196 102.466 70.1979 100.979 70.9434C100.387 71.2437 99.8345 71.6165 99.3348 72.0533C97.7817 73.3966 96.3293 74.8608 94.7106 76.115C93.4899 77.0637 92.103 77.8143 90.7379 78.5548C89.1192 79.4329 87.4351 80.1868 85.7963 81.0281C84.6209 81.6275 83.6555 81.6527 82.3861 80.9424C81.2594 80.3111 80.1159 79.8309 79.3889 78.721C79.1521 78.36 78.9003 77.9688 78.818 77.5574C78.2857 74.9447 77.3841 72.3757 77.7887 69.6388C77.8185 69.4145 77.8054 69.1866 77.7501 68.9671C77.3001 67.1437 77.4143 65.3151 77.6443 63.4782C77.913 61.3189 78.2404 59.1612 78.3764 56.9935C78.4855 55.259 78.2085 53.6773 76.7376 52.3173C75.5942 51.2527 74.5817 50.1042 73.1309 49.4393C71.7876 48.8248 71.3091 49.0246 70.2429 50.0438C67.9308 52.2568 65.8672 54.8712 62.5375 55.6671C60.3329 56.1926 58.1719 57.0305 55.8111 56.5587C53.4167 56.0818 50.9921 55.7594 48.591 55.3212C44.6461 54.6081 40.6554 54.1772 36.6493 54.0316C36.0935 54.0115 35.5058 54.0316 34.992 53.8637C32.1191 52.8932 29.0934 52.8747 26.1919 53.0544C23.3223 53.2307 20.5233 53.0174 17.6907 52.873C16.7399 52.8346 15.7881 52.917 14.858 53.1182C13.231 53.454 11.651 53.271 10.0424 53.0275C8.56312 52.8042 7.04018 52.4734 5.58273 52.6313C4.38554 52.7605 3.20514 53.4473 2.11541 54.0602C1.47064 54.4245 0.976982 54.9165 0.177734 54.4296C0.202921 54.2298 0.16766 54.0316 0.249935 53.9258C1.03743 52.9184 1.82324 51.921 2.65272 50.9555C3.32599 50.1522 4.0447 49.3881 4.80531 48.6669C5.2402 48.2623 5.78254 47.8761 6.34168 47.7283C7.14597 47.5151 7.65473 47.0567 8.23738 46.4942C9.82748 44.9612 11.834 44.6002 13.9765 44.8957C15.847 45.1543 17.7142 45.4397 19.5864 45.6882C20.1411 45.7796 20.7044 45.8077 21.2654 45.7722C24.9208 45.4229 28.5695 44.9914 32.2299 44.6925C34.2834 44.5246 36.3521 44.5532 38.4157 44.5129C39.5827 44.4893 40.753 44.4709 41.9183 44.5129C43.6377 44.5851 45.352 44.7614 47.0714 44.8134C48.0067 44.842 48.947 44.6858 49.8873 44.6455C52.8928 44.5212 52.8173 44.5397 52.3337 41.6466C51.84 38.683 51.6117 35.6741 51.0878 32.7172C50.6059 30.16 49.2761 28.1014 46.8884 26.8018C43.636 25.0186 40.0646 25.0068 36.5217 24.802C35.306 24.7315 34.087 24.6693 32.868 24.6593C32.198 24.6469 31.5284 24.7032 30.8699 24.8272C25.8964 25.8162 20.8994 26.7094 16.0452 28.2173C14.717 28.6286 13.4006 29.0803 12.0607 29.4497C11.7618 29.532 11.389 29.3439 11.0532 29.2818C11.2027 28.9594 11.3068 28.6001 11.5183 28.3247C11.7072 28.1219 11.9439 27.9695 12.2067 27.8814C14.5189 26.9277 16.8108 25.9203 19.1565 25.0622C22.1285 23.9725 25.1173 22.9164 28.1514 22.0181C30.9135 21.1987 33.7327 20.5539 36.5469 19.9377C38.226 19.5699 39.947 19.392 41.6547 19.1586C42.7041 19.0142 43.772 18.9789 44.8164 18.8009C47.7699 18.2972 50.4699 19.1535 53.0641 20.3843C54.5937 21.1097 55.388 22.6376 56.0697 24.0682C57.3407 26.7279 58.4758 29.4598 59.5236 32.2152C60.3178 34.3057 61.2211 35.5583 63.3754 36.7336C63.6961 35.7765 64.0621 34.8614 64.3056 33.9144C64.5961 32.7827 64.7523 31.6174 65.0192 30.479C66.1694 25.5912 67.4757 20.7537 69.049 15.9733C70.0041 13.1447 70.2106 10.117 69.6485 7.18496C69.3379 5.64019 68.5504 4.16259 67.8015 2.74208C67.1618 1.53649 65.8739 1.13183 64.6112 0.81616C64.0627 0.70308 63.5425 0.480963 63.0816 0.162993C64.0991 0.162993 65.1502 -0.00491621 66.1207 0.213366C66.8864 0.381275 67.6537 0.900114 68.2431 1.45086C70.4914 3.5514 71.0975 6.2984 70.844 9.21498C70.6509 11.4851 70.211 13.7385 69.8097 15.9851C69.6016 17.0771 69.3211 18.1541 68.9701 19.2089C67.7585 23.0385 67.1092 27.0237 67.0425 31.0398C66.9905 33.3586 67.2104 35.6825 67.3112 38.1625C68.7048 37.7243 69.7207 37.0594 70.1656 35.9881C71.0589 33.854 72.8841 32.8415 74.6992 31.7786C75.799 31.1355 76.9089 30.5042 78.0574 29.9484C79.1035 29.4447 80.1982 29.0266 81.2779 28.59C82.3575 28.1535 83.4422 27.7421 84.5269 27.3206C84.8913 27.1796 85.254 27.0301 85.6267 26.9126C87.3226 26.3803 89.0101 25.8229 90.7211 25.341C92.7511 24.7684 94.6216 25.2906 96.2503 26.5163C98.1276 27.9234 99.3483 29.7469 99.7764 32.1614C100.057 33.7734 100.834 35.2443 102.839 35.4055C103.115 35.4325 103.373 35.5576 103.564 35.7581C105.47 38.0148 108.098 38.6377 110.837 39.0911C113.09 39.4638 115.162 38.8929 117.116 37.9526C118.216 37.4377 119.397 37.1162 120.606 37.0023C122.285 36.8193 123.947 36.7219 125.317 35.5599C125.528 35.3759 125.793 35.2657 126.073 35.2459C127.686 35.2291 129.305 35.1989 130.914 35.2879C132.069 35.3517 133.207 35.6472 134.361 35.7379C135.056 35.7933 135.764 35.6556 136.466 35.6002C138.088 35.4709 139.749 34.942 141.242 36.104C141.431 36.2259 141.642 36.3097 141.863 36.3508C144.34 36.9905 146.245 38.5118 148.064 40.2244C148.942 41.0522 149.684 41.7994 149.415 43.1377C149.367 43.3173 149.845 43.6045 150.159 43.9168ZM87.0086 64.9054L86.8961 64.9256C87.0204 65.6325 87.1043 66.3494 87.2789 67.0429C87.3022 67.1694 87.3531 67.2893 87.4279 67.394C87.5027 67.4986 87.5997 67.5855 87.7119 67.6485C87.8241 67.7115 87.9487 67.749 88.077 67.7584C88.2054 67.7678 88.3342 67.7488 88.4543 67.7028C90.4004 67.0312 92.4103 66.3595 93.7838 64.7274C95.3739 62.8469 96.974 61.0334 99.3248 60.0931C99.622 59.9739 99.8587 59.7053 100.126 59.5071C101.242 58.6777 102.421 57.9187 103.457 56.9969C104.203 56.3274 104.837 55.5435 105.336 54.6747C105.877 53.7327 105.487 52.9049 104.444 52.5523C102.429 51.8673 100.708 50.6902 99.0309 49.4326C97.7834 48.4973 96.5643 47.5251 95.3151 46.5932C93.1726 44.9964 91.5438 43.0302 90.6388 40.4746C90.4289 39.8819 90.0176 39.1633 89.5004 38.9131C88.1437 38.2549 86.6678 37.872 85.1347 38.3539C84.0752 38.6898 83.0174 39.0256 81.9646 39.3614C81.5369 39.4792 81.124 39.6454 80.7338 39.8567C79.5031 40.6157 79.5434 41.341 80.8547 41.9892C83.1669 43.1326 84.9148 44.899 86.3403 46.9945C86.7211 47.6098 86.9905 48.2873 87.1362 48.996C87.6047 50.9102 87.4452 52.8579 87.4821 54.8124C87.5442 58.0295 86.0196 61.1611 87.0472 64.4051C87.0892 64.5528 87.022 64.7375 87.0086 64.9037V64.9054Z" fill="black"/>
</g>
<defs>
<clipPath id="clip0_729_575">
<rect width="150" height="81.3722" fill="white" transform="translate(0.160156 0.104248)"/>
</clipPath>
</defs>
</svg>
