<svg width="151" height="77" viewBox="0 0 151 77" fill="none" xmlns="http://www.w3.org/2000/svg">
<g clip-path="url(#clip0_729_479)">
<path d="M0.160156 30.139C2.20403 27.026 5.50852 25.6911 8.6758 26.6173C10.9626 27.2805 13.2123 28.0465 15.4163 28.9041C19.4183 30.4906 22.8685 32.6202 25.5327 36.3364C28.9401 41.0673 34.0655 43.0797 39.917 42.8196C42.1581 42.7224 44.3792 42.2107 46.6146 41.9134C48.4955 41.6647 50.3765 41.3246 52.266 41.2559C55.1617 41.1502 57.8316 40.2126 60.5329 39.3493C64.1347 38.2059 67.7393 37.0624 71.3297 35.8847C75.1087 34.6441 78.8763 33.3435 82.8983 33.1834C84.4984 33.0849 86.1042 33.1357 87.6949 33.3349C89.836 33.6465 91.0823 34.97 91.2624 37.1682C91.3749 39.1555 91.3672 41.1477 91.2395 43.134C91.1927 44.7435 91.0524 46.3489 90.8193 47.9421C90.3848 50.7121 91.7255 52.6559 93.6236 54.5825C94.1438 54.2967 94.6184 54.0337 95.0815 53.7621C96.7051 52.816 98.2602 51.7154 99.9639 50.9493C102.654 49.7373 103.508 48.814 103.3 45.7382C103.097 42.1462 102.675 38.5701 102.033 35.03C101.63 32.9232 102.499 31.5826 103.674 30.2105C105.024 28.6326 106.408 27.0851 107.828 25.5682C108.731 24.6077 109.591 23.4757 110.715 22.884C114.002 21.1517 116.678 18.8477 118.419 15.5575C119.451 13.6051 120.963 12.879 123.17 12.556C127.329 11.95 131.291 10.555 134.318 7.37345C134.808 6.80383 135.241 6.18829 135.613 5.5354C136.416 4.26334 137.111 2.91124 137.994 1.69921C138.513 0.958265 139.282 0.429451 140.159 0.209939C141.037 -0.00957383 141.964 0.0949615 142.771 0.504337C144.566 1.3619 146.39 2.14801 148.173 3.02273C149.082 3.46866 150.4 3.82884 150.123 5.12377C149.857 6.36724 149.403 7.69647 147.962 8.26818C146.462 8.82777 144.996 9.47492 143.571 10.2063C141.373 11.4012 138.977 11.3954 136.619 11.4669C134.77 11.5212 133.475 12.0958 132.243 13.588C130.35 15.8199 128.292 17.9059 126.085 19.8282C125.011 20.7554 123.764 21.4599 122.415 21.9006C121.643 22.128 120.93 22.5207 120.326 23.0513C119.721 23.582 119.239 24.2379 118.913 24.9736C117.435 28.0437 115.74 31.008 114.311 34.0981C113.761 35.3054 113.484 36.6191 113.499 37.9457C113.536 39.7352 113.934 41.5247 114.265 43.297C114.5 44.569 115.169 45.298 116.658 45.0121C120.889 44.2231 124.896 45.7696 128.984 46.3785C129.896 46.5128 130.842 47.3904 131.482 48.1651C134.029 51.2352 134.701 54.2881 132.866 58.3444C131.245 61.9233 127.958 63.1582 125.099 65.0506C122.332 66.8858 119.156 66.66 116.043 66.4799C114.174 66.3655 113.379 65.7224 113.319 63.8643C113.262 62.1492 112.447 61.7318 111.032 61.6946C110.175 61.6746 109.317 61.5346 108.477 61.5946C107.636 61.6546 106.964 62.2606 107.313 63.1182C107.456 63.4755 108.408 63.7128 108.951 63.6499C109.571 63.5813 110.123 62.9953 110.749 62.8666C110.972 62.8557 111.195 62.8994 111.397 62.9941C111.599 63.0887 111.775 63.2315 111.91 63.4098C112.09 63.7156 112.01 64.5275 111.787 64.6504C110.826 65.1821 109.803 65.7795 108.748 65.911C106.793 66.154 104.721 65.8138 103.626 68.115C103.446 68.4952 102.594 68.5094 102.119 68.8039C100.844 69.5928 99.5465 70.3761 98.3574 71.2765C94.1553 74.4524 89.8789 77.3767 84.1989 76.7078C82.9757 76.5236 81.7398 76.4356 80.5028 76.4448C78.1502 76.542 76.355 75.1613 74.4998 74.158C73.6594 73.7006 73.0963 72.3628 72.8133 71.3165C71.8014 67.5318 71.2639 63.7299 72.3216 59.7937C73.1592 56.6779 71.5384 54.6483 68.3939 54.9341C65.1869 55.2594 62.0031 55.7826 58.8607 56.5006C54.8758 57.3582 51.86 59.8452 49.2788 62.8495C47.3921 65.0449 45.5198 67.1373 42.4182 67.5661C41.9557 67.6813 41.5348 67.9239 41.2033 68.2665C39.0994 70.1588 36.5982 70.013 34.1827 69.387C30.7701 68.545 27.4859 67.249 24.4179 65.5337C20.7189 63.4155 16.8198 61.6432 13.018 59.7022C12.2176 59.2935 10.8569 59.1305 11.1885 57.9242C11.3857 57.201 12.3891 56.6636 13.0894 56.1176C14.8274 54.7598 16.6569 55.2457 18.5207 55.8946C23.1601 57.5183 27.7624 59.262 32.4647 60.6741C36.5067 61.8862 40.8975 59.7737 42.484 56.2319C43.6274 53.685 42.9299 52.4672 40.1085 52.3643C38.0213 52.254 35.9285 52.3142 33.8511 52.5444C29.5118 53.1018 25.3641 52.2099 21.2163 51.2066C18.2348 50.4862 16.614 48.2223 15.5535 45.6153C14.1385 42.145 11.8374 39.4979 8.90449 37.254C5.97161 35.01 3.13306 32.5602 0.160156 30.139ZM114.637 63.6356L114.611 64.0272C114.908 64.1281 115.218 64.1812 115.532 64.1844C115.884 64.0915 116.224 63.9552 116.544 63.7785L116.418 63.3955L114.637 63.6356Z" fill="black"/>
</g>
<defs>
<clipPath id="clip0_729_479">
<rect width="150" height="76.6608" fill="white" transform="translate(0.160156 0.104248)"/>
</clipPath>
</defs>
</svg>
