<svg width="151" height="100" viewBox="0 0 151 100" fill="none" xmlns="http://www.w3.org/2000/svg">
<g clip-path="url(#clip0_729_355)">
<path d="M1.22684 35.6905C7.04435 41.6557 12.8865 47.5963 18.663 53.5944C21.3051 56.3431 23.7338 59.338 26.3923 62.0376C33.3093 69.1597 41.4079 72.3105 51.4675 69.89C55.9922 68.849 60.6265 68.3613 65.2687 68.4376C73.753 68.5443 80.949 64.2366 88.7111 62.0129C93.8394 60.536 95.2753 54.9728 95.8661 50.0825C97.1543 38.5295 97.8682 26.9109 99.0661 15.3415C100.174 4.59266 107.501 -0.642287 118.316 0.186442C132.265 1.26953 139.649 10.2132 145.82 21.2165C150.086 28.872 150.972 36.9131 149.586 45.5204C148.462 52.4866 148.125 59.576 147.387 66.5997C146.615 73.9844 144.146 80.286 137.147 84.1671C134.078 85.8656 131.493 88.4174 128.556 90.3785C123.518 93.7262 118.332 94.1447 112.326 92.4134C100.428 89 88.2106 87.9005 75.9602 90.362C73.1458 90.9364 70.5283 92.561 67.8698 93.8082C64.44 95.4493 61.1743 97.476 57.6215 98.7314C46.93 102.424 42.3351 96.9755 38.5689 89.0492C37.7243 87.0802 36.6765 85.2048 35.4427 83.4532C30.7001 77.2829 25.8699 71.1809 20.9522 65.1473C18.0558 61.5945 14.946 58.2221 11.9265 54.7923C11.0157 53.7749 9.85875 52.9379 9.18592 51.7974C6.09255 46.8743 3.14686 41.7788 0.160156 36.749L1.22684 35.6905Z" fill="black"/>
</g>
<defs>
<clipPath id="clip0_729_355">
<rect width="150" height="99.8003" fill="white" transform="translate(0.160156 0.104492)"/>
</clipPath>
</defs>
</svg>
