<svg width="151" height="146" viewBox="0 0 151 146" fill="none" xmlns="http://www.w3.org/2000/svg">
<g clip-path="url(#clip0_729_443)">
<path d="M100.203 98.8188C104.748 96.507 109.108 94.6575 113.089 92.1885C114.657 91.2174 116.008 89.9331 117.058 88.4159C118.107 86.8988 118.832 85.1814 119.187 83.3712C120.223 77.9893 123.774 74.4337 127.39 71.0261C132.753 65.9725 137.099 67.0452 143.387 71.7798C147.794 75.0949 147.812 79.848 148.09 84.6381C148.293 87.5299 148.664 90.4075 149.199 93.2566C150.873 102.726 150.942 111.811 144.608 119.99C141.955 123.432 140.538 127.667 140.585 132.012C140.585 135.156 139.961 138.591 138.56 141.361C136.392 145.665 133.511 146.632 129.799 143.275C118.785 133.306 118.105 120.06 123.413 107.918C124.185 106.152 125.619 104.506 124.606 102.189C122.105 101.561 121.439 103.641 120.644 105.084C117.435 110.877 112.372 114.863 107.462 119.019C103.254 122.58 98.6768 121.821 94.7513 119.126C91.9355 117.193 88.9256 116.416 85.8693 115.598C82.9564 114.817 79.8586 114.673 76.881 114.16C73.3439 113.54 70.505 111.705 68.9561 108.441C65.8675 101.931 62.5801 95.4667 60.1018 88.7162C57.8362 82.539 56.4769 76.0104 57.79 69.2969C58.0033 68.247 58.3353 67.2248 58.7795 66.2499C60.8077 61.7742 62.8683 57.3047 64.9613 52.8414C66.4547 49.6418 66.2328 46.8306 64.0966 43.7837C61.6461 40.3067 58.0859 39.1369 54.424 38.0735C53.5779 37.8284 52.2971 38.2769 51.4926 38.8179C48.7184 40.6673 45.7732 42.3318 44.1318 45.5776C43.429 46.9647 41.5518 47.7276 40.6409 49.0638C36.3225 55.389 31.893 61.6633 28.0277 68.2658C25.6187 72.3762 22.7012 75.6636 18.7157 78.1928C14.5544 80.8097 10.5411 83.6394 6.37055 86.224C2.67164 88.5035 0.794441 87.403 0.295089 83.0245C-0.527918 75.8347 2.26476 69.4772 4.88636 63.1058C5.76576 60.9685 6.89566 58.9431 8.25237 57.072C11.4057 52.7443 13.1534 47.9311 14.1521 42.7387C14.5651 40.7911 15.3314 38.9357 16.4131 37.2643C20.6545 30.5354 24.9915 23.8712 29.424 17.2717C30.9452 15.02 32.9102 13.0642 34.7319 11.0206C35.6567 9.99413 36.6785 9.07403 37.6679 8.11231C40.1647 5.68952 42.5181 3.08642 45.2415 0.950298C46.254 0.150409 48.4456 -0.173246 49.5599 0.381591C52.9167 2.0461 56.782 3.20201 58.6361 7.03963C59.1725 8.14468 60.0232 9.09714 60.5364 10.2068C61.7201 12.7128 63.5834 14.0352 66.2281 15.1079C69.4184 16.3979 72.8168 18.2381 74.9622 20.8088C79.0341 25.7908 82.6839 31.1032 85.874 36.691C89.3371 42.6416 88.0101 49.1887 87.0854 55.5878C86.2439 61.5061 85.1989 67.4058 84.6395 73.3518C84.0291 79.8249 86.119 85.7801 89.3741 91.3146C90.4971 93.3392 92.2715 94.9246 94.4092 95.8134C96.3835 96.6226 98.2098 97.7692 100.203 98.8188Z" fill="black"/>
</g>
<defs>
<clipPath id="clip0_729_443">
<rect width="150" height="145.182" fill="white" transform="translate(0.160156 0.104248)"/>
</clipPath>
</defs>
</svg>
