<svg width="151" height="60" viewBox="0 0 151 60" fill="none" xmlns="http://www.w3.org/2000/svg">
<g clip-path="url(#clip0_729_547)">
<path d="M24.8037 24.135C24.471 23.2696 25.0988 22.952 25.6741 22.5968C26.8396 21.8765 28.0001 21.1462 29.1631 20.4208L29.0006 19.8281L24.6711 20.0407C29.3757 17.8297 33.7527 15.3836 38.1772 13.01C38.1322 12.7474 38.0896 12.4873 38.0446 12.2272C37.2468 11.977 36.4639 11.5318 35.651 11.4768C30.2111 11.0691 24.7636 10.8365 19.3362 10.3588C16.9751 10.1487 14.6616 9.4384 12.3105 9.03322C10.3647 8.69807 8.32375 8.03277 6.46041 8.3354C4.64709 8.62553 2.22851 8.87314 1.7658 11.5418C1.68326 12.0196 1.41814 12.4673 1.098 13.2926C0.987947 12.7599 0.997952 12.4848 0.877898 12.2922C-0.477713 10.0937 0.30514 8.17033 1.42815 6.13941C2.28853 4.58622 2.67871 4.23856 4.51453 4.50118C6.81057 4.81382 9.1141 5.16398 11.4151 5.28403C14.5591 5.4491 17.718 5.51663 20.8644 5.42159C24.0808 5.32405 27.2848 4.86634 30.5012 4.7663C37.3518 4.5487 44.1774 3.09805 51.0555 4.21105C52.9381 4.53841 54.7959 4.99554 56.6155 5.57916C61.1175 6.96729 65.5395 8.58051 70.069 9.83108C72.6883 10.5618 75.2195 11.5775 77.6174 12.8599C79.1306 13.6578 81.119 13.6728 82.9048 13.8079C84.443 13.9254 86.0237 13.5402 87.5544 13.7003C88.6899 13.8204 89.3052 13.3827 89.8054 12.5848C91.0135 10.719 92.0839 8.75559 93.407 6.97729C94.2913 5.79031 95.3624 4.75472 96.5785 3.91091C100.033 1.53734 104.007 1.4423 108.011 1.60487C110.832 1.72493 113.656 1.885 116.48 1.895C118.538 1.895 120.602 1.59737 122.66 1.61238C124.384 1.62093 126.102 1.78838 127.795 2.1126C129.502 2.48881 131.273 2.4657 132.97 2.04507C134.556 1.63489 136.221 1.54485 137.852 1.29473C139.043 1.10465 140.223 1.25472 141.424 0.561905C143.425 -0.578608 145.898 0.531891 147.161 2.56281C149.06 5.63419 149.32 9.13826 149.89 12.5423C150.369 15.1731 150.223 17.8797 149.462 20.4434C149.183 21.4457 148.663 22.3646 147.947 23.1197C147.231 23.8748 146.342 24.4432 145.355 24.7753C143.231 25.554 140.906 25.5875 138.76 24.8703C137.167 24.3551 135.326 24.4527 133.608 24.5277C132.227 24.5902 130.856 25.0279 129.403 25.323C129.281 28.0543 129.546 30.5754 130.529 33.004C130.716 33.4667 130.976 33.9044 131.124 34.3771C131.704 36.2455 131.234 36.9133 129.321 36.6281C126.122 36.1479 123.043 36.9358 119.989 37.5335C118.446 37.8337 117.063 39.0167 115.64 39.8521C113.639 41.0301 111.728 41.3878 109.557 40.0422C108.776 39.557 107.483 39.7921 106.44 39.8696C104.79 39.9972 103.144 40.2323 101.511 40.5024C100.282 40.6795 99.0701 40.9563 97.8866 41.3303C94.7501 42.3957 91.6337 43.5112 88.5398 44.7143C87.6366 45.0789 86.8196 45.6284 86.1413 46.3275C83.6201 48.9112 80.8064 51.2197 77.4549 52.4102C73.4731 53.8284 69.9915 55.8118 67.0327 58.7856C66.6908 59.0669 66.3251 59.318 65.9397 59.5359C64.439 57.4375 64.369 55.194 65.1368 53.0605C66.1823 50.1542 67.6905 47.398 70.0465 45.3396C72.8503 42.896 75.8591 40.6875 78.768 38.3614C79.6684 37.6411 80.6613 36.9808 81.3841 36.1104C83.0999 34.027 85.8161 33.6743 87.847 32.1686C88.4973 31.6859 89.1651 31.2257 90.098 30.5554C89.3652 30.1077 88.9225 29.6075 88.4698 29.6C85.8636 29.56 83.3175 29.0247 80.6238 29.6875C78.1802 30.2903 75.5065 29.9626 72.9353 30.0452C72.4351 30.0627 71.8598 29.9101 71.4597 30.1127C67.7755 31.9685 63.6562 32.999 60.4197 35.6802C58.1362 37.5711 55.8126 39.4919 53.8943 41.7304C51.4607 44.5717 48.4318 45.5296 44.9252 45.6822C41.4186 45.8348 37.9821 45.9698 34.518 46.2099C32.3896 46.36 30.2661 46.7702 28.1502 46.9303C25.3514 47.1404 23.2705 48.9312 21.007 50.2168C20.2566 50.6469 20.1266 52.2677 19.7939 53.3682C19.5913 54.031 19.5438 54.7438 19.2136 55.4066C18.0731 51.6549 18.1582 47.8607 19.5763 44.3266C20.3892 42.2982 22.6577 41.3252 24.7912 40.805C28.6529 39.8746 32.5622 39.1543 36.4364 38.2739C37.6394 38.0013 38.7925 37.5035 39.9655 37.0958C40.5132 36.9033 41.0585 36.4906 41.5937 36.5081C43.7697 36.5831 45.4229 35.18 47.3463 34.5747C49.7474 33.8244 50.6478 31.4208 51.9834 29.5725C54.1002 26.7043 56.5728 24.1166 59.3417 21.8715C60.092 21.2537 60.7398 20.5259 61.8278 19.4654C60.7498 19.1128 60.1271 18.7651 59.4818 18.7151C55.1173 18.4174 50.7503 18.1898 46.3859 17.9222C45.9807 17.8972 45.4855 17.8722 45.1978 17.6421C44.49 17.0693 43.9323 17.3295 43.1619 17.5671C40.7208 18.3174 38.1597 18.6876 35.7636 19.568C32.0594 20.9436 28.4528 22.6143 24.7987 24.1375L24.8037 24.135Z" fill="black"/>
</g>
<defs>
<clipPath id="clip0_729_547">
<rect width="150" height="59.4493" fill="white" transform="translate(0.160156 0.104248)"/>
</clipPath>
</defs>
</svg>
