<svg width="151" height="46" viewBox="0 0 151 46" fill="none" xmlns="http://www.w3.org/2000/svg">
<g clip-path="url(#clip0_729_439)">
<path d="M0.160156 14.5535C2.06158 11.9528 3.14062 8.84143 6.0556 6.8693C9.73535 4.38384 13.3077 1.67575 17.7077 0.641235C19.6903 0.16719 21.9715 -0.144475 23.8624 0.379332C25.9236 0.95552 27.3012 2.97741 28.1524 5.03598C28.8478 6.72567 29.4211 8.46305 29.8679 10.2348C30.0957 11.1279 30.0172 12.1257 29.936 13.0633C29.7448 15.2974 29.4122 17.5157 29.2419 19.755C29.0507 22.2692 28.9303 24.7914 28.8648 27.3109C28.7862 30.3411 30.5279 32.4049 32.8667 33.9239C35.1452 35.4037 39.8673 33.8087 41.8395 31.9806C43.6728 30.273 44.9116 28.1044 46.7214 26.4806C49.6049 23.8799 52.7766 21.5804 55.7597 19.0792C57.7449 17.4057 59.8008 15.7504 61.477 13.7888C64.3187 10.4574 68.1267 8.55072 71.6912 6.24597C73.3502 5.15921 75.083 4.18955 76.8769 3.34408C78.0521 2.79781 79.3166 2.46947 80.6091 2.37504C83.6262 2.19432 84.611 3.92027 83.49 6.72787C82.1491 10.0933 80.0617 12.8617 77.5003 15.3707C76.6179 16.199 75.9062 17.1919 75.405 18.2935C74.6953 19.9907 75.536 20.9492 77.3667 20.6952C81.2272 20.1714 85.1059 19.7 88.9193 18.9221C90.9307 18.5109 92.7771 17.3297 94.778 16.8033C97.109 16.1878 99.0366 15.004 100.969 13.6264C103.083 12.1231 105.267 10.3343 107.687 9.72667C111.794 8.70001 116.152 8.23644 119.997 10.9759C121.128 11.7826 122.281 12.3117 123.648 11.9267C127.707 10.7638 131.916 9.86286 135.826 8.26525C138.144 7.32507 140.538 6.58383 142.981 6.04954C145.019 5.59383 146.826 6.27478 148.405 7.35906C149.218 7.994 149.781 8.89406 149.998 9.90214C151.072 15.0983 146.554 20.6533 141.274 21.0383C138.945 21.2059 136.651 21.824 134.346 22.2771C132.215 22.6909 130.09 23.1466 127.961 23.5866C126.086 23.9664 124.148 24.1602 122.351 24.7704C121.091 25.1999 119.889 26.0485 118.886 26.9547C115.654 29.8801 111.087 29.5554 108.41 26.093C106.208 23.2435 105.38 22.9502 102.358 24.7285C99.1885 26.5802 95.7576 27.6094 92.3135 28.7644C86.24 30.8125 80.0041 31.3835 73.7184 31.7999C68.7815 32.1194 63.8446 32.4416 58.9156 32.8475C56.4923 33.0586 54.0814 33.3934 51.6923 33.8506C50.7891 34.0567 49.9568 34.4986 49.2802 35.1313C45.9461 38.1877 42.675 41.3122 38.605 43.4127C31.5886 47.0374 25.3238 45.3194 21.2015 38.8661C19.8658 36.7708 20.1303 34.1099 20.3529 31.7632C20.827 26.7635 21.6205 21.7873 22.4874 16.8347C23.0531 13.574 22.1601 9.65595 19.9234 8.31763C17.5977 6.93216 14.9289 6.77502 12.3649 7.4193C10.1151 7.98501 8.04869 8.9462 6.34108 10.7743C4.74085 12.4767 2.65086 13.7233 0.780868 15.1612L0.160156 14.5535Z" fill="black"/>
</g>
<defs>
<clipPath id="clip0_729_439">
<rect width="150" height="45.1784" fill="white" transform="translate(0.160156 0.104248)"/>
</clipPath>
</defs>
</svg>
