<svg width="151" height="121" viewBox="0 0 151 121" fill="none" xmlns="http://www.w3.org/2000/svg">
<g clip-path="url(#clip0_729_523)">
<path d="M121.963 40.2328C120.24 36.3545 117.4 34.4242 114.142 33.3966C110.1 32.1265 105.882 31.4057 101.74 30.4531C93.5336 28.5728 85.2916 26.8851 77.1674 24.7444C72.5612 23.5277 68.5151 21.0301 64.8687 17.8154C60.1661 13.6623 55.1817 9.82323 50.3186 5.85211C49.1305 4.88163 48.3741 3.75415 48.9949 2.14144C49.6692 0.386014 51.182 0.000676388 52.7769 0.125554C54.4327 0.207974 56.0715 0.499285 57.6543 0.992565C65.3789 3.67209 73.025 6.55142 80.796 9.11321C83.6896 10.0694 86.8044 10.3477 89.8193 10.915C90.747 11.0934 91.6889 11.1969 92.6202 11.3646C95.7528 11.9247 98.8641 12.6847 102.022 13.0308C107.081 13.591 112.18 13.7908 117.246 14.3081C124.343 15.0217 131.108 16.9663 137.284 20.6163C138.472 21.3299 139.424 22.4502 140.438 23.41C142.158 25.0191 143.649 27.0279 145.618 28.191C149.9 30.6886 148.698 37.6603 146.125 40.0865C143.72 42.3522 141.437 44.9247 138.632 46.5338C135.286 48.4498 131.496 49.745 127.779 50.8154C123.569 52.0421 119.276 52.9662 114.934 53.5805C107.441 54.6295 99.8881 55.6035 92.2741 55.179C89.6658 55.0355 87.0719 54.698 84.5138 54.1692C80.0995 53.2332 75.5553 53.0786 71.0876 53.7125C63.9267 54.7365 56.6945 55.3538 49.5872 56.6454C45.3056 57.4232 41.2096 59.1429 37.028 60.4488C33.0212 61.6869 29.2891 63.346 26.1743 66.3252C24.7471 67.6917 22.8454 68.573 21.1506 69.6648C17.6362 71.9269 16.3732 75.9051 17.5827 79.9084C18.728 83.7439 19.9732 86.766 24.6972 87.9256C29.0572 88.9959 32.932 91.9181 37.4098 93.1312C42.6653 94.5584 47.9673 95.8642 53.1408 97.5554C57.2404 98.897 61.2543 98.8363 65.3896 98.0978C66.5632 97.9128 67.7603 97.9369 68.9254 98.1691C73.9848 99.1253 78.8265 97.9586 83.6932 96.8597C92.8093 94.8045 101.915 92.6959 111.059 90.7692C115.566 89.8166 120.165 89.3063 124.689 88.4286C126.89 88.004 129.013 87.187 131.172 86.5483C136.274 85.0462 141.208 84.9749 145.879 88.0397C148.919 90.0306 150.977 94.8188 149.932 98.2904C148.769 102.155 147.559 106.008 146.161 109.786C144.566 114.093 141.501 117.24 137.419 119.224C133.031 121.364 127.504 119.202 125.36 114.189C123.954 110.892 121.842 110.389 118.673 110.336C102.571 110.05 86.7759 112.994 70.8414 114.485C66.9987 114.842 63.0562 114.189 59.16 113.982C58.5713 113.95 57.979 113.679 57.4045 113.722C50.9501 114.211 44.9988 112.045 39.0011 110.204C36.8724 109.501 34.7864 108.676 32.7536 107.731C29.1856 106.161 25.7105 104.377 22.0961 102.929C19.2168 101.791 16.2947 100.72 13.3119 100.189C8.3881 99.3358 7.95994 97.8766 6.94665 93.8162C6.70892 92.6559 6.54093 91.4823 6.44357 90.3018C6.151 87.9363 5.18765 86.1452 2.97909 84.8678C0.770535 83.5905 -0.110748 81.5782 0.231775 78.8273C0.499185 76.5103 1.04547 74.2341 1.85876 72.0482C2.6866 69.7381 3.05741 67.289 2.95055 64.8374C2.76502 59.9457 4.28853 56.2315 8.41307 53.3415C12.031 50.8011 15.7131 49.117 20.223 49.1919C21.9427 49.2205 23.716 48.589 25.3929 48.0431C29.6531 46.6516 33.8097 44.9175 38.1198 43.7294C42.9151 42.4057 47.821 40.743 52.702 40.6645C58.7354 40.5718 64.7224 40.2328 70.7344 39.8653C73.3711 39.7048 76.0613 40.8322 78.7551 41.0998C81.927 41.4102 85.131 41.3425 88.3136 41.5815C91.383 41.7662 94.441 42.1055 97.4761 42.5984C100.517 43.1126 103.628 43.0509 106.646 42.4164C110.82 41.6029 115.08 41.2283 119.301 40.6574C119.979 40.5825 120.654 40.4505 121.963 40.2328Z" fill="black"/>
</g>
<defs>
<clipPath id="clip0_729_523">
<rect width="150" height="119.947" fill="white" transform="translate(0.160156 0.104248)"/>
</clipPath>
</defs>
</svg>
