<svg width="151" height="83" viewBox="0 0 151 83" fill="none" xmlns="http://www.w3.org/2000/svg">
<g clip-path="url(#clip0_729_507)">
<path d="M111.994 36.6981C110.886 38.0012 111.431 39.2179 111.783 40.441C113.012 44.7091 115.305 48.3944 118.058 51.814C120.053 54.2826 120.85 57.1579 121.532 60.2412C122.679 65.409 122.173 70.5736 122.192 75.7318C122.192 78.2932 121.526 80.8259 118.67 82.001C117.588 82.446 116.666 82.6125 115.734 81.7416C114.498 80.5858 113.144 79.5484 111.988 78.3221C109.519 75.7061 106.625 73.5193 104.659 70.3719C103.698 68.835 101.864 67.7848 100.291 66.7026C98.3416 65.3902 96.7581 63.6029 95.6904 61.5092C94.6274 59.4408 93.5227 57.3948 92.3765 55.2272C91.9314 55.3584 91.4159 55.3552 91.1886 55.605C88.8032 58.1344 86.5299 60.7695 84.0805 63.2286C82.882 64.4313 81.5195 65.4586 80.0334 66.2799C77.2606 67.804 74.3725 69.1296 71.5165 70.4999C68.8397 71.7807 66.0733 72.9301 63.4766 74.3422C62.5161 74.8609 61.8277 75.9271 61.024 76.7563C60.2876 77.512 59.6568 78.4117 58.8115 79.0169C57.4764 79.9774 56.2501 79.6892 55.2159 78.3765C54.9082 77.9419 54.6281 77.4885 54.377 77.0189C51.8155 72.6452 52.7921 65.4923 56.487 62.0599C58.6034 60.1004 59.0485 57.3692 59.5287 54.8589C60.1883 51.4554 61.5043 48.3784 62.785 45.2246C64.2002 41.7442 65.782 38.5231 68.971 36.1922C71.8206 34.111 72.4034 30.685 73.0982 27.4608C73.4408 25.8598 72.5667 24.8256 71.1771 24.1821C68.3146 22.8629 65.4137 23.0486 62.4488 23.8619C61.1265 24.2269 59.7945 24.736 58.4497 24.8C55.6609 24.9345 53.1091 26.2441 50.4451 26.4746C45.2357 26.9228 40.5194 29.3819 35.2268 29.5772C30.3824 29.7533 25.999 28.5046 21.6381 26.8012C16.3775 24.7584 12.1927 21.0891 8.11034 17.3942C6.41016 15.8573 5.28311 13.6768 3.8871 11.8005C2.75685 10.2893 1.59778 8.79721 0.160156 6.91452C0.301037 5.92515 0.512359 4.42349 0.77491 2.56322C3.20191 5.4897 5.39837 8.15364 7.61405 10.8016C8.35688 11.6853 9.01646 12.7419 9.9546 13.3438C12.9643 15.2649 15.8876 17.3525 19.5601 18.0089C23.5977 18.7293 27.584 19.7443 31.6055 20.5704C32.185 20.6889 32.8382 20.4743 33.4529 20.3815C34.3911 20.2374 35.3484 19.866 36.2609 19.9524C38.4414 20.1574 40.3305 19.3985 42.2932 18.6493C47.5474 16.6449 52.7761 14.5125 58.1488 12.9276C62.1799 11.7301 66.4383 11.2658 70.6007 10.491C71.1226 10.3949 71.7022 10.491 72.1792 10.3213C72.6563 10.1516 73.2006 9.77697 73.2903 9.38955C73.3116 9.14031 73.2704 8.88969 73.1703 8.66043C73.0702 8.43118 72.9145 8.23056 72.7171 8.07679C71.6264 7.44275 70.4574 6.95407 69.2399 6.62316C64.7093 5.55694 60.1467 4.6188 55.6033 3.60702C55.3407 3.54618 55.1294 3.25802 54.6427 2.8834C55.3279 2.5376 55.8242 2.07334 56.3269 2.07013C58.6675 2.04772 61.008 2.21101 63.3486 2.20141C67.0307 2.1886 70.7139 2.1299 74.3981 2.02531C79.8669 1.86201 85.1819 2.30707 89.911 5.45768C90.2591 5.70587 90.6301 5.9203 91.0189 6.09805C94.2207 7.44603 96.1995 9.85702 97.3938 13.0845C98.1078 15.0248 99.0587 15.4026 100.858 14.4709C106.762 11.4163 113.025 12.0471 119.262 12.5498C122.086 12.7835 124.866 14.0066 127.731 12.8956C128.372 12.6458 129.178 12.316 129.492 11.7781C130.588 9.95403 131.551 8.05366 132.374 6.09165C133.722 2.74572 137.436 -0.0590927 140.929 0.104201C141.971 0.182721 142.955 0.616774 143.715 1.33371C147.708 5.43527 150.077 10.2989 150.154 16.1326C150.183 18.47 150.176 20.7401 149.331 23.039C148.691 24.7808 149.011 26.8556 148.505 28.6743C147.999 30.4929 147.07 32.1515 146.264 33.8548C145.457 35.5582 144.416 37.2008 143.744 38.9778C142.492 42.2757 138.986 44.4209 135.595 43.3515C132.073 42.2437 128.368 41.6769 125.157 39.6982C125.064 39.6468 124.963 39.6101 124.859 39.5893C121.164 38.6288 117.476 37.6458 113.774 36.7077C113.185 36.5732 112.545 36.6981 111.994 36.6981ZM70.7224 53.1748C79.3193 50.3539 84.977 40.2233 82.9919 32.0906C81.4742 34.5208 80.376 37.1335 78.5317 39.0226C76.2904 41.3183 75.1377 44.0367 73.8762 46.8159C73.3287 48.0166 72.3073 48.9932 71.6605 50.1618C71.2411 50.9015 71.1322 51.8012 70.7224 53.1748Z" fill="black"/>
</g>
<defs>
<clipPath id="clip0_729_507">
<rect width="150" height="82.2618" fill="white" transform="translate(0.160156 0.104248)"/>
</clipPath>
</defs>
</svg>
