<svg width="151" height="39" viewBox="0 0 151 39" fill="none" xmlns="http://www.w3.org/2000/svg">
<g clip-path="url(#clip0_729_451)">
<path d="M49.5686 36.7344C48.9413 36.0712 48.2741 35.5753 47.8857 34.914C46.9317 33.2909 45.5794 32.0441 44.3008 30.7077C42.7075 29.0447 41.6539 27.0292 41.5264 24.7328C41.3273 21.1279 38.7063 19.7398 36.0614 18.3018C35.3683 17.9254 34.6413 17.6107 33.9642 17.2044C28.9353 14.1971 23.6615 11.7633 17.816 10.9009C14.4999 10.409 11.1141 10.3512 7.49336 10.0764C5.07949 7.07497 3.54594 3.1156 0.160156 0.542408L0.431019 0.104248C0.865195 0.233704 1.43679 0.231713 1.70766 0.516517C3.38063 2.27314 5.51765 3.61152 6.6011 5.90389C6.98549 6.71847 7.69451 6.99531 8.5549 7.02916C10.5465 7.10883 12.5262 7.25223 14.5139 7.29405C18.0411 7.36973 21.4846 7.85569 24.8246 9.04271C27.8021 10.0983 30.8652 10.9188 33.8427 11.9744C35.7053 12.6223 37.5118 13.4216 39.244 14.3644C40.3713 14.9897 41.3053 15.9855 42.2733 16.8718C43.2412 17.7581 43.759 18.8635 43.9921 20.154C44.3252 21.9797 45.1214 23.6893 46.3044 25.1192C47.6607 26.7981 48.8656 28.5986 50.1382 30.3472C51.0484 31.598 51.2795 31.7533 52.7971 31.2116C53.8327 30.8431 54.8007 30.2476 55.7387 29.6561C57.0691 28.8157 58.3597 27.9075 59.6364 26.9853C60.6501 26.2524 61.628 25.4598 62.6059 24.685C62.7612 24.5635 62.8728 24.3843 63.0321 24.2727C67.4137 21.2136 71.1978 17.3976 75.4778 14.2289C78.4011 12.0954 81.4968 10.2088 84.733 8.58861C87.7563 7.05107 90.8353 6.7583 93.9542 6.74436C97.2882 6.73042 100.527 7.62466 102.809 10.407C103.367 11.136 103.799 11.9532 104.088 12.8248C105.046 15.4856 105.866 18.2022 107.517 20.5444C108.259 21.5537 109.087 22.496 109.993 23.3606C110.76 24.1174 111.534 24.1174 112.249 23.3904C112.724 22.9286 113.091 22.3684 113.325 21.7493C114.056 19.5705 114.474 17.2582 115.428 15.1889C116.261 13.3785 116.703 11.3191 118.402 9.91703C120.547 8.15045 122.871 7.60475 125.388 8.70214C127.371 9.56768 129.522 9.97609 131.684 9.89712C136.089 9.81745 140.465 10.644 144.763 11.7374C146.173 12.0959 146.964 13.1514 147.802 14.1672C150.23 17.1048 150.927 23.3805 149.21 26.6109C148.089 28.724 147.131 29.2 144.697 28.9869C142.578 28.8097 140.853 27.7123 139.121 26.6687C137.744 25.8382 136.374 25.1291 134.763 24.8483C132.676 24.4839 130.626 23.9162 128.543 23.5398C126.91 23.247 125.446 23.9381 124.733 25.392C123.246 28.4235 121.491 31.3162 119.489 34.0357C118.947 34.7706 118.66 35.6888 118.224 36.5054C117.396 38.0529 116.448 38.4014 114.787 37.8995C111.646 36.9375 109.057 35.1351 106.494 33.0977C104.303 31.355 102.538 29.2399 100.535 27.3458C99.7778 26.6308 99.2241 25.7286 99.1584 24.5755C99.0428 22.536 98.8457 20.4966 98.6405 18.4631C98.4215 16.2723 97.5093 15.4159 95.3623 14.9041C91.8351 14.0636 88.535 14.7846 85.3105 16.1489C84.7907 16.3679 84.4123 16.9037 83.9164 17.2084C83.5061 17.4613 82.9206 17.8537 82.588 17.7262C81.5822 17.3279 80.915 17.8497 80.2179 18.3237C77.5153 20.2078 74.9739 22.3887 72.092 23.9362C68.9891 25.6012 66.2824 27.8278 63.2492 29.5346C59.1703 31.833 54.9301 33.8445 50.7636 35.9875C50.4211 36.1787 50.1024 36.4058 49.5686 36.7344Z" fill="black"/>
</g>
<defs>
<clipPath id="clip0_729_451">
<rect width="150" height="38.0183" fill="white" transform="translate(0.160156 0.104248)"/>
</clipPath>
</defs>
</svg>
