<svg width="151" height="70" viewBox="0 0 151 70" fill="none" xmlns="http://www.w3.org/2000/svg">
<g clip-path="url(#clip0_729_563)">
<path d="M27.9399 9.51667C28.4902 8.62688 28.9246 7.70124 29.5613 6.9485C31.1195 5.11198 32.9181 3.6318 35.3345 2.94231C37.1436 2.4194 38.8473 1.54437 40.6058 0.854881C42.2652 0.197023 43.9836 0.104248 45.7611 0.104248C47.1864 0.104248 48.1479 0.840121 49.1347 1.58021C49.3087 1.7383 49.4477 1.931 49.5428 2.14596C49.638 2.36091 49.6871 2.59338 49.6871 2.82845C49.6239 4.21797 49.6281 5.6623 49.2359 6.97591C47.878 11.5233 46.4295 16.0439 44.8903 20.5379C43.6631 24.1076 43.5239 27.6162 44.7869 31.1922C45.1011 32.1217 45.7548 32.8982 46.6171 33.3661C48.5254 34.4879 50.5875 35.1288 52.7318 35.5653C55.6838 36.1683 58.6694 36.6385 61.6003 37.3365C63.5682 37.8363 65.5009 38.4653 67.386 39.2194C69.0729 39.8709 70.7112 40.6953 72.3664 41.4607C74.7764 42.5593 76.5286 42.0174 77.8485 39.7444C78.4516 38.7175 78.9028 37.5747 79.6555 36.6681C80.4399 35.715 81.4667 34.9538 82.4324 34.161C83.0797 33.6297 83.8346 33.2312 84.484 32.7019C85.513 31.8585 85.5636 31.226 84.7834 30.2012C83.5942 28.6388 81.8526 27.8017 80.1447 27.0764C77.4922 25.9441 75.099 24.485 74.1755 21.706C73.6715 20.1352 73.7896 18.2375 74.011 16.5359C74.3315 14.069 75.6325 12.1523 77.916 10.8809C79.1811 10.1724 80.307 9.2763 81.8083 8.98322C83.1915 8.71754 84.3006 9.01063 85.2389 10.0122C85.6226 10.4191 86.0823 10.8197 86.2931 11.3131C86.9742 12.8355 88.33 13.2719 89.749 13.7042C93.6856 14.9039 97.2532 16.7341 100.281 19.608C101.653 20.9156 102.601 22.6051 103.001 24.4576C103.446 26.3553 103.693 28.312 104.017 30.2455C104.456 32.858 105.681 33.83 108.19 33.1616C110.822 32.4574 113.377 31.4748 115.956 30.5787C117.269 30.1253 118.524 29.4042 119.871 29.1638C122.378 28.7126 124.331 27.3421 126.429 26.0496C128.223 24.9426 130.361 24.2805 132.434 23.785C133.317 23.5742 134.424 24.2868 135.354 24.5588C136.811 26.9225 136.351 29.4084 135.974 31.7805C135.482 35.0634 133.978 38.1111 131.673 40.4992C130.359 41.8719 128.932 42.7174 127.085 42.6246C125.888 42.5476 124.701 42.8922 123.732 43.5988C122.256 44.6404 120.569 44.9777 118.842 45.3362C114.866 46.1627 110.925 47.1495 106.971 48.0773C106.208 48.2544 105.449 48.4589 105.266 49.4752C105.993 50.3439 106.866 50.9027 108.099 50.8963C110.754 50.8963 113.411 50.8963 116.065 50.968C120.051 51.0671 124.034 51.3202 128.019 51.3223C131.932 51.3223 135.843 51.0967 139.755 50.9596C140.035 50.9414 140.313 50.897 140.585 50.8268C142.506 50.3945 144.395 49.4689 146.35 50.8879C146.772 51.1894 147.584 50.9132 148.214 50.9533C148.712 50.9849 149.207 51.0882 150.156 51.2253C148.071 51.8346 144.026 52.2121 142.776 52.0307C142.497 51.9863 142.214 51.975 141.933 51.997C138.66 52.2866 135.387 52.5818 132.113 52.8826C129.412 53.1293 126.709 53.3549 124.012 53.648C122.214 53.8441 120.428 54.1435 118.636 54.3923C117.331 54.6078 115.999 54.5893 114.701 54.3374C113.388 54.0612 111.924 54.31 110.56 54.5272C109.601 54.6811 108.806 54.4576 107.916 54.2152C105.7 53.61 103.452 53.104 101.194 52.6802C99.7286 52.406 98.5268 52.891 97.4809 54.1055C96.3908 55.3706 95.0414 56.4122 93.7636 57.5023C92.7199 58.3921 91.5054 58.894 90.0969 58.8054C89.8181 58.7592 89.5342 58.7521 89.2535 58.7843C85.5067 59.6678 81.7282 60.4543 78.0298 61.5148C75.8264 62.1474 73.7685 63.2776 71.601 64.0619C70.3555 64.5011 69.0692 64.8147 67.7614 64.9981C66.3993 65.1984 65.4926 64.511 65.0899 63.1679C64.9106 62.5691 64.6555 61.9893 64.3688 61.2239C63.8416 61.2239 63.2618 61.0952 62.7663 61.2428C58.874 62.4067 54.9648 63.539 51.1315 64.8611C49.3751 65.4662 47.781 66.5226 46.071 67.2795C45.4638 67.5494 44.7385 67.5979 44.0574 67.6485C42.6721 67.7539 41.2657 67.6949 39.8931 67.8805C37.1921 68.2452 34.5142 68.7576 31.8175 69.1456C30.9951 69.2636 30.1306 69.1308 29.3062 69.192C27.992 69.2668 26.6824 69.4076 25.3823 69.6137C24.1572 69.8245 23.8641 69.8245 23.5647 68.5826C23.313 67.496 23.2109 66.3801 23.2611 65.2659C23.3054 64.2369 22.8752 63.6634 22.0149 63.3218C20.1911 62.6071 18.2934 62.0567 16.2945 62.432C15.3204 62.6134 14.4643 62.4573 13.7285 61.8543C12.1028 60.5175 10.1777 59.9124 8.1662 59.5898C7.1752 59.4316 6.49204 59.0226 5.95647 58.1981C4.8495 56.4966 3.57174 54.892 2.61658 53.1124C2.15271 52.2521 2.13584 51.084 2.13373 50.055C2.13373 47.9107 1.98613 45.8591 0.160156 44.3367C1.96083 42.0638 4.29496 40.9083 6.86314 40.1661C7.99752 39.8329 8.85779 40.2315 9.26263 41.2815C9.76823 42.5086 10.162 43.7789 10.4392 45.0768C10.9811 47.976 12.301 50.3017 14.8523 51.8768C16.7394 53.0407 18.907 53.3823 20.9944 53.804C27.495 55.1218 34.0778 54.6643 40.6374 54.3417C42.0248 54.2721 43.3974 53.8715 44.7722 53.591C47.1717 53.1019 49.5754 52.6317 51.9601 52.0729C54.3449 51.5141 56.7233 50.9006 59.0701 50.1984C59.5677 50.0508 60.2571 49.4162 60.2529 49.0113C60.2529 48.5538 59.6204 47.7757 59.1649 47.7083C57.4781 47.4489 56.2952 46.2555 54.8193 45.6672C53.0579 44.9964 51.2574 44.4331 49.4278 43.9804C47.8085 43.5587 46.1364 43.3373 44.5128 42.9261C43.2381 42.6225 41.9933 42.2047 40.7934 41.6779C40.1585 41.3681 39.652 40.846 39.3617 40.2019C38.7945 38.7808 38.1388 37.2901 38.0587 35.7994C37.8331 31.517 38.2548 27.321 39.8952 23.2452C41.4618 19.3508 42.6763 15.3151 44.0026 11.3279C44.3031 10.3199 44.5494 9.29646 44.7406 8.2621C44.9514 7.26688 44.5297 6.61746 43.5556 6.37709C42.8766 6.21052 42.1745 5.95539 41.4955 5.99756C37.4198 6.22739 33.3714 6.60059 29.8987 9.12238C29.4863 9.3809 29.0437 9.58768 28.5809 9.73807C28.4881 9.7718 28.3342 9.65584 27.9399 9.51667ZM119.538 37.2015L121.101 35.7719C121.014 35.6243 120.928 35.4789 120.839 35.3334L118.906 35.89C119.121 36.3349 119.262 36.6259 119.538 37.2015Z" fill="black"/>
</g>
<defs>
<clipPath id="clip0_729_563">
<rect width="150" height="69.6359" fill="white" transform="translate(0.160156 0.104248)"/>
</clipPath>
</defs>
</svg>
