<svg width="151" height="348" viewBox="0 0 151 348" fill="none" xmlns="http://www.w3.org/2000/svg">
<g clip-path="url(#clip0_729_751)">
<path d="M133.931 268.214C131.872 265.469 129.682 262.814 127.787 259.965C121.838 251.031 116.104 241.967 110.07 233.078C108.23 230.374 105.72 227.384 102.151 227.869C98.8911 228.314 98.1512 231.924 97.1213 234.683C96.0114 237.643 95.2316 240.607 96.5414 243.827C97.1468 245.387 97.3813 247.066 97.2263 248.731C96.5814 255.175 98.1512 261.27 99.8609 267.354C101.431 272.928 100.506 275.728 95.4415 279.252C94.8416 285.716 94.1717 292.59 93.6018 299.475C93.4918 300.774 93.8867 302.109 93.8967 303.429C93.8967 306.014 94.7466 308.603 93.3268 311.183C92.7469 312.248 92.8669 313.808 92.9819 315.112C93.6168 322.352 94.3467 329.581 95.0866 337.22C90.2772 338.219 92.162 342.934 90.8421 347.483C88.3825 343.034 86.0628 339.664 84.583 335.985C82.3783 330.485 81.3334 324.486 76.739 320.157C76.4225 319.778 76.1862 319.339 76.0444 318.867C75.9027 318.394 75.8583 317.897 75.9141 317.407C77.059 308.408 74.4743 299.61 74.3593 290.666C74.3193 287.426 72.9795 284.207 72.3146 280.962C70.7198 273.168 68.6651 265.424 67.7552 257.545C66.8603 249.856 67.1653 242.047 66.9203 234.273C66.9185 231.802 66.7883 229.332 66.5304 226.874C65.8005 221.605 64.1507 216.406 65.6505 211.076C66.7853 207.022 68.8351 203.432 72.1496 200.728C73.1464 199.881 74.3333 199.287 75.6092 198.998C79.8436 198.198 84.108 197.583 88.3875 196.968C92.047 196.443 93.1668 195.468 92.9919 191.854C92.8019 187.914 91.852 183.96 91.4621 180.125C90.9271 174.876 89.0924 170.222 87.7326 165.327C86.4777 160.828 84.7929 156.579 81.7883 152.889C80.8935 151.789 80.6285 150.189 80.0436 148.835C78.8037 145.955 77.7889 142.92 74.8893 141.051C70.3299 143.21 67.9202 147.34 65.8655 151.359C62.3909 158.143 58.2915 164.463 52.7122 169.522C46.2781 175.351 45.4032 182.925 44.5433 190.684C44.4083 191.919 44.3533 193.184 44.2634 194.404L43.2635 194.444C43.1935 192.919 43.1485 191.394 43.0485 189.874C42.8685 187.24 42.6136 184.615 42.4736 181.98C42.4311 180.69 42.4612 179.398 42.5636 178.111C42.7286 175.166 42.8035 172.207 43.1635 169.282C43.5384 166.212 44.2933 163.188 44.7233 160.123C44.9883 158.183 45.4932 156.039 44.9483 154.274C43.9484 151.114 44.3433 148.07 44.7283 145C45.3632 139.906 45.9331 134.782 47.058 129.787C47.7729 126.633 49.5576 123.723 50.6675 120.648C52.1355 116.638 54.191 112.867 56.7667 109.46C60.0962 105.026 62.6209 99.9912 65.4905 95.2118C65.667 94.9292 65.8064 94.6251 65.9055 94.3069C66.6654 91.7373 63.5508 81.5936 61.4061 79.9988C53.8721 74.3446 46.688 68.3404 41.0538 60.6764C40.2398 59.6189 39.1928 58.7635 37.9942 58.1767C31.4401 54.9522 26.7857 49.7529 22.2363 44.1786C19.1567 40.4341 16.2071 36.2547 11.5627 34.06C9.19803 32.9451 6.73336 32.0602 3.93873 30.8904C4.55865 29.6556 4.8886 28.5557 5.56351 27.7358C7.84821 24.9512 8.15817 22.1016 6.31841 18.977C5.05858 16.8323 3.96873 14.5726 2.54392 12.5478C0.284218 9.34326 0.474192 5.65375 0.159234 2.06923C0.104242 1.38432 0.824146 0.634421 1.08911 0.104492H9.55798C11.6327 3.27407 13.5574 6.89359 17.4619 8.91332C18.8717 9.63822 20.0366 11.7079 20.4615 13.3727C21.8363 19.102 26.2208 22.0566 30.5652 25.0312C32.155 26.101 33.3348 27.0459 33.7747 29.1006C34.3847 31.9103 36.2344 33.965 38.4641 35.9297C41.7887 38.8543 44.6133 42.3589 47.6529 45.5984C48.3328 46.3183 48.9527 47.2932 49.8076 47.5982C55.6768 49.8929 59.3063 54.7322 63.1908 59.2516C65.9455 62.4462 69.265 64.2859 73.9494 64.076C75.1742 58.6717 71.4497 54.6822 70.1499 50.1078C68.7451 45.1635 67.1103 40.2841 65.5505 35.3798C64.0507 30.6654 62.5509 25.961 60.8961 20.8817C61.626 19.8819 62.3109 18.1571 63.5708 17.2772C67.0703 14.8375 70.7848 16.6623 71.6997 21.0067C72.1996 23.3514 71.8247 26.161 74.9193 27.1909C79.4187 25.1911 76.879 19.6919 79.9636 16.4823C82.7232 23.3714 84.423 30.3305 90.5422 35.7047L92.2869 30.7554C93.0918 31.9552 93.9017 32.8751 94.3967 33.945C96.8263 39.2043 99.086 44.5436 101.626 49.7479C102.126 50.7177 103.475 51.4476 104.595 51.8576C107.225 52.8225 110.095 53.2624 112.619 54.3973C117.174 56.427 118.778 60.1165 117.489 64.9358C116.439 68.8653 116.489 73.0498 113.784 76.6143C112.934 77.7441 113.669 80.5038 114.334 82.2685C116.089 86.9179 118.133 91.4573 120.203 95.9717C120.813 97.2965 121.963 98.3614 122.758 99.6112C123.643 100.991 125.138 102.481 125.093 103.876C124.948 107.9 127.352 110.685 128.947 113.914C129.712 115.464 130.487 117.339 130.312 118.964C129.811 122.956 130.507 127.006 132.312 130.602C135.286 136.481 138.391 142.311 141.735 147.985C142.597 149.33 142.925 150.949 142.655 152.524C141.88 158.523 143.83 163.838 147.31 168.682C147.75 169.292 148.339 170.347 148.1 170.792C146.765 173.291 149.434 173.846 150.144 175.321L146.685 184.905C142.74 178.056 142.855 169.737 137.941 163.733C131.327 167.182 130.142 172.881 129.342 178.621C127.752 189.999 128.387 201.378 129.452 212.781C129.867 217.211 129.237 221.735 129.112 226.219C128.999 227.552 129.026 228.892 129.192 230.219C130.807 238.838 132.567 247.427 134.136 256.055C134.456 257.815 134.201 259.685 134.136 261.505C134.061 263.784 133.916 266.064 133.801 268.344L133.931 268.214ZM20.3515 23.1964C16.787 27.9308 19.1917 31.6953 20.9115 35.2848C22.3163 38.1944 25.0759 39.1493 29.0154 38.3894C26.8157 32.8451 26.0958 27.0559 20.3515 23.1964Z" fill="black"/>
</g>
<defs>
<clipPath id="clip0_729_751">
<rect width="150" height="347.379" fill="white" transform="translate(0.160156 0.104492)"/>
</clipPath>
</defs>
</svg>
