<svg width="151" height="340" viewBox="0 0 151 340" fill="none" xmlns="http://www.w3.org/2000/svg">
<g clip-path="url(#clip0_729_663)">
<path d="M124.14 239.252L112.829 228.668C111.406 230.625 112.799 231.783 113.703 233.084C116.096 236.529 118.55 239.933 120.725 243.49C121.717 245.24 122.429 247.134 122.834 249.105C124.216 255.08 127.3 260.217 130.481 265.324C130.745 265.751 131.04 266.309 131.451 266.472C132.295 266.807 133.276 267.148 134.109 266.98C134.449 266.919 134.841 265.552 134.739 264.846C133.908 258.458 131.957 252.266 128.977 246.554C134.769 252.346 137.224 258.291 138.123 265.181C138.672 269.47 139.551 273.906 141.355 277.778C142.787 280.852 141.995 282.488 139.978 284.292C138.95 285.121 137.88 285.896 136.771 286.614C133.621 283.641 135.166 278.433 130.674 276.451C131.512 286.288 132.198 295.917 134.703 305.414C137.025 314.235 141.238 321.922 146.334 329.295C148.27 332.08 149.469 335.067 150.18 339.32C146.116 336.063 141.913 334.849 139.139 331.048C136.599 327.598 132.783 325.134 130.069 321.795C127.957 319.178 126.327 316.204 125.258 313.015C123.225 306.831 121.752 300.46 120.024 294.169C119.181 291.08 118.322 287.996 117.407 284.932C115.822 279.627 114.359 274.261 112.534 269.058C110.614 263.505 108.469 258.022 106.193 252.595C105.238 250.309 104.161 247.799 102.403 246.168C97.9922 242.062 94.7403 236.641 88.9529 234.039C88.1664 233.697 87.5171 233.101 87.1084 232.347C84.6441 226.86 78.877 225.742 74.5174 222.835C72.0226 221.164 69.1924 220 66.2606 218.481C64.0757 220.595 61.9365 222.927 59.5281 224.934C56.5912 227.388 55.5038 226.966 54.0049 223.409C52.8921 220.772 52.0232 217.912 50.3668 215.646C48.0904 212.541 47.3689 209.66 49.5487 206.799C46.6525 201.693 44.1272 196.937 41.2868 192.379C40.2339 190.71 38.7808 189.33 37.0593 188.365C31.1296 185.184 24.8189 182.649 20.3475 177.283C20.1502 177.006 19.8739 176.795 19.5548 176.678C13.2034 175.256 9.94641 169.616 5.13458 166.099C1.90298 163.818 0.241454 160.668 0.160156 157.548C1.72006 154.57 2.90905 152.279 4.11327 149.997C5.19555 147.965 7.25341 147.63 8.48304 149.586C12.7969 156.445 18.9349 161.45 25.3727 166.049C28.2639 168.112 31.8359 169.229 35.8907 171.16C34.7118 162.7 32.7099 155.653 30.4996 148.615C28.8889 143.483 27.6948 138.224 26.3076 133.026C26.0403 131.713 25.6717 130.422 25.205 129.165C22.0547 122.122 21.1808 114.572 20.5152 107.036C19.88 99.8262 18.9349 92.4789 19.6717 85.3501C20.4593 77.7284 20.5202 70.0254 22.3139 62.3783C24.5391 52.9897 24.9752 43.2658 23.5994 33.7157C23.325 31.8255 23.8179 29.8185 24.011 27.8673C24.0923 27.0442 24.4886 26.221 24.4429 25.4131C24.1329 20.0424 25.0577 15.0527 28.1064 11.3485C27.0901 7.7257 26.1806 4.67703 25.1593 1.14564L29.2598 0.662934C29.5951 2.72079 29.8848 4.48902 30.2404 6.63834C33.4974 5.114 36.6833 3.80815 39.6913 2.17203C45.6566 -1.07481 50.8698 -0.536212 55.7884 4.05205C56.3754 4.65927 57.038 5.18864 57.7598 5.6272C62.9477 8.41674 68.0288 11.4603 73.4097 13.8129C77.5254 15.6065 81.0314 17.8321 83.953 21.272C85.3351 22.903 87.2761 24.1073 89.0799 25.3369C93.2871 28.1772 97.0522 31.353 100.136 35.5246C102.935 39.3811 106.453 42.6594 110.497 45.1787C110.919 46.703 111.127 48.39 111.833 49.8483C114.089 54.5026 114.531 59.1315 112.748 64.0754C110.512 70.2947 101.64 74.6848 95.8378 71.5396C92.8941 69.9441 90.0148 68.2504 87.1999 66.4585C85.2132 65.1984 83.5008 63.4555 81.4328 62.358C75.2796 59.0959 71.1486 53.903 67.353 48.3138C66.6925 47.3433 65.8947 46.4642 65.1427 45.5547C61.4538 41.0732 60.8695 40.8242 54.2234 40.9461C51.6828 45.0771 49.2591 49.2385 49.9044 54.6398C50.1483 56.6722 49.1778 58.9079 48.624 61.0115C46.688 68.3334 44.4422 75.5893 42.7908 82.9772C41.1395 90.3652 40.3011 97.8954 41.6069 105.517C42.6812 111.322 43.4411 117.181 43.8833 123.067C44.1983 128.148 45.4991 132.869 46.9319 137.716C48.3648 142.564 48.2835 147.701 48.9136 152.711C49.3353 156.049 49.7062 159.397 50.3211 162.7C51.0629 166.709 53.324 169.361 57.5261 170.195C60.5392 170.799 63.2576 171.988 64.7006 175.027C66.2758 178.33 69.6649 178.843 72.5815 180.057C74.8477 181.002 77.5457 181.246 78.9786 184.305L67.3174 184.9C69.858 189.163 70.1019 189.3 85.7264 195.687C85.7924 201.129 89.9031 204.325 93.1245 208.252C99.6334 216.169 108.149 221.748 115.603 228.546C118.942 231.595 121.94 235 125.09 238.241L124.14 239.252Z" fill="black"/>
</g>
<defs>
<clipPath id="clip0_729_663">
<rect width="150" height="339.257" fill="white" transform="translate(0.160156 0.104248)"/>
</clipPath>
</defs>
</svg>
