<svg width="151" height="83" viewBox="0 0 151 83" fill="none" xmlns="http://www.w3.org/2000/svg">
<g clip-path="url(#clip0_729_483)">
<path d="M63.1139 48.9402C63.7066 47.1943 64.8348 46.9515 65.9916 47.6441C68.2053 48.9759 70.2976 50.5005 72.4398 51.9572L76.153 54.4815C77.0956 57.8519 78.156 61.3509 79.0379 64.8892C80.109 69.1951 83.0939 71.2231 87.1999 71.5944C94.5799 72.2657 100.867 69.9199 106.123 64.3501C105.587 63.6003 105.355 62.8969 104.92 62.7327C101.61 61.4652 99.3071 58.8302 96.7079 56.663C94.8609 55.0415 92.7611 53.7329 90.4918 52.7891C87.7113 51.7252 85.345 49.7981 83.7401 47.2907C82.3834 45.202 80.7731 43.2811 79.3235 41.2531C78.0953 39.5357 76.5493 38.8324 74.4071 39.1716C71.2866 39.6678 68.1339 39.9999 64.9991 40.4176C64.6428 40.4458 64.2986 40.5597 63.9958 40.7497C60.9788 42.9883 57.9261 45.1734 55.0091 47.5335C53.5523 48.7188 52.4491 50.3362 51.0495 51.6073C49.0643 53.3925 46.8578 53.1319 45.3047 51.036C45.0905 50.754 44.9477 50.4183 44.737 50.1327C43.8551 48.9331 43.0803 46.8694 42.0449 46.7301C39.792 46.4231 37.1427 46.5373 35.1255 47.4799C30.9874 49.4222 26.5958 50.9611 23.0789 54.1816C21.4829 55.6454 19.3693 56.488 16.9342 56.6808C15.2062 56.8094 13.4888 58.009 11.9107 58.9623C9.22215 60.594 6.87639 62.8648 3.69873 63.4004C-0.878536 58.4875 -0.700015 53.3854 2.48479 48.8224C5.46608 44.5379 9.46137 41.6601 13.7173 39.1823C18.4052 36.4652 23.5609 34.5407 28.4702 32.2093C30.384 31.2917 32.137 30.067 34.0365 29.0994C35.9359 28.1319 37.914 27.4535 39.8134 26.5466C41.0559 25.9539 42.4412 25.4041 43.3838 24.4579C46.0438 21.7515 48.2967 18.6131 51.1209 16.1067C53.4524 14.0287 56.3194 12.497 59.0722 10.9046C62.232 9.07302 63.2246 5.75254 60.736 3.28181C59.4292 1.98219 57.287 1.43591 55.4232 0.818232C54.3521 0.461191 53.0882 0.596867 51.4065 0.461191C55.766 -0.167201 59.5292 -0.0529478 63.2103 1.51089C64.0664 1.87251 65.0185 1.93908 65.9167 1.70012C68.6016 0.79681 70.7796 1.52517 72.9182 3.65314V0.818232C74.2 1.7394 75.4961 2.2464 76.0888 3.17827C77.4669 5.37407 79.3021 5.32052 81.3694 4.77782C82.9856 4.39539 84.5803 3.927 86.1466 3.37464C91.6665 1.30024 97.2434 1.35379 102.874 2.76768C103.681 2.9542 104.466 3.22465 105.216 3.57459C107.358 4.64571 107.644 5.35979 107.026 7.80195C106.912 8.24825 106.837 8.70526 106.762 9.07302C110.665 9.82637 114.428 10.8047 118.252 11.2153C122.247 11.6616 126.303 11.5509 130.33 11.7401C136.179 12.0186 141.552 13.5824 145.951 17.6956C146.464 18.1908 147.022 18.6367 147.618 19.0273C149.593 20.2734 151.035 21.6623 149.55 24.2115C149.324 24.6386 149.258 25.1326 149.364 25.604C150.368 29.5315 147.704 32.5127 146.722 35.9261C146.697 36.0117 146.536 36.0617 146.119 36.3581C140.492 33.9695 134.533 32.5485 128.01 35.9439C128.663 37.015 129.152 37.8969 129.698 38.7288C131.784 41.9065 133.847 45.0949 135.997 48.2261C136.993 49.6721 136.954 51.0824 136.936 52.8212C136.893 57.3342 134.497 60.6547 132.262 64.1251C131.102 65.9103 130.659 65.9103 128.849 64.8392C125.514 62.8719 123.85 59.5407 121.851 56.4702C120.965 55.1099 120.24 53.6424 119.473 52.2107C118.33 50.0684 116.877 48.3118 114.456 47.5692C114.109 47.4733 113.794 47.2873 113.542 47.03C111.518 44.6557 109.172 43.581 106.044 44.77C105.562 44.9521 104.763 44.2915 104.109 44.0202C102.463 43.3311 102.463 43.3311 99.7641 43.9845C102.263 48.269 105.955 51.0003 110.09 53.6531L111.604 51.4466L112.139 51.6144C112 52.6856 111.857 53.7817 111.675 55.2027C113.182 56.0132 114.828 56.8844 116.459 57.7805C118.348 58.8159 118.58 59.53 117.395 61.4116C116.734 62.4542 115.967 63.4325 116.752 64.6464C117.784 66.246 117.356 67.5028 116.202 68.8167C115.663 69.4431 115.255 70.1716 115.003 70.9589C114.142 73.676 112.146 75.3826 109.722 76.4109C106.801 77.6802 103.778 78.7014 100.685 79.4636C96.3294 80.4919 91.8771 81.1096 87.4748 81.9415C84.1686 82.5627 77.9275 80.0635 76.0888 77.3C75.814 76.9229 75.6152 76.4961 75.5032 76.0432C74.9498 73.0083 74.5142 69.9521 73.893 66.9315C73.4958 64.8661 72.9323 62.8363 72.2077 60.8618C71.3651 58.6517 70.0976 56.6059 69.2229 54.4065C68.0982 51.6251 65.4597 50.6647 63.1139 48.9402ZM82.4619 8.06259C83.4902 9.86565 84.7077 11.4545 86.6072 11.276C89.9812 10.9189 93.3231 10.1477 96.6365 9.37293C97.222 9.23725 97.9504 8.27324 98.0111 7.63414C98.1253 6.4452 97.1934 6.20598 96.0902 6.23097C95.294 6.23097 94.5014 5.77039 93.6873 5.67399C89.7956 5.19912 85.9538 5.05631 82.4619 8.06259ZM76.6886 12.9862C80.3982 13.6217 80.8802 13.2575 81.0516 9.88707L77.8704 8.98019C77.4419 10.4333 77.0706 11.6866 76.6886 12.9862Z" fill="black"/>
</g>
<defs>
<clipPath id="clip0_729_483">
<rect width="150" height="81.9409" fill="white" transform="translate(0.160156 0.104248)"/>
</clipPath>
</defs>
</svg>
