<svg width="151" height="61" viewBox="0 0 151 61" fill="none" xmlns="http://www.w3.org/2000/svg">
<g clip-path="url(#clip0_729_459)">
<path d="M0.160156 36.2741C1.26733 34.6077 2.61977 34.2867 3.90804 33.8443C7.58089 32.5879 11.356 31.653 15.1906 31.05C17.3614 30.7039 19.5941 30.7475 21.7695 30.4265C24.5202 30.0208 27.2343 30.4609 29.9461 30.6741C32.0458 30.8369 34.1065 31.4581 36.204 31.7331C40.4264 32.2856 44.6556 32.8174 48.8941 33.2139C51.5714 33.4615 54.1846 32.9549 56.7474 32.093C60.9125 30.6947 65.1051 29.3675 69.3022 28.0701C72.5733 27.0569 75.865 26.1216 79.159 25.1795C80.2204 24.8746 81.3069 24.6523 82.8863 24.2626C81.7012 23.0133 80.9058 22.0322 79.9682 21.2116C76.5481 18.2362 72.367 16.8081 68.0896 15.6918C65.8913 15.1141 63.5967 14.9032 61.3503 14.5043C60.9354 14.4093 60.5272 14.2868 60.1285 14.1376C62.6179 14.1376 65.1395 14.0298 67.6495 14.1674C69.9991 14.298 72.3257 14.7771 74.673 14.9491C79.2209 15.2837 82.9253 17.4201 86.3912 20.1571C87.0491 20.6775 87.6428 21.278 88.3121 21.7823C89.5981 22.7497 90.962 23.027 92.6078 22.6305C94.1626 22.272 95.7592 22.1293 97.3529 22.2064C99.6199 22.3027 100.548 23.6368 100.269 25.9062C100.039 27.8294 98.9987 29.3102 97.6921 30.6351C97.103 31.2311 96.4153 31.7308 95.8446 32.3429C94.8772 33.3721 94.2743 34.5458 94.4279 36.0472C94.5815 37.5487 94.9735 38.0575 96.4383 38.3876C98.6549 38.8873 100.833 38.6169 102.996 38.0667C103.292 37.9934 103.586 37.7687 103.863 37.7916C106.648 38.0392 106.992 36.0197 107.503 34.0323C108.984 28.2832 110.24 22.4815 110.701 16.5628C110.876 14.2947 110.673 12.0132 110.098 9.81205C109.527 7.66189 107.783 6.11231 105.91 4.86989C101.621 2.02517 96.7959 1.2137 91.7597 1.23662C91.0144 1.26987 90.2681 1.19733 89.5431 1.02115C91.4333 0.344986 93.4348 0.0338398 95.4411 0.104237C98.0257 0.143702 100.604 0.373553 103.155 0.791921C108.711 1.7776 112.202 4.51917 112.97 12.1227C113.488 17.2597 112.578 22.3073 112.253 27.3916C112.136 29.2254 111.952 31.0432 112.012 32.8632C112.049 33.9521 112.503 35.0249 112.775 36.1412H115.473C116.553 33.5647 117.736 30.9629 118.719 28.2901C119.108 27.2255 119.763 26.2783 120.622 25.5394C123.602 22.8345 126.481 20.0104 129.438 17.2872C130.256 16.5307 131.208 15.9118 132.115 15.2539C133.894 13.9687 135.678 12.6912 137.468 11.4212C138.236 10.8803 138.502 10.1651 138.467 9.25273C138.382 7.14842 139.613 5.7295 141.353 5.05556C143.357 4.32143 145.437 3.81396 147.554 3.54266C149.55 3.25612 150.534 4.4802 150.039 6.40801C149.77 7.47851 149.321 8.50316 148.964 9.52322C148.368 9.47967 148.047 9.52322 147.774 9.42694C145.612 8.67966 145.415 8.70029 143.886 10.4195C141.621 12.9662 139.4 15.5496 137.131 18.0918C135.87 19.5061 134.593 20.9136 133.234 22.2316C132.659 22.7909 131.762 23.0133 131.171 23.5634C129.839 24.8059 128.487 26.0643 127.357 27.4878C125.222 30.1813 123.32 33.0329 123.001 36.6111C122.967 36.9893 122.818 37.3767 122.864 37.7412C123.136 40.006 123.322 42.2891 123.781 44.5172C124.255 46.7957 125.245 47.0708 127.412 46.1218C129.067 45.3974 130.016 43.9923 130.928 42.6627C132.908 39.7745 135.008 36.932 137.789 34.8827C140.338 33.0122 143.471 32.3727 146.671 33.6907C148.56 34.4701 149.422 35.8226 149.516 37.8971C149.67 41.2644 147.911 43.6897 145.672 45.8421C143.815 47.6347 141.851 49.3264 139.84 50.947C137.965 52.4843 136.009 53.9213 133.981 55.2519C131.755 56.6938 129.415 57.9637 127.091 59.252C123.881 61.0239 119.627 60.6801 117.122 58.2067C114.953 56.068 113.025 53.6794 112.441 50.5207C112.321 50.0013 112.154 49.4941 111.941 49.0055C111.382 47.5568 110.458 46.9791 108.961 47.1716C108.278 47.2224 107.604 47.3516 106.951 47.5568C103.446 48.8771 99.707 48.2444 96.1173 48.8932C93.2726 49.4158 90.703 48.2972 88.2938 46.9562C86.5952 46.0095 84.8806 45.2415 82.9253 45.2691C81.7012 45.2851 81.0204 44.6524 80.8095 43.6094C80.4567 41.8991 80.2064 40.1691 80.0599 38.4289C79.959 37.2277 80.4267 36.3292 81.6645 35.7011C82.9023 35.073 83.9155 34.0162 85.1029 33.0879C83.9958 31.4626 82.5241 31.277 80.9768 31.6048C77.9969 32.2374 75.0444 32.9801 72.0851 33.6999C68.0254 34.6925 63.9543 35.6461 59.9199 36.7326C57.6735 37.3355 55.5165 38.2638 53.2723 38.8782C51.6693 39.3423 50.0192 39.6245 48.3531 39.7194C45.2081 39.8455 42.1777 39.002 39.1564 38.2203C34.0034 36.8839 28.8962 35.3091 23.6835 34.2776C18.8973 33.3309 13.9734 33.6128 9.13214 34.1217C6.81694 34.367 4.56134 35.1991 2.28052 35.763L0.160156 36.2741Z" fill="black"/>
</g>
<defs>
<clipPath id="clip0_729_459">
<rect width="150" height="60.2526" fill="white" transform="translate(0.160156 0.104248)"/>
</clipPath>
</defs>
</svg>
