<svg width="151" height="63" viewBox="0 0 151 63" fill="none" xmlns="http://www.w3.org/2000/svg">
<g clip-path="url(#clip0_729_407)">
<path d="M0.160156 19.3392C1.85324 18.1529 3.53811 16.9557 5.24216 15.7776C8.91052 13.2599 12.5022 10.6189 16.2856 8.2875C20.3731 5.77252 24.1675 2.69318 28.8002 1.12612C34.8548 -0.923122 40.3368 0.0302678 44.8572 4.68763C46.9283 6.81906 47.3612 9.76142 47.3612 12.5915C47.3993 15.3772 46.9516 18.1483 46.0379 20.7802C44.2873 25.7115 43.1421 30.8702 41.8436 35.9577C41.4929 37.3275 41.2299 38.8234 42.5312 40.3411C43.4791 39.8535 44.4489 39.4261 45.3366 38.8836C48.057 37.2399 50.7802 35.5769 53.4486 33.8455C54.9216 32.9399 56.3123 31.9067 57.6046 30.7579C60.4073 28.1361 63.5989 26.8457 67.4673 27.1142C69.9138 27.2868 72.3986 27.1142 74.8287 27.306C77.6368 27.5361 80.3874 28.0895 82.8037 29.7525C84.4174 30.8483 86.2255 31.4264 88.4446 30.9935C88.4857 30.1196 88.4446 29.2265 88.5953 28.3744C88.8227 27.1361 88.9432 25.7773 89.5569 24.7307C91.2007 21.9391 94.7129 21.5802 97.6525 23.8294C100.042 25.5983 102.341 27.4864 104.54 29.4867C105.967 30.8264 107.071 32.5168 108.255 34.1003C109.285 35.4701 110.101 37.3138 112.112 37.1467C113.951 36.9933 114.704 35.3605 115.285 33.7633C115.529 33.0893 115.967 32.4702 116.12 31.7825C116.433 30.3798 117.512 29.9031 118.657 29.5908C119.802 29.2785 121.008 28.9635 121.731 30.4319C121.829 30.5802 121.958 30.7058 122.109 30.8003C122.26 30.8948 122.429 30.956 122.605 30.9798C123.257 31.0319 123.999 30.7305 124.567 30.9442C125.178 31.1771 125.632 31.8318 126.268 32.4044C126.079 32.903 125.849 33.5003 125.369 34.766L127.638 33.177C130.103 34.6126 128.408 37.7029 130.035 39.4288C132.375 39.1877 134.706 38.9467 137.029 38.7056C137.212 38.7145 137.394 38.6768 137.558 38.596C140.752 36.07 144.864 37.5001 148.325 36.1029C148.768 35.9248 149.349 36.0783 150.152 36.0783C148.837 39.5028 148.733 43.0205 146.396 45.8067C145.511 46.8614 144.908 47.1628 143.703 46.4094C139.689 43.8944 135.336 44.5547 131.002 45.1985C130.288 45.2841 129.587 45.4561 128.914 45.7108C128.221 45.9848 127.391 46.3162 126.997 46.8834C126.093 48.1408 125.013 48.7408 123.473 49.0586C117.89 50.2093 113.852 53.5352 110.962 58.3733C110.367 59.3733 109.529 60.2308 108.8 61.1513C107.978 62.1787 106.904 62.4883 105.636 62.3348C104.743 62.228 103.844 62.1732 102.945 62.0938L100.732 59.0062C98.636 58.4254 96.7402 61.3595 94.3978 58.9761L100.296 55.6721C100.022 52.4503 100.611 49.3271 101.6 46.2149C102.367 43.8095 100.841 40.5548 98.5867 39.0727C97.4908 38.3439 96.6032 38.8343 96.0197 39.7439C94.5567 42.0342 93.0937 44.3382 91.8253 46.7382C90.987 48.3299 90.5021 50.1079 89.0336 51.3462C87.1789 51.0531 86.02 50.212 85.6885 48.2723C85.5625 47.5135 85.0228 46.8012 84.5927 46.119C83.7187 44.7492 82.6914 43.4506 81.9106 42.026C80.6339 39.7028 78.2614 39.1138 76.1108 38.2946C70.5055 36.1632 65.2317 37.1193 60.0292 39.985C54.6431 42.9492 49.0296 45.4998 43.5449 48.2888C41.7038 49.223 39.956 50.3325 37.8574 51.5407C36.2136 49.2038 34.0219 47.0916 34.5397 43.5602C35.1233 39.574 36.1835 35.7468 37.304 31.8839C38.219 28.7087 39.5697 25.7773 40.7998 22.7637C41.9352 20.0855 42.9068 17.3408 43.7093 14.5448C44.7257 10.8217 42.8271 7.36973 39.2464 5.94786C33.7507 3.76986 28.4084 4.62462 23.0826 6.70674C19.7951 7.99162 16.5678 9.34226 13.6336 11.334C10.6995 13.3257 7.77084 15.3009 4.81752 17.2625C3.42305 18.1858 2.0094 19.0953 0.601236 20.0104C0.453296 19.7857 0.308096 19.5556 0.160156 19.3392ZM124.728 44.3602C122.449 44.1793 122.449 44.1793 122.602 45.919L124.728 44.3602Z" fill="black"/>
</g>
<defs>
<clipPath id="clip0_729_407">
<rect width="150" height="62.2881" fill="white" transform="translate(0.160156 0.104248)"/>
</clipPath>
</defs>
</svg>
