<svg width="151" height="69" viewBox="0 0 151 69" fill="none" xmlns="http://www.w3.org/2000/svg">
<g clip-path="url(#clip0_729_679)">
<path d="M90.5129 12.8657C95.9402 13.5543 100.43 16.2082 104.3 19.7007C106.973 22.1227 109.057 25.1912 111.313 28.0442C111.915 28.8054 112.086 29.8946 112.629 30.7191C113.822 32.5227 115.155 34.2327 116.377 36.0199C117.384 37.4909 118.352 38.9923 119.265 40.5242C120.118 41.9578 121.123 43.0095 122.779 43.7028C126.808 45.356 130.557 47.6221 133.893 50.4207C134.709 51.1117 135.788 51.4818 136.716 52.0604C139.225 53.5969 141.97 54.8712 144.132 56.806C145.814 58.3028 146.769 60.617 148.025 62.5846C148.526 63.3693 148.931 64.2242 149.43 64.9925C150.269 66.2644 150.29 66.2504 149.943 68.5412C149.365 68.1149 148.772 67.8736 148.496 67.4333C147.664 66.1051 146.877 64.7794 145.216 64.3296C145.072 64.2713 144.953 64.1644 144.879 64.0275C143.392 61.5493 140.808 60.5139 138.496 59.1085C137.257 58.3496 136.02 58.1036 134.718 58.6237C132.905 59.3428 131.387 58.9727 129.965 57.7242C126.887 55.0211 123.746 52.3859 120.711 49.6337C119.071 48.1556 117.017 47.7293 115.073 47.0571C113.199 46.4106 111.344 46.7573 109.418 47.556C106.933 48.5866 104.305 48.329 101.805 47.1297C101.065 46.7737 100.065 46.3356 99.3998 46.5628C97.1699 47.3241 95.1297 46.5277 93.0263 46.1717C92.7241 46.1201 92.3844 45.8882 92.1338 45.9679C88.9412 46.9845 86.3622 45.4362 83.9356 43.8223C80.0355 41.2246 76.0535 38.9174 71.603 37.348C70.549 36.9756 69.6027 36.1581 68.7524 35.3851C66.67 33.4972 64.4799 31.902 61.7253 31.0096C60.1559 30.4989 58.8606 29.1357 56.8204 29.5409C56.6939 30.1452 56.3519 30.8362 56.4527 31.4617C56.811 33.8204 56.0685 36.041 55.7265 38.3013C55.2089 41.7423 51.864 44.2205 48.3434 44.5039C46.1114 44.6839 43.8658 44.4212 41.7356 43.7309C40.8133 43.4144 39.8366 43.287 38.8639 43.3562C36.4021 43.6326 34.917 41.9086 33.1204 40.81C32.9237 40.6882 32.7691 40.4376 32.5653 40.3978C30.4173 39.9761 28.9791 38.4255 27.309 37.2145C24.9311 35.4503 22.8445 33.3241 21.1252 30.9135C19.4293 28.5993 15.1639 27.838 12.8778 29.8806C11.8986 30.7566 10.7181 31.4265 9.82097 32.3752C7.94708 34.3498 7.27717 36.7671 7.64492 39.4702C7.71519 39.9902 7.75267 40.5149 7.8206 41.1801L5.91626 41.3956C4.38436 43.0634 6.78059 44.4219 6.25824 46.1623C5.50869 46.5183 4.98868 46.2864 4.51553 45.4596C3.90612 44.4009 3.23424 43.3794 2.50344 42.4005C0.0345946 39.0486 -0.743069 35.261 1.44938 32.0051C1.57476 31.8078 1.67619 31.5963 1.75154 31.375C2.73768 28.6508 4.54129 26.6622 6.82978 24.889C9.36187 22.9261 11.9572 21.9212 15.199 22.2445C16.9417 22.4178 18.7735 22.1039 20.5185 21.776C22.2636 21.4481 23.4933 22.1976 24.7348 23.1814C26.7133 24.7555 28.7215 26.2929 30.7593 27.7935C32.2653 28.9349 33.8289 29.9982 35.444 30.9791C37.2102 32.0145 38.9388 33.366 41.3749 32.7101C41.4475 32.2182 41.6091 31.6959 41.5834 31.1853C41.3234 26.5404 41.0563 21.8955 40.7261 17.2576C40.6773 16.593 40.7999 15.9271 41.0821 15.3234C41.3642 14.7197 41.7965 14.1985 42.3376 13.8096C43.4643 12.957 44.9142 12.444 46.2751 12.0013C50.3204 10.692 54.4101 11.4485 58.4765 11.9451C61.1702 12.273 63.8475 12.7298 66.5435 13.0437C69.3052 13.3693 71.0502 11.835 70.9448 9.06168C70.8441 6.38202 72.6454 4.84543 74.1773 3.13082C76.5595 0.474586 79.7708 -0.0126243 83.0665 0.125575C84.3101 0.22231 85.5052 0.649265 86.5286 1.36234C88.3134 2.58739 90.3279 3.59461 91.1641 5.92057C91.6935 7.38923 91.9113 8.7314 91.3655 10.1907C91.0446 11.0503 90.8104 11.9404 90.5129 12.8657ZM115.787 41.508C115.892 41.3417 115.995 41.1754 116.101 41.0115C115.225 39.7677 114.335 38.5356 113.477 37.2824C111.243 34.0172 109.081 30.691 106.216 27.9341C105.218 26.976 103.979 26.2686 102.981 25.3106C99.2921 21.769 94.9306 19.6163 89.8219 18.752C89.2199 20.4479 90.185 21.8955 90.5434 23.4367C90.7495 24.3151 90.9837 25.2544 90.8807 26.1281C90.6019 28.5079 89.1028 30.1663 87.2617 31.539C86.5332 32.0824 85.7485 32.5509 84.903 33.1107C85.2356 33.6963 85.3714 34.1952 85.6923 34.4505C87.0345 35.5093 88.4142 36.5235 89.8172 37.4956C91.403 38.5965 93.2043 39.0064 95.118 39.0251C95.7935 39.0507 96.467 39.1164 97.1348 39.2219C98.6737 39.4257 100.217 39.8824 101.742 39.8168C105.764 39.6412 109.631 40.4469 113.52 41.2363C114.269 41.3909 115.033 41.4214 115.787 41.508Z" fill="black"/>
</g>
<defs>
<clipPath id="clip0_729_679">
<rect width="150" height="68.4273" fill="white" transform="translate(0.160156 0.104492)"/>
</clipPath>
</defs>
</svg>
