<svg width="151" height="63" viewBox="0 0 151 63" fill="none" xmlns="http://www.w3.org/2000/svg">
<g clip-path="url(#clip0_729_335)">
<path d="M131.313 36.4997C132.023 32.9555 132.725 29.4113 133.488 25.6158C120.039 21.621 107.786 23.7701 95.7321 28.2155C88.7303 30.8151 81.8673 33.6487 74.8395 36.2311C64.3651 40.1769 54.1131 44.6896 44.129 49.7493C30.5501 56.4824 16.7893 64.3507 0.160156 62.089C1.82393 60.6938 3.3404 58.9694 5.22948 57.9035C14.025 52.9642 23.4097 49.082 31.5206 43.3108C44.077 34.368 58.3144 28.8567 71.7286 21.6903C84.1116 15.0699 96.668 8.27613 109.909 3.88272C119.744 0.624485 130.784 0.38185 141.313 0.104554C148.6 -0.0860873 151.711 5.86712 149.38 12.7475C149.111 13.8731 148.654 14.9453 148.028 15.9191C142.448 22.7735 136.763 29.55 131.122 36.3524L131.313 36.4997Z" fill="black"/>
</g>
<defs>
<clipPath id="clip0_729_335">
<rect width="150" height="62.383" fill="white" transform="translate(0.160156 0.104492)"/>
</clipPath>
</defs>
</svg>
