<svg width="151" height="198" viewBox="0 0 151 198" fill="none" xmlns="http://www.w3.org/2000/svg">
<g clip-path="url(#clip0_729_695)">
<path d="M55.6605 25.5848C55.1553 27.7194 54.7426 29.911 54.1272 32.0313C52.6776 36.9259 52.5268 42.1135 53.6896 47.084C54.6573 51.3248 55.5858 55.5727 55.3901 60.034C55.3048 62.0015 56.4361 64.0151 56.9662 66.0181C57.1974 66.6875 57.2941 67.396 57.2508 68.1029C56.493 73.0837 58.3466 77.3174 60.9508 81.3803C61.762 82.6468 61.9434 84.3759 62.8933 85.4823C66.8068 90.0397 70.9089 94.4513 76.5087 97.0235C77.4479 97.454 78.5686 97.5679 79.6181 97.6675C84.0952 98.1127 88.6143 97.5035 92.8136 95.8886C95.087 95.0134 97.492 94.4833 100.071 93.7291C99.0325 90.7548 97.8763 88.236 97.3141 85.5855C96.8908 83.5861 97.4992 81.3803 97.179 79.3417C96.3038 73.7704 96.8232 68.0567 95.3681 62.5493C95.1894 61.7422 95.1581 60.9093 95.2756 60.091C95.6923 56.7941 95.2575 53.4454 94.0126 50.3642C93.9059 50.1009 94.1229 49.706 94.2012 49.2969C95.6242 51.3426 95.7203 51.7873 96.3002 55.5834C96.7271 58.3726 97.3675 61.1298 97.8763 63.9084C97.9972 64.5844 97.8549 65.3066 97.9545 65.9896C98.0941 67.2398 98.332 68.4769 98.6661 69.6897C99.1215 71.1376 100.054 72.4682 100.32 73.934C101.174 78.591 103.754 82.0064 107.738 84.8597C108.275 81.9637 108.471 79.3417 106.863 76.7446C106.031 75.3317 105.4 73.8098 104.988 72.2228C103.423 66.6727 102.028 61.0765 100.466 55.5264C98.9685 50.2148 96.9442 45.0276 97.5205 39.3211C97.6023 38.5242 96.937 37.5885 96.4532 36.8307C95.2365 34.8562 93.9308 32.9172 92.5682 30.8573L91.5329 32.1238L87.7724 29.0358C83.2541 28.9255 81.3045 33.0311 77.6222 34.5751L80.415 29.9501C79.6786 28.527 78.6362 28.527 77.455 29.2385C76.4446 29.854 75.5552 30.7861 74.4737 31.1277C71.5315 32.0563 70.0123 33.7141 71.0263 36.9588C68.4932 36.603 68.084 36.08 68.7493 34.3545C69.5249 32.348 70.5602 30.6545 72.6343 29.5943C74.7085 28.5341 76.4624 27.0612 78.4156 25.8587C79.8672 24.9622 81.4397 24.8697 83.1723 25.1116C86.4596 25.5706 86.8794 25.1401 87.6479 21.2586L89.4765 24.2969C90.7466 24.4605 91.9918 24.8128 93.2157 24.7345C95.1404 24.6135 96.2219 25.5421 97.5276 26.83C98.5949 27.8724 100.434 28.3029 102.007 28.5875C103.974 28.9433 106.027 28.7867 108.023 29.0144C109.239 29.1933 110.418 29.5657 111.517 30.1173C105.824 30.9569 100.37 29.4734 94.621 28.7476C94.8344 31.8108 97.1896 31.4123 98.9293 32.2128C98.8973 32.7287 98.8618 33.3584 98.8333 33.8956C100.968 35.4147 103.053 36.9018 105.145 38.3854C106.924 39.6377 108.375 40.9256 108.645 43.4089C108.813 44.9209 110.286 46.2551 110.748 47.7813C111.913 51.7975 112.85 55.8764 113.555 59.9985C114.245 63.791 115.053 67.5942 115.889 71.3831C116.693 75.0298 117.942 78.5946 119.258 82.0989C119.817 83.5896 120.98 84.8846 121.994 86.1725C122.866 87.279 122.933 88.3676 122.88 89.7587C122.802 91.8293 123.218 93.9461 123.648 95.9989C123.976 97.4856 124.487 98.9257 125.171 100.286C126.683 103.338 127.636 106.398 126.299 109.781C126.192 110.048 126.445 110.457 126.591 111.052C124.168 110.749 123.364 112.172 123.581 114.204C123.776 116.05 124.022 117.975 124.723 119.665C125.719 122.052 126.857 124.091 124.221 126.289C123.51 126.88 123.36 128.78 123.684 129.868C125.107 134.703 126.53 139.542 128.209 144.316C130.892 151.905 136.207 157.935 139.302 165.211C141.334 169.985 143.571 174.674 145.774 179.367C146.88 181.722 148.104 184.02 149.331 186.308C150.118 187.631 150.348 189.212 149.972 190.705C149.502 192.694 149.506 194.796 148.737 197.063C147.72 195.426 146.724 193.772 145.681 192.149C143.2 188.298 140.71 184.451 138.21 180.608C135.061 175.763 131.593 171.088 128.839 166.022C126.587 161.877 124.214 157.882 121.553 153.979C118.212 149.001 115.125 143.859 112.303 138.57C111.282 136.692 109.752 135.539 108.361 134.145C107.994 133.875 107.541 133.748 107.087 133.789C100.484 134.059 95.9053 130.84 92.6749 125.382C91.1095 122.742 89.4303 120.117 90.679 116.747C90.8534 116.281 90.1916 115.168 89.6331 114.844C88.7436 114.332 87.5554 113.859 86.6019 114.019C80.3439 115.086 74.6089 112.642 68.6782 111.546C68.2228 111.464 67.771 111.358 67.2017 111.237C65.4869 113.058 63.5907 114.623 64.8963 117.64C65.2272 118.409 64.7647 119.775 64.2631 120.615C62.4308 123.689 57.8876 124.706 54.6964 122.938C53.3587 122.201 51.9498 121.597 50.6335 120.825C48.3423 119.48 48.0221 118.135 49.5342 115.894C50.9039 113.859 52.1455 111.888 52.8713 109.419C53.6469 106.804 53.0705 104.559 52.4977 102.207C52.3341 101.538 51.5371 101.008 50.9999 100.428C48.9329 98.2331 46.7556 96.1305 44.8166 93.8251C43.7742 92.5835 42.7994 92.1352 41.1735 92.3843C36.5272 93.0958 32.5817 95.081 29.7604 98.8059C25.5766 104.345 14.3911 106.7 8.87313 103.99C7.70583 103.454 6.45806 103.115 5.18023 102.986C2.43724 102.67 0.964353 100.912 0.363101 98.5284C-0.34844 95.7427 0.832718 93.3377 3.03138 91.6407C4.41177 90.5734 6.09812 89.8832 7.69553 89.1254C7.94581 89.0003 8.21853 88.9265 8.49771 88.9082C8.77689 88.8898 9.05693 88.9274 9.3214 89.0187C11.6304 90.207 13.6191 88.9938 15.2984 87.898C19.4039 85.219 23.289 82.2057 27.2594 79.3097C27.4479 79.1745 27.5902 78.8899 27.7823 78.8614C31.7421 78.2922 35.1077 75.3784 39.3449 75.9156C41.1985 76.1505 42.4187 75.3962 43.4896 73.8451C44.5605 72.2939 44.6637 70.9989 43.4647 69.6861C41.5364 67.5728 40.8 65.2034 40.7929 62.311C40.7929 60.1372 39.7967 57.9848 39.4018 55.7968C39.0745 53.9788 38.6547 52.0861 38.8361 50.2824C39.2986 45.6147 40.5581 41.0323 40.1347 36.2615C40.0709 35.0799 40.3594 33.9061 40.9636 32.8888C42.5539 30.2418 43.052 27.3494 43.0164 24.4001C42.9915 22.3402 43.728 21.0416 45.4677 20.1308C47.026 19.3161 47.7019 18.0175 48.2605 16.2956C48.7479 14.7836 50.2421 13.5099 51.5016 12.3572C52.7076 11.2543 54.3477 10.6175 55.4898 9.46126C56.5506 8.38383 57.3555 7.08159 57.845 5.65096C59.3712 0.944113 60.0009 0.37488 65.1418 0.161418C67.0096 0.0831481 68.7529 -0.0698333 70.6029 0.990363C73.876 2.87595 75.203 5.39836 73.2747 8.46155C69.7526 14.0329 69.5391 20.5755 67.4757 26.5667C66.2411 30.1636 65.7146 33.8991 66.9136 37.7237C67.2302 38.7412 67.3761 40.1571 65.8178 40.7122C64.3591 41.2316 63.4555 40.239 62.904 39.2677C61.7841 37.202 60.7711 35.08 59.8693 32.9101C58.802 30.4695 57.8378 27.9898 56.8275 25.5243L55.6605 25.5848Z" fill="black"/>
</g>
<defs>
<clipPath id="clip0_729_695">
<rect width="150" height="196.947" fill="white" transform="translate(0.160156 0.104492)"/>
</clipPath>
</defs>
</svg>
