<svg width="151" height="146" viewBox="0 0 151 146" fill="none" xmlns="http://www.w3.org/2000/svg">
<g clip-path="url(#clip0_729_806)">
<path d="M83.6157 137.953C83.994 139.661 84.1566 141.251 82.1377 142.177C81.6736 142.389 81.443 143.096 81.0735 143.551C79.0605 146.031 74.866 145.378 73.4797 142.517C72.5072 140.521 71.1918 138.689 70.0242 136.788C68.8566 134.887 67.6594 132.969 66.5007 131.053C66.2051 130.551 66.0455 129.904 65.6346 129.522C63.6511 127.684 63.122 125.141 62.2352 122.777C62.0343 122.237 61.8044 121.708 61.5465 121.192C59.3196 116.835 57.5371 112.265 56.2258 107.551C55.2976 104.181 53.5122 102.324 50.0183 101.319C44.2955 99.67 38.7649 97.3614 33.1457 95.3513C30.7543 94.4971 28.3836 93.563 25.7351 93.9473C25.0907 94.0389 24.3931 93.6842 23.7132 93.6162C21.4696 93.3975 19.2202 93.2526 16.9766 93.0073C13.2787 92.6023 9.53941 92.3599 5.90358 91.6298C3.6541 91.1805 1.49329 90.0484 0.160156 87.8491C0.455752 87.7279 0.656757 87.5535 0.751347 87.6008C5.73213 90.1784 10.9849 89.67 16.2938 89.1497C18.895 88.8955 21.5465 89.1704 24.1743 89.1497C25.4336 89.1497 26.7342 89.1852 27.9432 88.8985C29.3207 88.5674 29.7168 87.6186 28.9275 86.4687C28.1594 85.3426 27.2047 84.356 26.1046 83.5512C23.9645 82.0052 21.6706 80.6868 19.4714 79.2029C18.6083 78.6118 17.8752 77.8462 17.0682 77.1338C18.6763 73.8142 21.2066 71.9963 24.198 70.542C26.2672 69.5281 28.1353 68.059 30.1927 66.9948C32.9654 65.5523 35.7913 64.1867 38.6822 63.0102C40.1365 62.419 42.4185 63.6014 42.9181 65.2538C43.5625 67.3584 44.9872 67.7368 46.7608 67.4885C49.9444 67.0451 53.2639 66.8973 56.2435 65.8391C58.5166 65.0351 60.6774 64.302 63.0895 64.1512C63.7428 64.1098 64.3694 63.6753 65.0197 63.4536C66.48 62.957 67.018 61.9313 66.7046 60.4651C65.4868 54.7276 67.9402 50.2671 71.4017 45.981C73.5447 43.3206 75.2917 40.344 77.1007 37.4353C78.1435 35.7828 79.67 34.4916 81.4726 33.7374C84.5113 32.3895 87.5678 31.077 90.7011 29.9774C92.8944 29.2148 94.198 28.0265 94.5143 25.6528C94.7202 24.3946 95.1253 23.1773 95.7144 22.0466C96.3558 20.746 96.3056 19.5695 95.5666 18.4137C94.0059 15.9337 92.2825 13.5482 90.8518 11.0002C90.0656 9.59905 88.9009 8.88666 87.6446 8.10038C86.5155 7.39686 85.5134 6.48347 84.6473 5.80951C84.8779 3.50978 86.2997 2.5284 87.7392 2.12048C91.7534 0.98835 95.7203 -0.566483 100.095 0.379423C102.755 0.970614 103.719 1.66231 103.837 4.34336C104 7.97032 103.997 11.6032 104.059 15.2331C104.025 15.6265 104.025 16.0221 104.059 16.4155C104.81 20.2287 103.763 20.4385 108.582 20.9883C113.876 21.5795 118.945 26.1701 119.655 32.1057C120.604 40.0158 125.774 48.0028 135.617 49.3626C139.853 49.9538 141.753 52.9097 142.711 56.6549C143.063 58.0087 143.415 59.1202 144.541 60.1577C146.181 61.6682 147.452 63.5866 148.865 65.3454C150.562 67.456 150.471 68.0058 149.205 70.338C147.382 73.7019 144.328 75.1562 140.864 75.6588C135.904 76.3771 131.34 75.0173 127.24 72.1116C124.848 70.4238 122.472 68.7152 120.039 67.0865C118.824 66.2736 117.532 65.975 116.279 67.1663C115.182 68.2097 114.63 70.1223 115.392 71.4968C115.992 72.4851 116.771 73.3532 117.689 74.0566C118.416 74.6478 119.409 74.8961 120.228 75.3898C121.348 76.0667 122.903 76.2766 122.956 78.1152C123.016 80.1843 122.516 82.1205 120.887 83.4152C116.938 86.5899 112.46 88.7802 107.382 89.3271C105.429 89.4881 103.464 89.3141 101.57 88.8128C95.7883 87.3969 90.0183 85.91 84.3192 84.1985C80.4764 83.0457 76.7874 81.3785 72.9742 80.1075C69.2172 78.8512 68.762 79.1586 66.9914 83.3856C67.1983 83.5039 67.553 83.6812 67.8782 83.897C70.0449 85.4282 69.9828 85.7179 67.8516 87.1959C65.7203 88.6738 63.929 90.4917 63.4354 93.2142C63.0688 95.242 62.5308 97.2579 62.386 99.3005C62.1732 102.236 63.0599 103.075 66.5243 103.593C66.4179 102.706 66.3174 101.902 66.208 101.006C66.344 100.832 66.4741 100.521 66.7046 100.391C68.6408 99.3123 70.6656 99.0906 72.4244 100.575C73.215 101.271 74.1427 101.794 75.1476 102.11C76.1526 102.426 77.2126 102.528 78.2595 102.41C78.2595 104.065 77.1658 104.932 76.0987 105.662C74.8099 106.549 74.6384 107.633 75.0286 109.28C75.9154 109.398 76.8584 109.534 77.8043 109.649C78.9866 109.794 79.9858 110.116 80.7602 111.237C82.3328 113.471 82.4215 113.403 85.1291 112.339C85.5696 112.165 86.0455 112.082 86.5628 111.937C87.1953 113.229 86.1962 113.853 85.6316 114.512C85.067 115.171 84.0916 115.493 84.7241 116.676C84.7892 116.8 84.0118 117.684 83.6216 117.69C80.84 117.722 78.49 116.451 76.4327 114.751C75.942 114.349 76.1371 113.128 75.9716 112.115C74.0857 112.446 73.6068 114.269 72.5929 115.071C71.5081 114.021 70.438 113.022 69.4093 111.976C68.5876 111.142 67.8545 110.22 67.018 109.407C66.2524 108.665 65.475 107.87 64.5586 107.358C63.2255 106.616 62.2175 107.261 62.4037 108.836C62.7496 111.751 63.0895 114.713 63.8994 117.521C65.0818 121.624 66.4179 125.724 68.1797 129.602C69.5364 132.588 71.6027 135.26 73.4738 137.985C73.7694 138.402 74.7094 138.544 75.3301 138.496C76.1106 138.412 76.8649 138.166 77.5441 137.772C80.5119 136.17 80.5829 136.146 83.6157 137.953ZM31.1031 87.4501C31.3396 89.936 32.5545 91.2041 33.9733 91.8426C36.7842 93.158 39.7153 94.1994 42.7259 94.9523C45.7698 95.6329 48.8744 96.0052 51.9928 96.0637C54.5261 96.1347 55.0611 95.3543 54.8986 92.7974C54.804 91.2485 54.4404 89.7143 54.1566 88.1802C53.9024 86.8027 53.592 85.4341 53.19 83.5186C53.0836 83.8142 53.1013 83.4566 53.2935 83.2851C54.9133 81.8397 54.7212 80.069 53.926 78.4285C53.1782 76.8796 51.4903 77.1988 50.0508 76.9505C46.208 76.2795 42.2027 77.3171 38.4132 75.8982C37.4318 75.5317 36.4829 75.8598 35.9006 76.8855C35.3597 77.8373 34.7182 78.7655 35.605 79.8414C37.3313 81.9372 38.0792 84.6892 40.4558 86.4096C41.7268 87.3289 42.5249 88.9635 43.3703 90.3794C43.6837 90.9056 43.5093 91.7244 43.6038 93.09L31.1031 87.4501ZM89.5749 58.8128C90.9671 58.6857 92.7052 58.5172 93.5033 56.9919C94.3014 55.4666 92.8087 54.5089 92.0254 53.4211C91.8576 53.1792 91.6686 52.9527 91.4608 52.7442C89.8261 51.1391 88.6763 51.2337 87.4052 53.1019C87.1477 53.5212 86.9234 53.96 86.7342 54.4143C85.543 56.9594 86.6248 58.7625 89.5749 58.8128ZM106.424 55.0469C108.472 55.5464 107.985 54.1187 108.115 53.0989C107.541 53.7472 106.974 54.3966 106.412 55.0469H106.424ZM138.363 72.487L139.066 73.1462C139.392 72.6851 139.726 72.2239 140.027 71.748C140.027 71.7303 139.684 71.414 139.646 71.4524C139.191 71.7599 138.774 72.1234 138.351 72.4781L138.363 72.487Z" fill="black"/>
<path d="M52.5875 135.097C56.4805 136.037 59.9331 138 63.8822 136.646C64.6567 138.151 64.2754 139.451 64.1276 141.021C61.7214 140.187 60.0809 141.021 59.0758 143.362C58.263 143.028 57.5269 142.824 56.8943 142.446C55.4903 141.606 54.2044 140.554 52.756 139.818C50.6011 138.718 50.3912 138.34 51.6505 136.345C51.9047 135.94 52.2239 135.573 52.5875 135.097Z" fill="black"/>
<path d="M48.1137 125.511C48.3029 126.194 48.4093 126.563 48.5098 126.933C48.2596 126.764 48.0269 126.571 47.8152 126.356C47.7501 126.294 47.9157 126.052 48.1137 125.511Z" fill="black"/>
</g>
<defs>
<clipPath id="clip0_729_806">
<rect width="150" height="144.981" fill="white" transform="translate(0.160156 0.104492)"/>
</clipPath>
</defs>
</svg>
