<svg width="151" height="418" viewBox="0 0 151 418" fill="none" xmlns="http://www.w3.org/2000/svg">
<g clip-path="url(#clip0_729_347)">
<path d="M149.143 319.769C151.774 339.521 149.897 358.133 136.074 375.166C126.093 387.445 116.445 399.286 102.745 407.916C83.4487 420.09 64.8894 420.757 45.9267 408.285C43.0682 406.382 40.6271 403.917 38.7521 401.04C22.6137 375.499 7.89609 349.186 10.387 317.611C11.4571 304.051 15.3338 290.544 19.386 277.458C24.3828 261.968 25.8159 245.55 23.5785 229.429C20.0701 204.431 19.9298 178.996 18.0703 153.788C16.8424 137.229 15.8425 120.599 13.4568 104.198C9.52748 77.0078 3.80885 50.0812 3.56327 22.4002C3.4931 15.6115 1.45825 8.87546 0.160156 1.05181C2.28272 0.77114 5.54549 -0.439244 6.15945 0.385221C13.4744 9.96305 21.3507 18.8918 23.7013 31.6973C28.7182 58.396 35.2789 84.7964 40.8221 111.39C43.541 124.388 45.2601 137.58 47.7335 150.613C48.33 153.823 50.1192 156.806 51.2419 159.893C52.2242 162.401 54.5047 165.331 53.8907 167.366C48.3124 185.978 57.2412 200.695 65.0648 216.483C72.0816 230.411 79.3088 244.918 82.2558 259.986C85.7642 277.932 98.4294 289.123 107.463 302.981C109.218 305.578 114.708 306.49 118.567 306.683C130.033 307.085 140.936 311.751 149.143 319.769Z" fill="black"/>
</g>
<defs>
<clipPath id="clip0_729_347">
<rect width="150" height="417.249" fill="white" transform="translate(0.160156 0.104492)"/>
</clipPath>
</defs>
</svg>
