<svg width="151" height="93" viewBox="0 0 151 93" fill="none" xmlns="http://www.w3.org/2000/svg">
<g clip-path="url(#clip0_729_643)">
<path d="M150.159 75.4586L147.64 73.8295C147.29 74.5616 146.978 75.3116 146.707 76.0765C146.534 76.82 146.407 77.5733 146.326 78.3322L148.79 78.9113C148.163 80.9207 146.733 81.8584 145.238 83.1418C141.69 86.1883 137.355 86.6896 133.319 88.1199C132.092 88.552 130.489 88.3014 129.149 87.9816C125.2 87.0396 121.298 85.8988 117.37 84.8574C116.832 84.7557 116.287 84.6922 115.74 84.6672C113.766 91.2399 112.629 91.9356 105.624 92.264C102.405 92.4153 99.4925 92.2943 96.6577 90.4404C95.0243 89.3731 92.8982 89.0836 91.0098 88.4008C88.5813 87.5366 86.1959 86.6248 84.6057 84.3258C84.1217 83.6258 83.0544 83.306 82.229 82.8653C81.7278 82.6017 81.045 82.5757 80.6604 82.2127C75.315 77.1309 68.9065 79.6891 62.9432 80.0003C59.5423 80.1774 56.2668 82.1609 52.8357 82.6924C48.4281 83.4607 43.8902 82.6983 39.9756 80.5318C37.9187 79.3693 36.2723 77.5069 34.4012 75.9944C33.3696 75.0701 32.2443 74.2562 31.0436 73.5659C27.2452 71.6645 26.0006 69.6378 26.5235 65.3857C26.8346 62.8318 27.0723 60.2002 27.8458 57.776C29.6737 52.02 29.2848 46.1733 29.0039 40.318C28.8656 37.44 28.6712 37.4746 25.7025 37.1894C20.0373 36.6493 14.4196 36.0054 9.38102 32.9978C-0.622726 27.0301 -3.27599 15.2287 5.34495 6.62505C9.61005 2.39021 14.9295 -1.85328 22.0726 1.07222C22.479 1.22469 22.9225 1.24882 23.343 1.14136C27.431 0.104254 30.2182 2.69702 32.7937 4.97865C36.5013 8.26714 41.0041 9.56352 45.5025 10.7087C49.7287 11.7717 54.1753 11.9013 58.5484 12.4717C59.1059 12.5409 59.7973 12.6489 60.1516 13.0076C63.7037 16.6677 68.4096 16.8967 73.0117 17.3807C76.7108 17.7783 80.453 17.8776 84.1174 18.474C90.8586 19.5716 97.9023 18.9752 104.311 21.9656C105.322 22.4366 106.307 22.9681 107.336 23.4348C109.496 24.433 111.657 25.4701 113.887 26.3776C117.568 27.8944 121.069 29.6401 123.705 32.7644C124.668 33.9096 125.787 34.9251 126.729 36.0875C129.798 39.7995 132.87 43.5158 135.847 47.2925C137.74 49.6779 139.499 52.1669 141.305 54.6387C144.438 58.8908 147.925 62.9658 149.036 68.3458C149.503 70.5151 149.745 72.7448 150.159 75.4586ZM79.8869 60.0792C79.3511 61.2286 78.5041 62.2398 78.7418 62.6719C79.9992 64.9752 81.2524 67.3951 83.063 69.2662C85.0595 71.3577 87.5485 73.0128 89.9771 74.6419C91.5846 75.7265 93.3001 76.9667 95.6898 76.1759C96.0182 74.8579 95.9707 73.5054 97.5739 72.4164C98.6801 71.6688 99.3024 68.8643 98.8486 67.4124C97.0856 62.0151 96.2861 56.3931 95.2015 50.9051C94.3372 46.5579 93.8619 42.3231 91.2605 38.6284C91.0793 38.4202 90.8765 38.2319 90.6555 38.0666C84.6057 36.6233 81.6456 39.5488 83.5297 44.877L77.2207 46.5623C76.4472 45.6721 75.7385 44.5226 74.7359 43.7664C71.9787 41.7611 69.683 39.1884 68.0034 36.2214C66.2749 33.149 64.2352 29.6747 59.9442 29.2253C58.0126 29.0265 56.0551 28.858 54.1494 28.6765C53.2592 25.7683 52.49 25.5911 49.396 27.7172C49.9189 28.8234 50.4504 29.9642 51.0554 31.2606C47.0366 33.7497 50.1306 37.4833 49.141 40.4952C53.821 42.1546 51.8418 45.9832 52.4166 49.2674L56.5131 46.9901C56.6687 48.2432 56.8113 49.3711 56.9453 50.352C58.5657 49.9631 60.0911 49.6865 61.5561 49.2155C63.6087 48.55 65.3847 48.6062 67.1737 50.0798C68.5479 51.2033 70.164 52.5256 71.7932 52.7114C74.0316 52.9664 74.5501 53.7226 74.8656 55.8227C75.0989 57.3438 76.4688 58.7482 77.5275 60.0446C77.7738 60.3644 78.8066 60.0792 79.8869 60.0792ZM98.7536 51.8385C99.0258 52.7028 99.1338 53.1003 99.2894 53.4893C100.154 55.6801 102.163 57.5167 102.746 59.431C103.516 61.9028 104.855 62.3479 106.636 62.4213C108.454 62.4618 110.265 62.187 111.99 61.6089C114.34 60.8484 114.582 59.7248 112.729 58.0223C109.272 54.885 106.247 51.1082 101.234 49.6347L98.7536 51.8385ZM62.4117 53.1911C60.748 55.7579 59.9918 59.0032 61.0289 60.1397C62.3814 61.6132 64.1834 61.8379 66.0113 61.3626C68.2022 58.0914 67.9775 57.6333 62.4117 53.1911ZM30.041 22.765L25.979 21.7538L25.5469 22.6181C28.3255 23.707 28.5718 27.6351 32.0288 28.0197C33.6925 23.9404 32.6986 21.7452 27.5088 18.3443L30.041 22.765ZM147.428 69.1366L146.72 69.3699L147.316 71.1503L147.999 70.9299L147.428 69.1366Z" fill="black"/>
</g>
<defs>
<clipPath id="clip0_729_643">
<rect width="150" height="92.2073" fill="white" transform="translate(0.160156 0.104248)"/>
</clipPath>
</defs>
</svg>
