<svg width="151" height="147" viewBox="0 0 151 147" fill="none" xmlns="http://www.w3.org/2000/svg">
<g clip-path="url(#clip0_729_491)">
<path d="M58.3793 146.052C59.2744 143.542 60.2604 141.058 61.0311 138.511C61.7041 136.293 62.0407 133.981 62.6834 131.753C63.0637 130.407 63.7166 129.145 64.4199 127.422C59.372 127.039 54.5563 126.362 49.7474 126.436C47.4388 126.473 45.0595 127.742 42.8822 128.792C40.0756 130.138 35.657 129.728 33.1465 127.87C29.4447 125.127 26.5977 121.641 23.542 118.242C20.0152 114.328 16.0711 110.451 10.8213 108.745C7.345 107.614 3.68695 107.029 0.160156 106.053C8.80552 106.124 16.7307 108.409 23.9223 113.82L25.6049 112.521C27.5299 114.348 29.6433 116.021 31.3259 118.033C34.294 121.557 38.3021 122.331 42.4313 122.27C44.7869 122.236 47.1426 121.102 49.4983 120.456C50.6829 120.12 51.854 119.655 53.0453 119.447C57.464 118.741 61.7394 117.325 65.7054 115.254C67.6741 114.227 69.626 113.147 71.6721 112.295C73.7181 111.444 74.7176 109.718 75.4378 107.84C76.2421 105.76 76.8815 103.61 77.4771 101.446C78.2074 98.8175 77.3762 97.2392 74.7311 96.7984C73.0943 96.5278 71.418 96.6209 69.8212 97.071C66.0824 98.1781 62.4411 99.6218 58.7427 100.867C57.6937 101.259 56.5927 101.495 55.475 101.567C53.8361 101.604 52.342 102.196 50.7872 102.459C46.2845 103.223 41.7347 103.717 37.1915 104.246C33.7623 104.643 30.3533 105.104 26.8602 104.582C22.9295 103.987 18.4033 100.248 17.36 96.408C16.7778 94.2576 15.6774 92.1476 15.5663 89.9871C15.4401 86.2147 15.6258 82.4384 16.1216 78.6966C16.3303 77.014 17.3937 75.4222 18.1643 73.8372C20.8263 68.372 24.9723 63.9467 28.5967 59.1714C30.673 56.4388 33.133 53.9888 35.519 51.5053C37.5056 49.3852 39.1007 46.9299 40.2304 44.2531C42.5289 39.074 43.7033 33.6088 44.6052 28.1234C45.0999 25.1216 44.6793 21.8707 44.1476 18.8252C43.6899 16.2205 42.3606 13.7773 41.6236 11.2129C39.941 5.29344 31.2148 0.285929 25.4367 1.17772C24.2689 1.35945 23.0473 1.20465 21.8493 1.20465C21.8224 0.958982 21.7921 0.716683 21.7652 0.471018C22.9026 0.349869 24.0535 0.0570905 25.1876 0.104204C28.1928 0.245545 31.2148 0.376791 34.1897 0.800814C38.8203 1.47387 42.539 3.60408 45.1706 7.69624C46.8532 10.301 49.1113 12.6129 49.6094 15.7729C50.03 18.3968 50.1643 21.0586 50.0098 23.7115C49.4546 32.6228 47.3883 41.1604 43.1413 49.0957C42.6952 50.0002 42.3096 50.9333 41.987 51.8889C40.5063 55.8397 37.5651 58.4714 34.2469 60.8742C29.9394 63.9938 26.9039 68.0119 26.6919 73.5915C26.5723 75.493 26.6558 77.4018 26.9409 79.2855C27.5534 82.6912 29.024 85.6594 32.3994 87.2141C36.7743 89.2333 41.4049 90.1789 46.1028 89.3208C50.4204 88.5333 54.6135 87.0324 58.8504 85.8074C60.5667 85.3127 62.283 84.7978 63.9454 84.1416C66.4189 83.1758 68.9361 82.4287 71.2514 80.9177C73.4084 79.5068 75.8745 78.6386 78.4396 78.387C82.5688 78.0505 83.4471 75.153 84.4231 72.1916C85.9913 67.4331 87.2936 62.5837 88.9291 57.8488C90.8406 52.3096 92.1834 46.6694 91.4666 40.8206C90.844 35.7525 90.1474 30.6171 88.6835 25.7509C87.2869 21.1035 85.3653 16.4964 81.5626 13.0302C79.3247 10.9908 76.7267 10.338 73.8561 10.5332C71.8874 10.6678 69.9356 11.0413 67.9534 11.1187C71.8605 10.0654 75.6532 8.51737 79.8968 9.52695C83.6861 10.4423 86.6576 12.2831 88.6465 15.6988C90.0464 18.0983 92.1497 20.2386 92.9607 22.8029C96.1073 32.7877 98.0086 43.0315 95.7943 53.4807C94.5121 59.5718 92.4997 65.5115 90.8743 71.5353C90.3022 73.6588 89.9051 75.8294 89.4272 77.9731C93.3006 78.838 94.741 80.7999 94.1386 84.8349C93.728 87.5607 92.8093 90.2025 92.2372 92.9115C91.729 95.3076 91.4228 97.744 90.9685 100.154C90.2046 104.192 89.3935 108.23 88.6128 112.269C88.5118 112.797 88.4984 113.345 88.4042 114.264C91.9747 115.025 95.3097 115.031 98.2509 112.817C100.327 111.252 102.723 110.694 105.072 109.862C107.243 109.095 109.289 107.954 111.342 106.887C113.125 106.024 114.843 105.031 116.481 103.916C118.981 102.102 121.283 100.026 123.75 98.1613C126.846 95.8258 130.076 93.6653 133.142 91.2928C135.679 89.3241 137.11 86.5108 137.907 83.4955C138.58 80.9177 138.752 78.2087 139.253 75.5804C140.381 69.7282 140.404 63.8524 139.883 57.9397C139.317 51.5457 137.167 45.7641 133.152 40.7263C131.708 38.9124 130.036 37.7649 127.408 38.2158C125.368 38.5524 123.369 38.4817 121.293 39.3129C116.598 41.1941 111.675 42.4998 106.092 44.28C107.014 43.3714 107.344 42.7758 107.822 42.6176C111.682 41.3556 115.037 39.2221 118.493 37.1289C122.868 34.4804 127.872 33.2386 132.933 35.076C135.335 35.9379 137.517 37.3164 139.327 39.1144C141.451 41.2563 143.155 43.7764 144.352 46.5449C145.994 50.5394 147.108 54.7864 148.054 59.0165C148.525 61.1232 148.134 63.425 148.087 65.6394C147.894 72.5722 147.067 79.4728 145.617 86.255C145.367 87.228 145.271 88.2339 145.331 89.2366C145.408 89.8861 145.903 90.8385 146.431 91.0202C149.309 92.0298 149.958 94.6648 150.106 96.9498C150.359 100.85 149.797 104.69 146.526 107.682C144.338 109.681 142.639 112.198 140.63 114.412C138.671 116.563 136.174 117.468 133.277 117.986C129.911 118.588 126.64 119.867 123.376 120.981C120.866 121.839 118.412 122.862 115.972 123.882C114.963 124.299 114.041 124.892 113.078 125.413C104.948 129.788 96.3664 133.153 87.6874 136.222C85.3653 137.044 82.6125 137.074 80.1155 136.842C76.9118 136.542 73.7922 135.438 70.5918 135.014C68.3068 134.711 65.9511 134.957 63.6291 134.957C62.5892 138.568 61.509 142.166 59.3182 145.292C59.0994 145.605 58.6451 145.756 58.3086 145.985L58.3793 146.052ZM67.5462 128.526C66.1631 130.024 64.7497 131.417 65.3252 133.934L67.5462 133.002V128.526Z" fill="black"/>
</g>
<defs>
<clipPath id="clip0_729_491">
<rect width="150" height="145.948" fill="white" transform="translate(0.160156 0.104248)"/>
</clipPath>
</defs>
</svg>
