<svg width="151" height="55" viewBox="0 0 151 55" fill="none" xmlns="http://www.w3.org/2000/svg">
<g clip-path="url(#clip0_729_427)">
<path d="M0.160156 17.8799C2.09519 17.3379 3.58846 16.7661 5.13595 16.5249C7.7058 16.1029 10.297 15.8234 12.8977 15.6875C16.9819 15.5032 21.0769 15.6143 25.1584 15.4164C32.5028 15.075 39.8554 15.8826 47.2106 14.953C51.0292 14.4706 54.9453 14.663 58.8127 14.7281C60.6244 14.7452 62.394 15.2762 63.9159 16.2593C67.561 18.5954 71.1898 20.796 73.2441 24.9317C74.2143 26.8884 75.9244 28.5118 77.4394 30.1568C79.659 32.577 81.987 32.894 84.8461 31.2083C87.6213 29.5823 90.2447 27.6608 93.0931 26.1729C94.8004 25.2813 96.7924 24.891 98.6949 24.4357C99.6353 24.2081 100.709 24.5225 101.644 24.2813C105.98 23.1593 108.571 25.8044 111.129 28.5389C112.419 29.9156 113.628 31.3655 114.937 32.7233C116.086 33.9103 117.416 34.0187 118.872 33.2084C120.043 32.558 121.259 31.9943 122.506 31.3655C122.387 28.8316 120.701 27.1513 119.346 25.5008C116.967 22.5983 115.593 19.2242 114.527 15.7173C113.34 11.8228 110.953 9.48398 106.85 9.24278C101.912 8.94467 96.9658 8.75767 92.0199 8.60048C89.3314 8.51647 86.6348 8.633 83.9437 8.56796C82.7187 8.54086 81.5046 8.29695 80.2796 8.13705L80.1901 7.59502C81.2579 7.30775 82.3257 7.00964 83.3989 6.72778L102.424 1.73031C107.844 0.302078 113.281 -0.681698 118.885 0.930827C120.314 1.34277 121.11 1.90105 121.121 3.43769C121.14 6.77115 122.623 9.39997 124.802 11.8797C126.98 14.3595 129.016 16.9802 132.029 18.655C133.737 19.6036 134.721 21.2242 134.59 23.3788C134.523 24.5143 134.748 25.6661 134.84 26.8071C137.474 26.8071 139.886 26.6472 142.268 26.845C145.859 27.1432 148.615 28.9237 149.857 32.4089C150.567 34.4117 149.919 36.4741 149.431 38.2791C146.721 37.6855 144.127 37.0947 141.518 36.5636C141.108 36.4795 140.48 36.5066 140.233 36.7587C138.574 38.4606 136.512 38.3089 134.431 38.1869C134.195 38.1734 133.951 38.3441 133.366 38.5555L134.927 39.4932C133.905 40.7263 132.87 40.0515 131.837 39.4932C130.804 38.9349 129.848 38.2086 128.761 37.8509C126.975 37.2628 125.474 38.2113 124.17 39.2276C123.956 39.0948 123.812 39.0162 123.815 39.0108C123.997 38.6368 124.189 38.2682 124.381 37.8996C122.815 37.0053 121.883 37.1408 120.658 38.2791C119.322 39.5176 117.975 40.7561 116.528 41.8537C116.181 42.1247 115.023 42.0136 114.901 41.7534C113.839 39.6179 111.92 40.2141 110.432 40.542C108.56 40.9567 106.828 42.0001 104.443 43.0245C107.627 44.0652 110.105 45.0625 111.647 47.2984L119.964 45.9433C120.46 47.1845 120.847 48.1439 121.303 49.2822C118.083 50.873 115.273 53.2335 111.489 53.9815C109.641 54.3474 107.953 54.8732 106.018 54.5913C103.676 54.2498 101.728 53.1875 101.41 50.995C101.058 48.5017 99.6651 46.5233 98.8575 44.2711C98.7355 43.9351 98.5214 43.6343 98.3914 43.3036C97.123 40.0677 96.7002 39.9756 93.4237 40.439C88.933 41.0705 84.8407 42.9838 80.5072 44.0896C76.2455 45.2124 71.8621 45.8085 67.4553 45.8647C66.1978 45.8647 65.7885 45.1818 65.4904 44.0923C64.5202 40.5501 63.7587 36.905 62.3548 33.5228C60.0973 28.1025 56.2787 24.2189 50.0888 23.3869C46.4274 22.8964 42.7904 22.3815 39.0532 22.5739C32.08 22.9533 25.264 21.4194 18.3966 20.525C14.7352 20.0453 11.0793 19.5629 7.40161 19.1889C6.06235 19.0369 4.7083 19.0752 3.37978 19.3028C2.08977 19.5548 1.39868 18.9504 0.160156 17.8799ZM119.005 38.4606L119.547 37.9891L118.498 37.0622L118.154 37.3874L119.005 38.4606Z" fill="black"/>
</g>
<defs>
<clipPath id="clip0_729_427">
<rect width="150" height="54.5575" fill="white" transform="translate(0.160156 0.104248)"/>
</clipPath>
</defs>
</svg>
