<svg width="151" height="304" viewBox="0 0 151 304" fill="none" xmlns="http://www.w3.org/2000/svg">
<g clip-path="url(#clip0_729_607)">
<path d="M147.14 303.642C143.991 295.899 141.046 288.064 137.694 280.414C126.857 255.723 115.799 231.161 105 206.451C102.074 199.746 100.258 192.541 97.1465 185.928C81.0499 151.827 64.3976 118.004 43.9667 86.181C40.0398 80.0869 37.7059 72.9926 34.0383 66.7133C30.5994 60.9979 26.8136 55.4986 22.7021 50.2462C16.4228 42.0035 9.42109 34.2978 3.53075 25.7957C-2.82268 16.5527 0.159542 8.45813 10.0138 3.29019C29.2223 -6.7308 48.3196 8.69893 53.1912 24.9252C59.489 45.3006 65.5275 65.9538 72.9553 86.0514C86.3475 122.19 100.74 157.958 114.651 193.93C122.06 213.286 130.025 232.532 136.527 252.222C141.991 268.8 145.695 285.934 150.16 302.827L147.14 303.642Z" fill="black"/>
</g>
<defs>
<clipPath id="clip0_729_607">
<rect width="150" height="303.538" fill="white" transform="translate(0.160156 0.104248)"/>
</clipPath>
</defs>
</svg>
