<svg width="151" height="177" viewBox="0 0 151 177" fill="none" xmlns="http://www.w3.org/2000/svg">
<g clip-path="url(#clip0_729_988)">
<path d="M149.484 159.317C147.877 159.237 146.225 159.362 144.668 159.032C140.488 158.156 136.383 156.854 132.153 156.143C127.087 155.297 123.943 151.382 119.823 149.044C114.191 145.84 108.689 142.416 103.097 139.137C98.7767 136.609 94.4964 135.788 90.1661 139.312C87.5128 141.465 84.5141 141.395 81.2301 140.529C66.577 136.669 51.8589 137.66 37.1758 140.554C35.6389 140.854 34.2622 142.001 32.8254 142.787C30.3573 144.133 27.9594 145.64 25.4112 146.792C23.8093 147.532 21.5565 148.464 20.5903 146.291C20.0897 145.165 20.8056 143.077 21.6216 141.85C24.9607 136.804 29.8017 133.66 35.4636 131.688C37.0256 131.142 38.6626 130.687 40.0443 129.801C42.5474 128.229 42.5474 125.886 40.1094 124.209C37.6714 122.532 35.2133 120.644 32.495 119.523C22.9682 115.613 16.1799 107.964 8.40026 101.671C4.06491 98.1566 2.31776 92.6348 0.565598 87.4484C-0.565798 84.0893 0.730801 81.2507 3.5693 79.1331C6.10243 77.2508 8.60551 75.3234 11.1236 73.4111C13.1661 71.8542 14.3676 70.077 12.9559 67.4037C12.5904 66.7128 12.235 65.7166 12.4553 65.0558C14.1423 60.1147 15.0034 54.7831 20.9658 52.4502C31.4787 48.3301 41.8015 43.7395 52.2393 39.4342C58.5371 36.836 64.91 34.428 71.2328 31.8949C72.2891 31.4693 73.6507 31.0939 74.2365 30.2579C77.951 24.8312 83.9334 22.8437 89.3851 20.1404C95.9566 16.9094 101.892 12.5206 106.907 7.18439C110.646 3.20949 115.302 0.79151 120.999 0.786504C123.813 0.781497 126.611 0.576244 129.42 0.471115C137.83 0.190769 144.969 8.68124 146.631 16.611C147.992 23.119 146.576 29.2867 143.962 35.0538C139.872 44.0649 132.148 48.1449 122.531 48.9159C120.529 49.0761 118.526 48.7407 116.524 48.8758C112.779 49.1361 111.362 51.444 112.564 55.0885C114.241 60.1898 119.042 63.2536 124.448 62.8731C128.398 62.5977 132.393 62.1622 136.318 62.4726C142.19 62.9281 143.427 64.5552 143.597 70.4074C143.782 74.2699 142.433 78.049 139.842 80.9203C136.839 84.3245 133.57 87.2782 129.259 88.9803C127.429 89.7811 125.67 90.7375 124.003 91.8388C119.823 94.402 118.841 98.4169 121.675 102.442C123.092 104.444 125.074 106.066 126.821 107.844C127.627 108.665 128.644 109.345 129.284 110.262C132.223 114.502 131.757 117.771 127.677 121.14C126.422 122.225 124.98 123.073 123.422 123.643C116.343 125.981 116.358 126.682 120.138 133.155C123.813 139.453 129.435 143.382 135.107 147.322C139.031 150.051 142.386 153.695 147.272 155.022C148.413 155.332 149.199 156.924 150.145 157.93L149.484 159.317ZM23.3687 104.289C28.6202 100.499 33.7766 97.1954 38.4473 93.2756C43.2983 89.2256 47.959 85.0054 54.0215 82.8327C59.4783 80.8803 65.0001 80.3847 70.627 82.0117C73.7759 82.9178 75.3328 85.0154 74.2765 87.944C73.4004 90.362 72.0638 92.8851 70.2315 94.6373C66.2016 98.502 61.7511 101.931 57.4307 105.491C55.6085 106.992 55.0128 108.614 56.4946 110.652C57.0803 111.458 57.681 112.259 58.3168 113.025C62.9826 118.627 69.1452 122.326 75.3629 125.776C77.6457 127.042 80.7945 126.962 83.558 127.032C84.5942 127.057 86.2413 125.976 86.5617 125.03C86.8821 124.084 86.0961 122.482 85.2801 121.696C83.0183 119.526 80.615 117.509 78.0862 115.658C74.0462 112.654 73.891 110.252 77.9811 107.148C79.9873 105.668 82.1064 104.347 84.3189 103.198C86.9171 101.796 88.1737 99.8587 88.2387 96.8149C88.3238 92.5046 88.8545 88.2093 89.1198 83.904C89.3501 80.1394 87.8483 76.625 84.8996 74.8378C79.7833 71.739 76.8046 67.1484 73.7909 62.3524C72.8863 61.0318 71.5986 60.0202 70.1014 59.4539C66.597 58.1422 62.8024 57.5215 59.3731 56.0447C55.2581 54.2725 51.2631 54.5428 47.1681 55.5991C41.7614 57.0309 40.3397 59.0634 41.446 64.6102C42.0968 67.8592 41.6212 70.4174 39.2783 72.8153C38.3272 73.7915 37.9567 75.3184 37.2759 76.7001C38.2771 77.4611 38.8929 78.0017 39.5737 78.4373C43.2683 80.7902 44.6099 83.6387 43.1381 86.0717C41.9817 87.979 38.192 88.3645 34.933 86.8226C32.8254 85.8214 30.6427 84.9103 28.7203 83.6237C24.9657 81.1206 21.2111 81.5061 17.3213 83.073C13.6567 84.5448 12.9459 85.6912 13.8169 89.526C15.0985 95.3131 18.8782 99.5083 23.3687 104.289Z" fill="black"/>
<path d="M43.8883 146.151C45.2199 150.551 43.2675 153.77 40.4741 156.163C35.9034 160.078 33.6056 164.493 34.8121 170.606C35.1776 172.433 34.702 174.431 34.6119 176.353L33.5556 176.538C31.9386 173.234 30.0512 170.03 28.7797 166.606C27.6182 163.482 27.1727 160.138 29.4355 157.094C29.9061 156.463 30.0512 155.562 30.2515 154.766C31.8134 148.534 36.5342 145.46 43.8883 146.151Z" fill="black"/>
</g>
<defs>
<clipPath id="clip0_729_988">
<rect width="150" height="176.052" fill="white" transform="translate(0.160156 0.471191)"/>
</clipPath>
</defs>
</svg>
