<svg width="151" height="163" viewBox="0 0 151 163" fill="none" xmlns="http://www.w3.org/2000/svg">
<g clip-path="url(#clip0_729_1084)">
<path d="M25.2673 63.2689C29.4516 63.2689 33.371 63.234 37.2834 63.2689C38.7863 63.2863 40.2857 63.5165 41.7886 63.6176C44.512 63.7919 45.973 62.3936 45.6871 59.6563C45.321 56.3193 44.9897 52.9404 44.1877 49.6975C43.023 45.0424 44.2783 41.374 47.7165 38.2253C50.5828 35.5961 50.8897 34.0862 48.6998 31.1746C46.51 28.263 45.8231 25.1665 46.782 21.3203C49.8192 19.012 53.1144 16.456 57.4906 15.6749C59.1399 15.382 60.7439 14.4266 62.1701 13.4781C63.0593 12.8853 63.9659 11.8253 64.1856 10.8245C64.9841 7.20848 67.4599 5.0047 70.3959 3.32397C72.2301 2.27788 73.733 0.670372 76.1948 0.534379C80.9929 0.237985 84.8739 1.35382 87.3044 5.81369C89.4942 9.81327 92.9463 11.3022 97.448 11.9787C101.849 12.6273 106.145 14.3324 110.329 15.9713C112.672 16.8919 114.482 18.7295 115.612 21.2332C116.117 22.349 117.516 23.1196 118.618 23.8903C120.302 25.0689 122.289 25.8848 123.768 27.2657C125.609 28.9848 125.619 31.1014 124.315 33.2738C122.146 36.8967 118.715 38.3787 114.705 38.5845C110.89 38.7797 107.058 38.6995 103.236 38.7937C101.015 38.846 99.6692 39.5922 99.5507 41.6112C99.2787 46.1756 98.3721 50.8726 100.597 55.2314C101.283 56.5577 102.182 57.7628 103.257 58.7986C106.263 61.6788 109.381 64.437 112.48 67.2162C114.792 69.2909 117.108 71.3587 119.479 73.3637C123.363 76.652 127.262 79.9262 131.22 83.1273C135.055 86.2272 139.498 88.1765 144.146 89.7003C144.477 89.8084 144.819 89.8816 145.147 89.9932C149.973 91.6042 151.448 95.3562 148.982 99.8718C147.712 102.341 145.765 104.397 143.368 105.8C139.742 107.892 136.283 107.651 132.831 105.678C130.522 104.356 128.426 102.63 126.045 101.476C122.69 99.8439 121.013 97.2705 120.501 93.6964C119.901 89.512 118.618 85.5752 116.184 82.0638C115.256 80.7248 114.322 79.4241 112.543 79.0545C111.563 79.9576 110.632 80.798 109.719 81.6628C107.309 83.9258 104.272 84.1804 101.273 83.9119C99.2647 83.734 97.9397 84.4733 96.6704 85.7391C92.8173 89.5748 89.0304 93.4976 85.1006 97.2461C82.6176 99.6479 79.998 101.904 77.2548 104.004C75.9995 104.952 75.2254 105.849 75.3614 107.393C75.5671 109.691 75.6438 112.021 76.0832 114.277C77.2688 120.414 78.6287 126.519 79.8805 132.646C80.0409 133.42 80.1909 134.334 79.9294 135.028C79.3156 136.642 79.1866 138.079 80.0723 139.669C80.3931 140.241 80.1839 141.207 80.0061 141.942C79.6888 143.24 79.211 144.498 78.8658 145.569C77.1502 141.733 75.3265 137.615 73.4436 133.507C70.2181 126.471 67.282 119.301 62.8012 112.889C60.9706 110.27 58.9342 108.799 55.6355 109.105C54.2407 109.231 52.7971 108.757 51.3744 108.568C51.4023 108.317 51.4267 108.066 51.4546 107.815C52.5809 107.871 53.7107 107.944 54.837 107.976C55.6383 108.037 56.4435 108.026 57.243 107.944C59.9245 107.515 60.7997 105.929 59.0841 103.864C56.9919 101.329 55.1403 98.4143 51.9009 96.9951C49.5751 95.9734 47.2737 94.9029 45.028 93.6999C43.1102 92.6851 41.5411 93.6999 40.1776 94.61C35.7631 97.6053 31.5648 100.887 28.7508 105.58C26.8713 108.718 25.0615 111.937 22.8961 114.88C19.6288 119.347 17.5959 124.42 15.814 129.49C13.6695 135.669 11.2426 141.908 11.4936 148.669C11.5703 150.73 11.9539 152.78 12.2538 154.827C12.4735 156.312 12.9512 157.777 13.014 159.262C13.1116 162.052 11.8633 162.871 9.34215 161.79C8.59287 161.5 7.89569 161.091 7.27785 160.577C3.61651 157.264 0.690924 153.627 0.300381 148.32C0.098135 145.531 0.0458302 142.884 0.621184 140.129C1.03962 138.142 0.708359 136.008 0.907118 133.957C1.03614 132.597 1.50688 131.269 1.83117 129.926C2.34725 127.789 3.10044 125.679 3.33755 123.514C3.82224 119.071 5.82378 115.187 7.45569 111.152C7.6684 110.622 7.99269 110.106 8.06592 109.548C8.58896 105.674 10.2732 102.292 12.2712 99.028C14.869 94.7948 17.3448 90.4814 19.8206 86.1749C20.6191 84.7801 21.0585 83.1482 22.0069 81.8824C24.2351 78.9046 23.6423 75.6721 22.9414 72.5373C22.3242 69.7756 21.9581 67.3242 24.4095 65.2321C24.8732 64.838 24.9604 63.9977 25.2673 63.2689ZM62.1143 88.7727C64.3007 88.8529 62.9233 86.7119 63.9206 85.896C65.3502 86.3597 66.1523 85.8193 66.6614 84.285C67.7458 81.0212 68.907 77.7713 70.2948 74.6295C71.6826 71.4877 71.986 68.2344 71.6094 64.845C67.2611 65.5947 65.6815 66.7001 64.1786 70.215C62.9407 73.0778 61.8249 75.9371 58.7389 77.4819C57.7765 77.9596 57.0442 79.065 56.42 80.0204C53.8669 83.8522 52.1752 88.1921 51.4615 92.7409C53.2957 94.9935 55.2693 96.9742 58.8226 97.2008C58.2507 92.8281 56.7304 88.6368 58.4565 84.1629C59.9803 87.4581 59.9803 87.4581 62.2189 88.8564C60.6393 90.8266 60.5312 92.4724 62.0132 93.8672C62.2249 94.0183 62.4653 94.1244 62.7196 94.179C62.9739 94.2336 63.2366 94.2355 63.4917 94.1846C63.7358 94.1357 64.1054 93.3756 64.0008 93.0966C63.4429 91.6286 62.7524 90.2094 62.1108 88.7727H62.1143ZM68.9418 83.2842L68.7884 83.3121C69.3917 86.9351 70.0577 90.5476 70.5703 94.1846C70.7655 95.5794 71.1631 96.7057 72.6311 96.9742C74.2142 97.281 75.3265 96.479 75.9054 95.0424C76.5818 93.3477 77.3002 91.6495 77.7186 89.8816C78.1684 87.9359 78.7019 85.8506 78.4404 83.9293C77.9801 80.4911 76.0797 78.8767 73.182 79.2358C72.4917 79.2774 71.7989 79.2494 71.1142 79.1521C69.6323 79.0405 69.022 79.9437 68.8547 81.2025C68.8176 81.8975 68.8456 82.5944 68.9384 83.2842H68.9418ZM103.986 64.1894L102.891 64.7125C103.174 65.8562 103.16 67.2127 103.791 68.1053C106.064 71.3134 108.523 74.3819 111.005 77.44C111.354 77.8759 112.24 77.8794 112.874 78.0851L113.422 77.3563C110.563 72.764 109.178 67.129 103.983 64.1894H103.986Z" fill="black"/>
</g>
<defs>
<clipPath id="clip0_729_1084">
<rect width="150" height="161.783" fill="white" transform="translate(0.160156 0.47168)"/>
</clipPath>
</defs>
</svg>
