<svg width="151" height="568" viewBox="0 0 151 568" fill="none" xmlns="http://www.w3.org/2000/svg">
<g clip-path="url(#clip0_729_1068)">
<path d="M55.9827 307.041C56.1792 310.322 56.4411 313.589 56.5575 316.885C57.0667 331.319 61.0026 344.967 65.2004 358.681C67.7176 366.902 68.4451 375.683 69.8565 384.224C70.9405 390.822 71.3116 397.596 75.1092 404.463C80.7111 399.218 85.2072 394.155 85.4618 386.639C85.862 375.268 86.1893 363.89 86.2766 352.511C86.4149 337.648 87.7753 322.748 92.4824 308.802C99.0301 289.457 97.4368 271.393 89.3759 253.118C86.0802 245.639 84.6397 237.345 81.315 229.888C77.0153 220.241 71.6026 211.103 66.7646 201.667C62.7123 193.701 59.4021 185.298 54.7896 177.659C45.4628 162.243 40.9012 144.855 33.7643 128.515C28.5916 116.584 24.7285 104.078 20.1669 91.8701C18.9761 88.9593 17.6232 86.1176 16.1146 83.3581C13.4737 78.2 13.4155 73.2747 16.8422 68.3639C22.6623 60.0411 28.4825 51.631 37.8311 46.8439C46.2631 42.4788 52.0032 44.7559 55.1024 53.7699C56.5194 57.5919 57.4269 61.584 57.8015 65.643C58.4272 75.1007 62.8505 83.1035 69.0926 89.2146C73.2249 93.2815 77.6774 96.4898 80.6893 101.866C82.2753 104.718 87.477 106.035 91.3038 107.002C94.4903 107.817 96.0763 104.784 96.2946 102.019C97.0221 93.2887 97.5168 84.3039 90.4162 77.567C83.3156 70.8302 79.3361 61.1615 70.3294 56.1998C69.4709 55.7269 68.7871 54.25 68.6925 53.1879C68.3069 48.6263 68.045 44.0502 68.0304 39.4814C68.0304 37.8736 68.416 35.8001 69.4418 34.7307C74.5345 29.4343 75.9895 22.4138 78.7832 16.0189C81.6933 9.32569 86.1602 5.34616 93.8865 5.36799C96.7904 5.33475 99.6507 4.65634 102.26 3.38186C107.258 0.973767 112.526 -0.859583 117.538 1.65764C124.661 5.22976 131.499 9.66035 134.227 17.9395C138.738 31.6678 142.71 45.5343 145.417 59.7574C146.544 65.6648 149.127 71.3249 149.869 77.2178C150.597 82.8707 149.811 88.7126 149.585 94.4673C149.488 96.8734 149.245 99.2713 148.858 101.648C147.679 108.778 146.755 115.98 145.089 122.993C142.907 132.153 140.062 141.181 137.64 150.246C134.046 163.749 130.692 177.325 126.996 190.805C125.298 197.443 121.3 203.262 115.712 207.226C111.347 210.325 109.688 214.741 109.019 220.255C107.469 233.111 110.874 245.1 113.842 257.25C116.192 266.846 118.549 276.435 120.739 286.067C121.244 287.949 121.232 289.932 120.703 291.807C118.193 298.806 116.425 305.95 112.511 312.614C107.736 320.738 104.143 329.501 101.838 338.637C98.2007 353.406 95.3925 368.466 95.7635 383.86C95.7897 386.435 96.3729 388.974 97.4732 391.303C100.645 397.559 101.264 403.67 97.946 410.029C96.6074 412.597 95.8944 415.485 94.5558 418.032C92.8098 421.364 90.3798 423.488 86.1166 423.852C75.7785 424.696 67.8049 434.568 68.2414 444.804C68.5629 450.848 68.5022 456.906 68.0595 462.942C66.2917 483.814 68.3069 504.541 69.6746 525.312C69.9159 529.672 69.5362 534.045 68.547 538.298C66.6118 546.839 60.0132 549.88 51.9741 546.403C50.1989 545.675 48.4893 544.664 46.6559 544.075C45.0668 543.487 43.351 543.327 41.6808 543.612C40.0106 543.897 38.4446 544.616 37.14 545.697C30.2358 550.979 23.0625 555.882 16.0419 561.011C14.4239 562.082 12.9559 563.364 11.6768 564.823C9.29051 567.828 6.58414 568.301 3.41942 566.388C1.91733 565.526 0.817581 564.105 0.360828 562.435C-0.0959254 560.764 0.127507 558.981 0.982234 557.475C2.93199 553.932 5.84207 550.928 8.25743 547.596C11.7641 542.707 15.5326 537.956 18.4936 532.747C20.3634 529.466 20.9454 525.472 22.1312 521.791C22.9461 519.273 23.8482 516.778 24.6339 514.253C27.0784 506.44 29.2173 498.525 31.9527 490.82C36.4852 478.081 41.5706 465.546 46.0448 452.785C48.1046 446.88 49.6813 440.817 50.7591 434.656C55.0224 410.444 53.9166 385.912 54.5641 361.496C54.8107 356.426 54.5671 351.344 53.8365 346.32C51.7049 333.712 54.0766 321.221 54.1348 308.678C54.1348 308.125 54.6586 307.58 54.9351 307.027L55.9827 307.041ZM45.9939 470.37C36.9654 488.397 33.8443 507.408 25.4778 524.351C24.6266 526.083 24.8085 528.316 24.4084 531.001C28.417 529.946 31.3344 528.884 34.3463 528.476C37.7074 528.025 39.5262 526.141 40.5739 523.238C41.3912 521.233 41.9888 519.145 42.3563 517.011C44.2042 502.424 45.9211 487.83 47.6381 473.229C47.6817 472.858 47.2016 472.436 45.9939 470.37Z" fill="black"/>
</g>
<defs>
<clipPath id="clip0_729_1068">
<rect width="150" height="567.058" fill="white" transform="translate(0.160156 0.47168)"/>
</clipPath>
</defs>
</svg>
