<svg width="151" height="313" viewBox="0 0 151 313" fill="none" xmlns="http://www.w3.org/2000/svg">
<g clip-path="url(#clip0_729_1048)">
<path d="M0.160156 312.894C0.814278 311.952 0.989398 311.411 1.34479 311.231C9.20455 307.29 15.3749 301.058 22.3076 295.851C22.8484 295.444 23.3995 295.048 23.9712 294.687C27.8651 292.246 31.9804 290.098 35.6012 287.311C40.1257 283.921 45.1701 281.288 50.5379 279.513C53.9096 278.251 57.6 278.115 61.0553 279.127C64.3826 280.111 68.1476 279.74 71.717 279.766C76.6684 279.804 81.6164 279.73 86.5609 279.544C90.4136 279.39 91.6497 278.066 91.4849 274.121C91.3201 270.175 90.4548 266.261 90.5166 262.347C90.6762 253.457 90.9956 244.562 91.6651 235.698C92.2917 226.49 92.4498 217.257 92.139 208.034C91.933 200.344 92.4068 192.639 92.5665 184.944C92.5922 183.574 92.788 182.163 92.5253 180.823C90.4033 170.09 92.5253 159.279 91.8454 148.524C91.1861 138.022 93.473 127.721 94.1426 117.327C94.9821 104.24 99.973 92.4551 104.057 80.3564C107.395 70.4725 110.949 60.6606 114.359 50.8025C115.011 49.0353 115.52 47.2181 115.878 45.3686C116.62 41.0473 115.538 39.4661 111.186 38.3432C105.561 36.8959 99.9164 35.5465 94.2868 34.1301C90.9904 33.3008 87.7198 32.4046 84.4235 31.5857C80.6326 30.6431 78.0728 32.5643 76.3525 35.5722C75.2067 37.6827 74.3409 39.9336 73.7772 42.268C71.5011 50.8644 70.0659 59.6617 69.492 68.5359C68.7863 80.0474 65.4075 91.0181 62.106 102.015C58.7015 113.346 55.5751 124.718 52.2891 136.065C51.8152 137.703 51.1147 139.274 50.5585 140.886C49.7859 143.152 48.8897 145.387 48.3283 147.705C47.2982 152.016 47.0149 156.595 45.4182 160.669C40.1904 173.989 38.8976 188.276 34.7771 201.874C33.4019 206.406 33.2629 211.31 32.5006 216.038C31.5477 221.951 30.0953 227.817 29.6626 233.766C29.0033 242.78 26.4281 251.649 27.4582 260.796C28.1174 266.709 26.5826 272.339 25.4443 278.035C24.7129 281.697 24.2288 285.416 23.6004 289.104C23.4768 290.109 23.0241 291.045 22.3127 291.767C21.7668 288.965 21.1436 286.178 20.6955 283.361C18.9855 272.72 19.2791 262.038 20.1289 251.345C22.0552 227.256 24.0588 203.161 28.5655 179.397C31.9495 161.565 36.106 143.858 39.7989 126.104C43.1365 110.003 47.1333 94.0157 48.6373 77.5906C49.5387 67.7118 50.1825 57.8021 50.7851 47.8975C51.2126 41.0885 51.568 34.2588 51.6504 27.4395C51.6127 24.1883 51.2678 20.9479 50.6203 17.7616C48.5755 6.72389 56.0902 -1.07407 67.2463 0.728631C69.6178 1.04971 71.9356 1.68719 74.1378 2.62404C81.3177 5.91525 88.822 6.87841 96.62 6.56938C99.8592 6.48698 103.1 6.58499 106.329 6.86296C111.582 7.23895 116.63 6.74965 121.059 3.6284C122.164 2.80828 123.438 2.24647 124.789 1.9844C126.139 1.72232 127.531 1.76666 128.863 2.11413C132.519 2.99488 136.588 3.28846 139.653 5.20447C143.598 7.6922 146.694 11.5242 150.16 14.7794C149.923 17.9676 149.934 21.197 149.403 24.3337C148.409 30.2002 144.999 35.0726 142.033 40.012C136.882 48.5774 132.998 57.6424 129.589 67.0061C126.421 75.69 122.265 84.003 119.236 92.759C115.935 102.288 113.128 112.012 110.671 121.793C108.456 130.585 106.334 139.5 105.412 148.488C104.49 157.476 105.17 166.587 105.021 175.642C104.876 184.341 105.474 192.999 104.506 201.745C103.475 211.052 103.666 220.519 103.8 229.913C103.841 232.844 105.01 235.976 106.375 238.628C109.816 245.221 110.393 251.829 108.307 258.947C106.993 263.716 105.966 268.559 105.232 273.451C104.536 277.633 106.035 278.962 110.408 278.329C114.971 277.664 119.504 276.753 124.073 276.083C126.431 275.738 128.832 275.707 131.211 275.496C133.591 275.285 135.888 275.125 138.195 274.759C141.075 274.301 142.486 275.275 142.682 278.128C143.073 283.665 140.585 286.508 135.059 286.431C127.889 286.328 120.714 286.034 113.545 285.746C107.797 285.514 106.926 286.096 105.17 291.535C104.804 292.663 104.202 293.708 103.501 295.254C102.347 293.832 101.348 292.544 100.292 291.313C97.6244 288.223 94.2713 286.297 90.2951 287.976C85.6905 289.918 81.2301 288.826 76.6873 288.408C70.4088 287.832 64.1251 287.265 57.8517 286.621C52.8865 286.106 48.2716 287.44 44.0584 289.712C38.5164 292.735 33.4534 296.67 27.8187 299.467C19.6499 303.525 13.1756 310.798 3.61104 312.173C2.64788 312.343 1.70533 312.596 0.160156 312.894Z" fill="black"/>
</g>
<defs>
<clipPath id="clip0_729_1048">
<rect width="150" height="312.423" fill="white" transform="translate(0.160156 0.471191)"/>
</clipPath>
</defs>
</svg>
