<svg width="151" height="272" viewBox="0 0 151 272" fill="none" xmlns="http://www.w3.org/2000/svg">
<g clip-path="url(#clip0_729_923)">
<path d="M19.6704 117.198C16.3337 116.451 13.4808 115.942 10.6846 115.163C3.8918 113.353 0.00214245 109.507 0.693358 102.84C1.5668 94.7089 1.08924 86.7976 0.234642 78.7732C0.043265 77.0002 0.242223 75.2067 0.817555 73.5187C1.39289 71.8307 2.33065 70.289 3.56504 69.0019C11.6271 60.0664 19.2745 50.7413 30.9497 46.0724C33.8151 44.9351 36.3852 43.0751 39.1186 41.6361C45.4024 38.3371 52.3774 37.8658 59.1702 38.4251C65.6362 38.9592 71.0088 37.3569 75.8033 33.3541C82.2065 28.0129 89.8036 25.5811 97.7651 23.9284C97.9662 23.8844 98.2175 23.6394 98.3307 23.6959C103.86 26.7813 110.967 22.8162 116.032 27.5039C117.917 29.2696 121.059 26.7121 122.536 30.0174C123.371 31.9025 124.823 33.1593 124.22 35.5848C123.371 39.0095 123.359 42.5347 125.615 45.6389C125.854 45.9593 126.174 46.4306 126.092 46.7448C125.062 50.8733 124.138 55.0394 122.856 59.0861C120.393 66.8969 117.792 74.5945 121.599 82.7634C123.931 87.7904 123.742 93.251 123.296 98.5545C123.045 101.564 123.924 103.117 126.337 104.662C129.743 106.824 133.3 108.916 134.312 113.504C135.707 119.831 135.568 126.184 132.961 131.903C131.635 134.793 130.975 138.394 127.575 140.549C125.238 142.038 125.954 144.395 128.945 145.765C132.183 147.194 135.525 148.375 138.943 149.296C144.252 150.804 144.849 151.483 145.748 156.837C146.045 159.079 146.788 161.239 147.935 163.189C150.191 166.639 151.177 169.743 148.639 173.564C146.942 176.109 145.999 179.138 144.592 181.884C141.104 188.689 134.77 189.764 128.122 189.506C117.44 189.104 107.059 191.234 96.6529 192.956C89.0432 194.212 81.1948 206.032 84.3618 215.678C85.1002 217.622 86.4583 219.27 88.2263 220.366C95.1385 224.538 97.0236 228.779 92.2417 237.627C89.0998 243.452 83.8277 246.695 77.4182 248.178C75.7028 248.58 74.0501 249.239 71.832 249.95C72.5015 251.232 73.2421 252.476 74.0501 253.676C76.1175 256.29 78.3357 258.785 80.3779 261.417C81.9489 263.441 82.6966 265.571 81.1634 268.135C79.6301 270.699 77.7136 272.414 74.5717 271.729C70.5375 270.856 66.4028 270.102 62.5508 268.732C57.8833 267.003 53.3144 265.018 48.8648 262.787C47.2051 261.913 45.7154 260.749 44.4661 259.35C39.4391 254.053 39.8978 246.619 45.6035 241.963C48.4815 239.619 51.6925 237.684 54.7715 235.591C58.4915 233.078 60.1567 230.35 59.2079 225.147C57.9021 218.162 57.7683 211.007 58.812 203.977C59.4969 199.673 60.119 194.985 61.7905 190.888C63.2358 187.351 65.7367 184.064 68.4136 181.274C70.8831 178.698 71.7754 176.203 71.0151 173.068C65.7933 171.754 60.7725 170.554 55.8083 169.209C46.2884 166.564 39.6213 160.934 37.1832 150.986C36.2595 147.216 34.2173 144.533 30.8995 142.101C25.1058 137.834 20.9334 132.091 20.3176 124.469C20.1416 122.012 19.8903 119.567 19.6704 117.198ZM94.994 69.668L98.5129 66.3439L92.5622 65.8035L95.1636 69.8251C93.1905 69.4795 90.8718 68.5684 91.3117 72.1815C90.3377 72.8979 88.7982 73.4383 88.484 74.3746C87.3751 77.406 86.5607 80.5372 86.0522 83.7248C85.7631 85.61 86.3789 87.6962 86.5737 89.5499C89.5711 90.3856 91.3557 89.9646 93.1277 87.8407C97.4635 82.6503 96.898 76.8567 91.1609 72.0307C92.6061 71.5154 96.0308 74.2112 94.994 69.668ZM93.2785 165.866C97.2373 163.252 92.5056 156.881 99.0533 155.46C95.3647 153.67 94.0828 150.974 94.8117 147.65C95.6224 143.942 91.098 141.303 92.9957 137.489C89.8161 136.301 92.8324 134.674 92.6815 132.789L86.9445 130.734L90.256 129.163C88.4966 125.147 89.0872 121.201 89.1124 117.45C89.1501 112.021 88.7228 111.405 82.106 112.856C84.7263 116.444 81.1571 118.813 80.5099 121.861C80.2585 123.024 79.8815 124.425 80.3088 125.38C80.6858 126.216 82.1185 126.574 83.1868 127.202C80.0951 130.099 79.6301 133.367 80.7424 136.974C82.1876 141.674 81.93 146.977 85.8071 150.798C86.2281 151.213 86.2847 152.363 86.0522 153.003C85.4552 154.688 86.2281 155.165 87.642 155.63C88.2201 155.819 89.0244 156.887 88.8987 157.358C87.9813 161.531 91.3682 163.158 93.2785 165.866ZM53.7598 93.76C59.2456 91.8749 64.7627 90.04 70.2045 88.0041C73.6731 86.7096 74.7791 83.6054 75.2943 80.2625C75.8536 76.6619 71.4738 71.4652 68.2879 72.5271C63.8264 74.0038 59.0822 75.757 55.6135 78.7355C52.855 81.1045 51.5291 85.3712 50.1152 89.0095C49.047 91.7618 50.5677 93.2762 53.7598 93.76ZM107.329 43.9674C99.0407 46.7322 97.4258 54.0968 92.4553 58.7091C92.8072 60.5063 93.178 62.4417 93.5927 64.5782C95.3396 63.9498 96.8351 62.8124 98.161 62.9821C102.528 63.5539 103.094 63.5413 103.955 59.9093C105.155 54.8823 106.11 49.7987 107.329 43.9674ZM84.0791 98.7996C89.1061 99.8993 90.4571 98.7996 92.4051 92.6666L85.9013 91.0517C85.2604 93.7914 84.72 96.0787 84.0791 98.7996ZM89.3072 106.39C88.4965 103.877 88.4337 101.137 85.2981 101.326C84.2424 101.382 82.3887 102.406 82.3761 103.016C82.3447 104.964 82.3762 107.666 83.5387 108.728C85.9391 110.864 87.378 107.924 89.3072 106.39Z" fill="black"/>
<path d="M52.1952 18.1034C47.2059 13.4409 43.4733 8.11224 42.4805 1.3132C51.1395 -1.71558 53.2006 4.05921 54.9538 8.64008C53.829 12.3224 52.943 15.2946 52.0255 18.2668L52.1952 18.1034Z" fill="black"/>
<path d="M52.0254 18.2669L55.758 18.9707V10.8018C60.4205 15.3889 60.6216 20.0703 61.6019 24.5444C57.6179 23.2876 53.81 22.2131 52.1762 18.0909L52.0254 18.2669Z" fill="black"/>
</g>
<defs>
<clipPath id="clip0_729_923">
<rect width="150" height="271.403" fill="white" transform="translate(0.160156 0.471191)"/>
</clipPath>
</defs>
</svg>
