<svg width="151" height="226" viewBox="0 0 151 226" fill="none" xmlns="http://www.w3.org/2000/svg">
<g clip-path="url(#clip0_729_1017)">
<path d="M105.13 152.719C100.757 151.388 96.8469 150.432 93.1303 149.002C89.5628 147.638 85.802 146.285 82.8365 144.032C79.8709 141.779 77.9105 138.283 75.3425 135.483C73.7797 133.777 72.1285 131.91 70.1239 130.9C66.3189 128.978 63.7234 130.347 63.0883 134.611C62.5858 138.018 60.8793 140.222 58.1733 142.143C54.3076 144.877 50.9224 148.218 45.7921 148.726C43.4174 148.952 41.965 150.72 42.0092 153.381C42.0423 155.038 41.9429 156.695 41.838 158.352C41.3355 166.006 34.2005 170.501 26.9661 167.966C19.4888 165.277 13.0717 161.174 8.44393 154.712C2.17598 145.965 -1.68971 136.439 1.0715 125.444C1.62374 123.235 3.02644 121.114 4.4954 119.336C6.82586 116.525 7.69288 114.106 5.59989 110.533C-0.651496 99.8085 2.94912 90.6523 10.9511 83.4731C14.2646 80.5242 19.5164 79.6075 24.0448 78.271C31.0582 76.2167 38.2484 74.7643 45.273 72.7486C47.6752 72.0528 49.956 70.6059 52.0048 69.1038C54.8433 67.0274 54.65 65.1663 52.06 62.8966C46.278 57.8325 40.3359 52.9176 34.9405 47.4891C28.4461 40.9892 25.8175 32.9761 27.8442 23.842C29.0481 18.408 32.5769 14.7466 37.7846 12.996C43.18 11.1847 48.7134 9.85927 54.1254 8.10867C57.7647 6.93791 61.2107 5.07686 64.9052 4.17118C77.2699 1.12833 89.9162 -0.246757 102.563 0.857727C111.951 1.69714 120.621 5.44134 127.165 12.6978C128.187 13.8354 128.822 16.3371 128.303 17.7011C125.105 26.0786 125.619 34.8206 124.989 43.5019C124.713 47.2516 123.183 50.8853 122.637 54.6351C121.957 59.2739 125.127 64.2109 129.573 65.1884C133.7 66.048 137.66 67.5737 141.297 69.7058C144.262 71.5116 147.217 74.2507 148.747 77.2936C151.778 83.3406 149.917 88.9403 143.909 92.9275C140.629 95.1034 137.238 97.2516 132.914 97.6437C127.839 98.1076 123.327 99.9631 121.576 105.684C121.074 107.341 119.367 108.573 118.373 110.102C113.955 117.077 113.304 124.461 116.164 132.192C117.053 134.605 118.086 136.969 118.837 139.421C120.085 143.529 118.909 146.694 115.06 148.654C111.818 150.283 108.339 151.421 105.13 152.719ZM100.795 93.9713V76.1283L103.899 74.3501C103.159 72.4559 102.529 70.8599 101.922 69.3192C100.116 69.1204 98.487 68.6565 97.9679 71.1416C97.5924 72.9308 95.6761 75.438 96.2781 76.2112C98.2551 78.757 94.2237 79.8007 95.4552 81.844L97.504 83.7879L93.5555 85.0305C96.5983 87.5708 93.6107 89.2165 93.0033 91.7568L100.795 93.9713ZM99.0116 94.9543C94.2568 97.9198 94.0857 98.4776 96.013 105.27L101.673 103.724C100.735 100.664 99.8787 97.8314 99.0116 94.9543ZM95.8363 117.867L101.762 118.529C100.74 116.641 100.05 115.581 99.5528 114.426C99.1828 113.515 98.719 112.411 98.9288 111.538C99.8345 107.755 99.216 106.921 94.914 106.761C93.6218 110.566 97.0236 113.819 95.8307 117.867H95.8363ZM101.359 60.5606L106.98 62.1566C107.306 59.6991 107.593 57.4957 107.914 55.0658L103.203 54.5136L101.359 60.5606ZM99.84 126.311C99.6467 126.471 98.6472 126.929 98.6472 127.382C98.6472 128.282 98.973 129.652 99.586 129.944C100.199 130.237 101.861 129.74 102.17 129.133C104.181 125.156 102.524 122.191 96.9407 120.788L99.84 126.311ZM102.275 66.3481C102.248 65.9615 102.215 65.575 102.187 65.1939L99.3154 65.459C99.3485 65.818 99.3761 66.1824 99.4093 66.5635L102.275 66.3481Z" fill="black"/>
<path d="M59.7143 225.907C51.872 226.283 44.1327 223.999 37.7517 219.424C31.9642 215.382 26.0607 211.35 22.1895 205.022C19.7541 201.046 20.0413 197.18 24.0671 195.142C35.3549 189.421 50.2268 191.795 57.7925 199.952C62.713 205.254 63.9832 212.654 62.6357 219.976C62.3043 221.788 60.979 223.417 59.7143 225.907Z" fill="black"/>
</g>
<defs>
<clipPath id="clip0_729_1017">
<rect width="150" height="225.48" fill="white" transform="translate(0.160156 0.471191)"/>
</clipPath>
</defs>
</svg>
