<svg width="151" height="140" viewBox="0 0 151 140" fill="none" xmlns="http://www.w3.org/2000/svg">
<g clip-path="url(#clip0_729_873)">
<path d="M14.9364 101.075C17.2335 102.995 19.1889 104.159 21.6529 102.931C21.7761 102.502 21.9748 102.208 21.9033 102.013C19.7174 96.0001 20.2738 89.7605 20.397 83.5687C20.4407 81.4107 19.5465 80.119 17.3051 79.0698C16.5778 80.6277 15.9021 82.0187 15.2822 83.4415C14.9086 84.288 14.8609 85.4048 14.2687 86.0049C11.0138 89.2956 12.3253 92.7055 13.7799 96.171C13.8954 96.4256 13.9432 96.7056 13.9189 96.9841C13.8945 97.2626 13.7987 97.5301 13.6408 97.7607C13.2672 97.2759 12.846 96.8109 12.524 96.3022C10.2826 92.9002 7.94173 89.5459 5.85923 86.0605C4.25102 83.364 2.83403 80.5579 1.6187 77.6629C0.871546 75.8825 0.692705 73.8636 0.160156 71.5267C3.93966 71.165 7.5602 70.7319 11.1887 70.4974C14.0621 70.3146 14.5231 70.1596 15.457 67.4332C16.6493 63.9438 18.9305 61.7461 22.4279 60.4465C26.7706 58.7759 31.4509 58.1722 36.0754 58.6859C39.3184 59.0833 41.7109 57.9944 44.2504 56.5994C47.5968 54.7594 50.9749 52.9749 54.2656 51.0355C58.0848 48.794 61.9438 46.5923 65.5643 44.0567C69.7333 41.1356 73.4333 37.5032 77.7534 34.8524C82.2005 32.126 87.073 30.0356 91.8937 27.9928C97.2232 25.7394 102.708 23.8596 108.22 21.7811C111.356 25.1631 111.419 25.1313 115.695 23.1919C117.826 22.2262 120.107 21.6022 122.241 20.6325C124.526 19.6151 126.752 18.4586 128.95 17.2623C131.898 15.6726 132.129 13.7054 129.399 11.4281C126.128 8.70181 122.309 7.41416 117.969 8.09773C115.489 8.49515 113.009 8.93232 110.509 9.15885C107.274 9.45294 104.631 8.34413 102.489 5.13691C106.022 2.35494 109.317 0.0220562 113.959 0.538708C116.578 0.832803 119.241 0.713575 121.86 0.995747C123.119 1.13087 124.343 1.72701 125.548 2.18802C126.012 2.44287 126.438 2.76271 126.811 3.13787C130.233 5.88407 133.921 7.57313 138.444 6.19804C139.314 5.93176 140.26 5.91586 141.349 5.76087C142.963 8.96411 142.808 12.4456 142.542 15.7958C142.275 18.9395 139.175 21.3041 135.634 21.9798C132.407 22.5878 129.22 23.4105 125.993 24.0106C121.999 24.7538 117.985 25.3658 114.13 25.9977C113.188 29.0261 112.937 32.4877 111.153 34.7967C109.476 36.9865 106.221 37.9761 103.479 39.5658C103.761 40.1023 104.273 40.9926 104.699 41.9504C105.124 42.8473 105.313 43.8381 105.248 44.8286C105.182 45.8191 104.865 46.7765 104.325 47.6097C102.875 50.0539 101.666 52.6411 100.387 55.1846C100.22 55.5145 100.248 55.9437 100.112 56.7743C101.094 56.973 102.052 57.3585 102.99 57.3068C104.315 57.2381 105.624 56.9866 106.881 56.5597C111.65 54.9223 115.866 56.0788 120.035 58.5468C121.856 59.6199 122.38 60.983 121.943 62.8032C121.655 64.0889 121.161 65.3195 120.48 66.4476C119.009 68.7811 117.417 71.0362 115.711 73.2038C114.197 75.1035 112.17 76.1964 109.722 76.8085C101.305 78.9029 92.7084 78.6684 84.1598 79.1016C81.7753 79.2248 79.4384 79.6183 77.0738 79.7534C70.4288 80.131 64.1853 79.1573 59.1896 74.1696C58.7374 73.6862 58.2598 73.2272 57.7589 72.7945C55.3744 70.8431 53.2998 70.8074 51.734 73.4701C49.1984 77.7941 45.2917 79.5626 40.7968 80.5522C38.0506 81.1563 36.7948 83.1514 36.1986 85.4763C34.2393 93.1546 34.128 100.877 36.3655 108.527C37.0133 110.753 38.0943 112.597 40.5027 113.491C41.3453 113.805 41.9812 114.826 42.5813 115.621C43.9206 117.382 45.1725 119.198 46.4721 121.002C47.2351 122.051 48.185 122.989 48.7533 124.15C49.9455 126.506 50.5099 126.932 52.9342 126.208C54.1503 125.839 55.2671 125.143 56.1374 124.73C57.278 126.554 58.3908 128.307 59.4639 130.051C60.4018 131.59 62.9016 132.285 62.0471 135.29L50.9192 130.918C49.5203 133.791 47.3424 134.836 44.4213 134.157C43.7835 134.055 43.1834 133.787 42.6806 133.382C37.7645 128.466 33.0947 123.327 29.2795 117.485C29.0285 117.177 28.8013 116.85 28.5999 116.507C24.57 107.573 16.2797 104.918 7.87814 102.478C7.25021 102.295 6.59049 102.236 5.4936 102.037C8.76837 99.5531 12.2061 103.802 14.9364 101.075ZM90.2762 36.0089C87.8917 35.8062 85.368 35.214 83.675 38.0993C86.5563 38.7392 88.448 37.4634 90.2762 36.0089Z" fill="black"/>
<path d="M88.6387 115.78C91.1782 115.828 93.5349 115.645 95.4664 113.527C99.087 109.552 99.3771 107.728 96.6587 103.066C96.0705 102.065 95.5419 101.024 94.8743 99.7915C97.4655 99.4537 99.1506 100.276 100.088 102.45C100.832 104.175 101.849 104.783 103.82 104.223C105.183 103.825 106.749 104.147 109.038 104.147L105.788 101.095L110.012 97.2043C111.884 97.7249 114.038 98.9609 115.974 98.6827C117.961 98.3886 119.765 96.6241 122.332 95.9365C121.963 97.2599 121.863 98.7463 121.168 99.8671C119.439 102.649 117.746 105.574 115.441 107.816C113.891 109.326 111.312 109.771 109.205 110.717C104.782 112.704 100.255 114.512 95.9871 116.797C93.0461 118.387 91.063 116.575 88.738 115.673L88.6387 115.78Z" fill="black"/>
<path d="M130.119 90.5196C129.427 88.5881 128.529 86.7044 128.096 84.7212C127.5 82.0386 127.472 79.2208 126.793 76.57C125.704 72.3295 128.684 70.0523 130.838 67.3816C131.736 66.2727 133.06 65.5176 134.081 64.4923C135.209 63.4279 136.226 62.2507 137.114 60.9791C138.747 58.4435 139.84 57.9149 142.932 58.3799C145.662 58.7773 148.548 58.7773 150.173 61.6626C149.847 65.5932 146.596 66.7894 143.747 67.6995C139.494 69.0547 137.197 72.3732 134.646 75.4572C133.092 77.3291 131.204 79.2049 131.466 82.0306C131.49 82.289 131.283 82.6109 131.379 82.8255C132.599 85.3611 131.419 87.7655 130.119 90.5196Z" fill="black"/>
<path d="M85.2802 123.971C80.4713 123.617 75.3764 124.766 71.1875 121.34C75.9129 122.135 80.9284 121.233 85.2802 123.971Z" fill="black"/>
<path d="M48.134 93.405L60.2237 99.4578C59.3653 100.038 58.7969 100.71 58.4552 100.61C54.306 99.3902 50.9041 96.9262 47.6055 94.3549L48.134 93.405Z" fill="black"/>
<path d="M118.803 132.416L107.576 130.826C107.576 130.64 107.576 130.453 107.576 130.266C108.582 130.159 109.599 130.111 110.589 129.92C111.578 129.73 112.619 129.372 113.919 129.01L118.732 132.539L118.803 132.416Z" fill="black"/>
<path d="M118.713 132.515C119.951 132.784 121.173 133.122 122.373 133.529C123.748 134.073 125.044 134.832 127.273 135.949C125.62 135.77 124.738 135.735 123.875 135.552C122.731 135.333 121.491 135.23 120.505 134.669C119.75 134.236 119.357 133.179 118.804 132.4L118.713 132.515Z" fill="black"/>
<path d="M41.2768 89.7844L45.108 92.4432C42.2823 93.091 41.5034 91.7636 40.7363 90.4243C40.9152 90.2097 41.094 89.9951 41.2768 89.7844Z" fill="black"/>
<path d="M80.8011 111.881L77.3555 110.236C79.6407 109.441 80.4951 110.057 81.2264 111.031L80.8011 111.881Z" fill="black"/>
<path d="M88.7388 115.681C87.2325 115.681 85.8296 115.53 85.2852 114.035L85.9091 113.213L88.6354 115.784L88.7388 115.681Z" fill="black"/>
<path d="M78.4531 138.91L81.1039 137.511L81.3901 137.932L79.0055 139.606L78.4531 138.91Z" fill="black"/>
</g>
<defs>
<clipPath id="clip0_729_873">
<rect width="150" height="139.134" fill="white" transform="translate(0.160156 0.471191)"/>
</clipPath>
</defs>
</svg>
