<svg width="151" height="187" viewBox="0 0 151 187" fill="none" xmlns="http://www.w3.org/2000/svg">
<g clip-path="url(#clip0_729_840)">
<path d="M95.2847 102.415L92.5997 99.2577C90.2496 99.6969 88.207 100.153 87.7128 102.92C87.603 103.557 87.1198 104.518 86.6146 104.639C84.2645 105.243 82.9796 106.753 83.4409 108.998C83.906 111.629 84.7961 114.166 86.0765 116.51C87.2461 118.487 89.5413 119.761 90.9414 121.639C96.5751 129.188 93.5057 137.941 84.5171 140.308L80.7174 141.312C82.0187 142.526 83.0071 143.19 83.6495 144.102C84.8795 145.859 86.8013 147.726 86.8452 149.593C86.9221 152.969 86.9441 157.357 84.9948 159.553C81.4425 163.584 77.0515 166.788 72.1297 168.942C67.424 170.914 61.8233 170.645 56.6948 171.748C53.9164 172.347 50.6932 173.099 48.744 174.928C42.1549 181.077 35.1376 179.628 27.8457 177.206C26.3137 176.696 24.8421 176.015 23.3486 175.4C20.2518 174.126 19.505 171.358 21.7892 168.893C22.897 167.668 24.2203 166.658 25.6932 165.912C32.5568 162.579 39.5303 159.465 46.3939 156.138C50.2814 154.249 54.4435 152.591 57.7325 149.911C60.9457 147.227 64.6872 145.247 68.7143 144.102C70.6855 143.553 72.1736 142.894 71.7343 140.692C65.6943 136.2 59.281 137.804 52.8841 138.836C51.6871 139.034 50.1387 139.484 49.2821 138.946C43.4508 135.223 37.6798 137.65 31.9144 138.858C28.241 139.627 24.7104 139.605 21.1578 138.243C19.1646 137.485 18.1652 136.151 18.0884 134.169C17.9456 130.325 18.006 126.372 21.0095 123.407C24.639 119.827 24.002 114.55 26.3686 110.426C27.0879 109.174 26.0227 107.197 24.3095 105.841C19.5983 102.113 19.1042 96.3475 23.3267 92.114C26.3589 88.993 28.7948 85.3437 30.5142 81.3464C31.6728 78.7821 32.4964 75.5919 32.0736 72.9069C31.6088 69.6919 31.7729 66.4173 32.5568 63.2649C33.062 61.0685 32.6612 59.3609 30.5582 58.1529C28.2849 56.8461 26.8683 54.9023 25.7701 52.4149C25.0618 50.828 23.1894 49.3126 21.4982 48.6976C17.3196 47.1821 15.3374 44.3049 15.1178 40.1098C15.0025 37.9135 13.9263 37.013 12.1637 36.0356C8.66051 34.1083 5.32754 31.8955 2.02203 29.6552C0.00138027 28.288 -0.514763 25.85 1.18192 23.3571C3.31788 20.2383 6.00292 17.4929 8.45734 14.5498C10.198 12.4797 11.9605 10.4261 13.6902 8.33957C17.1838 4.0801 22.1573 1.29724 27.615 0.548005C30.8656 0.0538255 32.5568 2.00858 31.8595 5.20428C30.7394 10.2998 28.7132 14.8902 23.5957 17.438C21.1652 18.7025 18.8469 20.172 16.6662 21.8307C13.2015 24.3784 13.1026 25.2954 15.3374 29.0732C15.7035 29.7064 16.0988 30.3214 16.5235 30.9181C18.3684 33.5922 20.9162 34.0424 23.3816 32.0163C25.847 29.9901 28.0763 27.4753 30.7613 25.7292C32.2329 24.7848 34.4512 24.664 36.2961 24.7683C37.7518 24.9507 39.1164 25.5755 40.2056 26.5583C42.9072 28.9139 45.9546 28.6778 49.0295 28.1397C57.1395 26.7285 62.2076 31.6758 60.769 39.6706C60.3078 42.2952 60.1705 44.9748 59.9124 47.3578C67.0012 51.0202 74.1558 49.4059 78.2355 43.3385C79.2184 41.8669 79.8828 40.8072 81.7771 40.4832C82.8753 40.2965 83.8472 39.1654 84.7312 38.2869C91.9463 31.286 98.7824 27.7718 108.946 28.288C111.576 28.4252 114.267 29.3861 116.732 30.4459C122.223 32.807 127.637 35.4591 133.073 38.0068C136.082 39.4125 138.877 41.2135 140.085 44.4257C141.688 48.7031 138.882 54.6497 134.594 56.8515C129.356 59.5366 124.161 62.3424 118.901 64.9506C117.812 65.4102 116.619 65.5694 115.447 65.4118C110.632 64.9012 108.309 67.0591 105.783 71.2322C101.808 77.8212 105.273 83.1199 107.496 88.6987C108.995 92.449 112.576 92.5423 115.919 92.2733C118.101 92.0356 120.254 91.5888 122.349 90.939C127.538 89.4949 132.617 90.8127 137.449 92.1195C143.116 93.657 146.026 101.13 144.219 107.494C143.919 108.549 143.493 109.565 142.951 110.519C139.97 115.818 140.755 120.403 144.719 125.065C146.916 127.624 148.332 130.951 149.661 134.114C150.962 137.167 149.463 141.208 146.487 143.212C144.249 144.795 141.637 145.766 138.909 146.029C136.181 146.293 133.431 145.841 130.932 144.717C125.858 142.52 120.559 140.758 116.106 137.029C112.339 133.867 109.435 129.974 106.667 126.157C104.718 123.472 104.746 119.299 104.07 115.758C103.197 111.228 102.61 106.637 101.698 102.113C101.193 99.3071 98.6451 99.2686 95.2847 102.415ZM56.7661 63.0178C57.2219 67.5752 53.8395 71.957 57.6557 76.0806C57.8424 76.2783 57.8149 76.756 57.7655 77.0909C57.0462 82.203 61.1534 86.0795 61.2851 91.1806C61.3401 93.4208 64.6236 95.5733 66.3972 97.7696C67.089 98.6372 67.6546 99.5981 68.3904 100.68C73.2333 98.0222 78.0049 95.0242 83.0949 92.74C86.6256 91.1586 87.9763 88.7591 88.2125 85.1735L79.3941 80.8302L81.3434 82.8344L72.7995 86.3815L68.2476 84.2236C67.1824 81.1158 67.0176 78.1562 68.3958 75.1252C69.5379 72.6049 68.621 70.6776 66.4685 68.9535C64.4534 67.3062 62.7677 65.302 60.3133 62.8256L56.7661 63.0178ZM56.7661 50.9049C57.1176 54.2708 57.458 57.5763 57.8643 61.3376C59.7752 61.7055 61.7629 62.4358 63.7725 60.4975C62.9654 59.3279 62.2735 58.3341 61.373 57.0382C65.1013 56.9284 67.8083 55.7753 69.236 52.5687L56.7661 50.9049ZM78.2904 65.593C80.6735 65.4228 82.8534 65.5436 84.1437 62.9958C80.1189 61.5627 79.8389 61.678 78.2849 65.593H78.2904Z" fill="black"/>
<path d="M126.928 171.287C124.034 173.742 123.601 177.261 121.207 179.749C118.461 182.593 115.425 184.625 111.614 185.152C107.298 185.75 102.905 186.31 98.5841 186.091C95.2291 185.92 91.8358 184.795 88.651 183.592C86.4547 182.763 85.2687 180.715 86.4108 178.228C88.3655 173.945 90.4521 169.717 92.5056 165.478C92.6709 165.146 92.9385 164.877 93.2689 164.709C100.813 161.48 107.43 155.77 116.567 156.874C120.828 157.39 123.628 159.504 125.901 162.699C126.395 163.397 126.45 165.088 125.973 165.659C124.012 167.894 124.874 169.623 126.928 171.287ZM109.472 177.563C109.088 173.434 108.726 169.514 108.27 164.632C105.997 167.422 102.131 167.773 102.779 171.496L109.472 177.563ZM114.919 164.517L110.159 168.448L114.409 170.601C114.574 168.492 114.694 167.015 114.919 164.517ZM103.476 177.278C100.089 178.788 100.896 180.43 101.033 183.153L103.476 177.278ZM113.481 182.928C113.646 182.648 113.816 182.379 113.986 182.093L111.938 180.616L111.252 181.753L113.481 182.928Z" fill="black"/>
<path d="M93.7854 142.789V145.326C93.4667 145.321 93.1497 145.279 92.841 145.2C92.7751 144.382 92.8025 143.553 92.8025 142.729L93.7854 142.789Z" fill="black"/>
</g>
<defs>
<clipPath id="clip0_729_840">
<rect width="150" height="185.669" fill="white" transform="translate(0.160156 0.471191)"/>
</clipPath>
</defs>
</svg>
