<svg width="151" height="198" viewBox="0 0 151 198" fill="none" xmlns="http://www.w3.org/2000/svg">
<g clip-path="url(#clip0_729_955)">
<path d="M97.3414 78.4433C99.3759 79.2562 101.359 80.2541 103.453 80.8391C107.157 81.8757 109.406 84.0177 109.789 87.9447C109.828 88.3361 110.138 88.706 110.503 89.463C113.153 88.7318 115.794 87.6737 118.521 87.3425C121.755 86.9305 125.026 86.8987 128.267 87.2479C131.2 87.5834 131.988 88.8737 132.405 91.8975C133.265 98.1901 129.781 103.807 123.497 106.362C121.936 106.995 120.516 107.993 118.938 108.543C117.913 108.825 116.838 108.87 115.794 108.672C113.449 108.35 111.922 108.831 111.892 110.758C111.806 115.666 108.361 119.098 106.804 123.541C108.314 124.376 109.445 123.331 110.675 122.84C112.12 122.264 113.583 121.739 115.058 121.24C116.533 120.741 117.901 121.189 118.301 122.531C119.071 125.047 121.265 125.916 123.033 127.283C127.635 130.862 132.28 134.385 136.917 137.92C138.581 139.211 139.609 141.176 140.138 144.609C138.999 144.609 137.854 144.862 136.882 144.561C134.302 143.766 131.807 142.768 129.304 141.778C123.484 139.49 117.303 139.464 111.213 138.978C109.415 138.832 107.561 139.512 105.72 139.692C102.666 139.998 101.131 141.512 101.045 144.677C100.997 146.471 99.7028 148.609 100.339 149.938C101.101 151.542 103.256 152.519 104.907 153.641C107.522 155.387 110.232 156.988 112.873 158.695C115.049 160.102 117.333 159.362 119.54 159C124.082 158.256 125.205 159.091 125.243 163.65C125.243 165.749 126.142 168.192 124.048 169.672C122.32 170.929 120.348 171.808 118.258 172.252C115.152 172.737 112.007 172.94 108.864 172.859C104.993 172.859 102.443 170.708 101.019 167.044C100.589 165.912 99.7716 164.652 98.7694 164.033C91.7413 159.792 84.9626 154.966 76.4376 154.002C74.3945 153.77 72.3945 153.142 70.9536 152.815C68.8632 155.874 67.2589 158.325 65.5384 160.742C63.762 163.276 62.9319 165.814 64.8803 168.674C65.4179 169.461 65.6459 170.455 66.2954 172.046L59.4135 169.435C58.6694 171.586 57.9898 173.263 57.4951 175.005C56.0757 179.999 55.9596 180.119 50.2218 180.476C48.097 177.693 52.609 176.175 51.4692 173.194C50.467 173.424 49.4836 173.729 48.5271 174.106C45.4432 175.573 42.428 177.19 39.3398 178.648C37.4774 179.509 35.2794 180.158 33.6708 178.648C31.8342 176.898 32.5869 174.416 33.7267 172.661C36.4193 168.523 37.744 163.435 42.3033 160.545C45.284 158.656 48.4411 157.215 51.8993 157.327C56.8328 157.486 59.7533 154.084 63.6028 152.329C62.906 149.706 61.2845 149.288 59.6371 148.708C57.3661 147.912 55.0779 147.164 54.4155 144.209C54.1875 143.198 52.7853 141.873 51.7616 141.723C48.1013 141.172 46.5744 136.088 41.9205 137.279V143.301C39.4172 143.301 37.1505 143.49 34.9267 143.258C31.6563 142.914 28.407 142.393 25.1931 141.697C21.7049 140.935 20.2769 137.692 22.3414 134.815C23.9673 132.544 26.2125 130.733 28.4104 128.505C27.9029 127.838 27.4599 126.892 26.7244 126.354C25.0985 125.189 24.7157 123.774 25.0039 121.877C25.1673 120.853 25.1458 119.236 24.5307 118.763C22.5135 117.21 21.821 115.24 22.0188 112.427C20.8747 112.788 20.0317 112.857 19.4381 113.287C16.46 115.507 12.8287 116.673 9.11525 116.604C7.02487 116.604 4.93879 117.124 2.8398 117.309C2.18172 117.369 1.49353 117.115 0.160156 116.879C2.99895 111.963 3.36025 106.126 9.87656 104.143C14.1778 102.853 18.1521 100.448 22.221 98.4353C23.3593 97.8382 24.3946 97.0628 25.2878 96.1385C27.3738 94.0567 29.2277 91.7254 31.417 89.7641C32.5972 88.748 34.027 88.065 35.559 87.7855C38.3376 87.2995 40.0624 85.7812 40.5785 83.1875C41.0215 80.9036 42.3119 79.3853 43.9292 77.8928C46.3034 75.7207 46.2518 74.4303 43.7829 72.3012C41.7183 70.5334 39.5806 68.8602 37.4042 67.2258C34.7203 65.2214 33.0514 62.7396 33.1374 59.26C33.1633 58.1159 33.3998 56.7653 32.9009 55.8663C31.103 52.6318 32.9009 50.4726 34.7246 48.1844C38.7161 43.1348 44.1571 40.4723 50.153 38.6572C51.8735 38.1411 53.4778 38.6572 53.6413 40.0766C54.0284 43.3412 56.6521 44.2015 58.8027 45.1649C61.4823 46.365 64.4975 46.8854 67.4051 47.4575C67.947 47.565 68.6955 46.6661 69.3363 46.2316C68.8073 45.6553 68.3772 44.851 67.7191 44.5628C66.9793 44.2402 65.9212 44.6144 65.2072 44.2703C64.2824 43.8402 63.0566 43.0574 62.8716 42.2358C62.6609 41.1863 63.005 39.5261 63.7577 38.8594C67.5083 35.5561 71.2375 32.1237 75.4311 29.4527C78.8721 27.2591 82.9195 25.9429 86.7949 24.502C88.3304 23.9299 90.1756 23.7192 91.552 25.3278C91.9532 25.7313 92.4376 26.0425 92.9714 26.2397C99.6813 29.1559 101.479 33.0399 99.363 40.0938C97.2812 47.0446 98.8684 51.1049 105.385 54.5028C110.159 56.9889 111.406 61.5009 112.31 66.1161C112.563 67.3849 111.634 69.1785 110.735 70.3356C108.301 73.4797 104.886 75.1916 101.04 76.0949C99.8576 76.3744 98.6963 76.7616 97.5264 77.1013L97.3414 78.4433ZM50.0928 111.326C52.7466 110.659 55.2542 110.225 57.6586 109.378C60.9447 108.208 61.577 105.188 59.2887 102.577C56.3682 99.2439 50.5659 97.9235 46.269 99.7171C45.0647 100.22 43.9851 101.007 42.6001 101.825C46.5615 104.427 46.5615 104.427 50.0928 111.326ZM65.9685 55.776L67.7793 60.46C69.2933 58.7008 72.0332 58.4341 71.2461 56.0857C70.5235 53.9351 68.3772 54.4856 66.6051 55.0018C66.4889 55.0362 66.4244 55.2039 65.9685 55.776ZM63.5727 57.5352L62.506 56.6965C61.2157 57.7374 59.6199 58.5374 60.4544 61.1783L63.5727 57.5352ZM85.3884 60.1933C85.7583 59.8535 86.1884 59.6385 86.2486 59.3331C86.3003 59.1094 85.7841 58.5116 85.711 58.5374C85.3062 58.7467 84.9242 58.9975 84.5712 59.2858C84.812 59.5611 85.0529 59.8277 85.3798 60.1933H85.3884Z" fill="black"/>
<path d="M48.4883 194.528C50.3335 190.115 53.8089 187.861 57.8434 186.094C59.994 185.143 61.8392 183.453 63.9984 182.498C67.5113 180.951 71.1003 179.583 74.7514 178.399C78.502 177.169 82.3258 176.128 86.1668 175.22C87.2507 174.962 88.5109 175.448 89.6938 175.594C89.4099 176.885 89.3927 178.356 88.7819 179.487C87.655 181.573 85.4227 183.044 85.384 185.758C85.2927 186.175 85.0621 186.548 84.7302 186.816C82.8032 188.666 76.8762 189.208 74.8374 187.539C72.0287 185.233 68.6308 186.046 65.4952 185.582C64.8758 185.487 63.8436 186.532 63.3876 187.302C62.1266 189.365 60.9974 191.506 60.0069 193.711C58.8542 196.292 56.6563 197.118 54.1788 197.384C51.8432 197.617 49.4862 197.599 48.4883 194.528Z" fill="black"/>
<path d="M145.275 151.611C150.337 151.693 151.395 153.095 148.772 157.413C146.733 160.768 143.808 163.599 141.223 166.614C139.58 168.532 137.49 170.055 137.163 172.936C137.068 173.767 135.399 174.98 134.449 174.984C133.498 174.988 132.006 173.909 131.64 172.958C130.986 171.285 130.956 169.358 130.78 167.526C130.543 165.306 130.302 163.078 130.285 160.85C130.285 159.826 130.466 158.364 131.145 157.839C135.296 154.592 139.632 151.555 145.275 151.611Z" fill="black"/>
<path d="M30.3236 0.471191C31.158 3.18095 30.7881 5.27993 29.2698 7.27139C27.7515 9.26284 26.2246 11.4048 24.8783 13.5855C23.2868 16.1663 20.9255 18.6266 23.304 22.2568C20.2373 21.3621 18.0738 18.7513 18.5383 16.4415C18.8996 14.6393 18.8136 13.2802 17.8286 11.6285C16.2931 9.04778 17.0802 7.09934 19.7556 5.66704C21.4975 4.73368 23.2997 3.91215 25.0761 3.05191C26.7106 2.23038 28.3493 1.43466 30.3236 0.471191Z" fill="black"/>
</g>
<defs>
<clipPath id="clip0_729_955">
<rect width="150" height="196.995" fill="white" transform="translate(0.160156 0.471191)"/>
</clipPath>
</defs>
</svg>
