<svg width="151" height="171" viewBox="0 0 151 171" fill="none" xmlns="http://www.w3.org/2000/svg">
<g clip-path="url(#clip0_729_846)">
<path d="M26.4634 53.689C26.2237 55.7385 26.0431 57.7984 25.7235 59.8375C25.1573 63.4502 23.3301 65.2878 19.6688 65.7429C17.1434 66.0521 15.7469 67.9557 14.1351 69.4633C13.6036 69.9635 13.5723 71.5093 13.9162 72.3152C14.538 73.7673 15.3787 75.2922 16.5459 76.3101C21.9118 81.0511 27.7871 85.1824 34.064 88.628C36.3497 89.8716 38.0484 89.7014 40.0111 88.0478C42.3871 86.047 45.1522 84.4942 47.4761 82.4377C49.8001 80.3813 51.7211 77.9774 53.8435 75.7438C55.5144 73.9896 57.0463 72.0443 58.943 70.5714C63.3859 67.122 63.9417 62.4984 63.1115 57.5205C62.9204 56.3742 61.6178 55.3321 60.6555 54.4289C60.2179 54.0155 59.3633 54.0294 58.6894 53.887C54.3611 52.9734 54.1735 53.1645 54.3055 57.656C54.3576 59.2713 54.3298 60.8901 54.3055 62.5193C54.1944 67.2331 50.6268 69.9183 46.441 70.0504C43.5716 70.1441 40.6016 70.3977 38.5312 67.6535C37.7809 66.6634 37.4891 65.868 37.9963 64.5271C39.285 61.168 41.1227 58.4307 44.4575 56.8049C45.0549 56.5131 45.5691 55.6586 45.6976 54.9847C45.7566 54.679 44.85 53.9912 44.2699 53.7897C40.2646 52.4002 36.2004 51.9104 32.0388 53.1575C30.8021 53.5292 29.5134 53.7203 28.2489 53.9947L27.9224 53.0985C29.1799 52.4419 30.354 51.4588 31.7053 51.1948C35.1791 50.5001 38.1526 48.8431 41.1852 47.141C44.0823 45.5118 47.2087 44.2925 50.2169 42.8717C51.6794 42.177 53.1175 41.4544 54.5626 40.7284C56.2995 39.8565 58.1058 39.0923 59.7315 38.0467C60.7847 37.3905 61.6575 36.4819 62.2708 35.4032C63.973 32.1517 65.5327 28.9385 68.1172 26.1283C69.7325 24.3914 70.4897 21.3901 69.7394 18.7118C68.9891 16.0335 69.5553 13.7374 70.8232 11.4412C72.2857 8.79077 73.7516 6.2063 76.7946 4.96965C78.1684 4.35646 79.4765 3.60578 80.6991 2.72908C85.1524 -0.25487 89.8003 0.036925 94.5698 1.76338C97.5016 2.8055 99.0856 5.02176 99.3531 7.99181C99.5494 10.6282 99.5494 13.2756 99.3531 15.912C99.2176 18.222 97.9636 19.9485 96.0704 21.3484C92.5168 23.9641 92.4438 24.5164 94.0834 28.5877C95.1742 31.2937 95.7613 33.8782 94.5628 36.8795C92.8503 41.1592 94.9762 44.0389 99.5476 44.4176C103.331 44.7267 106.183 46.672 108.541 49.5066C110.306 51.6256 112.293 53.5778 113.873 55.8253C115.871 58.6599 116.531 61.8245 115.301 65.2809C115.156 65.7471 115.109 66.2381 115.162 66.7234C115.215 67.2087 115.368 67.6778 115.61 68.1016C118.48 72.1728 122.127 75.4694 126.094 78.4846C128.906 80.6751 131.574 83.0433 134.084 85.5745C136.234 87.6901 136.133 88.6141 133.959 92.0948C132.048 91.6849 129.807 91.5633 127.887 90.7053C122.929 88.5168 118.16 85.9393 113.231 83.6536C110.81 82.5723 108.334 81.6225 105.811 80.8086C103.935 80.1659 102.479 81.1559 101.184 82.3057C101.076 86.6896 102.163 87.7422 106.349 87.3635C107.044 87.301 107.718 87.0856 108.406 87.0509C109.983 86.9779 111.077 87.6866 111.532 89.2254C111.761 90.0001 111.879 90.8095 112.084 91.5911C112.866 94.4986 114.516 95.2559 117.243 93.9602C119.119 93.0744 120.904 91.9419 122.853 91.2854C126.056 90.205 127.716 91.3965 127.98 94.7348C128.04 95.8775 127.979 97.0234 127.796 98.153C127.64 99.2715 127.313 100.366 127.035 101.578C131.551 103.662 135.852 105.59 140.083 107.668C142.776 108.99 145.401 110.448 147.947 112.034C149.167 112.791 150.577 113.719 150.032 115.626C149.531 117.339 148.052 117.537 146.693 117.474C144.068 117.36 141.451 117.105 138.853 116.71C134.646 116.071 130.467 115.24 126.268 114.549C123.565 114.108 120.974 114.605 118.487 115.72C116.566 116.581 114.624 117.033 112.456 116.71C110.851 116.47 109.635 116.859 108.559 118.679C107.44 120.58 104.713 120.955 102.653 120.309C100.256 119.565 98.9224 120.732 98.0609 122.303C96.5463 125.061 94.2398 126.492 91.426 127.43C90.6618 127.687 89.7725 127.808 89.1785 128.288C85.8993 130.938 82.4707 130.025 78.9831 128.913C77.201 128.35 75.7247 127.44 75.551 125.46C75.3842 123.563 74.3248 122.723 72.6608 122.681C70.9969 122.639 69.4997 122.921 68.5375 124.637C67.5336 126.433 66.4532 128.26 65.0637 129.74C63.306 131.602 61.2183 132.866 58.3038 132.078C55.6777 131.359 54.8787 130.243 55.8722 127.666C57.0463 124.578 56.4419 123.598 53.2391 123.939C51.6863 124.102 50.1718 124.824 48.6885 125.412C48.0702 125.655 47.6081 126.263 47.0211 126.613C44.5547 128.083 42.4844 128.052 41.3623 126.572C40.3862 125.29 40.6294 121.823 41.9564 120.375C43.7697 118.398 45.7775 116.783 48.6572 116.432C54.4063 115.737 59.1202 113.055 62.8996 108.209C60.468 106.084 58.1753 103.846 55.6047 102.009C54.7189 101.373 54.1353 101.154 53.9859 99.9003C53.8366 98.6463 52.9438 97.4305 52.3845 96.1938C50.0953 97.3193 49.4944 99.1916 50.1996 102.005C50.6061 103.442 50.9011 104.907 51.0819 106.389C51.266 108.519 50.1475 110.311 48.553 110.856C45.642 111.857 44.6311 111.433 42.6997 109.547C39.8443 106.768 37.5899 103.35 33.9633 101.331C32.6988 100.637 31.5837 99.4348 31.754 97.6632C32.0353 94.8078 30.2672 93.5433 27.9328 92.6054C21.7252 90.0939 15.3335 87.9853 9.77206 84.1329C7.50023 82.5628 4.99218 81.0865 3.28657 78.9987C-0.187177 74.7677 -1.15288 70.6617 2.37298 64.6487C3.90205 61.9258 6.03226 59.5876 8.60141 57.8123C11.2415 56.0268 13.3743 53.4979 16.5146 52.4315C16.9488 52.2856 17.3275 51.9834 17.7513 51.8027C21.8538 50.0346 23.3232 50.3577 26.4634 53.689Z" fill="black"/>
<path d="M57.6508 142.825C53.7429 142.825 49.8314 142.867 45.9235 142.798C44.9007 142.736 43.8916 142.531 42.9256 142.19C38.4341 140.8 37.7602 139.008 40.5218 135.197C41.8675 133.285 43.8669 131.932 46.1423 131.393C47.3929 131.105 48.5739 131.133 49.6925 132.109C51.2001 133.418 53.0551 133.96 55.0837 134.165C57.3729 134.395 59.6205 134.999 61.8888 135.409C63.3617 135.673 64.3691 136.496 65.1264 137.761C66.3352 139.793 65.6891 141.821 63.4555 142.304C61.5519 142.714 59.5857 142.822 57.6474 143.065L57.6508 142.825Z" fill="black"/>
<path d="M112.172 141.707C114.447 138.007 117.81 136.024 121.204 134.085C123.799 132.599 126.393 131.108 129.054 129.74C130.374 129.045 131.757 127.451 133.351 129.188C134.484 130.421 134.508 133.735 133.282 135.01C132.274 136.091 131.042 136.94 129.673 137.497C126.33 138.749 122.922 139.818 119.463 140.7C117.094 141.29 114.607 141.387 112.172 141.707Z" fill="black"/>
<path d="M73.9922 143.666C72.759 139.668 75.2601 137.74 77.855 136.295C80.3109 134.926 83.1281 134.21 86.1572 133.071C86.1572 134.089 86.3379 134.707 86.1294 135.155C85.0352 137.417 84.0452 139.758 82.6557 141.839C80.8042 144.597 77.848 145.101 73.9922 143.666Z" fill="black"/>
<path d="M98.5957 150.85C101.451 147.835 105.522 148.241 108.711 145.486C109.159 147.143 109.792 148.394 109.774 149.634C109.736 152.444 109.375 155.255 109.135 158.2C106.262 157.367 104.796 155.279 104.341 152.125L100.576 153.598L98.5957 150.85Z" fill="black"/>
<path d="M87.5973 160.264C90.8348 163.341 90.8695 166.888 87.8578 169.643C87.0658 170.365 84.4535 170.685 83.6511 170.018C83.1717 169.615 82.543 168.74 82.6923 168.347C83.5739 166.022 84.5923 163.751 85.7423 161.545C86.0549 160.924 87.0033 160.646 87.5973 160.264Z" fill="black"/>
<path d="M121.831 65.288C121.237 65.1004 120.64 64.9232 120.066 64.6905C120.125 64.411 120.203 64.136 120.299 63.8672L122.119 64.4126C122.026 64.7044 121.928 64.9962 121.831 65.288Z" fill="black"/>
</g>
<defs>
<clipPath id="clip0_729_846">
<rect width="150" height="169.894" fill="white" transform="translate(0.160156 0.471191)"/>
</clipPath>
</defs>
</svg>
