<svg width="151" height="131" viewBox="0 0 151 131" fill="none" xmlns="http://www.w3.org/2000/svg">
<g clip-path="url(#clip0_729_1052)">
<path d="M72.3546 16.4224C73.9116 16.2526 75.4687 16.0994 77.0215 15.9006C79.7173 15.5569 82.4049 15.0724 85.1089 14.8488C89.0636 14.5175 93.0431 14.4595 96.9937 14.091C99.4079 13.8674 100.928 12.3435 102.65 10.5256C105.586 7.42809 109.123 4.6122 112.937 2.7446C116.15 1.17929 120.092 0.802462 123.761 0.545719C133.141 -0.116844 138.884 7.29143 136.317 16.3685C135.567 19.0064 135.675 21.7519 137.228 23.9383C139.269 26.808 141.505 29.7067 144.218 31.8932C147.092 34.2039 147.891 37.5954 149.787 40.3781C151.075 42.2747 148.839 46.0306 146.135 47.5338C142.618 49.5049 138.557 50.2822 134.561 49.7493C127.666 48.8838 121.094 46.5814 114.477 44.6475C110.87 43.5957 107.653 41.2271 104.253 39.463C99.0476 36.7506 93.2999 35.9017 87.664 34.6801C85.3864 34.1832 83.5643 34.6801 81.6471 36.3572C79.2619 38.4405 76.5452 40.1102 73.6093 41.2974C71.249 42.2416 69.7044 43.8152 68.2674 45.6C66.5282 47.7616 66.756 52.0268 68.5739 54.1098C69.0372 54.5867 69.6463 54.8956 70.3048 54.9876C76.5798 55.7827 82.8604 56.5336 89.1464 57.2404C90.3639 57.377 91.631 57.2404 92.8734 57.2404C93.9044 57.2884 94.931 57.077 95.8592 56.6256C96.7874 56.1742 97.5875 55.4971 98.1863 54.6564C104.054 46.9955 115.351 48.6188 121.219 51.4926C122.184 52.0167 123.055 52.6967 123.798 53.5052C126.647 56.3832 126.478 59.5055 123.194 61.8659C120.973 63.4959 118.618 64.9352 116.154 66.1684C112.821 67.7875 109.363 69.1623 105.884 70.4543C104.464 70.9453 102.969 71.1891 101.466 71.1749C99.2643 71.207 97.0637 71.0602 94.8859 70.7359C91.2956 70.1852 88.1692 70.9306 85.0882 72.9141C83.4318 73.9783 81.2868 74.38 79.2908 74.8024C74.7067 75.7797 74.0731 76.6286 75.7088 80.869C76.4377 82.7656 77.5764 84.5089 78.6076 86.2854C83.2248 94.2859 89.6765 100.816 95.7224 107.686C97.5177 109.702 99.4551 111.587 101.52 113.326C103.118 114.693 104.191 116.676 105.661 118.606C102.518 121.012 99.5735 120.801 96.8115 119.434C93.3505 117.74 90.0141 115.803 86.8275 113.637C81.4069 109.91 76.1022 106.022 70.9011 102.009C69.4228 100.87 68.5283 99.0025 67.2405 97.578C63.0249 92.8986 58.9584 88.0537 54.4033 83.7304C52.192 81.6599 48.8999 80.7572 46.1751 79.1753C44.4152 78.1566 42.6138 77.0758 41.1645 75.6803C39.2431 73.8251 39.1271 72.1604 41.297 70.885C45.7403 68.272 46.3697 65.0627 44.5146 60.5573C43.7568 58.7228 44.3158 56.143 42.324 55.0125C39.6963 53.5329 36.9204 52.3337 34.0419 51.4347C32.1371 50.8342 30.6463 52.1014 29.7022 53.8323C27.9901 56.9982 27.1029 60.5443 27.1223 64.1434C27.0768 70.8105 29.6732 76.7445 32.1743 82.7076C32.5884 83.7097 33.4167 84.5504 33.8018 85.5649C36.4313 92.5632 41.4005 97.8472 46.6389 102.883C47.5913 103.798 49.2809 104.125 50.6888 104.361C53.0906 104.775 55.5752 104.734 57.9605 105.218C61.9441 106.046 64.4825 108.481 65.4143 113.053C64.172 113.707 62.9628 114.68 61.5963 115.008C54.0803 116.809 47.1027 120.051 40.0133 122.983C38.1664 123.749 36.5804 125.174 34.9198 126.362C33.2593 127.551 31.7271 129.029 29.9755 130.085C27.2341 131.741 26.0084 131.008 24.6543 128.014C23.3416 125.116 24.6543 122.838 26.0001 120.693C27.7228 117.948 29.9465 115.521 31.8596 112.887C33.984 109.989 36.6384 108.084 40.2825 107.479C41.4916 107.28 42.5559 106.237 43.8934 105.462C40.945 100.994 37.1394 98.0418 33.4539 95.0395C26.5301 89.3953 19.859 83.4447 14.4964 76.3304C11.3243 72.119 9.22484 67.154 7.98668 61.8369C6.44208 55.174 7.13363 48.507 7.1212 41.8192C7.1212 39.8025 6.14392 38.0923 4.16866 37.3469C3.01332 36.9121 1.78758 36.6554 0.404476 36.2703C0.325797 35.1232 0.247118 33.9554 0.160156 32.7007C4.40056 33.0403 8.33452 33.413 12.2768 33.6573C18.3806 34.0383 24.5093 34.179 30.6049 34.7174C34.6957 35.1236 38.7584 35.7749 42.7712 36.6678C44.4276 37.0239 45.4422 37.1482 46.5271 35.4503C48.3574 32.5806 50.7592 30.067 52.5896 27.2056C53.5273 25.7008 54.0515 23.9753 54.1093 22.2032C54.1921 17.3293 55.5587 12.2648 52.5316 7.70968C51.7034 6.43424 52.3825 5.39899 53.3598 4.4507C57.1488 0.75691 61.911 0.272412 66.7891 0.529155C68.9631 0.640962 71.1123 1.35736 73.2491 1.87084C76.3548 2.64107 77.3197 4.97246 75.7917 7.78421C74.4293 10.2937 73.1 12.8238 71.7583 15.3416L72.3546 16.4224Z" fill="black"/>
</g>
<defs>
<clipPath id="clip0_729_1052">
<rect width="150" height="130.483" fill="white" transform="translate(0.160156 0.471191)"/>
</clipPath>
</defs>
</svg>
