<svg width="151" height="198" viewBox="0 0 151 198" fill="none" xmlns="http://www.w3.org/2000/svg">
<g clip-path="url(#clip0_729_1060)">
<path d="M9.78152 78.4346C7.96474 77.0989 6.47057 76.0405 5.01602 74.9199C1.42209 72.158 0.295799 69.7016 1.29191 66.9171C2.21445 64.3249 6.82147 61.4158 10.1834 62.1459C15.8827 63.391 22.3971 62.8873 26.3872 68.5867C26.6192 68.9206 27.4003 68.8697 27.9719 69.0112C29.3189 67.0189 30.6263 65.0946 32.0639 62.9835L37.1577 64.8852C38.25 58.9934 39.4555 53.5657 40.2366 48.0531C41.2404 41.5489 43.4681 35.2938 46.8019 29.6194C50.6731 22.8277 55.7556 16.7208 60.7588 10.6762C64.8704 5.71422 70.5496 2.30071 76.8607 0.998094C82.0676 -0.0877763 87.4858 0.533432 92.3118 2.76959C94.5248 3.77137 96.7207 4.82974 98.8318 6.02394C100.317 6.86596 101.58 8.04944 102.517 9.4765C103.454 10.9036 104.038 12.5332 104.22 14.2306C104.643 17.1887 104.417 20.2035 103.558 23.0654C101.707 28.6572 100.411 34.5151 96.0189 39.0711C89.98 45.3421 88.2707 52.9601 89.9121 61.5346C91.0044 67.1944 91.044 73.1541 94.57 78.3837C100.824 79.2892 107.253 80.5797 113.734 80.9985C116.983 81.2079 120.446 80.1608 123.616 79.0911C130.889 76.6348 138.065 78.3214 145.174 79.4081C149.492 80.0703 151.179 86.2507 149.549 91.22C146.357 100.921 134.686 104.69 126.689 102.5C119.773 100.609 112.596 99.67 105.623 98.3682C103.818 100.728 104.537 102.647 105.544 104.492C110.638 113.87 115.811 123.214 120.893 132.604C121.873 134.409 123.288 136.379 123.271 138.264C123.231 142.661 125.625 143.969 129.298 144.812C131.641 145.378 133.826 146.6 136.039 147.681C142.751 150.992 144.5 156.963 140.567 163.563C137.516 168.707 132.875 171.99 127.017 172.692C120.865 173.428 114.832 173.224 109.161 169.449C104.82 166.562 99.5393 165.538 94.1059 165.917C92.7476 168.628 93.3419 170.949 94.621 173.116C96.5226 176.348 96.0189 179.597 95.0737 182.947C94.4342 185.211 92.8099 186.224 90.8346 185.511C87.6935 184.379 84.1957 183.321 81.8356 181.153C77.3078 176.988 71.5179 174.361 67.8108 169.126C66.7128 167.57 63.9339 166.772 61.8058 166.466C55.4895 165.566 49.1167 165.091 42.9023 164.457C40.9157 166.63 39.0707 168.487 37.4123 170.496C33.9486 174.718 29.0246 176.818 24.2138 178.657C17.0486 181.397 15.645 187.396 14.2584 193.661C13.9584 195.014 13.6075 196.35 13.217 197.963C4.20668 191.239 -0.751252 181.583 4.52362 172.647C4.72223 172.325 4.87644 171.979 4.98206 171.617C6.60075 165.612 9.50985 160.959 16.4543 160.371C16.726 160.371 16.9581 159.861 17.4674 159.307C16.2619 156.279 17.7957 151.723 11.2417 150.642C18.9616 147.642 26.0646 146.595 31.3225 142.916C30.7169 136.124 29.8906 130.029 29.7038 123.905C29.4774 116.451 31.2149 109.286 35.3635 103.026C37.7236 99.4549 36.4162 94.1687 31.3338 91.8991C30.3547 91.4577 28.5039 91.6105 27.8021 92.2727C27.1003 92.9349 26.9418 94.712 27.2814 95.7591C28.0851 98.2494 29.4774 100.542 30.3547 103.015C31.5375 106.377 30.4339 108.431 27.0041 109.444C17.6203 112.212 9.96829 108.958 3.65768 102.087C-1.3342 96.6363 -0.768231 90.8974 4.13876 84.9942C5.89894 82.8435 7.75533 80.7721 9.78152 78.4346Z" fill="black"/>
</g>
<defs>
<clipPath id="clip0_729_1060">
<rect width="150" height="197.491" fill="white" transform="translate(0.160156 0.47168)"/>
</clipPath>
</defs>
</svg>
