<svg width="151" height="108" viewBox="0 0 151 108" fill="none" xmlns="http://www.w3.org/2000/svg">
<g clip-path="url(#clip0_729_983)">
<path d="M22.4307 20.8236C24.2321 21.6522 25.4382 22.3058 26.727 22.7784C29.7774 23.9047 32.926 24.8008 35.9335 26.0651C39.1588 27.4277 42.3779 26.4794 45.5818 26.372C48.1013 26.2891 50.6054 25.6201 53.1034 25.1445C56.298 24.5307 59.4988 23.9169 62.6566 23.1467C67.6035 21.9376 72.5136 20.5842 77.4421 19.3076C79.3079 18.8258 81.1922 18.4084 83.0611 17.9358C84.3438 17.6106 85.6051 17.1993 86.894 16.9078C88.3333 16.5825 89.1342 15.7601 89.6283 14.3484C90.2421 12.6268 91.1627 11.0249 91.8501 9.32172C94.7839 1.97194 105 -0.587442 110.462 0.87024C111.304 1.085 112.086 1.48732 112.75 2.04709C113.414 2.60686 113.943 3.30958 114.298 4.10268C114.652 4.89577 114.822 5.7587 114.796 6.62689C114.769 7.49508 114.547 8.34604 114.145 9.11611C112.635 12.099 110.769 14.8977 109.063 17.7824C108.652 18.4821 108.293 19.2186 107.869 19.9122C107.028 21.2778 106.967 22.7661 107.977 23.9016C108.438 24.4368 109.026 24.8478 109.687 25.0971C110.348 25.3464 111.061 25.426 111.76 25.3286C114.476 24.9818 117.205 24.7148 119.936 24.497C124.425 24.1287 128.246 28.244 127.724 32.7827C127.086 38.3311 123.735 41.9891 119.319 44.8891C118.239 45.598 116.652 45.6993 116.339 47.2521C115.946 49.2131 114.866 51.0943 115.661 53.224C115.956 54.0957 116.142 55.0008 116.213 55.9184C116.385 57.5541 116.922 59.0793 118.635 59.4076C120.439 59.7513 121.992 59.0609 123.044 57.3393C123.999 55.7742 125.426 54.7339 127.034 53.7181C130.904 51.263 135.16 51.3213 139.417 51.217C140.828 51.1833 141.936 52.5213 142.016 53.9943C142.099 54.7017 142.075 55.4175 141.945 56.1179C140.288 62.4366 143.081 67.2668 147.469 71.2133C149.424 72.9748 149.952 74.7762 149.887 77.0931C149.86 78.2071 149.544 79.407 149.85 80.4197C150.86 83.7432 149.344 86.4192 147.773 89.0124C145.318 93.0417 141.362 93.7261 137.093 93.0632C135.209 92.7717 133.411 91.9891 131.548 91.4705C129.56 90.915 128.218 89.6292 127.194 87.8892C125.745 85.4342 124.238 83.0712 121.611 81.5981C120.213 80.8035 118.716 80.1977 117.159 79.7968C113.352 78.7596 109.606 77.5097 105.939 76.0528C103.91 75.2764 101.999 74.5522 99.7492 74.9204C95.7352 75.5802 91.6936 76.0682 87.6704 76.6543C87.296 76.7065 86.9523 76.9612 86.1176 77.3325C86.8541 77.9095 87.3267 78.5877 87.7809 78.5754C89.5915 78.5386 91.3929 78.2225 93.2034 78.1365C94.1456 78.0905 95.5173 77.4399 95.8948 78.735C96.1249 79.5298 95.7506 80.8432 95.1613 81.4693C93.6546 83.0773 91.8961 84.4583 90.1991 85.8822C89.438 86.5174 88.5788 87.0391 87.4095 87.8646C88.4744 89.0062 89.1987 90.1693 90.239 90.8291C93.7456 93.0612 97.3259 95.1807 100.98 97.1877C101.992 97.7462 103.34 97.6572 104.487 98.007C106.022 98.4766 107.624 98.897 108.989 99.6918C110.355 100.487 110.177 102.598 108.796 103.531C106.399 105.117 103.619 104.811 101.075 104.504C98.1964 104.175 95.324 103.307 92.5958 102.282C89.481 101.113 86.5533 99.4555 83.503 98.1052C80.4526 96.755 78.5929 93.9961 76.4631 91.6454C75.2694 90.335 74.1646 89.4973 72.3018 89.6691C69.8069 89.8901 67.2905 89.8901 64.4242 90.0005C65.5689 91.8817 68.3952 91.5349 68.5579 94.3398C67.6587 94.5761 66.6522 95.0487 65.6425 95.0548C64.2984 95.0548 63.4084 95.506 62.4663 96.4788C60.1432 98.8816 57.8631 101.306 54.3279 102.178C53.1556 102.466 52.0723 103.924 51.3603 105.096C50.3568 106.75 49.0802 107.18 47.2788 107.1C43.2065 106.919 39.1311 106.793 35.0588 106.793C29.9646 106.814 24.8735 107.035 19.7793 107.1C19.0397 107.1 18.294 106.686 17.4501 106.431C17.7907 102.595 20.0524 100.6 23.0291 99.2069C29.9278 95.9632 36.7252 92.5139 42.5099 87.4227C42.906 87.0992 43.3337 86.8165 43.7865 86.5788C47.1346 84.6639 50.5379 82.8349 53.8307 80.8217C56.4269 79.2352 58.8881 77.4246 61.5395 75.6232C58.0288 73.4045 54.6225 73.7205 51.21 74.2054C49.694 74.4202 48.1933 74.7424 46.6896 75.0463C43.7412 75.6136 40.7108 75.6052 37.7655 75.0217C36.6669 74.8222 35.4762 75.1353 33.8344 75.2457L36.492 72.5881L36.3263 71.959C35.2767 71.959 34.1965 71.7964 33.1838 71.9867C27.8717 72.9902 22.4829 72.8521 17.1278 73.251C12.985 73.5579 8.87582 74.4386 4.7759 75.2058C3.26912 75.4882 1.64573 76.3382 0.562439 74.81C-0.557674 73.2019 0.903076 71.9897 1.76541 70.7469C3.74172 67.9266 6.2029 66.0854 9.88853 66.3462C10.6342 66.3984 11.4475 65.9411 12.1871 65.6158C16.5356 63.7101 20.884 61.7982 25.2049 59.8342C26.8893 59.1029 28.5217 58.257 30.0905 57.3024C33.2697 55.2862 36.8418 54.4178 40.4446 53.8592C44.4297 53.3203 48.0401 51.2277 50.4888 48.0377C52.551 45.3955 55.494 44.3337 58.1608 42.7226C59.1643 42.1088 60.2107 41.3999 60.892 40.4793C62.0889 38.8589 61.6807 37.3491 59.9254 36.3947C56.7307 34.6547 53.4809 33.3903 49.7062 33.019C45.505 32.6017 41.4205 31.1961 37.2377 30.3492C35.4299 30.0318 33.603 29.835 31.7691 29.7599C24.6556 29.2689 17.536 28.8577 10.4256 28.3237C8.27741 28.1642 5.84692 27.9217 4.90173 25.6754C4.02712 23.561 5.37739 21.5662 6.91179 20.2773C9.38966 18.2204 12.0303 16.368 14.8078 14.7382C16.6921 13.6088 18.8771 12.992 20.884 12.056C23.1764 10.9911 25.343 9.6777 27.6722 8.75706C29.6639 7.95917 31.8151 7.69526 33.9203 8.56373C35.2583 9.11611 35.8905 10.181 35.3412 11.4852C34.2763 14.0139 33.193 16.561 30.1856 17.5369C28.4517 18.1016 26.7854 18.8872 25.0975 19.593C24.404 19.8753 23.7135 20.2221 22.4307 20.8236ZM55.761 95.3955C54.3033 95.285 53.1126 95.2666 51.9495 95.0886C46.1925 94.1987 40.8773 95.5397 35.7585 98.0592C34.1167 98.8724 32.4749 99.7133 30.5232 99.4095C30.2163 99.3634 29.8634 99.6519 29.3938 99.8422C30.161 101.291 31.4714 101.447 32.5547 101.76C35.1877 102.524 37.8668 103.141 40.5336 103.736C42.602 104.194 44.6857 104.636 46.7847 104.887C48.626 105.111 50.1604 104.372 51.2038 102.739C52.4313 100.864 53.7233 99.0566 54.9478 97.1877C55.273 96.7181 55.4326 96.1443 55.761 95.3801V95.3955ZM64.3536 59.245C62.7701 59.6808 61.1713 59.8311 59.8701 60.5339C57.4427 61.8412 54.8864 62.1021 52.2257 62.3046C50.3171 62.499 48.4334 62.8877 46.6037 63.4646C45.1122 63.8942 44.7808 65.3611 45.726 66.5733C47.1438 68.3931 48.8286 68.4698 51.4647 67.2607C55.4326 65.4409 59.1367 62.9061 63.6386 62.412C64.1515 62.3636 64.6319 62.1391 64.9981 61.7768C65.4294 61.2918 65.6958 60.6826 65.7591 60.0367C65.7684 59.7728 64.8661 59.5028 64.3567 59.2297L64.3536 59.245Z" fill="black"/>
<path d="M29.1506 94.4012C27.1191 92.6888 25.0814 91.0009 23.059 89.264C22.835 89.0707 22.7522 88.6901 22.522 88.5275C20.8065 87.3276 19.6097 85.7656 20.1989 83.6174C20.7881 81.4692 21.9052 79.4991 24.0779 78.425C24.888 78.023 25.6859 77.5995 26.582 77.1392C27.6438 78.2777 28.0581 79.5083 27.7113 80.8371C26.717 84.6669 27.4536 88.2513 28.9788 91.7743C29.2501 92.5006 29.4776 93.2425 29.66 93.9961L29.1506 94.4012Z" fill="black"/>
</g>
<defs>
<clipPath id="clip0_729_983">
<rect width="150" height="106.65" fill="white" transform="translate(0.160156 0.471191)"/>
</clipPath>
</defs>
</svg>
