<svg width="151" height="178" viewBox="0 0 151 178" fill="none" xmlns="http://www.w3.org/2000/svg">
<g clip-path="url(#clip0_729_962)">
<path d="M132.148 49.9822C134.582 53.1754 137.269 54.0748 140.288 54.8057C147.664 56.5934 151.251 61.282 149.845 68.1124C149.176 71.418 147.034 74.5718 145.005 77.4108C143.076 80.1149 140.507 82.358 138.124 84.7191C136.15 86.7036 133.857 88.407 132.086 90.5545C126.52 97.3006 119.369 99.2851 111.06 97.9471C107.929 97.4412 104.877 96.5417 101.762 95.8558C95.5781 94.4897 93.8017 95.4679 90.2656 100.842C87.8594 104.496 85.7682 107.841 89.0344 112.002C92.4075 116.308 95.5388 120.71 102.156 119.788C105.104 119.413 108.094 119.516 111.01 120.091C114.484 120.755 115.89 123.211 115.575 126.708C115.339 129.335 114.173 131.792 112.287 133.637C110.401 135.482 107.919 136.593 105.287 136.771C100.818 137.047 96.3539 137.44 91.879 137.609C83.8736 137.912 75.857 138.199 67.8403 138.261C64.2827 138.262 60.7754 139.101 57.6031 140.712C55.6188 141.688 53.5761 142.54 51.4866 143.264C49.0411 144.136 47.5008 145.89 48.1136 148.324C48.9062 151.556 49.935 154.935 51.7621 157.639C53.0551 159.545 55.8491 160.45 58.0978 161.855C59.7113 165.032 61.5946 168.512 63.2698 172.087C64.9451 175.662 64.3942 176.989 60.459 177.192C56.2314 177.416 51.9701 176.944 47.7257 176.702C47.181 176.559 46.6879 176.265 46.3033 175.854C42.8853 173.06 39.5122 170.249 36.1392 167.438C32.7661 164.627 29.5392 161.636 25.6827 159.196C22.0286 156.88 19.6 152.259 17.3006 148.324C14.7371 143.871 12.0949 139.447 10.7794 134.269C9.65505 129.828 6.9566 125.837 5.30942 121.474C4.32561 118.888 3.99955 116.055 3.43175 113.317C2.48167 108.718 1.79019 104.097 0.553405 99.6224C-0.104341 97.2332 -0.00877136 95.3836 1.35732 93.326C5.34315 87.3501 10.9143 83.5104 17.4468 80.8457C20.7243 79.5077 24.1086 78.2484 27.0657 76.3483C31.5631 73.4531 31.6193 71.0695 28.4992 66.7913C24.564 61.3607 20.6287 55.8907 17.1713 50.1565C13.6184 44.2761 13.2361 37.3894 12.0612 30.7839C11.5721 28.0517 11.1617 25.2858 10.4758 22.5986C8.78929 16.0155 10.7906 11.9903 17.4243 10.405C23.3778 8.97703 29.4999 8.26307 35.532 7.1612C38.8208 6.55967 42.0589 5.70516 45.3533 5.12612C47.9055 4.682 50.5084 4.17042 53.0776 4.2435C58.4239 4.40653 59.7843 5.22731 59.7506 10.36C59.7506 17.5165 64.7652 20.2712 69.5606 23.2901C72.8381 25.3532 76.5147 26.7755 80.0283 28.4677C84.7506 30.7164 85.7738 30.7164 89.3998 27.0004C95.1396 21.1369 100.643 15.0204 106.344 9.14006C113.72 1.59565 122.653 -1.04096 132.94 1.30332C140.035 2.91676 143.717 8.34177 144.87 14.6944C146.972 26.2696 144.611 36.9678 135.566 45.4454C134.256 46.6766 133.356 48.3519 132.148 49.9822ZM41.4124 129.373C42.4974 129.452 43.3013 129.733 43.931 129.513C49.7382 127.518 55.568 125.578 61.2797 123.329C63.5284 122.436 64.5685 119.529 63.3598 117.078C60.4871 111.282 59.5314 105.092 58.7162 98.796C58.2665 95.2993 56.237 94.0175 52.8415 94.5178C50.0306 94.9282 47.9224 96.2044 46.8487 98.9309C45.8873 101.36 44.7911 103.749 44.0378 106.239C41.879 113.739 40.1531 121.339 41.4124 129.373Z" fill="black"/>
<path d="M86.7344 163.952C98.8999 160.416 117.89 160.821 125.907 165.217C122.927 168.562 119.616 171.193 115.287 171.131C109.356 171.041 103.425 170.271 97.5338 169.473C95.8135 169.242 94.2226 167.961 92.5923 167.112C90.6696 166.117 88.8032 165.077 86.7344 163.952Z" fill="black"/>
</g>
<defs>
<clipPath id="clip0_729_962">
<rect width="150" height="176.765" fill="white" transform="translate(0.160156 0.471191)"/>
</clipPath>
</defs>
</svg>
