<svg width="151" height="169" viewBox="0 0 151 169" fill="none" xmlns="http://www.w3.org/2000/svg">
<g clip-path="url(#clip0_729_820)">
<path d="M57.9946 15.2056C59.588 16.9366 60.9713 17.9607 61.6782 19.3325C62.6411 21.1972 63.1073 23.3218 63.7492 25.3508C63.9365 25.9431 63.7492 26.7952 64.1314 27.1582C67.0546 30.1005 66.2636 33.7574 66.126 37.25C66.0343 39.6114 66.3744 41.4953 68.0748 43.4823C69.5383 45.1865 69.9472 47.8117 70.7496 50.0623C71.0324 50.8495 71.0744 51.7245 71.3343 53.1728C73.0156 51.9882 74.3224 51.0979 75.591 50.1617C76.6113 49.3975 77.5016 48.4307 78.5983 47.8346C81.4604 46.2756 83.1837 44.4185 81.7699 40.8457C81.1814 39.344 82.0221 37.8346 83.2028 36.7379C85.1478 34.9305 87.0813 33.0963 89.1562 31.4494C91.2311 29.8025 91.3496 29.3478 89.9663 27.1468C89.3627 26.2252 88.9711 25.1811 88.8199 24.0899C88.4531 20.689 88.2429 17.2843 88.0481 13.8453C87.8876 11.2622 88.5716 9.09558 91.105 7.82313C91.9147 7.45204 92.6158 6.8798 93.1417 6.16092C95.8967 1.79715 100.169 0.689009 104.911 0.471203C109.042 0.287787 111.953 3.45554 111.132 7.54037C110.528 10.5362 109.424 13.3027 107.093 15.5839C103.214 19.3745 103.356 22.0226 107.188 25.9699C108.77 27.6053 110.383 29.2179 111.888 30.9374C114.64 34.044 114.632 36.8793 112.228 40.005C112.5 42.0188 112.886 43.7307 112.935 45.4502C113.054 49.7758 116.206 52.0035 120.081 50.2763C121.808 49.5121 123.402 48.4536 125.048 47.5327C127.685 46.0692 130.853 46.7685 131.812 49.4662C133.661 54.6439 137.964 57.7009 141.434 61.5182C144.364 64.7356 147.807 67.59 149.607 71.7284C149.908 72.2813 150.092 72.8899 150.15 73.5167C150.127 74.4834 150.15 76.0386 149.638 76.2679C148.816 76.65 147.547 76.3214 146.554 76.0157C144.635 75.4958 142.767 74.8052 140.971 73.9523C135.755 71.2775 130.432 69.2561 124.54 68.2855C122.114 67.9034 119.638 67.4257 117.162 67.1391C115.037 66.9061 113.596 67.7849 112.687 69.856C111.415 72.7448 109.718 75.4464 108.484 78.3505C107.834 79.8789 107.807 81.7016 107.54 83.1537C107.828 83.4634 108.146 83.7449 108.487 83.9943C112.966 86.0998 113.409 87.7429 110.574 91.7895C110.066 92.5155 109.718 93.5511 109.019 93.9141C104.021 96.5201 101.021 101.499 96.3285 104.449C93.9594 105.939 93.9518 106.077 95.0332 109.034C95.2739 109.099 95.5337 109.26 95.7554 109.218C99.7141 108.492 100.341 109.134 99.2861 113.005C98.862 114.59 98.4378 116.176 98.0022 117.762C97.3182 120.253 96.3667 120.731 93.6614 121.041C91.4375 121.346 89.2588 121.919 87.173 122.749C84.3568 123.803 81.6552 125.164 78.5907 126.532L80.9254 134.529C69.8096 138.228 61.6285 133.895 54.6128 127.089C50.0274 128.175 45.7554 129.222 41.4718 130.188C38.1512 130.953 35.3885 132.309 33.8562 135.634C33.2898 136.771 32.4246 137.732 31.3534 138.415C30.2491 139.115 28.797 139.715 27.5589 139.611C26.9548 139.511 26.3786 139.285 25.8677 138.947C25.3568 138.609 24.9228 138.168 24.5937 137.651C24.2842 137.109 25.2166 135.699 25.8165 134.839C26.3094 134.14 27.173 133.712 27.8226 133.112C28.2773 132.687 29.0225 132.16 29.0034 131.705C28.8047 127.311 32.3545 125.16 34.6205 122.294C35.8624 120.723 37.6124 119.562 39.0683 118.148C40.3255 116.925 41.7699 115.771 42.6335 114.296C44.3772 111.319 46.9379 108.904 50.0121 107.338C51.2426 106.684 52.3889 105.809 53.6881 105.351C56.5502 104.357 56.8788 102.294 57.3908 99.5618C58.2659 94.8656 57.1692 91.5373 53.348 88.8357C52.4386 88.1938 51.8196 87.1468 51.0553 86.3138C50.8507 86.1718 50.6213 86.0694 50.379 86.0119C50.1382 86.0769 49.7561 86.0616 49.6797 86.2068C47.1883 90.8954 42.5532 91.6099 38.071 92.0302C34.6854 92.3474 31.3763 91.4494 30.6465 87.3761C25.935 87.5595 24.823 88.9045 25.6293 93.0085C26.9437 99.7108 30.2682 105.515 33.7378 111.258C34.1027 111.773 34.3624 112.355 34.502 112.97C31.8586 111.178 29.6251 108.845 27.9487 106.127C25.4726 102.178 23.0984 98.1581 20.826 94.0669C18.9155 90.5897 20.2567 85.5916 23.2219 82.848C30.5777 76.0463 39.4542 71.6443 48.0901 66.8717C49.7064 65.9775 51.682 65.6412 53.5429 65.3164C54.9338 65.0719 56.0037 65.7788 56.2177 67.3455C56.3056 67.9416 56.3782 68.5377 56.5387 69.7375L65.5032 60.0012C62.8589 59.9706 61.682 61.1858 60.3293 61.8812C55.3618 64.4338 47.6163 62.3359 44.9835 57.8499C43.9747 56.1304 43.8371 54.5369 44.6014 52.7945C46.7527 47.9798 45.8203 43.062 45.037 38.1747C44.9109 37.3875 44.1466 36.6882 43.6308 35.9813C40.5318 31.778 40.742 29.1644 44.2613 25.2821C46.3362 22.9894 48.4646 20.9794 51.5215 19.9821C52.7519 19.6 53.6957 18.3313 54.8001 17.5022C55.9044 16.673 56.9781 15.9317 57.9946 15.2056ZM74.4256 58.744C77.7385 56.2373 80.9216 54.0937 82.2361 50.261C85.5261 51.1055 85.3962 51.052 86.5234 48.4231C87.1424 46.9787 88.2238 45.7024 89.2632 44.4911C89.4351 44.2886 90.4592 44.8197 91.4489 45.1216C91.5674 40.8533 94.1237 37.2003 93.199 32.4315C91.9151 33.3333 91.0706 33.8338 90.3408 34.4796C89.5192 35.1751 88.8925 36.1189 88.0175 36.7188C85.6445 38.3543 84.2575 40.4903 84.4562 43.4135C84.6205 45.8094 83.6652 47.441 81.7813 48.8931C79.3243 50.8036 77.1959 53.0963 74.7466 55.0069C73.1837 56.2106 73.7263 57.1965 74.4371 58.744H74.4256ZM59.9892 25.24C59.8325 26.7265 59.8402 28.2549 59.4772 29.684C59.1333 31.0329 58.4034 32.2863 57.643 34.0325L61.105 32.9511C62.11 30.1808 61.2999 27.6665 59.9892 25.24ZM82.8207 68.232C84.6358 67.9607 87.3297 66.1304 88.0213 64.6325L85.8509 65.2247C87.1654 63.4135 87.238 63.1842 87.1807 60.945L82.8207 68.232ZM78.4149 118.927C75.912 117.884 74.0282 118.366 73.4703 119.99C73.3327 120.395 73.3824 121.167 73.6384 121.342C74.074 121.644 74.9453 121.897 75.2815 121.663C76.3706 120.918 77.2953 119.94 78.4149 118.927ZM78.0328 72.825L80.2834 75.6451L80.9407 75.3623V72.099L78.0328 72.825ZM57.3641 42.164L56.5387 42.3971C56.7399 43.0823 56.9412 43.7689 57.1424 44.4567L57.6698 44.3077C57.5666 43.5931 57.4787 42.8862 57.3641 42.164ZM77.9984 78.3122L78.8734 78.8243L79.7943 77.1544C79.5202 76.9861 79.2356 76.8355 78.9422 76.7035C78.5957 77.2226 78.2768 77.7596 77.9869 78.3122H77.9984ZM91.5788 48.1861L90.8146 47.5365C89.439 47.8155 89.0339 48.6829 89.4046 50.8877L91.5788 48.1861ZM84.5326 74.0707C84.0664 73.6504 83.6843 73.1881 83.5926 73.2416C83.2083 73.4749 82.8807 73.7908 82.6335 74.1663C82.5953 74.2236 83.092 74.8426 83.2563 74.8082C83.6423 74.7242 83.9862 74.4032 84.5211 74.0707H84.5326ZM88.4302 62.7563L89.1944 63.3103C89.5307 62.7066 89.8682 62.1028 90.207 61.4991L89.7217 61.1667L88.4302 62.7563ZM77.2724 73.2568C76.7835 72.8865 76.2661 72.5555 75.7248 72.2672C75.6484 72.2328 75.1019 72.9282 75.1478 72.9855C75.4664 73.4036 75.8541 73.7641 76.2941 74.0516C76.4088 74.1128 76.8024 73.6733 77.2838 73.2645L77.2724 73.2568Z" fill="black"/>
<path d="M119.572 111.163C118.426 112.917 119.091 114.422 119.955 115.592C122.503 119.004 124.861 122.565 128.201 125.381C129.767 126.7 130.623 128.859 132.121 131.113C128.22 130.158 126.661 126.837 123.974 125.099C121.109 123.29 118.399 121.245 115.874 118.985C113.378 116.692 111.288 113.975 108.705 111.109C108.762 110.238 109.06 108.492 108.942 106.772C108.755 103.968 109.523 101.614 111.059 99.2599C112.595 96.9061 113.581 94.3497 114.758 91.8507C116.229 88.7326 117.719 85.5954 120.512 83.4441C121.794 82.4213 123.287 81.6968 124.884 81.3233C128.227 80.672 131.457 79.5353 134.471 77.9492C136.148 77.0644 137.975 76.5007 139.859 76.287C143.141 75.9279 144.911 77.8155 143.974 80.8724C143.219 83.4034 141.983 85.7648 140.333 87.827C138.701 89.8025 137.016 91.4647 136.474 94.1854C136.183 95.6298 134.758 96.9061 133.696 98.1288C132.431 99.5885 130.879 99.2102 129.148 98.8358C125.553 98.0715 118.449 101.916 117.012 105.217C116.749 105.828 116.909 106.619 116.84 107.972C120.803 106.543 124.387 105.458 127.792 103.964C130.681 102.695 133.344 100.907 136.137 99.4319C140.008 97.3684 144.097 97.2079 148.25 98.0333C149.122 100.987 147.513 104.969 144.67 106.864C143.623 107.563 142.484 108.278 141.284 108.576C136.26 109.818 131.227 111.109 126.126 111.95C124.135 112.279 121.942 111.48 119.572 111.163Z" fill="black"/>
<path d="M24.524 49.6266C27.8484 53.165 25.6704 56.5888 25.529 59.9438L36.6104 55.6297C38.521 58.6637 36.7556 61.1589 35.9378 63.4134C34.2221 68.1478 30.5882 69.8597 25.6207 68.9885C22.5676 68.4879 22.1014 67.7237 22.7663 64.6668C22.8398 64.0544 22.8742 63.4379 22.8695 62.8211C18.6929 64.0019 14.7151 64.9534 10.8633 66.2602C7.0116 67.567 3.4923 68.1135 0.164062 65.3011C1.58936 63.2873 2.67839 60.7157 4.6119 59.214C9.503 55.4348 13.4885 50.0432 20.378 49.4623C21.1255 49.3626 21.8785 49.3103 22.6325 49.3057C23.2696 49.3697 23.9015 49.4769 24.524 49.6266Z" fill="black"/>
<path d="M139.19 141.541C139.603 145.974 137.077 150.28 133.654 151.915C130.597 153.383 127.635 155.083 124.559 156.528C123.424 156.993 122.219 157.265 120.994 157.334C119.679 157.464 118.319 157.361 116.863 157.361C117.226 156.799 117.7 156 118.231 155.24C120.524 151.961 123.611 149.351 126.256 146.375C129.286 142.924 134.051 141.545 139.19 141.541Z" fill="black"/>
<path d="M39.9395 161.209C40.5394 159.466 41.5787 158.477 43.5963 158.782C45.3961 159.054 46.6838 159.929 47.2837 161.614C47.8837 163.299 48.2161 164.984 46.6991 166.532C44.2192 169.065 42.6525 169.119 40.2031 166.562C43.134 167.46 43.134 167.46 44.6318 163.364L42.1099 163.49C41.5176 162.615 42.8703 159.852 39.9395 161.209Z" fill="black"/>
<path d="M111.674 78.9084C111.227 78.5607 110.699 78.2359 110.73 78.1442C110.947 77.627 111.259 77.1552 111.651 76.7533C111.731 76.6769 112.338 77.1545 112.702 77.38L111.674 78.9084Z" fill="black"/>
<path d="M15.4989 34.7319C14.834 35.3356 14.3831 35.9279 14.2226 35.8783C13.7227 35.6034 13.2834 35.2304 12.9311 34.7816C12.9005 34.751 13.3782 34.0364 13.5769 34.0556C14.0965 34.0976 14.5895 34.3804 15.4989 34.7319Z" fill="black"/>
<path d="M52.842 98.1899C53.2891 98.595 53.7859 98.8472 53.8737 99.1987C53.9387 99.4547 53.4572 99.8445 53.2165 100.173C52.8546 99.9118 52.5327 99.599 52.2612 99.2446C52.181 99.0994 52.5478 98.6982 52.842 98.1899Z" fill="black"/>
<path d="M39.901 161.232C39.766 162.926 39.6386 164.617 39.5189 166.306C37.9254 164.484 38.5559 162.829 39.901 161.232Z" fill="black"/>
</g>
<defs>
<clipPath id="clip0_729_820">
<rect width="150" height="167.986" fill="white" transform="translate(0.160156 0.471191)"/>
</clipPath>
</defs>
</svg>
