<svg width="151" height="176" viewBox="0 0 151 176" fill="none" xmlns="http://www.w3.org/2000/svg">
<g clip-path="url(#clip0_729_943)">
<path d="M85.6388 104.083C84.8988 106.051 83.8959 107.783 83.648 109.633C82.8783 115.354 82.1382 121.105 81.8903 126.866C81.7176 131.771 81.9006 136.682 82.438 141.561C82.7287 143.997 83.5388 146.343 84.8136 148.44C87.3373 152.629 90.2052 156.621 93.0915 160.581C95.4745 163.844 98.1536 166.897 100.581 170.135C101.643 171.549 102.405 173.184 103.715 175.416C97.8798 175.416 92.8806 175.475 87.885 175.356C86.892 175.294 85.9625 174.847 85.2947 174.109C80.7284 168.355 76.0104 162.69 72.8132 155.977C71.5995 153.432 70.4708 150.845 69.2756 148.288C69.0236 147.727 68.6948 147.204 68.2987 146.734C63.6806 141.475 59.7063 135.755 56.0614 129.79C55.7506 129.275 55.1844 128.927 54.7848 128.461C53.275 126.715 51.7504 124.975 50.3036 123.177C49.7966 122.544 49.4969 121.745 48.7346 121.305C47.5875 123.791 48.0278 125.582 49.508 127.266C50.2037 128.054 50.9882 129.053 51.0881 130.015C51.4322 133.916 53.6784 136.82 55.8098 139.803C57.7303 142.478 59.6397 145.172 61.6824 147.755C64.9461 151.885 68.3431 155.918 71.6254 160.018C72.5209 161.128 73.3276 162.313 74.138 163.489C75.792 165.887 77.5164 168.248 79.0262 170.738C79.7663 171.937 80.0438 173.399 80.61 174.953C76.4396 176.263 76.2953 170.827 72.8576 171.219C72.7762 172.052 72.6911 172.944 72.5653 174.257C71.5588 173.595 70.7151 173.184 70.0342 172.563C68.3431 170.975 70.1082 169.713 70.7225 168.148C66.5743 163.889 62.378 159.667 58.278 155.348C55.7728 152.71 54.1113 149.313 50.8031 147.359C49.9816 146.871 49.73 145.487 49.0713 144.628C46.8511 141.716 44.4273 138.952 42.3477 135.947C40.5826 133.394 39.1431 130.604 37.6297 127.88C36.4973 125.838 35.5352 123.702 34.3881 121.671C31.2776 116.098 29.2947 109.967 28.5525 103.628C27.942 98.7764 27.2722 98.003 22.4728 96.6819C21.1811 96.3215 19.9182 95.8651 18.6946 95.3165C14.6908 93.5403 10.3095 92.7928 6.48328 90.4245C3.96329 88.8778 2.37952 86.639 0.991862 84.2596C-0.617818 81.4806 0.207374 78.2428 2.57564 75.9596C3.71907 74.8495 4.8773 73.7616 5.98742 72.6292C8.02635 70.5459 10.3724 69.2249 13.3549 68.9288C17.492 68.5144 21.0333 66.4866 24.4007 64.2182C26.2805 62.949 26.04 61.5835 24.3045 60.1478C21.3922 57.7166 18.3468 55.3372 15.9045 52.4842C13.5215 49.6867 13.6436 45.9567 14.5909 42.5967C15.331 39.9583 17.9213 38.8963 20.3191 37.8898C25.755 35.6214 31.5129 34.5594 37.2189 33.3568C39.1505 32.946 40.4124 31.9691 41.4226 30.2003C44.6901 24.4869 49.4118 20.2832 55.6026 17.9889C59.3696 16.5828 63.2143 15.1914 67.1479 14.4772C74.4525 13.1488 80.8394 15.036 85.2614 21.4377C87.452 24.6016 89.8795 27.3917 93.4023 29.2086C95.0786 30.0634 96.581 30.6888 98.5607 30.6888C103.59 30.7443 108.733 30.6295 113.595 31.6768C117.766 32.576 122.28 32.9608 125.933 35.8693C128.319 37.775 128.834 39.8843 128.097 42.6744C127.357 45.5237 126.695 48.41 126.199 51.3112C125.503 55.3483 126.769 59.0117 128.46 62.6418C131.161 68.4256 134.932 73.5395 138.266 78.9237C138.747 79.7044 139.513 80.3261 140.213 80.9515C144.087 84.4188 146.381 89.0295 149.142 93.2961C151.166 96.4229 150.078 98.1806 146.429 98.6913C143.991 99.0354 141.811 98.769 139.691 97.6477C137.841 96.6782 136.401 96.8152 135.513 98.9355C135.351 99.2711 135.103 99.5582 134.795 99.7681C131.191 102.325 131.657 105.537 134.229 110.296C135.195 112.076 136.856 113.471 137.885 115.225C139.502 117.982 138.869 120.139 136.616 122.355C135.176 123.769 133.419 124.158 131.661 124.498C126.155 125.564 120.704 125.564 115.527 122.981C114.036 122.187 112.701 121.13 111.586 119.861C109.436 117.586 106.864 115.421 104.048 114.133C99.6817 112.185 95.5493 109.749 91.7297 106.873C90.157 105.652 88.0293 105.148 85.6388 104.083ZM66.8888 96.1602C66.7149 94.8946 66.3967 93.1999 66.2598 91.5162C66.06 88.9555 64.8055 87.1608 62.6186 85.9285C60.7091 84.8554 58.8663 83.6454 56.9014 82.6907C54.448 81.5028 52.8902 82.1726 52.7755 84.7629C52.583 89.1183 52.5053 93.5292 53.0086 97.8439C53.3786 100.96 54.4295 104.101 55.7358 106.977C58.4445 112.964 61.4862 118.818 64.5021 124.646C64.8721 125.349 65.9045 125.704 66.6298 126.219C67.0443 125.401 67.8028 124.59 67.8139 123.769C67.8435 120.461 67.9028 117.108 67.4698 113.848C66.7223 108.124 66.0599 102.41 66.8999 96.175L66.8888 96.1602ZM27.942 93.1184C28.1862 92.7299 28.5118 92.4487 28.5451 92.1304C28.9152 88.6113 29.374 85.0996 29.5295 81.5657C29.5702 80.6258 28.9189 79.3455 28.1751 78.7386C25.6736 76.6294 23.0426 74.6682 20.3487 72.7958C18.7835 71.7152 17.3884 72.0335 16.4929 73.3064C13.4512 77.6063 13.947 82.2355 17.8176 85.8175C19.5198 87.3902 21.148 89.0258 22.902 90.5578C24.3378 91.827 25.7365 93.2776 27.942 93.1184ZM93.628 91.9824L93.6576 92.1304C95.704 91.7826 97.8169 91.6457 99.767 91.0203C100.929 90.6503 102.405 89.6586 102.727 88.6261C103.611 85.7086 104.246 82.7216 104.626 79.697C104.903 77.721 103.593 76.7367 101.665 77.2215C100.841 77.4154 100.053 77.7389 99.3304 78.1799C95.4523 80.6999 92.7658 84.4003 90.194 88.0896C88.5104 90.4986 89.5317 91.8862 92.5401 91.9972C92.8917 91.9935 93.258 91.9824 93.628 91.9824ZM118.528 68.9029L116.326 72.0742C119.457 72.3295 119.457 72.3295 118.528 68.9029Z" fill="black"/>
<path d="M76.8362 0.471191C77.5597 0.485486 78.2506 0.774523 78.7688 1.27964C79.287 1.78475 79.5935 2.4681 79.6263 3.191C79.7743 5.68508 77.6762 8.00154 75.2413 8.00154C73.7611 8.00154 71.6038 5.70358 71.5668 4.04579C71.5298 2.38801 74.1941 0.541499 76.8362 0.471191Z" fill="black"/>
</g>
<defs>
<clipPath id="clip0_729_943">
<rect width="150" height="174.982" fill="white" transform="translate(0.160156 0.471191)"/>
</clipPath>
</defs>
</svg>
