<svg width="151" height="159" viewBox="0 0 151 159" fill="none" xmlns="http://www.w3.org/2000/svg">
<g clip-path="url(#clip0_729_1106)">
<path d="M112.036 74.2338C112.464 77.0891 112.699 79.589 113.241 82.0226C115.964 94.7088 115.44 107.51 114.506 120.292C114.228 124.469 113.379 128.587 111.982 132.533C107.808 143.93 97.5248 146.454 88.1095 138.858C81.9652 133.918 78.2003 127.575 75.5618 120.232C73.4716 114.413 70.7066 108.829 68.0079 103.251C67.3031 101.787 65.7189 100.745 63.5081 98.4316C62.5744 100.088 61.9298 101.088 61.4238 102.16C58.1047 109.13 54.8699 116.13 51.5568 123.081C49.9303 126.497 48.587 130.201 44.4065 131.46C40.9367 132.509 39.6416 131.78 39.0512 128.135C38.7982 126.581 38.4489 124.756 39.0091 123.412C43.286 113.088 46.7678 102.329 54.3036 93.6848C61.0022 86.0104 69.5922 84.0044 79.2665 86.2513C80.7462 86.7478 81.9821 87.7878 82.7242 89.1609C85.5916 94.6366 88.3746 100.172 90.8203 105.841C92.8684 110.576 95.037 115.166 98.8139 119.13C99.344 113.973 100.621 109.022 99.4163 103.925C97.1092 94.4076 95.043 84.8177 92.4346 75.3843C90.7745 69.1876 90.1096 62.7664 90.4649 56.361C90.7841 49.2107 97.6332 42.1929 104.723 41.5845C105.121 41.5483 105.524 41.5845 105.928 41.5845C114.542 41.0965 114.494 41.1146 117.301 49.5721C118.771 53.9996 121.373 57.1019 126.337 58.1922C132.74 59.5898 139.282 60.9451 144.505 65.4209C144.665 65.5416 144.841 65.639 145.029 65.71C146.776 66.457 149.782 66.9148 150.011 67.993C150.462 70.0652 149.631 72.5832 148.806 74.7337C148.087 76.6235 146.955 78.3286 145.492 79.7238C144.029 81.1191 142.272 82.1692 140.35 82.797C138.428 83.4249 136.39 83.6147 134.385 83.3525C132.381 83.0903 130.46 82.3827 128.765 81.2817C124.445 78.4264 120.379 75.059 115.024 74.2579C114.03 74.1901 113.032 74.1821 112.036 74.2338Z" fill="black"/>
<path d="M46.008 66.9448C44.4358 74.7396 43.0864 82.6068 41.2311 90.3715C36.9059 108.347 26.7618 122.708 13.1117 134.803C10.8648 136.791 8.62996 138.821 6.20235 140.58C3.5639 142.496 1.6965 141.785 0.708591 138.773C-0.219082 135.936 -0.122701 133.237 2.19648 130.978C4.92529 128.334 7.29267 125.135 10.4251 123.147C19.9729 117.015 24.4667 107.588 28.4966 97.6243C33.0687 86.2392 33.4844 74.2156 34.6831 62.2522C35.665 52.4213 34.0024 43.3192 30.4664 34.1148C28.7435 29.8222 27.8889 25.2306 27.952 20.6056C28.015 15.9806 28.9946 11.414 30.8339 7.17006C31.1471 6.43515 31.3459 5.54965 31.882 5.02557C33.894 3.00156 35.6349 0.0679392 39.0564 0.519728C42.2129 0.935374 42.9298 3.90513 43.4539 6.36889C44.6586 12.0434 46.1044 17.772 46.2911 23.5188C46.5441 31.7956 49.6223 38.6206 54.6643 44.8673C56.2079 46.7116 57.6057 48.6733 58.8448 50.7346C62.4591 56.9994 59.2846 65.2942 52.3571 67.2098C50.6042 67.6978 48.544 67.0893 46.008 66.9448Z" fill="black"/>
<path d="M147.312 109.124C147.312 112.082 147.8 113.768 147.215 114.895C145.973 117.342 144.391 119.601 142.517 121.605C140.234 123.979 137.86 123.973 136.342 122.208C135.053 120.684 135.336 116.576 137.21 115.238C139.914 113.287 142.926 111.738 147.312 109.124Z" fill="black"/>
<path d="M71.4341 144.399C70.5968 150.152 69.2836 153.965 65.844 156.658C64.7838 157.489 63.6031 158.465 62.3502 158.688C60.5731 159.019 58.9467 158.007 59.5069 156.007C60.1093 153.803 60.9707 151.285 62.555 149.815C64.7778 147.761 67.7837 146.55 71.4341 144.399Z" fill="black"/>
</g>
<defs>
<clipPath id="clip0_729_1106">
<rect width="150" height="158.277" fill="white" transform="translate(0.160156 0.47168)"/>
</clipPath>
</defs>
</svg>
