<svg width="151" height="305" viewBox="0 0 151 305" fill="none" xmlns="http://www.w3.org/2000/svg">
<g clip-path="url(#clip0_729_1064)">
<path d="M89.0239 304.618C76.0555 300.454 64.4731 293.91 57.5903 282.048C46.4897 262.946 40.6063 242.512 46.7753 220.18C47.6557 216.997 48.2327 213.737 48.9704 210.43C43.7592 210.121 41.2369 212.143 41.1953 216.343C41.2801 217.926 41.4649 219.501 41.7485 221.06C43.5331 235.867 29.6842 241.846 18.9644 237.069C10.0769 233.107 6.28746 224.576 8.60751 215.415C9.27832 212.943 10.58 210.688 12.385 208.871C17.5724 203.755 23.0929 198.984 28.5064 194.077C39.8092 183.791 52.3315 175.165 65.2702 167.063C74.949 161.001 81.8318 152.566 85.1929 141.358C86.7812 136.046 89.1845 131.031 87.2095 125.266C85.9841 121.697 85.5676 121.102 81.7782 121.471C69.6129 122.714 59.1726 127.789 49.3749 135.046C41.6414 140.769 37.6081 147.914 36.5968 157.342C36.2756 160.317 34.5742 163.256 33.0275 165.933C30.755 169.859 27.1798 170.811 22.7776 169.704C21.8397 169.523 20.9509 169.145 20.1696 168.595C19.3882 168.046 18.7322 167.337 18.2446 166.516C15.2107 161.864 14.83 157.152 15.996 151.864C18.2744 141.53 23.6105 133.5 32.2422 127.319C37.852 123.309 42.7836 118.354 48.3041 114.231C50.9157 112.292 54.3362 111.483 57.2274 109.9C63.7711 106.331 70.3981 102.827 76.7217 98.8654C79.8865 96.8785 79.7794 93.2556 78.2089 90.2872C74.134 82.5537 72.8133 74.2669 72.2601 65.766C72.0638 62.9284 70.8264 61.2509 68.0364 61.007C61.7723 60.4121 55.4963 59.609 49.2143 59.5138C38.1911 59.3413 27.156 59.5138 16.1268 59.7874C11.2726 59.8767 6.40644 60.5548 0.160156 61.1497C1.74255 59.6566 2.27199 58.7167 2.93826 58.6036C10.4873 57.283 17.5605 53.9159 25.5439 54.1777C29.5296 54.3086 33.5331 52.2324 37.5962 51.5483C46.5195 50.0432 55.5855 49.377 64.2292 46.355C68.5421 44.8499 69.369 44.1539 69.2143 39.6268C68.8217 28.0861 73.3309 18.4192 80.9513 10.2396C85.9186 4.86776 92.7182 2.25622 99.7675 0.769009C104.033 -0.123317 107.906 1.06645 111.344 3.97543C121.897 12.8392 126.811 26.6643 121.683 40.7155C118.667 49.0082 118.709 57.3722 120.803 65.772C121.163 66.8982 121.65 67.9798 122.254 68.9963C124.681 73.7018 127.061 78.4371 129.613 83.0772C131.249 86.0516 131.13 89.0855 130.803 92.2919C129.976 100.739 128.774 109.199 128.762 117.652C128.762 126.498 129.589 135.32 132.742 143.874C136.412 153.815 134.527 163.03 126.65 170.495C124.039 172.964 123.081 175.79 122.337 179.252C119.768 191.596 120.023 204.088 120.374 216.51C120.541 222.286 122.647 228.116 124.503 233.714C127.543 242.899 130.636 252.119 134.568 260.936C138.09 268.824 142.778 276.194 146.948 283.791C148.019 285.736 149.077 287.687 150.142 289.633L149.196 290.323C148.602 289.99 147.751 289.811 147.412 289.294C140.535 279.181 133.89 268.877 126.829 258.883C121.58 251.507 117.001 243.677 113.146 235.486C108.245 224.981 100.6 216.391 94.4136 206.795C93.3923 205.117 92.4571 203.387 91.6117 201.614C89.8925 198.229 88.1851 197.896 86.0555 200.876C84.2928 203.278 82.808 205.873 81.6295 208.61C76.9418 219.942 72.1411 231.287 72.2601 243.934C72.2601 245.124 72.0578 246.313 72.2601 247.473C73.9912 256.349 75.0858 265.32 78.1673 273.969C80.5468 280.668 82.4624 287.491 85.9365 293.743C87.1857 295.98 88.4112 298.235 89.6961 300.454C90.648 302.078 90.5171 303.422 89.0239 304.618Z" fill="black"/>
</g>
<defs>
<clipPath id="clip0_729_1064">
<rect width="150" height="304.146" fill="white" transform="translate(0.160156 0.47168)"/>
</clipPath>
</defs>
</svg>
