<svg width="151" height="230" viewBox="0 0 151 230" fill="none" xmlns="http://www.w3.org/2000/svg">
<g clip-path="url(#clip0_729_1032)">
<path d="M133.165 4.12629C133.321 3.14986 133.473 2.17864 133.744 0.471191C137.953 4.20983 143.399 5.0244 146.307 9.75514C151.075 17.5092 151.278 25.6757 147.691 33.6229C142.344 45.4811 133.243 53.7677 121.061 58.4306C118.783 59.267 116.397 59.7768 113.975 59.9449C105.882 60.608 97.8878 61.2711 90.3531 64.968C87.1888 66.5345 83.3562 66.8948 79.769 67.3647C73.7799 68.1427 67.8899 69.5995 61.7024 69.2131C57.4364 68.9416 52.998 69.5473 48.7947 70.4663C42.5288 71.8396 38.4507 76.5808 34.5137 81.1967C30.1014 86.3712 27.3862 92.5849 24.4987 98.6785C23.0889 101.613 21.5694 104.49 20.0029 107.331C15.3818 115.581 15.8257 124.745 15.5646 133.653C15.2356 144.096 16.1912 154.575 19.1309 164.528C21.8514 173.712 25.1044 182.939 31.2815 190.667C33.2292 193.1 34.9053 195.753 36.832 198.212C39.6099 201.757 42.4818 205.131 46.4763 207.553C51.6456 210.686 56.3973 214.498 61.5301 217.704C65.6342 220.268 70.036 222.346 74.2864 224.685C75.6022 225.411 76.8345 226.252 78.5524 227.348C75.8111 229.808 73.1481 229.808 70.5686 228.868C66.6838 227.458 62.9294 225.677 59.0811 224.116C54.8203 222.377 50.3455 221.281 46.9984 217.563C45.432 215.809 42.5497 215.229 40.3201 214.018C39.2757 213.449 38.1166 212.832 37.4012 211.929C32.6443 205.914 26.5821 201.136 22.0916 194.745C19.2197 190.688 15.9405 186.913 14.066 182.291C11.5179 176.026 9.26216 169.671 7.19964 163.243C5.68539 158.544 4.63063 153.651 3.49233 148.816C3.17868 147.309 3.05761 145.769 3.13204 144.231C3.24692 139.349 2.66732 134.619 0.521258 130.133C0.235623 129.52 0.111593 128.844 0.16097 128.17C0.683127 123.021 1.12174 117.857 1.89453 112.735C3.16859 104.239 4.5993 95.7648 6.124 87.3111C6.94901 82.8937 8.08209 78.5232 9.03764 74.0953C10.531 67.2133 14.8179 62.1484 19.6687 57.3863C23.8826 53.2613 28.5141 49.3973 31.9603 44.6927C37.6153 36.97 45.385 31.8163 52.8466 26.4537C58.888 22.1198 66.1929 19.9633 73.7746 19.0652C82.7453 18.0209 91.3296 15.6764 99.3969 11.2746C103.052 9.29042 107.417 8.66383 111.453 7.37933C112.175 7.17965 112.856 6.85825 113.469 6.429C115.291 5.01918 117.124 4.78943 119.343 6.21492L123.259 2.84178C125.291 5.6301 121.557 9.05545 124.695 11.2485C120.236 15.3109 122.852 20.1931 122.711 24.7254C126.888 26.1561 128.089 22.6368 130.215 20.9711C130.737 20.5429 130.815 19.4986 131.201 18.4647L127.875 17.2742L131.87 14.5694C128.356 14.0786 125.03 15.0446 124.56 11.1232C127.531 10.0006 124.706 6.79973 127.17 4.82598C126.648 8.84659 128.33 11.0553 131.87 11.7968C136.198 6.99293 136.198 6.99293 132.987 4.00619L133.165 4.12629Z" fill="black"/>
</g>
<defs>
<clipPath id="clip0_729_1032">
<rect width="150" height="228.976" fill="white" transform="translate(0.160156 0.471191)"/>
</clipPath>
</defs>
</svg>
