<svg width="151" height="265" viewBox="0 0 151 265" fill="none" xmlns="http://www.w3.org/2000/svg">
<g clip-path="url(#clip0_729_1076)">
<path d="M96.732 239.879C99.0289 243.593 101.574 245.569 105.526 244.654C106.044 244.524 106.902 244.923 107.373 245.342C110.715 248.275 114.005 251.265 117.28 254.276C117.704 254.664 117.926 255.264 118.78 256.624C114.993 254.084 112.158 251.999 109.142 250.23C107.381 249.181 105.458 248.429 103.452 248.006C99.9445 247.318 98.1029 249.63 97.0269 252.444C93.2609 253.996 87.3635 248.735 85.8685 256.49L93.1419 262.397C93.0074 262.796 92.878 263.199 92.7487 263.598C91.3209 263.598 89.8828 263.515 88.4602 263.598C84.9063 263.846 81.3627 264.296 77.8036 264.41C76.3654 264.456 74.6376 264.229 73.5099 263.453C65.626 258.042 56.3299 255.719 47.8718 251.555C46.6303 250.944 44.8869 251.275 43.3816 251.28C40.5932 251.28 39.4034 250.463 39.6621 247.726C40.0449 243.686 38.1101 241.032 35.5236 238.265C25.8343 227.794 15.7622 217.572 8.41122 205.234C4.91936 199.378 1.55683 193.3 1.44302 186.094C1.40428 185.061 1.18726 184.042 0.80155 183.083C-0.610714 179.41 0.3877 176.358 3.02599 173.658C3.5071 173.166 4.02441 172.706 4.53655 172.245C9.23375 168.009 10.5891 162.727 8.89232 156.793C5.66946 145.536 5.4315 134.078 6.00572 122.521C6.05773 120.297 6.82508 118.15 8.19395 116.396C11.2564 112.356 14.6035 108.771 19.1092 106.355C20.0145 105.869 21.044 105.393 21.6648 104.627C27.2724 97.6954 35.8185 95.8331 43.2678 92.2119C49.7445 89.0407 53.4329 90.8669 56.0454 97.5816C58.1146 102.863 62.5532 105.859 66.9814 108.807C68.016 109.475 69.6714 109.071 70.9802 109.402C73.4064 110.013 75.9464 110.494 78.145 111.611C79.8676 112.491 81.373 114.053 83.2095 112.506C85.1546 110.866 87.5135 108.911 86.7479 106.05C84.1199 96.221 83.732 85.6937 76.7948 77.2719C72.0097 71.4676 71.4096 64.1011 70.3284 56.9467C69.6921 52.7202 68.4454 48.6231 67.4107 44.4846C67.209 43.6621 66.5003 42.8292 66.6141 42.0894C67.478 36.399 66.3554 30.4809 68.3781 24.8888C69.3662 22.1574 70.049 19.3173 71.0371 16.5859C73.4943 9.76775 78.8382 5.96033 85.2477 3.39445C87.6457 2.45528 90.0947 1.65217 92.5832 0.98895C99.8256 -1.00788 109.106 3.18236 111.584 9.65394C113.721 15.2357 117.3 20.2847 119.271 25.9079C121.956 33.59 121.299 41.1635 115.733 47.7747C114.892 48.8524 114.335 50.1243 114.114 51.4735C112.965 57.8209 112.96 64.158 115.262 70.283C115.852 71.8349 116.974 73.2368 117.952 74.6388C119.504 76.8942 121.242 79.0359 122.758 81.3173C126.188 86.4904 129.39 91.7153 130.864 97.9075C131.382 100.132 133.27 102.046 134.584 104.064C137.172 108.112 139.072 112.56 140.207 117.229C141.428 121.988 143.182 126.867 145.841 130.953C153.797 143.167 150.015 156.426 140.559 164.258C136.115 167.936 131.278 171.009 125.169 167.15C123.141 165.872 120.854 166.208 118.837 167.641C117.575 168.541 116.25 169.385 115.055 170.347C108.697 175.38 101.947 173.373 97.4045 170.073C95.7344 168.89 94.2491 167.465 92.997 165.846C91.0054 163.182 88.5895 161.878 85.2373 161.371C77.5425 160.219 70.3665 156.797 64.6276 151.542C64.2244 151.221 63.8505 150.864 63.5102 150.477C58.7871 144.393 54.0537 138.315 49.3772 132.195C46.6251 128.574 43.9506 125.128 38.6637 125.289C34.4217 125.423 32.4559 126.618 30.8729 130.576C27.6449 138.692 27.9087 147.13 28.9278 155.495C30.7381 170.913 35.2066 185.9 42.1348 199.792C43.0505 201.624 44.3955 203.238 45.4612 205.002C46.7855 207.19 47.9443 209.481 49.3307 211.628C51.1826 214.494 52.8277 217.614 55.1918 220.004C60.7271 225.606 66.6451 230.831 72.3873 236.227C72.7615 236.568 73.0599 236.985 73.2631 237.449C73.4662 237.913 73.5697 238.415 73.5668 238.922C72.3511 238.327 71.1768 237.634 69.9145 237.163C67.9901 236.444 66.0502 235.611 64.043 235.311C61.8755 234.969 60.3546 235.968 60.5098 239.31C58.844 237.903 57.6956 236.765 56.3713 235.87C55.4401 235.233 54.302 234.571 53.2209 234.582C52.4294 234.582 51.3792 235.502 50.9654 236.283C50.7015 236.801 51.1723 238.089 51.7206 238.498C57.1576 242.6 62.6722 246.604 68.1971 250.598C68.5799 250.877 69.3455 250.68 69.6611 250.985C72.3873 253.603 74.7825 254.234 78.1036 251.363C79.6555 250.034 82.6922 250.173 85.0615 250.153C88.843 250.116 91.0623 248.083 92.9143 245.155C93.9799 243.474 95.2422 241.922 96.732 239.879Z" fill="black"/>
</g>
<defs>
<clipPath id="clip0_729_1076">
<rect width="150" height="263.959" fill="white" transform="translate(0.160156 0.47168)"/>
</clipPath>
</defs>
</svg>
