<svg width="151" height="193" viewBox="0 0 151 193" fill="none" xmlns="http://www.w3.org/2000/svg">
<g clip-path="url(#clip0_729_865)">
<path d="M126.783 49.5783C123.959 55.6796 121.426 61.9427 115.465 65.9204C113.239 67.4026 111.412 69.4723 109.229 71.0354C106.922 72.6954 104.588 74.6466 101.952 75.4604C94.4066 77.7781 91.6254 84.3052 88.095 90.2125C87.7285 90.8269 88.1328 91.9427 88.2837 92.8104C89.2646 98.6369 88.0896 103.849 83.9233 108.193C82.3063 109.864 81.3361 111.616 82.5974 114.273C85.6211 115.157 88.5262 114.106 90.9678 112.37C93.7136 110.429 96.7498 108.935 99.9635 107.945C103.941 106.662 107.536 104.118 111.201 101.957C113.648 100.513 115.923 98.7824 118.289 97.1978C120.116 95.9635 121.011 94.2657 120.445 92.1205C119.879 89.9753 118.683 87.9164 120.445 86.0246C122.827 83.4428 125.07 80.1604 128.093 78.8668C132.448 76.9965 137.407 76.215 142.182 75.7569C149.065 75.0939 151.647 78.4518 149.442 84.8765C147.303 90.9509 144.608 96.7989 142.452 102.879C139.105 112.295 135.17 121.528 133.467 131.483C132.777 135.52 131.527 139.471 130.298 143.394C129.22 146.838 124.789 149.862 121.2 149.862C119.297 149.862 117.669 149.356 116.942 147.286C116.214 145.216 115.4 143.287 114.635 141.287C113.147 137.385 111.509 136.274 107.741 137.713C103.763 139.239 99.8988 138.172 96.2176 137.476C93.0375 136.878 90.2402 137.412 88.0573 138.905C81.5517 143.351 75.0893 141.734 68.7616 139.25C65.8888 138.123 63.5603 135.606 60.984 133.72C59.9869 132.986 58.9628 132.28 58.0196 131.483C56.8607 130.502 55.7828 129.429 54.3598 128.114L59.6042 124.541C57.6908 122.848 56.1493 123.36 54.6778 123.818C51.7565 124.735 49.0993 124.438 46.5553 122.595C42.4806 119.636 37.5273 118.865 32.8112 118.445C22.9639 117.566 14.8252 112.791 6.81044 107.88C0.466562 104 -1.27437 96.9983 1.42057 90.5467C1.78211 89.7394 2.21124 88.9641 2.70336 88.229C4.28798 85.7281 5.93728 83.2596 7.48956 80.7479C8.23875 79.5298 8.61065 77.9667 9.60239 77.0343C13.3753 73.4662 13.0789 69.6017 11.0307 65.3544C7.65126 58.3476 9.34367 51.3408 11.6074 44.4633C11.9702 43.2626 12.602 42.1603 13.4547 41.2404C14.3074 40.3205 15.3586 39.607 16.5284 39.1543C18.4364 38.3835 19.9563 36.675 21.708 35.4676C22.6713 34.744 23.7307 34.158 24.8557 33.7267C29.933 32.0451 34.9994 30.2772 40.1683 28.9082C45.1486 27.5876 48.4472 24.7741 51.0073 20.2574C54.2413 14.528 57.9118 8.9387 63.5657 5.10111C68.2064 1.96421 72.998 -0.445064 78.9538 0.826945C84.7425 2.08817 90.3642 3.62429 94.8917 7.77987C100.368 12.7978 105.801 17.8751 111.315 22.8392C114.107 25.3508 117.071 27.6577 120.057 30.1478C118.979 31.1881 117.362 32.0073 117.022 33.1823C116.683 34.3573 117.61 35.8449 118.1 37.1547C118.693 38.7716 119.389 40.0328 119.178 42.1133C118.968 44.1938 118.435 45.8862 117.233 47.3038C115.454 49.4058 116.629 51.4378 117.173 53.3674C117.583 54.8011 120.353 54.8226 120.537 53.4536C121.076 49.2926 124.153 49.9448 126.816 49.6807L126.783 49.5783ZM115.465 103.477C110.431 111.023 110.662 111.944 117.427 113.141C120.526 109.395 117.163 106.97 115.47 103.499L115.465 103.477ZM82.8507 101.273C85.8906 98.0655 85.1953 94.9879 85.0066 91.1989C82.1231 94.4436 80.4037 97.0954 82.8561 101.294L82.8507 101.273ZM123.744 140.489C123.097 140.004 122.461 139.411 122.364 139.471C121.82 139.852 121.394 140.379 121.135 140.99C121.065 141.211 121.9 141.723 122.326 142.101L123.744 140.489ZM119.658 122.018C119.314 121.714 118.925 121.465 118.505 121.28C118.37 121.247 117.923 121.738 117.966 121.953C118.083 122.364 118.265 122.753 118.505 123.107L119.658 122.018Z" fill="black"/>
<path d="M65.7532 157.855L55.631 160.464C56.4017 158.82 56.5796 157.564 57.1725 157.311C64.5566 154.212 71.9785 151.188 79.4542 148.315C81.1035 147.679 83.0061 147.701 85.631 147.286L83.8092 152.363C85.2268 153.856 87.3342 155.107 87.6899 156.74C88.0457 158.373 86.7359 160.367 85.8358 162.038C83.502 166.35 78.829 166.7 74.8243 167.967C67.2785 170.295 67.0198 171.098 70.0219 178.278C71.7844 182.487 75.2555 186.362 73.4661 191.989C72.1886 191.585 70.939 191.097 69.7255 190.529C66.1251 188.561 66.1466 188.518 63.6511 192.06C58.1966 186.093 55.0273 179.226 54.3859 171.12C54.1757 168.479 54.6285 166.609 56.9138 165.191C59.4901 163.612 62.0126 161.957 64.5512 160.308C65.1441 159.925 65.6885 159.467 66.2544 159.041L65.7532 157.855Z" fill="black"/>
<path d="M102.124 177.286C102.124 178.337 102.27 178.903 102.086 179.366C101.822 180.002 101.246 181.08 100.928 181.037C96.6157 180.45 95.4299 186.023 91.4738 185.888C89.1566 185.843 86.8539 185.511 84.6179 184.902C82.4242 184.255 82.1924 182.25 84.0789 180.913C85.5234 179.9 87.205 178.887 88.892 178.628C93.247 177.949 97.6506 177.706 102.124 177.286Z" fill="black"/>
<path d="M126.821 49.6537L124.896 45.6868C125.91 43.5308 127.133 40.8844 128.362 38.2595L129.052 38.405C128.283 42.1133 127.52 45.8305 126.761 49.5567L126.821 49.6537Z" fill="black"/>
<path d="M109.207 13.2075C108.711 12.5984 108.091 12.1295 108.166 11.8762C108.443 11.3013 108.807 10.7723 109.244 10.3077L110.651 11.5312L109.207 13.2075Z" fill="black"/>
</g>
<defs>
<clipPath id="clip0_729_865">
<rect width="150" height="191.534" fill="white" transform="translate(0.160156 0.471191)"/>
</clipPath>
</defs>
</svg>
