<svg width="151" height="139" viewBox="0 0 151 139" fill="none" xmlns="http://www.w3.org/2000/svg">
<g clip-path="url(#clip0_729_1036)">
<path d="M57.9414 2.69221C59.5241 2.22323 61.1981 1.18758 62.6832 1.3895C68.3891 2.15158 74.1405 2.93321 79.6835 4.4248C86.2896 6.12149 92.755 8.32525 99.0222 11.0165C102.93 12.7426 106.558 12.5211 110.408 12.2345C120.256 11.5115 129.792 12.3778 139.009 16.4032C143.855 18.5266 147.887 21.9853 149.697 26.2842C151.039 29.4758 149.092 34.1004 148.395 38.0607C148.186 39.2657 146.851 40.3534 146.831 41.5063C146.643 51.5502 140.852 56.8522 132.007 59.9787C128.6 61.1837 125.421 63.0596 122.184 64.7075C116.824 67.4367 111.658 70.7325 105.171 69.8336C103.92 76.2104 102.253 82.2093 101.673 88.3125C101.022 95.0605 95.3551 98.1805 91.7075 103.398C93.2838 104.088 94.3129 104.844 95.4528 104.981C99.9341 105.534 104.448 105.84 108.936 106.342C114.075 106.915 117.169 110.126 117.579 115.148C118.524 126.729 111.932 134.689 100.305 136.643C91.5543 138.033 82.644 138.099 73.8734 136.838C71.0777 136.448 68.2309 136.659 65.5231 137.457C56.5605 140.297 49.8906 135.874 43.9568 130.455C41.3514 128.11 38.9414 126.456 35.6651 126.045C30.0179 125.342 26.3442 121.636 23.0354 117.636C19.8503 113.774 20.7296 109.455 23.0354 105.476C24.8852 102.31 27.0477 99.3204 29.106 96.272C31.1643 93.2237 31.9784 90.006 30.3175 86.5018C29.9658 85.7527 29.5554 84.8408 28.9041 84.45C25.263 82.2354 21.6545 79.8254 17.7464 78.1384C9.2788 74.4713 2.93463 63.496 7.79372 52.7356C9.22018 49.5701 9.8064 46.0658 11.2329 42.9393C13.0501 38.953 12.021 35.9242 9.18761 32.9475C6.8232 30.4724 4.79098 27.6781 2.51125 25.1313C-0.270026 22.0048 -0.0941609 18.253 0.557192 14.651C1.52771 9.32298 4.71934 8.42411 11.6302 7.96816C13.8025 7.9104 15.9527 8.41763 17.8701 9.44022C22.1626 11.6483 26.0902 10.8862 29.347 7.97468C35.8605 2.1125 43.4488 -0.082557 51.988 0.61439C53.8769 0.770715 55.7137 1.45464 57.5766 1.9171L57.9414 2.69221ZM43.4292 34.6606L41.4752 34.7192C42.9993 40.6465 38.3943 46.1635 41.5729 52.2601C42.1395 53.3414 41.9897 54.8004 42.1461 56.0836C42.9733 62.8902 43.7875 69.7034 44.6277 76.51C44.758 77.5717 44.7059 78.8744 45.2791 79.5974C45.8523 80.3204 47.2331 80.6787 48.2818 81.1737C47.917 82.1051 47.2201 82.9844 47.3569 83.6944C48.1711 87.8891 48.881 92.162 50.2554 96.1613C50.8091 97.7897 52.3593 100.011 55.1731 98.5127C56.0459 98.0502 57.2314 98.1675 58.2996 98.0112C58.9119 101.268 59.4786 104.258 60.1299 107.684L65.1714 105.665V98.5778H61.2633C59.3092 94.2789 58.3713 89.7064 55.6681 86.7232C50.8025 81.3561 50.6267 74.6667 48.7768 68.4463C47.8649 65.4044 47.7412 62.1281 47.2136 58.9691C46.686 55.81 46.0737 52.6705 45.5852 49.5114C44.8557 44.5677 44.1587 39.6174 43.4292 34.6606ZM42.3284 28.4793C44.4518 25.9585 45.1032 23.2684 44.1978 19.6795C40.1269 22.4347 42.2828 25.6784 42.3284 28.4793ZM53.5708 5.61027L53.3949 4.37921L49.0439 5.24551L49.1611 5.92943L53.5708 5.61027ZM42.4978 16.5921L42.6997 17.6342L45.5526 16.8982C45.4028 16.553 45.1944 15.8886 45.1162 15.9016C44.263 16.1036 43.3967 16.3446 42.5304 16.5921H42.4978ZM139.732 35.1035L138.162 33.6901C137.967 34.0092 137.511 34.4587 137.634 34.6345C138.003 35.2259 138.426 35.782 138.898 36.2955L139.732 35.1035Z" fill="black"/>
</g>
<defs>
<clipPath id="clip0_729_1036">
<rect width="150" height="137.852" fill="white" transform="translate(0.160156 0.471191)"/>
</clipPath>
</defs>
</svg>
