<svg width="151" height="165" viewBox="0 0 151 165" fill="none" xmlns="http://www.w3.org/2000/svg">
<g clip-path="url(#clip0_729_1092)">
<path d="M35.7741 162.872C31.384 164.426 27.5001 166.167 23.644 163.011C20.2179 164.877 17.5547 163.157 15.3215 160.93C13.5604 159.162 12.0442 157.165 10.8134 154.994C5.70891 146.061 2.85844 136.254 1.21474 126.26C-0.8659 113.644 -0.0267098 101.369 5.16101 89.1137C8.61955 81.12 13.045 73.5804 18.3384 66.6637C24.5803 58.3411 32.667 51.1768 42.7789 48.2015C50.3114 45.9044 58.4112 46.3241 65.6659 49.3875C78.3023 54.707 86.9092 64.8882 96.7576 73.613C99.6635 76.1791 102.826 78.5302 105.323 81.4501C107.244 83.6972 108.312 86.6794 108.791 90.3344C107.716 90.0015 106.266 89.9945 105.614 89.2802C102.202 85.535 99.2751 81.3183 95.6479 77.809C84.2529 66.7677 71.5957 57.7932 55.3113 55.5115C48.2787 54.5266 42.2241 56.2952 36.8699 61.2332C27.4099 69.965 19.4411 79.7578 15.2452 92.0197C12.8039 99.1563 12.3253 106.584 12.7276 114.393C13.1992 123.625 16.0705 131.808 18.9695 140.2C20.9877 146.005 24.6496 150.666 28.9427 154.966C31.3701 157.366 33.4507 160.126 35.7741 162.872Z" fill="black"/>
<path d="M140.291 0.47168C141.484 4.63295 143.121 7.98278 143.294 11.4436C143.456 15.5214 142.948 19.5981 141.789 23.5113C138.904 33.422 135.339 43.1455 132.426 53.0494C131.136 57.4326 130.824 62.0654 129.978 66.6151C129.513 69.0841 129.395 71.8514 128.133 73.8557C127.19 75.3399 125.699 75.7422 126.809 78.1488C127.447 79.5359 126.372 81.9771 125.491 83.6347C125.213 84.1479 122.932 83.9399 121.746 83.5376C119.311 82.7192 119.2 80.5762 119.408 78.3915C120.92 62.1001 123.875 46.107 129.68 30.738C132.454 23.4419 135.582 16.3816 135.103 8.17697C135.075 6.51604 135.558 4.88655 136.486 3.50859C137.413 2.13063 138.742 1.0706 140.291 0.47168Z" fill="black"/>
<path d="M119.513 89.6753C122.252 93.8851 125.817 97.8036 127.461 102.409C128.695 105.877 127.461 110.197 127.315 114.137L125.65 114.476L114.006 95.7508L118.431 97.9007V90.1469L119.513 89.6753Z" fill="black"/>
<path d="M150.161 151.665L144.613 152.712L137.504 130.519C143.822 136.018 147.886 142.878 150.161 151.665Z" fill="black"/>
<path d="M126.781 89.0581L126.906 91.5687H126.428L126.539 89.065L126.781 89.0581Z" fill="black"/>
</g>
<defs>
<clipPath id="clip0_729_1092">
<rect width="150" height="164.301" fill="white" transform="translate(0.160156 0.47168)"/>
</clipPath>
</defs>
</svg>
