<svg width="151" height="153" viewBox="0 0 151 153" fill="none" xmlns="http://www.w3.org/2000/svg">
<g clip-path="url(#clip0_729_895)">
<path d="M62.3337 125.783C62.0348 125.106 61.4767 124.458 61.6135 124.076C62.8162 120.908 62.1573 117.235 64.1342 114.318C65.94 111.662 67.891 109.107 69.9785 106.666C70.8751 105.611 72.1678 104.83 73.3993 104.145C77.5512 101.808 81.7895 99.6154 85.9341 97.2676C88.9517 95.5571 91.7712 94.7469 95.4082 96.0001C97.6696 96.7851 100.572 96 103.121 95.5535C104.971 95.1659 106.747 94.4852 108.382 93.537C109.7 92.8168 110.111 91.3116 108.912 90.1954C105.606 87.113 102.164 84.1818 98.739 81.2291C98.3069 80.869 97.6587 80.7141 96.9998 80.4045C92.6211 82.7307 87.8318 83.5048 82.8986 83.8433C75.8768 84.3295 68.8766 85.1541 61.8512 85.5286C58.9416 85.6834 55.9637 84.6535 54.5089 81.9276C53.0937 79.2702 52.4528 76.3606 54.9518 73.6023C58.0194 70.0877 62.2766 67.8296 66.9069 67.2611C70.7259 66.708 74.2182 64.7982 76.7446 61.8813C77.1623 61.4096 77.1515 60.3005 76.9498 59.5983C76.3989 57.6646 75.6499 55.7814 74.9513 53.8909C74.7101 53.2283 74.566 52.3245 74.0691 51.9932C70.353 49.5193 66.6908 46.9123 62.7586 44.8273C58.3691 42.5048 54.3289 39.8401 51.0448 36.0987C48.2073 32.8579 47.3539 27.9678 49.3776 24.3849C50.2096 22.9263 51.4884 21.7738 53.0253 21.0973C55.9061 19.9846 58.9524 19.3364 61.9736 18.6739C66.9465 17.5936 70.8643 19.5921 73.9683 23.301C75.4087 25.0295 77.2091 25.0439 78.8547 24.4281C82.7473 22.9517 86.5715 21.2449 90.3057 19.3868C92.6787 18.2165 93.5465 15.9624 94.3387 13.4057C95.9627 8.15196 98.6598 3.47076 104.641 2.0556C107.406 1.40383 110.226 0.950113 113.042 0.561214C116.009 0.15431 118.108 1.55147 119.48 4.12613C120.1 5.28562 120.748 6.44152 121.259 7.65143C122.365 10.2729 124.338 11.5188 127.129 11.6124C128.447 11.6521 129.79 11.5692 131.09 11.7997C135.558 12.6063 137.827 14.8029 137.402 19.0015C136.999 22.6684 136.41 26.3124 135.638 29.9195C134.99 33.0631 134.039 36.1455 133.117 39.6996L136.988 40.3334L140.531 40.9059C140.247 42.8432 139.79 44.4673 139.829 46.0805C139.869 47.6073 140.614 49.1052 140.726 50.6392C140.978 54.215 141.086 57.8411 138.594 60.8406C136.718 63.102 136.145 63.2461 133.355 62.1442C132.375 61.7589 131.453 61.2331 130.362 60.7038C129.876 61.298 129.221 61.7661 129.034 62.3782C127.716 66.6633 125.71 70.8044 126.603 75.5432C127.064 77.9774 126.837 80.5593 127.428 82.9503C128.148 85.8707 129.912 86.5512 132.519 85.2765C136.12 83.5012 138.234 80.7501 138.137 76.4975C138.108 75.2479 137.557 73.4511 140.049 72.9361C142.076 75.4892 144.204 78.1611 146.325 80.8582C146.624 81.2183 146.858 81.6612 147.153 82.0357C149.897 85.507 149.987 85.6366 147.611 89.4968C146.323 91.4962 144.884 93.3946 143.308 95.1754C142.707 95.9228 141.954 96.534 141.099 96.9685C140.244 97.4031 139.307 97.6511 138.349 97.6961C136.149 97.8293 135.083 99.8098 136.106 101.801C137.413 104.322 138.864 106.763 141.784 107.955C144.41 109.035 147.02 110.083 148.785 112.683C150.945 115.884 150.585 120.151 147.485 122.56C143.03 126.021 137.489 125.027 134.19 120.267C133.47 119.212 132.39 118.401 131.489 117.447C129.538 115.362 127.77 113.068 125.634 111.196C120.471 106.698 114.644 103.688 107.468 104.052C105.22 104.118 102.97 103.988 100.745 103.663C96.3588 103.115 92.1385 102.55 87.875 104.855C84.5442 106.655 80.6156 107.329 77.1803 108.981C73.2589 110.868 69.748 113.594 68.9306 118.2C68.2356 122.161 65.6177 124.008 62.3337 125.783ZM109.628 39.0011C112.188 40.9131 113.697 40.7763 114.367 38.7778C114.59 38.1116 114.533 36.9449 114.108 36.5776C113.683 36.2103 112.441 36.1743 111.879 36.52C111.033 37.0241 110.474 38 109.628 39.0011Z" fill="black"/>
<path d="M36.0724 152.261C34.7437 152.47 33.3717 152.981 32.1114 152.815C29.0337 152.417 25.9889 151.796 23.001 150.957C17.398 149.315 11.7518 147.716 6.35039 145.538C1.74481 143.687 -0.394141 139.135 0.282833 134.177C1.02102 128.801 2.59102 123.734 5.84266 119.247C8.70179 115.286 11.2116 111.088 14.0456 107.116C15.0355 105.786 16.2789 104.665 17.7041 103.818C21.053 101.779 24.5458 99.9465 27.9739 98.0561C29.0146 97.4907 30.1345 96.8858 31.294 98.1713C30.635 101.214 28.5465 103.097 25.8206 104.178C22.3052 105.616 18.9883 107.497 15.9504 109.777C9.58401 114.505 5.50777 120.835 3.6641 128.502C2.501 133.377 5.29892 138.037 10.0485 139.92C17.4736 142.862 24.9023 145.786 32.2986 148.797C33.685 149.362 34.9237 150.291 36.2308 151.051C36.1696 151.458 36.1264 151.861 36.0724 152.261Z" fill="black"/>
<path d="M48.1641 95.5356C60.6773 91.6466 69.8272 90.3971 73.6982 92.1687C72.3767 95.1719 70.4574 97.6673 67.6343 99.3094C66.8168 99.7847 65.5349 99.5866 64.4798 99.5038C61.9952 99.313 59.5214 98.8196 57.0403 98.7836C53.7851 98.744 51.0772 97.5233 48.1641 95.5356Z" fill="black"/>
<path d="M41.3332 130.987C41.6773 131.483 41.9796 132.007 42.2371 132.553C42.2731 132.657 41.7113 133.154 41.6141 133.104C41.1677 132.881 40.7756 132.562 40.4654 132.171C40.397 132.081 40.8867 131.577 41.3332 130.987Z" fill="black"/>
</g>
<defs>
<clipPath id="clip0_729_895">
<rect width="150" height="152.38" fill="white" transform="translate(0.160156 0.471191)"/>
</clipPath>
</defs>
</svg>
