<svg width="151" height="129" viewBox="0 0 151 129" fill="none" xmlns="http://www.w3.org/2000/svg">
<g clip-path="url(#clip0_729_1002)">
<path d="M41.4705 0.471191C45.5811 1.1385 49.7504 2.21687 53.9625 2.41439C60.4594 2.71868 66.983 2.35567 73.4905 2.41439C76.0423 2.41439 78.5994 3.09771 81.1405 3.00696C89.1215 2.7347 97.0919 2.06739 105.073 1.93927C109.299 1.88622 113.52 2.22758 117.682 2.95891C120.987 3.53013 123.87 4.85407 125.444 8.58565C126.971 12.1998 130.831 12.4454 134.418 12.787C138.428 13.1714 142.495 13.6198 146.344 14.7195C149.868 15.7285 150.642 17.4955 149.911 21.1897C149.27 24.4249 148.603 27.7614 147.215 30.7082C146.056 33.1639 144.252 35.8118 142.004 37.1678C136.255 40.6378 130.121 43.4778 123.32 44.4174C116.519 45.3569 109.691 46.494 102.852 47.3322C100.434 47.6258 99.2486 48.8643 99.0244 50.989C98.293 57.929 94.2198 63.5451 91.5505 69.6736C90.5277 72.0568 88.9871 74.1824 87.0406 75.8962C85.0941 77.6099 82.7906 78.8689 80.2971 79.5818C79.2574 79.8097 78.242 80.1368 77.2648 80.5587C75.754 81.3702 74.7291 82.6301 75.4871 84.4718C77.4944 89.3512 79.4002 94.2839 81.7278 99.0138C82.5232 100.642 84.397 101.779 85.8437 103.039C90.9366 107.427 92.4367 112.114 90.248 117.052C88.0592 121.991 80.911 126.128 75.5192 125.808C69.9778 125.466 65.4668 122.967 61.5217 119.252C59.9842 117.805 60.1177 116.001 60.8704 114.314C63.3314 108.821 60.5501 105.329 56.9146 101.502C53.0603 97.455 49.9212 92.6984 46.6968 88.0913C42.9599 82.7529 39.4899 77.1475 35.769 71.761C34.9156 70.4669 33.7275 69.4283 32.331 68.7554C30.0248 67.7785 29.0746 66.225 28.9144 63.8761C28.6635 60.2085 27.3129 56.5944 28.9571 52.8682C29.8486 50.8182 28.7916 49.2167 26.9872 47.8927C24.8285 46.3553 22.8178 44.6199 20.9815 42.7091C17.2445 38.6946 15.974 33.986 15.8779 28.3433C15.7338 19.7751 18.8034 13.2141 25.2255 7.9824C29.9341 4.13871 35.1657 1.27196 41.4705 0.471191ZM61.5804 99.4516C62.4773 98.2718 63.1019 96.841 64.1909 96.1203C67.6876 93.8088 69.1344 90.248 70.533 86.6232C71.227 84.8135 72.1346 83.0892 72.7859 81.2848C73.3091 79.9806 73.6365 78.6062 73.7575 77.2062C73.8696 74.585 72.5456 73.7896 70.0205 74.8519C69.0596 75.263 67.9172 75.6901 67.3513 76.4535C64.8422 79.7313 61.9381 82.8863 60.2618 86.5965C58.3507 90.7338 57.7848 95.4103 61.5804 99.4516ZM108.479 19.2999C101.331 17.6076 95.7626 21.9692 94.8764 29.9128C100.055 26.9233 106.269 26.3574 108.479 19.2999Z" fill="black"/>
<path d="M12.8345 107.107C14.2866 111.479 15.6585 114.853 18.4933 117.506C19.9242 118.837 21.1978 120.327 22.2889 121.948C23.4367 123.683 24.6538 125.594 22.6893 128.354C21.4541 127.481 20.2738 126.532 19.1552 125.514C15.3593 121.576 10.7501 118.513 5.64893 116.54C-0.538339 114.154 -1.53663 107.998 2.8676 102.911C4.93358 100.53 7.24513 98.0101 8.27546 95.1327C11.4785 86.2441 18.5573 84.1781 26.7198 83.5269C27.0766 83.5296 27.433 83.5509 27.7875 83.5909C34.3698 83.7511 36.3771 87.0449 33.473 92.9279C31.5244 96.8837 27.6007 98.4585 24.152 100.541C20.5219 102.708 16.8383 104.785 12.8345 107.107Z" fill="black"/>
</g>
<defs>
<clipPath id="clip0_729_1002">
<rect width="150" height="127.872" fill="white" transform="translate(0.160156 0.471191)"/>
</clipPath>
</defs>
</svg>
