<svg width="151" height="209" viewBox="0 0 151 209" fill="none" xmlns="http://www.w3.org/2000/svg">
<g clip-path="url(#clip0_729_978)">
<path d="M86.5889 195.956C80.2947 202.606 72.524 205.604 63.0697 204.16C56.9827 203.228 50.8632 202.561 44.2387 201.712C44.0121 203.577 43.7466 205.792 43.4487 208.233C40.7484 208.395 40.1462 206.071 39.6735 204.575C37.8862 198.947 36.5458 193.184 34.9139 187.512C34.4934 186.067 33.8059 184.714 32.8871 183.523C29.999 179.799 30.2968 176.231 32.3949 172.177C34.6549 167.871 36.2803 163.235 38.3201 158.417C34.3829 149.863 30.0702 145.524 18.4854 147.803C18.071 147.888 17.54 148.049 17.2292 147.875C12.3595 145.207 7.05604 143.057 2.78865 139.631C-1.62121 136.083 -0.306675 131.155 5.41772 129.413C9.38725 128.202 13.836 128.441 18.0192 128.053C20.4734 127.826 22.9341 127.638 25.9841 127.405C25.5114 121.733 25.751 116.682 24.553 112C22.5391 104.119 24.0026 96.7889 26.282 89.3679C28.1599 83.2485 29.6946 77.0643 33.2109 71.5147C34.8038 69.0022 35.9824 66.5091 38.3913 64.3916C41.1564 61.9633 43.8826 58.9392 43.0861 54.348C42.7364 52.3276 43.4746 50.1259 43.7336 48.002C44.0639 45.062 44.964 42.5819 48.1565 41.5264C49.3451 41.0089 50.4634 40.3431 51.4849 39.5449C54.3924 37.641 55.5904 35.3034 55.3702 31.4698C54.8004 20.9988 58.608 12.1662 67.3306 5.96258C72.4528 2.27798 78.5139 0.963441 84.7175 0.626712C90.0793 0.335311 95.4669 -0.0208446 99.8056 4.38902C100.557 5.15313 102.584 4.66746 104.021 4.75812C105.316 6.94686 106.449 9.74431 108.373 11.7906C111.442 15.0615 114.825 18.0222 118.475 20.6297C120.981 22.4105 124.193 23.1682 126.984 24.5798C131.141 26.6779 132.844 31.0036 135.512 34.4421C135.952 35.0055 135.939 36.1711 135.732 36.9546C134.126 43.0287 135.946 48.9344 137.163 54.6783C137.966 58.4535 140.401 62.1381 142.881 65.2464C150.652 74.9597 149.221 85.3983 138.64 92.638C136.554 94.0627 134.262 95.1829 132.106 96.4198C132.753 99.1589 134.657 99.4115 136.639 99.4633C141.21 99.5863 144.623 101.93 147.809 104.955C150.205 107.227 150.839 110.135 149.318 112.55C147.084 116.086 144.513 120.023 141.061 122.037C133.848 126.259 128.531 131.278 126.433 139.741C124.801 146.275 121.188 147.408 115.263 144.125C112.07 142.357 109.027 140.318 105.977 138.297C102.247 135.824 100.537 135.811 95.8037 138.679C98.763 145.543 95.5123 150.044 90.2217 154.531C84.9312 159.019 79.3234 160.081 72.783 159.712C71.9801 168.182 68.0623 173.732 59.5923 175.642C56.2639 176.393 53.1167 177.986 49.879 179.1C43.4034 181.327 42.8141 182.014 42.5292 188.625C42.4839 189.674 42.4321 190.723 42.3479 192.452C56.361 192.219 70.1151 188.871 84.439 191.85C86.2133 186.851 91.1218 185.873 95.7778 184.267C100.835 182.519 105.413 183.477 110.134 185.407C114.706 187.353 119.738 187.953 124.639 187.136C129.451 186.281 133.563 187.919 137.59 189.959C142.221 192.303 143.017 196.435 139.028 199.718C133.129 204.614 126.763 208.389 118.352 205.546C113.508 203.914 108.211 203.636 103.302 202.159C97.7658 200.495 92.4558 198.17 86.5889 195.956ZM103.982 55.669C103.801 55.0992 103.406 54.5034 103.471 53.966C104.177 48.0214 103.743 47.4904 97.1894 46.8946C97.2995 48.0991 97.9665 49.9058 97.429 50.3914C93.5437 53.94 96.639 57.9419 95.8684 62.7727L104.17 55.4683C103.458 58.0585 104.17 60.0465 106.883 60.7588C106.232 62.4517 105.488 64.1076 104.656 65.7191C102.609 69.1835 101.832 72.0846 105.737 75.167C107.201 76.3261 108.25 79.8423 107.57 81.5001C105.776 85.8775 109.778 89.0765 108.813 93.0784C112.303 87.6259 114.531 82.0699 111.747 75.9635C112.692 74.487 114.609 72.2465 114.337 71.8774C111.423 68.4259 115.062 65.337 114.764 62.5007C112.964 60.8171 111.623 59.1658 109.92 58.0909C108.217 57.0159 105.996 56.4267 103.982 55.669ZM45.4432 130.475C48.681 128.046 51.3165 126.81 52.7671 124.763C53.7254 123.403 53.4146 120.742 52.8901 118.935C52.6181 118.042 50.1315 116.921 49.2444 117.297C47.7291 117.945 45.9612 119.525 45.6051 121.02C45.0158 123.507 45.4432 126.298 45.4432 130.475ZM108.949 107.441C112.148 106.146 112.478 105.745 115.049 99.6252C112.601 98.9776 110.186 97.7861 107.796 97.8444C106.424 97.8832 104.138 99.7871 103.969 101.082C103.704 103.083 105.381 104.469 107.855 103.763C108.554 103.562 109.357 103.731 110.523 103.731C109.933 105.207 109.506 106.211 108.949 107.441ZM62.1307 155.924C58.9836 154.195 56.4063 152.498 53.5895 151.391C52.6635 151.035 50.8114 151.98 50.002 152.88C49.5746 153.359 50.2092 155.224 50.8373 156.118C53.0973 159.343 55.163 159.323 62.1566 155.924H62.1307ZM90.416 67.856C92.391 66.6257 93.4789 65.35 91.9248 63.1936C90.6297 61.3805 89.3993 59.5285 87.8517 57.2814C86.848 59.3666 85.9673 61.1668 85.1773 62.8245L90.416 67.856ZM110.335 115.685C113.637 116.727 114.868 115.477 114.978 113.69C115.036 112.641 113.78 111.514 112.42 109.274C111.487 112.188 110.963 113.794 110.361 115.659L110.335 115.685ZM99.9739 96.9896L101.522 97.2357C102.169 95.6362 104.235 94.2634 100.874 90.9803C100.531 93.6417 100.246 95.306 99.9869 96.9572L99.9739 96.9896ZM101.476 85.5408C103.872 83.093 103.419 81.8692 100.039 81.0856C100.706 83.0801 101.094 84.2975 101.489 85.5149L101.476 85.5408Z" fill="black"/>
<path d="M77.0508 177.507C77.0508 175.169 76.9083 173.46 77.0832 171.776C77.3487 169.186 78.4366 167.411 81.506 167.243C85.7669 167.036 90.0149 166.09 94.2499 166.162C100.318 166.265 106.1 169.982 106.158 173.162C106.21 175.583 99.2685 181.58 95.014 181.936C91.6385 182.122 88.2548 181.77 84.9898 180.893C82.309 180.259 79.8612 178.75 77.0508 177.507Z" fill="black"/>
</g>
<defs>
<clipPath id="clip0_729_978">
<rect width="150" height="207.775" fill="white" transform="translate(0.160156 0.471191)"/>
</clipPath>
</defs>
</svg>
