<svg width="151" height="137" viewBox="0 0 151 137" fill="none" xmlns="http://www.w3.org/2000/svg">
<g clip-path="url(#clip0_729_1080)">
<path d="M44.6044 68.7042C40.1922 68.1154 39.9892 68.2307 38.6365 71.0714C37.3475 73.7769 36.7467 76.6653 37.2162 79.5736C37.8647 83.584 38.8076 87.5547 39.8062 91.5093C40.2916 93.4191 40.5781 95.3885 39.1935 96.7531C37.7414 98.1854 35.7003 98.444 33.6235 97.6164C32.269 97.0987 30.8814 96.672 29.4699 96.3393C25.7738 95.4163 22.8177 93.5543 21.0075 90.0731C20.4734 89.0053 19.7768 88.0268 18.9426 87.1727C13.0822 81.4197 11.8647 74.1429 12.1313 66.4205C12.2069 64.2363 12.37 61.9406 13.11 59.9275C13.6378 58.3659 14.5006 56.9385 15.638 55.7454C16.7754 54.5523 18.1599 53.6224 19.6946 53.0207C24.5365 50.9996 29.3704 48.6801 33.6593 45.7041C39.3567 41.7255 46.0765 41.5902 52.2671 39.5373C55.6489 38.4153 59.154 37.6276 62.4562 36.3186C65.6908 35.0296 65.7067 33.6331 63.1326 31.1465C61.8276 29.8893 60.7773 28.3615 59.5757 27.0008C57.3424 24.4439 55.0972 21.8977 52.84 19.362C51.302 17.7303 49.882 15.9913 48.5909 14.158C52.8162 14.5201 55.0083 18.1366 58.2748 19.9906C61.5412 21.8446 64.6405 24.2079 67.9467 26.4359C68.2968 25.7038 68.623 25.2662 68.7424 24.7768C69.5381 21.0529 70.5049 17.3488 71.034 13.5851C71.8297 7.83208 75.49 4.65321 80.3359 2.28994C86.4709 -0.721838 92.7491 0.579154 98.8482 2.03133C103.308 3.09361 105.747 10.1476 103.503 14.6792C102.54 16.6207 100.933 18.3156 99.3694 19.8513C96.6759 22.5369 93.4493 24.7052 91.9533 28.449C90.907 31.059 91.838 32.6146 94.6787 32.3719C99.0575 31.9233 103.454 33.0365 107.092 35.515C109.479 37.1064 111.043 39.2071 112.304 41.8051C114.424 46.1815 116.497 50.7171 119.465 54.4967C122.11 57.8942 125.952 60.1529 130.207 60.8107C133.883 61.4552 137.48 61.1807 141.041 61.682C144.415 62.1555 148.107 62.8756 149.491 66.9297C150.848 70.8884 150.176 74.5328 147.311 77.5167C142.891 82.1239 137.408 84.1888 131.146 82.4581C128.202 81.6624 125.7 82.5297 123.09 83.1185C120.842 83.6238 120.022 85.9354 121.1 88.0838C122.485 90.8688 124.048 93.5623 125.429 96.3473C127.394 100.326 127.124 104.479 123.197 106.692C122.232 107.305 121.093 107.584 119.955 107.487C117.846 107.304 115.701 107.34 113.633 106.95C111.015 106.453 109.626 107.746 108.691 109.835C108.231 110.933 107.859 112.066 107.581 113.224C106.356 117.935 100.877 121.778 96.0035 121.337C91.9071 121.045 87.9827 119.573 84.7044 117.1C82.0984 115.11 79.0309 113.754 76.2101 112.043C75.3812 111.468 74.5941 110.835 73.8548 110.149C67.9228 111.768 62.0783 113.332 56.2497 114.975C55.5375 115.178 54.6582 115.536 54.2962 116.101C51.0576 121.408 45.5433 122.486 40.1762 123.772C37.992 124.293 35.756 124.595 33.532 124.929C29.1118 125.602 26.1597 128.243 23.9238 131.92C22.9888 133.459 21.9345 134.935 20.9558 136.443L20.0526 136.312C19.7702 134.211 19.4877 132.107 19.1455 129.548C13.1538 128.685 6.7682 130.706 0.179688 129.019C2.20876 127.539 3.71664 126.529 5.12107 125.391C8.27584 122.773 11.7904 120.623 15.5569 119.005C18.5487 117.748 21.095 115.456 23.9119 113.757C26.5019 112.198 29.3267 111.004 31.8133 109.305C35.2985 106.918 38.6246 104.292 41.891 101.611C42.9772 100.72 43.6456 99.3312 44.5368 98.1933C45.6945 96.7133 45.5115 95.3646 44.4492 93.8686C40.4348 88.223 40.399 82.0921 42.4003 75.7463C43.0965 73.5023 43.8007 71.2545 44.6044 68.7042Z" fill="black"/>
</g>
<defs>
<clipPath id="clip0_729_1080">
<rect width="150" height="135.972" fill="white" transform="translate(0.160156 0.47168)"/>
</clipPath>
</defs>
</svg>
