<svg width="151" height="150" viewBox="0 0 151 150" fill="none" xmlns="http://www.w3.org/2000/svg">
<g clip-path="url(#clip0_729_1012)">
<path d="M34.8551 99.5996L22.637 102.606C22.5326 103.312 22.3423 104.36 22.2117 105.416C22.0905 106.594 21.6804 107.724 21.0179 108.706C20.3555 109.688 19.461 110.491 18.4139 111.044C17.3668 111.598 16.1993 111.884 15.0149 111.879C13.8305 111.873 12.6658 111.575 11.624 111.012C9.42291 109.833 9.16176 107.923 11.1689 106.363C12.9857 104.949 14.9891 103.782 17.0186 102.431C16.6288 101.558 15.9808 100.824 15.1618 100.33C14.3427 99.8358 13.3919 99.6043 12.4373 99.6667C10.2169 99.7488 8.00517 99.9894 5.81906 100.387C1.77126 101.028 0.0700623 99.4168 0.159599 95.3652C0.245405 91.6793 2.1406 89.0604 4.71105 86.9115C7.83737 84.3 11.2957 82.1026 14.4705 79.5545C16.5608 77.8287 18.5361 75.9681 20.3837 73.9846C22.5773 71.6865 25.4127 71.0001 28.3263 70.3882C30.0163 70.0152 31.7213 69.6869 33.374 69.187C35.9855 68.396 36.2429 67.2171 34.2992 65.3705C33.8701 64.9638 33.4113 64.587 33.0345 64.2512C34.2208 59.6737 37.3695 57.0958 41.1487 55.0812C43.1036 54.0403 45.1928 53.1823 46.9761 51.9026C48.5628 50.7625 49.9442 49.361 51.0612 47.7578C52.7509 45.2108 54.2797 42.5605 55.6387 39.8227C56.0118 39.0765 56.1461 37.8417 55.7954 37.1142C54.4412 34.29 54.0719 31.6375 55.6574 28.7201C57.5227 25.3065 56.8624 22.0049 54.4002 19.3934C55.9372 18.0317 57.4146 17.0095 58.5263 15.6627C61.6974 11.876 65.8422 9.84653 70.4645 8.57437C71.4158 8.30576 72.5351 8.16772 73.2812 7.59319C76.3329 5.20555 80.0599 4.60864 83.6003 3.57897C90.1738 1.67631 96.169 3.12755 101.217 7.65289C102.795 9.07055 103.589 11.3314 104.843 13.137C105.78 14.5694 106.848 15.912 108.033 17.1475C111.416 20.4715 112.065 23.8627 109.551 27.78C108.286 29.7498 108.559 31.3838 108.943 33.6148C109.79 38.5206 112.756 42.4416 114.166 47.0453C115.55 51.5557 114.308 55.5848 112.614 59.6326C112.427 60.0841 112.196 60.5205 112.006 60.972C111.961 61.2645 111.942 61.5603 111.95 61.8561L117.971 62.7067C118.176 64.0386 118.68 65.4674 118.557 66.8403C118.05 72.5931 121.034 76.7826 124.567 80.7185C129.7 86.419 134.979 91.9852 140.057 97.738C144.179 102.409 146.832 108.009 149.462 113.597C149.835 114.343 150.324 115.358 150.107 116.041C148.876 119.891 148.802 124.338 145.601 127.233C143.362 129.277 140.553 130.71 138.012 132.43C136.74 133.291 134.834 133.549 134.823 136.131C135.8 136.791 137.009 137.574 138.18 138.406C141.001 140.406 143.911 142.297 146.589 144.476C148.596 146.114 148.529 146.52 147.94 149.419C145.216 150.195 142.635 149.046 140.034 148.509C137.618 148.012 135.242 147.332 132.928 146.476C130.689 145.64 128.107 145.793 126.212 143.715C125.365 142.79 123.511 142.566 122.075 142.443C118.866 142.202 115.744 141.29 112.909 139.768C111.196 138.846 109.178 138.477 107.242 137.992C103.875 137.09 100.769 135.405 98.1761 133.075C96.5818 131.721 95.5387 129.83 95.2438 127.759C94.5424 123.696 91.6213 120.82 88.5957 118.193C87.7218 117.499 86.806 116.858 85.8536 116.276C82.2386 113.847 77.7095 114.597 74.9637 118.096C74.4463 118.786 73.9656 119.502 73.5237 120.241C71.7031 123.181 71.8374 124.39 74.7101 126.386C79.1496 129.467 83.7234 132.355 88.204 135.381C89.3386 136.136 90.3771 137.027 91.2967 138.033C92.3712 139.234 91.86 140.831 90.2708 141.186C89.0597 141.461 87.807 141.5 86.5811 141.301C81.9327 140.492 77.3365 139.455 73.1693 137.1C69.6288 135.101 65.9243 133.504 62.4958 131.176C56.4893 127.091 51.2664 122.185 46.3157 117.026C42.503 113.056 39.4401 108.344 36.2429 103.826C35.4072 102.692 35.2953 101.01 34.8551 99.5996ZM114.207 107.199C114.815 107.266 115.647 107.621 115.998 107.352C118.236 105.647 120.762 106.311 123.179 106.341C126.227 106.382 128.745 108.277 129.406 111.221C130.749 117.19 129.648 121.294 123.769 123.584C122.851 123.957 121.859 124.129 120.963 124.539C120.068 124.95 119.146 125.58 117.762 126.405C119.083 127.994 119.87 129.509 121.12 130.314C123.717 131.973 126.45 133.407 129.29 134.601C129.965 134.892 131.685 134.194 132.047 133.482C133.659 130.37 136.524 128.565 138.986 126.393C143.228 122.663 144.329 115.272 140.661 111.012C137.781 107.654 134.416 104.722 131.114 101.767C129.178 100.036 126.962 98.5885 124.358 99.4168C123.795 98.2117 123.612 96.8314 122.866 96.3539C118.691 93.7424 114.744 90.4258 109.726 89.6759C106.611 89.2096 104.13 87.6688 101.761 86.0497C96.9114 82.6921 92.3413 78.9166 87.6257 75.3538C87.1258 74.9807 86.3983 74.8912 85.6783 74.6375C84.824 76.6334 85.7119 78.0772 86.4244 79.4538C89.7074 85.6878 93.1397 91.836 96.363 98.1073C97.9747 101.252 100.351 102.073 103.664 101.715C106.798 101.375 109.969 100.831 112.938 101.308C113.438 103.509 113.871 105.412 114.293 107.277C112.916 107.061 111.704 105.24 110.226 106.509C108.51 107.979 107.037 109.728 105.253 111.575C109.178 111.922 111.64 110.631 114.207 107.199ZM33.997 97.6895C36.1384 95.3876 37.627 93.3842 39.5035 91.8621C43.3312 88.7619 47.5767 86.1616 51.2626 82.9084C55.4634 79.2113 58.6158 74.9733 56.2692 68.6385C54.915 64.9899 52.9564 63.5797 48.9645 66.0644C46.3083 67.7171 45.7823 70.3509 45.7151 73.1154C45.6144 77.4654 43.514 80.2671 39.5818 81.9646C38.2649 82.5466 37.0935 83.5427 35.9183 84.4119C34.3626 85.5684 32.8703 86.8182 31.3258 87.9896C30.6655 88.4896 29.9417 88.9037 28.8001 89.6423L33.997 97.6895ZM65.0886 95.7905C64.7566 94.0819 63.7045 93.8991 62.5443 94.3468C60.0372 95.3205 57.5824 96.4248 55.1015 97.4619C51.3708 99.0213 51.2328 99.3571 52.5199 103.155C53.5719 106.251 55.6089 106.755 57.9182 104.349C60.123 102.054 62.1824 99.6182 64.2604 97.2119C64.5911 96.7701 64.8726 96.2935 65.0998 95.7905H65.0886ZM97.6799 30.6899C97.1576 31.4137 96.6018 31.8464 96.6204 32.2493C96.6391 32.6523 97.2136 33.0701 97.5456 33.4767C97.9635 33.1037 98.6648 32.8015 98.7208 32.3874C98.7768 31.9733 98.2022 31.4771 97.6799 30.6899Z" fill="black"/>
<path d="M38.1911 46.0044C34.9678 44.2659 31.5579 42.7997 28.5808 40.7105C25.6037 38.6213 23.0743 35.786 20.2129 33.4506C17.8401 31.5069 15.1279 29.9624 13.3559 27.3509C10.6399 23.3628 8.23361 19.2329 7.30094 14.4054C7.04725 13.0773 6.6891 11.7715 6.34961 10.3315C9.33416 6.44784 12.994 3.40732 17.5417 1.52705C19.3399 0.780914 21.2015 -0.31591 23.1079 1.31813C24.6636 2.6388 25.4023 6.06731 24.339 8.24603C23.549 9.9296 22.5005 11.4792 21.2313 12.8385C17.538 16.6252 18.2058 20.3297 20.3061 24.3776C23.2907 30.2609 28.7412 33.6073 33.4531 37.7372C35.0237 39.1138 36.6951 40.4158 38.0307 41.9976C38.7134 42.8109 38.7544 44.1651 39.0864 45.2732L38.1911 46.0044Z" fill="black"/>
</g>
<defs>
<clipPath id="clip0_729_1012">
<rect width="150" height="149.224" fill="white" transform="translate(0.160156 0.471191)"/>
</clipPath>
</defs>
</svg>
