<svg width="151" height="254" viewBox="0 0 151 254" fill="none" xmlns="http://www.w3.org/2000/svg">
<g clip-path="url(#clip0_729_1056)">
<path d="M81.6064 167.6C81.2921 163.15 80.8483 159.156 80.7743 155.156C80.7065 151.649 79.1903 149.177 76.0899 147.907C72.0774 146.261 69.5502 143.241 67.2019 139.796C64.7744 136.256 62.1614 132.846 59.374 129.582C57.9046 127.867 56.1739 126.395 54.2458 125.219C49.7339 122.482 45.9987 124.306 45.6166 129.57C45.37 133.009 45.8015 136.387 48.5998 139.179C53.2842 143.851 53.1671 146.083 49.1484 151.322C45.5857 155.963 41.6101 159.951 35.7238 161.473C34.3608 161.901 32.9518 162.166 31.5263 162.262C23.8402 162.361 12.8256 154.934 10.4896 147.562C9.60201 144.776 9.87322 141.466 10.2307 138.47C10.8471 133.441 9.17672 129.342 6.48934 125.292C4.96068 123.118 3.85843 120.673 3.24107 118.087C2.00833 111.874 1.2317 105.575 0.399598 99.294C-0.974909 88.9204 3.78964 83.1019 14.1138 82.0972C22.6074 81.2713 26.5954 75.2863 32.605 71.6189C33.0796 71.3231 33.2213 70.3862 33.6775 70.1581C42.0478 66.2072 43.5949 58.293 45.3885 50.4342C46.048 47.4695 47.3486 44.6527 48.0882 41.7003C48.6244 39.5615 49.247 37.2377 48.9388 35.1359C46.8493 21.0518 53.7711 11.1468 64.8165 4.58242C74.3764 -1.09435 85.0828 -0.656731 95.3145 4.58242C103.839 8.96482 108.32 15.9298 109.879 25.2062C110.37 28.0055 111.3 30.7097 112.635 33.219C116.653 40.8127 120.771 48.3632 125.221 55.7042C126.873 58.4409 129.535 60.5859 131.767 62.9466C132.605 63.8341 133.684 64.4937 134.497 65.4121C141.777 73.5358 142.011 80.2481 133.264 89.4505C128.099 94.9054 128.389 99.3556 131.193 105.304C133.16 109.47 135.329 112.977 139.089 115.93C142.695 118.753 145.536 122.71 148.236 126.507C151.145 130.599 150.948 132.849 147.133 136.147C142.085 140.517 136.599 144.394 130.429 149.152C130.213 151.143 131.002 153.904 133.665 155.994C137.166 158.731 137.296 162.38 135.73 165.948C133.08 171.964 129.141 176.994 122.17 178.233C116.875 179.169 112.678 182.097 108.61 185.117C102.939 189.296 96.9664 192.853 90.1925 194.659C81.7544 196.915 78.0931 203.565 76.9344 210.802C75.301 221.015 74.6969 231.512 77.5507 241.842C78.2287 244.308 77.9514 247.149 77.5507 249.732C77.3412 251.075 76.1207 252.955 74.9805 253.276C73.8402 253.596 71.7137 252.77 70.7891 251.753C68.4777 249.195 66.1787 246.465 64.6254 243.42C56.2366 227.123 52.1069 209.815 56.8037 191.811C59.7931 180.359 67.7504 172.124 79.443 168.254C80.2874 167.982 81.2305 167.717 81.6064 167.6ZM95.0803 105.014L102.896 105.458L98.5813 102.018L105.805 99.3803L97.8478 90.523C98.9388 88.791 99.9312 87.2254 101.639 84.5319L91.3389 87.7617C92.4484 89.2841 93.749 90.2765 93.9092 91.4229C94.5256 95.9902 94.8214 100.613 95.2159 105.186L89.9829 99.4481C86.2847 100.73 85.3108 103.072 88.0229 105.47C90.0816 107.319 92.3375 109.279 95.8076 108.62L95.0803 105.014ZM77.3781 114.346C82.1242 114.685 83.7699 112.725 82.3091 109.581C81.3767 107.765 80.1239 106.132 78.6109 104.761C76.3118 102.567 73.3964 103.017 71.2144 105.624C69.3653 107.812 69.5995 109.55 72.5581 111.732C74.2531 113.027 76.3735 113.828 77.3597 114.346H77.3781ZM81.138 174.75C76.1269 175.705 72.139 176.451 69.9447 181.074C74.2593 183.638 77.9144 181.9 82.0626 180.79C81.7421 178.793 81.4832 177.111 81.1195 174.75H81.138ZM89.6809 97.1736C88.5776 93.759 88.5776 93.759 84.7499 94.0918L89.6809 97.1736Z" fill="black"/>
</g>
<defs>
<clipPath id="clip0_729_1056">
<rect width="150" height="252.915" fill="white" transform="translate(0.160156 0.471191)"/>
</clipPath>
</defs>
</svg>
