<svg width="151" height="193" viewBox="0 0 151 193" fill="none" xmlns="http://www.w3.org/2000/svg">
<g clip-path="url(#clip0_729_856)">
<path d="M64.6619 127.009C64.9448 125.275 65.1859 123.837 65.4223 122.395C62.0931 120.007 61.138 120.23 61.0545 124.004C60.9849 127.329 61.0545 130.936 62.2461 133.946C63.9757 138.323 66.5352 142.44 69.2477 146.317C70.175 147.671 72.5769 148.422 74.4131 148.677C80.9648 149.604 87.5676 150.16 94.1426 150.888C94.6831 151.023 95.2083 151.212 95.7098 151.454C95.6078 152.15 95.7655 153.202 95.3667 153.49C93.563 154.779 91.6573 156.647 89.6866 156.824C86.3992 157.111 83.0097 156.253 79.6619 155.896C78.6465 155.785 77.6264 155.697 76.4162 155.576C75.9525 157.477 75.6465 159.114 75.1689 160.709C74.2647 163.709 72.2801 164.581 69.5769 163.028C67.3158 161.729 65.137 160.292 63.0529 158.725C60.0947 156.504 57.3543 154.153 53.3528 153.745C51.4192 153.545 49.9865 151.927 49.2724 149.757C48.5583 147.587 47.3528 145.691 46.2353 143.423C48.2199 140.85 46.4579 138.072 45.3961 135.337C44.005 131.752 42.4239 128.242 40.9169 124.705C39.2894 120.879 40.138 117.286 42.5444 114.253C46.4579 109.306 50.5939 104.474 56.5846 101.854C58.3976 101.062 60.2941 100.236 62.1998 99.9441C64.6109 99.5778 66.3265 98.7664 66.6882 95.3444C69.4424 99.9117 73.954 99.7725 77.4038 99.9534C83.1209 100.25 88.9958 98.9611 94.6851 97.8576C98.1163 97.1945 99.9757 94.7741 99.7856 92.6829C99.5954 90.5917 96.6928 88.2038 93.6464 87.9534C83.3806 87.0956 74.8118 82.7324 67.5135 75.5871C66.8644 74.9565 66.1225 74.2563 65.3203 73.9874C58.3652 71.669 51.3126 69.7355 43.9401 68.9843C40.6619 68.6504 37.393 67.4032 34.3188 66.1049C30.0205 64.2919 28.4533 64.7834 27.1039 69.1466C26.8304 70.0322 26.6681 70.9549 26.3713 71.8266C24.0529 78.652 16.4254 81.4573 10.1426 77.822C4.15186 74.3583 3.18741 69.1466 7.40688 63.5175C8.1605 62.5607 8.72397 61.4683 9.06685 60.2996C9.71136 57.8004 11.2508 56.7107 13.7407 56.7432C17.58 56.7942 21.5537 56.2239 25.24 57.0121C32.0328 58.4681 38.3528 56.1543 44.8628 55.4727C47.8814 55.1574 50.8211 54.0817 53.7933 53.3676C56.1117 52.788 57.1503 51.3599 56.6959 48.9256C56.4409 47.5623 56.3852 46.1435 56.0421 44.8174C54.1364 37.3104 55.9123 30.6288 60.1828 24.3228C62.3342 21.1512 64.0869 17.6968 65.8999 14.3073C70.9401 4.87611 78.6928 0.00748215 89.4873 0.508255C91.9192 0.667616 94.3159 1.1735 96.6047 2.01057C109.759 6.56853 114.327 14.5902 112.833 28.1342C112.649 29.7778 112.844 31.4418 113.404 32.9982C115.449 38.3954 117.136 43.8158 115.722 49.635C115.156 51.9534 116.316 53.0801 117.943 54.1837C120.874 56.1682 123.679 58.3568 126.716 60.1651C128.002 60.8954 129.069 61.9583 129.803 63.2424C130.537 64.5265 130.912 65.9844 130.889 67.4634C130.917 71.8452 132.6 75.6242 134.413 79.315C138.804 88.2733 143.543 97.06 148.022 105.977C148.983 107.904 149.666 109.959 150.048 112.079C150.656 115.422 149.631 118.148 147.206 120.856C141.517 127.204 134.988 127.496 127.532 125.029C124.416 123.995 121.323 122.813 117.702 123.536C115.268 124.028 112.439 123.388 109.963 122.655C104.807 121.125 99.8505 118.895 94.6619 117.527C90.1039 116.331 85.3512 115.844 80.6635 115.208C78.5815 114.921 77.1349 115.793 76.7407 118.139C76.459 119.497 76.0056 120.813 75.3914 122.057C73.124 126.977 71.0746 128.006 64.6619 127.009ZM98.6588 39.1188C97.6665 38.5763 97.0081 38.0569 96.2709 37.8946C95.988 37.8344 95.5244 38.5948 95.1488 38.9797C95.8586 39.5603 96.6051 40.0947 97.3837 40.5793C97.4764 40.6304 98.0421 39.8375 98.6588 39.1188ZM141.294 107.28C140.529 106.57 140.047 105.777 139.541 105.759C139.036 105.74 138.285 106.538 138.211 107.052C138.136 107.567 138.855 108.49 139.254 108.504C139.806 108.508 140.385 107.859 141.294 107.27V107.28Z" fill="black"/>
<path d="M7.39438 120.564C6.24909 118.273 4.99252 116.029 3.99098 113.678C2.84569 110.994 1.61694 108.286 1.00489 105.462C0.471657 102.972 0.160993 100.162 0.777685 97.7927C2.67413 90.6475 3.09608 90.3971 10.3851 88.4728C15.1424 87.2209 20.0018 86.3584 24.7591 85.1111C29.6509 83.8267 34.45 82.2224 39.3279 80.8917C42.9724 79.8948 46.4732 78.5269 50.535 79.751C55.8534 81.3507 56.2939 84.0679 53.3774 88.8808C51.7267 91.6073 49.1115 94.0277 45.2398 94.2502C37.7421 94.6815 30.2676 95.4604 22.7746 95.9288C18.1656 96.2209 13.5335 96.1791 8.91524 96.3414C5.91988 96.4527 5.20581 97.139 4.95543 100.222C4.44075 106.464 5.21045 112.51 7.84415 118.26C8.05396 118.807 8.22592 119.367 8.35883 119.938L7.39438 120.564Z" fill="black"/>
<path d="M42.7915 141.754C42.0497 144.007 41.8039 145.194 41.2799 146.242C39.6571 149.488 36.8843 151.955 35.1408 155.252C34.1347 157.148 30.5597 157.686 27.4113 159.179C27.4364 160.048 27.5451 160.913 27.7359 161.762C27.9306 162.466 28.5798 163.037 28.9832 163.691C31.7653 168.174 31.5242 169.106 26.2799 172.287C22.96 169.213 19.4175 166.106 16.079 162.782C13.9229 160.621 13.7606 157.76 15.3557 155.187C16.1997 153.899 17.1807 152.707 18.2815 151.63C20.3263 149.544 22.552 147.638 24.5458 145.505C26.4005 143.502 28.5798 142.505 31.1625 143.442C32.9476 144.091 34.2877 143.78 35.9569 143.066C37.6262 142.352 39.7452 142.301 42.7915 141.754Z" fill="black"/>
<path d="M104.952 192.986C101.053 187.227 94.7745 183.43 92.4329 176.326C91.4684 173.414 91.1253 170.692 91.997 167.794C92.1315 167.331 92.1315 166.793 92.4097 166.482C95.8595 162.615 98.5581 158.029 103.139 155.247C106.042 153.481 109.07 153.856 112.093 154.76C114.411 155.451 115.181 157.079 114.351 159.42C113.067 163.042 110.141 164.984 106.876 166.57C102.703 168.583 102.546 168.777 103.014 173.201C103.223 175.19 103.71 177.147 104.043 179.127C104.34 180.879 105.119 182.59 102.963 184.009C101.572 184.913 102.152 186.485 103.019 187.719C104.039 189.174 105.045 190.644 106.051 192.11L104.952 192.986Z" fill="black"/>
<path d="M11.3574 140.474L15.7067 139.422C15.9803 141.768 16.2214 143.799 16.5274 146.405C13.7546 145.102 11.4873 144.045 11.3574 140.474Z" fill="black"/>
<path d="M1.67639 118.042L0.160156 115.649L0.721207 115.213L2.51564 117.485L1.67639 118.042Z" fill="black"/>
</g>
<defs>
<clipPath id="clip0_729_856">
<rect width="150" height="192.515" fill="white" transform="translate(0.160156 0.471191)"/>
</clipPath>
</defs>
</svg>
