<svg width="151" height="266" viewBox="0 0 151 266" fill="none" xmlns="http://www.w3.org/2000/svg">
<g clip-path="url(#clip0_729_916)">
<path d="M27.7132 215.436C27.0005 214.303 26.2878 213.162 25.3185 211.673C33.8712 208.188 42.9727 208.751 52.0456 208.979C56.2452 209.161 60.4521 209.068 64.6395 208.701C77.9817 207.275 91.2954 205.565 104.63 204.032C109.456 203.477 111.259 201.41 109.263 196.905C106.891 191.792 104.006 186.933 100.653 182.401C99.734 181.118 96.8047 180.741 94.8519 180.855C90.9034 181.083 87.0119 181.924 83.2986 182.473C84.2964 186.749 85.8644 190.612 85.8359 194.489C85.8359 196.385 83.1561 198.765 81.1319 200.041C75.815 203.355 69.7283 203.605 63.9125 202.037C52.288 198.937 40.7989 195.302 29.2955 191.774C26.818 191.075 24.4485 190.039 22.2538 188.695C14.6205 183.706 13.9006 179.429 19.018 172.088C21.5624 168.453 23.9144 164.683 26.2308 161.148C21.0065 156.038 15.6753 151.733 11.5344 146.48C8.20306 142.204 5.69454 137.346 4.13631 132.154C2.10504 125.376 5.44772 119.176 8.97571 113.552C11.4774 109.575 14.8129 106.133 17.5854 102.305C19.4955 99.6754 21.0778 96.7959 23.1162 93.5245C18.74 90.5525 14.9412 87.9154 11.0782 85.3567C4.79202 81.1944 3.60177 73.8248 8.34851 67.7952C14.0859 60.504 21.8903 56.5341 30.7138 54.5813C33.9211 53.8685 37.2566 53.7688 40.528 53.334C48.2967 52.2934 51.0051 48.7797 50.5489 40.8827C49.658 25.3952 56.2507 13.4784 68.5096 4.53376C70.2907 3.35905 72.2827 2.54094 74.3753 2.12475C88.4445 -1.18229 101.252 -0.0134268 112.271 10.9839C119.897 18.6243 122.748 27.5975 122.27 37.8251C122.127 39.9568 122.481 42.0926 123.307 44.0634C124.132 46.0341 125.405 47.7855 127.024 49.1788C132.077 53.8543 133.439 59.0429 131.664 65.7425C129.847 72.6417 128.022 79.3841 124.416 85.6988C123.04 88.1078 122.89 91.6643 123.261 94.558C124.138 101.286 122.242 107.159 119.199 112.953C116.896 117.344 113.319 119.033 108.643 118.449C103.718 117.836 98.8503 116.809 93.9253 116.175C87.5108 115.348 81.7591 116.26 77.9104 122.426C81.6451 130.401 87.6177 133.708 96.1704 133.202C105.101 132.682 111.458 137.321 116.205 144.463C116.949 145.653 117.468 146.97 117.737 148.347C118.885 153.586 120.296 154.762 125.777 154.983C129.761 155.161 133.752 155.446 137.722 155.874C139.361 156.091 140.961 156.538 142.476 157.199C150.851 160.649 151.699 162.809 148.392 171.24C145.847 177.712 144.45 184.254 145.541 191.375C146.111 195.216 145.398 199.321 144.828 203.241C144.315 206.684 139.611 210.547 135.121 210.105C130.631 209.663 127.545 212.286 123.853 213.583C119.683 215.051 115.421 216.291 111.337 217.959C108.315 219.185 104.923 220.354 102.727 222.585C96.2702 229.234 89.143 231.943 79.9203 229.712C74.9811 228.507 69.7141 228.643 64.5967 228.18C58.7167 227.645 52.7798 227.431 46.971 226.441C44.1202 225.956 41.3548 224.26 38.789 222.72C34.9616 220.425 31.341 217.781 27.6348 215.286L27.7132 215.436ZM60.8834 162.78C63.7343 155.724 66.7135 149.117 69.151 142.325C70.2467 139.24 70.7779 135.983 70.719 132.71C70.6406 129.367 68.6806 127.236 64.8034 127.008C58.6027 126.623 56.5786 128.277 56.5786 134.535C56.5786 136.673 56.3933 139.039 57.2913 140.807C59.8286 145.867 59.85 150.735 57.7261 155.874C56.2864 159.338 57.5336 161.69 60.8834 162.78ZM96.3771 101.621C100.497 99.7965 105.372 99.5399 104.288 93.5673C99.3706 93.2751 96.0279 96.3826 96.3771 101.621Z" fill="black"/>
<path d="M19.5534 265.605C7.35867 259.832 3.43156 249.633 0.160156 237.951C2.29833 236.789 4.56479 234.993 7.11635 234.309C12.9749 232.741 18.9832 231.765 24.9345 230.453C27.4718 229.897 30.2799 228.529 32.1258 231.202C34.2141 234.231 31.3561 236.397 29.9877 238.728C29.7714 239.153 29.45 239.516 29.054 239.783C21.7771 243.745 20.2162 250.26 20.6439 257.872C20.7294 260.245 19.9739 262.675 19.5534 265.605Z" fill="black"/>
<path d="M27.5282 215.244C26.4805 219.199 26.4805 224.046 24.0786 226.84C21.9048 229.37 17.1224 229.691 12.3828 231.33C13.231 229.192 13.516 227.994 14.1575 226.989C15.2907 225.236 17.0084 223.789 17.8138 221.915C20.629 215.115 20.5221 215.073 27.7135 215.443L27.5282 215.244Z" fill="black"/>
<path d="M140.667 67.2463L143.475 73.4114L146.832 68.9497C148.122 71.5298 148.728 73.7606 146.248 75.2289C145.093 75.9416 142.627 75.9416 141.736 75.1718C139.413 73.1691 138.194 70.4108 140.667 67.2463Z" fill="black"/>
</g>
<defs>
<clipPath id="clip0_729_916">
<rect width="150" height="265.141" fill="white" transform="translate(0.160156 0.471191)"/>
</clipPath>
</defs>
</svg>
