<svg width="151" height="159" viewBox="0 0 151 159" fill="none" xmlns="http://www.w3.org/2000/svg">
<g clip-path="url(#clip0_729_1072)">
<path d="M33.3477 128.523C36.1226 131.151 45.25 132.562 53.7085 133.041C60.8378 133.447 67.8721 132.321 74.9496 132.251C75.0403 132.558 75.1352 132.864 75.2258 133.171C74.5138 133.641 73.8578 134.37 73.0681 134.543C64.3938 136.442 55.685 138.211 46.7863 138.682C42.0953 138.928 37.3612 139.42 32.7133 139.014C27.047 138.522 21.2469 138.393 15.8438 136.187C13.5264 135.242 12.0418 136.619 10.54 138.004C9.49995 138.966 8.52032 140.032 7.35081 140.805C6.03025 141.668 4.55865 142.354 2.95758 141.198C1.23136 139.955 -0.00289335 138.47 0.161098 136.196C0.402769 132.92 0.700542 129.645 0.87748 126.369C1.07168 122.736 1.61544 119.201 3.72143 116.133C4.73558 114.657 4.58454 113.246 4.15298 111.636C2.22393 104.3 2.49581 96.851 4.39034 89.5966C5.13491 87.1131 6.63416 84.923 8.68 83.3304C13.4271 79.701 19.0373 78.1776 25.0791 77.746C32.3465 77.2325 39.5794 76.2227 46.8165 75.3121C50.925 74.7985 53.6567 72.6666 54.4421 68.3381C54.645 67.2334 55.4865 66.2451 56.0389 65.2007L56.902 65.5287C56.9191 66.4403 56.8686 67.352 56.751 68.2561C55.6462 73.6333 56.4618 74.436 61.9296 73.2363C62.2062 73.159 62.4872 73.0985 62.7711 73.055C67.1903 72.6235 68.321 69.3307 66.8925 65.4726C66.1071 63.3537 64.6139 61.5066 63.5221 59.4913C62.4302 57.4759 61.2219 55.5339 60.5012 53.4063C58.9778 48.8836 56.6603 44.8054 54.071 40.8653C52.1419 37.9351 49.8288 37.305 46.7346 38.8974C43.8777 40.369 40.9301 41.5688 37.715 40.8567C36.0802 40.5046 34.5746 39.707 33.365 38.5522C31.0087 36.1484 29.2264 33.2354 26.322 31.2934C23.7758 29.5931 23.7585 26.4859 23.4262 23.9095C22.9084 19.9263 23.6593 15.9387 25.1223 12.1324C27.3491 6.28048 31.6646 3.20781 37.7064 1.61537C44.279 -0.110855 50.83 0.640051 57.4026 0.622789C63.5609 0.622789 69.7235 0.622789 75.8818 0.795411C79.7226 0.9033 83.5549 1.37801 87.3957 1.58516C89.3852 1.68873 91.53 1.08024 93.3468 1.63694C96.7432 2.68562 99.9799 4.27806 103.221 5.77556C105.038 6.63867 105.638 8.42531 105.163 10.1688C103.333 16.9011 106.224 21.9718 110.255 26.9995C112.189 29.4032 113.418 32.4673 114.541 35.3975C115.624 38.2275 117.441 40.7181 119.806 42.6131C123.646 45.7505 123.832 50.0186 122.537 53.963C119.814 62.2618 113.121 66.681 105.241 69.4343C103.946 69.8658 102.384 69.4041 100.964 69.5551C99.8806 69.6716 98.5212 69.8054 97.8437 70.4873C97.1661 71.1691 96.9374 72.589 97.1704 73.5082C97.4984 74.8028 98.6636 74.9668 99.9755 74.4662C101.116 74.0745 102.326 73.9274 103.527 74.0347C100.178 76.1105 96.713 77.8841 97.6063 82.9074C100.511 83.7785 103.577 83.9748 106.57 83.4814C108.831 83.106 111.097 82.7132 113.362 82.3378C116.815 81.7681 118.645 79.0709 120.509 76.5636C120.863 76.0932 120.457 74.5266 119.896 74.0217C118.99 73.1931 117.678 72.7918 116.513 72.2696C115.266 71.7129 113.984 71.2209 112.788 70.2672C118.368 67.3887 124.393 67.4491 130.18 67.2463C135.967 67.0435 141.767 65.9516 147.611 66.9097C148.258 70.6772 145.431 71.7388 143.558 73.15C140.68 75.3078 140.27 75.5926 142.1 78.5013C144.555 82.3853 145.531 86.6706 145.949 91.1372C146.143 93.2044 146.661 95.0212 148.21 96.5489C150.562 98.8793 150.916 101.529 148.642 104.058C146.277 106.69 145.703 109.759 144.758 112.939C142.773 119.646 140.404 126.253 137.81 132.752C136.886 135.07 134.957 137.029 133.296 138.992C132.057 140.46 131.924 141.75 133.089 143.217C133.763 144.149 134.495 145.037 135.281 145.876C138.134 148.633 141.12 151.261 143.912 154.075C145.137 155.394 145.988 157.017 146.376 158.775C144.585 158.188 142.73 157.743 141.012 156.984C137.758 155.543 134.625 153.821 131.363 152.405C128.381 151.11 125.437 149.475 121.929 150.278C120.293 150.649 119.18 150.045 118.878 148.189C118.368 145.099 116.193 143.519 113.725 141.767C107.429 137.288 100.48 133.999 93.8733 130.059C93.5108 129.843 92.9757 129.723 92.8031 129.403C89.0615 122.602 82.1566 118.286 78.7948 111.123C76.5702 106.492 75.0863 101.541 74.3973 96.4496C73.7413 91.4048 68.6705 86.8087 63.5523 86.8519C62.1497 86.8519 60.7515 86.5066 59.3446 86.3469C57.6831 86.1571 56.013 85.9974 54.1659 85.8075C53.7344 87.1453 53.2554 88.1854 53.0827 89.2599C52.293 94.2012 51.6413 99.1857 50.8386 104.105C50.4934 105.93 50.0512 107.735 49.5138 109.513C48.2968 113.966 49.5138 116.539 53.6308 118.433C55.7109 119.387 57.7047 120.526 59.7459 121.558C63.2718 123.344 64.4672 125.536 62.1281 129.425L54.8478 130.461C54.2695 125.631 51.3954 122.964 47.3776 121.156C45.8887 120.483 44.6631 120.492 43.3727 121.407C40.0354 123.794 36.6937 126.167 33.3477 128.523ZM136.256 114.458C136.36 106.557 135.251 100.329 133.115 95.9965C130.84 91.3832 127.936 87.702 122.037 88.112C121.083 88.1767 120.103 87.5251 119.119 87.469C117.751 87.3913 116.254 87.2446 115.007 87.6804C109.763 89.5102 104.649 91.7371 99.3627 93.4288C96.9029 94.2142 96.1951 95.7764 95.3579 97.8824C93.3555 102.919 97.6969 115.399 101.119 118.627C101.736 119.21 102.53 119.702 102.914 120.41C106.613 127.258 112.322 132.169 118.558 136.515C120.285 137.715 122.343 138.5 124.345 139.212C126.723 140.054 127.569 139.364 129.265 137.145C131.686 133.973 132.42 130.176 133.805 126.598C135.428 122.399 136.628 118.17 136.256 114.458ZM47.5933 86.6318C41.8882 85.4364 37.0591 84.4136 32.2213 83.4124C31.5195 83.2621 30.8065 83.1697 30.0895 83.1362C26.7535 83.0197 25.0057 84.1935 23.491 87.3611C22.1963 90.0583 20.7247 92.6692 19.5077 95.401C18.8186 96.8102 18.4041 98.3378 18.2864 99.9021C18.1656 103.752 18.4806 107.614 18.3727 111.463C18.2907 114.381 19.7149 116.642 21.0139 119.011C21.6914 120.241 22.5675 121.359 23.3097 122.554C25.1223 125.472 26.3306 126.085 29.2566 125.554C32.1825 125.023 33.6498 122.926 34.569 120.483C34.8323 119.784 34.09 118.101 33.3779 117.751C30.7066 116.457 27.854 115.511 25.0791 114.415C24.4361 114.161 23.8233 113.833 23.1975 113.552L23.4435 112.689C25.9163 113.095 28.3805 113.552 30.8576 113.902C34.9272 114.489 37.4518 112.913 38.768 109.103C39.1996 107.894 39.7088 106.721 40.1749 105.53L47.5933 86.6318ZM56.5309 16.5688C55.4951 16.258 55.0506 16.0077 54.6234 16.0336C54.3256 16.0336 54.0494 16.4307 53.7603 16.6508C54.1055 16.9874 54.4206 17.5527 54.7917 17.5915C55.1628 17.6304 55.5987 17.1514 56.5309 16.5688Z" fill="black"/>
</g>
<defs>
<clipPath id="clip0_729_1072">
<rect width="150" height="158.299" fill="white" transform="translate(0.160156 0.47168)"/>
</clipPath>
</defs>
</svg>
