<svg width="151" height="157" viewBox="0 0 151 157" fill="none" xmlns="http://www.w3.org/2000/svg">
<g clip-path="url(#clip0_729_902)">
<path d="M66.2982 104.055C66.9283 105.576 68.8632 106.96 67.5174 108.727C66.0485 110.658 64.4192 112.578 62.4955 114.021C60.9483 115.188 57.9546 113.629 57.5668 111.53C57.276 109.935 57.6377 108.22 57.7383 105.822C56.6982 104.514 54.7371 103.496 52.4667 104.797C48.7683 106.915 45.1408 106.68 41.4014 105.189C40.0182 104.637 38.6537 104.037 36.8344 105.561C39.0377 107.798 39.7349 111.184 43.7464 111.467C45.5322 111.594 51.8925 116.932 53.8536 119.352C52.8395 119.132 52.1237 119.121 51.5458 118.826C46.9452 116.502 42.3608 114.141 37.7925 111.743C34.6012 110.08 34.1128 110.341 33.3895 113.808C31.764 121.555 34.2023 128.546 37.6397 135.197C39.8244 139.428 42.7398 143.287 45.4055 147.436C43.1014 145.874 41.1926 143.913 39.3956 141.844C38.5046 140.815 37.6769 139.723 36.7412 138.735C30.8022 132.449 27.0292 125.06 25.7169 116.552C25.2322 113.413 25.3925 110.147 25.5081 106.948C25.5864 104.816 24.9452 103.384 22.9953 102.474C18.4469 100.349 16.6127 96.5094 16.3405 91.7187C16.3181 91.3458 16.0982 90.891 16.2436 90.6226C17.8616 87.6139 17.3993 84.1206 18.4805 81.0486C19.1926 78.9944 19.3752 77.1191 18.5103 75.3072C16.5791 71.2733 17.5037 67.0791 17.3919 62.9221C17.3136 59.7047 18.2941 56.9235 19.8674 54.2168C20.5112 53.0081 21.0357 51.7395 21.4332 50.429C22.1565 48.3374 21.7352 47.2861 19.7332 46.7269C16.512 45.8321 13.261 45.0194 9.98394 44.3669C7.50096 43.8748 6.91564 44.4489 6.6062 46.9767C6.4869 47.9609 6.40487 48.9489 6.23338 49.9219C5.66669 53.2773 6.25948 56.2785 8.28015 59.0746C10.5171 62.1653 12.6198 65.3604 14.7187 68.5517C14.9982 68.9708 15.1893 69.4426 15.2804 69.9381C15.3714 70.4336 15.3604 70.9425 15.2481 71.4336L0.160156 53.2027C2.71397 51.0441 0.350294 48.796 0.160156 45.7464C0.532975 45.4779 1.35318 44.9224 2.14355 44.3259C3.7765 43.0956 4.29845 41.5559 3.98155 39.4569C3.33657 35.1844 6.19237 31.2549 10.0399 29.4877C15.8074 26.878 21.5972 25.3643 27.9725 26.535C29.5905 26.8295 31.7528 26.6096 32.8899 23.9774L28.5168 22.1134C30.9997 21.3677 32.066 19.8764 32.3754 17.6656C32.6476 15.7046 34.1948 14.78 35.9508 14.2842C39.1645 13.3782 42.3931 12.5021 45.6441 11.6744C52.5885 9.90477 59.5378 8.16495 66.4921 6.45495C70.4477 5.4819 74.3661 5.37378 77.8706 7.87167C79.4028 8.96403 80.5548 8.72169 81.7702 7.46157C82.8666 6.2999 84.0226 5.19611 85.2337 4.15466C89.2303 0.799291 94.2075 0.79929 98.9833 0.530861C102.283 0.344451 105.653 0.720998 108.941 1.19075C113.575 1.85437 117.143 4.78845 120.241 7.92386C123.239 10.8667 125.024 14.8269 125.242 19.0219C125.461 23.2169 124.098 27.3414 121.423 30.5801C120.588 31.6053 119.429 32.3696 118.415 33.2495C116.483 34.9197 116.178 36.9776 117.967 38.7113C119.44 40.1354 121.323 41.1048 122.87 42.4767C124.592 44.0165 126.494 45.5599 127.623 47.5023C129.144 50.1121 131.035 51.9762 133.749 53.1915C138.536 55.3203 140.038 59.1977 137.413 63.7721C135.71 66.7547 133.424 69.4166 131.169 72.0226C128.496 75.1245 128.238 76.4517 130.956 79.6244C133.353 82.4243 136.392 84.7432 138.465 87.7444C141.13 91.6031 144.672 94.3955 148.065 97.4377C150.212 99.3652 150.708 102.031 149.556 104.6C148.404 107.168 146.026 108.413 143.177 108.205C141.22 108.063 139.076 107.996 137.391 107.157C132.343 104.652 126.859 103.574 121.576 101.859C118.884 100.983 116.163 100.178 113.423 99.4733C109.829 98.5487 108.792 99.5777 108.852 103.399C108.908 107.068 110.567 110.136 112.464 113.003C114.988 116.806 118.172 120.18 120.592 124.038C124.134 129.683 127.832 135.29 129.912 141.721C130.021 142.077 130.092 142.443 130.125 142.814C130.647 147.955 128.701 149.233 123.809 147.518C119.384 145.968 115.98 143.332 112.535 140.17C105.575 133.761 99.6395 126.51 93.57 119.341C91.9706 117.454 90.3451 115.575 88.5779 113.857C87.1612 112.477 85.655 111.206 83.3286 112.5C82.5084 112.954 81.1253 112.757 80.1186 112.459C76.4799 111.385 73.27 109.592 71.0554 106.348C70.4962 105.532 69.937 104.648 69.1727 104.066C68.5128 103.571 67.5584 103.462 66.7344 103.183C66.5965 103.47 66.4474 103.761 66.2982 104.055ZM55.1137 72.6639C55.9898 73.3387 57.0076 74.0172 57.9024 74.8337C60.1579 76.8917 60.3033 79.2702 58.4989 81.6973C56.5229 84.3555 54.3233 86.6222 50.789 87.0137C50.4721 87.051 50.1887 87.3865 49.8308 87.6363C50.8188 89.4258 52.1572 89.1276 53.4658 88.8181C54.4359 88.5737 55.4552 88.6078 56.4068 88.9164C57.3583 89.2251 58.2036 89.7957 58.8456 90.5629C60.2027 92.1735 58.8978 93.8064 57.8651 95.2306C57.7905 95.3313 57.7048 95.4208 57.6377 95.5251C56.728 96.8748 56.7093 98.0118 58.2826 98.9402C60.1467 100.059 61.981 101.259 64.0688 102.579C64.546 100.678 66.4884 99.4136 65.109 97.3594C66.3169 95.9241 65.6123 93.3106 68.0915 92.6395C71.0741 91.8268 74.0342 90.2684 77.0093 90.2498C81.1625 90.2274 81.8262 87.5841 82.7172 84.7358C83.3473 82.7263 83.6343 80.549 84.5813 78.7147C85.8862 76.1945 85.1853 73.8681 84.5813 71.5007C84.0519 69.4614 82.624 68.5181 80.4803 68.3317C76.4352 67.9925 72.3901 67.5861 68.3674 67.0343C66.9917 66.8442 65.9888 67.0343 65.012 68.0297C62.9168 70.2219 60.2325 71.0831 57.2798 70.9601C56.083 70.9005 55.4119 71.2285 55.1249 72.6639H55.1137ZM67.2117 52.994C66.0932 52.0694 65.2469 51.2827 64.3074 50.6489C63.2859 49.9592 62.1711 49.4149 61.1012 48.7848C57.3431 46.6411 53.6261 44.4266 49.8159 42.3798C46.8334 40.7841 44.9693 41.4515 44.369 44.7136C43.739 48.1622 41.6102 50.0002 38.9594 51.7599C36.1111 53.6837 33.2516 55.6484 30.7313 57.9748C28.4534 60.0551 27.0031 62.773 27.074 65.8674C30.7201 65.2 34.1873 64.5849 37.6434 63.9138C38.3592 63.7759 39.198 63.623 39.6976 63.1682C41.461 61.5427 43.7054 60.8903 45.7485 59.8128C50.2369 57.4646 55.1257 55.9788 60.1616 55.4322C62.4209 55.16 64.7622 54.7574 67.2228 52.994H67.2117ZM87.7167 40.7953C88.5183 40.0981 89.3795 39.4457 90.1251 38.6777C91.128 37.6413 91.0907 36.4632 90.1885 35.382C89.0961 34.0697 87.6086 33.2084 86.0055 33.9243C85.2598 34.2523 84.7043 35.6057 84.585 36.5601C84.3315 38.6852 85.6923 39.8745 87.7353 40.7953H87.7167ZM98.4017 46.3876L100.601 44.8963C100.862 45.3742 101.175 45.8218 101.533 46.231C101.878 46.4725 102.255 46.6657 102.652 46.8052C105.847 43.8673 105.851 43.7853 103.144 42.2008L100.821 43.845C100.665 42.678 100.557 41.8504 100.448 41.0265L99.6096 39.99C99.9079 44.0239 96.9999 41.4813 96.1014 42.8234L98.4017 46.3876ZM60.0013 20.3723C59.4048 18.7132 58.1894 19.0152 57.1194 19.0711C55.6617 19.1457 54.1593 19.1345 52.7836 19.5334C52.3474 19.6602 52.0789 20.98 52.0827 21.7517C52.0827 22.1245 53.0818 22.8702 53.3428 22.7695C55.5387 21.8897 58.2006 22.1767 60.0237 20.3872L60.0013 20.3723ZM73.0314 47.0736C72.707 43.5915 71.9129 42.8607 68.0542 42.5998C69.4486 44.5384 70.403 46.6076 73.0314 47.0736Z" fill="black"/>
<path d="M17.6525 124.777C17.6302 126.935 17.0411 127.595 14.5358 128.315C14.1787 128.382 13.8412 128.529 13.5478 128.743C11.9335 130.268 10.349 130.328 8.6154 128.896C6.5649 127.2 5.3085 125.168 5.81553 122.439C6.37849 119.4 11.7173 117.689 14.4873 119.557C15.9227 120.519 17.6824 123.405 17.6525 124.777Z" fill="black"/>
<path d="M127.183 155.124C126.478 155.639 126.09 156.123 125.658 156.172C125.352 156.205 124.655 155.568 124.704 155.37C124.819 154.889 125.199 154.252 125.61 154.132C125.919 154.039 126.441 154.628 127.183 155.124Z" fill="black"/>
</g>
<defs>
<clipPath id="clip0_729_902">
<rect width="150" height="155.7" fill="white" transform="translate(0.160156 0.471191)"/>
</clipPath>
</defs>
</svg>
