<svg width="151" height="218" viewBox="0 0 151 218" fill="none" xmlns="http://www.w3.org/2000/svg">
<g clip-path="url(#clip0_729_1118)">
<path d="M150.16 165.554C149.817 166.538 149.472 167.523 149.125 168.511C145.567 168.187 142.164 167.702 138.775 167.65C136.202 167.642 133.636 167.913 131.122 168.459C128.405 169.015 128.026 169.737 127.887 172.988L123.921 171.807C122.369 174.275 122.66 175.815 125.112 177.102C125.953 177.545 126.904 177.778 127.806 178.105C128.218 178.216 128.62 178.363 129.006 178.545C131.917 180.22 134.809 181.918 137.775 183.649C136.721 184.457 135.815 185.395 134.712 185.913C133.913 186.288 132.849 186.094 131.908 186.185C128.282 186.524 124.652 186.867 121.03 187.246C120.758 187.275 120.519 187.598 120.169 187.854C120.515 188.966 120.816 190.102 121.217 191.188C121.984 193.22 123.055 193.75 125.422 193.495C127.428 193.275 129.284 193.495 130.514 195.998C129.197 196.564 128.013 197.292 126.736 197.567C124.219 198.075 121.651 198.353 119.096 198.644C117.155 198.864 116.951 199.074 117.122 201.054C117.446 205 118.905 208.519 121.052 211.815C122.023 213.323 123.158 214.866 122.589 217.094C120.561 216.955 119.057 215.778 117.821 214.38C116.591 213.027 115.552 211.511 114.735 209.875C112.862 205.925 111.087 201.918 109.534 197.832C109.03 196.5 108.467 196.157 107.254 196.286L105.523 199.556L104.783 199.524C104.369 197.599 103.845 195.691 103.576 193.747C103.366 192.22 102.829 191.088 101.354 190.493C99.756 189.846 98.5366 190.493 98.3263 192.172C98.2487 192.819 98.3587 193.466 98.3263 194.113C98.3004 194.633 98.1969 195.148 98.1128 195.778C96.3726 195.678 96.2983 194.355 95.9683 193.307C95.6158 192.185 95.4637 190.988 95.0271 189.904C93.9111 187.126 92.116 185.072 89.2469 183.759C83.1982 181.009 77.3048 177.936 71.3112 175.048C68.3321 173.618 65.2949 172.308 62.2544 171.04C60.3525 170.251 58.609 170.652 56.7297 171.626C54.6154 172.662 52.3709 173.409 50.0568 173.845C49.1382 174.036 48.019 173.24 46.9904 172.894C46.9904 172.658 47.0131 172.421 47.0228 172.182L54.7858 168.55C53.259 167.673 52.3663 166.932 51.3442 166.609C48.2649 165.681 45.1273 164.927 42.0157 164.092C40.9682 163.858 39.9373 163.554 38.9299 163.184C33.1691 160.767 27.4472 160.69 21.6961 163.226C18.7462 164.519 15.7542 165.729 12.7654 166.945C8.63166 168.627 4.45906 168.692 0.260591 167.411C-0.192249 165.622 0.768419 165.147 1.98462 164.697C5.60734 163.339 9.20418 161.906 12.7978 160.47C13.9525 160.01 15.2011 159.807 15.7477 158.27C15.958 157.678 17.2971 157.261 18.1672 157.167C26.0732 156.304 34.0559 156.426 41.9316 157.533C44.7909 157.934 47.6309 158.633 50.5 158.768C52.2499 158.849 54.058 158.121 55.8111 157.743C56.7524 157.533 57.6645 157.096 58.6123 157.018C66.4723 156.446 74.2902 156.582 81.9756 158.652C84.1169 159.231 86.2937 159.836 88.5062 159.532C89.2242 156.11 89.0205 155.65 86.5331 153.936C82.6516 151.287 78.796 148.605 74.6266 145.73C83.567 140.208 87.0409 132.319 86.2193 122.046L93.109 119.569C92.9796 117.198 92.9958 114.329 92.6432 111.505C91.7796 104.58 90.6442 97.69 89.8226 90.7615C89.3148 86.4919 89.3342 82.1608 88.8523 77.8879C88.0954 71.2732 87.0732 64.6909 86.2258 58.0891C85.6242 53.4184 85.1099 48.7347 84.6085 44.0511C84.5512 43.5124 84.6643 42.9694 84.932 42.4985C86.2775 40.4025 85.7471 39.0439 83.939 37.2908C80.2725 33.6775 76.8166 29.8565 73.5883 25.8469C71.3694 23.1331 69.5354 20.0894 67.6885 17.1135C67.2356 16.3825 67.3973 15.2763 67.2097 13.8046L95.7451 32.2869C97.6438 31.5915 97.495 30.385 97.5985 29.1785C97.8379 26.4 98.2099 23.6312 98.5689 20.8657C98.6336 20.3837 98.9571 19.9406 99.3258 19.106C102.082 22.6802 104.757 25.8242 105.931 30.0033C107.645 29.7607 107.729 28.4443 108.053 27.3865C108.376 26.3288 108.842 25.3941 110.171 25.3002C111.501 25.2064 111.607 26.3871 112.112 27.1343C113.367 28.978 114.431 30.9866 115.897 32.633C116.954 33.833 117.472 35.0978 117.908 36.5598C118.597 38.8854 119.497 41.1496 120.577 44.1998C121.615 42.8769 122.392 42.2591 122.644 41.4957C123.938 37.5302 125.193 33.5419 126.257 29.5084C126.849 27.2669 127.033 24.9153 127.415 22.6156C127.551 21.781 127.528 20.8398 127.923 20.1411C130.387 15.8068 131.481 11.0552 132.5 6.23245C132.901 4.30141 133.748 2.44153 134.395 0.47168C136.659 2.41242 136.498 2.35097 135.689 4.41139C134.88 6.47181 134.139 8.66808 133.881 10.8611C133.502 14.0472 133.625 17.285 133.46 20.4969C133.344 22.7385 132.872 24.98 132.959 27.2054C133.146 32.0346 133.47 36.8671 134.007 41.6672C134.235 43.265 134.888 44.7722 135.899 46.0306C137.63 48.1848 139.781 49.9962 141.634 52.0631C142.546 53.082 143.099 54.4114 143.956 55.495C145.619 57.5974 147.382 59.6288 149.132 61.715C148.22 63.9146 145.988 63.5491 144.215 64.445C142.077 61.3754 140.072 58.3188 136.193 56.9247C135.459 59.894 134.444 62.6337 134.702 65.7065C134.961 68.7794 134.295 71.8522 133.231 74.7633C133.068 75.3759 133.001 76.0096 133.03 76.6426C132.972 78.4798 132.144 79.9613 130.478 80.1327C128.143 80.3721 126.836 81.7823 125.603 83.4514C124.957 84.3312 124.368 84.9037 123.035 84.9749C120.664 85.101 120.124 86.5501 121.373 89.3254C122.194 88.5361 122.854 87.7339 123.682 87.1841C124.09 86.9124 124.805 87.1032 125.384 87.087C125.358 87.5787 125.529 88.3259 125.277 88.5167C123.857 89.5906 123.983 91.1044 123.85 92.5955C123.829 93.2385 123.676 93.8704 123.401 94.4521C122.091 96.8101 122.191 99.1649 123.11 101.613C125.096 106.921 126.38 112.443 128.78 117.654C130.151 120.636 131.397 123.738 132.771 126.756C133.742 128.913 133.719 129.851 132.383 130.657C130.882 131.559 128.023 131.029 127.127 129.628C126.746 129.111 126.484 128.515 126.36 127.885C126.076 125.242 124.42 123.447 122.547 121.503C122.223 122.101 121.825 122.612 121.664 123.191C120.535 127.205 119.51 131.249 118.339 135.247C117.811 137.045 117.52 138.788 118.099 140.609C118.239 140.898 118.307 141.217 118.297 141.538C116.883 147.865 120.435 153.182 121.829 158.94C122.152 160.276 123.307 160.945 124.775 161.007C130.368 161.236 135.954 161.634 141.543 161.699C143.403 161.718 145.27 160.929 147.508 160.428L150.173 162.957L150.16 165.554ZM96.6573 79.6669C97.5436 79.02 98.4072 78.716 98.7856 78.1014C101.205 74.1843 103.411 70.1573 104.466 65.5804C103.324 64.7944 102.253 64.2865 102.619 62.5496C102.851 61.4336 102.376 59.9781 101.781 58.9204C100.057 55.8346 98.336 52.807 97.2751 49.3752C96.2141 45.9433 92.8793 44.7044 89.7871 46.4996C91.6243 57.4001 93.6847 68.3783 96.6573 79.6669ZM96.7252 133.94C96.6288 134.359 96.5821 134.788 96.5861 135.217C97.2783 140.351 98.2875 145.397 96.7026 150.643C95.8357 153.509 96.7673 154.156 100.28 154.525C101.816 149.401 103.13 144.258 101.15 138.902C100.707 137.702 99.8563 136.637 99.5167 135.421C99.067 133.885 98.1128 133.736 96.7252 133.94ZM119.099 66.1011C121.935 66.1432 122.408 64.5582 122.88 63.0639C122.895 62.8663 122.859 62.6682 122.774 62.489C122.69 62.3098 122.56 62.1557 122.398 62.0417C121.981 61.9059 121.179 61.9318 121.027 62.1808C120.354 63.3 119.839 64.5162 119.099 66.1011Z" fill="black"/>
<path d="M142.159 25.2192C143.385 26.2837 144.159 27.7761 144.323 29.3918C144.572 31.9083 144.362 34.4119 144.795 36.9769C145.17 39.1829 143.825 41.7285 141.945 43.4784C141.641 43.7598 140.994 43.6725 140.131 43.8019C140.707 41.0298 139.684 38.6265 140.639 35.8901C141.37 33.8038 140.522 31.1223 140.192 28.7287C139.95 27.0112 140.461 25.905 142.159 25.2192Z" fill="black"/>
</g>
<defs>
<clipPath id="clip0_729_1118">
<rect width="150" height="216.626" fill="white" transform="translate(0.160156 0.47168)"/>
</clipPath>
</defs>
</svg>
