<svg width="151" height="190" viewBox="0 0 151 190" fill="none" xmlns="http://www.w3.org/2000/svg">
<g clip-path="url(#clip0_729_1044)">
<path d="M72.6531 181.624C66.0032 175.067 63.7866 166.311 60.568 158.127C57.3798 149.902 55.5139 141.223 55.0397 132.414L53.7363 132.237C52.894 133.501 51.7325 134.658 51.2714 136.05C50.0656 139.681 48.6913 143.351 48.2258 147.111C46.55 160.623 47.6938 173.848 53.3152 186.461C53.6836 187.461 54.0017 188.479 54.2683 189.511C51.9409 188.726 51.2493 187.329 50.6064 185.707C48.0662 179.292 45.353 172.943 42.8748 166.502C42.0369 164.33 41.6379 161.971 41.1636 159.675C38.7518 147.98 36.5574 136.227 37.6169 124.208C38.4415 114.628 41.9261 106.2 49.9813 100.229C51.5153 99.0895 52.7654 97.5246 54.4146 96.5714C58.6661 94.0888 61.7118 90.8791 63.1969 85.9892C63.9417 83.5509 65.9057 81.4716 67.3509 79.2506C68.1312 78.0536 68.9735 76.9009 70.0508 75.3449C68.8848 75.0212 67.9982 74.4582 67.6391 74.7198C65.4712 76.1694 63.2723 76.8123 60.6788 76.001C60.0759 75.8103 59.2558 76.2448 58.5509 76.4443C52.2512 78.3506 45.8806 80.0663 39.6873 82.2785C35.9717 83.6662 32.4068 85.4279 29.0474 87.5364C24.0334 90.5998 18.9218 93.6543 14.453 97.427C8.41049 102.539 4.30527 109.22 0.160156 116.135C0.386253 115.023 0.466053 113.857 0.856181 112.806C2.73146 107.788 5.65742 103.372 9.02671 99.2447C12.232 95.2946 15.3707 91.2648 18.9307 87.6383C25.5229 80.9529 32.062 74.1035 41.0483 70.4727C44.5594 69.0496 48.2036 67.8969 51.5862 66.2212C54.9688 64.5454 58.5065 62.7322 61.3394 60.2673C65.3781 56.7561 70.0774 55.5414 75.0427 54.6592C76.2042 54.4508 77.3613 54.2158 78.5272 54.0562C83.8472 53.2317 85.5362 51.0283 86.0993 45.5443C86.782 38.8412 87.9258 32.1869 88.8745 25.5148C89.1671 23.4711 89.841 21.4096 89.7213 19.3924C89.2247 11.1643 93.8486 6.34973 100.352 2.63021C103.407 0.914529 106.382 -0.322356 110.004 1.09186C111.591 1.70809 113.51 1.75242 115.252 1.64159C119.912 1.35786 123.538 3.4947 126.655 6.47829C131.002 10.5636 133.634 16.1481 134.019 22.1012C134.318 25.6564 133.378 29.2058 131.359 32.147C126.788 39.0939 123.339 46.5108 121.796 54.7789C121.147 57.9482 120.226 61.0557 119.043 64.0666C116.964 69.6126 117.349 75.4335 117.123 81.1303C116.755 90.9101 117.642 100.748 120.776 109.973C124.256 120.117 130.117 128.948 140.097 134.237C142.433 135.478 144.49 137.251 146.848 138.439C149.136 139.592 150.395 141.481 150.134 143.697C149.859 146.158 147.948 147.913 145.43 148.423C139.033 149.718 132.631 150.462 126.251 148.117C118.592 145.4 111.659 140.961 105.987 135.141C99.7183 128.699 96.4687 120.75 92.7669 112.952C91.7694 110.855 91.2773 108.519 90.599 106.267C89.7479 103.443 88.8656 102.627 85.8554 102.672C80.039 102.751 75.0205 104.6 72.4492 110.252C70.6009 114.258 69.0567 118.397 67.8297 122.635C67.0849 125.264 67.2844 128.159 67.0051 130.929C65.7328 143.626 66.1185 156.265 68.6898 168.763C69.5942 173.125 71.3098 177.359 72.6531 181.624Z" fill="black"/>
</g>
<defs>
<clipPath id="clip0_729_1044">
<rect width="150" height="189.062" fill="white" transform="translate(0.160156 0.471191)"/>
</clipPath>
</defs>
</svg>
