<svg width="151" height="194" viewBox="0 0 151 194" fill="none" xmlns="http://www.w3.org/2000/svg">
<g clip-path="url(#clip0_729_997)">
<path d="M115.037 127.038L118.192 132.166C113.088 135.294 108.28 138.599 101.824 137.203C100.352 136.887 98.7155 137.305 97.1615 137.459C96.3726 137.534 95.6311 137.818 94.8541 137.94C93.4854 138.149 91.5528 137.818 90.8625 138.599C89.8252 139.782 89.2296 141.699 89.2059 143.332C89.0955 150.526 88.9535 157.748 89.4071 164.923C89.8015 171.297 91.7736 177.544 91.2096 184.037C91.1189 185.042 91.5133 186.084 91.6395 187.117C91.892 189.129 92.1128 191.144 92.3495 193.215C91.8012 193.172 91.5804 193.215 91.5606 193.148C87.8557 184.665 84.1665 176.176 80.4931 167.68C80.0275 166.591 79.6759 165.457 79.4439 164.296C77.6019 155.066 75.8112 145.825 73.9811 136.591C73.745 135.304 73.4329 134.032 73.0463 132.781C72.3009 130.458 70.9677 128.935 68.1988 129.05C66.8865 129.128 65.577 128.855 64.4045 128.261C60.689 126.155 57.1036 123.812 53.4592 121.583C52.1575 120.795 50.8165 120.053 49.4755 119.28C47.7597 122.676 48.801 126.021 52.1063 128.202C53.8417 129.35 55.7429 130.249 57.573 131.259L61.5685 133.471C60.0697 133.787 59.4386 134.13 58.9338 133.996C55.309 133.037 51.6921 132.142 48.4223 130.091C46.0085 128.58 43.2001 127.725 40.6995 126.316C36.2464 123.839 33.9943 120.353 34.3374 114.827C34.7318 108.8 36.7276 103.826 40.2814 99.0262C44.9514 92.7154 49.0929 86.0378 53.3803 79.4587C54.0692 78.3446 54.5428 77.111 54.7765 75.8221C55.0802 74.2839 54.5241 73.14 52.8715 72.4104C50.5049 71.3651 48.2764 69.9728 45.9769 68.754C44.6004 68.0243 43.1094 67.4721 41.8315 66.6044C40.3603 65.6105 39.0705 64.3562 37.6979 63.2163C30.0737 56.8463 26.8354 44.4456 30.3458 35.3462C31.951 31.2953 34.6007 27.7419 38.0253 25.0477C40.3642 23.1742 44.0679 22.5905 47.2391 22.2868C50.4102 21.9831 53.6998 22.835 56.9419 23.0756C58.492 23.1939 60.0658 23.0007 61.6198 23.1032C64.3492 23.2847 67.0708 23.5963 69.7963 23.829C73.283 24.1248 74.482 23.3557 75.4957 19.9952C76.0071 18.2427 76.4296 16.4655 76.7618 14.6704C77.2593 12.0699 78.6849 9.73882 80.7731 8.11111C83.2028 6.13899 85.5733 4.0722 88.1173 2.25784C92.0616 -0.550469 103.567 0.11611 107.318 3.30701C108.836 4.60073 109.988 6.14688 110.039 8.33988C110.113 9.64484 110.333 10.9374 110.694 12.1934C111.566 15.5421 112.919 16.4059 116.362 15.9562C118.437 15.6841 120.511 15.404 122.586 15.1674C128.033 14.5087 132.573 16.5203 136.612 19.9754C136.711 20.0622 136.782 20.1963 136.896 20.2436C142.307 22.4879 143.38 27.0396 143.566 32.2618C143.652 34.723 144.583 37.1448 144.828 39.6178C145.061 41.9844 146.26 43.424 148.121 44.6507C150.421 46.1613 150.567 46.7372 149.596 49.1235C149.301 49.8453 148.721 50.4685 148.5 51.21C147.758 53.6988 146.587 56.2113 146.563 58.7277C146.524 62.2776 145.447 65.5119 144.126 68.5884C141.258 75.2266 138.647 81.8963 137.626 89.0985C137.521 89.6131 137.36 90.1144 137.144 90.5934C134.873 96.5689 132.695 102.58 130.27 108.492C129.445 110.496 128.116 112.334 126.81 114.093C124.72 116.902 122.547 119.659 120.231 122.282C118.784 123.883 117.009 125.236 115.037 127.038ZM73.5236 87.3985C73.4644 87.8837 73.2514 88.4201 73.3895 88.8461C73.4891 89.0489 73.6278 89.23 73.7977 89.3789C73.9676 89.5278 74.1654 89.6417 74.3795 89.7138C74.5727 89.7848 75.1683 89.3864 75.1683 89.1695C75.1905 88.9465 75.1669 88.7213 75.0991 88.5076C75.0313 88.294 74.9206 88.0965 74.7739 87.9271C74.4386 87.6391 73.8588 87.6352 73.3855 87.5326C73.9456 86.377 74.8212 85.2726 74.9948 84.0617C75.3892 81.3007 73.7287 80.1963 71.1334 81.3323C68.1712 82.6339 66.4318 85.0754 64.6884 87.8797C67.9346 88.7435 70.7153 87.9507 73.5236 87.3985ZM61.7539 59.9347C63.375 56.9883 64.5662 54.4127 66.132 52.1132C67.1339 50.6341 68.6682 49.51 70.0014 48.2676C71.9222 46.4729 72.2022 45.2621 70.6877 43.2189C69.9501 42.225 68.8891 41.1285 67.7768 40.8287C64.6648 39.9886 61.466 39.0735 58.2672 39.0341C52.4534 38.9631 49.7121 43.424 51.7197 48.942C53.1357 52.835 55.2696 56.2192 58.7444 58.57C59.7187 59.2405 60.9296 59.5797 61.7342 59.9347H61.7539ZM64.6569 97.7995C63.4736 97.7995 62.2548 98.0204 61.1426 97.7561C58.9811 97.2355 57.9872 98.545 57.009 99.9965C55.9283 101.598 56.7408 103.014 57.7032 104.308C58.3224 105.14 59.2809 105.759 59.7739 106.646C62.3811 111.324 65.8362 114.638 71.4647 115.454C74.7857 115.935 75.7205 115.517 75.5588 112.125C75.4247 109.364 75.188 106.639 74.9277 103.901C74.5333 99.6336 72.4271 97.697 68.1909 97.6418C66.9958 97.6181 65.8165 97.7325 64.6372 97.7877L64.6569 97.7995ZM94.6135 87.8324C96.8696 89.4653 98.9522 89.631 101.118 87.9586C101.814 87.4007 102.62 86.9973 103.484 86.7753C105.575 86.3139 106.588 84.8466 106.975 83.0007C107.192 81.9712 107.176 80.4764 106.58 79.7901C105.594 78.6659 104.017 78.6975 102.636 79.5495C101.867 80.0307 101.185 80.784 100.356 81.0088C96.7947 81.9357 95.7573 84.8229 94.5938 87.8206L94.6135 87.8324ZM86.4095 115.584C86.3227 117.797 87.0129 119.201 88.8588 120.365C89.3795 119.248 89.5333 118.148 90.1604 117.69C93.9627 114.906 93.5486 110.658 94.1639 106.765C94.4163 105.187 93.9233 103.976 91.8999 103.669C89.2335 107.431 88.9851 111.817 88.8312 116.29L86.4095 115.584ZM69.4492 119.674C70.6758 120.01 71.6934 121.56 72.8057 119.95C73.1686 119.426 72.8057 117.663 72.3087 117.426C70.8967 116.736 69.9067 117.572 69.4373 119.663L69.4492 119.674Z" fill="black"/>
<path d="M15.5426 126.04C10.983 120.349 6.57731 115.249 2.65278 109.758C1.21707 107.755 0.554433 104.994 0.211283 102.458C-0.24625 99.0577 2.40035 96.4229 6.81397 95.7524C10.9042 95.1134 15.0614 94.8728 19.191 94.4942C20.6859 94.3561 22.165 94.439 22.6304 96.277C23.0603 97.9849 22.0703 99.0735 20.7096 99.7361C18.8446 100.671 16.9164 101.473 14.9391 102.138C11.8192 103.148 10.9594 103.736 11.5944 106.737C12.8723 112.788 12.3162 119.311 16.0159 124.766C16.0554 124.806 15.937 124.968 15.5426 126.04Z" fill="black"/>
</g>
<defs>
<clipPath id="clip0_729_997">
<rect width="150" height="192.712" fill="white" transform="translate(0.160156 0.471191)"/>
</clipPath>
</defs>
</svg>
