<svg width="151" height="173" viewBox="0 0 151 173" fill="none" xmlns="http://www.w3.org/2000/svg">
<g clip-path="url(#clip0_729_887)">
<path d="M105.277 119.53C104.751 122.816 104.798 125.734 103.797 128.235C101.106 134.982 93.6591 138.516 86.1331 136.999C79.4971 135.661 72.8821 134.245 66.2303 132.859C71.3969 129.02 76.553 125.302 81.5774 121.41C84.5689 119.087 84.8111 118.371 82.4991 115.39C79.4286 111.44 76.9849 107.048 72.6293 103.988C68.6899 101.217 65.5931 97.2568 62.096 93.8229C57.5298 89.3199 52.7845 84.9749 48.4027 80.277C42.5212 73.9873 38.8445 65.9556 37.9273 57.3933C37.2215 51.4525 40.8134 47.808 47.8286 44.9798C53.5587 42.6625 59.7997 42.8731 65.3192 40.3504C67.0783 39.5499 69.0059 38.0015 69.7695 36.3109C74.1777 26.7466 81.3562 20.8585 91.6051 18.4885C95.3445 17.6247 98.9785 16.2659 102.612 15.0019C106.246 13.7379 108.832 11.4627 110.876 8.15526C112.856 4.92679 115.237 1.79839 119.355 0.781921C122.979 -0.102879 125.675 0.892521 127.013 4.37906C128.351 7.86559 129.946 11.6734 130.052 15.3706C130.178 19.8999 132.158 23.5445 134.265 26.9994C135.624 29.2746 138.721 30.7282 141.312 32.008C145.172 33.9145 148.19 36.3688 149.639 40.5611C150.354 42.5349 150.295 44.7062 149.475 46.6388C146.784 53.6751 141.575 58.3782 135.561 62.4072C131.932 64.8352 128.124 67.0156 124.617 69.6068C120.698 72.4982 119.877 74.9893 122.147 79.1236C125.591 85.3646 129.573 91.316 133.428 97.3305C135.008 99.79 137.114 101.939 138.5 104.483C140.975 108.97 138.5 112.999 133.349 113.115C131.595 113.175 129.843 112.951 128.161 112.451C125.401 111.566 123.184 112.04 120.856 113.763C117.08 116.675 112.518 118.391 107.758 118.687C106.952 118.724 106.146 119.219 105.277 119.53ZM109.038 88.8459C104.045 85.865 109.48 83.3528 109.601 80.5193C105.219 81.1197 102.491 84.3429 102.433 87.6398C102.375 90.9368 99.8001 95.187 103.576 98.2522C107.611 96.1771 108.843 92.7748 108.906 88.7353C112.751 86.676 113.646 82.8893 115.226 79.5028L113.83 78.776C112.233 82.1362 110.635 85.4928 109.038 88.8459ZM87.9711 103.772C91.9791 100.296 91.9633 92.8012 88.1291 88.867C81.8091 82.3679 78.2436 74.3204 76.0158 65.7621C75.2047 62.6811 74.2093 60.3006 71.6445 58.631C65.9459 61.001 64.0183 65.0564 66.7886 70.7918C70.2699 77.9913 74.3726 84.9012 78.3753 91.8268C80.9085 96.1718 83.3733 100.643 87.9869 103.772H87.9711ZM121.488 8.75039C119.487 12.7636 119.487 12.7636 123.3 15.7393C122.573 12.9269 122.094 11.073 121.488 8.75039ZM115.268 74.5838L116.775 75.4475C117.403 73.9658 118.032 72.4824 118.66 70.9972L117.744 70.5495L115.268 74.5838ZM122.115 36.4531C124.474 35.4945 124.474 35.4945 123.168 33.6986L122.115 36.4531ZM124.617 25.3667C124.148 24.9507 123.769 24.3608 123.437 24.3819C123.105 24.4029 122.384 25.135 122.441 25.3035C122.733 25.7801 123.104 26.2039 123.537 26.557L124.617 25.3667Z" fill="black"/>
<path d="M13.2952 172.512C4.86856 170.795 2.58809 164.433 0.160156 158.292C1.09236 154.569 4.37349 153.6 7.16483 152.446C14.5382 149.365 22.0274 146.458 29.6166 143.935C32.8451 142.882 36.4633 142.935 39.7181 142.508C42.7412 148.365 38.5015 155.469 32.1446 156.175C26.6252 156.791 21.1268 157.55 15.6178 158.213C13.2004 158.503 12.2946 159.967 12.5 162.2C12.6632 163.938 13.1109 165.645 13.2689 167.377C13.4006 168.878 13.2952 170.385 13.2952 172.512Z" fill="black"/>
<path d="M40.9453 28.0106C41.9635 24.9454 42.9818 21.8837 44 18.8256C46.9072 20.8532 48.3976 23.85 47.4496 26.3464C46.3963 29.0903 43.763 28.137 41.8512 28.8586L40.9453 28.0106Z" fill="black"/>
<path d="M50.3612 146.853C50.3612 146.853 51.7621 147.274 51.8042 147.817C51.8088 148.347 51.7031 148.872 51.4936 149.359C51.2842 149.846 50.9756 150.284 50.5876 150.645C49.2336 151.714 47.7285 152.577 46.1215 153.205C45.4948 153.463 44.1676 153.263 43.8621 152.799C43.3881 152.083 43.0774 150.724 43.4566 150.071C44.7153 147.864 46.5744 146.358 50.3612 146.853Z" fill="black"/>
<path d="M16.7077 129.505C17.2923 130.031 17.9612 130.432 17.9033 130.558C17.6125 131.18 17.2596 131.771 16.8499 132.322C16.5234 131.996 15.9072 131.653 15.9283 131.353C15.9599 130.8 16.3549 130.263 16.7077 129.505Z" fill="black"/>
</g>
<defs>
<clipPath id="clip0_729_887">
<rect width="150" height="172.041" fill="white" transform="translate(0.160156 0.471191)"/>
</clipPath>
</defs>
</svg>
