<svg width="151" height="88" viewBox="0 0 151 88" fill="none" xmlns="http://www.w3.org/2000/svg">
<g clip-path="url(#clip0_729_1100)">
<path d="M101.952 0.47168C105.597 6.67721 108.464 13.0854 108.923 20.4245C109.126 23.6928 110.21 24.2637 113.606 23.5687C115.621 23.155 117.689 22.9564 119.659 22.3937C123.709 21.2354 127.908 21.3926 131.9 21.827C138.664 22.5592 145.631 23.5066 150.161 29.89L148.618 33.6133C143.955 35.1564 140.154 32.5667 136.327 31.1311C128.752 28.2724 121.198 28.6199 113.573 30.2375C110.996 30.7836 109.022 32.4012 108.274 35.4047C107.384 38.9294 106.441 42.4665 103.334 45.0646C99.7928 48.0226 98.7295 48.4776 95.5937 45.8382C94.998 45.3376 94.1788 45.1018 93.1115 44.5971C92.8632 45.7389 92.6399 46.6036 92.4868 47.493C91.1464 55.0762 90.0046 62.6966 88.4408 70.2466C86.695 78.7192 80.5474 83.5389 73.1793 86.8361C71.1646 87.7379 68.4176 88.1806 66.1464 86.2776C65.3588 85.7206 64.4135 85.4306 63.4491 85.4502C53.9339 85.4253 47.0582 79.6583 39.6074 75.1076C39.7357 74.8387 39.8681 74.5698 40.0211 74.2802C42.826 75.873 45.5358 77.6684 48.4565 79.0212C54.8523 81.9833 61.3971 84.3994 68.7072 83.3568C73.8909 82.6287 77.85 79.9024 80.8742 75.9102C84.9781 70.5114 86.6329 64.128 87.3196 57.4715C87.994 50.9185 88.6807 44.3654 89.2806 37.8083C89.6446 34.5467 89.8421 31.2687 89.8722 27.987C89.8101 22.2324 91.7338 16.8419 93.4011 11.5754C94.787 7.24398 97.1078 2.73463 101.952 0.47168ZM98.0387 13.4247C94.729 18.4429 92.7019 33.6382 94.729 37.4566C97.2733 35.1937 99.7597 32.8728 102.37 30.705C103.648 29.6418 104.439 28.5 104.075 26.8286C103.479 24.0196 102.941 21.1899 102.172 18.4263C101.592 16.3206 100.757 14.2479 98.0387 13.4247Z" fill="black"/>
<path d="M19.3196 57.3431C16.9739 57.248 15.1825 56.1641 13.6973 54.3727C12.2122 52.5814 10.7063 50.8066 9.08043 49.1518C7.75245 47.7949 6.18452 46.6696 4.81517 45.3582C3.26792 43.844 1.57588 42.3671 0.46716 40.551C-0.103748 39.616 0.227213 37.9157 0.607819 36.7035C0.81467 36.0499 1.96062 35.6362 2.86663 35.0156C5.40262 38.288 7.68626 41.3535 10.0899 44.3239C12.2535 46.9799 14.6406 49.4662 16.767 52.1429C18.0081 53.6736 19.8574 55.0388 19.2161 57.4548L19.3196 57.3431Z" fill="black"/>
<path d="M19.2207 57.4428C22.3855 57.9268 22.5303 58.1254 21.2396 61.6129C20.4577 59.8671 19.895 58.6011 19.3241 57.3394L19.2207 57.4428Z" fill="black"/>
</g>
<defs>
<clipPath id="clip0_729_1100">
<rect width="150" height="87.0801" fill="white" transform="translate(0.160156 0.47168)"/>
</clipPath>
</defs>
</svg>
