<svg width="151" height="475" viewBox="0 0 151 475" fill="none" xmlns="http://www.w3.org/2000/svg">
<g clip-path="url(#clip0_729_215)">
<path d="M114.065 0.672852C114.303 3.86414 115.78 7.68416 114.57 10.1991C109.693 20.2016 110.836 30.7662 111.217 41.0736C111.574 48.0248 110.641 54.982 108.464 61.5931C106.559 67.3088 106.635 73.1103 107.511 80.4455L116.866 74.7298C119.667 77.4257 118.971 80.3598 116.952 82.9033C111.293 89.9908 111.97 97.6784 114.675 105.452C118.104 115.273 121.801 125.009 125.573 134.707C126.468 136.993 127.688 140.127 129.555 140.88C134.728 142.966 134.499 146.71 134.318 151.006C133.899 160.151 133.737 169.306 133.365 178.461C133.399 180.314 133.056 182.155 132.356 183.872C124.925 198.971 125.373 215.118 125.84 231.265C125.84 232.779 126.202 234.885 127.211 235.666C132.67 239.896 130.85 245.192 129.812 250.422C128.04 259.383 126.268 268.344 124.496 277.305C124.249 278.534 124.325 280.372 123.544 280.849C116.209 285.498 118.028 293.909 115.761 300.463C114.275 304.769 116.209 310.256 116.714 316.239C121.258 312.076 122.163 306.979 123.763 302.235C125.773 296.262 127.421 290.099 130.079 284.421C132.508 279.239 138.652 276.152 142.396 277.543C147.283 279.353 150.436 283.173 150.17 288.413C149.617 299.13 148.464 309.818 147.502 320.516C147.431 321.473 147.073 322.386 146.474 323.136C137.262 333.062 132.403 346.399 121.391 354.944C119.486 356.401 118.533 359.011 117.19 361.06L114.704 357.068C109.112 359.707 108.521 364.279 108.416 369.605C108.149 383.189 108.883 397.031 106.511 410.282C103.377 427.524 107.321 444.347 106.692 461.352C106.549 465.362 106.12 468.639 103.482 471.831C100.843 475.022 98.0041 475.86 94.3936 473.803C92.4884 472.717 90.6879 471.402 88.6779 470.468C86.3058 469.363 83.3241 468.411 84.3911 465.267C85.1151 463.162 87.1537 461.237 89.0685 459.894C90.4498 458.942 92.5932 459.056 95.089 458.551C95.5558 453.893 96.9943 449.377 96.2608 445.214C93.2124 427.896 98.3851 411.33 99.9569 394.43C100.738 386.085 100.833 377.673 101.319 367.814C89.2304 373.444 80.3615 384.008 66.2627 377.845C66.0054 382.103 65.8149 385.38 65.6149 388.657L64.1478 389.286L57.5747 377.645C58.3302 376.534 59.1542 375.471 60.042 374.463C64.386 370.157 63.8525 366.042 58.4797 363.984C42.2851 357.735 33.0923 344.932 26.5859 329.747C25.1475 326.384 24.8236 322.297 24.9093 318.573C25.2522 305.026 26.3478 291.49 26.4049 277.943C26.4049 272.075 28.415 269.093 35.3119 267.912C37.1029 273.18 38.9414 278.61 41.4754 286.06L32.1397 282.392C31.692 283.097 30.7679 283.869 30.8156 284.564C31.7682 297.491 31.0823 310.885 34.4069 323.202C37.8364 335.948 45.3907 347.485 59.8801 351.41C66.4913 353.2 69.5206 351.886 71.8831 345.637C74.2456 339.387 75.6174 332.595 72.5309 326.194C68.3965 317.62 69.0062 309.38 71.7212 300.473C78.9548 276.524 85.7533 252.483 92.1168 228.35C95.6797 214.908 98.3089 201.209 100.929 187.549C101.805 182.957 101.367 178.728 97.0419 174.746C91.7548 169.887 92.1549 162.304 93.5553 155.855C95.8321 145.424 92.7742 135.717 90.7736 125.924C89.2399 118.303 82.6097 114.702 76.1699 110.491C64.3955 123.647 55.0598 137.412 52.3544 155.026L75.6365 127.372L77.4655 128.324C76.5129 130.639 75.8842 133.087 74.6076 135.24C69.0157 144.443 63.5191 153.721 57.4604 162.59C54.2787 167.22 50.1348 171.259 46.0289 175.098C44.8953 176.156 42.2185 175.555 40.2465 175.708C40.2465 173.993 39.4463 171.707 40.2465 170.649C46.0671 163.105 48.4677 154.455 49.5727 145.214C49.6044 144.899 49.6949 144.592 49.8394 144.309C55.3361 134.04 60.4802 123.561 66.558 113.663C72.2737 104.347 77.8275 95.3159 76.3033 83.6844C76.008 81.3791 77.1321 78.9213 77.8942 74.9679C75.3602 76.9779 73.6931 77.8734 72.6167 79.2357C66.196 87.352 59.8801 95.5636 53.5642 103.785C52.4115 105.29 51.7542 107.214 50.4586 108.548C42.0756 117.369 37.2362 128.324 33.9211 139.632C31.0632 149.387 25.4428 157.141 19.546 164.934C17.6408 167.449 15.2973 169.697 13.6588 172.345C10.439 177.584 6.30457 177.241 0.160156 174.803C1.92251 172.078 3.11329 169.687 4.79943 167.725C11.5916 159.761 18.9173 152.369 21.1845 141.461C21.9181 137.917 24.452 134.621 26.5954 131.516C32.7113 122.704 39.1415 114.121 45.2478 105.299C47.5722 101.937 49.2774 98.1548 51.4303 94.6586C55.7266 87.6759 60.1182 80.7408 64.5194 73.8248C65.5291 72.2339 67.0724 70.9002 67.7964 69.2617C74.6267 53.6006 83.2384 38.7778 86.8488 21.7639C90.002 6.61722 96.537 1.997 114.065 0.672852Z" fill="black"/>
</g>
<defs>
<clipPath id="clip0_729_215">
<rect width="150" height="474.263" fill="white" transform="translate(0.160156 0.672852)"/>
</clipPath>
</defs>
</svg>
