<svg width="151" height="130" viewBox="0 0 151 130" fill="none" xmlns="http://www.w3.org/2000/svg">
<g clip-path="url(#clip0_729_1007)">
<path d="M98.3499 74.3223C98.5924 75.4322 98.761 76.1968 99.0528 77.5081C100.697 76.875 102.321 76.5503 103.574 75.7117C106.292 73.9195 109.473 73.8208 112.063 75.6871C113.251 76.5421 114.554 77.2326 116.173 78.2151C115.45 78.5193 114.94 78.9385 114.422 78.9262C109.761 78.8317 106.123 80.8006 102.974 84.1138C102.123 85.014 100.742 85.5402 99.5091 85.9142C97.9635 86.387 96.3193 86.5226 94.6545 86.8145C92.6362 92.1582 90.6384 97.502 88.5872 102.846C87.7651 105.037 86.943 107.182 87.4609 109.612C87.872 111.593 86.9718 113.04 85.3029 114.088C84.2629 114.746 83.2476 115.469 82.2322 116.144C81.4609 116.702 80.5628 117.061 79.6187 117.187C78.6745 117.314 77.7138 117.204 76.8227 116.867C73.3328 115.704 69.7031 114.972 66.1557 113.965C63.3892 113.18 60.8859 113.554 58.2058 114.651C51.1561 117.529 44.0982 120.517 36.8306 122.758C27.7174 125.565 18.4234 127.826 8.87854 128.784C6.05456 129.067 3.2429 129.511 0.427141 129.881C0.336708 129.565 0.250385 129.248 0.164062 128.936C1.42602 128.57 2.72086 128.282 3.94993 127.822C9.26905 125.849 14.8389 124.336 19.8045 121.689C26.6035 118.063 33.5093 114.479 39.2353 109.065C42.8075 105.686 43.0171 104.009 39.408 100.893C38.5612 100.166 37.9076 99.212 37.1636 98.3611L37.6774 97.4075C42.717 98.2584 47.7443 99.1504 52.7921 99.9396C54.2308 100.166 55.7929 100.384 57.1494 100.03C57.918 99.8327 58.8141 98.4803 58.8511 97.6089C58.8881 96.8073 57.9263 95.8907 57.2603 95.1425C56.9274 94.7808 56.2902 94.6369 55.7641 94.5218C53.7499 94.0779 51.9453 93.1119 51.7069 90.9949C51.4356 88.5861 52.6318 86.4733 54.5103 84.9359C55.6654 83.9823 57.0384 83.2917 58.1811 82.3216C61.8354 79.2263 61.0585 72.8302 56.7835 70.6228C53.643 69.0032 50.5189 67.3343 47.3291 65.8216C43.9673 64.2709 41.1304 61.774 39.1655 58.6363C38.7243 57.9478 38.1681 57.3402 37.5212 56.8399C30.8949 51.7099 30.0728 43.3777 34.0272 36.2335C37.0055 30.8991 40.9438 26.1608 45.6438 22.2574C49.0432 19.38 51.8097 15.7668 55.7929 13.5348C60.1706 11.0684 64.5197 8.5527 68.9468 6.18088C76.2349 2.27581 84.3821 1.58523 92.332 0.70556C98.5555 0.0149787 104.906 0.882316 110.953 2.88829C114.496 4.06803 115.232 5.89725 113.288 9.05419C112.055 11.0396 111.738 13.025 111.796 15.2735C111.806 16.8914 111.607 18.5038 111.204 20.0706C109.28 28.0041 109.703 35.6292 115.076 42.1199C117.527 45.0181 120.436 47.4953 123.688 49.4532C130.413 53.5638 130.898 56.7248 125.2 62.0029C121.028 65.8709 116.157 67.2439 110.595 67.0918C105.33 66.952 100.393 65.4229 95.3862 63.9965C91.4647 62.8784 87.4486 62.081 83.4654 61.2095C82.8116 61.0427 82.1192 61.1232 81.5211 61.4356C79.0835 63.1621 79.2808 65.9819 79.0547 68.4729C78.8451 70.6845 80.8018 71.5847 82.5405 71.8478C86.273 72.415 89.804 74.1785 93.7748 73.5413C95.1519 73.3152 96.681 74.0099 98.3499 74.3223ZM45.9644 36.7268C47.3045 36.9282 48.0197 37.2488 48.5952 37.0844C50.5477 36.5295 52.4222 35.3662 54.3829 35.2182C61.5436 34.6879 68.7001 33.315 75.9184 35.0784C78.0764 35.6046 79.2562 36.6857 79.9426 38.63C81.1306 42.0089 82.1994 42.8968 84.1396 42.1898C85.9729 41.5197 86.2606 40.2084 85.159 36.9487C83.6422 32.4476 82.0473 27.9712 80.5305 23.4906C80.0166 21.9656 79.0219 21.2668 77.4516 21.3901C76.2281 21.4229 75.0097 21.5604 73.8096 21.8012C69.8593 22.8206 65.9707 24.0826 61.9999 25.0157C56.1792 26.3804 52.0111 30.3266 47.6128 33.9398C46.9386 34.4947 46.6468 35.5429 45.9644 36.7268ZM45.9644 50.3657C45.4588 51.5533 45.2766 52.8535 45.4361 54.1342C45.5957 55.415 46.0914 56.6308 46.8728 57.658C49.2118 60.8067 51.9618 63.6553 54.6378 66.5369C55.1475 67.0877 56.134 67.1904 57.1041 67.5809C56.1381 57.0825 52.1139 50.9248 45.9726 50.3657H45.9644Z" fill="black"/>
<path d="M144.195 92.0638C145.194 92.816 146.801 94.0328 148.417 95.2454C150.032 96.458 150.575 98.1516 149.806 100.129C149.461 101.017 148.861 101.826 148.626 102.735C146.275 111.778 139.172 111.98 131.156 109.538C128.978 108.872 126.976 107.561 124.962 106.43C123.059 105.362 122.306 103.771 123.186 101.6C123.597 100.589 123.926 99.5451 124.247 98.4928C125.841 93.2641 127.194 92.183 132.649 92.0761C136.311 92.0062 139.978 92.0638 144.195 92.0638Z" fill="black"/>
</g>
<defs>
<clipPath id="clip0_729_1007">
<rect width="150" height="129.414" fill="white" transform="translate(0.160156 0.471191)"/>
</clipPath>
</defs>
</svg>
