<svg width="151" height="179" viewBox="0 0 151 179" fill="none" xmlns="http://www.w3.org/2000/svg">
<g clip-path="url(#clip0_729_948)">
<path d="M133.105 120.267L137.119 114.944C138.16 119.196 135.791 121.769 134.026 123.786C129.125 129.402 124.114 135.032 117.487 138.834C114.513 140.529 113.591 142.303 112.927 147.017C114.974 149.351 116.743 146.268 118.939 146.684C119.321 148.845 117.556 149.366 116.288 150.194C112.684 152.548 112.144 153.628 114.26 157.365C116.768 161.796 119.802 165.93 122.567 170.212C123.777 172.081 124.887 174.009 126.012 175.853C124.029 178.043 122.101 179.193 119.891 178.301C115.177 176.423 110.191 174.787 106.043 171.962C97.7258 166.287 91.2925 158.644 88.6656 148.766C87.1787 143.121 87.2332 137.059 86.6384 131.181C86.5046 129.872 86.5938 128.544 86.5195 127.216C86.4055 125.233 85.3498 124.306 83.3573 124.163C73.6824 123.469 68.161 117.491 65.3111 108.961C63.7201 104.183 60.9643 101.765 56.2954 100.258C52.7913 99.1329 49.4308 97.0264 46.5066 94.7267C41.0992 90.479 42.6505 81.9392 50.0553 79.6791C55.5309 78.0245 61.2394 77.2729 66.9566 77.4537C71.1497 77.5627 75.432 77.4784 78.956 74.3311C82.6634 71.0252 81.8555 64.4184 77.2808 62.7183C71.576 60.5722 67.5315 56.8797 65.2169 51.1452C63.8143 47.6757 62.0994 44.3995 59.3139 41.5843C56.34 38.5609 54.0204 34.7792 54.0948 30.1846C54.1245 28.2814 54.3773 26.3781 54.5557 24.4798C54.5855 24.1626 54.8482 23.8652 54.8729 23.548C55.5123 14.0268 63.0559 10.2302 69.8511 6.20069C73.1273 4.25283 77.2857 3.79684 81.0575 2.67175C83.0748 2.06707 85.0722 1.36326 87.1241 0.902316C93.6517 -0.584599 99.4011 2.03237 105.22 4.40648C107.629 5.45169 110.16 6.19099 112.754 6.60711C120.833 7.69256 128.5 9.91302 135.637 13.888C136.068 14.1259 136.539 14.6662 136.906 14.6018C140.95 13.8781 142.527 17.5756 145.332 19.0972C151.84 22.6261 151.403 33.2824 146.323 38.5213C140.678 44.3698 134.388 46.511 126.453 46.3177C123.568 46.2433 120.505 48.667 117.73 50.3274C116.218 51.2294 116.585 53.1079 117.646 54.2925C119.311 56.1263 119.851 58.1684 120.124 60.5673C120.282 62.1087 121.155 63.7047 122.082 65.028C124.064 67.8333 126.299 70.48 128.45 73.1664C130.177 75.2919 132.264 77.0971 134.616 78.4995C141.833 82.9602 143.89 90.8458 136.559 97.1206C134.571 98.8209 132.798 100.758 131.281 102.89C130.289 104.288 129.467 106.191 129.511 107.846C129.605 111.103 130.284 114.349 130.889 117.571C131.008 118.2 131.826 118.745 133.105 120.267ZM91.2578 83.3518C89.3149 81.3692 87.4116 79.233 85.3101 77.3347C84.9508 77.09 84.5367 76.9376 84.1045 76.8909C83.6723 76.8442 83.2352 76.9047 82.8319 77.0671C82.3858 77.3347 82.3363 78.6729 82.485 79.466C83.0946 82.7173 85.9296 84.2043 87.8081 86.4049L91.2578 83.3518ZM121.492 107.246L120.917 106.092L119.073 107.579L119.569 108.272L121.492 107.246ZM120.996 91.1878L119.965 90.6922C119.643 91.4554 119.316 92.2187 118.974 92.987C119.354 93.141 119.745 93.2668 120.144 93.3637C120.465 92.6497 120.746 91.9183 120.986 91.1729L120.996 91.1878Z" fill="black"/>
<path d="M11.3216 80.8092C9.0268 78.8266 7.3565 76.963 5.30952 75.6843C2.03335 73.6274 1.38406 70.2025 0.268873 67.0205C-0.0136406 66.2176 0.298612 65.0379 0.700079 64.1954C1.37235 62.7026 2.22994 61.3005 3.25262 60.0221C9.08132 53.0435 14.8506 46.0005 20.9271 39.24C25.4374 34.2092 31.6527 32.3902 38.1852 31.9541C40.9751 31.8506 43.7662 32.1257 46.4822 32.7719C51.5674 33.8474 53.7929 38.3924 51.2552 42.8532C49.9219 45.2025 48.093 47.6609 45.8577 49.0437C39.0476 53.2417 32.4755 57.9652 24.5056 60.0072C19.9308 61.1868 15.5494 63.1446 11.1234 64.8645C8.47664 65.8904 7.90666 67.2138 8.77898 69.9101C9.13584 70.9955 9.77026 71.9917 10.1965 73.0574C11.163 75.4612 12.2088 77.875 11.3216 80.8092Z" fill="black"/>
<path d="M9.71155 130.442C9.54303 129.307 9.15643 128.43 9.34973 127.707C10.3906 123.771 12.5763 120.118 12.0559 115.811C11.9915 115.271 12.4574 114.557 12.8688 114.096C16.2094 110.354 26.6326 108.476 31.4255 110.706C34.7661 112.257 35.2667 114.622 32.6943 117.263C28.6846 121.407 23.4556 123.454 18.2415 125.471C13.0274 127.488 12.9431 127.355 9.71155 130.442Z" fill="black"/>
<path d="M37.7246 146.972C38.1756 144.097 39.1421 142.268 42.3687 142.13C44.1805 141.988 45.9299 141.404 47.4639 140.43C50.0858 138.814 52.6037 139.532 55.0868 140.335C56.0087 140.633 57.1289 141.733 57.2627 142.605C57.3767 143.339 56.3507 144.514 55.5379 145.084C53.5267 146.517 51.3901 147.767 49.154 148.816C45.0452 150.62 41.1842 150.114 37.7246 146.972Z" fill="black"/>
</g>
<defs>
<clipPath id="clip0_729_948">
<rect width="150" height="178.137" fill="white" transform="translate(0.160156 0.471191)"/>
</clipPath>
</defs>
</svg>
