<svg width="151" height="138" viewBox="0 0 151 138" fill="none" xmlns="http://www.w3.org/2000/svg">
<g clip-path="url(#clip0_729_812)">
<path d="M22.6785 100.592L26.7878 101.358C26.9908 103.993 25.4244 105.494 23.9347 106.996C23.2711 107.588 22.5559 108.12 21.7977 108.585C20.147 109.734 19.5611 111.205 20.1585 113.181C20.8134 115.352 21.3304 117.57 21.9623 119.975L19.9977 122.273C12.1505 118.286 8.55054 110.76 10.8063 103.583C11.05 102.746 11.4388 101.958 11.9552 101.255C16.1411 95.9354 21.4147 92.4465 28.3504 92.1708C30.0699 92.098 31.8278 92.998 33.5435 92.9137C38.1392 92.6993 42.6851 92.2282 47.2426 91.7648C49.6476 91.5312 52.0374 91.1674 54.4272 90.8112C57.468 90.3593 58.1382 88.724 56.2195 86.4032C54.6876 84.5457 53.0791 82.7343 51.4591 80.9458C50.3102 79.6551 48.56 79.1802 47.323 80.1798C45.1898 81.8841 42.9111 81.6083 40.8124 81.0032C38.0199 80.1647 35.3329 79.0082 32.8044 77.5564C30.8895 76.4841 30.7018 74.0331 32.4559 72.7463C34.3707 71.3599 36.6188 70.4484 38.7903 69.4871C39.6941 69.1042 40.7741 69.0812 41.7737 68.8935C45.7911 68.1544 48.1694 65.9714 49.2876 61.8391C50.7506 56.4775 54.8714 52.9234 59.0688 49.5111C61.8071 47.2784 64.645 44.9844 66.7628 42.204C71.1709 36.4134 77.4861 34.9274 83.9278 34.7245C87.0643 34.6172 90.5456 36.4517 93.3911 38.1904C96.2366 39.9291 97.0562 43.261 97.6919 46.4473C97.8872 47.4354 98.1323 48.4158 98.4234 49.7065C101.104 49.9056 103.724 50.0894 106.359 50.3001C111.123 50.683 112.693 52.8124 111.567 57.4349C111.36 58.3004 111.222 59.2425 110.778 59.9855C108.074 64.5123 109.955 68.2616 112.693 71.8769C116.465 76.8556 121.31 80.7351 126.097 84.6415C127.472 85.7636 129.563 86.0432 131.355 86.6138C132.072 86.8436 132.887 86.7938 133.626 86.901C138.552 87.5942 138.873 87.8125 139.34 92.7529C139.509 94.5108 140.302 95.4567 141.665 96.3797C143.873 97.8735 145.985 99.5043 147.988 101.263C148.888 102.052 149.386 103.3 150.163 104.491C147.709 106.276 145.468 105.824 143.197 104.912C139.9 103.591 136.686 101.902 133.274 101.04C127.484 99.5737 121.559 98.7235 115.531 98.9303C113.899 98.9877 112.256 98.8805 110.621 98.8039C107.067 98.6392 103.505 98.2448 99.9591 98.3443C97.9332 98.4018 96.543 98.0494 95.5702 96.2073C95.3136 95.721 94.6051 95.472 94.203 95.181C92.3302 95.6597 92.066 96.9082 91.7941 98.3903C91.4877 100.049 90.7486 101.63 90.2201 103.174C87.6809 103.063 85.3256 102.002 84.418 105.161C84.2954 105.594 82.4571 105.544 81.3925 105.705C81.1052 102.791 81.0669 100.267 80.5538 97.8388C80.0789 95.5984 78.3172 95.1924 76.5019 96.6095C72.5725 99.6733 72.5725 99.6733 67.9194 99.9337C67.715 100.611 67.4417 101.265 67.1037 101.887C62.8603 108.26 66.9466 113.48 69.5317 118.853C69.7347 119.27 71.6572 119.473 72.136 119.048C76.2683 115.398 81.2278 116.769 85.8426 116.137L86.3712 116.834C85.7124 117.784 85.249 119.029 84.3529 119.619C82.4355 120.828 80.4249 121.884 78.3402 122.774C74.8091 124.368 74.7861 124.306 76.4444 128.297C75.5598 128.098 74.6598 128.17 74.2423 127.757C71.8947 125.436 69.4168 126.133 66.8586 127.194C65.9394 127.577 65.0011 127.899 63.7105 128.377L66.242 129.974C64.2467 134.298 60.7424 135.75 56.3114 136.485C52.0987 137.182 48.0928 138.151 44.1864 135.466C44.7111 135.167 45.4617 134.562 46.3157 134.29C48.3762 133.636 50.5017 133.187 52.5736 132.563C56.0472 131.51 56.208 131.031 54.0633 127.405C55.151 126.573 56.254 125.635 57.4527 124.839C58.2914 124.283 59.3293 124.019 60.1565 123.452C62.3816 121.92 62.485 120.699 60.6122 118.856C59.5284 117.788 58.4369 116.723 57.2688 115.751C53.9293 112.982 53.0561 109.117 52.8646 105.138C52.7919 103.541 53.8757 101.895 54.6148 99.7422C53.5502 99.5047 52.5468 99.1294 51.528 99.0835C48.0085 98.9265 45.0175 97.7316 41.8886 95.9661C38.5911 94.101 34.4512 92.9023 30.7095 94.618C27.9712 95.8512 25.7538 98.2371 22.6785 100.592ZM96.9221 90.344C97.7187 90.298 98.1362 90.3746 98.454 90.2329C99.2743 89.8825 100.067 89.4702 100.825 88.9997C103.383 87.3874 103.425 85.71 100.874 84.113C94.72 80.2641 88.7762 76.2007 84.2533 70.3488C83.6252 69.5369 81.9286 68.8169 81.0669 69.0927C80.4362 69.3385 79.8629 69.7116 79.3825 70.1886C78.9022 70.6656 78.5252 71.2364 78.275 71.8654C77.8116 73.2939 78.4436 74.8258 80.1057 75.6415C80.8027 75.9824 81.741 76.6335 81.8291 77.25C82.0933 79.0347 83.2767 79.6973 84.5941 80.5858C89.0099 83.5768 94.8655 84.7257 96.9221 90.344Z" fill="black"/>
<path d="M65.9208 9.91916C63.7417 12.6 61.6085 14.2774 58.8549 15.2195C55.0022 16.5561 53.3937 20.114 55.0673 23.7369C56.2928 26.3756 57.7481 28.9033 59.1766 31.4539C60.1188 33.1619 60.9422 34.8432 59.7013 37.0032C55.1401 37.344 51.8618 34.8126 48.798 31.9594C46.9367 30.2283 45.3512 28.1718 43.4363 26.5173C40.2462 23.7714 38.6606 20.3591 38.3926 16.2306C38.2241 13.634 38.9364 12.374 41.4564 12.4736C45.8682 12.6498 49.2729 11.026 52.352 8.03492C53.8839 6.5643 55.7988 5.53026 57.595 4.34304C59.1498 3.30517 61.8077 3.64219 63.1289 5.29665C64.2357 6.64089 64.9596 8.28003 65.9208 9.91916Z" fill="black"/>
<path d="M14.1994 21.1097C14.4023 23.7906 14.7394 26.4331 14.7509 29.0986C14.7509 30.1135 14.2989 31.473 13.5598 32.0667C12.3611 33.0241 11.2658 32.1088 10.3122 31.1092C7.33262 27.8961 4.2152 24.8169 1.30842 21.554C-0.338376 19.7119 -0.204335 18.2106 1.64927 16.5753C2.9467 15.3575 4.43271 14.3578 6.04965 13.6149C9.20537 12.286 12.5143 11.317 15.7313 10.1337C19.3083 8.81239 22.9312 7.57921 26.3895 6.00135C28.898 4.85242 31.1384 3.14435 33.5626 1.78862C37.0094 -0.126257 40.7626 0.475015 44.4046 0.911607C46.2659 1.13373 47.1659 3.41244 46.0629 5.07455C44.24 7.82431 42.2868 10.352 38.4302 10.6468C35.4086 10.8728 32.4596 11.9949 29.438 12.3664C26.0831 12.78 22.6746 12.7685 19.3083 12.9983C18.5921 13.0443 17.5542 13.0902 17.2325 13.5421C15.6087 15.8094 14.1879 18.2144 14.1994 21.1097Z" fill="black"/>
<path d="M13.2449 74.037C12.59 73.3707 11.9083 72.7234 11.284 72.0302C10.5564 71.2222 9.87467 70.372 9.17383 69.5371L9.28489 69.6635C9.03213 66.4541 10.6406 64.3018 13.3674 63.0112C16.8142 61.3606 20.3491 59.9282 23.7997 58.3044C25.1911 57.7046 26.4918 56.9131 27.6639 55.9529C31.6124 52.4564 36.3268 51.924 41.2136 52.464C42.3625 52.5942 43.5459 53.8887 44.3731 54.9227C45.2961 56.0717 45.8284 57.5346 46.671 59.1048C43.6071 60.9048 40.9263 63.1912 36.8821 63.3444C32.6004 63.5052 28.3724 64.769 24.0984 65.3895C21.8356 65.6561 19.5598 65.798 17.2814 65.8146C13.7197 65.9371 12.4751 67.2545 12.7853 70.7396C12.8849 71.8656 13.0419 72.9915 13.1683 74.1175L13.2449 74.037Z" fill="black"/>
<path d="M13.1807 74.1174L14.4598 76.2161C13.0887 75.9173 12.9777 75.0671 13.2611 74.0408L13.1807 74.1174Z" fill="black"/>
</g>
<defs>
<clipPath id="clip0_729_812">
<rect width="150" height="136.772" fill="white" transform="translate(0.160156 0.471191)"/>
</clipPath>
</defs>
</svg>
