<svg width="151" height="161" viewBox="0 0 151 161" fill="none" xmlns="http://www.w3.org/2000/svg">
<g clip-path="url(#clip0_729_832)">
<path d="M45.5987 118.518C44.941 117.368 44.8252 116.913 44.5356 116.694C37.9713 111.767 32.896 105.426 28.1806 98.858C24.9749 94.3866 24.4579 88.9639 24.4579 83.5246C24.4579 76.4597 28.9044 71.9098 33.6447 67.8065C36.1761 65.6184 37.4997 63.2566 37.7396 60.1791C38.083 55.6954 37.8141 51.224 39.0715 46.7402C40.1428 42.9182 37.6528 39.5761 35.3075 36.7303C32.3459 33.1399 28.8134 30.0129 25.8932 26.3894C21.7568 21.2852 21.9471 13.6247 29.2022 10.4108C34.5588 8.03652 39.5969 4.95908 44.9203 2.47728C54.9881 -2.22573 63.0499 1.65002 67.5088 10.75C69.1261 14.059 68.6298 17.4136 66.0859 20.3132C65.482 20.9998 65.0601 21.8477 64.2784 23.0349C65.4531 23.4485 66.3258 24.0483 67.0828 23.9324C72.7661 23.0514 78.3833 21.6037 84.2238 22.2986C84.7284 22.3565 85.2827 22.0546 85.7997 21.885C91.0818 19.9781 96.3763 18.1044 101.634 16.1355C105.356 14.7415 109.133 14.696 112.988 15.271C113.933 15.4528 114.896 15.5263 115.858 15.4902C124.106 14.7829 130.538 19.8292 133.161 27.3325C134.708 31.7584 134.137 36.3414 131.63 40.7921C129.078 45.3132 125.488 47.9645 120.752 49.375C114.961 51.0999 109.129 51.4432 103.379 49.0814C99.462 47.4682 95.5945 45.7433 91.665 44.1633C90.504 43.7552 89.3012 43.4778 88.0788 43.336C85.4067 42.9224 83.2931 44.9326 84.2403 47.373C84.9796 49.2641 86.2122 50.9224 87.81 52.1753C91.5327 54.9508 95.4829 57.4285 99.4661 59.8234C101.481 61.0354 102.527 62.7602 102.453 64.8697C102.374 67.0992 101.257 68.8572 99.0111 70.0153C93.0466 73.0886 87.0158 72.3275 81.0016 70.5737C78.1061 69.7465 75.4382 68.2367 72.6296 67.1282C68.514 65.5026 66.2183 67.2109 66.4251 71.5665C66.6319 75.922 69.5646 78.7306 72.3028 81.5971C74.2883 83.6652 76.5757 85.4852 78.3915 87.6899C79.8517 89.4561 80.8981 91.545 79.9882 94.126C78.83 97.4103 75.9676 99.8879 72.5924 99.193C68.6215 98.3658 64.51 97.2696 61.0107 95.2883C57.3872 93.2202 54.4422 89.9773 51.2034 87.239C51.1 87.1522 51.0586 87.0033 50.9676 86.8999C49.0939 84.8317 47.1167 84.0623 45.5904 84.8317C44.0145 85.6341 43.4064 87.7023 43.6463 90.2751C44.0145 94.2253 46.277 97.1538 48.6513 100.016C51.0255 102.879 53.4908 105.617 56.0016 108.367C57.7554 110.303 58.6736 112.433 58.413 115.106C58.1235 118.071 57.9994 121.054 57.8174 124.028C57.623 126.923 55.9561 128.553 53.193 129.016C50.8973 129.401 48.5644 129.566 46.2481 129.868C43.5222 130.224 40.7881 130.555 38.0788 131.035C37.2516 131.183 36.4822 131.779 35.3695 132.321C37.1151 134.36 39.0633 134.604 41.1107 134.803C45.2471 135.196 48.6306 140.114 47.5427 144.047C47.1291 145.508 46.1984 146.488 44.5853 146.426C42.1035 146.327 39.663 146.14 37.2019 145.975C35.7666 145.88 34.3313 145.76 31.8536 145.561C33.3179 148.147 34.4843 149.797 35.2206 151.621C35.9155 153.346 36.5318 155.253 36.5194 157.073C36.5194 159.687 34.5505 161.06 32.0232 160.353C30.1839 159.841 28.4433 159.024 26.8735 157.937C21.0578 153.867 16.2803 148.924 14.572 141.715C13.8109 138.625 13.1574 135.618 15.4407 132.693C16.2679 131.634 16.5327 129.914 16.5616 128.482C16.6898 122.443 20.243 118.224 26.6998 116.648C29.3553 116.003 32.0191 116.731 33.3179 119.544C34.3644 121.769 35.8659 122.203 38.0044 121.38C40.4158 120.45 42.8149 119.564 45.5987 118.518ZM61.0355 24.9583L60.9858 24.0855C56.8991 24.04 52.9944 21.3969 48.6678 23.192C49.7722 26.4432 51.0793 27.5766 53.6314 27.0761C56.1836 26.5756 58.5661 25.7028 61.0355 24.9583Z" fill="black"/>
<path d="M150.144 101.522C148.605 100.55 147.662 100.045 146.834 99.4122C143.881 97.1992 141.147 94.614 137.974 92.794C134.665 90.9037 130.943 89.7331 127.423 88.2441C122.794 86.3165 117.934 85.5637 112.945 85.2452C110.497 85.0922 107.982 84.8068 106.633 82.1347C105.393 79.6901 105.632 77.3903 107.916 75.9923C112.383 73.2581 117.074 71.9138 122.455 73.4856C128.903 75.3718 133.983 78.7222 137.974 84.2401C140.895 88.2937 144.779 91.6483 148.195 95.3544C149.523 96.8476 150.309 98.5353 150.144 101.522Z" fill="black"/>
<path d="M9.55427 43.0009C6.34066 42.4218 3.38067 40.8747 1.07065 38.5667C-0.559067 36.9122 0.338517 34.9681 1.1451 33.1895C2.82445 29.4958 8.54914 28.1308 11.4859 30.8525C12.8592 32.1265 14.2159 33.6362 14.9729 35.3115C16.7929 39.3527 14.9894 42.4259 9.55427 43.0009Z" fill="black"/>
<path d="M124.549 63.2525C124.045 63.7116 123.61 64.2038 123.536 64.1542C123.053 63.8259 122.621 63.4288 122.254 62.9754C122.217 62.9299 122.775 62.2143 122.874 62.2556C123.458 62.5425 124.019 62.8758 124.549 63.2525Z" fill="black"/>
<path d="M108.223 70.8756C107.635 71.2479 107.263 71.6201 106.833 71.7029C106.634 71.7401 106.337 71.1941 106.08 70.9128C106.41 70.5604 106.785 70.2543 107.197 70.0028C107.329 69.9325 107.706 70.4247 108.223 70.8756Z" fill="black"/>
</g>
<defs>
<clipPath id="clip0_729_832">
<rect width="150" height="160.072" fill="white" transform="translate(0.160156 0.471191)"/>
</clipPath>
</defs>
</svg>
