<svg width="151" height="155" viewBox="0 0 151 155" fill="none" xmlns="http://www.w3.org/2000/svg">
<g clip-path="url(#clip0_729_1022)">
<path d="M47.0191 154.258C45.9246 152.131 44.5967 150.446 42.3931 149.253C41.1125 148.559 39.9998 146.699 39.7189 145.181C39.1972 142.372 39.2446 139.442 39.2446 136.56C39.2446 135.247 39.6094 133.915 39.9414 132.624C40.8973 128.859 39.8648 125.757 37.1286 123.05C35.4376 121.36 34.0767 119.369 33.1154 117.18C31.9699 114.652 30.3792 112.339 27.3438 111.051C24.9104 110.022 22.9148 107.746 20.9994 105.761C19.3431 104.046 20.1603 101.89 20.7951 99.9238C21.3788 98.0997 22.2909 96.3302 22.5937 94.4514C23.2139 90.6207 25.0162 87.4393 27.2161 84.3492C28.7521 82.1894 29.9049 79.7633 31.4117 77.578C33.8013 74.0938 36.6725 70.8833 38.7411 67.235C40.6601 63.8348 42.6193 60.4966 45.3081 57.7203C50.2625 52.6126 54.593 46.8374 60.7878 42.9848C63.1118 41.5254 65.3883 40.4309 68.1647 40.3033C71.554 40.1427 74.9359 39.7888 78.3179 39.4714C80.4449 39.2708 82.3092 38.5302 83.6007 36.6841C84.4982 35.3963 85.7897 34.2799 86.3478 32.8717C88.639 27.2095 92.9914 23.1672 97.0337 18.8841C100.419 15.3014 103.696 11.5619 107.442 8.39154C110.543 5.76112 114.155 3.64875 117.756 1.72609C119.358 0.861445 121.474 0.803072 123.371 0.719161C127.275 0.540394 131.2 -0.0396862 135.027 1.56557C136.851 2.33171 137.457 3.38972 137.771 5.30508C139.186 13.937 134.093 18.8585 127.92 23.2037C125.366 25.0278 122.634 26.5856 120.084 28.4061C118.767 29.3438 117.836 30.7265 118.179 32.474C118.883 36.0566 118.365 39.2963 116.355 42.4412C115.41 43.9005 114.604 45.9143 114.786 47.5488C115.37 52.8607 112.835 57.1511 110.985 61.7297C109.584 65.1993 108.493 68.7965 107.238 72.3281C106.797 73.5794 106.275 74.8016 105.779 76.0384C104.283 79.8582 104.093 83.5977 106.629 87.0818C107.687 88.5411 108.938 89.6356 110.908 88.3587C111.24 88.1435 111.806 88.2857 112.619 88.242L111.89 91.4598C116.144 94.2069 119.89 97.9537 125.833 97.8808C129.526 97.8333 133.199 98.4207 136.975 98.1872C139.868 98.0085 142.904 99.1103 145.771 99.9822C147.829 100.61 149.018 102.299 149.664 104.459C150.33 106.601 150.336 108.895 149.679 111.041C149.022 113.186 147.734 115.084 145.983 116.487C142.076 119.73 137.592 120.5 132.754 120.38C122.842 120.106 112.929 119.909 103.013 119.701C100.292 119.647 97.5007 118.556 94.8776 120.263C93.9571 120.821 93.0003 121.317 92.0137 121.748C90.7112 122.365 89.438 123.244 88.0625 123.477C82.0501 124.506 76.6689 127.282 71.087 129.482C69.5511 130.084 68.1683 131.204 66.8841 132.295C63.4766 135.196 60.1129 138.133 56.8404 141.197C54.9542 142.959 54.0531 145.389 54.7353 147.837C55.2971 149.851 54.6112 151.325 54.0056 153.032C53.4146 154.667 52.3529 154.948 50.879 154.743C49.6751 154.59 48.4748 154.429 47.0191 154.258ZM54.1552 71.8501C57.2599 73.408 59.6933 72.547 62.0392 71.8501C65.0746 70.9636 65.381 70.1427 64.4471 66.5455C60.4887 66.7425 57.7634 69.3073 54.1552 71.8501ZM37.3 92.204L36.5084 91.8173C33.6371 93.802 32.0538 96.7972 30.8717 100.026C30.7586 100.336 31.8385 101.54 32.2763 101.485C33.1556 101.394 34.4653 100.916 34.728 100.256C35.7678 97.6509 36.4719 94.9038 37.3 92.204Z" fill="black"/>
<path d="M22.266 69.9349C17.3481 71.0294 13.8311 67.4248 10.0661 64.7689C6.96501 62.5799 3.69248 60.4383 1.67497 57.0308C1.02192 55.9363 0.0697155 54.6375 0.153627 53.4993C0.642499 46.9323 1.73699 40.4894 7.4174 36.1224C9.98247 34.0759 13.0757 32.7994 16.3375 32.4413C17.5355 32.2961 18.7252 32.089 19.9019 31.821C22.7658 31.2446 25.4072 31.6131 27.8187 33.3971C30.3725 35.2906 31.3211 37.7422 30.15 40.6536C28.9351 43.678 27.6582 46.7353 25.0424 48.8915C23.4882 50.1684 23.1781 51.635 24.0974 53.3679C25.1044 55.2687 26.312 57.0746 27.1584 59.041C28.096 61.23 29.1248 63.5066 29.3875 65.8269C29.7268 68.7856 28.2602 69.9495 25.2613 69.9385L22.266 69.9349Z" fill="black"/>
</g>
<defs>
<clipPath id="clip0_729_1022">
<rect width="150" height="154.345" fill="white" transform="translate(0.160156 0.471191)"/>
</clipPath>
</defs>
</svg>
