<svg width="151" height="113" viewBox="0 0 151 113" fill="none" xmlns="http://www.w3.org/2000/svg">
<g clip-path="url(#clip0_729_1027)">
<path d="M91.9337 32.383C90.6482 33.5685 89.8292 32.9966 89.0268 32.5801C86.4077 31.2252 83.7961 29.8593 81.1918 28.4822C79.7453 27.7187 78.3266 27.7936 77.3687 28.7237C76.1832 29.8787 76.397 31.1308 77.924 31.7777C79.104 32.283 80.345 32.6551 81.4889 33.227C83.0353 34.0044 84.4846 34.8651 85.5146 36.4254C86.292 37.6026 87.5275 38.4994 88.627 39.4406C91.7588 42.1253 93.1608 45.2377 91.0119 49.2718L92.9248 50.6905C91.9142 51.0959 90.8925 49.8187 90.3011 51.0237C90.1853 51.4157 90.1748 51.8313 90.2706 52.2286C91.0513 52.3013 91.8354 52.3309 92.6194 52.3175C93.6939 52.3175 94.7933 52.1481 95.8373 52.3175C99.2939 52.8727 102.601 53.6834 105.035 56.632C107.154 59.1946 110.424 60.0691 113.315 61.4296C117.554 63.423 121.838 65.3165 126.169 67.1156C128.621 68.1345 131.15 68.9553 133.732 69.57C135.001 69.8698 136.439 69.4644 137.8 69.3562C140.854 69.1118 143.444 70.8138 146.318 71.3385C147.312 71.519 148.275 71.8716 149.252 72.1409C150.23 72.4102 150.31 73.046 150.027 73.8539C149.122 76.4415 146.123 78.6043 143.277 78.757C137.278 79.0473 131.27 78.4067 125.467 76.858C122.094 75.9834 118.804 74.8312 115.43 73.9094C110.03 72.4296 104.658 70.7777 99.1773 69.6893C94.5462 68.7676 90.0846 67.3683 85.573 66.1106C81.5916 65 77.5742 64.0366 73.5678 63.0232C72.3934 62.7262 71.3467 62.5401 70.3528 63.7451C69.5199 64.7529 68.2705 65.4526 67.1183 66.1467C66.4843 66.535 65.7572 66.7451 65.0138 66.7547C60.6465 66.6603 56.307 66.6409 52.2063 64.5336C50.4294 63.6229 48.6414 62.6956 46.834 61.8377C43.0997 60.0691 39.1795 58.6865 35.4314 56.9457C30.6254 54.7246 25.3531 53.4225 21.2468 49.7271C19.6531 48.2917 18.8924 46.612 18.9396 44.6685C18.9813 42.9666 18.326 41.9532 17.0822 40.9565C15.5469 39.7238 14.1809 38.28 12.2652 36.4837C10.2689 35.8868 7.5453 35.0955 4.8411 34.2626C2.98925 33.6823 2.65608 32.5968 3.65836 30.9309C5.64348 27.5993 8.85298 26.175 12.4345 25.4948C14.1004 25.1783 15.8606 25.3671 17.5681 25.2032C20.3639 24.9256 21.4217 26.9635 22.2324 29.3817C22.3074 29.6445 22.3266 29.92 22.2888 30.1906C22.2511 30.4612 22.1571 30.721 22.0131 30.9531C20.2695 33.1743 18.798 35.7563 15.1304 36.306C19.059 38.5271 22.5489 40.6955 26.8912 40.6677C28.7958 40.6677 30.7032 40.4456 32.5994 40.5456C34.0182 40.6178 35.4091 40.4179 36.8917 41.1286C38.8574 42.067 40.9036 40.7705 42.8943 40.2957C42.6888 38.2662 46.1205 37.7331 44.9516 35.1844C44.7184 34.6735 45.5208 33.7129 45.7845 32.9383C46.1751 31.9275 46.4934 30.8902 46.7368 29.8343C47.3337 26.7025 46.3565 24.6285 43.0803 23.4708C40.29 22.4852 39.3516 19.0286 40.6177 15.9495C41.0313 14.9306 41.6755 14.0061 42.203 13.0343C42.8166 11.9043 43.6328 10.8271 43.9882 9.61937C45.2959 5.14106 48.5442 2.62843 52.6339 1.14583C53.994 0.644995 55.4397 0.4183 56.8878 0.478817C58.3359 0.539334 59.7578 0.885864 61.0713 1.49843C62.0932 1.92037 63.0848 2.41202 64.0393 2.96992C66.2604 4.35812 67.532 6.30159 67.8957 9.0169C68.3344 12.2847 68.9174 12.6262 72.1935 12.9038C73.2041 12.9844 74.2286 13.1815 75.2253 13.101C77.9823 12.8483 79.9896 14.3087 81.786 16.0078C82.4939 16.6797 82.7188 17.9124 83.0215 18.9314C83.1353 19.3145 82.8243 19.8143 82.7438 20.2668C81.7665 25.0367 81.4833 24.3509 85.9144 27.2689C88.1217 28.7154 90.2012 30.2063 91.9337 32.383ZM49.3161 31.5501C51.4234 31.1114 52.5645 32.6606 53.4473 33.86C54.7439 35.6369 56.3265 37.2139 56.779 39.6904C57.3648 42.9472 58.5809 46.0761 58.4948 49.4744C58.4643 50.6655 59.7026 51.4429 60.8437 51.2319C61.3879 51.1245 61.8695 50.8108 62.1877 50.3565C62.5059 49.9022 62.6362 49.3424 62.5511 48.7942C62.4005 47.6051 62.1212 46.4359 61.7182 45.3071C60.8159 43.086 60.8686 40.5678 59.2694 38.5077C57.5647 36.3144 56.3348 33.7545 54.9161 31.3613C54.1998 30.1536 53.3835 29.5788 52.5228 28.882L49.3161 31.5501ZM36.0505 48.3611C38.5826 49.2662 40.4927 48.5055 42.314 47.0007C43.3468 46.1539 44.6573 45.6125 45.8872 45.0405C47.1172 44.4686 48.1722 43.93 48.0584 42.1142C47.5138 42.0719 46.9666 42.0775 46.4231 42.1309C45.3625 42.3308 44.3408 43.5191 43.2469 42.1309C43.1136 41.9588 42.5445 42.1004 42.1835 42.1448C40.6537 42.3419 39.1295 42.5585 37.6081 42.7667C37.5053 43.4858 37.6081 44.6019 37.2832 44.7324C35.3564 45.5153 35.7146 46.9229 36.0505 48.3583V48.3611ZM29.7064 45.346C29.1512 45.979 28.371 46.7064 28.4543 46.8285C29.3816 48.1779 28.2794 48.9219 27.7824 49.9353C27.0578 51.4235 27.999 52.5923 30.0035 52.5479C29.5426 50.5656 29.6232 48.6415 31.4806 47.2922L29.7064 45.346ZM47.914 38.3522C49.1523 38.3522 50.3961 38.7021 51.0819 38.2328C51.565 37.9025 51.6011 36.3144 51.2512 35.562C50.9736 34.9512 49.627 34.2571 49.0745 34.4514C47.6142 35.0067 47.9362 36.5059 47.914 38.3522Z" fill="black"/>
<path d="M25.7498 82.6911C24.5281 84.9344 23.4759 86.7668 22.5319 88.6548C22.171 89.3738 21.7184 90.3206 21.8961 90.9925C22.7457 94.2686 22.729 97.753 24.6225 100.79C26.4189 103.683 28.0319 106.674 30.3058 109.247C30.8805 109.9 31.1915 110.78 31.9244 112.096C30.9194 111.732 30.4196 111.657 30.042 111.402C27.4628 109.666 24.8419 107.987 22.3709 106.102C20.7051 104.824 19.2308 103.278 17.7288 101.795C14.3221 98.436 12.1121 94.4685 10.8822 89.7736C10.3269 87.6691 8.78324 85.6091 7.18959 84.0404C3.54419 80.4311 1.6146 76.1388 0.803892 71.194C0.0431618 66.6241 -0.228924 62.118 1.08153 57.5536C1.82838 54.9383 3.25544 53.1114 5.72088 52.3063C8.43763 51.4588 11.2082 50.7947 14.014 50.3184C15.5465 50.0407 17.0846 50.4544 18.4562 51.3706C21.177 53.1892 21.9156 56.2737 20.122 59.064C19.2517 60.4739 18.2674 61.8101 17.179 63.0592C13.3948 67.2599 13.3337 72.1908 14.1944 77.3354C14.3888 78.4932 15.3633 78.6487 16.2767 78.8291C18.6144 79.2872 20.8966 79.9064 22.9845 81.0947C23.8451 81.5833 24.6947 82.0803 25.7498 82.6911Z" fill="black"/>
</g>
<defs>
<clipPath id="clip0_729_1027">
<rect width="150" height="111.625" fill="white" transform="translate(0.160156 0.471191)"/>
</clipPath>
</defs>
</svg>
