<svg width="151" height="160" viewBox="0 0 151 160" fill="none" xmlns="http://www.w3.org/2000/svg">
<g clip-path="url(#clip0_729_1088)">
<path d="M2.5665 148.381C2.95827 147.975 3.60503 147.623 3.70007 147.157C4.1637 144.924 5.23932 143.007 6.4123 141.102C7.58528 139.196 9.21725 138.109 11.4357 137.803C12.9309 137.599 14.4099 137.272 16.0488 136.973C15.4368 135.849 14.3334 135.814 13.4989 135.408C12.1891 134.766 10.7843 134.296 9.52093 133.577C8.13004 132.789 6.82956 132.124 4.93332 133.862C5.59631 131.753 5.54763 130.404 4.38161 129.226C3.64212 128.473 3.08808 128 2.06346 128.762C1.33557 129.3 0.552036 129.226 0.25995 128.192C0.0281355 127.327 0.246041 126.602 1.27993 126.525C2.6175 126.426 3.06954 125.489 3.42653 124.439C3.57765 124.083 3.67906 123.708 3.72789 123.324C3.86234 120.194 5.63108 117.934 7.58064 115.709C8.63308 114.508 9.32388 112.987 10.3949 111.807C11.7742 110.284 13.1766 108.585 14.9315 107.658C16.6863 106.731 18.8862 106.446 20.9239 106.267C22.8085 106.102 23.4414 107.234 22.6231 108.942C21.9021 110.447 21.2739 112.065 19.5562 112.837C19.169 113.011 18.9372 113.509 18.5988 113.817C18.149 114.228 17.697 114.886 17.1893 114.944C13.5081 115.363 11.2595 118.393 8.13236 119.8C7.79623 119.951 7.30015 120.199 7.24915 120.473C6.90606 122.327 6.30566 124.247 6.49575 126.071C6.65338 127.575 7.65482 129.003 8.85794 130.206C12.0755 133.436 15.8726 135.663 20.1264 137.186C21.86 137.834 23.7169 138.084 25.5601 137.919C27.4448 137.745 29.3596 137.882 31.3393 137.882C30.9892 136.519 29.749 136.171 28.6873 135.629C26.1582 134.337 23.6036 133.079 21.107 131.734C20.5553 131.435 19.9132 130.807 19.8204 130.255C19.5469 128.6 18.1977 128.255 17.0989 128.264C14.9639 128.285 13.0028 127.921 11.037 126.801C11.7672 125.178 12.5276 123.512 13.4803 121.414C14.957 123.931 16.6654 122.668 18.2093 122.392C20.043 122.063 22.1502 122.255 23.3394 120.306C23.497 120.051 23.7381 119.842 23.8354 119.559C24.1275 118.741 24.9945 117.967 24.1461 117.009C23.2188 115.964 22.5072 116.972 21.7144 117.287C21.0885 117.536 20.4324 117.709 19.5446 117.997C20.2006 116.159 20.7616 114.594 21.3991 112.8C23.3092 114.473 25.1081 113.664 26.907 112.939C27.3915 112.742 27.9478 112.447 28.2144 112.035C29.1208 110.63 29.8835 109.135 30.7644 107.714C31.0147 107.308 31.4598 106.786 31.8493 106.752C33.472 106.615 34.631 105.671 35.4632 104.496C36.8835 102.448 38.969 100.956 41.3652 100.272C41.7045 100.132 42.0323 99.9652 42.3458 99.7739C41.9911 99.3543 41.7941 98.9 41.4626 98.7632C39.6637 98.0191 37.8231 98.1304 36.0497 98.8281C34.6589 99.3729 33.363 99.8041 31.8585 99.2013C30.572 98.6867 29.5404 99.1109 28.6595 100.275C27.6952 101.559 26.295 102.308 24.4243 102.985C25.3817 98.9765 28.182 96.4428 29.6007 93.5428C31.1793 93.6239 32.3709 93.705 33.5647 93.7375C34.7238 93.7699 35.8828 93.8511 37.0141 93.7375C38.3837 93.5832 39.7398 93.3259 41.0708 92.9679C42.3342 92.6294 43.535 92.0684 44.7915 91.7022C45.3409 91.5422 46.0456 91.4309 46.537 91.6349C48.7555 92.5622 50.9021 92.3002 53.051 91.475C54.3283 90.9835 55.543 90.8305 56.7994 91.6512C57.2329 91.934 57.9307 91.8088 58.7351 91.883C58.5821 90.6497 58.392 89.6761 58.3526 88.6978C58.2923 87.2444 58.3781 85.7863 58.3248 84.3328C58.2923 83.438 58.2738 82.4922 57.9701 81.6716C57.6085 80.6979 57.773 80.0489 58.5682 79.467L61.438 77.3807L56.9408 72.6238C58.9368 72.0791 59.259 70.5839 59.8802 69.0817C60.9002 66.6546 61.7487 64.063 63.5893 62.0508C63.9416 61.666 64.4238 61.3971 64.8874 61.0447C65.2792 61.2209 65.62 61.3809 65.963 61.5292C68.0076 62.4124 69.0184 62.1876 70.4324 60.551C71.8465 58.9144 73.1817 57.2221 74.6885 55.6991C75.3585 55.0245 76.3553 54.649 77.2385 54.2155C78.9956 53.3601 80.4282 52.4259 80.0318 50.0266C79.8673 49.0205 80.1941 47.8638 80.5395 46.8554C81.3115 44.5975 81.534 42.3883 80.7852 40.0702C80.1246 38.0233 79.6262 35.9253 79.0768 33.9039C76.8444 33.4959 75.2727 34.4881 73.8749 36.8341C72.1594 39.7109 70.6295 42.6062 70.8752 46.1066C70.8937 46.3663 70.6434 46.6468 70.4324 47.0895C70.2006 46.6908 69.9271 46.4404 69.9433 46.2109C70.1913 42.3744 70.4718 38.5379 70.7616 34.706C70.7772 34.3967 70.8792 34.098 71.056 33.8437C72.4469 32.119 73.7868 30.3664 75.2843 28.7437C76.3785 27.5638 76.7285 27.1373 76.0284 25.7186C75.4596 24.5512 74.6791 23.4995 73.7265 22.6169C71.6147 20.7044 70.1056 16.3579 70.8775 13.655C71.2368 12.3962 71.5729 11.105 72.1316 9.93434C73.4043 7.30788 75.7549 6.06999 78.4671 5.40237C81.399 4.70126 84.4461 4.62857 87.4082 5.1891C89.4389 5.54609 91.4626 5.44178 93.4747 4.53075C96.4171 3.1943 99.4359 2.0332 102.516 1.05354C105.103 0.239868 106.343 -0.165807 108.056 2.98918C108.9 4.54234 110.193 5.21228 111.872 5.03147C115.08 4.68606 118.288 4.29662 121.48 3.82835C125.287 3.26736 129.065 2.50469 132.955 2.90109C134.098 3.01932 135.273 2.85705 136.416 2.96137C137.865 3.09118 139.302 3.36472 140.746 3.57336C141.574 3.69158 142.399 3.86544 143.234 3.91412C145.417 4.04858 147.147 5.10565 148.797 6.43162C149.924 7.3357 149.864 8.68254 150.01 9.82075C150.367 12.6025 150.292 15.4492 147.821 17.3733C146.723 18.1906 145.455 18.7529 144.112 19.0191C137.77 20.3196 131.423 21.6317 125.029 22.6215C122.095 23.0852 119.048 22.7954 116.053 22.8533C115.977 22.8533 115.903 22.807 115.822 22.8023C112.344 22.552 110.49 23.1292 110.594 27.6334C112.3 28.7924 113.9 27.2393 115.488 27.2161C114.498 28.2593 113.554 29.3024 112.562 30.2783C112.256 30.582 111.837 30.9274 111.443 30.9599C110.284 31.0549 109.41 31.4606 108.758 32.4736C108.547 32.8051 107.982 32.921 107.569 33.1134C106.25 33.7138 104.94 34.3166 103.431 35.012C104.384 32.6939 107.054 32.3345 108.434 30.2459C106.447 30.3317 105.012 31.245 103.471 31.7921C101.523 32.4875 99.5297 33.0532 97.6381 33.8946C95.881 34.6828 94.0798 35.1882 92.2322 35.6843C90.3847 36.1803 89.9025 37.9584 91.2632 39.3307C93.6672 41.7601 93.9778 44.9105 94.8077 47.9078C95.1137 49.0136 95.4428 50.1726 96.0502 51.1208C99.1194 55.9054 102.854 59.9714 107.954 62.7833C111.533 64.763 115.207 66.0797 119.283 66.4182C122.125 66.65 124.485 66.089 126.005 63.4185C126.418 62.6883 127.046 62.0856 127.503 61.3785C128.145 60.3794 129.51 59.7558 130.356 60.2334C131.316 60.7805 131.305 61.6498 131.089 62.6558C130.479 65.5072 128.727 67.3779 126.263 68.7618C124.392 69.8143 122.625 71.0521 120.745 72.0884C119.844 72.5868 118.798 73.0597 117.799 73.0991C116.194 73.1575 114.588 73.0079 113.021 72.654C111.992 72.4222 111.1 72.4894 110.45 73.157C108.828 74.8261 106.741 74.8678 104.667 75.0278C102.689 75.1808 100.705 75.2294 98.7277 75.3708C98.4703 75.3894 98.2339 75.6815 97.7726 75.9898C100.874 79.6316 104.15 82.9048 107.972 85.7677C106.521 85.7561 105.302 85.2276 103.937 84.145C101.72 82.3763 99.4695 80.6493 97.2695 78.8596C95.5217 77.4386 93.4701 77.3274 91.3699 77.2972C90.4704 77.2856 89.571 77.2045 88.6692 77.1535C88.8014 75.0904 88.7851 75.1529 87.1045 74.6777C86.3878 74.4585 85.7337 74.0715 85.1967 73.5488C83.88 72.2715 82.6653 70.8945 81.3277 69.4712C82.7186 68.2055 84.6635 69.0354 86.2398 68.4674C86.2282 66.2211 85.2361 65.1339 83.2726 65.3333C81.7194 65.4909 80.2289 65.8618 79.443 67.5077C79.188 68.0409 78.5784 68.3932 78.2677 68.9125C77.7067 69.8398 77.2825 70.8087 78.0939 71.9006C79.5566 73.8664 80.8756 75.9411 82.4103 77.8489C82.9658 78.484 83.7481 78.8759 84.5893 78.9408C86.5783 78.9686 88.3493 79.6084 90.1528 80.3178C91.6596 80.9135 92.0491 81.3748 91.7755 82.6081C91.4904 83.9503 90.1528 85.019 88.8871 84.5437C87.1277 83.8784 85.2523 83.1528 83.8637 81.9381C81.0541 79.4925 77.5282 78.8898 74.255 77.6449C73.3996 77.3204 72.3147 77.5963 70.9633 77.5963C71.4617 76.4905 71.8697 75.5934 72.3889 74.4389C70.4695 74.2512 68.7935 73.0991 67.1128 74.7218C65.722 76.0663 65.6014 77.0909 67.0479 78.4192C68.2696 79.5412 69.679 80.4592 70.9888 81.4768C71.1405 81.6137 71.2794 81.7643 71.4037 81.9266L66.1925 82.4644C66.4081 82.6637 66.167 82.5501 66.116 82.3786C65.7869 81.2497 64.9801 80.8788 63.9787 81.2404C62.8335 81.6553 63.2091 82.6197 63.5313 83.3986C64.44 85.5915 65.4206 87.7544 66.3409 89.9404C66.4753 90.2556 66.4383 90.6358 66.4916 91.0786C65.0682 90.4596 64.6533 88.5402 62.662 88.7604C62.7941 89.588 62.91 90.302 63.0399 91.118L61.2224 91.8134C61.5284 92.1751 61.7023 92.5575 61.8785 92.5599C62.6852 92.5599 63.6194 92.2029 64.2685 92.4973C64.9176 92.7917 65.3047 93.7723 65.9074 94.3518C66.3612 94.7745 66.8969 95.0996 67.4814 95.3069C70.8868 96.5169 74.3107 97.676 77.7299 98.8513L79.7722 99.5468C80.0666 100.59 78.6757 101.121 79.5868 102.243C80.4097 103.256 79.5659 104.246 78.1333 104.097C75.9542 103.865 73.854 103.293 72.1525 101.844C70.9749 100.84 69.635 100.409 68.1676 100.173C67.5605 100.108 66.9653 99.9599 66.3988 99.7322C64.7414 98.9417 63.4316 99.4239 62.2934 100.701C61.0694 102.076 59.82 103.434 58.6493 104.855C57.277 106.522 57.3511 107.146 58.9762 108.474C59.441 108.876 59.957 109.214 60.5108 109.48C61.9017 110.099 62.8869 111.103 63.7562 112.561C60.9906 113.361 58.538 112.688 56.1411 111.634C55.8235 111.494 55.5894 111.103 55.3854 110.785C54.2935 109.084 54.3097 107.862 54.9542 105.808C55.5129 104.028 56.1133 102.331 57.4578 100.97C58.1834 100.233 57.838 99.3196 57.1286 99.0113C54.6273 97.9217 52.1168 96.6699 49.1449 97.2912L48.2918 100.731L44.4924 99.3404L42.7932 100.694C43.4145 103.506 46.2078 104.422 47.7656 106.684C47.0006 106.541 46.238 106.401 45.4753 106.253C44.9468 106.149 44.2444 105.759 43.9268 105.968C41.7616 107.394 39.4597 106.272 37.2389 106.432C35.7159 106.538 34.5963 107.037 33.7617 108.441C34.3946 109.046 35.7067 109.239 35.2546 110.637C35.1943 110.827 35.9501 111.404 36.4137 111.622C38.0828 112.401 39.8074 113.064 41.4742 113.85C42.4478 114.313 43.7923 114.496 43.6579 116.323C42.9114 116.397 42.1627 116.592 41.4394 116.52C39.221 116.288 37.0118 115.992 34.8049 115.665C33.7501 115.507 32.7186 115.234 31.6661 114.993C30.7528 114.782 29.8533 114.513 29.1324 115.456C28.961 115.705 28.7087 115.887 28.4184 115.971C27.3753 116.112 26.2533 116.307 26.2927 117.593C26.3367 119.075 26.0771 120.895 27.7647 121.69C29.8348 122.663 31.9744 123.644 34.1929 124.107C36.7429 124.636 39.3948 124.604 42.005 124.803C42.2369 124.821 42.5058 124.75 42.7005 124.849C43.083 125.056 43.7066 125.338 43.7135 125.605C43.7274 126.069 43.4608 126.764 43.1015 126.94C42.2276 127.39 41.2354 127.608 40.2873 127.905C39.6382 128.109 38.9799 128.285 37.9923 128.57C39.8098 129.796 40.4913 131.215 39.564 133.044C38.2056 133.577 37.2459 132.94 36.2862 132.253C35.6672 131.804 35.097 131.261 34.4317 130.914C33.3306 130.341 32.2526 130.188 31.3346 131.377C31.0472 131.748 30.4746 131.899 29.7305 131.917L31.1863 129.038C28.3048 126.905 25.2217 125.777 21.7004 125.897C21.1858 128.447 21.4686 128.644 23.0913 129.986C25.6668 132.11 28.7615 133 31.7519 134.18C33.0511 134.668 34.3205 135.231 35.5537 135.867C36.1193 136.171 36.7127 136.73 36.9214 137.307C37.1532 137.94 37.1879 138.869 36.8634 139.393C36.6316 139.755 35.6626 139.732 35.0089 139.734C34.492 139.734 33.9727 139.518 33.7131 139.461L29.8464 143.285C29.7792 144.148 30.4746 144.945 31.2697 145.701C35.094 149.294 39.4114 152.322 44.0914 154.695C45.0441 155.189 46.0572 155.565 46.1615 156.761C42.3458 157.491 38.6229 158.569 34.8397 158.847C29.2437 159.26 23.6245 160.046 17.9914 159.341C16.6955 159.164 15.4215 158.853 14.1897 158.414C12.9077 157.969 11.7093 157.66 10.432 158.4C9.63452 158.863 8.70494 158.685 8.50558 157.836C7.91445 155.286 5.62645 153.921 4.54851 151.73C3.97825 150.571 3.2689 149.48 2.62214 148.358L2.5665 148.381ZM37.1068 153.905C37.1485 153.701 37.1879 153.497 37.2274 153.293C36.7637 153.096 36.3001 152.866 35.8133 152.706C33.6273 151.978 31.374 151.415 29.2715 150.502C27.7809 149.857 26.3437 149.215 24.7256 148.932C23.0635 148.643 22.3078 147.59 22.5651 146.246C22.8108 144.964 24.0209 144.264 25.5532 144.456C26.5987 144.586 27.6534 144.637 28.7986 144.732C28.2515 142.877 26.7633 142.182 25.2634 143.135C24.3733 143.693 23.6407 143.874 22.6996 143.545C21.2901 143.049 19.8946 142.877 18.9187 143.631C17.7318 143.137 16.8578 142.518 15.9399 142.442C13.3459 142.226 10.8399 142.789 8.69799 144.308C7.678 145.031 6.89679 146.132 6.13412 147.157C5.90231 147.477 6.05762 148.1 6.03676 148.585C6.59775 148.522 7.30015 148.652 7.69191 148.353C8.79767 147.535 9.70638 146.447 10.8237 145.648C11.7496 144.999 12.7647 144.488 13.8373 144.132C14.6695 143.844 15.5365 144.38 15.6014 145.182C15.6965 146.341 15.8216 147.611 14.9361 148.659C13.6356 150.212 13.6611 150.393 15.5435 151.225C18.6517 152.601 22.031 153.254 25.428 153.138C27.0322 153.089 28.6433 153.235 30.2474 153.346C32.5354 153.506 34.8188 153.717 37.0999 153.905H37.1068ZM90.7231 35.3945C91.2057 35.0678 91.6701 34.7149 92.114 34.3374C96.945 29.5922 101.943 25.0649 108.19 22.1973C108.422 22.0884 108.568 21.7847 109.094 21.1866C108.005 21.0892 107.289 20.8806 106.626 20.9896C103.311 21.539 100.003 22.1162 96.7132 22.7908C95.6559 22.9815 94.6566 23.4124 93.7921 24.0502C92.9276 24.688 92.2211 25.5157 91.7269 26.4696C90.4867 28.7368 90.3568 31.1616 90.3174 33.6257C90.3012 34.1149 90.5307 34.6086 90.7231 35.3945ZM89.9975 61.4666C90.2479 65.2151 93.0714 71.6665 95.6886 72.5195C98.0461 71.7754 100.072 70.6882 101.528 68.734C101.326 68.4257 101.247 68.1707 101.076 68.0594C99.029 66.7358 96.8175 65.6741 95.0812 63.8729C94.3 63.0592 93.2545 62.482 92.2763 61.8862C91.597 61.4713 90.8831 60.8523 89.9975 61.4666ZM60.1213 85.0514C59.2219 88.2458 59.2798 89.1962 60.3972 90.2672C62.7825 87.0612 62.7617 85.9253 60.1213 85.0514ZM20.4092 125.668C18.914 124.708 17.6553 124.277 16.0326 125.503C16.9181 126.3 17.6553 127.026 18.4435 127.659C19.2316 128.292 19.7347 128.109 20.094 127.084C20.2264 126.618 20.3316 126.145 20.4092 125.668ZM65.2004 71.4068C66.0558 70.9432 66.6098 70.7856 66.9112 70.4239C67.3029 69.9603 67.7828 69.2486 67.6808 68.7595C67.5973 68.3701 66.7025 68.1475 65.9491 67.7303C65.6872 69.0122 65.4971 69.9418 65.2004 71.4068ZM62.7501 72.3851C62.8938 72.2089 63.1349 72.0281 63.1071 71.9215C63.0607 71.7522 62.7686 71.488 62.6921 71.5204C62.4788 71.6542 62.2879 71.8208 62.1265 72.0142L62.7501 72.3851Z" fill="black"/>
</g>
<defs>
<clipPath id="clip0_729_1088">
<rect width="150" height="159.122" fill="white" transform="translate(0.160156 0.47168)"/>
</clipPath>
</defs>
</svg>
