<svg width="151" height="121" viewBox="0 0 151 121" fill="none" xmlns="http://www.w3.org/2000/svg">
<g clip-path="url(#clip0_729_1113)">
<path d="M124.832 42.6952C125.472 44.1606 125.927 45.5235 126.606 46.7495C130.762 54.3062 132.301 62.2683 130.186 70.7189C129.627 72.9147 128.772 75.0245 127.646 76.9908C126.376 79.1987 124.178 79.7507 122.204 78.7298C120.231 77.7089 119.508 75.9162 120.251 73.8011C122.83 66.2152 119.2 60.3437 114.946 54.7165C112.406 51.3607 108.596 50.9162 104.815 51.4535C98.9532 52.2888 93.58 54.6677 88.6269 57.8476C82.3598 61.858 82.2035 74.7341 90.6443 78.046C93.2372 78.9778 95.8808 79.7623 98.5624 80.3955C102.011 81.3138 105.46 82.2419 108.952 82.9404C110.506 83.2531 112.166 83.0333 113.778 83.0381C116.484 83.0381 119.191 83.0381 121.701 83.0381C124.144 90.3017 121.379 95.2499 114.697 96.4613C112.938 96.774 111.077 96.6812 109.397 97.2087C107.931 97.6679 105.792 98.4885 105.489 99.5778C104.488 103.173 101.415 104.658 98.9874 106.573C93.8145 110.651 87.518 112.478 81.1239 113.616C79.6585 113.88 77.2162 113.128 76.4053 112.024C75.717 111.098 75.3621 109.967 75.3985 108.814C75.4348 107.661 75.8603 106.554 76.6056 105.674C79.683 101.732 82.1155 97.2038 87.0345 95.0204C87.9479 94.6149 88.5536 93.5159 89.8969 92.1237C87.3862 91.5913 85.5495 91.3226 83.7861 90.8C73.7334 87.8252 63.5145 86.6675 53.0124 86.7847C42.1488 86.9068 31.2851 86.3988 20.485 88.0205C15.063 88.8347 9.63768 89.6309 4.20913 90.4092C2.67533 90.6241 1.23433 90.4531 0.653051 88.6653C0.0717691 86.8775 -0.323893 84.9823 1.69838 83.9174C6.7101 81.265 11.7218 78.6468 17.4516 77.6991C32.7261 75.1737 48.0642 73.9477 63.5536 74.7683C66.0985 74.9002 68.6679 74.4606 71.0858 74.2798C73.0397 68.1544 74.8031 62.5272 76.84 56.0794C73.1716 56.4653 70.0601 56.3627 67.2025 57.1687C57.7408 59.8308 48.6943 58.9076 39.6234 55.3271C31.8566 52.2644 27.9 46.8277 26.7521 38.6605C26.2636 35.0213 27.8316 32.4324 29.2726 29.5553C30.1275 27.8506 30.6452 25.9797 31.5196 24.2847C35.2711 16.9869 38.4852 9.04927 47.1507 6.1624C55.6941 3.33904 64.3645 2.91407 72.6441 7.31031C74.2157 8.15836 75.5071 9.44469 76.3613 11.0129C79.2922 16.7183 77.1576 25.4033 72.3021 29.5749C71.0918 30.6638 69.6279 31.4319 68.0441 31.8091C66.4603 32.1862 64.8073 32.1604 63.2361 31.7339C61.0327 31.1826 58.8688 30.4842 56.759 29.6433C52.5337 28.046 48.8066 28.8715 45.8318 32.1833C43.6581 34.6257 43.6972 35.7296 46.3203 37.6982C51.2572 41.5075 57.313 43.5816 63.5487 43.5989C66.758 43.5989 69.9624 42.6562 73.1765 42.5878C80.4059 42.4315 86.4678 38.9242 92.8424 36.2376C95.8367 34.9774 98.8897 33.7953 101.987 32.8525C103.682 32.2628 105.498 32.109 107.269 32.4052C109.039 32.7014 110.706 33.4381 112.117 34.5475C115.615 37.1608 116.905 37.1071 120.422 34.6794C125.516 31.1722 130.792 28.0704 136.732 26.1116C141.685 24.4752 142.94 20.4209 139.662 16.2249C137.831 13.936 136.775 11.1234 136.649 8.19445C136.585 7.0905 136.566 5.67882 137.166 4.90215C138.5 3.18761 140.029 0.916215 141.817 0.520552C143.814 0.0809274 144.445 2.79683 145.202 4.61395C145.959 6.43106 147.141 7.99906 148.02 9.75267C150.238 14.1001 151.01 18.3058 148.997 23.2394C146.276 29.8582 141.817 34.6941 135.955 38.3332C133.557 39.8279 130.543 40.3261 127.822 41.3226C126.918 41.6499 126.073 42.1139 124.832 42.6952Z" fill="black"/>
<path d="M58.2102 106.079C56.6666 109.606 55.2501 112.879 53.814 116.147C52.837 118.359 51.2886 119.947 48.7925 120.299C45.676 120.743 43.3802 118.262 44.7821 115.546C46.653 111.961 48.8767 108.573 51.4204 105.43C53.3646 103.012 55.763 104.287 58.2102 106.079Z" fill="black"/>
</g>
<defs>
<clipPath id="clip0_729_1113">
<rect width="150" height="119.881" fill="white" transform="translate(0.160156 0.47168)"/>
</clipPath>
</defs>
</svg>
