<svg width="151" height="203" viewBox="0 0 151 203" fill="none" xmlns="http://www.w3.org/2000/svg">
<g clip-path="url(#clip0_729_1040)">
<path d="M30.6996 187.446C31.3368 188.943 32.1077 190.058 32.197 191.23C32.4391 194.359 33.0762 198.022 30.2218 200.068C27.3673 202.113 23.4105 202.999 19.9571 201.31C15.0339 198.908 10.265 196.201 5.67839 193.205C0.0140448 189.491 -1.33036 182.374 1.79809 176.334C4.34673 171.447 8.53923 168.337 12.7063 165.19C18.4407 160.857 19.1161 158.888 15.5607 152.446C12.0054 146.005 7.99765 139.703 4.35947 133.23C-0.240819 125.042 2.07207 117.925 10.9923 115.306C19.2754 112.86 27.9152 111.585 36.4149 109.878C38.9062 109.374 41.5122 109.317 43.9653 108.737C48.9033 107.584 49.4831 105.692 46.3801 101.729C44.0672 98.7785 41.8435 95.7584 39.4924 92.8402C34.6564 86.8445 33.1208 79.7593 34.3378 72.5148C35.8033 63.3588 37.5618 54.0691 40.7476 45.4037C43.137 38.911 48.6675 34.0814 55.5361 31.5072C57.3265 30.8382 59.2189 30.4241 60.9519 29.6467C62.4342 29.0624 63.7406 28.1057 64.7451 26.869C65.7497 25.6324 66.4183 24.1575 66.6864 22.587C69.6109 8.25731 85.2787 -1.50397 99.6785 0.808922C109.663 2.41456 115.945 8.28917 121.425 15.8268C124.413 19.9301 123.457 24.8107 121.928 28.5699C117.736 38.9429 126.433 51.5077 136.774 52.9477C139.96 53.3809 143.566 54.6807 145.904 56.7706C150.364 60.7975 151.231 66.1496 148.899 71.935C145.579 80.1543 139.342 84.487 130.88 86.2583C124.872 87.5326 118.946 88.9535 112.689 88.5712C109.395 88.3673 106.044 89.0427 102.138 89.374C103.253 93.7513 105.591 96.147 108.949 97.7399C111.058 98.7339 113.269 99.5495 115.276 100.709C120.514 103.742 121.52 107.718 118.545 112.923C114.907 119.295 115.123 120.767 120.15 126.304C124.228 130.815 129.204 133.688 134.945 135.721C138.43 136.957 141.642 139.213 144.636 141.455C145.974 142.462 146.924 144.501 147.262 146.228C147.831 149.358 148.115 152.533 148.109 155.715C148.185 162.208 144.037 166.47 137.538 166.075C124.196 165.272 112.199 161.335 103.954 149.879C101.341 146.253 98.3532 144.278 93.7083 145.89C92.0796 146.39 90.3767 146.606 88.6747 146.527C86.5408 146.467 84.4213 146.895 82.4778 147.778C80.5344 148.661 78.8184 149.977 77.4607 151.624C72.0003 157.888 65.2145 160.054 57.0716 159.168C52.8728 158.71 50.4516 160.131 49.5277 164.368C47.7181 172.753 42.4552 178.124 35.8415 182.699C33.9746 184.011 32.4582 185.802 30.6996 187.446Z" fill="black"/>
</g>
<defs>
<clipPath id="clip0_729_1040">
<rect width="150" height="201.75" fill="white" transform="translate(0.160156 0.471191)"/>
</clipPath>
</defs>
</svg>
