<svg width="151" height="140" viewBox="0 0 151 140" fill="none" xmlns="http://www.w3.org/2000/svg">
<g clip-path="url(#clip0_729_908)">
<path d="M78.8396 95.8288C81.1162 98.3815 80.2287 100.174 78.8841 102.294C77.2338 104.897 75.1471 106.494 72.2234 107.259C71.3329 107.491 70.579 108.174 69.638 108.723C70.7304 111.097 72.3748 112.599 73.9242 114.22C75.1716 115.472 76.2675 116.867 77.1892 118.376C78.3142 120.305 77.1507 121.988 74.9156 121.804C73.8351 121.674 72.7721 121.426 71.7455 121.065C66.0613 119.284 60.858 116.458 55.6101 113.718C54.034 112.893 52.4965 111.961 50.861 111.317C48.929 110.619 47.3066 109.259 46.281 107.479C46.462 105.455 47.7859 103.793 48.9732 102.157C49.9616 100.801 50.1308 99.7825 48.9435 98.518C48.4938 98.0185 48.1971 97.4003 48.0886 96.7371C47.8126 94.9086 47.8096 93.0327 47.4534 91.2221C47.2662 90.4037 47.2908 89.5512 47.5251 88.745C47.7593 87.9389 48.1954 87.2059 48.7921 86.6154C51.2069 84.0005 54.2742 82.0755 57.679 81.038C59.1696 80.5202 60.6201 79.8932 62.0186 79.1621C63.0693 78.6516 63.5769 77.7492 63.6125 76.1761C62.4816 76.0781 61.3804 75.7101 60.4335 75.9475C55.064 77.2892 50.0803 75.6715 45.064 74.1666C44.0221 73.8697 43.0159 73.3978 41.9562 73.1989C38.3736 72.5251 36.5926 70.0556 35.6428 66.8528C35.2116 65.2482 34.3457 63.7937 33.1406 62.6498C30.386 60.0318 30.4691 56.6569 33.0129 53.7451C33.8381 52.7952 34.3724 51.599 35.0699 50.5364C35.6072 49.7112 36.0435 48.7258 36.7856 48.147C38.9168 46.4818 38.6348 44.5376 37.8452 42.3797C36.3819 38.3607 36.2928 34.496 39.1186 30.9104C39.9586 29.8418 40.4484 28.5032 41.229 27.3812C42.1551 26.0455 43.5116 25.3776 45.064 24.7988C47.6137 23.8519 50.2792 22.9911 52.2115 20.8332C52.6389 20.3524 53.3988 20.106 54.034 19.8864C57.6701 18.6545 59.362 15.9356 59.6737 12.3084C59.8725 9.88636 60.7571 8.15291 62.8111 6.66879C64.592 5.38651 65.9307 3.47793 67.6434 1.65543L75.4706 0.592803C75.7675 0.551248 76.0643 0.494851 76.3611 0.48001C79.7122 0.313788 81.0094 2.17191 79.8814 5.38651C78.8188 8.43192 76.9251 10.9015 74.6633 13.1425C73.9865 13.8163 73.3721 14.5554 72.7695 15.2203C73.4819 16.5649 74.3991 16.5857 75.4409 16.3453C79.7808 15.3804 83.8663 13.5046 87.4267 10.8421C88.9108 9.70827 90.4543 8.59815 91.793 7.29509C93.0806 6.0396 94.7842 5.30028 96.5808 5.21732C101.591 4.90269 106.613 4.75724 111.633 4.60586C114.497 4.51978 117.364 4.60586 120.241 4.51682C123.117 4.42777 125.079 5.46962 126.655 7.92436C127.747 9.62813 129.383 11.0202 130.914 12.3945C132.538 13.846 132.903 15.5141 132.217 17.4672C131.998 18.0846 131.665 18.7911 131.164 19.1621C130.477 19.6545 129.906 20.2901 129.489 21.0251C129.073 21.76 128.821 22.5767 128.751 23.4186C128.317 27.7285 125.049 29.1235 121.698 30.4355C120.908 30.7323 120.03 30.8243 119.208 31.0054C119.504 32.8487 119.994 34.4782 119.932 36.087C119.87 37.6958 119.309 39.3729 118.863 40.9905C118.567 42.0176 118.884 42.7715 119.691 43.2998C120.745 44.0266 121.853 44.6726 123.004 45.2322C126.236 46.7163 129.353 48.2984 131.971 50.8214C135.379 54.0864 139.873 55.2262 144.283 56.2651C148.783 57.3248 151.259 61.4358 149.688 65.8169C148.572 68.9098 147.088 71.7237 144.393 73.7866C142.529 75.2173 140.594 76.1612 138.16 75.9416C132.772 75.437 127.382 74.9413 121.983 74.5732C119.341 74.3922 116.492 73.8935 114.076 74.6415C111.38 75.4756 108.896 77.3456 106.655 79.1829C105.491 80.1387 105.07 81.9938 104.09 83.8668C107.059 83.8668 109.543 83.7688 112.007 83.8965C114.414 84.0182 116.812 84.3714 119.427 84.6474C119.263 85.1623 119.151 85.6923 119.092 86.2295C119.092 87.681 118.709 89.3283 119.258 90.5483C121.79 96.1494 120.392 97.6186 115.174 100.495C112.538 101.946 109.534 102.018 106.587 101.198C104.714 100.679 103.969 101.264 104.058 103.205C104.144 105.01 104.467 106.802 105.922 108.058C108.187 110.014 108.513 112.51 108.377 115.309C108.24 118.108 108.843 120.777 111.363 122.626C112.485 123.442 113.509 124.384 114.417 125.434C116.791 128.218 116.447 131.578 115.684 134.707C115.049 137.325 109.89 139.557 107.026 138.922C106.45 138.794 105.907 138.527 105.331 138.408C102.081 137.743 100.434 135.191 101.769 131.7C102.464 129.877 102.197 128.002 101.176 126.289C100.879 125.778 100.523 125.295 100.261 124.763C98.2162 120.637 96.3106 116.434 94.1171 112.386C91.6802 107.88 89.0711 103.457 86.3641 99.1087C85.1323 97.1318 83.1228 95.9505 80.7778 95.5468C80.3564 95.4548 79.8874 95.6596 78.8396 95.8288ZM57.6315 32.2313C55.2361 32.6409 53.3127 32.9258 51.3982 33.3177C50.731 33.4688 50.1018 33.7546 49.549 34.1577C47.6345 35.5438 46.6312 40.2782 49.083 41.6258C49.7182 41.976 50.6561 42.4658 51.1429 42.2194C51.7841 41.9226 52.5291 40.946 52.5054 40.2871C52.449 38.6486 53.2326 37.4376 54.0726 36.271C55.0106 34.9799 56.1771 33.8579 57.6315 32.2313ZM75.6012 26.0959C74.1973 25.2055 73.4255 25.4043 73.286 26.7905C73.1791 27.8561 73.4196 28.9751 73.2148 30.011C72.7725 32.258 73.7639 33.9024 75.1412 35.7872C76.9073 32.9021 76.6253 30.4444 74.7493 28.1321L75.6012 26.0959ZM52.6478 60.1327C51.3596 57.3693 50.8105 57.2624 48.4923 59.0701L52.6478 60.1327ZM73.6689 22.5578C73.4314 22.8784 73.1554 23.0921 73.1524 23.3087C73.1495 23.5254 73.4493 23.6916 73.6274 23.8846C73.8203 23.6887 74.132 23.5106 74.1676 23.2909C74.2032 23.0713 73.8975 22.8694 73.6689 22.5578Z" fill="black"/>
<path d="M1.1102 21.8958C0.754011 20.9044 0.296902 20.1564 0.204887 19.3669C0.0831892 18.3013 0.246442 17.206 0.264252 16.1226C0.296902 14.3684 0.51952 12.8041 2.65665 12.3025C3.26811 12.157 3.74303 11.4862 4.30996 11.0944C5.70504 10.1297 7.65814 10.1713 8.66437 11.1656C9.60827 12.1006 9.67654 13.7332 8.55751 15.2232C7.53991 16.549 6.40004 17.7763 5.15294 18.889C4.07844 19.8685 2.81397 20.6551 1.1102 21.8958Z" fill="black"/>
<path d="M24.7278 30.6966C24.7011 31.9908 23.9353 32.7744 22.7777 32.6705C21.7032 32.5814 20.605 31.3526 20.7237 30.2543C20.8424 29.1561 21.4657 28.4734 22.6352 28.4734C23.962 28.4882 24.7546 29.3579 24.7278 30.6966Z" fill="black"/>
<path d="M125.272 40.5186C124.664 41.9819 123.559 42.5162 122.188 41.8632C121.615 41.5901 121.09 40.7263 121.001 40.0822C120.95 39.6251 121.594 38.791 122.105 38.6248C123.773 38.0816 124.67 39.1116 125.272 40.5186Z" fill="black"/>
<path d="M90.8904 3.62029C90.3265 3.89337 89.9169 4.23472 89.7477 4.1427C89.3915 3.94383 89.154 3.51937 88.875 3.18693C89.1481 2.97915 89.5043 2.55172 89.6824 2.61406C90.0593 2.7506 90.3472 3.1424 90.8904 3.62029Z" fill="black"/>
</g>
<defs>
<clipPath id="clip0_729_908">
<rect width="150" height="138.557" fill="white" transform="translate(0.160156 0.471191)"/>
</clipPath>
</defs>
</svg>
