<svg width="151" height="180" viewBox="0 0 151 180" fill="none" xmlns="http://www.w3.org/2000/svg">
<g clip-path="url(#clip0_729_993)">
<path d="M0.160156 176.359C24.6244 170.103 13.1042 144.323 27.7741 130.688L30.1472 142.726C44.6661 140.569 44.6661 140.569 56.4668 106.051L70.8778 104.024C68.4185 95.3942 66.3906 88.1024 63.9959 79.5378C73.2509 71.9224 84.2534 65.062 92.3865 55.807C105.331 40.9861 116.462 24.6118 128.091 8.69065C132.794 2.21862 137.755 -2.85113 145.608 3.25414C151.26 7.56883 151.951 19.5852 145.953 24.1588C121.338 42.8414 108.027 69.8944 91.4157 94.6823C72.2585 123.159 51.3755 150.773 24.3224 172.606C17.4189 178.15 10.9469 183.198 0.160156 176.359Z" fill="black"/>
</g>
<defs>
<clipPath id="clip0_729_993">
<rect width="150" height="179.189" fill="white" transform="translate(0.160156 0.471191)"/>
</clipPath>
</defs>
</svg>
