<svg width="151" height="128" viewBox="0 0 151 128" fill="none" xmlns="http://www.w3.org/2000/svg">
<g clip-path="url(#clip0_729_937)">
<path d="M101.582 81.4838C105.605 90.1126 114.589 94.22 120.862 92.5908C128.885 90.4681 137.312 90.4681 145.156 94.0608C149.651 96.0986 151.232 100.37 149.433 104.844C148.319 107.614 147.31 110.496 145.761 112.99C144.763 114.582 142.932 115.808 141.229 116.747C138.682 118.159 136.012 119.591 133.216 120.281C126.396 121.958 119.721 120.812 114.111 116.742C109.42 113.351 107.584 108.023 108.311 102.265C108.73 98.9854 108.385 96.4276 105.658 94.3049C104.153 93.0713 102.768 91.6997 101.518 90.2081C99.7036 88.1597 98.0001 86.0158 95.8721 83.4632L100.494 81.3405C99.8787 80.656 99.4648 79.8069 98.8068 79.5309C93.447 77.2862 88.119 74.93 82.6318 73.0302C75.7013 70.6263 70.3786 66.2588 66.2659 60.3896C64.6739 58.1395 62.8431 57.5133 60.2428 56.9296C54.0976 55.5551 47.9471 56.521 41.8284 56.0115C38.5117 55.7303 36.6013 56.9773 37.0524 59.9969C37.7876 64.6601 39.0333 69.2283 40.7671 73.6193C41.1173 74.5638 43.8291 74.9619 45.4688 75.0149C49.1358 75.1317 52.808 74.877 56.4803 74.7602C59.8182 74.6541 60.7894 76.1187 59.5157 79.2762C58.1579 82.5006 55.9921 85.3207 53.2273 87.4645C52.426 88.1172 51.6671 88.8336 50.8976 89.5182C51.6193 91.4976 52.1925 93.3231 52.9407 95.0797C53.9278 97.3934 54.002 99.5532 52.1606 101.448C50.3192 103.342 47.7401 103.342 45.7448 102.345C42.1734 100.562 38.3684 98.6882 35.662 95.8916C31.9473 92.0548 27.9938 89.9587 22.6817 90.3301C20.6015 90.4734 18.5 90.3567 16.1863 90.3567C15.3213 92.7341 16.5525 94.7029 17.3219 96.8097C18.3215 99.4267 19.1198 102.116 19.71 104.855C20.2035 107.344 18.1763 109.461 15.0772 108.527C6.27334 105.911 0.690656 98.1151 0.191824 88.8071C-0.137193 82.9697 2.27206 79.9767 7.12241 77.8487C9.6647 76.639 12.1443 75.3018 14.5518 73.8421C16.5843 72.6959 17.1044 71.2578 15.8254 69.0342C14.6049 66.9115 13.8407 64.5554 12.8696 62.3C11.8985 60.0446 11.0865 57.853 12.3867 55.2739C12.8855 54.2815 12.063 52.6736 12.0205 51.3416C11.9356 48.6086 11.4315 45.7324 12.1001 43.1745C12.932 40.1135 14.3267 37.2342 16.2128 34.6838C20.5803 28.7986 24.7726 22.5685 30.1536 17.7022C33.9108 14.3112 39.4775 12.9262 44.296 10.7292C50.0432 8.16075 55.5675 5.05101 61.856 3.68187C67.0619 2.54623 72.1882 1.46366 77.5109 2.6842C80.2827 3.31397 83.187 2.96522 85.731 1.69715C90.9634 -0.728023 101.12 0.232495 105.684 6.51036C106.564 7.77384 107.302 9.12983 107.887 10.5541C109.144 13.4675 109.829 16.4339 113.506 17.8827C115.709 18.7477 117.524 21.3002 118.845 23.4972C120.166 25.6942 121.647 26.9466 124.035 27.5409C126.763 28.2202 129.395 29.3028 132.138 29.8865C136.06 30.7197 139.355 32.6407 142.455 35.0393C143.994 36.228 144.577 37.5123 144.147 39.5978C142.757 46.0508 140.136 51.9996 133.89 54.5681C127.039 57.386 119.837 57.7097 113.692 52.0686C111.453 50.0096 108.969 48.1735 105.774 48.3539C104.287 48.4132 102.868 48.9915 101.763 49.9884C100.738 51.0497 100.452 52.7107 101.662 54.3346C103.652 56.988 105.116 60.0765 107.276 62.5813C110.762 66.5404 113.142 71.3491 114.175 76.522C114.828 79.7591 112.716 82.6407 109.473 82.5027C107.064 82.386 104.66 81.8924 101.582 81.4838ZM109.877 41.1527C106.337 37.2894 111.092 36.5464 111.193 34.3335C110.991 30.5551 110.784 26.7821 110.513 21.8043C109.028 25.3599 106.799 24.5904 104.931 24.1605C103.45 27.4454 102.081 30.4384 100.754 33.4473C98.7696 37.9209 101.067 41.5135 105.854 41.4074C107.043 41.3968 108.226 41.2694 109.877 41.158V41.1527ZM128.004 104.918C129.596 108.155 129.596 108.15 133.109 108.633C135.614 105.513 134.781 102.079 134.335 97.8286L128.004 104.918Z" fill="black"/>
<path d="M44.5879 114.837C50.7915 109.954 57.6902 110.013 64.5306 109.774C71.7212 109.525 78.9118 108.755 86.0122 110.867C87.8961 111.43 89.8755 111.35 90.5707 113.712C91.2659 116.073 90.9581 118.557 89.0795 120.08C85.1684 123.211 81.6501 127.244 75.9772 127.222C74.2631 127.297 72.5458 127.219 70.8456 126.989C66.6957 126.209 62.5989 125.148 58.4491 124.336C52.4578 123.163 47.7242 120.276 44.5879 114.837Z" fill="black"/>
<path d="M65.082 72.7543C69.0409 69.0395 69.0408 69.0395 72.7927 71.0879C73.0156 73.2796 69.6511 75.4288 72.7131 77.6311C67.1888 80.4172 66.4936 79.9608 65.082 72.7543Z" fill="black"/>
</g>
<defs>
<clipPath id="clip0_729_937">
<rect width="150" height="126.735" fill="white" transform="translate(0.160156 0.471191)"/>
</clipPath>
</defs>
</svg>
