<svg width="151" height="212" viewBox="0 0 151 212" fill="none" xmlns="http://www.w3.org/2000/svg">
<g clip-path="url(#clip0_729_929)">
<path d="M86.0375 165.965C82.0975 164.683 78.3183 163.457 74.5448 162.219C74.3727 162.164 74.2395 162.008 74.0675 161.942C67.4082 159.417 61.8311 155.976 57.1807 149.916C52.5303 143.856 45.5658 139.273 39.3339 134.422C37.1141 132.686 33.7567 132.419 31.3428 130.838C24.1563 126.137 16.7368 121.637 10.2551 116.054C5.59359 112.031 1.93099 106.898 0.565843 100.155C-0.349807 95.5656 0.432657 91.5645 1.32056 87.0418C4.01756 85.4491 7.22511 83.9674 9.91101 81.8309C11.9587 80.1994 14.0398 77.9852 14.9055 75.5934C17.1863 69.1672 23.951 65.8542 30.3272 68.7344C35.0941 70.882 39.8944 72.5135 45.2662 71.6755C48.0409 71.2482 49.7945 70.2105 49.5947 67.1084C49.4843 66.5501 49.5383 65.9718 49.7501 65.4436C55.133 57.1195 48.0853 51.8309 44.8056 45.7044C44.1341 44.4336 42.1974 43.8342 40.4937 42.6911C41.0486 40.832 44.4338 39.6223 42.9354 36.9474C41.832 35.0991 40.5455 33.3663 39.0953 31.7754C37.769 30.2493 36.0597 29.0451 34.7945 27.4746C33.6236 26.0096 32.8189 24.2449 31.8034 22.5357C34.9887 20.4824 37.2362 21.9807 38.9621 23.3403C45.0331 28.0573 51.6813 28.135 58.9399 27.2693C69.6169 25.9874 80.2273 26.6145 90.2828 31.1816C91.7621 31.9232 93.4011 32.2891 95.0553 32.2471C99.2839 31.8531 102.536 33.6123 105.494 36.2649C108.51 39.0086 110.52 42.6835 111.204 46.7033C111.498 48.2127 112.086 49.933 113.13 50.9763C116.082 53.9175 116.742 57.1417 115.671 61.0817C115.164 62.8617 115.082 64.7361 115.433 66.5534C117.197 74.206 113.54 80.3492 109.628 86.0706C107.303 89.4669 106.554 92.0362 108.735 95.5323C112.336 101.298 115.766 107.186 119.278 112.996C120.039 114.256 120.943 115.449 121.559 116.764C123.84 121.454 122.747 124.977 118.141 127.308C112.769 130.022 107.525 130.305 101.787 127.541C94.1341 123.856 88.1574 118.385 82.4693 112.319C75.4604 104.844 67.103 99.8387 56.6036 98.9452C53.8802 98.6239 51.1836 98.1065 48.5348 97.3969C43.1907 96.1483 37.8855 94.7221 32.5248 93.5124C29.4948 92.8353 27.6635 95.1772 26.0597 97.0529C25.3028 97.8933 24.8658 98.9733 24.8252 100.104C24.7847 101.234 25.1431 102.342 25.8378 103.235C29.2284 107.808 32.3416 112.669 36.2762 116.748C42.7967 123.496 49.9055 129.667 56.6868 136.171C58.296 137.686 59.7041 139.402 60.8766 141.276C64.8278 147.758 70.6657 150.538 78.0797 150.421C81.0153 150.377 83.951 149.733 85.8489 153.068C88.557 157.813 88.8289 160.016 86.0375 165.965ZM70.638 65.0551C70.1219 68.7565 69.5892 72.1528 69.1951 75.5657C69.0554 76.477 69.2008 77.4093 69.6114 78.2349C70.2273 79.2393 71.1874 80.5823 72.1252 80.6933C73.335 80.832 75.2273 80.266 75.8489 79.3448C77.5414 76.8365 79.2784 74.1173 79.9665 71.2371C80.982 66.9918 81.143 62.5468 84.2451 59.0285C84.4726 58.7732 84.7168 58.2516 84.6058 58.024C82.9743 54.6611 84.8222 51.3315 84.9277 47.7632L77.6247 46.1983C77.7745 49.3337 77.8966 51.9086 78.0187 54.5224C77.2751 56.4314 75.3272 58.9175 75.8877 60.5379C76.9476 63.5845 75.022 64.4502 73.8788 66.0373L70.638 65.0551Z" fill="black"/>
<path d="M120.139 146.676C126.72 146.676 132.225 146.57 137.719 146.731C139.886 146.755 142.031 147.161 144.057 147.93C149.856 150.299 150.716 151.936 149.883 157.874C149.737 158.96 149.326 159.993 148.685 160.882C143.818 167.175 137.075 169.156 129.145 166.87C126.838 166.254 124.498 165.768 122.136 165.416C120.864 165.244 119.646 164.787 118.575 164.078C117.505 163.368 116.609 162.426 115.954 161.32C113.446 157.336 113.585 153.363 116.798 149.927C118.035 148.601 119.395 147.391 120.139 146.676Z" fill="black"/>
<path d="M4.43945 160.482C9.22858 156.792 26.92 151.476 32.1864 152.092C35.4605 152.48 38.657 153.201 41.2264 155.482C38.1575 160.771 33.3074 162.402 27.8579 162.83C20.9322 163.385 13.9844 164.977 7.06986 162.996C6.23571 162.71 5.45264 162.292 4.75022 161.759C4.52269 161.614 4.56709 161.093 4.43945 160.482Z" fill="black"/>
<path d="M35.6434 210.493L28.7844 211.809L20.7988 203.368C23.2517 200.149 26.5147 198.068 30.7156 198.401C32.4137 202.563 34.0119 206.453 35.6434 210.493Z" fill="black"/>
<path d="M13.2188 1.98623C15.3608 -0.366711 17.8247 0.34916 19.1899 1.91409C20.2998 3.1516 20.3997 5.60998 20.1832 7.46348C20.0722 8.40133 18.2631 9.82197 17.2532 9.79422C16.1433 9.76093 14.6449 8.51231 14.1399 7.41353C13.4407 5.8819 13.5184 4.01731 13.2188 1.98623Z" fill="black"/>
</g>
<defs>
<clipPath id="clip0_729_929">
<rect width="150" height="211.337" fill="white" transform="translate(0.160156 0.471191)"/>
</clipPath>
</defs>
</svg>
