<svg width="151" height="136" viewBox="0 0 151 136" fill="none" xmlns="http://www.w3.org/2000/svg">
<g clip-path="url(#clip0_729_967)">
<path d="M101.463 42.048L97.129 39.8983C94.9693 42.1376 95.462 44.153 96.8802 46.5267C100.861 44.4814 104.653 43.0433 106.793 38.5149C109.381 33.041 113.984 29.0898 119.831 26.9848C126.927 24.427 134.471 25.2829 138.771 31.9163C140.567 34.6931 141.428 38.3108 141.906 41.6649C142.871 48.4326 137.118 57.0018 131.047 60.0423C126.788 62.1771 122.702 63.8889 117.915 63.0579C116.303 62.7742 114.556 62.5304 113.192 61.7242C109.43 59.4998 106.226 61.0226 103.011 62.814C101.603 63.6053 101.115 64.7697 101.981 66.5612C105.599 74.0555 98.7812 84.5057 91.6153 84.0279C90.3115 83.9384 88.9679 84.426 87.6642 84.3365C77.8111 83.6448 69.3813 87.8198 60.9714 92.0497C60.0883 92.5052 59.2326 93.012 58.4086 93.5675C55.6219 95.4137 52.9347 95.5281 50.3669 93.3137C49.2921 87.9244 53.3527 84.8092 55.7363 80.9974C57.2292 78.6336 57.3536 78.7133 56.1991 75.822C57.8761 74.4984 59.6377 73.2692 61.2053 71.841C64.5842 68.7458 68.7145 67.0439 72.8498 65.3719C74.477 64.715 76.0744 63.9785 75.95 62.0129C75.8156 59.8482 74.0739 59.0968 72.163 58.7235C70.3815 58.3802 68.5353 58.2259 66.8434 57.5939C62.4444 56.0015 60.9465 52.5281 63.36 48.6366C67.2415 42.3516 71.1031 35.972 75.736 30.2493C80.2445 24.6709 86.8481 22.6505 93.9592 23.3372C98.3283 23.7552 99.8959 25.9597 99.871 30.3488C99.873 31.5024 99.7949 32.6547 99.6371 33.7974C99.0648 37.6888 99.0449 37.6838 101.463 42.048ZM88.9729 56.2055C88.6594 55.0809 89.8836 53.0904 87.3457 53.175C86.9177 54.648 86.5694 56.0314 88.9729 56.2055ZM90.7893 28.836C90.1423 29.6223 89.7641 29.896 89.794 30.0652C89.9551 30.5088 90.1689 30.9315 90.431 31.3241C90.5205 30.7121 90.6101 30.0851 90.7893 28.836Z" fill="black"/>
<path d="M114.206 135.274V131.293L103.478 127.048C103.293 125.555 103.378 124.48 103.01 123.604C101.427 119.812 102.965 117.06 105.498 114.324C107.673 111.98 107.16 109.845 104.284 108.506C102.494 107.669 100.618 107.029 98.6904 106.595C96.1028 106.003 94.4158 104.605 92.9627 102.366C91.4101 99.947 91.2409 97.8869 92.6691 95.4734C94.6596 92.0746 96.5705 88.6061 98.566 85.1973C98.9031 84.6338 99.3773 84.1648 99.9445 83.8339C105.632 80.5694 111.39 77.3647 117.033 74.0803C118.276 73.2781 119.403 72.3086 120.382 71.1991C126.025 65.2773 133.077 63.8889 140.785 65.0832C147.03 66.0486 150.897 71.0548 150.095 77.6334C149.364 83.6497 148.513 89.7755 143.223 94.0949C141.506 95.5032 140.332 97.6331 139.098 99.5688C136.709 103.296 137.107 107.377 137.695 111.512C138.64 118.016 135.993 122.992 130.917 126.938C127.931 129.252 125.05 131.706 122.144 134.119C119.74 136.065 117.182 136.587 114.206 135.274ZM111.315 97.1553C113.306 95.9461 114.226 94.8563 112.599 93.4082C111.056 92.0447 109.394 90.3578 106.961 93.1494L111.315 97.1553Z" fill="black"/>
<path d="M64.1894 96.0408C66.8468 100.201 63.433 102.59 61.8506 105.302C62.7065 107.292 64.2541 107.138 65.6773 106.745C67.419 106.247 69.2702 105.749 70.7382 104.779C75.3164 101.699 80.427 101.793 85.5476 101.977C89.464 102.127 91.1957 103.704 92.0715 107.407C93.8928 115.115 89.245 121.937 81.4521 122.743C72.7785 123.634 64.0999 124.475 55.4013 125.072C52.3509 125.276 49.2457 124.694 46.0857 124.465C45.3094 120.927 44.6575 117.946 43.9011 114.483L36.591 114.806C35.3917 109.726 36.3471 107.665 40.3132 106.048C41.6691 105.471 42.9784 104.791 44.2296 104.013C48.737 101.303 53.6804 99.3951 58.8399 98.3746C60.5518 98.0313 62.1193 96.9713 64.1894 96.0408Z" fill="black"/>
<path d="M46.6539 80.3305C46.3105 81.6392 45.9273 83.9432 45.0963 86.0681C43.2302 90.8204 40.0354 92.6169 34.9895 92.0048C34.1787 91.8446 33.3765 91.6436 32.5859 91.4027C27.3608 90.2382 26.8632 90.5716 25.2409 95.7718C23.748 100.489 20.6229 103.41 15.6218 103.769C12.156 103.981 8.67997 103.964 5.21637 103.719C3.99718 103.644 2.72823 102.903 1.64838 102.226C-0.158009 101.111 -0.342132 99.3548 1.20549 98.0958C6.53011 93.7465 11.4716 88.6707 18.5478 87.148C21.0658 86.6006 22.5288 85.1574 23.7978 83.0475C27.0324 77.6582 32.0087 74.5878 37.9404 72.9904C43.0461 71.6319 46.6887 74.339 46.6539 80.3305Z" fill="black"/>
<path d="M25.3398 69.6414C22.4138 70.8059 19.5673 72.0002 16.6761 73.0751C12.8593 74.4933 8.97781 74.8018 5.12617 73.2094C1.64278 71.7763 0.78188 69.2632 3.3994 66.7403C7.53967 62.7592 12.1875 59.236 18.1342 58.3453C22.5631 57.6834 24.1057 59.1066 24.4789 63.5206C24.6581 65.5808 25.0412 67.6509 25.3398 69.6414Z" fill="black"/>
<path d="M64.6622 17.8484C62.6717 17.6842 60.6812 17.6045 58.7404 17.3507C55.1824 16.8879 54.0478 14.3053 56.2025 11.3195C57.3521 9.72211 58.6907 8.06501 60.298 7.03492C63.7274 4.76406 67.3432 2.78804 71.1065 1.12807C75.7543 -0.822628 78.5709 1.7302 77.8294 6.60198C76.7944 13.733 70.6288 17.5597 64.6622 17.8484Z" fill="black"/>
<path d="M50.3667 56.121C49.8691 56.0066 49.2272 55.8175 48.5803 55.713C46.5151 55.3796 44.221 55.713 43.2208 53.0507C42.1708 50.2639 43.4945 48.1241 45.1018 46.273C48.1678 42.7549 52.3391 40.3842 56.9305 39.55C60.6776 38.8185 62.5686 40.9185 61.852 44.7303C61.5648 46.1882 61.1673 47.6222 60.6627 49.0199C58.9608 53.8071 55.4376 56.2454 50.3667 56.121Z" fill="black"/>
<path d="M32.5552 20.3115C34.5059 23.8497 33.5505 26.9051 31.56 29.3932C27.9771 33.8719 24.001 38.0221 20.1145 42.4211C18.2982 38.0072 16.5515 33.7574 14.6406 29.0947C20.4131 25.1385 25.5835 20.9684 32.5552 20.3115Z" fill="black"/>
</g>
<defs>
<clipPath id="clip0_729_967">
<rect width="150" height="135.524" fill="white" transform="translate(0.160156 0.471191)"/>
</clipPath>
</defs>
</svg>
