<svg width="151" height="118" viewBox="0 0 151 118" fill="none" xmlns="http://www.w3.org/2000/svg">
<g clip-path="url(#clip0_729_1298)">
<path d="M94.0797 71.8372C96.7592 76.2156 97.1241 80.5883 96.9986 85.1662C96.7934 92.4351 93.5096 98.558 89.9521 104.51C89.2167 105.736 86.7938 106.545 85.1633 106.528C80.6937 106.488 77.3243 103.968 74.7475 100.479C68.8868 92.5434 62.9634 84.6018 59.3262 75.3433C57.7527 71.3526 55.2328 69.3459 51.0996 68.6047C41.7727 66.9343 32.5199 64.8477 23.1645 63.2913C20.3581 62.9367 17.5088 63.1558 14.7897 63.9356C10.7476 64.9846 9.92097 67.6298 11.9847 71.2557C15.1716 76.8427 23.3184 80.3203 29.6124 78.7412C31.0661 78.3763 32.4629 77.886 34.0478 77.4185C39.1502 81.7342 39.2186 87.8799 39.6918 93.5924C40.3303 101.312 40.1821 109.099 40.336 116.853C40.336 117.121 39.9369 117.423 39.5892 117.839C35.5984 114.988 34.1219 110.884 33.6373 106.289C33.1983 102.138 32.9304 97.9651 32.4971 93.8147C32.3318 92.207 31.927 90.6278 31.4595 88.1935C27.4688 91.4659 23.8258 91.1808 20.0232 89.6814C14.4134 87.4694 8.41589 86.124 4.6019 80.7137C0.913328 75.4802 -0.791282 69.8817 0.696689 63.5707C1.39222 60.6176 3.28496 59.0099 6.28371 57.8241C19.8351 52.4366 33.1413 55.3726 46.5102 58.36C48.4486 58.7932 50.4268 59.0555 53.2603 59.5515C52.4507 54.4604 51.6013 50.2531 51.1338 46.0058C50.1019 36.6561 49.9936 27.409 55.9055 19.0912C56.408 19.043 56.9139 19.043 57.4163 19.0912C57.7167 19.1277 58.006 19.2268 58.2658 19.382C62.2565 16.7196 65.8425 14.4449 69.2859 11.9706C70.7339 10.9216 71.8627 9.43365 73.117 8.12241C74.9071 6.24677 76.6288 4.30271 78.4588 2.46128C81.4291 -0.526068 84.4906 0.180861 88.0651 2.46128C85.7391 5.72797 81.4576 7.77464 82.1018 12.3355C82.4382 14.7185 82.6263 17.5519 84.0174 19.2565C85.9329 21.6168 88.9203 23.099 92.4093 25.6588C92.2497 20.2086 92.8597 16.3832 95.7444 12.9797C96.8678 11.5752 98.2583 10.4071 99.8357 9.54309C101.413 8.67905 103.146 8.13613 104.934 7.94567C115.168 6.83967 124.056 10.2261 131.53 17.1129C136.769 21.9417 135.823 31.3313 129.854 35.3563C127.374 37.021 124.666 38.355 121.108 40.3789C125.726 43.4517 129.626 46.2852 133.765 48.7138C137.51 50.9144 141.529 52.6418 145.395 54.6372C148.462 56.2221 150.583 60.3382 150.092 63.5251C149.756 65.7485 146.033 68.7928 142.618 68.7244C136.763 68.599 130.806 68.4451 125.088 67.3163C114.826 65.2924 105.094 65.8682 95.7045 70.6058C95.1302 70.9712 94.5868 71.383 94.0797 71.8372ZM73.2709 28.6062C64.4628 30.9836 64.6281 31.0007 63.5791 39.3698C62.7981 45.5326 63.8186 51.4389 65.3408 57.311C67.0169 63.7588 67.9974 64.5684 74.5707 65.2069C76.2646 65.3159 77.9654 65.2279 79.639 64.9446C86.9497 63.8939 94.0309 61.6176 100.585 58.2117C106.819 54.9361 113.844 53.4652 120.869 53.9645C122.653 54.0899 124.461 53.9645 126.256 53.9645L126.593 52.7444C123.275 50.8004 119.791 49.0787 116.667 46.8553C113.309 44.4608 109.746 43.5202 105.681 42.9729C93.5666 41.3652 81.6856 38.8966 73.2709 28.6062ZM127.716 26.0066C126.576 24.2563 125.943 22.8881 124.962 21.8562C120.401 17.0844 114.603 15.015 108.156 14.9237C105.512 14.8966 102.886 15.3546 100.408 16.2749C97.5573 17.3695 97.164 19.6043 98.6462 22.2382C101.799 27.8366 106.2 30.5959 112.95 30.3793C118.07 30.2139 122.494 28.8058 127.716 26.0066ZM73.1683 72.8748C72.8832 74.1005 72.6552 74.4939 72.735 74.8188C74.4453 81.9394 79.6162 86.8309 84.2796 91.9619C85.9044 93.7463 87.7458 92.7714 88.9773 90.9243C90.1321 89.1802 90.9206 87.2197 91.295 85.1617C91.6693 83.1037 91.6217 80.9911 91.1551 78.9521C90.9425 78.2621 90.5753 77.6296 90.0813 77.103C89.5873 76.5764 88.9796 76.1696 88.3045 75.9134C83.396 74.7333 78.4132 73.9181 73.1683 72.8748ZM68.6702 25.7272C69.4968 24.8207 70.5002 24.2164 70.523 23.5722C70.5458 22.928 69.5652 22.2838 69.0293 21.6396C68.3221 22.345 67.6933 23.1249 67.1537 23.9656C67.0454 24.1936 67.9518 24.9348 68.6702 25.75V25.7272Z" fill="black"/>
</g>
<defs>
<clipPath id="clip0_729_1298">
<rect width="150" height="117.367" fill="white" transform="translate(0.160156 0.47168)"/>
</clipPath>
</defs>
</svg>
