<svg width="151" height="324" viewBox="0 0 151 324" fill="none" xmlns="http://www.w3.org/2000/svg">
<g clip-path="url(#clip0_729_1342)">
<path d="M24.9569 320.607C19.0035 320.167 14.3682 326.595 7.88055 320.409C-1.5106 302.16 -0.683492 281.181 1.84954 260.434C3.61186 245.927 6.7212 231.614 11.1373 217.683C18.9604 193.068 28.8254 169.263 47.737 150.48C50.5715 147.672 52.9064 144.329 55.3619 141.175C55.853 140.546 55.9908 139.642 56.6026 138.065C54.6468 136.695 52.6479 135.248 50.5715 133.869C40.0862 126.83 35.2528 111.666 41.3268 100.5C46.3843 91.2558 47.5474 82.2093 46.6858 71.7756C45.5486 57.8181 46.9443 43.7572 52.4325 30.4804C57.2487 18.8319 64.1241 8.88933 75.5055 2.82385C78.0522 1.55514 80.8194 0.788741 83.656 0.566528C92.2717 -0.295046 96.5796 4.46084 93.3831 12.4304C89.7128 21.5975 87.4814 31.385 80.6749 39.3804C74.8421 46.273 73.1189 55.3799 73.8771 64.4867C75.2125 80.4861 76.9874 96.4941 82.0448 111.787C83.8455 117.232 87.5847 122.238 90.6175 127.106C94.9254 133.998 104.808 132.835 110.218 126.486C116.534 119.076 122.522 111.322 129.397 104.464C134.747 99.1047 141.244 94.8916 147.757 89.7566C150.979 96.9077 151.014 103.886 147.576 109.831C141.605 120.17 136.195 130.888 127.312 139.435C119.928 146.543 113.63 154.797 106.927 162.603C104.256 165.713 103.308 169.004 106.229 172.674C110.33 177.844 114.259 183.108 118.291 188.347C120.126 190.759 122.642 192.982 120.824 197.255C109.624 193.645 97.019 194.938 87.6106 185.641C82.4857 187.219 77.8321 190.043 74.0667 193.861C65.7783 202.132 56.5767 209.472 47.9093 217.364C43.8168 221.095 39.3625 223.051 33.3573 221.397C26.5595 237.465 25.9133 254.352 23.0184 270.799C19.977 287.462 21.6054 303.746 24.9569 320.607ZM51.0799 178.335C58.5411 176.147 63.004 170.426 68.1735 165.687C69.0954 164.826 68.4837 162.336 68.587 160.604C67.1051 160.983 65.0374 160.871 64.2275 161.819C59.6784 167.186 55.4308 172.787 51.0799 178.335Z" fill="black"/>
</g>
<defs>
<clipPath id="clip0_729_1342">
<rect width="150" height="322.642" fill="white" transform="translate(0.160156 0.47168)"/>
</clipPath>
</defs>
</svg>
