<svg width="151" height="179" viewBox="0 0 151 179" fill="none" xmlns="http://www.w3.org/2000/svg">
<g clip-path="url(#clip0_729_1202)">
<path d="M29.4994 70.8378C37.5315 79.5907 35.2746 89.4505 38.0807 99.1559L90.4948 90.8149C88.0835 87.6055 86.7191 85.6662 85.2689 83.8727C82.7546 80.7062 80.1802 77.7028 77.7345 74.5621C74.8684 70.9236 74.3793 67.1994 76.0183 62.5483C78.5412 55.3315 78.1464 55.2457 71.1699 51.3927C63.4468 47.1021 55.6293 42.9574 48.0692 38.3664C42.5944 35.0455 41.5904 32.085 43.3324 26.2325C43.9635 24.416 45.037 22.7852 46.4559 21.4871C48.562 19.6761 50.771 17.9885 53.0721 16.4328C62.5543 26.6015 74.714 32.7114 87.0881 38.5037C90.4348 40.0741 93.095 40.1599 96.2185 37.0621C102.498 30.8433 107.991 23.8776 112.574 16.3212C116.007 10.6233 120.924 5.82637 125.318 0.47168C130.132 7.33667 130.114 14.133 128.424 21.264C126.39 29.8452 124.991 38.6324 122.735 47.1536C121.465 51.8561 122.735 54.7051 126.416 57.3738C129.197 59.3961 131.783 61.6744 134.139 64.1788C135.809 66.0222 137.843 67.4983 140.114 68.5132C142.384 69.5281 144.841 70.0597 147.328 70.0741C147.886 76.7074 151.791 82.7486 149.474 89.8796C146.942 97.6713 143.39 104.922 135.143 107.171C130.509 108.432 124.991 107.411 120.083 106.39C115.626 105.369 111.355 103.658 107.426 101.318C103.624 99.1473 100.509 99.3361 97.1281 101.747C95.738 102.743 94.2019 103.524 92.726 104.39C88.3484 106.993 83.3423 108.35 78.2494 108.312C69.2649 108.424 59.9714 109.17 51.4073 111.659C37.7717 115.658 37.9777 116.37 29.0961 125.758L18.4382 119.914C10.3976 132.563 11.1442 153.149 20.3003 178.206C14.7998 178.524 10.9554 175.992 9.01601 171.341C6.75056 165.875 5.21452 160.1 3.46395 154.428C3.13786 153.372 3.54976 152.094 3.21509 151.047C-3.99314 128.572 2.35697 108.484 14.4394 89.6565C18.627 83.0661 24.1876 77.3681 29.4994 70.8378ZM134.319 85.4259C132.843 75.6261 127.78 69.8853 118.985 66.0323C117.354 69.7909 115.483 73.232 114.436 76.9047C114.042 78.2949 115.08 81.1954 116.273 81.7531C121.705 84.5678 127.317 87.2966 134.319 85.4259ZM99.1962 53.9928C91.9794 60.9866 92.4599 64.4877 101.29 69.379C106.516 60.2743 106.216 58.026 99.1962 53.9928ZM17.6745 116.636C21.107 113.203 21.107 113.203 19.8799 107.197C18.8587 111.41 18.2494 114.036 17.6316 116.67L17.6745 116.636Z" fill="black"/>
</g>
<defs>
<clipPath id="clip0_729_1202">
<rect width="150" height="177.76" fill="white" transform="translate(0.160156 0.47168)"/>
</clipPath>
</defs>
</svg>
