<svg width="151" height="193" viewBox="0 0 151 193" fill="none" xmlns="http://www.w3.org/2000/svg">
<g clip-path="url(#clip0_729_1398)">
<path d="M84.0924 67.1637C83.4349 60.7792 82.9944 55.2034 82.3171 49.6539C81.561 43.4009 87.5773 40.4487 89.7405 34.531C87.6825 34.3009 86.1307 33.9195 84.5987 33.9918C77.9052 34.3206 75.183 32.3677 72.5661 26.3054C66.4051 12.0109 76.9518 -1.5011 92.2128 0.71474C103.458 2.26648 114.229 6.25399 123.774 12.3989C138.095 21.7225 144.814 35.9775 149.595 51.3109C152.56 60.8318 143.256 70.6486 133.577 68.7417C129.823 67.9987 126.18 66.1971 122.761 64.3692C118.343 62.0087 114.292 58.9644 109.88 56.5974C108.71 55.9398 106.79 56.7157 105.212 56.8341C105.514 58.3924 105.278 60.4964 106.211 61.4367C109.788 64.9413 113.806 68.0119 117.527 71.3587C120.269 73.8375 122.893 76.4676 125.385 79.1963C127.877 81.925 128.409 84.9496 126.792 88.303C125.562 90.8541 124.596 93.6026 122.985 95.8907C120.782 99.0205 116.679 99.3098 114.647 96.2392C109.808 88.9408 101.924 87.5665 94.5338 85.6597C88.6753 84.154 82.4486 83.5162 76.3534 85.0745C73.9272 85.6926 70.8828 85.6597 70.5344 89.7627C76.5375 93.4776 82.5472 91.1369 89.7471 88.132C88.4321 90.7621 88.1099 91.9522 87.3669 92.8267C82.9089 98.0343 77.0372 100.763 70.4357 101.973C64.8008 103.005 64.426 103.288 64.3274 109.061C64.0512 124.901 68.93 139.307 77.5896 152.273C82.4223 159.506 88.0638 166.147 95.1453 171.637C101.063 176.24 107.553 178.87 114.496 180.842C121.44 182.815 121.571 182.611 124.944 186.142C121.269 188.706 117.856 190.672 113.109 191.724C100.932 194.453 91.4106 188.877 81.5807 183.775C79.6997 182.671 78.0154 181.262 76.5967 179.606C60.9674 162.931 51.8871 143.239 49.9211 120.429C49.4937 115.439 49.8093 110.363 50.1775 105.352C50.3814 102.63 49.4017 101.217 47.0478 100.388C43.7602 99.2309 40.3937 98.2381 37.185 96.8967C30.761 94.2206 24.4028 91.3802 18.038 88.5594C12.4556 86.0871 9.52967 87.7572 9.32584 93.9511C9.22064 97.1926 9.84528 100.461 10.0623 103.722C10.1609 105.195 10.0623 106.674 10.0623 108.883C7.29411 104.82 5.04539 101.302 2.58626 97.9422C-0.425176 93.7275 -0.497503 89.2366 1.69204 84.943C5.35442 77.8287 6.67604 70.3198 7.85957 62.4493C9.99651 48.214 13.4485 34.1759 16.5586 20.0919C17.9459 13.806 20.576 8.25649 26.8685 5.12012C32.03 2.52949 36.1395 4.00891 38.3356 9.41373C43.4708 22.0513 41.6232 34.3272 36.1658 46.2348C33.3582 52.3629 29.6695 58.1096 26.1189 63.8695C22.7261 69.373 22.7918 70.4447 27.7758 74.8567C34.5549 80.8138 42.9448 83.4044 51.2493 86.1397C54.5764 87.2443 56.6015 85.6597 58.2716 82.9376C62.3217 76.0598 68.8734 71.0135 76.5572 68.8535C79.2005 68.0842 81.9358 67.6371 84.0924 67.1637Z" fill="black"/>
</g>
<defs>
<clipPath id="clip0_729_1398">
<rect width="150" height="191.923" fill="white" transform="translate(0.160156 0.47168)"/>
</clipPath>
</defs>
</svg>
