<svg width="151" height="141" viewBox="0 0 151 141" fill="none" xmlns="http://www.w3.org/2000/svg">
<g clip-path="url(#clip0_729_1430)">
<path d="M56.5058 134.118C55.1683 129.379 56.6304 125.849 60.7675 124.029C65.6737 121.863 70.8451 120.314 75.93 118.538C76.754 118.3 77.5935 118.119 78.4426 117.997C81.0744 113.036 80.2188 109.143 76.2766 105.309C70.4823 99.6718 65.0726 93.6393 59.5491 87.7205C56.1159 84.0328 55.4282 83.8541 51.5943 86.9083C41.6087 94.874 31.5581 102.737 21.8109 110.995C18.4318 113.86 15.8 117.656 13.0762 121.224C10.4282 124.695 10.5961 125.215 13.3957 128.665C14.1863 129.645 14.939 130.647 15.6863 131.616C12.2748 135.748 6.17187 136.955 2.5762 134.648C0.318078 133.24 -0.0772291 131.518 0.274756 129.179C1.35779 121.923 4.3253 115.89 9.33974 110.193C20.0455 98.0473 32.8795 88.6465 45.9625 79.4733C48.2856 77.8487 48.6322 76.4787 47.4896 74.161C45.0311 69.1628 42.7946 64.0509 40.1845 59.1285C39.0419 56.9624 37.2928 55.0942 35.6791 53.2097C32.6466 49.6682 29.2134 46.4299 26.4733 42.6718C22.4444 37.1104 24.3072 29.4751 30.1719 25.8848C32.0942 24.7097 34.0491 23.578 36.2477 22.2675C38.0672 27.5473 36.5239 33.2928 41.5112 36.5906L50.5221 32.6375C50.5221 35.161 50.5816 36.6772 50.5221 38.1827C50.2567 43.7278 51.486 48.4065 56.9119 51.2928C59.9119 52.9173 62.5058 55.235 65.4625 56.9408C68.939 58.9498 70.0112 58.7007 72.2856 55.5599C74.9228 51.9155 77.3 48.1249 79.8939 44.4372C81.0243 42.8248 82.2926 41.3137 83.6845 39.9209C86.1159 37.522 88.7044 35.2801 91.2062 32.9516C93.4535 30.8505 95.9065 29.2097 99.6971 28.7169C99.0473 36.152 95.7603 41.9895 91.7314 47.4426C87.7026 52.8956 83.4029 58.2025 78.7838 64.1321C83.9878 67.6086 89.1267 71.0202 95.4462 72.1086C98.6412 72.6502 101.885 72.9101 105.091 73.3974C107.771 73.809 109.661 72.7639 110.928 70.4841C114.787 63.5816 118.63 56.6682 122.457 49.744C122.903 48.9571 123.266 48.1259 123.54 47.2639C124.412 44.3614 123.773 43.1104 120.973 41.6592C118.434 40.3379 116.002 38.8054 113.425 37.5653C110.468 36.1465 109.271 33.7747 108.979 30.6827C108.437 24.9913 107.073 19.4083 109.342 13.6357C112.13 6.53644 117.183 2.70792 124.45 1.45702C126.93 1.02922 129.459 0.915502 131.961 0.596007C135.719 0.114058 136.834 0.920917 137.094 4.80359C137.203 6.40106 136.899 8.0202 136.78 9.63391C136.407 14.7512 137.381 19.2512 141.887 22.522C143.907 23.9895 145.618 25.9173 147.334 27.7639C150.118 30.7693 150.903 34.0401 149.457 38.1664C147.73 43.0942 145.174 47.5238 142.856 52.1375C140.321 57.2338 138.685 62.7298 138.02 68.383C137.533 72.6285 137.316 77.8758 143.213 80.0689C145.694 80.9949 145.964 83.578 143.852 85.2296C139.814 88.4907 135.553 91.4654 131.1 94.1321C128.565 95.5942 125.62 94.078 123.556 92.3776C120.822 90.1195 118.401 91.2946 116.073 92.4751C111.199 94.9769 110.614 97.522 113.403 102.347C115.748 106.408 114.952 109.045 110.538 109.82C106.358 110.551 102.296 112.381 97.791 111.271C95.4137 110.686 93.6159 112.728 93.2585 115.468C92.9498 117.845 94.3794 118.636 96.3397 119.074C97.5791 119.298 98.789 119.661 99.9462 120.157C102.654 121.468 103.055 124.235 100.704 126.195C99.4337 127.211 98.017 128.029 96.5022 128.621C93.7296 129.753 93.1935 131.686 94.0762 134.286C94.3632 135.141 94.7802 135.948 95.0455 136.809C95.717 139.002 94.8668 140.378 92.6141 140.654C89.0184 141.092 85.921 140.177 83.4462 137.286C81.141 134.537 77.9675 132.658 74.4498 131.957C70.932 131.256 67.2804 131.775 64.0979 133.43C61.7369 134.638 59.4625 135.309 56.5058 134.118ZM77.1322 82.2404L76.3199 82.939C80.717 86.7296 83.2134 92.2747 88.6773 95.3938L96.069 90.2657L77.1322 82.2404Z" fill="black"/>
</g>
<defs>
<clipPath id="clip0_729_1430">
<rect width="150" height="140.274" fill="white" transform="translate(0.160156 0.47168)"/>
</clipPath>
</defs>
</svg>
