<svg width="151" height="170" viewBox="0 0 151 170" fill="none" xmlns="http://www.w3.org/2000/svg">
<g clip-path="url(#clip0_729_1186)">
<path d="M116.315 0.471898C118.036 6.81308 117.822 12.3373 123.414 16.461C127.47 19.4663 126.468 26.0117 124.474 31.108C121.557 38.6843 119.193 46.3579 120.808 52.6213C116.918 57.9996 113.261 61.637 111.403 66.0428C107.92 74.3804 105.022 82.9499 102.728 91.6896C101.045 98.0113 103.136 99.8592 110.032 100.919C114.321 95.3367 117.637 89.2484 122.607 85.0955C126.964 81.4873 133.189 80.1451 137.653 78.2C142 83.6756 145.336 87.9257 148.692 92.1175C150.87 94.8602 150.637 97.0873 148.05 99.6938C145.171 102.691 142.612 105.98 140.415 109.507C136.34 115.887 132.839 117.288 125.826 114.195C122.909 112.901 120.312 110.859 117.608 109.099C112.045 105.451 108.301 105.947 104.352 111.229C103.094 113.095 102.031 115.087 101.181 117.171C97.2911 125.516 95.5112 126.449 86.3593 124.796C83.7237 131.089 83.7237 131.089 97.5342 138.412C94.6165 140.785 91.8738 142.857 89.3159 145.123C87.1665 146.958 85.1634 148.958 83.3249 151.104C79.4346 155.86 74.9608 159.371 68.3375 157.62C63.6984 156.385 59.2343 149.344 59.351 142.701C59.6114 137.532 60.2125 132.386 61.1502 127.295C61.9283 122.219 62.9884 117.19 62.5216 110.995C59.4385 113.913 56.122 116.578 53.321 119.748C47.1452 126.702 41.2222 133.89 35.2117 140.989C31.5159 145.356 31.9633 148.031 36.972 151.133C39.3549 152.602 41.8349 153.925 44.2955 155.345C37.6918 156.969 31.6034 157.941 25.9236 160.032C21.5665 161.647 17.5498 164.419 13.6984 167.122C10.5083 169.369 7.60033 170.935 4.09907 168.095C0.597802 165.255 -1.00694 161.802 0.928477 157.815C3.20494 152.846 6.03698 148.151 9.37042 143.82C21.5665 128.793 33.6848 113.67 46.7075 99.3729C55.4315 89.9487 65.5949 81.7985 75.3206 73.3079C81.8563 67.6281 82.5371 66.3929 78.9386 58.4373C75.7583 51.3278 73.2782 44.2863 72.6655 36.3015C72.0528 28.3167 73.6381 22.1992 79.5513 16.3832C89.7244 6.46295 100.86 -0.0241147 116.315 0.471898Z" fill="black"/>
</g>
<defs>
<clipPath id="clip0_729_1186">
<rect width="150" height="169.189" fill="white" transform="translate(0.160156 0.47168)"/>
</clipPath>
</defs>
</svg>
