<svg width="151" height="150" viewBox="0 0 151 150" fill="none" xmlns="http://www.w3.org/2000/svg">
<g clip-path="url(#clip0_729_1222)">
<path d="M143.682 72.0677C140.689 67.6663 137.946 62.8028 134.476 58.5701C126.473 48.7916 118.609 38.8151 109.755 29.8142C101.803 21.745 91.9511 15.759 80.3241 14.9228C73.6633 14.4386 66.3863 14.8201 60.2463 17.1235C54.6419 19.2435 49.0301 23.843 48.1938 30.7678C47.3387 37.7594 47.1569 44.8169 47.6509 51.8433C48.0764 57.6898 51.3628 58.8342 57.0333 56.9562C62.9961 54.8881 69.0818 53.1927 75.2551 51.8799C85.3784 49.9066 90.6234 53.6552 94.0931 63.397C97.5629 73.1387 95.9784 82.0443 91.555 90.8251C90.9388 92.0501 89.7358 93.4732 88.518 93.818C79.9646 96.2535 72.0714 101.381 61.8308 99.958C62.1477 101.917 62.5738 103.857 63.1072 105.768C67.0685 117.241 64.9558 127.863 58.8012 137.957C57.7815 139.622 56.8719 141.368 55.6982 142.916C52.8226 146.716 49.4922 149.833 44.2252 149.628C30.3314 149.1 17.2299 146.026 5.70552 137.803C2.59519 135.587 0.321133 132.822 0.159748 128.846C-0.0823299 122.244 4.39244 117.013 11.2953 116.889C15.3813 116.815 20.0981 116.331 22.6656 121.518C23.7293 123.638 26.5829 125.119 28.9303 126.271C33.0596 128.374 37.3649 130.112 41.7971 131.465C44.1812 132.154 47.5556 132.338 49.4262 131.12C52.1184 129.367 51.4142 125.875 50.2551 123.051C48.0544 117.644 45.3475 112.407 43.4916 106.912C41.4535 100.958 39.8838 94.8529 38.7968 88.6537C37.9429 82.8947 36.4444 77.2499 34.3294 71.8256C27.1477 54.022 27.9253 36.4163 38.2026 19.8817C40.0418 16.99 42.4412 14.4958 45.2595 12.546C53.8129 6.64079 62.3737 0.999655 73.5166 0.530172C93.7924 -0.320767 110.063 7.86585 123.847 21.7376C132.972 30.8999 141.452 40.7444 146.404 52.9876C147.416 55.4744 148.773 57.8879 149.338 60.4774C150.732 66.9401 151.201 69.2288 143.682 72.0677ZM82.3194 81.8975C82.1873 75.6109 80.4341 70.4172 75.0717 67.5636C68.9758 64.2919 64.2443 68.6933 59.1093 70.894C63.1366 79.4548 71.3965 83.4307 82.3194 81.8975Z" fill="black"/>
</g>
<defs>
<clipPath id="clip0_729_1222">
<rect width="150" height="149.178" fill="white" transform="translate(0.160156 0.47168)"/>
</clipPath>
</defs>
</svg>
