<svg width="151" height="142" viewBox="0 0 151 142" fill="none" xmlns="http://www.w3.org/2000/svg">
<g clip-path="url(#clip0_729_1326)">
<path d="M29.0878 118.645C31.5497 124.701 31.322 130.628 29.9679 136.451C29.6417 137.86 27.5491 139.22 25.9673 139.916C18.4645 143.215 9.96464 139.916 6.16094 132.53C1.84639 124.184 -0.794045 115.518 0.486165 105.96C1.37862 99.2631 3.56359 93.3544 9.20144 89.0337C12.5681 86.461 15.5902 83.4389 18.7415 80.5954C21.8928 77.7518 25.7765 76.804 30.011 77.0256C31.3589 77.0933 32.7376 76.6932 34.7626 76.4101C33.9686 74.9391 33.5993 73.8312 32.9161 73.0064C28.1892 67.4671 26.0165 60.5121 25.5734 53.791C25.0502 45.8266 25.2225 37.7083 27.1552 29.5716C30.6942 14.6276 41.4283 7.18026 54.058 1.61011C57.5417 0.0775514 62.1394 0.379139 66.1277 0.809979C80.5978 2.26868 93.8246 6.11546 105.168 16.5172C113.44 24.1123 117.188 33.8 122.309 43.02C125.731 49.0485 129.555 54.8391 133.757 60.3521C136.742 64.3466 140.368 64.2973 143.451 60.2782C145.445 57.6808 146.43 54.308 148.203 50.5597C148.923 51.9076 150.271 53.237 150.154 54.4126C149.372 62.0508 149.28 69.7998 144.442 76.5701C139.709 83.1435 128.495 84.1036 123.079 77.9796C116.253 70.2675 109.987 62.18 106.707 52.2338C102.294 38.8162 92.1628 30.1748 81.2933 22.4074C73.4028 16.7634 63.8812 15.3662 54.4089 14.8492C49.1218 14.5599 44.7088 17.4096 42.0561 21.7365C35.8581 31.8612 35.0518 42.6815 40.3327 53.4032C43.4101 59.6566 49.6881 62.1123 56.1138 62.4693C61.3023 62.7648 66.577 61.3676 71.8209 60.5675C74.0182 60.2351 76.1724 59.0165 78.3205 59.0595C83.0105 59.1703 86.9373 60.8568 89.5162 65.3129C95.4679 75.5853 98.133 86.7379 96.9697 98.3521C96.2065 105.929 91.5719 112.385 82.3088 111.511C77.2183 111.118 72.1941 110.11 67.3464 108.508C58.8773 105.529 50.7283 101.596 42.3453 98.4322C36.4305 96.2041 30.3926 94.056 24.2193 92.8189C15.2024 91.0094 9.37378 97.4228 11.7065 106.36C13.0975 111.671 14.8516 116.983 18.8707 121.131C22.8898 125.28 24.4901 125.132 27.7583 120.356C28.0907 119.876 28.4723 119.414 29.0878 118.645ZM51.4053 79.9122C51.2268 80.3615 51.0483 80.8108 50.876 81.2601C53.3995 82.7988 55.8983 84.3991 58.4649 85.8639C65.7892 90.0492 73.7043 92.6343 81.9088 94.3946C85.4847 95.1639 87.4789 94.093 87.0419 91.4402C86.1064 85.7224 84.1861 80.3615 79.7299 76.2993C77.268 74.0343 74.6214 73.2219 71.3778 75.0129C65.9598 77.906 59.9108 79.4156 53.7688 79.4075C52.9721 79.4964 52.1865 79.6655 51.4238 79.9122H51.4053Z" fill="black"/>
</g>
<defs>
<clipPath id="clip0_729_1326">
<rect width="150" height="140.725" fill="white" transform="translate(0.160156 0.47168)"/>
</clipPath>
</defs>
</svg>
