<svg width="151" height="436" viewBox="0 0 151 436" fill="none" xmlns="http://www.w3.org/2000/svg">
<g clip-path="url(#clip0_729_1370)">
<path d="M52.6703 105.837C49.5446 95.0953 43.6684 86.8332 36.0001 79.613C32.923 76.8907 30.3516 73.6456 28.4048 70.0276C24.8728 62.8699 26.2169 57.525 32.1452 51.8468C33.6351 50.3985 35.5626 49.4087 38.8757 47.1062C41.7409 48.9711 46.669 51.3675 50.6178 54.8682C63.5684 66.3289 76.1335 78.2377 82.8432 94.7828C84.479 98.8045 87.6255 99.4921 91.3658 98.7107C95.4292 97.8563 99.5446 97.0749 103.493 95.8247C117.173 91.5113 122.789 82.874 120.038 68.9649C117.851 57.9105 116.684 46.6582 108.901 37.0624C101.118 27.4667 102.587 16.2247 109.057 5.94135C112.672 0.190152 119.111 -1.46644 122.977 3.09701C133.166 15.0995 144.856 25.883 148.346 42.6886C151.589 58.0292 150.613 73.9616 145.523 88.7919C137.948 111.109 123.07 127.342 101.066 136.344C95.8564 138.427 93.8559 141.136 94.5957 146.377C95.4292 152.211 96.4815 158.025 96.9816 163.881C98.2214 178.467 97.8359 193.053 91.3033 206.598C85.9168 217.798 80.5198 229.019 74.404 239.823C66.0689 254.629 61.1825 270.715 61.0991 287.271C61.0366 297.919 65.0791 309.025 69.1946 319.163C74.4978 332.228 81.7909 344.47 88.0318 357.171C89.7926 360.755 90.8553 364.672 92.2619 368.434C92.7435 370.081 93.4038 371.67 94.231 373.174C101.524 384.135 109.047 394.918 116.111 406.025C118.413 409.671 121.945 415.558 120.58 417.923C116.975 424.174 114.329 431.936 106.546 434.812C104.817 435.458 102.014 435.416 100.618 434.406C96.7524 431.613 92.5223 428.717 89.928 424.852C77.5713 406.473 64.4332 388.386 53.9518 369.007C35.375 334.572 29.8739 297.71 39.4384 259.265C40.7303 254.056 40.0218 250.034 36.719 245.72C30.1969 237.271 23.0808 228.988 18.236 219.59C11.3804 206.421 4.86866 192.709 1.20123 178.467C-1.92442 166.319 1.89929 153.462 8.91117 142.72C18.0797 128.654 28.707 115.943 45.523 110.234C48.086 109.39 50.1698 107.442 52.6703 105.837ZM69.6322 144.189C58.5048 142.907 48.409 143.595 38.7507 148.356C33.6559 150.857 31.4575 154.806 32.9787 160.244C37.4067 176.404 44.0331 191.501 55.2333 204.233C59.4009 209.015 62.8182 208.4 65.7563 203.024C71.4867 192.449 74.4873 181.145 73.3413 169.132C72.5494 160.922 70.9449 152.784 69.6322 144.189Z" fill="black"/>
</g>
<defs>
<clipPath id="clip0_729_1370">
<rect width="150" height="434.736" fill="white" transform="translate(0.160156 0.47168)"/>
</clipPath>
</defs>
</svg>
