<svg width="151" height="86" viewBox="0 0 151 86" fill="none" xmlns="http://www.w3.org/2000/svg">
<g clip-path="url(#clip0_729_1246)">
<path d="M3.37532 23.167C2.04998 22.268 0.847926 21.9085 0.570528 21.1944C-0.74454 17.768 1.21779 11.7989 4.58765 10.2321C10.114 7.64864 15.7725 5.3578 21.5397 3.36908C28.8598 0.924955 36.6016 0.000270262 44.2914 0.65161C57.3702 1.61223 70.4489 2.7064 82.6698 8.28004C92.4301 12.7287 102.704 16.2064 112.115 21.3537C120.735 26.0797 128.492 32.3982 136.552 38.1259C140.435 40.8896 144.118 43.9513 147.935 46.8177C150.833 48.9907 150.92 50.8708 148.089 53.2852C146.923 54.2817 145.752 55.2629 144.54 56.1978C143.979 56.5278 143.39 56.8046 142.778 57.0249C138.745 54.215 134.507 51.3742 130.403 48.3794C125.029 44.4444 119.939 40.1037 114.391 36.4307C108.813 32.8168 103.045 29.5072 97.1099 26.5163C91.187 23.4701 85.0534 20.84 78.9609 18.1379C76.8496 17.203 74.5894 16.5968 71.6459 15.5694C72.0363 17.5677 72.1596 18.6824 72.4729 19.7509C75.3085 29.8091 75.8428 39.9239 73.6647 50.1978C73.0791 52.9615 73.074 55.8485 73.0123 58.715C72.9815 60.3845 73.9421 61.3759 75.6938 61.9461C77.4455 62.5163 79.3514 63.3023 80.3633 64.6328C84.7349 70.3913 90.699 73.2886 97.9781 75.1431C97.6442 80.84 91.1099 79.6636 89.3377 83.1824C79.4027 81.1276 73.9267 73.0883 66.6887 67.3297C65.5945 68.2184 64.6339 68.8708 63.7914 69.703C59.5226 73.9256 55.0585 74.6653 49.9832 71.5266C46.6493 69.4718 43.6339 66.9033 40.413 64.679C37.377 62.5728 34.2486 60.5694 30.4575 58.0934C29.0551 65.0797 27.889 70.9359 30.514 76.9718C31.7983 79.9153 28.2435 84.929 25.038 85.0163C22.8291 85.0728 19.6185 82.0163 19.5774 79.1345C19.4592 70.4273 19.5414 61.7098 19.7058 53.0026C19.7726 49.6328 22.0534 47.7937 25.0996 47.0643C30.5757 45.7492 35.5277 45.9187 40.3668 49.9461C44.8822 53.7064 50.3377 56.352 55.449 59.3725C56.5534 60.0249 57.9404 60.1944 59.014 60.5283C60.8582 58.7869 59.9695 57.6208 59.1424 56.1927C57.4421 53.2544 55.6082 50.2954 54.5192 47.1054C52.6185 41.4547 55.0945 39.0044 61.3103 39.9136C62.1938 41.316 63.0722 42.7235 63.9712 44.1157C64.0329 44.2081 64.2897 44.1722 65.1527 44.2903C65.5226 43.3246 66.3034 42.2047 66.3291 41.0643C66.5448 31.6585 64.5671 22.7304 59.7024 14.6191C58.7535 13.2561 57.3205 12.3063 55.6955 11.9633C43.4849 9.76976 31.2897 9.18414 19.2229 13.0472C16.0123 14.0746 12.699 14.7783 9.46265 15.7338C6.09279 16.7612 3.30854 18.4513 3.37532 23.167Z" fill="black"/>
</g>
<defs>
<clipPath id="clip0_729_1246">
<rect width="150" height="84.5651" fill="white" transform="translate(0.160156 0.47168)"/>
</clipPath>
</defs>
</svg>
