<svg width="151" height="238" viewBox="0 0 151 238" fill="none" xmlns="http://www.w3.org/2000/svg">
<g clip-path="url(#clip0_729_1206)">
<path d="M101.126 132.89C105.768 136.136 108.808 138.451 112.065 140.464C130.317 151.488 134.785 169.33 124.723 187.863C113.615 208.72 95.7659 225.196 74.0887 234.603C62.4038 239.775 44.7141 240.251 32.0121 224.866C19.6347 209.718 8.40422 194.063 7.08426 173.484C6.84623 169.643 4.92038 165.911 3.83844 162.124C2.57257 157.71 1.3608 153.274 0.203125 149.141C4.60662 145.808 7.86325 146.977 10.2652 150.223C15.6749 157.385 21.6363 164.288 25.7369 172.164C32.5531 185.234 43.3508 193.9 55.2089 201.474C62.4471 206.094 70.9511 206.051 77.6483 200.825C85.2692 194.829 92.2098 188.015 98.3458 180.506C104.286 173.29 102.847 169.687 93.7367 166.192C87.3448 163.818 80.8205 161.817 74.1969 160.198C62.3605 157.125 58.195 149.476 63.053 138.354C67.0886 129.114 72.217 121.151 80.959 114.789C94.2561 105.117 106.092 93.4208 118.405 82.4283C127.179 74.6167 131.28 65.258 126.887 53.4973C124.388 46.7893 122.257 39.9189 119.314 33.4057C116.966 28.1799 112.498 26.6436 106.698 27.8878C89.8201 31.5015 73.0609 35.2991 56.9292 41.8232C51.7683 43.9113 45.7419 44.3982 40.0834 44.6146C33.6675 44.8634 31.0817 41.7582 29.2099 34.8771C27.5978 28.9156 30.9085 26.4596 35.4202 24.0577C59.2229 11.3233 84.7783 4.58282 111.318 0.850133C117.983 -0.0911534 123.111 1.79142 127.915 6.37884C140.52 18.3126 145.594 34.0116 148.916 50.3056C150.505 57.736 150.6 65.4087 149.194 72.8761C147.788 80.3435 144.909 87.4562 140.725 93.7995C135.527 101.5 129.52 108.624 122.808 115.049C116.739 121.075 109.587 125.976 101.126 132.89Z" fill="black"/>
</g>
<defs>
<clipPath id="clip0_729_1206">
<rect width="150" height="237.345" fill="white" transform="translate(0.160156 0.47168)"/>
</clipPath>
</defs>
</svg>
