<svg width="151" height="142" viewBox="0 0 151 142" fill="none" xmlns="http://www.w3.org/2000/svg">
<g clip-path="url(#clip0_729_1334)">
<path d="M120.362 0.47168C120.729 3.04478 120.974 4.74207 121.34 7.26085L127.376 4.89143C135.557 9.46054 137.736 13.6563 137.03 22.2717C136.867 24.3085 137.709 26.5489 138.632 28.4363C141.3 33.9016 144.641 39.0613 146.976 44.6488C150.255 52.4835 150.717 60.7256 149.644 69.2392C148.178 80.9437 132.76 90.9646 121.578 86.8503C118.815 85.8387 115.861 85.2752 113.247 83.9921C110.389 82.5867 108.135 82.6818 105.033 83.8291C102.459 84.7796 98.868 83.8291 95.9961 82.9262C91.5628 81.4733 87.3603 79.3008 83.2529 77.4948C82.5739 78.1194 81.9833 78.391 81.9561 78.7101C81.3655 85.6283 77.2037 89.9326 71.7724 93.6463C68.1402 96.1447 65.0375 99.4103 61.2424 102.723C63.0279 104.149 64.0802 105.29 65.377 105.982C73.9177 110.497 82.1869 115.487 91.8547 117.707C97.2318 118.943 102.167 122.005 107.47 123.756C116.452 126.723 125.563 129.283 134.627 132.053C137.342 132.881 139.99 133.845 142.909 134.823L138.462 141.096C130.132 139.426 121.198 141.096 112.44 138.102C102.208 134.578 91.6239 132.046 81.1414 129.276C75.4928 127.782 69.6745 126.9 64.0327 125.359C60.7726 124.461 57.6401 123.151 54.7112 121.462C47.5825 117.334 45.0502 111.753 47.3924 103.721C48.7503 99.0573 51.4659 94.7733 53.7335 90.4011C54.6297 88.6698 55.9604 87.1626 57.5626 84.8815C52.4911 83.4354 48.0578 82.1658 43.5769 80.8894C34.2825 78.1738 24.9135 75.6957 15.7413 72.6338C9.36628 70.5767 4.50523 66.1094 0.160156 60.8953C0.639033 59.6024 1.05145 58.2859 1.39579 56.9508C3.13381 48.6001 4.50523 47.3373 12.9374 45.5518C21.9127 43.6508 30.8812 44.6217 39.8768 45.1648C43.3936 45.3753 46.9579 44.7099 50.5019 44.642C53.6215 44.4794 56.7493 44.5861 59.8506 44.9611C63.0075 45.4432 64.8813 44.547 66.4904 41.7702C72.1525 32.0006 80.3131 25.3608 91.3523 22.3124C92.812 21.9051 93.9254 20.106 95.1 18.8703C97.3743 16.4738 99.316 13.6834 101.889 11.6534C106.105 8.2996 110.64 5.33273 115.155 2.38623C116.499 1.51721 118.244 1.23207 120.362 0.47168ZM109.799 62.3889C115.031 66.5876 121.343 69.2233 128.007 69.9928C133.608 70.6242 138.524 66.5982 137.736 61.452C136.439 53.0946 132.861 45.5857 126.364 39.8149C125.957 39.4551 125.095 39.6181 124.137 39.5026L109.799 62.3889ZM110.885 38.4232C110.586 37.785 110.281 37.1468 109.982 36.5018C100.905 36.6783 92.33 39.5298 84.183 43.3385C81.5148 44.5877 77.7536 45.8234 77.6857 51.0171L98.0533 56.2515L110.885 38.4232ZM29.1363 57.8877C38.5665 63.6789 64.6098 70.8618 71.8199 69.9385C63.6389 60.0195 47.4332 55.2875 29.1363 57.8877Z" fill="black"/>
</g>
<defs>
<clipPath id="clip0_729_1334">
<rect width="150" height="140.692" fill="white" transform="translate(0.160156 0.47168)"/>
</clipPath>
</defs>
</svg>
