<svg width="151" height="250" viewBox="0 0 151 250" fill="none" xmlns="http://www.w3.org/2000/svg">
<g clip-path="url(#clip0_729_1302)">
<path d="M149.744 172.989C149.744 175.017 149.835 177.045 149.744 179.072C149.328 187.599 146.459 194.817 138.946 199.674C132.863 203.597 128.433 208.008 127.581 216.281C126.567 225.862 117.564 229.248 109.838 223.783C106.067 221.107 102.833 220.448 98.686 222.587C89.7539 227.241 80.8827 231.712 74.2014 239.772C66.5163 249.059 57.858 251.279 48.5508 247.112C46.186 245.908 44.0432 244.31 42.2142 242.388C38.1588 238.444 34.7015 233.679 30.2 230.343C12.1635 216.95 4.85363 198.457 1.3761 176.913C-2.67933 152.114 4.22503 128.714 7.45923 104.787C8.57448 96.4531 9.74041 88.0989 11.3829 79.8461C13.8161 67.6799 15.6411 55.25 19.5748 43.5501C29.1558 14.9796 51.42 -0.948038 83.6809 0.339559C88.3847 0.409504 93.0759 0.843378 97.7127 1.63729C105.377 3.17836 110.893 8.73429 115.263 14.4017C128.666 31.9415 139.058 51.296 142.758 73.2662C145.384 88.8289 146.094 104.615 142.424 120.38C139.828 131.533 138.368 142.928 136.341 154.212C135.651 158.116 137.436 159.839 141.197 160.113C150.504 160.813 150.494 160.843 149.926 169.937C149.865 170.951 149.926 171.965 149.926 172.979L149.744 172.989ZM114.725 95.0945C114.725 88.1699 115.617 82.2794 114.553 76.764C111.988 63.1121 106.624 50.1394 98.7975 38.6633C95.1679 33.3913 89.6019 27.8962 83.7823 26.0205C73.1571 22.5734 58.6691 30.4916 52.6569 40.3058C47.1804 49.2431 43.4701 59.1486 41.7276 69.4845C37.8445 92.0733 33.2416 114.55 30.1696 137.241C27.9162 154.05 30.2638 171.156 36.9624 186.737C41.464 197.393 49.879 204.591 58.1825 211.941C63.4849 216.625 65.6444 216.666 71.7681 213.685C76.8241 211.175 82.028 208.974 87.3511 207.095C94.8536 204.52 97.4897 201.641 97.8648 193.347C98.2159 186.927 100.063 180.678 103.258 175.098C105.712 170.505 107.01 165.101 107.861 159.89C109.423 150.289 110.467 140.627 111.39 130.904C112.616 118.586 118.061 106.622 114.725 95.0945Z" fill="black"/>
</g>
<defs>
<clipPath id="clip0_729_1302">
<rect width="150" height="248.821" fill="white" transform="translate(0.160156 0.268555)"/>
</clipPath>
</defs>
</svg>
