<svg width="151" height="143" viewBox="0 0 151 143" fill="none" xmlns="http://www.w3.org/2000/svg">
<g clip-path="url(#clip0_729_1139)">
<path d="M54.6466 52.6593C50.3144 56.8375 46.2902 60.7555 42.2129 64.6205C41.4094 65.3155 40.5338 65.9224 39.6009 66.4308C36.2403 68.4482 34.2919 68.496 33.0443 66.6485C31.6693 64.6311 32.163 60.713 34.1804 58.823C35.3325 57.7613 36.7128 56.9065 37.9764 55.935C38.6771 55.4041 39.3673 54.8732 40.015 54.2414C45.3771 49.2085 44.9789 46.8088 37.9923 44.6481C33.3098 43.204 28.4361 42.3652 23.6209 41.3777C16.9475 40.008 12.6419 35.7502 10.0989 29.8042C4.58285 16.9033 4.54569 17.2112 12.3977 6.85342C14.1549 4.5387 16.029 2.30893 17.85 0.0419922L19.0392 0.758705C18.1632 2.69648 17.3085 4.60772 16.3953 6.51364C13.3851 12.7836 15.2751 21.7186 20.8655 25.9445C23.0968 27.6798 25.6114 29.0161 28.2981 29.8944C34.6689 31.8428 41.1564 33.3452 48.1484 35.1662C48.5625 34.2796 49.2102 33.0957 49.6827 31.864C51.4771 27.4523 53.3034 23.0511 54.9916 18.5916C57.025 13.1977 61.4951 10.575 66.8731 7.71878C67.7279 10.1078 68.949 12.1359 69.1135 14.2488C69.7081 22.5202 70.9186 30.8819 70.239 39.0736C69.6073 46.8672 72.5431 50.9976 78.9458 54.6024C86.1466 58.6872 93.8922 61.7261 101.95 63.6277C111.06 65.7513 119.098 70.0515 126.981 74.7394C128.934 75.9291 130.61 77.5219 131.898 79.4113C134.159 82.7347 134.398 85.7024 132.237 89.9868C129.217 95.9647 125.463 97.0583 119.554 96.4744C110.778 95.609 102.035 95.3542 93.4552 92.5616C86.4314 90.2947 78.9033 90.6292 71.4601 91.8874C65.5778 92.8642 59.5786 93.2253 53.6166 93.6287C53.1269 93.6893 52.6299 93.6477 52.1571 93.5064C51.6843 93.3652 51.2459 93.1274 50.8697 92.808C50.4935 92.4887 50.1876 92.0948 49.9714 91.6512C49.7552 91.2077 49.6334 90.7241 49.6136 90.231C49.465 88.6755 49.3535 86.9235 49.9003 85.5166C51.4293 81.6039 53.452 77.8823 55.0076 73.9749C56.6958 69.7277 58.4956 65.4805 59.483 61.0369C60.6829 55.7491 60.0564 55.2554 54.6466 52.6593ZM112.132 81.3278C109.855 76.9692 106.117 75.5888 102.273 74.5748C91.6996 71.8264 81.4404 67.985 71.6618 63.1127C70.6 62.5818 69.5064 62.1996 68.0783 61.5943C66.2467 65.7407 64.362 69.5206 62.902 73.4546C61.665 76.7621 62.7746 78.5778 66.4006 78.8167C70.4395 79.1553 74.5032 79.0574 78.5211 78.5247C88.1356 77.07 97.4794 77.9513 106.77 80.5686C108.49 81.0624 110.343 81.0995 112.132 81.3384V81.3278Z" fill="black"/>
<path d="M150.159 132.501C150.175 132.904 150.139 133.307 150.053 133.701C146.04 143.384 145.625 143.915 135.65 140.698C126.269 137.667 117.159 133.796 107.99 130.139C99.1772 126.619 90.5182 122.706 81.6522 119.324C71.7722 115.565 61.7276 112.247 51.7733 108.706C50.8124 108.361 49.9682 107.682 48.5879 106.869C49.4851 104.746 50.0797 102.542 51.2742 100.721C53.5518 97.2388 56.4611 96.8512 59.7314 99.4314C62.731 101.804 65.7465 103.679 69.8557 102.617C70.7317 102.388 71.9049 102.813 72.8022 103.227C78.2439 105.733 83.6006 108.414 89.0742 110.84C91.2615 111.812 93.6718 112.274 95.9759 112.964C96.305 113.065 96.7563 113.001 96.974 113.208C102.862 118.745 111.085 117.986 117.987 120.943C128.462 125.398 139.435 128.71 150.159 132.501Z" fill="black"/>
<path d="M21.5447 122.074L25.983 125.913C29.4233 118.337 28.9826 110.708 27.9739 103.365C26.9121 95.8107 23.5356 88.7498 18.8743 82.7081C14.213 76.6665 7.00343 73.72 0.160156 70.954C0.324735 69.7064 0.234482 69.1065 0.478695 68.7243C1.87496 66.5476 3.13319 62.8844 4.84799 62.603C8.4634 62.0721 12.4186 63.0808 16.119 63.9462C17.3984 64.2488 18.4868 65.8787 19.3999 67.0997C20.7006 68.8358 21.1943 71.0496 24.5125 70.2055C25.6167 69.9241 27.9102 72.5361 28.9932 74.2509C38.4273 89.1161 41.2729 105.107 36.9567 122.372C35.5764 127.909 34.2385 133.313 30.8355 138.006C28.181 141.691 20.4458 142.365 17.2445 139.132C15.9331 137.805 14.6855 130.754 15.7686 129.247C17.5789 126.736 19.6388 124.421 21.5447 122.074Z" fill="black"/>
</g>
<defs>
<clipPath id="clip0_729_1139">
<rect width="150" height="142.429" fill="white" transform="translate(0.160156 0.0419922)"/>
</clipPath>
</defs>
</svg>
