<svg width="151" height="93" viewBox="0 0 151 93" fill="none" xmlns="http://www.w3.org/2000/svg">
<g clip-path="url(#clip0_729_1422)">
<path d="M150.16 82.678C149.543 82.973 148.959 83.5094 148.379 83.4987C143.38 83.3861 139.304 85.5209 134.938 87.7898C128.356 91.2173 121.378 93.69 113.407 91.936C105.436 90.1821 97.3155 89.1951 89.5916 86.1753C87.784 85.4672 85.3005 85.7032 83.3427 86.2664C68.1952 90.6219 53.2676 88.3691 38.4634 84.7485C31.2222 82.973 23.8791 81.1386 17.48 77.0353C13.7523 74.6685 10.17 72.0803 6.75232 69.2845C3.42138 66.5489 2.38079 62.9122 4.37078 58.4227C11.7139 57.2963 19.3896 57.763 27.1457 57.8863C35.0949 58.0311 41.2311 62.4456 48.188 64.9022C49.1911 65.2616 50.0869 65.975 51.1006 66.2325C53.096 66.7689 54.512 65.8034 54.2116 63.8241C53.2462 57.425 56.3572 51.911 57.7035 46.0215C57.977 45.0062 57.977 43.9365 57.7035 42.9212C56.5402 39.5523 56.325 35.9285 57.0813 32.4456C57.5641 30.1338 56.9097 28.5032 54.512 27.2802C46.7398 23.3378 39.1553 18.9984 31.3724 15.0345C28.981 13.8954 26.4342 13.1163 23.8147 12.7227C17.5068 11.65 11.14 10.9151 4.8267 9.86379C3.21755 9.5956 1.67813 8.65693 0.160156 8.04545C1.89804 2.14522 6.65578 -0.536708 12.0679 0.809618C14.4763 1.405 16.8954 2.10767 19.352 2.33295C24.5258 2.79246 29.3972 4.96948 33.1907 8.51747C37.0634 12.0254 41.2794 14.9165 46.2249 16.7349C52.0554 18.8804 57.8269 21.1815 63.6467 23.3539C64.2474 23.5792 65.0037 23.3861 65.6313 23.3861C66.5109 20.5861 67.1546 17.872 68.2274 15.3403C68.758 14.1016 69.5566 12.9959 70.5657 12.1027C71.5748 11.2096 72.7693 10.5512 74.0632 10.1749C75.2418 9.76816 76.3702 9.22828 77.4264 8.56574C82.5113 5.42789 85.7725 5.25088 89.8383 9.4025C95.6366 15.3296 102.61 19.4758 109.497 23.8366C111.9 25.3599 114.212 27.0549 116.47 28.7714C119.656 31.1904 123.148 33.0142 127.128 33.3896C128.769 33.5398 130.512 32.6762 132.417 32.2203C133.924 33.2019 135.785 34.044 137.142 35.3957C138.499 36.7474 140.039 38.5014 140.157 40.1642C140.304 44.6019 140.125 49.0444 139.62 53.4558C139.18 58.2135 138.285 62.923 137.786 67.6753C137.528 70.1159 138.102 72.1488 141.042 73.0392C142.42 73.4468 143.573 74.9058 144.63 76.0751C146.491 78.1134 148.202 80.3126 150.16 82.678Z" fill="black"/>
</g>
<defs>
<clipPath id="clip0_729_1422">
<rect width="150" height="92.049" fill="white" transform="translate(0.160156 0.47168)"/>
</clipPath>
</defs>
</svg>
