<svg width="151" height="172" viewBox="0 0 151 172" fill="none" xmlns="http://www.w3.org/2000/svg">
<g clip-path="url(#clip0_729_1450)">
<path d="M104.865 171.151C100.454 168.714 99.0405 164.885 98.6002 161.128C97.5937 152.481 97.9669 143.813 101.204 135.547C102.322 132.857 103.669 130.269 105.23 127.81C107.822 123.528 110.485 119.284 113.315 115.154C115.442 112.05 115.832 108.524 115.345 105.16C114.381 98.543 112.925 91.98 109.684 85.9874C107.117 81.2403 104.651 76.4386 102.022 71.7292C99.8624 67.8711 98.5456 67.5357 95.2243 70.2866C91.4501 73.3773 87.9695 76.7867 84.2246 79.8941C82.1949 81.5716 79.8968 82.9345 77.6952 84.4022C75.2587 86.0335 72.7635 87.5768 70.3606 89.2542C67.1483 91.4936 65.2906 94.7981 63.8103 98.283C60.5812 105.911 59.7173 113.929 60.5099 122.102C61.0173 127.336 61.9106 132.532 62.6067 137.711C58.2244 137.795 56.287 136.197 55.1296 131.79C51.9718 119.741 52.9363 107.886 57.4528 96.4713C59.4515 91.5488 62.56 87.1544 66.5361 83.6306C69.5496 80.921 72.7937 78.4795 76.2316 76.3338C82.4926 72.4379 87.4411 67.1079 92.1966 61.6982C95.5137 57.924 95.4382 57.7395 93.2659 54.4307C90.4395 50.1323 88.653 49.3062 84.7446 50.6104C79.6746 52.2878 74.5332 51.9733 69.4213 51.1765C65.257 50.5265 62.7912 47.3184 60.2164 44.3662C57.6415 41.4139 55.0667 38.4952 52.4247 35.6309C51.764 34.9087 50.9561 34.3367 50.0553 33.9535C47.9585 33.1148 46.1385 33.9829 46.1931 36.2138C46.2853 39.9419 46.0966 44.0684 47.6231 47.2681C49.6402 51.5078 48.0424 54.4223 45.7192 57.102C43.3163 59.8572 39.9027 59.6475 36.4178 58.7795C30.3036 57.2656 26.0178 53.1349 21.5768 49.1552C19.2997 47.1171 17.14 44.9281 14.7454 43.0326C12.1873 41.0071 9.89766 40.7387 8.70249 41.9339C7.28925 43.3471 6.98312 46.8865 8.38378 49.0084C9.36088 50.4888 10.7573 51.6965 11.9567 53.0301C12.5774 53.7178 13.177 54.4224 13.8816 55.2275C11.7848 55.7601 10.0067 56.3346 8.1699 56.6617C4.86117 57.2572 0.99889 54.4643 0.390821 51.1472C-1.28242 42.219 6.50086 33.3454 12.3215 31.5045C13.6048 31.0851 15.3493 31.4625 16.6787 31.9867C21.2497 33.7942 24.1474 37.7487 27.5023 41.0532C29.8381 43.3597 32.262 45.3097 36.032 46.312C36.4304 45.3265 37.072 44.3033 37.244 43.2045C37.7011 40.2019 37.9024 37.1574 38.3217 34.1506C39.0514 29.2148 46.0672 22.5009 50.8228 22.7651C52.9824 22.8867 55.4692 24.1196 57.1131 25.6251C60.8873 29.1183 64.5693 32.8212 67.6474 36.9226C71.6564 42.2568 76.6845 41.4558 82.7904 39.9923C83.7968 39.7532 85.0843 38.0674 85.143 36.9897C85.3082 33.95 85.1409 30.9013 84.6439 27.898C84.0443 24.3293 82.7778 20.8779 82.1278 17.3134C81.1213 11.6605 82.7023 6.80011 87.3907 3.22299C92.0792 -0.35413 96.3398 -0.438001 101.674 2.96299C103.435 4.08687 105.004 5.52107 106.799 6.57785C109.663 8.25528 112.64 9.76916 115.576 11.3376C117.543 12.386 119.543 13.3714 121.48 14.4702C124.101 15.9547 126.768 16.3447 129.41 14.7092C135.08 11.2076 141.194 9.77335 148.357 10.7295C150.085 12.0127 150.722 13.9208 149.573 16.5502C148.294 19.4857 147.225 22.4967 146.164 25.5118C144.839 29.328 142.041 31.6596 138.548 33.3748C134.292 35.4716 130.014 37.5013 125.871 39.7826C123.938 40.8436 122.227 42.3365 120.528 43.7707C116.914 46.8194 113.362 49.9478 109.805 53.0678C107.549 55.0514 106.987 57.2614 108.392 60.1466C111.47 66.4999 114.703 72.8321 117.119 79.437C119.723 86.5913 121.615 94.0055 122.302 101.697C122.94 108.826 120.579 114.797 116.381 120.324C114.028 123.428 111.873 126.682 109.671 129.903C105.427 136.13 103.8 143.171 103.901 150.556C103.964 156.532 104.53 162.503 104.861 168.479C104.899 169.18 104.865 169.867 104.865 171.151ZM116.712 34.2093L108.354 28.9422C106.01 27.4702 104.266 28.1286 103.406 30.9383C102.003 35.3391 102.024 40.07 103.465 44.4584C104.303 47.05 105.712 47.3939 107.725 45.4733C110.338 42.9571 112.825 40.3319 115.395 37.7864C116.57 36.6122 117.274 35.3709 116.712 34.2093Z" fill="black"/>
</g>
<defs>
<clipPath id="clip0_729_1450">
<rect width="150" height="170.67" fill="white" transform="translate(0.160156 0.47168)"/>
</clipPath>
</defs>
</svg>
