<svg width="151" height="330" viewBox="0 0 151 330" fill="none" xmlns="http://www.w3.org/2000/svg">
<g clip-path="url(#clip0_729_1218)">
<path d="M141.642 149.804C133.31 143.671 125.361 137.576 117.108 131.875C112.653 128.628 107.851 125.886 102.79 123.7C96.1759 121.07 93.4771 123.013 93.4182 129.902C93.4182 134.436 94.4879 138.97 94.6449 143.523C95.1552 157.822 96.4801 172.199 95.5674 186.428C94.38 204.888 87.589 221.953 78.4722 238.067C74.6595 244.536 71.2922 251.258 68.3937 258.185C67.0787 261.472 66.3721 266.379 67.8932 269.206C76.1955 284.652 82.9668 301.178 96.1955 313.484C101.102 318.028 106.068 322.434 112.741 328.46C107.285 328.882 103.654 330.285 101.191 329.156C91.0532 324.466 78.747 324.407 70.7686 315.113C64.5959 307.959 58.4133 300.825 52.1229 293.779C41.9757 282.424 43.2907 269.686 48.6979 257.243C54.1052 244.799 60.6508 232.601 67.1572 220.56C73.8599 208.146 77.2063 195.192 75.7833 181.07C74.4977 168.42 73.3299 155.761 72.113 143.111C69.169 111.993 92.1327 101.158 113.016 98.4204C115.518 98.0966 118.031 97.8414 120.935 97.5078C120.935 95.2801 121.328 93.5824 120.877 92.1496C116.352 77.8513 112.044 63.4548 106.912 49.3822C103.742 40.707 96.3329 36.0946 87.324 35.2605C72.3878 33.8866 57.3731 33.3567 42.4271 32.0515C35.7146 31.4626 29.9639 32.4244 26.1268 38.3714C21.4261 45.653 12.3878 43.2781 9.21806 37.2134C5.67537 30.3439 2.77056 23.1506 0.160156 17.3606C3.68322 5.89836 12.9963 4.24969 20.8667 0.81495C22.4467 0.118188 24.694 0.64812 26.539 0.922899C44.5762 3.48423 62.5939 6.16333 80.6312 8.6756C83.8853 9.08636 87.1699 9.20132 90.4447 9.01907C103.389 8.48914 112.035 15.2605 118.325 25.6432C125.999 38.2929 130.926 52.1398 134.566 66.389C135.94 71.7374 137.442 77.0564 138.816 82.4146C142.535 96.9386 146.824 111.355 149.699 126.055C151.289 134.004 149.149 142.061 141.642 149.804Z" fill="black"/>
</g>
<defs>
<clipPath id="clip0_729_1218">
<rect width="150" height="329.117" fill="white" transform="translate(0.160156 0.47168)"/>
</clipPath>
</defs>
</svg>
