<svg width="151" height="441" viewBox="0 0 151 441" fill="none" xmlns="http://www.w3.org/2000/svg">
<g clip-path="url(#clip0_729_1442)">
<path d="M46.8321 0.47168C49.553 5.99781 50.3597 11.4035 49.0955 17.0982C48.614 19.2473 47.9819 21.3662 47.5485 23.5213C46.5131 28.7645 47.0368 29.6915 52.4425 31.064C62.1102 33.5261 71.7719 34.6097 81.247 30.1912C81.7609 29.8847 82.3527 29.7341 82.9506 29.7577C91.6611 31.666 99.4868 27.9458 107.475 25.7546C115.463 23.5634 123.259 23.0698 131.175 25.3633C139.717 27.8374 145.965 32.6894 149.294 41.418C152.256 49.1955 147.392 62.8362 138.103 65.816C124.499 70.1743 99.7396 69.9094 86.9898 55.7931C85.4367 54.0775 83.4984 52.7833 83.6188 49.7734C83.7211 47.1608 81.4276 46.2217 78.9414 46.312C71.483 46.5829 64.175 47.4678 57.475 51.164C54.6156 52.7411 51.6118 54.0594 48.5959 55.5343C49.8781 59.8143 53.1589 60.1153 55.8677 61.0062C62.1463 63.071 63.88 65.4849 62.9349 71.3722C61.8574 78.1264 58.3118 82.0633 52.5328 81.3409C45.6282 80.4741 38.862 78.5177 32.0657 77.0127C30.3079 76.6275 28.5863 75.9472 26.8225 75.8088C22.1993 75.4837 19.8757 77.2656 18.0698 81.4613C14.4579 89.9191 14.777 97.8892 20.7305 105.161C24.9443 110.272 29.0919 115.395 33.6729 120.168C41.1003 127.803 46.9019 136.865 50.7269 146.806C55.9279 160.356 52.5689 172.853 43.9246 183.996C40.9283 187.762 37.5335 191.193 33.7994 194.229C25.775 200.929 21.7478 209.543 20.6282 219.675C19.6428 228.666 20.1677 237.759 22.1813 246.577C25.5218 261.232 27.4808 276.168 28.0324 291.189C28.4598 303.596 29.5976 315.985 30.5607 328.373C31.6623 342.64 30.0731 356.804 29.2123 371.005C28.6103 380.974 27.298 390.87 27.5328 400.929C27.7435 410.254 29.5735 419.205 31.855 428.12C32.2523 429.667 33.9318 430.907 35.0996 432.22C36.7671 434.098 38.5128 435.916 39.5663 438.48L36.0929 436.175C35.5571 436.933 34.8528 437.601 34.5578 438.42C33.5887 441.075 31.8068 441.358 29.9949 439.672C25.0948 435.121 19.5506 431.046 18.7741 423.467C18.461 420.361 16.7695 417.447 16.2458 414.305C13.7897 399.743 16.2458 385.188 16.5046 370.626C16.7394 358.243 17.2631 345.824 16.6431 333.478C15.7883 316.49 14.1509 299.539 12.4774 282.611C11.7558 275.647 10.5489 268.741 8.86557 261.945C5.338 247.721 5.10323 233.346 6.63225 218.988C7.60745 209.826 12.0982 201.886 17.835 194.777C22.9939 188.384 28.3455 182.136 33.6368 175.881C38.7536 169.813 39.4519 163.047 35.7197 156.305C32.1783 150.038 28.2372 144.006 23.921 138.246C19.8877 132.762 14.783 128.012 11.0568 122.378C7.13189 116.406 4.0859 109.814 1.07001 103.295C0.140086 101.046 -0.0927038 98.5688 0.401814 96.1856C2.5328 85.7474 5.14537 75.4476 13.0072 67.4835C16.3421 64.1064 20.1406 61.554 24.9684 61.1808C27.9421 60.946 29.7842 59.6638 30.7895 56.8948C31.2318 55.7744 31.7822 54.6999 32.4329 53.6862C35.8461 48.0277 35.8882 48.0277 31.6082 42.6881C29.5855 40.1659 29.8022 37.1199 30.7052 34.6819C34.8107 23.2444 38.0132 11.4276 45.2309 1.3626C45.4355 1.07365 45.9111 0.977338 46.8321 0.47168ZM135.178 52.5605C136.087 46.613 133.336 42.0741 127.852 39.1907C121.037 35.5788 113.742 35.1875 106.319 35.8678C102.737 36.1928 100.299 38.3178 98.5357 41.731C109.389 50.5499 121.338 54.0053 135.178 52.5605Z" fill="black"/>
</g>
<defs>
<clipPath id="clip0_729_1442">
<rect width="150" height="440.254" fill="white" transform="translate(0.160156 0.47168)"/>
</clipPath>
</defs>
</svg>
