<svg width="151" height="115" viewBox="0 0 151 115" fill="none" xmlns="http://www.w3.org/2000/svg">
<g clip-path="url(#clip0_729_1490)">
<path d="M145.147 61.8532C144.69 65.0526 144.69 65.0526 134.194 72.9825C134.833 73.7669 135.415 74.6029 136.117 75.3185C137.049 76.268 138.036 76.6017 139.495 76.0788C141.04 75.5249 142.787 75.5455 144.294 75.3357C145.612 77.1728 144.838 78.1533 143.647 79.1028C141.487 80.8229 140.073 83.1038 138.59 86.0074C140.049 86.0074 141.112 86.1279 142.134 85.9834C143.943 85.7219 145.719 85.1474 147.528 85.0166C148.388 84.9547 149.936 85.4639 150.064 85.9696C150.332 87.1737 149.967 88.5361 149.764 89.8193C149.726 90.0635 149.276 90.2906 148.973 90.4351C147.322 91.2023 145.533 91.7321 144.043 92.747C142.633 93.7171 141.559 95.1758 139.915 96.8512C140.094 100.106 137.851 102.118 134.311 103.264C130.643 104.447 127.107 106.016 123.439 107.2C120.147 108.252 116.875 108.177 114.044 105.758C112.908 104.788 111.9 104.96 110.631 105.713C107.982 107.286 104.968 108.328 102.539 110.162C100.29 111.858 98.129 112.866 95.2908 112.914C93.6429 112.948 92.0431 113.998 90.3712 114.29C87.8494 114.737 87.5157 114.345 86.4527 111.858C86.1465 111.132 85.3311 110.554 84.6362 110.072C82.5067 108.607 82.4241 106.993 84.5811 105.569C85.5098 104.912 86.5529 104.435 87.6568 104.162C89.3769 103.818 89.7209 102.762 89.8723 101.224C90.5363 94.2607 90.581 87.3251 89.4767 80.3963C89.2083 78.714 89.2393 76.9836 88.9606 75.3013C88.682 73.619 87.6981 72.8036 85.7921 73.0754C79.9813 73.9397 74.0446 73.0796 68.718 70.6018C62.9417 67.9494 57.1173 68.1936 51.0383 69.3461C48.9742 69.7349 47.543 70.5846 45.9949 71.6821C43.1016 73.7256 40.1464 75.6831 37.2462 77.7095C35.8701 78.6796 34.5766 79.839 33.1179 80.7128C31.4803 81.7002 29.6776 81.9273 27.8611 81.0569C25.508 79.9044 23.0447 78.948 20.8429 77.5443C18.2249 75.8586 15.7272 75.0295 12.5071 75.6935C9.75488 76.2645 6.81 76.0031 3.95112 75.9928C3.1605 75.9507 2.39244 75.7144 1.71493 75.3047C-0.163467 74.2313 -0.349243 72.7933 1.106 71.1523C1.49131 70.7085 1.88006 70.3094 2.28602 69.9069C2.69197 69.5044 3.10825 69.15 3.5314 68.7613C0.149599 65.751 0.125517 63.9449 3.41443 60.8796C4.37197 60.0652 5.36976 59.2993 6.40404 58.5849C9.30765 56.3659 12.2697 54.2192 15.1011 51.9107C17.9324 49.6023 20.9496 48.1608 25.0779 47.9441C23.3199 51.8901 21.7856 55.4886 18.6515 58.1618C16.7043 59.82 16.46 61.6708 17.7983 63.8245C19.9072 67.2166 22.4117 67.7636 25.8554 65.6788C27.6031 64.626 29.4299 63.7075 31.4218 62.6169C31.0227 61.8429 30.6168 61.3131 30.4723 60.7179C29.9528 58.609 30.5824 56.7684 32.6775 55.9256C35.4091 54.8281 38.3196 54.1401 41.1888 53.4245C44.9731 52.4853 48.8503 51.9417 52.5417 50.7514C54.9947 49.9601 57.1861 48.3432 59.4739 47.084C62.9555 45.1471 66.327 42.9798 69.9324 41.325C71.3085 40.6988 73.18 41.2252 74.9208 41.2252C73.7477 44.5141 67.6412 50.3867 58.9407 56.8063C62.209 60.1606 65.2089 60.8005 70.1801 59.0287C70.2351 63.36 73.7236 63.5011 76.6238 64.0034C80.064 64.602 83.5766 65.3072 87.3231 64.4506C87.3231 62.1318 87.5948 59.9576 87.2646 57.8762C86.683 53.9456 85.8569 50.0551 84.791 46.2274C83.8484 42.966 82.3484 39.8663 81.0824 36.7012C80.8691 36.1714 80.6111 35.6691 80.3496 35.1497C77.4253 29.4801 74.3669 23.8724 71.6457 18.1099C70.7168 16.1421 69.9255 13.6375 70.3177 11.6319C70.961 8.46335 72.1307 5.03338 74.8727 3.03114C78.4334 0.416517 82.7372 -0.013519 86.9928 0.966963C89.4836 1.54493 90.4331 4.47262 89.5558 7.21109C89.1877 8.34982 88.8334 9.61929 88.9778 10.7752C89.4595 14.6077 89.7622 14.0676 93.4502 15.571C97.9776 17.4115 102.333 18.1787 106.771 16.6031C108.288 18.2062 108.047 19.3278 106.771 20.4149C105.818 21.2303 104.913 22.1075 104.019 22.9263C104.476 25.393 104.906 27.6258 105.302 29.8654C105.887 33.1853 109.798 35.3114 113.101 35.2804C115.145 35.2632 117.181 34.9364 119.462 34.7162C119.789 37.8813 122.135 38.4592 124.846 38.7207C123.845 40.9018 122.053 40.1931 120.797 40.4684C117.856 41.1151 117.288 41.9718 118.826 44.5554C119.54 45.7291 120.417 46.7958 121.43 47.7239C122.982 49.1585 123.763 49.1 125.596 47.7411C127.819 46.0967 130.106 44.6105 132.897 44.1116C134.183 43.8811 135.405 43.7435 136.22 45.0955C136.588 45.6273 136.739 46.2794 136.642 46.9187C136.546 47.5579 136.209 48.1363 135.7 48.5358C131.545 52.0724 129.714 57.2776 125.94 61.6089C127.062 62.3795 127.956 63.2809 129.037 63.6731C132.384 64.9116 135.742 65.6753 139.134 63.508C140.837 62.4243 142.629 61.2202 145.147 61.8532ZM98.7964 44.5072C99.9145 58.2134 100.025 71.5617 101.48 85.4811C103.967 81.7965 106.864 82.2403 109.812 82.8871C114.673 83.957 116.297 84.7689 117.381 86.9879L111.016 85.4123C112.183 88.8801 114.185 91.0578 116.235 93.1564C116.696 93.6277 117.832 93.9304 118.423 93.7034C121.059 92.6954 123.608 91.4637 126.305 90.2631C125.335 87.6725 127.337 86.0831 127.537 84.1978C127.76 82.1853 126.573 80.0695 126.463 77.9537C126.209 73.2233 125.269 72.4493 120.776 73.9286C120.553 73.9837 120.335 74.0562 120.123 74.1453C116.782 75.7967 113.724 73.963 113.48 69.5078C113.418 68.3863 113.61 67.0411 113.067 66.2017C111.949 64.4816 112.138 62.8887 113.025 61.3853C113.789 60.0918 113.253 59.3831 112.595 58.3475C111.603 56.8408 110.805 55.2143 110.222 53.507C109.331 50.717 108.729 47.8374 108.013 45.0336L98.7964 44.5072ZM99.4845 101.386C102.801 102.39 104.108 102.074 105.639 100.374C106.599 99.3007 106.922 98.279 105.821 97.0714C103.571 94.6795 101.989 91.7386 101.232 88.5429C100.651 92.7882 100.069 97.037 99.4776 101.382L99.4845 101.386ZM36.8712 67.5916C38.8976 67.8565 40.0948 67.1822 40.9996 65.5859C38.8322 64.43 38.8322 64.43 36.8472 67.5881L36.8712 67.5916ZM133.695 98.9326L133.578 98.0966C132.577 98.6987 131.059 97.584 129.776 99.8477L133.695 98.9326Z" fill="black"/>
</g>
<defs>
<clipPath id="clip0_729_1490">
<rect width="150" height="113.991" fill="white" transform="translate(0.160156 0.47168)"/>
</clipPath>
</defs>
</svg>
