<svg width="151" height="157" viewBox="0 0 151 157" fill="none" xmlns="http://www.w3.org/2000/svg">
<g clip-path="url(#clip0_729_1358)">
<path d="M13.921 156.758C5.14513 147.694 2.10077 136.353 0.799852 124.133C-0.0478673 115.659 -0.0478673 107.122 0.799852 98.6481C1.22638 94.0736 1.5836 89.5097 2.02079 84.9192C3.00715 74.5119 4.08947 64.1258 4.98518 53.6919C5.41171 48.7601 7.9549 45.5931 12.3108 43.5618C13.3772 43.0713 14.2569 42.1862 15.3552 41.3865C16.4215 44.5108 17.989 47.2992 18.2983 50.221C19.0607 57.5093 23.4273 62.7076 27.426 68.2898C29.3241 70.9557 30.2891 74.2613 31.7713 77.231C32.8643 79.417 33.8186 81.7735 35.3648 83.6289C38.5638 87.4091 42.0347 90.9493 45.4949 94.4895C48.7365 97.7951 50.9118 97.6511 53.4603 93.5884C61.1006 81.427 68.5435 69.1429 76.1357 56.9495C77.9153 54.0855 79.8481 51.3197 81.9259 48.6641C83.9466 46.0836 84.1598 43.6044 82.3844 40.8746C71.6039 24.2773 85.1569 3.77716 103.69 0.572854C105.449 0.268952 107.336 0.732803 110.493 0.914079C108.056 3.70785 106.622 5.60591 104.921 7.22139C103.22 8.83688 101.386 10.0312 99.0191 11.8652C102.874 13.9606 106.377 15.1922 109.97 15.1922C116.139 15.1922 122.308 14.5737 128.476 14.2272C132.544 13.9926 136.618 13.7846 140.952 13.55C141.246 14.1525 141.486 14.7603 141.821 15.3095C142.77 16.909 144.738 18.5991 144.525 19.98C144.135 22.4752 142.69 24.9384 141.192 27.0604C140.563 27.9508 138.697 28.1267 137.353 28.3133C133.142 28.8785 128.882 29.1397 124.691 29.8222C122.713 30.1474 120.847 31.1551 118.144 32.1414C121.742 35.2871 120.308 39.9256 123.923 42.4741C127.074 44.6921 129.788 47.5232 132.726 50.061C138.59 55.1367 144.7 60.2871 148.187 67.1489C150.656 72.0007 151.114 78.1267 147.75 83.3464C147.073 84.4127 145.132 85.0312 143.73 85.1165C137.652 85.4897 132.182 83.1011 127.079 80.286C122.926 77.9987 119.167 74.9544 115.451 71.942C108.52 66.3971 101.786 60.6443 94.9404 55.0088C93.9513 54.2929 92.9244 53.6308 91.864 53.0254C90.1046 55.4513 88.3238 57.6159 86.8576 59.9832C77.5326 75.0717 68.3516 90.2455 58.9412 105.275C57.0272 108.33 54.9798 111.108 55.1771 114.958C55.2251 115.912 54.644 117.032 54.0415 117.869C52.442 120.129 51.1731 123.248 47.6808 122.528C44.7538 121.926 43.8421 119.196 43.1383 116.573C40.915 108.314 35.4768 101.858 30.9609 94.884C27.2287 89.0992 23.4966 83.2824 19.7005 77.5349C18.5915 75.8608 17.1786 74.3786 15.1899 71.9367C14.5288 75.1783 14.0543 77.183 13.7237 79.2144C12.4974 86.7319 11.3298 94.2602 10.1142 101.783C8.48203 111.966 8.69695 122.36 10.7487 132.467C12.3482 140.4 13.6011 148.398 15.014 156.363L13.921 156.758ZM135.482 66.8397C129.185 56.235 120.319 47.923 111.559 39.5204C110.034 38.0542 108.36 38.1448 106.761 39.2698C105.161 40.3948 103.508 41.6797 101.482 43.1886C111.639 53.5053 122.046 62.1851 135.498 66.8397H135.482ZM95.9054 31.4376C94.018 29.7529 92.7917 28.372 90.2859 29.7262L93.0743 33.9382L95.9054 31.4376Z" fill="black"/>
</g>
<defs>
<clipPath id="clip0_729_1358">
<rect width="150" height="156.286" fill="white" transform="translate(0.160156 0.47168)"/>
</clipPath>
</defs>
</svg>
