<svg width="151" height="201" viewBox="0 0 151 201" fill="none" xmlns="http://www.w3.org/2000/svg">
<g clip-path="url(#clip0_729_1270)">
<path d="M21.8236 102.818L28.4059 104.36C29.3513 100.927 29.7526 97.5553 31.251 94.7815C32.2143 92.9977 34.8722 91.0622 36.6649 91.2139C38.4576 91.3655 40.723 93.5952 41.5703 95.4682C44.5047 101.935 46.6631 108.749 49.5975 115.224C51.7291 119.96 53.6378 125.035 58.5165 128.656C66.8825 121.797 74.5707 113.94 85.0595 111.255C94.9774 108.722 105.252 107.598 115.331 105.903C116.16 102.55 114.439 101.185 111.888 100.552C110.424 100.233 108.923 100.125 107.428 100.231C91.3741 101.123 76.6399 94.4336 61.103 92.302C57.9992 91.8739 54.9221 90.1257 52.184 88.4311C43.0777 82.7943 33.7394 77.541 25.3199 71.0926C16.9003 64.6441 8.76619 57.9548 3.86074 47.8407C-0.732558 38.2973 -1.06256 29.3159 3.03127 19.8261C5.02913 15.2238 7.01807 10.6127 8.74836 5.91239C10.3449 1.58667 13.2079 -0.0455075 17.7566 0.6145C18.3363 1.3191 19.3174 1.96127 19.362 2.67479C20.6731 20.9855 31.8397 33.3116 44.3263 45.0669C54.1372 54.3337 64.9827 62.013 77.3267 67.2752C83.8911 70.0758 90.616 73.572 99.0266 72.8407C97.5104 68.5506 96.1725 64.992 95.0131 61.3887C92.8725 54.6905 92.7477 48.0101 95.4144 41.3833C98.438 33.8913 103.022 28.6916 112.164 29.9045C114.54 30.1791 116.946 29.9852 119.246 29.3337C131.046 26.0337 139.572 32.4911 145.111 40.759C149.062 46.6099 149.874 55.2791 150.115 62.7533C150.454 73.2331 147.573 83.267 139.822 91.1514C136.362 94.719 137.619 98.9556 138.27 102.987C139.57 111.19 138.715 119.589 135.791 127.363C133.026 134.997 128.763 137.566 120.629 136.478C112.994 135.461 105.35 134.418 97.778 133.035C86.5668 130.984 77.1394 134.462 69.576 142.489C62.8868 149.624 56.9556 157.393 50.5429 164.787C47.8672 167.882 44.4155 170.37 41.9539 173.608C36.6024 180.663 31.5008 187.932 26.5686 195.299C24.6777 198.117 23.1526 201.052 19.1568 200.436C15.7141 199.901 11.8522 195.138 12.1197 191.267C12.3351 188.018 13.0356 184.819 14.1979 181.778C20.9942 164.582 22.5104 146.744 21.8771 128.46C21.565 120.21 21.8236 111.959 21.8236 102.818ZM115.09 44.2463C115.625 56.9559 124.009 64.2249 129.637 72.7872C136.424 70.5039 137.218 64.7601 138.645 60.4433C142.587 48.4918 134.016 39.5906 121.761 42.1325C119.781 42.516 117.89 43.3277 115.09 44.2463ZM37.4943 133.856C36.977 139.323 36.4776 144.558 35.987 149.776L37.8422 150.499C40.2592 148.117 42.8368 145.87 45.0398 143.301C46.6453 141.428 47.7155 139.118 49.0623 137.004C46.565 135.88 44.1212 134.632 41.5614 133.713C40.6071 133.365 39.403 133.766 37.5211 133.856H37.4943Z" fill="black"/>
</g>
<defs>
<clipPath id="clip0_729_1270">
<rect width="150" height="200.054" fill="white" transform="translate(0.160156 0.47168)"/>
</clipPath>
</defs>
</svg>
