<svg width="151" height="178" viewBox="0 0 151 178" fill="none" xmlns="http://www.w3.org/2000/svg">
<g clip-path="url(#clip0_729_1154)">
<path d="M0.160156 72.6143C5.34688 71.2469 7.40271 75.4434 9.84518 78.4046C15.56 85.4585 20.7939 92.8897 26.6313 99.8682C30.196 104.121 34.5057 107.743 39.2963 112.439L46.2748 103.952C63.0892 83.2329 79.6207 62.2974 96.8784 41.9655C103.753 33.8836 112.278 27.2163 119.983 19.8323C125.641 14.4098 131.299 8.95906 136.75 3.36683C139.824 0.254799 142.861 -0.471342 146.803 1.80139C150.745 4.07411 150.575 7.28045 149.632 10.7791C147.746 17.5502 144.643 23.529 139.259 28.3291C129.64 36.8165 120.341 45.7565 110.75 54.3193C91.3522 71.5769 75.9523 92.1729 60.892 113.052C57.7799 117.371 54.9885 121.916 51.9991 126.33C49.0096 130.743 49.3491 135.015 51.3484 139.712C54.0819 145.703 56.3886 151.879 58.2514 158.195C59.6754 163.457 59.7886 169.068 60.3921 173.793C50.1036 180.394 41.7671 178.207 34.3265 171.954C27.6592 166.353 24.6603 158.959 26.2729 150.066C26.7162 147.605 26.6973 145.002 27.4706 142.654C29.4793 136.543 28.3288 130.706 25.7354 125.264C23.1421 119.823 19.6151 115.155 16.8991 109.921C15.3873 106.884 14.7165 103.497 14.9565 100.113L24.9527 111.892L26.8388 110.807C25.8203 108.488 25.1036 105.97 23.7173 103.895C17.6693 94.7663 11.4861 85.7225 5.1677 76.7637C3.95118 75.0473 1.89535 73.9345 0.263891 72.4823L0.160156 72.6143Z" fill="black"/>
</g>
<defs>
<clipPath id="clip0_729_1154">
<rect width="150" height="177.329" fill="white" transform="translate(0.160156 0.47168)"/>
</clipPath>
</defs>
</svg>
