<svg width="151" height="103" viewBox="0 0 151 103" fill="none" xmlns="http://www.w3.org/2000/svg">
<g clip-path="url(#clip0_729_1446)">
<path d="M26.8583 40.1658C33.4884 41.5328 34.7507 40.4027 35.7258 34.0369C36.6372 28.1678 38.3551 22.4353 43.0167 18.2841C44.5979 16.8715 44.8394 15.5045 44.8394 13.5451C44.8166 8.67388 45.5001 3.93483 49.6377 0.47168C54.0486 2.75007 50.7723 7.88556 53.9438 10.7973C56.5457 10.1229 59.2798 9.36651 62.0412 8.70578C71.8611 6.34992 81.8039 6.0993 91.8197 6.92863C98.058 7.44355 104.155 8.43693 109.751 11.4854C111.532 12.456 112.608 11.9183 113.811 10.1457C115.507 7.68653 117.531 5.46981 119.826 3.55662C121.092 2.49033 123.07 2.21237 124.77 1.73391C126.059 1.36936 127.426 1.31468 128.734 1.01849C131.395 0.412442 132.316 1.10507 132.348 3.89382C132.348 4.80518 132.288 5.71653 132.22 6.62789C132.015 9.39385 133.054 11.6631 134.954 13.5861C137.082 15.7278 139.242 17.8284 141.361 19.9656C148.447 27.1516 150.93 35.9371 149.937 45.7569C149.449 50.5324 149.755 55.6451 146.62 59.7326C140.126 68.1945 131.491 72.6875 121.061 66.7044C113.578 62.4165 108.507 55.5586 103.362 48.81C96.9826 40.4209 88.5206 34.5245 77.4203 35.8915L82.4647 42.508L79.0061 45.2876L84.4605 44.6724L84.9937 45.5838C84.3512 46.4723 83.818 47.4748 83.0479 48.2358C79.0972 52.1364 78.6826 53.8361 81.1295 58.5979C82.4146 61.095 82.6378 63.3643 80.9609 65.7657C80.3959 66.5768 80.2273 67.6659 79.8582 68.6912C76.2128 69.2699 73.9344 66.6908 71.9978 64.786C68.7624 61.6236 65.0168 60.9037 60.9248 60.3204C57.047 59.7645 53.1054 59.1949 49.4189 57.9509C46.7942 57.0623 44.3563 55.2715 42.1873 53.467C40.3646 51.9405 38.3824 51.5896 36.2635 51.6716C32.5133 51.8174 30.9685 54.4057 32.5406 57.837C34.5593 62.2297 36.587 66.627 38.7697 70.9377C42.1281 77.5632 45.5183 84.1751 49.1045 90.6776C50.4715 93.1748 52.4173 95.3711 54.117 97.6769C55.1832 99.1122 56.3179 100.498 57.448 101.933L51.9798 102.876C50.546 102.311 49.1449 101.666 47.783 100.944C46.7335 100.368 45.8051 99.5941 45.049 98.6657C40.6335 92.8831 36.3911 87.055 33.5158 80.2244C31.0642 74.3689 27.6603 68.9236 24.9126 63.182C23.9283 61.1361 22.9213 60.4753 20.7067 61.095C19.3852 61.4641 17.8769 61.1588 16.1772 61.1588C15.9904 57.8688 15.8264 55.0209 15.6395 51.7673C11.6842 51.1066 7.6515 52.6194 3.50027 54.6244C2.37931 52.8746 1.29935 51.298 0.160156 49.6393C4.22025 43.2051 11.06 42.8497 17.5397 41.109C16.8061 37.1492 15.717 33.3625 15.4892 29.4938C15.2431 25.1512 15.2613 20.6582 16.159 16.4386C16.7332 13.7456 19.1118 11.4262 21.0575 9.05209C21.8049 19.6648 23.2083 29.9859 26.8583 40.1658ZM62.2736 32.1003C63.8912 30.9337 64.7069 30.3095 65.5545 29.7353C70.2753 26.5456 75.4564 23.9254 81.084 23.8115C90.5302 23.6338 99.4934 25.9942 106.752 32.5332C110.238 35.6728 113.31 39.2681 116.641 42.5581C119.972 45.8481 123.321 49.1472 126.779 52.3187C128.807 54.1733 131.359 54.433 134.043 54.1414C135.929 53.9409 136.663 53.0387 136.658 51.1841C136.655 46.4546 134.935 41.8872 131.819 38.3294C128.88 34.889 125.052 32.1686 120.555 31.3074C112.585 29.7763 105.062 27.2974 98.3496 22.686C96.1333 21.0984 93.5224 20.1525 90.8036 19.9519C87.1809 19.6739 83.572 19.0405 79.9493 18.9813C74.3673 18.8993 68.7761 19.0861 63.1986 19.355C61.6493 19.4279 60.1319 20.1843 58.3457 20.722L62.2736 32.1003ZM55.8622 42.8497C53.3378 38.5299 53.7342 33.6815 50.0478 30.2092C46.1836 38.9081 47.7056 42.7586 55.8622 42.8497ZM68.9174 44.0345C71.8702 41.8563 73.7749 39.6873 74.4949 36.3563C69.0131 37.3816 67.7873 38.9856 68.9174 44.0345ZM122.687 18.3707L124.054 18.7854C124.251 17.9665 124.403 17.1374 124.51 16.3019C124.51 16.2062 123.781 16.0331 123.394 15.8964L122.687 18.3707Z" fill="black"/>
</g>
<defs>
<clipPath id="clip0_729_1446">
<rect width="150" height="102.373" fill="white" transform="translate(0.160156 0.47168)"/>
</clipPath>
</defs>
</svg>
