<svg width="151" height="219" viewBox="0 0 151 219" fill="none" xmlns="http://www.w3.org/2000/svg">
<g clip-path="url(#clip0_729_1434)">
<path d="M121.21 34.7622C121.087 36.6968 121.319 38.3443 120.834 39.7458C118.407 46.8007 116.896 54.1428 112.514 60.5278C109.096 65.4704 109.827 68.1228 113.922 72.5732C116.349 75.212 118.824 77.8097 121.599 80.7767C121.435 82.2806 120.403 84.8032 121.203 86.4165C122.057 88.1324 124.539 89.151 126.494 90.1696C130.712 92.2957 132.018 94.8661 129.775 98.8584C128.141 101.777 125.728 104.293 123.493 106.843C122.173 108.347 120.533 109.578 118.557 111.355C122.023 116.14 125.605 119.88 131.546 120.543C134.718 120.898 137.931 120.974 141.055 121.548C146.264 122.519 147.543 124.966 144.104 129.068C137.336 137.1 130.199 145.112 117.785 142.056C116.766 141.803 115.638 142.056 114.216 142.056C115.023 146.541 117.99 148.564 121.319 149.986C124.648 151.408 128.155 152.406 131.628 153.589C133.775 154.327 136.037 154.84 138.054 155.845C143.044 158.333 143.106 161.02 138.403 164.117C137.459 164.739 136.461 165.286 135.566 165.969C129.645 170.488 123.26 171.254 116.24 168.841C112.89 167.692 109.403 166.968 106.437 166.175C105.63 166.947 105.356 167.084 105.315 167.268C102.191 181.399 105.534 188.078 118.673 194.866C124.768 197.922 131.338 199.919 138.102 200.773C140.802 201.155 143.571 201.313 146.216 201.866C150.776 202.81 151.289 205.353 148.267 209.079C142.689 215.915 135.75 218.485 127.075 216.803C123.945 216.196 120.777 215.805 117.593 215.634C108.412 215.135 100.455 211.451 92.9829 206.501C91.8412 205.749 90.8295 204.813 89.6878 204.068C83.631 200.089 82.7217 199.966 77.0682 204.437C70.9156 209.318 64.2913 212.845 56.3818 214.144C51.7264 214.917 47.2965 216.995 42.7094 218.171C41.1965 218.485 39.6208 218.243 38.2727 217.487C30.0693 212.633 22.1871 207.342 13.9222 202.673C8.29628 199.642 3.73275 194.961 0.844515 189.26C-1.09013 185.473 1.38457 182.855 2.75865 179.478C4.47454 179.792 6.0537 179.874 7.47563 180.387C19.0151 184.523 30.4931 188.837 42.06 192.884C46.3258 194.374 50.7693 195.358 55.1582 196.473C60.005 197.696 63.4573 194.682 66.8207 192.104C69.2954 190.211 68.8716 187.387 66.0756 185.179C63.4505 183.128 60.6066 181.351 57.5508 179.28C59.3214 177.16 60.716 175.479 62.3704 173.489C67.6821 173.291 72.8776 174.74 78.0048 176.709C82.7901 178.555 85.2443 177.037 86.0373 172.006C86.7825 167.302 87.8284 162.633 88.2522 157.903C88.5494 154.994 88.2801 152.055 87.4592 149.248C85.1623 142.015 85.634 135.494 90.7133 129.526C92.8462 127.017 92.6958 126.887 88.8743 123.605C87.9309 124.781 86.967 125.923 86.0783 127.126C84.9982 128.575 84.1915 130.284 82.92 131.522C80.1855 134.161 75.4549 134.79 72.7956 133.149C71.1558 132.077 69.956 130.452 69.4151 128.57C68.8742 126.687 69.0282 124.673 69.8492 122.895C72.5325 117.136 75.6068 111.567 79.0507 106.228C83.2003 99.9317 83.4259 98.0244 78.8251 92.3982C75.8103 88.7203 72.8776 84.9673 69.938 81.2415C66.5951 77.0167 64.6947 76.8869 60.1623 79.5188C52.3416 84.0649 44.3775 88.4059 36.3791 92.617C34.7222 93.3795 32.901 93.7155 31.081 93.5945C27.1776 93.4236 24.9285 89.8962 26.5828 86.3208C29.4472 80.0247 33.3643 74.5762 39.7972 71.329C42.6516 69.9081 45.4143 68.3099 48.069 66.5437C52.5946 63.4879 53.497 59.8305 51.0564 54.8196C48.6159 49.8087 45.7379 44.8661 43.4683 39.7116C40.3988 32.7592 40.8637 25.5265 43.0102 18.4236C46.5104 6.8226 56.2178 2.91913 66.5883 0.738376C73.9167 -0.79977 80.7051 4.50513 83.255 11.7652C85.593 18.4168 87.9925 25.0137 88.7239 32.0892C89.0179 35.0903 90.6517 37.0865 93.5571 38.0846C95.0693 38.5862 96.528 39.2366 97.9118 40.026C101.453 42.0769 104.14 42.1179 107.482 38.8434C110.825 35.5688 115.009 32.8685 121.21 34.7622Z" fill="black"/>
</g>
<defs>
<clipPath id="clip0_729_1434">
<rect width="150" height="217.808" fill="white" transform="translate(0.160156 0.47168)"/>
</clipPath>
</defs>
</svg>
