<svg width="151" height="130" viewBox="0 0 151 130" fill="none" xmlns="http://www.w3.org/2000/svg">
<g clip-path="url(#clip0_729_1123)">
<path d="M73.2202 90.7611C72.9346 91.2925 72.7088 91.505 72.742 91.6644C74.4224 99.5483 70.8955 105.134 65.0374 109.903C62.8389 111.696 61.298 114.267 59.2191 116.226C55.6524 119.6 51.1559 120.337 47.0711 118.219C42.5547 115.881 39.0278 112.779 39.3998 106.967C39.9112 99.0369 44.1487 93.4179 50.3721 89.0343C52.7101 87.3937 55.4 86.2247 57.6782 84.4979C60.7268 82.1798 60.7401 80.1009 58.1099 77.3446C57.4967 76.7064 56.7942 76.1606 56.0244 75.724C44.9324 69.547 37.0552 60.1089 29.7956 50.0465C27.5706 46.9647 24.8939 45.0119 21.201 43.4046C17.0034 41.5582 13.4101 37.7457 10.315 34.106C7.32618 30.6456 5.4731 26.2354 2.81635 22.4296C-3.82552 12.7989 2.81635 3.28107 13.5895 0.92985C23.6984 -1.28853 29.4635 4.92826 34.4317 11.7627C39.3864 18.7886 43.9112 26.1081 47.9811 33.6809C52.6769 42.1891 58.8538 49.2627 66.8706 54.5696C76.4016 60.8794 85.9925 67.1891 95.9885 72.6953C102.803 76.4612 110.68 76.6804 118.478 76.8863C127.267 77.1505 136.036 77.8844 144.746 79.0847C149.967 79.7489 151.74 84.6373 148.625 89.0475C144.295 95.1713 137.726 98.5321 131.356 102.019C131.154 102.131 130.923 102.181 130.692 102.165C123.771 101.561 116.844 100.996 109.93 100.292C108.21 100.12 106.516 99.0834 104.842 99.1631C97.4763 99.5284 91.0935 96.6591 84.5645 93.8098C80.9779 92.2688 77.544 89.0608 73.2202 90.7611Z" fill="black"/>
<path d="M98.3267 47.2833C88.1248 47.6287 77.2056 38.9278 75.4455 28.985C75.0213 26.3628 75.3768 23.6738 76.4679 21.2519C77.5589 18.8301 79.3375 16.7821 81.5826 15.3625C83.9537 13.9013 86.7433 12.4998 88.2244 10.3147C91.4457 5.45945 96.0751 4.33698 100.924 5.34654C108.884 6.96048 116.717 9.1469 124.363 11.8888C130.234 14.0408 131.005 22.4494 126.209 26.7599C125.527 27.3177 124.785 27.7988 123.998 28.1946C118.877 31.117 114.241 34.0261 112.441 40.575C111.219 44.9055 104.902 47.0442 98.3267 47.2833Z" fill="black"/>
<path d="M85.3752 119.886C85.6476 119.122 85.714 117.07 86.7036 116.359C91.1404 113.237 95.8229 110.461 100.499 107.724C101.376 107.206 102.711 107.525 103.66 107.06C105.467 106.217 107.572 104.643 108.927 106.748C109.811 108.076 109.671 110.62 109.12 112.341C107.061 118.776 105.673 125.684 98.3933 128.885C92.0835 131.662 85.3287 127.517 85.3752 119.886Z" fill="black"/>
<path d="M27.5966 82.0671C22.6949 88.968 22.8277 97.8814 14.8907 101.88C12.7523 102.859 10.377 103.2 8.04956 102.863C5.18028 102.444 3.46667 99.1168 3.94489 96.2741C5.33304 88.005 17.1091 80.2207 27.5966 82.0671Z" fill="black"/>
</g>
<defs>
<clipPath id="clip0_729_1123">
<rect width="150" height="129.271" fill="white" transform="translate(0.160156 0.47168)"/>
</clipPath>
</defs>
</svg>
