<svg width="151" height="162" viewBox="0 0 151 162" fill="none" xmlns="http://www.w3.org/2000/svg">
<g clip-path="url(#clip0_729_1230)">
<path d="M72.4856 161.294C60.3346 162.846 49.3563 159.384 38.3556 156.268C29.7896 153.845 21.3576 150.908 12.7916 148.451C6.73847 146.719 3.73422 142.788 2.21535 136.824C-2.31894 118.955 0.327923 102.817 13.3835 89.3485C18.5991 83.9654 18.3087 77.1975 19.9728 70.8986C22.1394 62.6677 23.9487 54.3362 26.0036 46.0717C31.0293 25.7456 46.8546 16.1075 64.1988 8.61362C76.1041 3.46508 89.0927 2.06906 101.936 0.706541C113.886 -0.555465 121.045 3.14121 126.138 14.1084C129.857 22.1048 132.381 30.6373 135.932 38.6784C138.575 44.3379 141.513 49.8551 144.733 55.2073C152.55 68.866 151.981 75.7233 142.667 88.5444C140.88 91.0014 140.087 94.564 139.83 97.7023C138.905 110.329 135.332 122.62 129.343 133.776C118.789 153.208 101.724 161.763 79.8455 161.216C77.2209 161.193 74.6523 161.294 72.4856 161.294ZM102.908 102.527C102.171 100.606 100.339 96.2616 98.8426 91.8055C96.3967 84.5127 93.4483 77.2868 92.03 69.7818C90.3547 60.9254 87.317 57.0501 78.8627 56.4693C70.6429 55.9109 57.4532 65.2029 55.4988 73.4338C52.7849 84.8924 50.3056 96.418 48.1501 107.988C47.3125 112.455 47.7481 117.571 53.2428 118.911C66.5218 122.161 79.9236 125.377 93.4483 119.871C100.395 117.034 103.042 112.969 102.908 102.527Z" fill="black"/>
</g>
<defs>
<clipPath id="clip0_729_1230">
<rect width="150" height="161.168" fill="white" transform="translate(0.160156 0.47168)"/>
</clipPath>
</defs>
</svg>
