<svg width="151" height="332" viewBox="0 0 151 332" fill="none" xmlns="http://www.w3.org/2000/svg">
<g clip-path="url(#clip0_729_1338)">
<path d="M90.1755 54.2316C109.178 57.5829 125.822 60.7843 141.801 53.9695C151.714 61.3366 151.686 71.0345 147.493 79.6092C143.074 88.6332 136.765 97.2359 124.624 97.6571C106.595 98.2843 88.5935 98.5932 70.7328 95.4573C67.6555 94.9762 64.6695 94.0292 61.8773 92.649C58.3295 90.7768 54.6507 90.7768 52.5164 93.4634C51.695 94.7165 51.15 96.1301 50.9176 97.6102C50.6852 99.0903 50.7707 100.603 51.1684 102.047C53.4671 109.106 56.4388 115.927 60.0426 122.417C64.0397 129.4 70.0588 134.464 76.8923 139.164C90.2972 148.375 100.482 161.227 101.259 177.937C101.988 192.918 97.954 207.745 89.7356 220.292C81.5172 232.839 69.5366 242.461 55.5119 247.779C48.0231 250.653 40.3939 253.395 33.2047 256.953C25.173 260.922 23.694 264.029 25.6504 272.791C28.4587 285.232 31.8942 297.514 35.0114 309.87C35.6499 311.918 36.095 314.021 36.3406 316.151C36.8181 324.951 28.337 332.954 19.7249 331.4C18.3711 331.108 17.0914 330.543 15.9645 329.738C14.8375 328.933 13.8873 327.906 13.1723 326.72C4.14831 308.082 -3.34045 288.546 1.88296 267.615C7.31232 245.794 22.6268 231.435 42.7529 222.083C50.0825 218.685 57.4777 215.381 64.6669 211.702C75.0482 206.413 76.106 201.564 70.583 191.435C66.366 183.456 59.8983 176.89 51.9828 172.554C40.1786 165.955 34.0098 153.991 27.9064 142.384C21.8031 130.776 21.0448 118.644 24.8735 106.166C27.6818 97.0206 28.337 87.126 34.5714 79.1599C35.7345 77.8374 36.3354 76.1132 36.2462 74.3543C36.1571 72.5954 35.3849 70.9408 34.094 69.7427C27.0827 62.5161 26.8018 53.6793 27.2605 44.4681C28.0843 28.1894 34.7961 14.5131 45.6174 2.67147C46.853 1.33285 49.5677 0.125288 51.1216 0.565253C54.089 1.40774 53.4244 3.982 52.8627 6.7154C50.925 16.0764 51.3088 25.325 56.7756 33.7124C57.7256 35.3135 58.8291 36.8184 60.0707 38.2057C66.5672 44.7583 70.5269 43.9346 76.7613 36.8202C84.924 27.4593 93.8637 18.8285 102.672 10.0947C103.964 8.82162 107.446 7.64214 108.139 8.2974C108.969 9.10428 109.625 10.0714 110.069 11.1399C110.514 12.2084 110.736 13.356 110.723 14.5131C109.684 25.1471 103.131 33.3473 97.6549 42.0343C95.4083 45.6195 93.2366 49.2422 90.1755 54.2316Z" fill="black"/>
</g>
<defs>
<clipPath id="clip0_729_1338">
<rect width="150" height="331.125" fill="white" transform="translate(0.160156 0.47168)"/>
</clipPath>
</defs>
</svg>
