<svg width="151" height="167" viewBox="0 0 151 167" fill="none" xmlns="http://www.w3.org/2000/svg">
<g clip-path="url(#clip0_729_1530)">
<path d="M95.8226 47.5276C95.6595 46.6195 95.7465 45.6054 95.3087 44.9392C93.6611 42.4297 93.4463 39.4798 92.5572 36.7473C91.3011 32.8838 90.3821 28.9061 89.0227 25.0806C87.6388 21.1709 85.9177 17.3808 84.3027 13.5553C84.0744 13.0116 83.6203 12.5602 83.0466 11.7527C81.8993 13.9931 80.8906 15.9398 79.9036 17.8974C79.3326 19.0257 78.6638 20.1269 78.2723 21.315C76.8748 25.4803 73.6502 28.1856 70.5208 30.8745C66.2386 34.5532 61.4126 37.4732 55.9694 39.0692C53.6774 39.7435 51.1489 39.8849 48.7345 39.8278C41.1896 39.6864 33.7481 40.5999 26.2875 41.5216C21.5353 42.1118 16.8709 43.2692 12.3941 44.9692C10.3631 45.7386 8.97919 46.9512 8.6339 49.1698C8.20432 51.9322 7.76658 54.6945 7.29893 57.6554C4.27011 58.017 4.92264 61.9186 2.29893 63.1149C1.53221 61.9566 1.57843 60.7359 1.68991 59.4879C1.79594 58.3079 1.85032 57.1252 0.874245 56.1872C0.691585 55.9866 0.550233 55.7519 0.458258 55.4966C-0.485189 53.123 0.847056 47.321 2.82096 45.6679C6.98898 42.1769 11.3147 38.8707 16.4398 36.9023C19.5829 35.7518 22.7947 34.7983 26.0564 34.0475C33.3608 32.2888 40.8107 31.2021 48.3131 30.8011C52.3669 30.5727 56.4235 30.3036 60.4827 30.2057C63.0086 30.1459 64.262 28.5417 65.0477 26.5923C66.4343 23.1557 67.6252 19.6347 68.778 16.1084C69.9471 12.5195 72.1929 9.85496 75.1565 7.58743C79.0281 4.64561 83.275 2.55208 87.8509 1.01592C92.4267 -0.520241 96.2603 1.18177 98.4844 5.93163C100.326 9.86131 102.071 13.8354 103.721 17.8539C105.382 21.8669 106.818 25.9724 108.49 29.98C109.519 32.3964 110.676 34.7561 111.956 37.0491C112.924 38.8082 113.729 38.8898 114.993 37.2883C115.937 36.0943 116.672 34.7495 117.168 33.3106C118.042 30.5693 119.657 28.1228 121.834 26.2416C123.316 24.9637 124.458 23.3025 125.806 21.8615C128.454 19.0354 131.543 16.6572 134.953 14.8196C136.924 13.7511 138.816 12.5222 140.836 11.557C141.532 11.228 142.69 11.1981 143.321 11.5706C144.273 12.1334 144.099 13.172 143.664 14.2242C142.663 16.6277 141.954 19.1589 140.885 21.5298C139.968 23.6648 138.82 25.6933 137.462 27.5793C136.698 28.5961 136.192 29.5722 136.173 30.7304C136.105 34.787 136.108 38.8435 136.154 42.9001C136.187 45.8691 136.554 48.8517 136.366 51.8017C136.146 55.2003 136.546 58.4901 137.258 61.7663C138.677 68.2916 140.931 74.5994 142.198 81.1926C142.951 85.1133 145.072 88.7484 146.277 92.6119C147.81 97.4896 150.483 102.071 150.121 107.471C149.912 110.578 149.227 113.267 147.438 116.043C145.148 119.578 142.288 122.568 139.471 125.54C136.986 128.161 134.577 131.035 131.236 132.756C126.962 134.95 122.756 135.203 118.294 133.088C113.967 131.066 109.755 128.807 105.676 126.323C103.729 125.127 101.26 124.798 99.0526 124.007C96.6899 123.161 94.3571 122.231 92.0107 121.339C89.7323 120.472 87.4974 119.491 84.9634 119.54C83.964 119.583 82.968 119.397 82.0515 118.996C79.1315 117.555 75.9286 117.093 72.8427 117.046C67.6415 116.951 62.3506 116.997 57.6986 120.124C52.0678 123.903 46.3147 127.498 40.6622 131.244C36.8993 133.738 33.1835 136.302 29.5148 138.936C27.3859 140.464 25.4148 142.199 23.3403 143.816C22.4077 144.534 21.8911 145.415 21.8938 146.584C21.8938 148.118 21.8258 149.659 21.9509 151.184C22.2228 154.695 22.5844 158.205 22.9814 161.707C23.0847 162.617 22.8944 163.232 22.1657 163.824C21.1434 164.665 20.2272 165.635 19.1314 166.674C17.8046 166.051 16.3935 165.399 15.567 163.876C14.7405 162.354 13.6638 160.983 13.0249 159.415C11.8639 156.59 11.3691 153.65 12.9732 150.788C14.6399 147.813 15.7818 144.621 18.0439 141.883C21.4914 137.712 25.5072 134.232 29.735 131.008C35.3495 126.747 41.2141 122.821 46.9808 118.743C50.8851 115.981 54.7459 113.148 58.7019 110.461C60.6404 109.145 62.7584 108.096 64.7921 106.927C65.7954 106.345 66.7905 105.744 67.7829 105.162C66.5784 102.857 66.1217 102.422 63.5306 101.149C63.3076 102.027 63.0983 102.846 62.8155 103.95C61.5376 102.403 60.1701 103.256 58.7562 103.544C57.2174 103.857 56.0183 104.298 55.0096 105.747C53.8514 107.413 52.1929 108.776 50.5996 110.097C49.0064 111.418 47.8101 111.242 46.4289 109.61C43.3946 106.027 40.4474 102.367 37.4349 98.7674C35.5317 96.489 33.691 94.1453 31.0537 92.5711C29.4876 91.6277 28.2886 91.315 26.6301 92.4651C23.7345 94.4662 20.6486 96.1954 17.6959 98.0088C17.8916 99.4254 18.0738 100.709 18.2832 102.22C17.2581 102.22 16.38 102.261 15.499 102.22C13.8378 102.128 13.8677 102.256 13.4708 103.898C12.772 106.717 12.7231 109.366 14.4387 111.859C14.7295 112.351 14.991 112.861 15.2217 113.384C13.7535 113.996 13.5904 112.31 12.7095 112.229C11.7823 112.142 10.8416 112.207 9.88458 112.207C8.77528 111.334 7.54907 110.434 6.39627 109.447C4.54744 107.867 4.22117 105.459 5.38213 103.194C5.78996 102.4 6.01291 101.513 6.33645 100.676C6.88023 99.265 7.20921 97.6853 8.04118 96.4808C12.1195 90.4993 17.9052 86.7799 24.6915 84.5178C25.1127 84.3473 25.5614 84.2552 26.0156 84.2459C31.6926 84.5178 35.703 80.8392 40.2163 78.327C41.6029 77.5548 41.6138 76.4238 41.38 75.1404C43.43 73.7647 45.306 72.3509 47.3316 71.1954C48.8587 70.3197 50.4952 69.6505 52.1983 69.2051C52.8046 69.0502 53.6638 69.8821 54.4577 70.2927C53.1173 72.1198 53.1282 72.1116 53.9411 73.2427C55.3006 75.1459 56.6247 77.0681 58.0194 78.9523C58.6991 79.8658 59.5012 80.6869 60.5453 81.8995C62.0923 79.0719 63.536 76.7038 64.7214 74.2106C67.3642 68.6668 70.2978 63.2699 72.3751 57.4433C73.3865 54.6048 75.5208 52.4406 78.1554 50.5102C81.3419 48.1747 84.9036 47.5684 88.4218 46.8425C90.5888 46.3476 93.033 47.2041 95.8226 47.5276ZM104.98 102.264C104.844 101.508 104.836 100.883 104.613 100.342C103.854 98.501 103.416 96.731 103.628 94.6184C103.93 91.6277 104.194 88.4928 102.375 85.6978C102.019 85.154 102.068 84.2949 102.052 83.5798C101.956 78.8191 101.807 74.0638 101.861 69.3003C101.883 67.3971 101.032 66.3096 99.5175 65.4286C95.393 63.0442 91.2603 60.6706 87.1875 58.2019C83.2777 55.831 83.3484 55.8011 81.2576 59.9121C77.9433 66.4373 74.6127 72.9463 71.1978 79.4145C69.822 82.0219 68.0221 84.4172 67.5028 87.3699L80.2815 101.731L81.5431 100.372C83.1336 101.095 101.595 102.645 104.98 102.264ZM55.5643 91.8832C50.9857 89.0094 48.7535 84.371 45.6649 80.551C45.1619 80.6978 44.8655 80.7087 44.6643 80.8555C42.2038 82.6336 39.7568 84.4335 37.114 86.3667C38.7454 87.8321 40.2516 89.2024 41.7742 90.5537C43.2505 91.8642 44.7486 93.1557 46.2277 94.4634C49.107 97.0029 49.9444 97.5548 51.2522 97.6037L49.5202 94.6538L52.4865 96.8071C53.5143 95.1622 54.4414 93.675 55.5643 91.8832Z" fill="black"/>
</g>
<defs>
<clipPath id="clip0_729_1530">
<rect width="150" height="166.191" fill="white" transform="translate(0.160156 0.47168)"/>
</clipPath>
</defs>
</svg>
