<svg width="151" height="201" viewBox="0 0 151 201" fill="none" xmlns="http://www.w3.org/2000/svg">
<g clip-path="url(#clip0_729_1242)">
<path d="M32.1296 85.379C25.8816 91.4332 25.0879 97.3768 23.8235 102.914C20.6025 116.684 18.0276 130.601 19.495 144.833C20.9256 158.676 32.3327 170.674 46.0471 172.843C50.9016 173.609 55.7745 174.393 60.6659 174.772C68.6767 175.39 73.4205 180.475 76.9644 186.769C80.5084 193.064 75.4324 201.591 68.2891 200.982C60.0845 200.281 51.5661 199.533 43.9336 196.746C34.1323 193.165 24.2019 192.704 14.1514 191.947C8.95546 191.513 3.49185 191.91 0.160156 185.976C2.54125 179.165 10.5244 179.22 15.2035 174.144C14.9082 173.11 14.8159 171.532 14.0776 170.369C2.60586 152.428 2.15363 132.779 4.93158 112.586C8.22636 88.563 16.6248 66.5148 29.0102 45.694C34.5477 36.3265 37.8055 25.6023 42.2262 15.5519C48.1513 2.11435 60.389 -2.67553 74.1865 2.52966C76.6322 3.45257 79.6039 3.33259 82.2988 3.17569C98.662 2.25279 114.711 3.60946 130.115 9.57144C138.938 12.9862 146.155 18.0714 149.44 27.7342C152.089 35.5513 147.207 42.5653 138.661 43.1652C124.411 44.162 110.189 45.7032 95.9579 47.023L95.6256 49.0257C97.2222 50.0963 98.6897 51.5821 100.452 52.1636C107.734 54.5447 115.016 57.0827 122.473 58.7439C131.397 60.7374 135.846 67.2531 138.652 74.6548C141.697 82.6933 138.255 89.2552 129.736 91.9778C121.824 94.3933 113.719 96.1225 105.51 97.146C90.3189 99.1949 75.1002 100.838 60.4721 105.904C57.3434 106.975 53.7903 106.753 50.4678 107.363C41.7925 108.941 37.9624 108.064 34.2431 95.8263C33.3848 93.0206 33.0525 90.0673 32.1296 85.379ZM82.8895 46.9215C85.8613 40.3688 91.1957 38.7907 97.1669 37.9508C100.806 37.4365 104.399 36.631 107.909 35.542C114.481 33.4932 120.969 31.149 127.595 28.8879C126.128 21.8922 121.495 18.902 116.686 17.5915C107.596 15.1089 98.2282 13.6691 88.8884 12.1094C86.3412 11.6757 83.6094 12.3586 80.5822 12.5524C80.5822 23.2951 72.7098 28.5556 66.2587 36.2434L82.8895 46.9215ZM97.9882 74.0549C98.1913 73.2704 98.4036 72.486 98.6066 71.6923C96.3639 70.3541 94.1674 68.9235 91.8694 67.6961C81.0991 61.9279 70.1811 56.4551 59.6138 50.3639C55.6361 48.0843 53.0888 49.764 50.6155 51.9328C43.2322 58.3932 40.8419 72.2368 45.1518 81.5305C46.7946 85.0744 49.0834 86.8833 53.1073 85.702C58.9585 83.9854 64.7913 82.1673 70.6979 80.6537C79.7608 78.3372 88.8792 76.2422 97.9882 74.0549Z" fill="black"/>
</g>
<defs>
<clipPath id="clip0_729_1242">
<rect width="150" height="200.529" fill="white" transform="translate(0.160156 0.47168)"/>
</clipPath>
</defs>
</svg>
