<svg width="151" height="335" viewBox="0 0 151 335" fill="none" xmlns="http://www.w3.org/2000/svg">
<g clip-path="url(#clip0_729_1318)">
<path d="M98.966 206.72C95.118 193.426 92.4085 179.721 85.6718 167.386C83.8585 164.075 81.4548 159.574 75.3506 163.285C73.4424 164.444 68.5717 162.062 65.7569 160.227C56.4583 154.165 47.4444 147.65 38.3461 141.251C27.8035 133.787 17.2609 126.196 6.71834 118.763C-1.88441 112.744 0.0659647 103.698 1.15185 95.8438C2.20611 88.2637 3.43959 79.914 11.3993 74.4635L64.2914 106.998C65.3457 104.763 66.9482 102.834 67.2644 100.736C69.879 82.9292 81.6867 69.9407 90.9009 55.6555C92.4718 53.2307 96.5201 51.6915 99.6724 51.1432C108.581 49.5935 109.024 49.235 111.522 40.6955C114.158 31.6605 117.173 22.7731 120.399 13.8752C123.509 5.27242 132.091 3.34312 139.323 0.106548C140.588 -0.462752 144.099 1.37166 144.879 2.94251C146.014 5.39934 146.278 8.1697 145.628 10.7967C140.736 28.7191 135.717 46.515 130.299 64.2266C128.58 69.8247 125.417 74.98 123.14 80.4306C121.791 83.5933 120.884 87.0197 119.788 90.3301C118.691 93.6404 118.101 97.2144 116.467 100.219C111.997 108.421 110.004 108.917 101.444 105.174C100.495 104.763 99.5669 104.299 98.597 103.93C98.0135 103.872 97.4248 103.893 96.847 103.993L92.9357 108.78C93.1043 110.013 92.9357 110.888 93.3257 111.341C105.798 124.857 109.867 142.621 117.384 158.657C125.713 176.41 134.094 194.154 142.792 211.739C149.117 224.39 150.045 238.264 150.171 251.8C150.266 260.076 146.313 268.669 142.992 276.586C141.853 279.317 137.13 280.561 133.978 282.522C118.016 258.147 93.4944 249.323 68.6139 240.351C68.5401 259.486 82.14 290.334 94.3273 298.915C94.7279 307.592 96.5201 316.627 92.4191 325.219C91.1924 327.656 89.5555 329.863 87.58 331.745C84.0166 335.256 80.6746 335.498 76.9109 331.281C68.6034 321.93 63.1318 311.06 58.6933 299.569C55.0456 290.081 51.9355 280.413 47.7923 271.188C42.7002 259.844 41.0766 248.469 44.4819 236.398C45.3359 233.382 45.5994 230.199 46.2531 227.12C49.0363 213.699 58.493 206.299 70.1847 201.365C72.2933 200.458 75.5509 201.481 78.0811 202.261C84.4067 204.19 90.5952 206.478 96.8364 208.586L98.966 206.72Z" fill="black"/>
</g>
<defs>
<clipPath id="clip0_729_1318">
<rect width="150" height="334.327" fill="white" transform="translate(0.160156 0.000976562)"/>
</clipPath>
</defs>
</svg>
