<svg width="151" height="110" viewBox="0 0 151 110" fill="none" xmlns="http://www.w3.org/2000/svg">
<g clip-path="url(#clip0_729_1418)">
<path d="M70.4605 81.431C67.2829 78.7284 64.6724 76.1952 61.7416 74.1039C58.5714 71.8394 55.114 69.9801 51.7634 67.9697C47.2825 65.2819 42.3081 63.9747 37.2601 62.8849C26.4683 60.5616 15.5954 60.8303 4.70041 61.8908C4.09288 61.9497 3.40067 62.3031 2.90361 62.1154C1.96102 61.7472 0.826972 61.3016 0.326223 60.5321C-0.266575 59.5895 0.734923 58.9709 1.475 58.2272C4.92501 54.7661 9.05619 53.7278 13.7986 53.9009C21.2546 54.177 28.7363 53.1645 36.1776 54.4016C40.5223 55.1086 44.9149 55.5467 49.2192 56.423C50.9497 56.7728 52.4519 58.1057 54.153 58.7463C57.3895 59.9577 60.0736 62.1411 63.0671 63.6839C70.674 67.5978 76.7824 73.4337 83.4873 78.5038C86.8747 81.0628 89.4558 81.9354 93.4287 82.1563C94.4964 79.417 93.6348 76.6886 93.1856 73.9787C92.2909 68.5956 89.7393 63.7943 87.8615 58.75C85.1737 51.5297 82.8687 44.1694 80.3981 36.868C80.203 36.2863 80.0299 35.6935 79.8127 35.1302C78.4136 31.6728 78.0859 31.3451 74.3229 32.3539C62.2681 35.5904 50.0439 34.6662 37.8345 33.9887C32.584 33.6979 27.3482 33.0756 22.1088 32.5712C21.4336 32.4633 20.7667 32.3083 20.1132 32.1072C19.6271 28.4731 20.3893 27.0482 23.3386 26.0394C24.157 25.7798 25.0039 25.6203 25.8607 25.5644C31.4352 25.1005 37.0097 24.6697 42.7684 24.4598L38.3905 26.0246C39.7823 26.4481 40.4818 26.8089 41.2035 26.8568C46.0674 27.1808 50.8945 28.0129 55.8246 27.155C58.564 26.6763 61.436 26.9083 64.2453 26.9046C68.4059 26.9046 72.5408 26.8273 76.8414 24.8133C75.4238 21.6136 74.8494 18.2188 72.3641 15.6893C70.0113 13.2924 69.1534 10.7628 70.5452 7.40488C71.4104 5.3172 71.5135 2.91287 73.6159 0.464355C73.4834 5.79217 76.8524 8.82244 79.0174 12.4934C80.5749 15.1223 81.8341 17.9316 83.2333 20.6526C84.5735 23.2558 84.9454 23.2852 87.8468 22.8176C91.5582 22.2138 95.2107 21.3669 99.0584 21.3448C102.545 21.3191 106.054 20.2881 109.489 19.3787C111.776 18.7748 113.908 18.7932 115.907 19.861C120.764 22.4384 125.664 24.9937 130.267 27.9613C131.99 29.0659 133.29 31.1683 134.24 33.0867C136.758 38.1567 138.846 43.341 137.369 49.2874C137.049 50.576 138.043 52.1887 138.555 54.1218C137.281 54.571 135.757 55.2264 134.17 55.6314C132.016 56.1947 130.812 55.2632 131.103 52.9804C131.729 48.0686 130.473 43.5656 128.65 39.1067C125.705 31.9305 119.781 28.2633 112.943 25.7374C111.651 25.3359 110.269 25.318 108.967 25.6859C102.079 27.4596 95.0401 28.5802 87.9425 29.0328C87.5964 29.0586 87.265 29.2721 86.6207 29.5151C86.8232 30.6639 86.8747 31.8863 87.2613 32.9946C89.5663 39.5706 91.9166 46.1319 94.3123 52.6784C96.4 58.4113 99.4119 63.8459 100.17 69.9837C100.634 73.743 100.704 77.5502 100.991 81.3316C101.304 85.518 101.875 85.8199 106.106 86.3354C113.875 87.278 121.669 88.1469 129.008 91.2729C132.373 92.7052 135.955 93.6294 139.424 94.826C140.227 95.1022 141.136 95.382 141.714 95.949C144.1 98.2834 146.755 99.3696 150.01 97.871C150.554 102.205 149.579 103.6 145.79 103.317C143.415 103.14 141.077 102.212 138.772 101.476C135.296 100.349 131.868 99.075 128.411 97.8894C127.255 97.4918 126.066 97.1788 124.895 96.8143C121.051 95.625 117.303 94.2995 113.087 94.6972C110.458 94.9475 107.737 94.2001 105.053 93.9608C103.079 93.7767 101.22 93.0918 99.2278 94.7818C98.2815 95.5845 95.6747 95.4262 94.4044 94.6935C87.821 90.8974 80.6964 90.2751 73.4171 90.6433C62.2055 91.1809 51.178 92.7825 41.0967 98.1103C36.4722 100.551 32.1348 103.53 27.6465 106.211C26.0743 107.157 24.4689 108.052 22.8231 108.862C21.111 109.694 19.6382 109.002 18.622 107.632C17.4916 106.111 18.5483 105.055 19.5793 103.836C22.0757 100.89 25.3857 99.0087 28.5964 97.1567C36.3286 92.6868 44.2927 88.5188 52.8386 85.7905C57.7209 84.2293 62.8241 83.3677 67.8242 82.1784C68.4906 82.0459 69.1423 81.8213 70.4605 81.431Z" fill="black"/>
</g>
<defs>
<clipPath id="clip0_729_1418">
<rect width="150" height="108.777" fill="white" transform="translate(0.160156 0.47168)"/>
</clipPath>
</defs>
</svg>
