<svg width="151" height="244" viewBox="0 0 151 244" fill="none" xmlns="http://www.w3.org/2000/svg">
<g clip-path="url(#clip0_729_1198)">
<path d="M112.397 0.55695C112.397 3.71806 112.042 6.31798 112.461 8.79004C114.038 18.0816 116.795 27.16 115.963 36.8067C115.026 47.5474 112.653 58.0465 106.729 66.8621C100.463 76.1679 92.5215 84.337 85.2758 92.9892C83.1448 95.511 80.7721 97.8339 78.8826 100.519C73.3347 108.489 64.8885 110.727 56.1936 113.306C46.7742 116.069 37.6745 115.799 28.248 114.13C24.9022 113.54 21.2936 114.435 18.1609 114.634C15.6604 118.612 16.8964 122.1 17.7062 125.488C20.5477 137.38 26.6 147.772 32.9648 158.016C36.8244 164.224 40.6841 170.426 44.5437 176.62C45.0078 177.445 45.5708 178.211 46.2201 178.9C54.8155 187.318 63.3115 195.85 74.9401 200.211C80.1612 202.165 84.9633 205.745 91.0298 204.147C104.214 200.68 117.313 203.294 130.398 204.8C139.448 205.837 141.018 207.642 141.913 216.876C142.027 218.048 142.311 219.206 142.361 220.378C142.495 223.653 141.65 227.333 142.886 230.096C144.122 232.859 147.383 234.65 150.182 237.264C145.699 241.711 139.768 242.236 134.454 244.005C133.68 244.261 131.698 242.79 131.25 241.718C129.949 238.492 128.911 235.166 128.146 231.773C127.841 230.473 128.487 228.974 128.565 227.56C128.935 220.279 127.443 218.19 120.531 216.642C108.412 213.935 96.3362 213.559 84.0682 216.244C75.1461 218.19 66.778 215.171 59.0067 210.952C47.4988 204.694 38.2286 195.53 28.4114 187.02C15.9801 176.244 9.11085 162.065 3.37823 147.375C0.0537411 138.85 -1.08994 129.324 1.95751 120.253C6.68852 106.081 22.7711 96.811 37.8308 98.8568C43.4238 99.7307 49.0652 100.26 54.7232 100.441C64.7464 100.562 73.4128 97.7842 80.5093 89.6931C87.2862 81.9573 95.1144 75.1378 101.025 66.5922C108.398 55.8799 111.779 44.1732 110.188 31.1238C109.187 22.9547 108.213 14.7855 107.553 6.58082C107.404 4.67705 108.313 2.53176 109.258 0.784266C109.556 0.22308 111.573 0.592468 112.397 0.55695Z" fill="black"/>
</g>
<defs>
<clipPath id="clip0_729_1198">
<rect width="150" height="243.526" fill="white" transform="translate(0.160156 0.47168)"/>
</clipPath>
</defs>
</svg>
