<svg width="151" height="449" viewBox="0 0 151 449" fill="none" xmlns="http://www.w3.org/2000/svg">
<g clip-path="url(#clip0_729_1278)">
<path d="M51.1022 446.881L25.1945 448.167C18.1718 441.193 14.6058 433.612 15.6247 423.909C16.0735 419.591 15.0061 415.079 14.4118 410.688C9.96042 379.505 5.13306 348.381 1.15473 317.161C-3.26025 282.533 7.34054 251.664 27.2201 223.768C30.5919 219.037 35.7832 215.483 40.562 211.881C50.4351 204.337 50.9324 193.797 41.6536 185.731C33.7576 178.854 25.8859 172.013 18.3537 164.687C15.5177 161.828 13.3944 158.342 12.1558 154.511C7.02519 138.318 8.35939 121.883 11.2946 105.473C19.0815 99.4084 21.2041 87.7645 31.4895 84.2592C42.9029 80.3779 48.4702 72.3484 52.1089 61.0684C56.7786 46.5136 63.025 32.5045 69.6354 18.7138C72.3887 12.8433 77.6042 8.0766 83.5474 0.47168C85.8762 7.43376 87.6955 11.6547 88.7022 16.0575C92.062 31.1218 85.9125 44.7185 81.2429 58.3394C73.6379 80.4507 65.3659 102.356 57.4214 124.321C56.6209 126.541 56.1357 128.87 55.5293 131.065C69.7445 137.918 71.4305 151.309 74.2808 164.032C74.9358 166.991 75.4088 169.999 76.1123 173.735C82.1768 170.521 82.2374 165.124 83.4504 160.891C87.6591 146.178 94.3665 133.151 106.423 123.375C113.215 117.869 119.971 112.253 127.2 107.377C131.712 104.345 134.477 108.384 137.012 111.671C153.144 132.909 153.993 155.335 142.07 178.672C139.341 184.045 136.272 189.297 133.968 194.864C127.273 210.959 115.204 221.463 100.152 229.468C88.8235 235.533 77.398 241.597 67.1489 249.263C60.2111 254.406 55.5171 262.483 49.2586 268.669C45.6198 272.211 41.2898 275.68 36.6201 277.16C31.635 278.773 29.755 281.393 28.057 285.965C23.4964 298.301 25.3764 310.842 26.6743 323.141C29.5246 350.358 33.3452 377.467 36.7656 404.624C37.9785 414.145 42.5027 422.078 48.737 429.112C54.3406 435.48 54.4134 435.42 51.1022 446.881ZM126.302 151.733C113.712 150.726 99.6184 163.971 100.031 176.464C113.579 174.657 122.494 166.264 126.302 151.733Z" fill="black"/>
</g>
<defs>
<clipPath id="clip0_729_1278">
<rect width="150" height="447.695" fill="white" transform="translate(0.160156 0.47168)"/>
</clipPath>
</defs>
</svg>
