<svg width="151" height="83" viewBox="0 0 151 83" fill="none" xmlns="http://www.w3.org/2000/svg">
<g clip-path="url(#clip0_729_1378)">
<path d="M84.4775 38.1886C84.2363 41.1105 83.9562 44.0247 83.7616 46.9506C83.1624 56.0744 81.8824 65.0931 76.2992 72.6489C72.4707 77.8353 66.7824 79.6951 60.4249 78.7613C51.8925 77.5085 44.4728 73.7578 37.9986 68.0968C32.2053 63.0388 28.0811 56.5724 23.6651 50.3783C21.7664 47.717 19.7744 45.2464 16.3466 43.6668C10.4677 49.8336 10.3121 57.4672 10.1214 65.844C9.67011 66.3226 8.32002 67.1747 7.83757 68.373C6.8999 70.7075 5.03623 70.4779 3.32041 70.3729C1.60459 70.2678 1.40616 68.7154 0.900366 67.3108C0.0382381 64.8529 -0.0835162 62.1959 0.550199 59.6694C1.88473 53.6349 2.81072 47.5264 6.96215 42.449C10.2148 38.4726 14.1172 35.9358 19.0935 34.9593C20.6498 34.6519 21.817 35.3211 22.8014 36.5389C24.6689 38.8734 26.6143 41.1028 28.5363 43.3711C31.7734 47.1879 34.7071 51.3276 38.3333 54.7243C42.5547 58.6812 47.282 62.1167 51.9898 65.525C54.795 67.5637 57.8259 69.4157 61.5416 69.4157C63.4558 69.4157 65.3778 69.4157 67.2804 69.2562C68.3326 69.1942 69.3397 68.8072 70.1627 68.1487C70.9857 67.4901 71.5841 66.5925 71.8754 65.5795C73.0115 61.8988 74.167 58.187 74.7001 54.3741C76.2564 43.2349 77.6609 32.0684 81.7812 21.5051C82.7062 19.2313 83.9465 17.099 85.4658 15.1709C88.1893 11.6109 90.4031 7.59175 94.1344 4.82932C98.0056 1.96573 102.177 0.137075 107.083 0.522259C111.468 0.868536 115.923 0.911334 120.191 1.8529C122.696 2.39371 124.953 4.27294 127.194 5.74364C130.879 8.12089 134.738 10.3308 138.045 13.1711C142.866 17.3147 146.753 22.2287 147.772 28.8858C148.332 32.5781 149.414 36.1926 149.912 39.8927C150.698 45.4386 149.594 51.0875 146.78 55.9304C145.321 58.4555 143.212 60.5993 141.594 63.0466C140.221 65.0516 139.049 67.1861 138.092 69.4196C136.536 73.2481 135.368 77.2322 133.843 81.0919C133.536 81.87 132.396 82.8271 131.629 82.8349C128.949 82.8699 126.182 82.8661 123.603 82.2513C119.579 81.271 115.627 80.0166 111.775 78.4967C109.481 77.635 107.36 76.37 105.511 74.7616C100.325 70.0383 95.5817 64.7819 92.3991 58.5294C90.5082 54.8138 89.909 50.4328 88.769 46.3358C88.1854 44.2309 87.7769 42.056 87.1077 39.99C86.8664 39.243 86.0961 38.6633 85.5514 38.0057L84.4775 38.1886ZM104.293 9.66552C100.274 9.16361 94.0215 13.2411 92.5469 16.9412C92.2035 17.6413 91.9975 18.4007 91.94 19.1784C91.9906 22.789 91.8855 26.4307 92.329 29.9986C92.9827 35.1188 94.006 40.1962 95.0214 45.262C95.3677 47.005 95.8385 48.8843 96.8229 50.3199C100.204 55.1989 103.713 60.0001 107.425 64.6262C109.115 66.795 111.452 68.3679 114.098 69.1161C116.432 69.7581 118.806 70.4312 121.101 71.2872C126.373 73.2598 127.42 73.1431 130.758 67.6688C130.956 67.342 131.011 66.9295 131.194 66.5911C133.182 62.9843 135.151 59.3698 137.185 55.7903C138.586 53.3236 140.142 50.9464 141.5 48.4563C142.059 47.4374 142.426 46.3242 142.582 45.1725C143.31 39.3091 142.551 33.722 139.625 28.4423C136.069 22.042 130.812 17.2914 124.762 13.5446C121.673 11.6303 117.919 10.4865 114.312 9.7978C111.079 9.17528 107.639 9.66552 104.293 9.66552Z" fill="black"/>
</g>
<defs>
<clipPath id="clip0_729_1378">
<rect width="150" height="82.336" fill="white" transform="translate(0.160156 0.47168)"/>
</clipPath>
</defs>
</svg>
