<svg width="151" height="284" viewBox="0 0 151 284" fill="none" xmlns="http://www.w3.org/2000/svg">
<g clip-path="url(#clip0_729_1274)">
<path d="M144.297 44.4983C145.579 46.1839 147.628 47.9582 148.483 50.1922C152.515 60.6766 146.942 70.661 136.03 73.5805C121.933 77.3388 108.408 74.9677 95.0201 70.3545C93.0039 69.6529 91.0441 68.8141 89.044 68.0802C88.8504 68.0076 88.552 68.2496 87.2697 68.7577C87.5036 71.1772 87.7536 73.9676 88.0198 76.7339C90.4392 102.106 86.5439 125.93 70.793 146.81C69.8333 148.076 68.7687 149.496 67.4219 150.214C57.7439 155.343 48.8725 162.222 37.5816 163.722C30.6134 164.618 25.1615 168.078 20.3226 172.796C19.2857 173.977 18.6602 175.463 18.5402 177.03C17.9353 183.143 19.1451 188.74 23.7582 193.272C35.2669 204.563 38.1784 209.564 58.7682 198.305C68.6235 192.91 78.608 187.764 88.6085 182.651C90.9151 181.473 93.5362 180.893 95.9637 180.062C103.053 187.655 108.237 196.824 111.086 206.813C115.485 221.706 120.703 236.345 126.715 250.663C132.208 263.744 135.934 264.776 150.176 260.139L144.321 272.994L145.128 273.414C142.579 275.68 139.966 277.89 137.474 280.229C132.175 285.221 128.32 285.35 124.086 279.575C120.642 274.874 117.344 269.777 115.344 264.349C109.989 249.832 103.803 235.589 100.593 220.314C99.5123 215.193 97.2138 210.177 94.6572 205.555C91.4312 199.66 89.0117 199.023 82.9227 202.136C76.4707 205.362 70.4059 209.346 64.1394 212.951C57.6875 216.685 50.2597 219.403 44.9126 224.355C39.9446 228.944 35.0492 229.057 29.4521 228.589C27.5745 228.46 25.7677 227.821 24.226 226.742C11.556 217.129 0.482788 206.483 0.611827 188.869C0.611827 185.933 -0.122083 182.933 0.273099 180.078C0.740866 176.707 1.18444 172.715 3.20068 170.295C8.65258 163.755 14.8384 157.803 20.9436 151.802C26.6697 146.157 33.8475 143.471 41.7027 142.125C49.2838 140.891 55.8083 136.987 61.4538 131.93C64.0507 129.592 65.7282 125.785 66.8493 122.325C72.5895 104.624 73.7603 85.7585 70.2527 67.4834C69.7905 65.6589 69.5202 63.7912 69.4462 61.9105C69.6317 54.9908 66.6718 49.3373 62.1877 44.5225C55.3486 37.2479 52.6872 27.8281 49.1951 18.9324C48.0015 15.8919 49.7354 11.674 50.0016 8.91575C53.8647 6.11721 56.8003 3.87516 59.8811 1.84279C63.4055 -0.479915 66.1637 0.0926965 67.5912 4.01226C74.2529 22.3762 87.9552 34.5381 103.456 45.0951C113.134 51.7003 124.239 51.7003 135.248 50.3696C137.918 50.0551 140.289 47.2001 144.297 44.4983Z" fill="black"/>
</g>
<defs>
<clipPath id="clip0_729_1274">
<rect width="150" height="283.467" fill="white" transform="translate(0.160156 0.47168)"/>
</clipPath>
</defs>
</svg>
