<svg width="151" height="211" viewBox="0 0 151 211" fill="none" xmlns="http://www.w3.org/2000/svg">
<g clip-path="url(#clip0_729_1366)">
<path d="M74.9132 0.47168C77.4829 7.30555 79.6581 13.0117 81.7656 18.7426C83.454 23.3457 84.9884 28.0167 86.6953 32.6013C88.7165 37.9563 91.089 42.9908 94.9095 47.5262C100.819 54.5326 103.629 63.0056 103.395 72.3043C103.413 73.5189 103.223 74.7276 102.834 75.8784C101.14 80.1919 99.3032 84.4685 97.2881 89.3489C94.5645 88.2521 92.0318 87.1121 89.419 86.2062C84.0456 84.3576 83.1398 84.5856 79.6335 89.2873C76.9283 92.886 74.4757 96.6819 71.9184 100.379C70.686 102.185 70.686 103.781 71.5055 106.042C74.8516 115.286 80.9091 123.038 85.3335 131.677C85.4752 131.954 86.0298 132.022 87.0774 132.503C90.3495 128.996 94.0838 125.539 97.1711 121.577C102.964 114.183 108.546 106.605 113.92 98.8449C119.54 90.7231 125.375 82.8232 133.238 76.7349C136.192 74.5382 139.474 72.8205 142.962 71.645C143.904 71.4118 144.886 71.395 145.834 71.5956C146.783 71.7963 147.674 72.2092 148.44 72.8034C150.16 74.4241 150.733 76.8274 149.439 79.5449C147.381 83.8584 143.85 86.6129 140.085 88.9422C133.618 92.9764 128.219 98.5103 124.346 105.075C116.6 117.935 108.109 130.192 97.9537 141.284C94.3796 145.185 94.546 145.376 97.664 149.59C98.6315 150.903 99.8146 152.055 100.788 153.362C101.762 154.668 103.401 156.098 103.309 157.367C102.871 163.308 105.016 169.457 101.99 175.207C101.16 176.832 100.464 178.522 99.9071 180.26C98.6746 183.957 96.2652 185.522 92.6172 184.672C90.6129 184.254 88.6451 183.677 86.7323 182.946C79.5349 180.026 72.3374 177.105 65.2386 173.962C55.49 169.648 45.4703 167.184 34.7419 168.601C29.189 169.215 23.9785 171.591 19.8726 175.379C17.648 177.45 16.243 179.736 16.3232 183.501L21.7952 185.233C24.6976 189.263 22.1772 192.997 19.4782 194.944C14.6655 198.42 11.4673 203.405 6.83338 206.905C5.24354 208.107 3.67218 209.321 1.77422 210.775C-0.0744326 207.078 0.0303247 203.633 0.295299 200.201C1.04641 190.759 3.75574 181.578 8.25068 173.241C11.0904 168.049 14.327 163.084 17.9315 158.39C24.2477 149.96 33.1459 146.158 43.3567 145.283C50.7287 144.641 58.1562 145.287 65.3064 147.193C66.8223 147.594 68.3875 147.81 70.3902 148.235C69.0407 141.703 64.2711 138.246 61.6276 134.308C58.3431 134.468 55.8782 135.116 53.6907 134.586C49.5435 133.581 45.6798 133.415 42.038 136.434C38.846 132.435 39.8935 128.165 40.8055 124.535C43.0301 115.785 46.6534 107.718 52.8095 100.681C61.5598 90.6615 69.9527 80.2967 76.7681 68.7611C78.0503 66.6892 78.5792 64.2387 78.2655 61.8224C77.1008 50.1143 74.827 38.6772 70.2546 27.8071C67.8223 22.0958 67.5745 15.6896 69.5583 9.8074C70.5319 6.88652 72.6271 4.37851 74.9132 0.47168Z" fill="black"/>
</g>
<defs>
<clipPath id="clip0_729_1366">
<rect width="150" height="210.248" fill="white" transform="translate(0.160156 0.47168)"/>
</clipPath>
</defs>
</svg>
