<svg width="151" height="118" viewBox="0 0 151 118" fill="none" xmlns="http://www.w3.org/2000/svg">
<g clip-path="url(#clip0_729_1194)">
<path d="M94.199 0.47168C97.9337 10.2678 101.507 19.7577 105.161 29.2153C108.767 38.544 114.673 46.3304 121.47 53.5472C123.082 55.2614 124.506 55.5892 126.656 54.9336C129.207 54.1601 131.816 53.594 134.458 53.2409C139.558 52.5423 144.297 53.6708 148.908 56.8251C148.328 59.254 147.151 62.0376 149.612 64.4342C150.047 64.8587 150.149 65.7669 150.149 66.4547C150.149 69.9476 143.927 76.0735 140.477 75.3857C135.608 74.4184 130.858 72.8063 126.113 71.2964C124.275 70.716 122.583 69.6843 120.89 68.8567C115.323 71.6134 112.056 76.3798 108.584 80.8883C105.215 85.2732 101.964 89.7548 98.5839 94.2902L93.5864 93.2584C92.0979 86.3963 93.7261 80.0446 96.3377 73.9456C98.7451 68.3247 100.744 62.6179 101.604 56.5672C102.297 51.7309 102.265 47.1096 99.2018 42.73C96.9718 39.5435 95.6929 35.7067 93.9088 32.2031C91.7594 27.9955 90.7222 27.485 86.289 28.5114C70.7967 32.1063 57.7012 39.7584 46.2338 50.8335C37.8002 59.0824 30.2207 68.1615 23.6108 77.9328C17.0549 87.4871 11.2514 97.5842 9.5103 109.428C9.18545 111.346 8.5096 113.188 7.51668 114.861C5.5338 118.359 5.27587 118.327 0.160156 116.623C0.536312 110.492 -0.753364 104.183 3.0458 98.2721C5.80249 93.9731 7.5328 89.0294 10.0584 84.5639C16.4047 73.3437 23.772 62.9726 32.9985 53.7568C41.4889 45.2772 49.7804 36.6793 60.216 30.6501C66.8579 26.8079 73.892 23.6643 80.7541 20.1983C82.9788 19.0806 85.2196 18.0113 87.67 16.8129C87.5498 15.5458 87.3397 14.2888 87.0413 13.0514C84.5264 5.30796 85.6764 3.10477 94.199 0.47168ZM104.355 52.6659C102.926 57.0239 102.41 69.7165 103.753 73.0858L113.619 61.9193C110.223 58.5071 108.67 54.278 104.35 52.6659H104.355Z" fill="black"/>
</g>
<defs>
<clipPath id="clip0_729_1194">
<rect width="150" height="117.274" fill="white" transform="translate(0.160156 0.47168)"/>
</clipPath>
</defs>
</svg>
