<svg width="151" height="227" viewBox="0 0 151 227" fill="none" xmlns="http://www.w3.org/2000/svg">
<g clip-path="url(#clip0_729_1346)">
<path d="M87.0351 220.347C82.7917 222.702 79.5172 224.741 76.0255 226.386C74.5049 227.087 72.7737 227.179 71.1875 226.643C69.6012 226.107 68.2806 224.984 67.4968 223.504C59.2354 207.04 54.307 189.406 56.7461 171.213C59.06 153.905 66.7701 138.426 82.0065 127.993C85.2058 125.804 88.2464 123.382 91.3788 121.085C96.2238 117.534 98.6546 112.456 101.236 107.168C105.721 97.9794 101.729 90.6535 96.5829 84.2132C89.2321 75.0245 81.4635 66.2202 76.3847 55.4862C72.3501 46.9575 65.5254 41.5529 57.0218 38.1114C48.5181 34.6698 40.4238 36.3906 33.2233 40.9515C30.4416 42.7057 27.827 47.3 27.9106 50.5327C28.2781 64.8001 32.9225 77.2632 47.1983 83.4279C59.2939 88.6571 57.7569 88.4984 55.0504 101.914C54.7246 104.105 54.0684 106.234 53.1041 108.229C47.0062 119.297 37.7006 120.867 26.5991 114.561C-1.62666 98.4806 -5.5527 57.5328 6.84358 38.245C15.1969 25.2222 24.7697 13.394 40.2567 7.24595C50.7819 3.06931 61.0313 -0.890148 72.3751 0.922516C77.5248 1.66921 82.4598 3.49067 86.8597 6.26862C96.7333 12.9011 106.005 20.4191 115.52 27.5779C123.873 33.8512 129.253 33.9013 137.138 27.7616C141.874 24.0778 145.734 24.8213 148.398 30.0337C149.055 31.2596 149.49 32.5914 149.685 33.9681C150.929 45.5875 150.445 56.8394 141.332 65.6521C138.146 68.661 134.755 71.4439 131.182 73.9804C128.434 75.9685 126.864 78.2406 127.448 81.6821C129.119 91.3636 126.797 100.226 122.837 109.098C117.825 120.249 113.749 131.827 105.471 141.082C102.213 144.724 98.145 147.656 94.3777 150.831C93.4671 151.468 92.4861 151.997 91.454 152.409C81.689 157.246 78.0888 164.839 80.1353 175.657C82.4325 187.635 84.1115 199.731 85.9826 211.776C86.4337 214.466 86.6592 217.214 87.0351 220.347Z" fill="black"/>
</g>
<defs>
<clipPath id="clip0_729_1346">
<rect width="150" height="226.516" fill="white" transform="translate(0.160156 0.47168)"/>
</clipPath>
</defs>
</svg>
