<svg width="151" height="161" viewBox="0 0 151 161" fill="none" xmlns="http://www.w3.org/2000/svg">
<g clip-path="url(#clip0_729_1145)">
<path d="M23.179 118.159C23.8695 118.313 24.5493 118.51 25.2503 118.616C27.6244 118.961 30.3543 118.494 31.3103 121.712C32.3725 125.17 33.286 128.553 30.6623 131.803C29.8693 132.876 29.1726 134.017 28.5804 135.213C28.5166 135.33 28.9681 135.744 29.6426 136.567C33.2382 133.752 36.77 130.81 40.4824 128.123C44.1949 125.435 48.0348 123.045 51.4498 120.767C54.0044 121.569 54.3708 126.567 58.0036 122.275L51.9915 119.025C51.4073 116.369 50.5416 113.714 53.3617 111.058C55.0453 109.465 56.5006 109.173 58.4869 109.332C65.3275 109.863 71.0263 106.788 77.527 103.522C76.0612 102.231 75.1689 101.217 74.0748 100.532C71.9982 99.2253 71.4459 97.3452 71.5893 95.0827C71.9079 89.9203 74.2448 85.475 77.2986 81.6138C80.385 77.7834 83.8396 74.2648 87.6127 71.1086C90.1779 68.947 91.5429 66.7694 91.1605 63.4447C90.6666 59.1215 91.4313 54.7081 89.2113 50.5123C88.2235 48.6322 88.181 45.9501 88.4943 43.7407C89.3653 37.633 90.6188 31.5731 91.7872 25.5185C93.3805 17.2705 98.8668 11.3327 104.651 5.96854C107.306 3.48828 111.459 2.07023 115.161 1.34262C119.941 0.407871 124.939 -0.0329462 130.563 1.5285C130.404 11.1734 130.441 20.7439 122.751 28.5511C127.148 32.6088 125.183 36.0663 122.469 39.7999C116.441 48.1117 118.661 52.3075 125.571 58.2877C127.86 60.274 130.786 59.9394 133.925 58.0168C135.864 56.8325 137.818 55.5313 139.942 54.8302C143.219 53.7361 145.333 55.595 144.446 58.9091C142.991 64.3742 140.803 69.5737 137.319 74.1359C136.501 75.1981 135.789 76.3559 134.902 77.6571C138.323 79.3088 139.56 75.8726 141.886 75.5911C144.298 75.3043 146.666 74.6829 149.853 74.0509C149.917 76.0585 150.533 77.8324 149.917 78.9158C146.454 85.0288 143.209 91.3649 137.701 96.0227C135.38 97.9878 132.762 99.3474 129.448 98.726C126.851 98.2374 124.609 98.981 122.952 101.281C122.246 102.263 120.94 102.81 120.238 103.787C113.956 112.54 104.566 115.249 94.7083 117.065C92.7963 117.416 90.7462 117.394 88.983 118.101C85.8547 119.354 83.2205 119.519 80.9314 116.603C79.4284 114.686 78.0103 115.705 76.3692 116.746C72.7099 119.067 68.8806 121.123 64.4087 123.699L58.2107 135.617C60.059 135.617 61.2274 135.489 62.348 135.654C63.2934 135.792 64.8389 136.121 64.9558 136.631C65.1338 137.771 64.9084 138.938 64.3184 139.929C63.8192 140.784 62.6879 141.246 61.8966 141.953C60.0802 143.578 58.3276 145.277 56.4846 146.876C55.295 147.912 54.1212 149.101 52.7138 149.723C47.2168 152.15 41.5978 154.195 35.4741 154.471C34.1157 154.609 32.8146 155.09 31.6926 155.868C30.3755 156.723 29.3292 157.992 28.1289 159.028C24.8201 161.922 22.4727 161.152 21.4689 156.861C21.2724 156.022 21.1343 155.167 20.8528 153.733C19.2117 153.966 17.7193 154.142 16.2428 154.402C9.48184 155.586 7.54861 154.402 3.52284 148.83C-0.370163 143.456 -1.22524 138.485 2.89082 132.897C3.70872 131.782 3.91054 129.833 3.68217 128.383C2.66776 122.095 5.5729 116.566 7.3043 110.941C7.88852 109.019 10.7565 107.649 12.7959 106.358C15.5577 104.605 18.5212 103.171 21.4795 101.578C24.4962 105.089 25.3778 108.031 23.3012 111.754C22.239 113.687 21.5007 116.061 23.3012 118.234C22.3983 120.246 20.89 122.238 22.239 124.501C22.7701 125.398 24.0447 125.855 24.9848 126.519C25.5796 125.414 26.9233 124.012 26.6259 123.274C25.8664 121.383 24.374 119.832 23.179 118.159ZM99.9609 102.715L117.227 94.8702C114.216 92.2147 111.72 89.8141 109.043 87.6578C106.207 85.3688 104.571 85.1669 102.064 87.5569C99.2439 90.2549 96.9442 93.5053 94.3737 96.5857L99.9609 102.715ZM118.172 75.0972C119.049 73.0843 119.41 71.3369 117.355 70.142C116.999 69.9348 115.602 70.6731 115.395 71.2042C114.534 73.557 115.713 74.6776 118.172 75.1078V75.0972Z" fill="black"/>
<path d="M70.1812 125.393C77.4627 131.4 83.2039 138.671 92.3389 141.124C93.996 139.446 95.5256 137.778 97.1932 136.227C101.092 132.552 105.818 130.237 110.566 127.863C116.069 125.107 121.428 122.072 126.622 118.77C130.917 115.967 135.913 114.425 141.041 114.319C142.635 114.287 144.823 114.771 145.699 115.854C147.149 117.66 145.492 119.514 144.228 120.963C137.254 128.967 128.443 134.029 118.506 137.582C113.095 139.52 108.049 142.489 103.062 144.884C103.179 151.635 101.346 154.115 95.3875 155.905C92.6948 156.712 89.949 157.403 87.3412 158.428C84.6273 159.49 82.4869 158.683 80.5856 156.877C79.3308 155.638 78.1648 154.312 77.0962 152.909C74.9187 150.148 73.0864 147.067 70.6167 144.608C67.8178 141.847 67.4673 138.187 67.1964 134.974C66.9521 132.122 68.9331 129.089 70.1812 125.393Z" fill="black"/>
</g>
<defs>
<clipPath id="clip0_729_1145">
<rect width="150" height="160.261" fill="white" transform="translate(0.160156 0.47168)"/>
</clipPath>
</defs>
</svg>
