<svg width="151" height="315" viewBox="0 0 151 315" fill="none" xmlns="http://www.w3.org/2000/svg">
<g clip-path="url(#clip0_729_1410)">
<path d="M33.2442 0.47168C34.3395 1.78951 35.3531 3.17312 36.2794 4.61474C47.5097 25.755 58.095 47.2822 70.1903 67.9292C77.9149 81.1096 87.7869 93.0379 96.8698 105.406C98.0232 106.97 100.201 107.774 102.834 109.565C103.441 97.9702 105.437 88.3182 114.057 81.0944C118.238 84.8884 118.101 89.942 118.609 94.4569C119.748 104.997 120.173 115.605 121.144 126.167C121.463 129.605 122.578 132.996 123.329 136.358C123.534 137.314 124.194 138.46 123.883 139.188C120.256 147.619 123.944 156.026 123.883 164.426C123.822 172.826 124.467 181.12 124.801 189.406C124.93 192.524 126.994 193.792 129.688 194.262C133.201 194.884 135.849 196.432 137.056 201.289L126.122 209.78C127.639 221.92 129.286 234.919 130.932 247.887C131.031 248.645 131.479 249.366 131.448 250.095C130.993 260.528 136.092 268.245 143.119 275.302C149.25 281.449 149.485 289.909 150.13 297.816C150.525 302.756 139.879 313.288 134.84 314.244C130.963 315.003 128.315 313.136 127.017 309.79C124.194 302.513 121.121 295.251 119.262 287.701C117.744 281.479 114.611 276.956 110.156 272.525C97.4086 259.694 81.542 253.206 64.0288 248.175C61.4944 258.92 51.8045 262.122 44.0496 267.251C38.6773 270.803 32.751 269.429 26.8627 264.482C23.2432 261.446 22.5148 256.833 24.7381 250.618C25.2066 249.174 25.8034 247.775 26.5213 246.437C29.1391 241.885 30.8161 235.564 34.777 233.363C42.0312 229.342 49.9531 225.927 59.2332 227.293C74.6672 229.569 89.0314 234.721 103.107 241.042C104.716 241.801 106.332 242.492 107.994 243.076C108.879 243.241 109.781 243.302 110.68 243.258C110.885 242.036 111.371 240.845 111.234 239.722C110.285 232.271 108.813 224.865 108.35 217.398C108.115 213.665 106.324 212.246 103.487 211.844C81.5268 208.748 65.4782 195.453 50.0365 181.105C43.7461 175.262 37.6453 169.222 31.3548 163.386C20.5798 153.325 12.3013 141.252 3.95448 129.21C-2.87474 119.277 -0.211344 109.314 9.52409 103.464C15.7842 99.6699 22.7728 98.9111 29.2529 96.3843C30.3836 95.9366 32.2047 97.2569 34.7694 98.1219C31.2638 100.8 28.6383 102.584 26.2633 104.663C21.3614 108.98 20.6481 112.645 24.4877 117.782C37.4632 135.235 51.0457 152.194 68.2402 165.754C77.7176 173.228 87.5972 180.209 97.4465 187.198C99.5863 188.715 102.386 189.3 105.915 190.734C106.059 185.422 106.416 181.256 106.233 177.075C105.884 169.024 105.141 160.989 104.716 152.938C104.488 148.385 102.652 145.6 99.0324 142.36C91.5713 135.592 84.8417 128.059 78.9545 119.884C68.5892 105.657 58.6338 91.0499 49.3612 76.1242C43.6626 66.9427 40.0507 56.4865 34.5494 47.1684C30.6434 40.4607 28.4006 32.9152 28.0085 25.1631C27.7429 20.9669 26.9462 16.2624 30.6188 12.0282C32.7131 9.66077 32.3109 5.12314 33.2442 0.47168Z" fill="black"/>
</g>
<defs>
<clipPath id="clip0_729_1410">
<rect width="150" height="313.932" fill="white" transform="translate(0.160156 0.47168)"/>
</clipPath>
</defs>
</svg>
