<svg width="151" height="253" viewBox="0 0 151 253" fill="none" xmlns="http://www.w3.org/2000/svg">
<g clip-path="url(#clip0_729_1402)">
<path d="M97.436 62.2951C97.9862 60.1304 98.3779 57.9285 98.6078 55.7068C99.0415 44.311 104.476 36.8184 115.272 33.2382C117.319 32.6017 119.415 32.1356 121.538 31.8448C138.147 29.2243 138.147 29.2519 144.717 44.8277C145.52 46.7378 147.43 48.2142 148.066 50.1427C149.072 53.16 150.982 57.2939 149.783 59.37C144.892 67.7577 146.922 76.819 146.212 85.5112C145.289 97.0269 145.455 108.644 145.289 120.215C145.095 138.624 145.815 157.079 144.662 175.413C143.785 189.402 141.109 203.354 138.202 217.112C136.532 225.103 133.266 232.798 129.944 240.356C128.208 244.235 125.527 247.616 122.147 250.192C120.785 251.061 119.255 251.632 117.656 251.867C116.058 252.102 114.428 251.997 112.873 251.558C110.779 250.81 108.426 246.833 108.564 244.434C109.312 231.516 104.292 220.517 98.7924 209.518C96.2641 204.443 93.8373 203.649 88.3378 205.541C84.3239 206.916 80.2546 208.493 76.0931 208.983C69.2279 209.785 65.6016 215.156 61.1263 219.003C53.0616 225.933 44.517 232.54 38.6946 241.795C37.3566 243.908 34.5146 245.421 32.0509 246.409C25.8962 248.891 21.79 246.27 21.1441 239.654C21.0171 236.887 21.0387 234.115 21.2087 231.35C21.2087 228.951 21.2087 226.551 21.2087 223.968C18.9203 223.11 17.2686 222.362 15.5523 221.855C1.34221 217.665 -3.82512 205.531 3.18768 192.613C3.37251 192.368 3.5274 192.102 3.64905 191.82C7.33999 179.012 15.0264 169.674 27.2157 164.138C31.082 162.366 30.4084 158.463 30.7959 155.27C32.3 142.795 33.6287 130.301 34.9759 117.816C36.0279 108.091 42.7546 101.419 47.8942 93.945C48.817 92.6347 50.9393 91.878 52.6556 91.4628C58.884 89.9311 65.1679 88.6946 73.5555 86.8491C68.4436 84.9391 65.2509 83.315 61.8645 82.5492C50.0811 79.9009 39.8388 73.6079 29.2919 68.0715C23.0081 64.7773 18.7819 59.6007 15.8476 53.3815C13.3839 48.1311 11.3908 42.6593 9.38847 37.2152C6.42648 29.2519 11.0309 22.8851 14.3805 16.509C19.0772 7.56764 35.5757 -1.81659 50.4687 0.970074C46.9554 3.99495 42.7387 6.08902 38.2055 7.06013C26.3022 9.90216 22.7681 16.3705 26.3853 27.997C30.2331 40.3894 38.3808 48.3987 50.7178 52.2188C53.9382 53.2062 57.177 54.295 60.2681 55.5407C71.6639 60.0436 83.2904 63.347 97.436 62.2951ZM63.064 118.997C57.9798 144.234 54.0858 167.902 52.4157 192.816C65.5923 190.048 77.9016 188.516 89.4912 183.395C86.9444 161.249 78.5199 141.946 68.8311 123.14C68.1391 121.747 66.0906 121.092 63.064 118.997ZM78.4368 87.3105L77.5141 89.0545C80.716 93.3544 84.6468 97.2853 86.9906 101.973C92.3978 112.889 97.0115 124.202 102.031 135.32C103.434 138.43 105.132 141.411 106.645 144.326C113.298 141.466 115.734 137.517 114.949 131.463C113.768 121.793 112.91 112.086 111.812 102.416C111.379 98.5771 110.05 95.1538 105.796 94.1111C96.707 91.8227 87.5627 89.5712 78.4368 87.3105ZM25.2688 197.725C26.4683 189.891 29.1904 182.297 27.0589 173.872C19.3263 177.213 15.6908 182.934 16.5489 189.734C17.121 194.246 18.7081 198.039 25.2688 197.725Z" fill="black"/>
</g>
<defs>
<clipPath id="clip0_729_1402">
<rect width="150" height="251.566" fill="white" transform="translate(0.160156 0.47168)"/>
</clipPath>
</defs>
</svg>
