<svg width="151" height="145" viewBox="0 0 151 145" fill="none" xmlns="http://www.w3.org/2000/svg">
<g clip-path="url(#clip0_729_1362)">
<path d="M149.466 82.8639C149.466 89.6062 149.294 96.3612 149.511 103.104C149.83 113.3 139.315 121.814 132.018 121.533C128.934 121.412 126.837 122.725 124.575 124.369C119.107 128.346 113.646 132.348 108.006 136.012C102.563 139.517 96.4266 140.983 89.9583 141.537C84.0763 142.047 78.2135 142.977 72.4016 144.086C65.0411 145.45 58.4327 142.945 52.2767 139.81C39.1426 133.119 28.0223 123.522 18.1765 112.739C10.4146 104.257 4.47524 94.1499 1.8497 82.9404C-0.737609 71.922 -0.591038 60.413 3.95905 49.8025C9.69446 36.4963 17.0676 24.0569 29.4497 15.6322C39.4485 8.84531 50.0016 3.15451 62.1671 0.930445C69.502 -0.407816 76.5311 1.56771 83.6493 2.23684C103.902 4.21237 119.011 15.2498 131.565 30.4232C134.892 34.4571 138.524 38.3444 141.195 42.7989C148.568 55.1109 151.659 68.4999 149.466 82.8639ZM63.6901 19.5896C54.5135 17.1616 45.1074 23.6873 36.2876 29.531C26.461 36.0056 21.4266 46.8965 19.1515 58.2845C17.1569 68.2577 19.228 78.0717 24.3197 87.1145C28.1195 93.926 32.4876 100.404 37.3774 106.481C43.5652 114.128 51.1232 119.602 59.3376 124.325C63.2886 126.6 68.0044 128.601 72.4462 128.785C83.8214 129.206 95.2349 129.212 105.947 123.738C114.321 119.462 116.577 115.823 115.736 106.194C115.277 100.981 114.933 95.4436 116.214 90.4856C117.425 85.7762 118.654 81.1497 119.158 76.3128C120.655 61.9552 118.126 48.9103 107.33 38.3125C103.698 34.7439 99.5492 31.8188 95.8594 28.4668C87.2372 20.6539 77.3085 18.9524 63.6901 19.5896Z" fill="black"/>
</g>
<defs>
<clipPath id="clip0_729_1362">
<rect width="150" height="143.965" fill="white" transform="translate(0.160156 0.47168)"/>
</clipPath>
</defs>
</svg>
