<svg width="151" height="134" viewBox="0 0 151 134" fill="none" xmlns="http://www.w3.org/2000/svg">
<g clip-path="url(#clip0_729_1414)">
<path d="M85.2189 58.6431C86.5154 63.7822 85.4437 65.6956 80.5138 67.0078C75.7407 68.2887 75.3695 68.8219 77.1993 73.3598C78.5282 76.7586 80.0898 80.0618 81.873 83.2458C85.8201 90.1258 92.789 92.0131 99.8728 93.4142C109.137 95.2439 116.33 90.9518 122.912 85.1697C123.675 84.4516 124.307 83.6059 124.779 82.6707C127.764 77.0873 125.432 73.0984 119.174 73.7153C115.802 74.0447 112.524 75.4823 109.241 76.6011C107.788 77.1239 106.528 78.1695 105.106 78.7707C103.564 79.4451 101.776 79.5967 101.075 77.7722C100.579 76.4756 100.265 74.2276 100.981 73.4957C105.739 68.639 110.914 64.2214 117.779 62.5798C120.665 61.9426 123.603 61.5681 126.556 61.461C133.065 61.1317 136.819 65.2722 136.761 71.7914C136.714 76.9514 134.623 81.1651 131.951 85.29C126.771 93.2887 120.523 100.158 111.515 103.86C104.991 106.547 98.2365 105.898 91.529 104.435C90.0025 104.105 88.5439 103.363 87.0121 103.159C77.079 101.873 71.5844 95.2439 67.4335 86.9943C66.4245 84.9815 65.5932 82.8799 64.5999 80.8567C62.6499 76.8834 63.5543 72.6854 63.523 68.5553C63.4916 64.0593 63.523 63.9286 59.3406 62.9039C53.9349 61.5813 48.5292 59.9397 43.0295 59.4169C33.0964 58.4706 23.8377 61.2258 16.4611 67.8705C11.0658 72.7324 8.65576 79.4033 11.6043 86.759C16.0062 97.7377 23.4142 105.465 35.4751 107.807C36.4318 107.995 37.4565 107.833 38.6903 107.833C38.2877 105.559 38.0681 103.65 37.6081 101.857C36.0397 95.8086 38.4445 91.4432 43.3013 88.0503C44.1332 87.4356 44.9162 86.7574 45.6434 86.0219C48.1947 83.549 51.7497 81.5624 54.4734 83.6275C56.6691 85.2952 57.997 89.258 58.133 92.2588C58.3003 96.6973 57.469 101.34 53.8931 104.764C52.2515 106.332 52.3247 108.188 53.1612 110.055C55.1687 114.676 56.8208 119.538 59.4713 123.762C60.8149 125.906 64.0196 126.899 66.8584 128.687C65.0182 131.489 61.4527 132.713 57.9709 133.256C54.3689 133.821 51.1746 132.509 49.6062 128.624C48.6233 126.219 47.353 123.919 46.1348 121.629C43.087 115.879 42.5746 115.413 35.9195 116.872C32.5056 117.625 29.2904 117.735 26.2373 116.396C22.5735 114.857 19.0712 112.959 15.7814 110.729C9.48348 106.27 4.62479 100.068 1.80194 92.8861C-1.24595 85.3161 0.123769 77.8349 4.47341 70.9288C10.7992 60.8755 20.4395 55.8201 31.4966 52.8663C40.5619 50.4457 49.6323 50.085 58.7917 52.4637C61.4736 53.159 64.281 53.3786 67.0414 53.7237C70.4134 54.1419 72.4261 52.9708 76.3628 48.2866C74.9303 47.8579 73.7488 47.3142 72.468 47.1521C56.3921 45.061 40.9853 40.1101 25.3538 36.1369C22.513 35.3155 19.878 33.9027 17.6217 31.9911C14.676 29.5569 11.9997 26.814 9.63862 23.8094C5.57651 18.7069 6.19863 13.709 11.1809 7.82237C14.6313 3.74458 20.335 2.59443 25.3799 5.05156C25.6257 5.16657 25.7041 5.61618 26.1275 6.42651C23.9109 6.67222 21.8929 6.87088 19.8854 7.1166C16.1056 7.58711 15.1175 9.36461 17.376 12.2609C21.5949 17.6875 26.5458 22.0528 33.7394 23.4748C42.2453 25.1843 50.5577 27.8454 59.0792 29.4294C67.4439 30.9978 75.955 31.7663 84.4138 32.7753C87.6996 33.1561 91.0028 33.3672 94.3103 33.4079C96.8354 33.4445 99.3657 33.1047 101.708 32.9478C103.193 23.731 101.326 19.2402 94.326 15.0578C89.8665 12.3968 85.245 10.0076 80.6758 7.54006C79.1074 6.68268 77.4711 5.77824 77.9468 3.66093C78.4226 1.54361 79.9439 0.111158 82.1292 0.524166C86.3481 1.34495 90.52 2.43759 94.6449 3.66093C96.4537 4.18372 98.043 5.41229 99.8153 6.11283C108.494 9.54759 112.676 15.4395 112.937 24.7975C112.995 26.8887 112.937 28.9432 112.937 31.4526C117.224 32.7649 121.177 31.6565 124.826 29.8215C129.008 27.7304 132.966 25.1634 136.939 22.6802C137.902 21.976 138.716 21.0875 139.333 20.0662C140.996 17.6195 142.507 15.0735 144.148 12.6164C145.717 10.2586 147.593 10.0024 148.932 12.3445C149.868 13.9966 150.5 16.4432 149.977 18.1632C148.932 21.76 147.593 25.5398 145.345 28.4518C142.428 32.2368 138.586 35.3318 134.994 38.5626C132.928 40.3869 130.724 42.0491 128.402 43.5344C121.95 47.7168 114.647 49.1022 107.145 49.8079C105.961 49.9227 104.801 50.2171 103.705 50.681C97.6562 53.2741 91.6493 55.888 85.2189 58.6431Z" fill="black"/>
</g>
<defs>
<clipPath id="clip0_729_1414">
<rect width="150" height="132.91" fill="white" transform="translate(0.160156 0.47168)"/>
</clipPath>
</defs>
</svg>
