<svg width="151" height="404" viewBox="0 0 151 404" fill="none" xmlns="http://www.w3.org/2000/svg">
<g clip-path="url(#clip0_729_1474)">
<path d="M109.927 67.1134C110.572 69.9411 109.174 71.8478 107.454 73.909C101.856 80.608 94.7516 85.2458 87.3312 89.6195C80.5355 93.6325 74.0104 98.1028 67.4145 102.444C66.1489 103.419 64.9523 104.48 63.8331 105.62C64.4772 107.043 64.8444 108.525 65.7011 109.613C78.8608 126.277 94.378 140.268 112.723 151.012C113.277 151.334 113.876 151.592 114.449 151.875C121.683 155.47 122.276 155.354 127.332 148.893C128.079 149.962 129.161 150.825 129.316 151.83C130.411 158.916 128.891 165.119 124.105 170.909C117.393 179.026 108.375 183.824 100.117 189.847C94.0753 194.272 88.2523 199.007 82.2618 203.509C69.4113 213.171 55.9811 221.899 41.2368 228.457C38.5572 229.766 35.8117 230.935 33.0112 231.961C29.3782 233.146 25.61 234.537 21.6679 230.569C21.5069 236.74 22.9562 241.365 24.5021 245.964C28.3669 257.243 34.3445 267.298 41.7199 276.638C47.4205 283.852 52.5607 291.505 58.1518 298.809C68.9282 312.884 81.038 325.798 92.7612 339.074C104.678 352.601 117.779 364.84 129.889 378.128C131.674 380.061 134.314 381.239 136.492 382.856C138.849 384.621 141.129 386.489 143.577 388.415L140.762 391.417C146.34 393.149 146.044 399.552 150.199 402.902C149.503 402.902 148.672 403.153 148.138 402.863C143.113 400.113 137.439 399.256 132.324 396.267C112.491 384.673 98.6744 366.791 82.9253 350.888C73.2632 341.161 63.3049 331.789 53.3401 322.397C38.7569 308.658 25.7904 293.489 15.2266 276.522C5.04922 260.219 0.28905 242.338 4.70138 223.072C6.13137 216.83 4.74647 211.258 2.71744 205.68C-0.155404 197.783 -0.252024 189.615 0.701297 181.564C3.47752 158.001 11.1105 136.178 25.5456 117.06C26.1898 116.203 26.8339 115.359 27.478 114.483C31.0981 109.742 31.8968 105.124 29.6423 99.0239C24.9282 86.1322 23.3667 72.2998 25.0883 58.6816C26.6639 45.1557 32.4788 32.4751 41.7006 22.4554C47.9873 15.634 55.4271 9.68863 63.0537 4.33586C68.5546 0.503248 75.5242 0.00726289 82.2811 0.780226C84.8577 1.07009 86.7901 2.46786 87.2732 5.0895C88.1235 9.48251 89.8498 14.1074 89.2056 18.3007C88.0848 25.9144 83.6725 31.9307 76.4646 35.409C71.0796 37.9855 65.1214 39.802 60.3998 43.2803C54.2677 47.8279 51.2402 54.9456 49.5075 62.3725C47.6331 70.3791 48.8634 78.1152 52.2322 85.5614C53.8361 89.0977 54.6348 89.2652 58.1067 87.307C68.5224 81.4261 78.9703 75.616 89.328 69.6384C92.6808 67.7449 96.5135 66.8718 100.356 67.1263C103.312 67.2036 106.282 67.1134 109.927 67.1134ZM110.134 163.927C104.285 163.096 99.4087 163.219 95.1639 161.64C81.2699 156.487 68.2197 149.73 57.804 138.761C55.0149 135.817 52.3095 132.783 49.3851 129.981C46.5574 127.276 45.005 126.986 42.2996 129.775C38.3317 133.885 34.1384 138.117 31.4717 143.07C23.8467 157.257 18.8453 172.704 16.7081 188.668C16.5535 189.789 17.0559 190.994 17.3522 192.617L36.0322 186.723C36.6248 190.755 34.6344 193.216 32.6118 195.741C26.0996 203.799 22.6148 213.133 21.5391 223.349C21.4425 224.289 22.3121 225.326 23.3491 227.78C24.9659 221.152 28.9531 218.427 33.1142 215.825C47.2208 206.988 61.7396 198.833 75.2021 188.945C85.5469 181.345 96.4006 174.439 106.99 167.173C107.944 166.51 108.639 165.492 110.134 163.927Z" fill="black"/>
</g>
<defs>
<clipPath id="clip0_729_1474">
<rect width="150" height="402.534" fill="white" transform="translate(0.160156 0.47168)"/>
</clipPath>
</defs>
</svg>
