<svg width="151" height="93" viewBox="0 0 151 93" fill="none" xmlns="http://www.w3.org/2000/svg">
<g clip-path="url(#clip0_729_1350)">
<path d="M60.0013 64.3454C55.4849 62.7721 50.7924 62.145 48.4489 56.8309C44.1217 47.1631 37.8243 38.5048 29.9595 31.41C26.7523 28.4779 22.9731 26.1014 19.2213 23.8569C15.7225 21.772 13.3625 23.1968 12.6474 27.2236C9.97382 42.4949 18.4291 56.3798 29.6294 63.2067C44.5211 72.2946 61.03 74.7261 78.0396 74.0935C85.7071 73.7477 93.3334 72.7744 100.842 71.1834C108.714 69.5825 114.089 65.0496 115.948 56.5063C117.092 51.2472 119.683 46.2851 121.84 41.2791C123.369 37.7363 124.898 34.3421 124.541 30.2768C124.354 27.1552 123.047 24.2059 120.861 21.97C118.974 20.0061 117.219 17.9102 115.48 15.8142C112.108 11.7544 112.086 8.25016 115.326 4.22332C118.022 0.873113 124.194 -0.507677 128.249 1.23069C132.276 2.93568 135.746 5.73294 138.266 9.30638C142.75 15.5172 147.618 21.4089 149.186 29.2206C150.748 36.9222 150.572 44.4698 147.371 51.7423C145.17 56.7538 142.816 61.6994 140.395 66.5954C139.592 68.2458 138.36 69.6265 137.337 71.1449C134.206 75.7988 130.999 80.3978 127.985 85.1288C125.058 89.7168 121.213 92.6764 115.585 92.6159C101.343 92.4673 87.1 92.3628 72.863 92.0052C61.8112 91.7302 51.0839 89.1336 40.5107 86.218C36.0273 84.9803 31.8794 82.4332 27.693 80.2603C17.3069 74.8856 9.67676 66.7934 4.68171 56.1982C-1.13851 43.8316 -1.86466 31.6136 5.6114 19.5825C6.48059 18.1852 7.12972 16.6449 8.03191 15.2696C10.4469 11.5839 13.5936 10.0215 18.2696 10.6157C23.6497 11.2978 27.8306 13.5863 31.8079 17.107C40.4447 24.7536 48.7185 32.6533 54.2251 42.9624C57.832 49.5259 59.8128 56.8585 60.0013 64.3454Z" fill="black"/>
</g>
<defs>
<clipPath id="clip0_729_1350">
<rect width="150" height="92.1498" fill="white" transform="translate(0.160156 0.47168)"/>
</clipPath>
</defs>
</svg>
