<svg width="151" height="162" viewBox="0 0 151 162" fill="none" xmlns="http://www.w3.org/2000/svg">
<g clip-path="url(#clip0_729_1162)">
<path d="M11.7749 161.664C13.9071 152.322 15.6908 142.889 18.2959 133.68C19.9552 127.93 22.9419 122.587 25.0741 116.962C27.5216 110.499 31.2882 105.596 37.6764 104.518C38.0996 101.896 37.6764 99.0087 38.9043 97.8223C44.2472 92.6619 48.5448 86.1243 57.1565 85.22C63.13 84.5978 64.3827 84.0502 67.1123 89.3682C71.1211 96.9161 74.5867 104.74 77.4829 112.781C79.6399 119.103 83.3982 123.989 87.8368 128.494C92.6654 133.398 98.2821 132.9 102.936 127.748C108.968 121.111 112.577 113.03 115.92 104.874C120.948 92.637 125.801 80.3251 130.63 68.0132C131.422 65.9501 131.978 63.8044 132.289 61.6166C133.119 55.8091 129.8 52.0093 124.3 53.2621C113.742 55.6278 102.755 55.2537 92.3833 52.1752C77.0763 47.7615 61.7777 42.9993 47.0763 36.9014C33.1383 31.1686 19.8473 23.7018 6.56472 16.4838C-0.603427 12.5845 -1.39989 8.18739 2.41649 0.47168C9.67589 4.85221 16.7528 9.59779 24.2196 13.5137C38.0581 20.8395 52.5769 27.0203 66.0503 34.985C77.2008 41.564 89.9607 40.7925 101.485 45.1398C103.691 45.9695 106.462 45.7538 108.885 45.4136C117.322 44.2272 125.718 42.7255 134.148 41.4479C136.858 40.9412 139.613 40.7215 142.369 40.7925C149.007 41.1907 152.11 46.0275 148.874 51.6442C142.793 62.2305 139.209 73.7626 134.969 85.0956C133.243 89.6752 132.48 94.7029 128.216 97.9468C127.636 98.5454 127.262 99.3122 127.145 100.137C124.026 114.432 115.813 126.221 108.006 138.118C104.413 143.586 99.9248 148.539 95.3949 153.292C93.7356 155.01 90.807 155.466 87.4054 156.96C81.8053 140.989 76.7113 125.939 71.1858 111.055C69.4762 106.441 67.1033 102.101 64.1422 98.1708C60.7406 93.7073 55.1654 93.1182 50.9425 96.8102C45.7904 101.24 41.3601 106.476 36.6643 111.42C35.9176 112.25 35.5443 113.851 34.7561 114.034C27.9198 115.56 28.3678 121.177 27.2893 126.229C26.526 129.938 24.8003 133.439 23.6305 137.015C21.3739 143.785 18.9596 150.513 17.0348 157.374C16.1471 160.519 15.2262 162.593 11.5343 161.456L11.7749 161.664Z" fill="black"/>
</g>
<defs>
<clipPath id="clip0_729_1162">
<rect width="150" height="161.341" fill="white" transform="translate(0.160156 0.47168)"/>
</clipPath>
</defs>
</svg>
