<svg width="151" height="206" viewBox="0 0 151 206" fill="none" xmlns="http://www.w3.org/2000/svg">
<g clip-path="url(#clip0_729_1506)">
<path d="M60.0044 137.042C61.6174 138.401 63.176 139.824 64.857 141.047C66.4065 142.162 68.1238 143.041 69.6054 144.817L61.8439 143.91C61.776 144.042 61.5268 144.549 61.2051 145.188C51.9122 143.883 44.3229 138.899 36.7382 133.807C34.0197 131.994 30.8798 130.794 28.3696 128.768C19.7609 121.831 12.0856 114.097 6.54882 104.301C2.45742 97.0655 -0.392517 89.6257 0.250871 81.239C0.74927 74.7553 3.4225 68.9422 7.46407 63.9718C9.8881 61.004 13.6306 59.7127 17.355 58.8473C19.557 58.3353 21.7998 57.991 24.029 57.6013C25.8097 57.2887 26.6434 56.301 26.5074 54.4614C26.3942 52.9617 26.4123 51.4484 26.299 49.9305C25.3566 37.2032 28.0162 25.0106 32.3568 13.2302C34.3278 7.88377 37.9298 3.226 43.752 1.14632C45.0336 0.70449 46.3791 0.476413 47.7347 0.471215C51.0468 0.434968 52.5103 2.32435 52.3789 5.60019C52.1116 12.3512 51.7944 19.1204 51.9258 25.8714C52.2022 37.6518 56.1984 48.5848 60.5345 59.3729C61.3365 61.3575 62.8226 62.4041 64.8343 63.0203C69.5601 64.4702 74.2495 66.0469 78.9526 67.5512C79.6545 67.8262 80.3813 68.0325 81.1229 68.1674C83.4699 68.4393 84.58 67.6056 84.657 65.2268C84.7476 62.3814 84.5528 59.5315 84.5256 56.6816C84.4803 51.607 85.0784 46.7544 89.0973 43.0164C89.7063 42.3437 90.1842 41.563 90.5064 40.7147C92.9984 35.2776 97.6516 33.3021 103.193 32.8354C105.585 32.6315 108.018 32.1921 110.365 32.4458C116.382 33.1028 118.815 35.5313 120.039 41.4079C120.342 42.8759 120.723 44.3303 121.072 45.7938C122.345 51.1675 121.276 56.0382 117.32 59.9076C113.242 63.8993 112.73 68.4166 114.507 73.5003C115.698 76.8939 117.067 80.2241 118.236 83.6268C120.474 90.1287 117.542 95.303 113.754 100.178C111.793 102.706 108.988 103.141 106.002 102.842C104.869 102.729 103.737 102.534 102.622 102.389L102.092 103.223C103.542 104.618 104.847 106.227 106.473 107.378C119.4 116.503 131.991 126.145 146.209 133.295C149.734 135.071 150.831 137.667 149.694 141.486C149.135 143.491 148.338 145.422 147.319 147.236C145.96 149.57 143.423 150.807 141.112 149.429C134.846 145.705 129.178 148.224 123.442 150.458C116.151 153.267 108.902 156.121 101.652 159.103C96.4943 161.242 91.743 164.254 87.6066 168.006C82.02 173.026 81.5443 180.864 83.9819 186.17C86.7648 192.402 91.2008 197.753 96.8089 201.643C97.7513 202.296 98.5714 203.129 99.9805 204.33C97.9915 203.877 96.7137 203.496 95.4134 203.311C94.5434 203.188 93.1479 202.984 92.8172 203.428C90.3342 206.768 86.8545 205.241 84.068 204.865C81.2815 204.489 78.8348 202.278 76.2839 200.787C68.5814 196.31 69.1477 189.007 69.3244 182.111C69.5782 172.392 74.979 164.784 81.5579 158.16C87.1309 152.542 93.9001 148.568 101.299 145.682C107.008 143.462 112.653 141.088 118.331 138.786L119.065 137.481C118.158 137.001 117.166 136.575 116.296 136.027C111.122 132.647 106.066 129.076 100.796 125.864C87.507 117.758 74.97 108.696 64.345 97.2467C60.5526 93.1689 56.8826 88.9733 53.2443 84.755C51.663 82.9427 50.0727 82.0365 47.4175 82.1951C43.5527 82.4035 39.9416 81.0714 37.8664 77.4104C35.7188 73.6135 32.7238 71.697 28.2609 72.1093C25.2705 72.3857 22.2303 72.1727 19.2625 72.5624C15.7194 73.0155 14.3374 74.2252 14.1154 77.782C13.9342 80.6908 14.1743 83.867 15.1938 86.5629C19.5616 98.1076 27.5133 107.178 36.2308 115.624C40.7617 119.996 45.4058 124.233 50.0002 128.501L50.1089 128.401L43.6478 124.414C45.9826 127.925 49.357 130.619 53.2987 132.117L54.2909 132.687L60.0044 137.042Z" fill="black"/>
</g>
<defs>
<clipPath id="clip0_729_1506">
<rect width="150" height="205.064" fill="white" transform="translate(0.160156 0.47168)"/>
</clipPath>
</defs>
</svg>
