<svg width="151" height="96" viewBox="0 0 151 96" fill="none" xmlns="http://www.w3.org/2000/svg">
<g clip-path="url(#clip0_729_1294)">
<path d="M65.6846 48.9531C61.3612 56.7657 57.2875 64.1641 53.2025 71.5456C48.9132 79.2107 42.1446 82.5581 33.6341 82.6262C30.4569 82.6262 27.2739 82.4333 24.0967 82.4106C15.2685 82.3368 9.98632 75.6816 3.73963 71.0973C-0.504264 67.9882 -0.890072 57.1402 2.14533 52.5899C4.41479 49.1857 6.30412 47.7276 9.81043 46.6893C10.1055 46.9106 10.6615 47.1375 10.6501 47.3418C10.3324 54.0934 15.2685 57.6792 19.4443 61.5826C21.121 63.0762 23.1335 64.1428 25.3109 64.6918C29.1406 65.6783 33.0434 66.3557 36.9816 66.7173C40.9462 67.0704 44.9068 65.9985 48.1523 63.6941C51.3977 61.3898 53.7154 58.0039 54.689 54.1445C55.5798 50.8027 53.7358 47.9886 50.3997 48.7091C42.8141 50.3488 34.4681 50.1729 28.7037 56.9075C26.6612 59.2961 24.0343 60.845 20.6698 58.2976C20.1365 52.4991 23.3137 48.6978 27.9604 46.1106C36.3745 41.4014 45.1005 37.5661 54.9557 36.7491C62.7513 36.1023 62.6435 35.3533 65.3271 27.9492C70.1724 14.5254 78.6035 4.30144 93.2074 0.919942C96.2145 0.227756 99.613 0.414987 102.694 0.965331C118.421 3.80216 131 12.2389 141.099 24.1876C144.401 28.0967 145.995 33.481 148.202 38.2696C148.979 39.9717 149.269 41.8667 149.757 43.6823C151.283 49.4126 148.055 59.2224 143.368 62.6663C140.94 64.4478 138.222 65.0549 135.38 63.5457C132.214 61.8436 129.088 60.1075 125.916 58.4394C124.679 57.7926 123.357 57.3047 121.048 56.3231C122.143 61.0323 123.091 64.618 123.805 68.2378C124.639 72.4874 125.292 76.7767 125.99 81.0489C126.603 84.7765 125.559 88.0729 123.613 91.2615C120.776 95.9082 115.528 96.8557 112.101 92.5835C108.47 88.0445 105.491 83.0063 102.353 78.11C98.501 72.0846 95.0344 65.8379 89.355 61.1571C83.2332 56.1246 71.6476 49.9346 65.6846 48.9531ZM108.804 56.0508C109.315 55.2225 109.479 55.0749 109.497 54.9161C109.642 53.9941 109.725 53.0634 109.746 52.1303C109.633 45.4241 112.35 40.3064 117.945 36.5391C121.201 34.3434 122.325 34.0824 125.451 36.3576C127.119 37.5717 128.594 39.0526 130.239 40.3291C133.422 42.7518 136.293 45.7758 140.492 46.3716C140.832 45.7248 141.19 45.3673 141.138 45.078C141.059 44.1593 140.817 43.2621 140.424 42.4284C130.863 26.2131 117.128 15.9154 98.1832 13.68C84.8445 12.1027 75.5851 18.2983 71.9426 29.9634C71.0632 32.8002 71.8064 34.3718 74.1723 35.4214C76.5383 36.471 79.1425 37.1916 81.5481 38.2242C90.5578 42.0766 99.5336 45.9801 105.905 53.9459C106.569 54.7118 107.619 55.1884 108.804 56.0735V56.0508Z" fill="black"/>
</g>
<defs>
<clipPath id="clip0_729_1294">
<rect width="150" height="94.8748" fill="white" transform="translate(0.160156 0.47168)"/>
</clipPath>
</defs>
</svg>
