<svg width="151" height="171" viewBox="0 0 151 171" fill="none" xmlns="http://www.w3.org/2000/svg">
<g clip-path="url(#clip0_729_1306)">
<path d="M120.446 0.47168C125.371 3.24025 126.903 8.30028 128.342 12.7085C135.001 33.0964 143.884 52.7385 148.393 73.8589C151.343 87.6883 150.913 101.108 144.644 113.66C141.573 119.823 138.005 126.085 132.669 130.951C127.891 135.298 123.497 140.063 118.759 144.451C109.808 152.73 101.623 151.97 93.6269 147.864C86.2351 144.054 80.8592 139.31 78.6349 131.065C77.1633 125.689 76.7668 125.77 72.0092 122.39C68.0579 126.421 64.8391 131.125 61.7413 135.97C58.7308 140.674 55.7875 145.378 52.683 149.974C46.2118 159.584 37.0392 165.968 26.3681 169.704C22.0137 171.236 16.705 170.107 11.8264 170.026C10.2943 170.026 8.7756 169.354 7.23004 169.153C3.9978 168.689 0.85964 167.937 0.221256 164.14C-0.450727 160.175 2.90919 154.598 6.2691 153.133C10.301 151.352 14.1313 149 18.2573 147.481C21.7449 146.198 25.5416 145.076 29.1972 145.089C35.4466 145.089 38.8939 142.321 41.649 136.904C45.0089 130.252 49.6389 124.224 53.281 117.692C57.8371 109.508 61.7614 100.973 66.2973 92.7752C72.4325 81.6741 79.2733 71.0769 88.1435 61.864C93.3648 56.421 98.0082 50.4403 102.692 44.4866C105.004 41.5567 105.38 38.0288 104.842 34.2791C104.17 29.6357 103.828 24.9386 103.586 20.2481C103.115 11.089 106.334 6.51952 115.07 3.15961C116.906 2.35414 118.7 1.45703 120.446 0.47168ZM124.048 80.6056C121.951 81.197 120.513 81.8891 119.041 81.9496C114.599 82.2049 110.144 82.1915 105.696 82.3393C100.992 82.4872 94.5072 87.6077 94.4332 92.0025C94.3257 98.1981 94.2921 104.562 95.5353 110.589C98.2232 123.754 110.776 128.437 122.576 122.013C131.587 117.094 135.901 108.574 141.351 100.785C142.164 99.6295 142.258 97.7681 142.218 96.2494C141.869 84.6644 138.441 73.8925 133.267 63.6179C131.601 60.2983 129.753 57.0661 128.2 53.6994C126.507 50.017 124.585 46.7377 120.372 45.6356C114.741 56.0379 114.754 56.0312 118.638 66.1782C120.372 70.7073 122.045 75.2634 124.048 80.6056Z" fill="black"/>
</g>
<defs>
<clipPath id="clip0_729_1306">
<rect width="150" height="170.032" fill="white" transform="translate(0.160156 0.47168)"/>
</clipPath>
</defs>
</svg>
