<svg width="151" height="249" viewBox="0 0 151 249" fill="none" xmlns="http://www.w3.org/2000/svg">
<g clip-path="url(#clip0_729_1250)">
<path d="M149.907 232.795C142.411 231.825 138.278 228.535 134.934 223.514C126.964 211.514 118.831 199.629 110.535 187.858C109.012 185.674 106.538 184.161 103.348 181.306C102.596 185.13 102.351 187.106 101.798 188.982C100.393 193.831 99.5321 199.006 97.1847 203.366C94.2028 208.904 90.4324 209.511 86.5532 204.771C82.6741 200.031 79.656 200.71 75.088 203.384C56.3538 214.369 37.0668 224.194 19.6378 237.254C14.0729 241.432 7.75566 244.605 1.36593 248.493C-1.35311 244.396 1.08496 241.36 3.01547 238.043C11.662 223.251 25.2028 213.698 39.1333 204.753C48.7405 198.571 59.0729 193.559 69.0427 187.913C75.6318 184.179 76.094 183.608 73.4294 176.438C68.5986 163.478 63.6046 150.571 58.085 137.873C53.2451 126.662 55.0578 116.239 60.2874 105.907C61.9188 102.689 63.3961 99.2813 65.6167 96.4989C68.5442 92.81 71.7164 89.0578 75.523 86.3931C82.8916 81.236 90.7134 76.7043 98.4807 72.1273C104.408 68.6378 106.692 62.7919 109.067 56.9188C111.958 49.7587 115.293 42.7436 117.614 35.4113C118.703 31.6914 118.8 27.7511 117.895 23.9823C115.837 15.5442 118.892 8.31156 120.704 0.73452L123.16 0.47168C124.067 3.39011 125.136 6.26322 125.78 9.22697C126.423 12.1907 126.577 14.9913 127.139 19.3508C132.079 17.4475 135.777 15.6258 139.683 14.665C142.402 14.0034 145.81 13.6318 148.112 14.7647C151.502 16.4233 149.825 19.9853 149.082 22.8674C143.753 43.5049 138.487 64.1514 133.058 84.7617C132.233 87.9158 130.719 90.8886 129.432 93.9249C128.852 95.3025 127.565 96.6439 127.538 97.9581C127.23 111.789 119.789 122.946 114.106 134.801C110.798 141.698 115.248 147.753 117.731 153.617C124.185 168.698 131.553 183.372 138.025 198.444C141.931 207.508 144.849 217.088 148.157 226.451C148.801 228.082 149.127 229.777 149.907 232.795ZM112.339 105.109L110.263 104.674C107.735 108.816 107.735 108.816 110.354 115.052L112.339 105.109ZM85.3025 120.517C82.4112 124.614 83.2179 127.197 88.2844 128.031C87.2874 125.484 86.2632 122.973 85.3025 120.472V120.517Z" fill="black"/>
</g>
<defs>
<clipPath id="clip0_729_1250">
<rect width="150" height="248.021" fill="white" transform="translate(0.160156 0.47168)"/>
</clipPath>
</defs>
</svg>
