<svg width="151" height="138" viewBox="0 0 151 138" fill="none" xmlns="http://www.w3.org/2000/svg">
<g clip-path="url(#clip0_729_1382)">
<path d="M104.765 43.7134C107.532 42.9403 109.41 42.2714 111.343 41.8726C118.13 40.5594 124.72 39.4181 131.758 41.8419C138.594 44.1798 140.502 49.4876 141.815 55.225C143.368 61.9748 139.698 68.8597 133.556 72.0321C130.85 73.425 128.064 74.6768 125.266 75.8734C122.812 76.9227 121.1 78.512 121.001 81.2917C120.891 84.3598 123.278 85.4827 125.524 86.4093C127.978 87.4218 130.66 87.8268 133.071 88.8638C137.324 90.7046 141.662 92.5455 145.565 95C149.651 97.5465 152.314 104.591 147.798 110.021C145.76 112.577 143.517 114.962 141.091 117.152C138.741 119.177 135.845 120.398 132.605 119.25C129.163 118.023 125.554 117.047 122.394 115.292C113.853 110.549 105.507 105.475 97.0823 100.498C91.8849 97.4299 88.8721 92.8585 87.2644 87.0843C84.7797 78.1999 84.6065 68.828 86.7612 59.8578C89.8293 46.3582 81.1711 32.9996 71.5618 27.0781C59.725 19.8128 46.5444 17.702 33.3761 15.3211C28.7493 14.4866 24.0981 15.3825 19.68 17.5609C17.1641 18.7881 15.808 20.224 15.7221 23.0466C15.5012 30.4101 16.4278 37.1109 20.1402 44.0693C25.9819 55.0041 33.7626 64.46 41.1813 74.0509C51.8706 87.8759 64.1001 100.516 75.9124 113.445C79.0296 116.857 82.9997 119.49 86.6139 122.441C87.1211 122.751 87.6838 122.96 88.2707 123.055C89.9152 123.521 92.2838 123.435 93.0508 124.509C94.1063 125.982 94.4069 128.369 94.2044 130.277C93.732 134.781 89.2218 138.07 84.8528 136.726C81.7415 135.766 78.8926 134.103 76.526 131.866C63.9774 119.668 51.705 107.199 39.3466 94.8098C32.474 87.9372 25.1106 81.4696 18.8516 74.1062C8.75138 62.1528 0.160668 49.1256 0.160668 32.613C0.136543 27.3095 0.965282 22.0367 2.61516 16.9963C5.18624 9.3874 11.1261 4.76683 18.8516 2.5087C28.51 -0.356921 38.2789 0.164659 47.9864 1.83371C59.6452 3.83412 71.2672 6.31316 82.1038 11.2835C87.4485 13.738 93.0324 16.2845 96.3399 21.4512C98.4814 24.7893 99.8436 28.6736 101.249 32.4289C102.574 35.9327 103.501 39.5899 104.765 43.7134Z" fill="black"/>
</g>
<defs>
<clipPath id="clip0_729_1382">
<rect width="150" height="136.586" fill="white" transform="translate(0.160156 0.47168)"/>
</clipPath>
</defs>
</svg>
