<svg width="151" height="172" viewBox="0 0 151 172" fill="none" xmlns="http://www.w3.org/2000/svg">
<g clip-path="url(#clip0_729_1234)">
<path d="M11.5525 88.4667C4.12149 85.3683 1.92366 79.8202 0.991633 73.592C-2.47199 50.4802 4.88348 31.6381 23.0958 16.8453C31.0181 10.4218 40.0739 6.98971 49.6713 4.57148C55.5783 3.09156 61.4854 1.52979 67.4932 0.874846C83.917 -0.926237 88.955 2.9908 90.0193 19.5469C90.8128 32.0222 87.1665 42.8476 78.7279 52.3946C73.9418 57.8231 70.6608 64.5803 66.7627 70.7833C64.8734 73.762 62.8204 76.6967 61.5357 79.9273C60.4966 82.5281 59.8039 85.6328 60.1503 88.3596C62.1277 103.751 68.1733 117.479 78.8035 128.796C84.4712 134.797 91.896 138.387 99.6293 141.353C107.363 144.319 114.995 147.934 122.747 151.051C129.549 153.784 136.52 156.089 143.29 158.866C145.853 159.918 149.726 161.474 150.091 163.363C150.721 166.789 146.457 167.897 143.951 169.44C139.543 172.154 134.713 171.455 129.971 170.07C119.265 166.971 109.107 162.62 99.1129 157.815C95.8914 156.288 92.5614 155.002 89.1502 153.967C71.7629 148.627 59.2749 137.833 51.2141 121.453C47.675 114.268 44.2869 107.158 42.6181 99.2795C41.157 92.3522 43.21 86.5522 47.6183 81.2749C57.2654 69.6827 65.753 57.1728 72.9594 43.9245C77.8336 35.0262 76.8323 25.2147 72.1155 16.1463C70.3144 12.6952 67.2098 11.1775 63.1353 12.034C53.1097 14.087 42.8952 15.4661 33.5371 19.994C30.0099 21.6375 26.8642 23.9984 24.3008 26.9261C21.7375 29.8538 19.8128 33.2839 18.6498 36.9973C16.0363 45.4863 14.0904 54.5358 16.622 63.5916C17.456 66.5645 18.7295 69.396 20.4005 71.9924C22.6361 75.4246 22.7684 75.1412 19.6574 78.4096C17.7682 80.3492 16.3512 82.6856 14.6761 84.8078C13.6748 86.0359 12.5979 87.2324 11.5525 88.4667Z" fill="black"/>
</g>
<defs>
<clipPath id="clip0_729_1234">
<rect width="150" height="170.82" fill="white" transform="translate(0.160156 0.47168)"/>
</clipPath>
</defs>
</svg>
