<svg width="151" height="174" viewBox="0 0 151 174" fill="none" xmlns="http://www.w3.org/2000/svg">
<g clip-path="url(#clip0_729_1502)">
<path d="M144.281 160.84C140.007 158.537 135.62 156.122 131.185 153.789C123.062 149.511 114.148 147.5 105.327 145.563C94.8855 143.265 84.2639 141.797 73.7107 140.006C72.2762 139.762 70.7833 139.753 69.3488 139.645C67.4704 139.499 66.1824 140.26 65.7579 142.153C64.1673 149.242 60.4203 155.414 56.7366 161.44C53.4238 166.865 49.7499 172.661 42.1923 173.115C40.9091 173.193 39.4796 173.408 38.3477 172.969C33.7077 171.183 28.7995 170.261 24.745 166.846C17.6412 160.854 10.8935 154.502 5.60469 146.93C1.05747 140.406 -0.494056 132.78 0.40368 124.667C1.01355 119.158 2.69193 114.396 6.68783 110.381C8.70286 108.356 10.1031 105.702 11.8596 103.189C11.4546 102.321 11.196 101.35 10.6252 100.618C9.23936 98.9077 8.26843 96.8997 7.78848 94.7514C7.30852 92.603 7.33259 90.3727 7.85879 88.2352C8.00436 87.7618 8.05087 87.2636 7.9954 86.7715C6.45852 78.8724 10.9862 73.9495 16.4312 69.4657C16.7665 69.099 17.0717 68.7057 17.3436 68.2898C16.2556 66.2797 15.1919 63.9719 13.8307 61.8593C10.5862 56.8242 8.74677 51.4963 8.95169 45.3927C9.22491 37.8839 9.69818 30.4825 13.2111 23.6323C16.0945 18.0361 20.2563 13.5572 25.3305 9.93698C34.181 3.61867 44.2269 0.959618 54.946 0.70591C62.5378 0.530266 70.1783 0.21801 77.7261 0.842522C85.9618 1.5207 94.0219 3.76992 101.721 6.77051C112.255 10.9079 122.618 15.4698 133.02 19.9438C139.992 22.9151 143.539 28.365 143.515 35.9274C143.515 37.7961 142.875 39.7526 142.153 41.5139C140.119 46.4807 137.762 51.3353 139.465 56.9462C139.569 57.4132 139.525 57.901 139.338 58.3416C136.747 64.8062 136.669 71.7051 136.728 78.4089C136.806 87.7766 137.401 97.1784 139.655 106.4C142.187 116.802 144.305 127.301 146.725 137.733C147.457 140.889 148.569 143.953 149.55 147.052C151.243 152.467 149.457 157.449 144.281 160.84ZM133.844 139.523C133.703 138.103 133.703 137.328 133.542 136.596C132.776 133.112 131.898 129.648 131.19 126.155C129.726 118.836 127.98 111.547 126.965 104.165C125.755 95.3439 124.945 86.4544 124.413 77.5697C123.891 68.8412 123.891 60.0834 123.75 51.3402C123.711 48.8031 122.74 46.8661 120.564 45.7245C113.889 42.2018 108.961 36.3714 102.726 32.3853C96.7639 28.5845 90.3188 25.5937 84.0493 22.3052C83.2902 22.0105 82.487 21.8456 81.6732 21.8173C74.3108 20.8415 66.9532 19.8267 59.5713 19.0168C56.1937 18.6721 52.7973 18.5466 49.4035 18.6411C42.8363 18.7777 35.9326 19.5632 30.7218 23.2762C19.5001 31.2924 17.1728 47.2857 31.8342 57.5365C36.8157 61.0201 39.5089 64.4354 37.9964 70.622C37.2401 73.6275 36.3424 76.0962 33.2247 77.3892C29.9504 78.808 26.7534 80.3992 23.6472 82.156C20.432 83.9417 20.1588 86.2787 22.9008 88.7182C24.3896 89.9582 26.0131 91.0269 27.7407 91.9042C31.5805 94.0119 32.527 95.8367 31.9903 100.369C31.9569 101.175 32.0109 101.981 32.1513 102.775C32.5807 107.058 32.0586 108.42 27.97 109.761C21.7005 111.815 17.7241 116.382 14.221 121.471C11.4839 125.408 11.6888 129.17 14.5089 133.122C15.5432 134.586 16.6508 135.971 17.6753 137.425C20.1148 140.875 20.9443 141.026 24.9938 139.748C33.0344 137.207 41.1059 134.768 49.2083 132.429C53.1115 131.302 53.8775 130.478 53.8239 126.277C53.7507 120.602 53.7312 114.923 53.6677 109.249C53.6189 104.37 53.5262 99.5301 53.4872 94.6657C53.4335 87.8693 52.8871 81.0045 53.4872 74.2861C54.1947 66.631 56.2243 59.7321 64.3088 55.5654C73.1789 50.9889 81.8049 49.2812 91.3482 52.3355C97.8422 54.414 102.975 58.0342 105.951 64.3183C107.547 67.6848 108.932 71.1489 110.693 74.4374C113.318 79.3164 114.187 84.5808 114.182 89.9672C114.182 94.8072 113.933 99.6081 112.655 104.419C110.215 113.562 104.361 120.032 97.2665 125.599C94.6513 127.658 93.9683 127.209 91.4995 124.769C89.6065 122.896 89.1673 120.934 90.4749 118.651C91.8362 116.28 93.0559 113.923 95.7784 112.533C99.0042 110.854 101.439 107.972 102.555 104.512C104.507 98.5543 105.073 92.4311 102.658 86.386C101.399 83.2245 99.7938 80.1751 98.7936 76.9403C96.237 68.6997 90.9531 63.7133 82.3807 62.3033C81.8928 62.2252 81.4048 62.113 80.9511 62.0154C72.5934 60.2688 66.9484 64.1476 65.8262 72.598C65.5373 75.3431 65.4655 78.1067 65.6115 80.863C65.8945 91.2358 66.2897 101.613 66.5873 111.991C66.7093 116.207 66.5873 120.437 66.7435 124.676C66.8703 127.901 67.2704 128.18 70.4661 128.448C89.8745 130.032 109.095 133.407 127.882 138.528C129.697 138.996 131.585 139.133 133.844 139.523ZM29.4337 149.432C33.1906 152.892 36.1033 156.175 40.4798 157.19C42.1923 157.585 44.5977 157.4 45.9589 156.439C47.697 155.268 49.1787 153.756 50.3136 151.995C51.4485 150.233 52.2129 148.259 52.5602 146.193C53.0481 143.226 52.3748 142.29 49.2522 142.992C44.3732 144.085 39.5869 145.432 34.8055 146.847C33.1808 147.33 31.7122 148.305 29.4337 149.432Z" fill="black"/>
</g>
<defs>
<clipPath id="clip0_729_1502">
<rect width="150" height="172.765" fill="white" transform="translate(0.160156 0.47168)"/>
</clipPath>
</defs>
</svg>
