<svg width="151" height="149" viewBox="0 0 151 149" fill="none" xmlns="http://www.w3.org/2000/svg">
<g clip-path="url(#clip0_729_1494)">
<path d="M88.7127 122.834C86.0409 125.509 82.9014 126.396 79.5861 126.826C79.0322 126.898 78.3924 126.617 77.8498 126.374C77.3072 126.13 76.8357 125.625 76.2707 125.401C68.4425 122.362 66.0851 115.866 65.4826 108.3C65.1271 103.791 65.2544 99.2371 66.9794 95.0348C68.7606 90.7054 70.6615 86.361 74.3062 83.098C76.6359 80.9812 79.6364 79.7518 82.7817 79.6255C88.6753 79.3186 94.4154 79.8874 99.9947 82.1925C105.043 84.2842 110.285 85.9157 115.453 87.7081C116.164 87.9445 116.911 88.0596 117.66 88.0486C119.453 88.0486 120.347 87.1655 119.939 85.4929C119.496 83.8203 118.847 82.209 118.008 80.6957C117.316 79.3935 116.253 78.2933 115.438 77.051C113.106 73.4961 110.199 71.5765 105.589 71.5653C100.657 71.5653 95.7176 70.4427 90.7932 69.7243C83.8556 68.699 76.8844 68.931 69.9692 69.5222C66.5678 69.8141 63.1215 71.019 59.9782 72.4634C56.0604 74.2445 55.0239 77.3279 56.9846 82.2336C58.081 85.0064 59.4094 87.6856 60.6667 90.3948C61.7519 92.7373 62.4816 95.0199 60.3786 97.2576C60.0044 97.6654 59.982 98.4138 59.7949 99.0051C58.8369 102.025 56.5992 103.518 53.6131 103.447C50.41 103.376 47.1096 103.2 44.0412 102.377C36.5573 100.367 28.9948 98.8928 21.2789 98.3427C18.8075 98.1379 16.3192 98.3581 13.9222 98.9938C10.3524 100.008 9.51421 101.879 10.1354 105.576C10.9511 110.358 13.5031 114.37 15.883 118.452C16.5079 119.522 18.2966 120.405 16.4518 122.048C16.2385 122.239 17.2002 124.02 17.8662 124.888C20.5679 128.45 23.4081 131.912 26.0986 135.482C27.064 136.758 28.572 137.727 28.1866 139.871C28.0519 140.619 29.3952 141.641 30.1099 142.49C31.5356 144.197 32.9912 145.858 34.0989 148.062C33.3081 147.68 32.5398 147.252 31.7976 146.782C30.8022 146.068 30.0164 145.001 28.5346 146.034C28.209 146.255 27.1538 145.798 26.7047 145.372C24.4596 143.224 22.3229 140.971 20.1301 138.775C17.5108 136.155 14.8914 133.566 12.2084 130.916L11.1158 132.26C10.897 132.143 10.6976 131.992 10.5245 131.815C6.3747 126.508 2.29223 121.165 0.79545 114.366C-0.701332 107.413 0.305254 101.033 5.06128 95.4914C5.65718 94.8576 6.20738 94.1823 6.70774 93.4707C9.7013 88.7521 14.491 87.0907 19.5277 87.1655C26.0948 87.2628 32.647 88.3106 39.2029 88.9878C41.1599 89.1862 43.102 89.5042 45.3397 89.8073C45.089 87.0084 44.7559 84.49 44.6736 81.9492C44.6288 80.5945 44.8304 79.2429 45.2686 77.9603C48.4904 68.8412 54.6235 62.4536 63.8137 59.3965C71.1592 56.9567 78.7441 55.677 86.5573 56.3617C87.5533 56.4426 88.5558 56.3591 89.5247 56.1148C92.6754 55.3215 93.4014 53.2859 91.347 50.7264C90.4564 49.6038 89.2253 48.7356 88.0578 47.8787C86.7594 46.9245 85.3711 46.0901 83.9941 45.2594C82.4973 44.3538 81.0828 43.0815 79.4626 42.7223C74.7926 41.6858 71.0245 38.8157 67.4172 36.2001C63.1776 33.1279 59.3421 29.1727 56.9397 24.2483C55.9144 22.1453 54.8068 20.0498 54.0921 17.8383C52.8498 13.9916 55.2147 10.9531 57.2952 8.33C60.4272 4.38598 65.404 2.8443 69.7597 0.531771C70.1937 0.29977 71.0095 0.782482 72.2743 1.08184C71.0507 1.92004 70.3472 2.33914 69.7148 2.8443C65.6435 6.08483 63.6528 9.91659 67.3162 15.088C70.9796 20.2594 75.3726 24.5813 81.4608 26.8527C83.7883 27.7208 86.0185 28.8584 88.3609 29.6891C92.971 31.3243 94.9992 30.7069 96.8552 26.5421C98.5027 22.7723 100.723 19.2797 103.437 16.1881C104.399 15.0406 105.108 13.703 105.518 12.2628C106.146 10.1636 107.239 8.8202 109.417 8.23271C110.566 7.92213 111.591 7.16251 112.852 6.51516C115.617 9.98021 114.663 13.5276 113.29 16.8093C112.283 19.1817 110.547 21.236 109.05 23.3764C107.613 25.442 106.304 27.4926 106.412 30.183C106.536 33.1242 108.152 35.1299 111.048 34.7519C115.539 34.1645 120.171 34.9877 124.49 32.4656C127.644 30.6208 131.375 29.734 134.892 28.5403C142.167 26.0818 148.831 30.2766 149.976 37.9476C150.638 42.3855 149.628 45.7496 146.122 49.2183C141.762 53.5366 136.924 53.776 131.607 53.7948C127.805 53.7948 123.973 53.6301 119.715 54.8724C120.684 56.4628 121.451 57.8099 122.293 59.1046C125.133 63.4715 128.179 67.7111 130.81 72.2014C135.764 80.6508 133.983 88.8718 128.793 96.3745C125.099 101.714 119.195 103.069 113.125 101.725C108.059 100.603 103.198 98.5261 98.2622 96.8235C93.2255 95.0872 88.4994 92.4342 83.0661 91.8617C79.0697 91.4388 77.6103 92.3743 76.6561 96.2585C74.4633 105.205 77.7263 112.349 83.9791 118.519C85.4497 119.975 87.0438 121.315 88.7127 122.834Z" fill="black"/>
</g>
<defs>
<clipPath id="clip0_729_1494">
<rect width="150" height="147.598" fill="white" transform="translate(0.160156 0.47168)"/>
</clipPath>
</defs>
</svg>
