<svg width="115" height="601" viewBox="0 0 115 601" fill="none" xmlns="http://www.w3.org/2000/svg">
<g clip-path="url(#clip0_729_1178)">
<path d="M45.2759 0.998077C43.8929 27.5553 42.5098 54.1023 41.1267 80.6389C39.5785 109.281 37.2097 137.923 36.7297 166.535C35.5376 236.685 44.6102 306.03 53.3267 375.545C56.2993 399.295 62.8793 422.983 59.4113 447.569C58.5597 453.576 63.0805 460.187 64.4275 466.658C72.9582 507.423 89.1991 544.999 111.06 580.236C112.393 582.747 113.582 585.332 114.621 587.977C112.624 588.148 111.354 588.318 110.1 588.334C108.846 588.349 107.329 588.194 104.883 588.055C106.787 592.7 108.366 596.632 109.945 600.534C101.941 597.158 99.6652 589.448 94.6179 584.215C89.5707 578.982 89.4469 567.185 77.1849 571.458C76.0392 571.86 72.726 567.603 71.1778 565.048C60.8666 548.018 49.6574 531.374 44.2231 511.681C39.7178 495.332 33.912 479.338 28.6015 463.221C27.6416 460.326 26.1089 457.648 25.0561 454.783C22.4396 447.708 18.6 440.849 17.6091 433.464C12.0819 392.591 6.35351 351.78 2.49842 310.814C0.160598 285.779 0.8573 260.435 0.470244 235.229C0.160598 217.734 -0.133565 200.193 0.594102 182.714C2.2507 143.621 3.84538 104.497 6.8799 65.4972C8.26391 47.3791 16.4495 30.4549 29.7937 18.1215C34.779 13.3684 37.6587 6.41687 41.5137 0.47168L45.2759 0.998077Z" fill="black"/>
</g>
<defs>
<clipPath id="clip0_729_1178">
<rect width="114.46" height="600" fill="white" transform="translate(0.160156 0.47168)"/>
</clipPath>
</defs>
</svg>
