<svg width="151" height="171" viewBox="0 0 151 171" fill="none" xmlns="http://www.w3.org/2000/svg">
<g clip-path="url(#clip0_729_1354)">
<path d="M83.5234 170.205C80.7538 167.105 77.8963 164.242 76.5425 159.835C74.5686 153.334 70.4348 147.836 65.0867 143.604C59.3149 139.011 53.2589 134.748 47.115 130.66C44.8208 129.11 42.852 127.813 43.2396 124.356C38.7803 124.708 35.22 120.46 30.7039 123.116C26.0533 118.6 20.2608 117.432 13.3936 116.848C14.4994 120.465 16.6179 122.083 18.8037 123.685C20.8034 125.142 23.2423 126.18 24.591 129.162C20.6484 129.508 18.0234 127.41 15.1763 126.253C12.3291 125.095 9.83334 123.214 6.36095 122.718C2.69737 122.202 -0.263457 119.065 0.222264 113.934C4.87279 107.671 11.4817 109.418 18.5143 110.937C17.9976 112.26 17.4809 113.428 16.9641 114.719C18.3955 116.786 21.0101 116.978 22.8548 116.326C25.9552 115.226 28.5078 116.094 31.3549 117.458L32.3212 114.709L60.6584 131.601L62.1414 128.904C65.1229 131.487 68.1716 133.704 70.6983 136.417C73.6333 139.558 76.3565 142.447 81.317 139.791C83.3529 133.823 85.3578 127.441 87.7089 121.189C91.1503 112.043 94.819 102.985 98.4154 93.9006C100.829 87.8033 103.066 81.6801 102.343 74.9265C102.172 73.3298 102.002 71.8572 100.11 71.3094C98.4619 70.8289 97.3768 71.1182 96.0954 72.5186C93.4549 75.3967 93.2999 75.2314 89.3779 73.1955C88.8095 72.901 87.9879 72.5341 87.5074 72.7356C85.9314 73.3867 84.3399 73.8207 83.5338 71.9812C82.5623 69.7748 80.4644 68.1212 81.5806 64.9279C84.6396 56.2056 87.1767 47.2972 89.8895 38.4509C90.2409 37.3038 90.4321 36.1102 90.6697 34.9269C91.7032 29.7958 91.512 29.5271 86.3964 28.4988C82.4073 27.6979 81.4772 26.8453 80.8623 23.4814C80.2061 19.8643 80.5471 16.4074 83.9627 14.4077C90.0187 10.8785 96.4881 8.021 102.368 4.24374C110.931 -1.26454 119.358 -0.0967442 127.941 3.63917C133.294 5.9696 138.575 8.47572 143.851 10.987C148.502 13.2037 151.354 21.1355 149.695 25.972C148.662 28.9742 146.171 29.5891 143.81 30.359C138.317 32.1004 133.475 34.8958 128.897 38.3476C123.952 42.0577 120.557 46.9769 117.596 52.2165C116.739 53.7666 116.511 55.8335 116.604 57.6731C116.93 64.189 117.524 70.6894 118.01 77.1949C119.043 91.3222 115.669 104.09 106.389 115.045C106.053 115.438 105.743 115.975 105.309 116.135C100.327 117.949 99.8003 122.739 98.2398 126.769C94.1318 137.404 91.3983 148.343 90.6594 159.793C90.2667 165.824 88.7062 167.591 83.5234 170.205ZM125.461 21.1406C121.141 16.8208 109.887 16.3609 105.629 20.257C105.116 20.6899 104.755 21.2743 104.595 21.9261C104.151 25.2796 103.216 28.6125 104.88 31.9867C105.913 34.1156 106.43 36.5132 107.267 38.7454C107.808 39.911 108.419 41.0429 109.096 42.1352C115.984 35.7846 119.663 27.61 125.461 21.1406ZM49.2491 127.627C49.616 130.03 49.616 130.03 52.4063 129.829L49.2491 127.627ZM59.0669 134.086L58.2504 134.975L61.8003 137.683L62.4152 136.856L59.0669 134.086Z" fill="black"/>
</g>
<defs>
<clipPath id="clip0_729_1354">
<rect width="150" height="169.734" fill="white" transform="translate(0.160156 0.47168)"/>
</clipPath>
</defs>
</svg>
