<svg width="151" height="277" viewBox="0 0 151 277" fill="none" xmlns="http://www.w3.org/2000/svg">
<g clip-path="url(#clip0_729_1526)">
<path d="M73.2151 149.778C73.1154 162.991 79.1494 173.406 83.4873 184.871L80.4898 182.702C79.6786 184.511 78.9715 186.081 78.0866 188.047C74.074 183.8 69.1939 181.149 66.9729 176.083C64.6521 170.808 61.9973 165.576 60.5181 160.032C57.7809 149.812 61.4811 144.915 69.7795 139.432C71.4496 138.33 74.2909 138.477 76.4859 138.794C82.6674 139.692 88.5539 141.609 93.8765 145.032C95.7982 146.264 97.8066 147.361 100.249 148.802C100.487 147.435 100.843 146.52 100.761 145.648C100.37 141.479 99.7457 137.332 99.4594 133.163C99.3292 131.346 98.6569 130.183 97.1169 129.368C95.577 128.552 94.0804 127.698 92.5882 126.865C88.4368 124.579 83.9514 122.722 80.2425 119.864C77.7526 117.946 75.8526 114.819 74.6033 111.843C73.3539 108.867 71.5971 107.505 68.7428 106.824C63.5677 105.614 58.3709 104.481 53.2695 103.006C51.3338 102.418 49.5659 101.377 48.1117 99.9699C44.7889 96.7252 41.9649 92.9686 40.9065 88.353C39.6876 83.0391 38.8894 77.6298 37.87 72.2638C37.8253 71.6883 37.6692 71.1269 37.4102 70.6111C33.8748 65.4056 36.6033 60.5775 38.4252 55.8145C40.0693 51.5721 41.8044 47.2385 44.1816 43.3734C47.7864 37.539 51.3478 31.2056 57.6291 27.9826C63.7021 24.8506 70.3651 22.621 77.5227 23.1285C79.1494 23.2456 80.8021 23.007 82.4418 22.9333L82.611 21.9529C79.735 20.4216 77.0021 18.4479 73.9352 17.4589C69.311 15.9623 64.5133 14.6349 59.6983 14.1577C50.7535 13.2685 41.7307 13.5201 33.1287 16.4481C28.0804 18.1467 23.2127 20.3408 18.5967 22.9984C11.7862 26.9632 9.74308 33.6305 9.86888 41.1524C9.99468 48.4748 12.7883 55.2549 14.1374 62.3257C14.2935 63.1325 14.5061 63.9264 13.9638 65.1106C10.3027 59.9355 6.00382 55.0901 3.14514 49.4942C-0.455308 42.4842 -0.876083 34.5545 2.32962 27.2668C4.8197 21.543 8.92455 16.6694 14.1417 13.2424C31.0595 2.16779 49.4652 -1.5064 69.4759 1.45204C78.8327 2.83149 87.6039 6.11094 96.6831 8.35363C98.774 8.86984 100.427 9.03034 102.344 7.67692C104.188 6.37555 106.517 5.7856 108.526 4.68811C111.996 2.80546 115.696 2.44976 119.461 2.87487C121.791 3.13948 123.964 4.65774 126.471 3.20021C126.905 2.94861 128.107 4.03309 129.118 4.58834C128.597 6.28879 128.146 7.76801 127.816 8.92623C130.102 13.5634 132.176 18.0011 134.479 22.313C135.104 23.4885 136.253 24.9157 137.412 25.1847C143.242 26.6162 144.196 31.5093 145.137 36.0945C145.753 39.0963 145.745 42.2673 144.161 45.3602C143.398 46.8835 143.197 48.6275 143.594 50.2846C143.99 51.9417 144.96 53.4055 146.33 54.4177C151.536 58.3218 150.096 63.2844 149.749 68.1905C149.64 69.7435 148.929 71.227 148.642 72.793C148 76.2417 146.521 78.8661 143.138 80.5231C139.754 82.1802 139.468 86.0279 138.665 89.0601C136.305 97.9441 134.627 107.006 132.475 115.955C131.226 121.161 129.59 126.236 128.111 131.368C127.951 131.919 127.478 132.439 127.486 132.968C127.625 142.724 122.58 151.456 122.507 161.347C122.394 177.18 120.993 193.013 120.025 208.834C119.821 212.17 118.837 215.414 115.87 217.405C114.438 218.364 114.091 219.47 114.03 220.997C113.809 226.203 113.631 231.408 113.228 236.575C112.49 246.061 111.623 255.544 110.768 265.022C110.445 269.047 109.901 273.052 109.137 277.017C107.81 275.915 107.589 274.449 107.528 272.987C107.411 270.245 107.502 267.495 107.311 264.745C107.137 262.181 106.686 259.635 106.404 257.075C106.261 255.813 106.218 254.538 106.14 253.271C106.096 252.573 106.331 251.462 105.984 251.237C103.116 249.38 104.248 246.621 104.248 244.148C104.188 233.911 104.747 223.63 103.953 213.449C103.181 203.507 102.964 193.573 102.622 183.631C102.426 177.991 102.036 172.404 101.754 166.791C101.559 162.969 101.238 162.822 97.9324 161.455C93.8158 159.759 89.8206 157.751 85.8254 155.768C83.1185 154.419 80.5375 152.823 77.8393 151.456C76.5727 150.827 75.2062 150.489 73.2151 149.778ZM73.3192 91.4416C74.1868 89.3551 74.6553 88.1622 75.1498 86.9779C78.4683 78.9919 82.958 71.9862 90.4452 67.1104C93.395 65.1887 95.8286 62.4775 99.0429 59.6492C96.5964 57.8793 94.8352 56.1052 92.7053 55.1899C89.8119 53.9536 86.6322 53.3463 83.5957 52.5221C77.3188 50.8303 71.2631 51.6805 65.5934 54.6303C60.9866 57.0248 57.7289 60.4387 56.7919 66.0519C56.0241 70.6414 57.0738 74.8926 57.5033 79.2999C57.6325 80.963 58.1721 82.5682 59.0737 83.9717C59.9753 85.3752 61.2108 86.5333 62.6697 87.3423C65.8234 89.1512 69.5192 90.0318 73.3192 91.4416ZM116.295 115.686L117.379 115.504C117.591 115.139 117.756 114.748 117.869 114.341C119.271 105.102 120.533 95.8359 122.077 86.6179C122.767 82.5142 123.925 78.48 125.036 74.4718C125.678 72.138 126.714 69.9083 127.43 67.5919C127.664 66.8328 127.808 65.6138 127.387 65.1627C125.508 63.1239 124.016 60.443 120.32 60.0656C119.566 61.7184 118.416 63.3061 118.121 65.0325C117.253 70.238 116.303 75.5042 116.078 80.7747C115.618 91.2681 115.592 101.779 115.475 112.285C115.462 113.409 116.008 114.558 116.295 115.686ZM99.121 96.6688C99.121 91.2941 99.2165 86.4227 99.0299 81.5599C98.9996 80.7184 97.9194 79.6339 97.0562 79.2218C96.6484 79.0266 95.3731 80.0026 94.8872 80.7184C92.9786 83.5669 91.161 86.4805 89.4345 89.4592C88.016 91.9014 88.5669 93.4674 91.2391 94.4218C93.664 95.2807 96.1799 95.8446 99.121 96.6688Z" fill="black"/>
</g>
<defs>
<clipPath id="clip0_729_1526">
<rect width="150" height="276.523" fill="white" transform="translate(0.160156 0.47168)"/>
</clipPath>
</defs>
</svg>
