<svg width="151" height="169" viewBox="0 0 151 169" fill="none" xmlns="http://www.w3.org/2000/svg">
<g clip-path="url(#clip0_729_1166)">
<path d="M51.0619 106.602C38.1951 120.817 26.0069 134.249 13.8754 147.738C9.97289 152.065 8.44583 156.872 11.8487 162.245C14.0827 165.761 12.2729 167.316 8.92657 168.476L0.160156 160.859C0.72781 150.703 4.68018 141.03 11.3868 133.382C20.8131 122.485 31.182 112.427 40.9193 101.804C43.9828 98.4482 46.2828 94.4043 48.9599 90.6904C49.4783 89.9645 49.9025 89.0125 50.666 88.6543C59.0083 84.5256 63.3161 76.8243 68.0292 69.4342C68.6132 68.3426 69.3496 67.3397 70.2161 66.4555C73.6284 63.5333 76.8145 60.7997 75.4477 55.4079C73.9866 49.6296 73.1665 44.0964 66.9169 40.6464C60.6673 37.1964 55.3792 32.1627 49.6668 27.8361C47.923 26.5164 46.3111 24.3767 44.3881 24.0656C33.8684 22.1521 31.1348 12.9426 25.611 5.27907C27.9187 4.7879 30.3083 4.83245 32.5961 5.40929C34.8839 5.98614 37.0089 7.07992 38.8078 8.60654C48.941 16.4963 60.4882 21.775 72.3747 26.7615C79.237 18.768 77.644 7.49424 84.8645 0.47168C88.4936 2.22496 88.767 4.74177 88.1731 7.72047C87.0891 13.5742 86.3633 19.5033 85.0436 25.291C83.9219 30.155 85.4301 32.8791 90.0206 34.8398C98.6645 38.5349 107.195 42.5505 115.613 46.7357C121.127 49.4788 126.18 50.9021 131.638 42.6824C131.562 51.5714 132.995 57.5288 140.63 59.3481L131.93 57.8116C127.141 61.9591 125.822 68.2747 124.455 74.1661C121.269 87.8908 118.799 101.776 115.915 116.019C126.283 123.399 139.301 123.315 150.17 129.319C143.345 135.239 135.927 134.73 128.489 133.608C121.693 132.59 114.915 131.27 109.797 136.078C103.717 131.742 98.6174 126.972 92.6129 124.116C83.9124 119.968 74.4956 117.386 65.5124 113.794C60.8747 111.956 56.5857 109.383 51.0619 106.602ZM79.3407 72.4977L61.6193 96.2801C75.5702 103.124 88.635 109.731 103.708 111.57C104.424 109.006 104.905 107.535 105.244 106.027C106.592 100.051 105.706 95.5166 99.7391 91.7367C95.4879 89.0502 92.5469 84.1297 89.3702 79.935C86.8063 76.4379 84.6665 72.5825 79.3973 72.4977H79.3407ZM105.442 91.0391C109.429 80.51 112.983 71.3665 116.244 62.0817C116.678 60.828 115.594 57.9341 114.482 57.4345C108.572 54.7575 102.586 51.9673 96.3268 50.4497C89.3137 48.7435 86.4198 52.58 89.1251 59.48C92.528 68.171 96.2985 76.7207 100.201 85.1949C101.162 87.1932 103.246 88.5883 105.499 91.0391H105.442Z" fill="black"/>
</g>
<defs>
<clipPath id="clip0_729_1166">
<rect width="150" height="168.004" fill="white" transform="translate(0.160156 0.47168)"/>
</clipPath>
</defs>
</svg>
