<svg width="151" height="170" viewBox="0 0 151 170" fill="none" xmlns="http://www.w3.org/2000/svg">
<g clip-path="url(#clip0_729_1310)">
<path d="M67.7145 2.8505C70.3838 8.98927 69.0135 11.4338 62.0965 13.0781C58.212 13.9581 54.186 14.0123 50.2793 13.2371C41.6083 11.6914 32.9482 11.8449 23.74 14.706C24.5677 16.723 24.8911 18.8113 26.064 20.1597C33.6333 28.743 41.3561 37.1948 49.0351 45.6904C49.3969 46.0905 49.9121 46.3536 50.3067 46.7263C55.5576 51.7141 61.0331 53.194 68.0105 49.5874C72.8996 47.0607 78.6931 47.2087 84.1413 48.2227C96.8518 50.5905 109.617 52.7938 122.163 55.8632C128.099 57.3157 133.586 60.6098 139.275 63.0708C140.448 63.5751 141.648 64.5672 142.789 64.5069C148.27 64.2054 149.459 67.7955 150.161 72.1803C145.189 75.2333 139.511 75.3813 133.92 75.8855C133.372 75.9349 132.791 75.6498 132.276 75.7704C118.436 79.1468 104.772 74.7071 90.998 74.8058C88.1917 74.8058 85.3142 73.7096 82.5737 72.8161C75.4922 70.4483 68.4709 67.8832 61.4113 65.4441C60.5892 65.1646 59.6848 65.1207 57.7335 64.7754C59.5258 68.1627 60.94 70.8046 62.3157 73.4519C67.7968 84.0413 68.153 94.7404 62.8638 105.5C61.7676 107.769 60.7317 110.274 57.4156 110.005C54.3188 109.747 53.272 107.571 52.2963 105.072C48.7958 96.0869 45.2203 87.1345 41.5699 78.215C40.8464 76.472 39.5364 74.9647 37.9634 72.5202C37.196 74.4824 36.7247 75.3758 36.4945 76.3295C33.6498 88.196 30.7503 100.051 28.0372 111.956C25.3241 123.861 21.7121 135.399 18.4673 147.101C16.2749 155.065 10.9253 160.579 6.54598 166.926C6.01241 167.672 5.35419 168.321 4.60021 168.844C2.27076 170.488 0.0290066 169.535 0.138628 166.712C0.175884 164.4 0.73815 162.126 1.78294 160.064C4.41385 155.306 7.64219 150.883 10.3389 146.153C11.9119 143.412 13.3809 140.447 14.1044 137.383C17.2121 124.267 20.4185 111.162 22.8302 97.9194C25.209 84.8416 26.6066 71.6103 28.5963 58.4558C29.0512 55.6215 29.871 52.858 31.0353 50.2342C32.0932 47.8171 31.8191 46.3317 29.7637 44.5832C24.2114 39.8366 19.0757 34.7721 15.6226 28.0853C13.2658 23.5141 13.2383 19.3923 15.6719 15.1061C20.5281 6.56117 27.8728 1.81458 37.6564 0.789619C45.3007 0.0229259 53.0209 0.692149 60.4193 2.7628C62.4418 3.31638 64.7438 2.8505 67.7145 2.8505ZM126.186 70.4867C108.313 62.7146 90.3239 60.9168 71.5403 58.2475C77.7997 65.6634 111.157 72.9641 126.186 70.4867Z" fill="black"/>
</g>
<defs>
<clipPath id="clip0_729_1310">
<rect width="150" height="169.184" fill="white" transform="translate(0.160156 0.47168)"/>
</clipPath>
</defs>
</svg>
