<svg width="151" height="170" viewBox="0 0 151 170" fill="none" xmlns="http://www.w3.org/2000/svg">
<g clip-path="url(#clip0_729_1522)">
<path d="M26.3326 28.2017C24.7838 32.9357 27.8508 36.6328 28.9884 40.3561C26.8577 42.3687 25.0507 44.1669 23.1606 45.8164C21.848 46.9408 20.4917 48.1265 18.9473 48.8178C14.6639 50.7385 11.5094 49.0715 10.5031 44.4426C9.88247 41.6011 9.40497 38.7302 9.07241 35.8409C8.35487 29.5843 11.2031 24.6228 15.1496 20.1601C16.5961 18.5351 18.1672 17.0254 19.8486 15.6449C21.1611 14.5511 22.6181 13.2254 24.2019 12.8753C30.5241 11.4753 36.7719 8.84577 43.4529 10.5521C46.3886 11.3046 49.39 12.1228 52.0633 13.4923C58.2717 16.6643 64.2089 20.322 69.0523 25.4804C69.6755 26.0925 70.3487 26.6516 71.0649 27.1517C74.1275 29.4793 74.1275 29.4749 77.5708 27.4886C84.9387 23.2227 92.5078 19.4251 101.28 19.4163C106.211 19.4163 111.164 19.7007 116.077 20.1557C119.678 20.4926 120.619 20.4795 122.172 17.5306C125.405 11.4053 131.062 8.22011 136.658 4.8687C138.881 3.55613 140.981 2.01605 143.322 0.454102C145.986 1.32915 146.607 4.04178 147.076 6.22939C147.815 9.72957 147.951 13.396 147.924 16.9881C147.895 20.4558 147.603 23.9164 147.049 27.3398C146.5 30.7657 145.717 34.1498 144.704 37.4685C144.219 39.0873 143.09 40.5311 142.153 41.9881C140.193 45.0245 138.168 48.0215 136.164 51.0273C135.844 51.5042 135.582 52.2042 135.127 52.3748C132.012 53.5693 131.312 56.5356 129.964 59.0689C128.809 61.2565 128.866 62.9454 129.824 65.4874C131.264 69.3157 130.1 73.5859 127.125 76.666C125.374 78.4511 124.653 80.1006 125.226 82.4588C126.76 88.7971 128.277 95.144 129.776 101.5C130.345 103.897 131.045 106.282 131.369 108.71C132.37 116.319 135.704 123.196 138.036 130.376C140.329 137.425 143.164 144.298 145.912 151.194C147.032 154.024 148.589 156.676 149.784 159.48C150.138 160.307 150.353 161.698 149.906 162.272C148.235 164.433 146.502 166.677 144.345 168.301C141.318 170.58 137.17 169.373 135.026 165.859C133.057 162.635 131.294 159.296 129.452 155.98C128.345 153.998 127.426 151.867 125.077 150.353C122.552 154.252 120.12 157.791 117.945 161.449C115.771 165.107 112.608 166.914 108.757 168.287C98.3969 171.963 89.7733 168.287 81.1935 162.818C73.725 158.045 66.0596 153.482 58.0967 149.61C46.183 143.813 33.5211 142.811 20.6099 145.891C13.4126 147.61 12.5376 150.104 16.834 156.177L18.0635 157.927C16.6984 159.633 15.539 161.427 14.0514 162.849C12.6231 164.288 10.9786 165.494 9.17741 166.424C5.81287 168.06 2.04581 166.257 0.820747 162.727C-1.80438 155.149 3.94028 140.177 10.7875 135.998C18.2254 131.461 26.4552 129.996 34.8731 128.911C47.1237 127.327 58.613 129.987 69.6736 134.983C72.5891 136.324 75.3873 137.906 78.039 139.713C85.1968 144.526 92.9147 148.288 100.79 151.74C101.053 151.859 101.324 151.968 101.595 152.077C108.39 154.786 110.936 153.18 110.871 146.026C110.818 139.77 111.068 133.391 107.996 127.65C106.793 125.402 105.336 122.969 103.345 121.525C95.0323 115.435 86.8769 108.859 77.8202 104.051C69.5073 99.6447 64.1083 92.9243 58.8712 85.8452C56.7973 83.0364 56.0798 79.1949 54.8853 75.7822C54.2597 74.0059 54.0103 72.1027 53.4634 70.287C51.0789 61.9741 52.7196 54.0987 56.3773 46.5908C57.3486 44.6044 57.3048 43.375 55.9135 42.0099C50.287 36.4797 44.2142 31.6013 36.6625 28.9149C33.2455 27.703 29.9116 27.1998 26.3326 28.2017ZM71.4762 58.7276C69.6561 62.2059 71.3318 64.5161 72.2593 66.8437C75.0507 73.844 79.2159 79.7943 85.6387 84.0339C90.8365 87.4641 95.8768 91.1218 101.04 94.6088C102.304 95.4839 103.757 96.0307 105.905 97.1333C105.73 94.6219 105.655 92.9593 105.467 91.3099C105.292 89.5948 104.754 87.871 104.863 86.1821C105.052 83.2639 103.761 81.6494 101.254 80.4112C97.3731 78.4949 93.536 76.4735 89.8521 74.194C85.3325 71.4158 80.546 69.0007 77.3871 64.3454C76.0089 62.2672 73.7206 60.7884 71.4762 58.7276ZM112.415 44.4513C107.458 40.7542 91.0728 39.0173 86.3519 41.7212C86.3869 41.9968 86.3256 42.3512 86.4744 42.5437C91.4315 49.1722 97.5787 54.2255 105.629 56.6188C107.764 57.2576 109.287 56.1813 110.048 53.613C110.936 50.5941 111.641 47.5227 112.433 44.4513H112.415Z" fill="black"/>
</g>
<defs>
<clipPath id="clip0_729_1522">
<rect width="150" height="169.317" fill="white" transform="translate(0.160156 0.47168)"/>
</clipPath>
</defs>
</svg>
