<svg width="151" height="267" viewBox="0 0 151 267" fill="none" xmlns="http://www.w3.org/2000/svg">
<g clip-path="url(#clip0_729_1130)">
<path d="M81.7246 249.676C74.2962 253.498 66.8619 257.324 59.4217 261.152C57.3934 262.197 55.4529 263.444 53.3543 264.33C49.1132 266.139 45.0741 268.449 40.1833 265.121C35.1169 261.652 33.6505 257.113 34.4934 251.502C35.4505 245.171 36.6535 238.875 37.6984 232.553C38.032 230.543 38.7521 228.356 38.2603 226.53C37.8213 224.888 35.9861 222.447 34.7481 222.412C27.2148 222.097 19.6693 222.252 12.1554 222.877C4.46358 223.615 2.49671 223.281 0.626431 218.487C-0.980429 214.36 1.84694 207.414 6.36898 205.096C9.22468 203.643 12.208 202.455 15.2814 201.549C21.1381 199.793 27.0387 198.133 33.0183 196.913C36.8554 196.131 40.8594 196.21 46.7073 195.754C48.4635 192.399 51.9757 187.851 53.3104 182.714C58.1046 164.389 62.1613 145.879 66.4814 127.396C67.3594 123.717 68.378 120.064 68.9926 116.35C69.6336 112.443 71.381 108.386 68.58 104.637C64.2599 102.766 62.1613 105.954 59.4656 108.149C53.3192 113.145 47.5327 112.864 42.4311 107.631C39.0155 104.119 38.5677 101.484 41.6321 97.6033C49.1132 88.1553 57.1036 79.2605 69.379 75.9854C74.2523 74.6683 76.4035 71.595 76.6494 66.4759C77.1938 55.7108 77.4396 44.8316 79.2836 34.2772C81.5753 21.4311 89.5394 4.2298 107.917 2.04342C112.834 1.41999 117.699 0.541925 122.581 0.47168C125.558 0.47168 130.027 0.717538 131.221 2.54392C133.618 6.23179 135.691 11.2016 135.313 15.4076C134.207 27.9903 131.976 40.5203 119.157 46.8423C118.823 52.6551 120.913 56.6152 124.873 59.627C131.757 64.8954 138.755 70.0233 145.639 75.2829C147.904 77.039 151.074 78.6108 149.915 82.1406C149.463 83.8256 148.539 85.3466 147.253 86.5255C145.967 87.7043 144.372 88.4921 142.654 88.7963C134.549 90.5525 126.655 93.292 118.542 95.013C113.756 96.0316 108.725 95.8911 103.202 96.2862C102.264 98.2601 101.463 100.296 100.805 102.38C99.1425 108.872 97.6088 115.396 96.2039 121.952C94.8429 128.327 96.0985 130.241 101.543 134.306C106.461 137.899 111.029 141.948 115.188 146.397C118.472 150.006 121.238 154.502 117.392 160.315C110.964 160.798 104.335 161.553 97.6966 161.72C90.6018 161.895 86.0183 164.582 83.8583 171.176C81.6983 177.771 79.8192 184.611 77.9314 191.372C76.2806 197.281 76.6582 197.747 82.6729 198.247C88.2925 198.713 89.4252 199.81 88.5911 205.158C88.152 207.985 86.9403 210.716 85.9569 213.429C84.5256 217.213 82.4446 220.735 83.8232 225.142C84.8417 228.426 82.9451 230.709 80.0036 232.114C78.6865 232.738 77.3694 233.308 76.0699 234.02C73.3654 235.521 69.0453 236.426 69.9234 240.166C70.3449 242.115 74.1206 243.406 76.4738 244.829C78.0894 245.803 79.8719 246.506 81.5841 247.322L81.7246 249.676Z" fill="black"/>
<path d="M61.4056 20.3423L72.6976 34.2245C72.3024 36.9377 71.3629 40.371 65.8223 40.5817C59.9744 40.8627 58.1129 45.8589 55.4787 50.0999C53.8982 52.6815 51.9664 55.6318 49.3322 56.8874C45.3019 58.8806 40.2882 58.7752 37.1183 55.2805C33.9485 51.7858 32.8861 46.0521 35.2832 42.0569C41.4999 31.5727 48.0854 20.8428 61.4056 20.3423Z" fill="black"/>
</g>
<defs>
<clipPath id="clip0_729_1130">
<rect width="150" height="266.344" fill="white" transform="translate(0.160156 0.47168)"/>
</clipPath>
</defs>
</svg>
