<svg width="51" height="182" viewBox="0 0 51 182" fill="none" xmlns="http://www.w3.org/2000/svg">
<g clip-path="url(#clip0_729_1135)">
<path d="M45.3006 0.47168C51.777 9.68477 51.0563 18.1869 47.3165 27.0299C44.8039 32.9512 42.1451 38.9504 40.7914 45.1834C38.5609 55.657 33.9933 65.4914 27.4295 73.9524C19.6383 84.0809 16.8822 94.8717 19.1027 107.601C22.6769 128.052 26.4069 148.319 36.1264 167.008C38.0742 170.68 37.7529 175.481 38.4833 179.757L36.5355 181.111C32.8834 178.783 28.569 177.079 25.7057 174.011C18.6644 166.541 11.8471 158.818 8.42874 148.67C2.83856 132.201 0.559633 115.294 0.160334 98.0369C-0.221919 88.2419 2.50534 78.5772 7.95153 70.4269C17.7045 56.2196 24.4215 40.153 27.6827 23.2317C29.6695 12.6552 36.6329 6.55855 45.3006 0.47168Z" fill="black"/>
</g>
<defs>
<clipPath id="clip0_729_1135">
<rect width="50" height="180.658" fill="white" transform="translate(0.160156 0.47168)"/>
</clipPath>
</defs>
</svg>
