<svg width="151" height="677" viewBox="0 0 151 677" fill="none" xmlns="http://www.w3.org/2000/svg">
<g clip-path="url(#clip0_729_1314)">
<path d="M150.159 662.757L138.724 663.604C137.863 664.848 137.016 665.88 136.394 667.018C130.2 678.494 127.46 678.811 118.116 670.208C109.843 662.584 101.359 655.384 94.0267 646.649C76.1982 625.472 67.1583 600.192 59.9845 574.329C52.0431 545.952 45.8753 517.085 39.681 488.297C38.1457 481.176 38.8604 473.341 39.681 465.982C42.5134 442.263 49.1313 419.696 57.6021 397.328C64.8817 378.123 69.8451 357.899 74.1997 337.768C78.2498 319.026 69.7922 305.367 54.4255 293.878C41.6663 284.388 26.3527 282.138 12.9714 274.885C6.8565 271.642 -0.317238 268.73 0.159247 261.517C0.768088 252.675 0.344546 242.047 9.42422 236.515C20.7937 229.592 32.772 223.689 46.59 230.797C56.755 236.025 67.7671 235.906 78.8719 235.84C85.6088 235.84 90.0031 232.464 91.9619 226.72C94.444 219.7 96.1787 212.438 97.1371 205.053C99.0298 188.893 100.764 172.652 101.293 156.399C101.534 146.781 100.506 137.173 98.2357 127.823C93.1134 106.064 81.3602 87.4808 68.2436 69.6524C62.9239 62.6626 58.1873 55.2478 54.0814 47.4826C46.8018 33.1351 52.0166 10.2638 65.1994 0.0458984C69.1701 3.24893 74.7026 5.92254 77.7336 10.2771C91.9487 30.7792 108.176 49.8782 118.407 73.1466C130.107 99.6179 135.071 126.592 131.643 155.34C129.459 174.108 127.672 192.956 126.52 211.817C125.289 232.994 117.705 250.928 102.802 265.885C99.2151 269.498 97.5077 273.111 99.3342 278.776C106.468 300.721 103.583 323.354 101.055 345.431C98.2092 370.327 90.1619 394.191 80.4866 417.446C73.5908 434.176 68.9848 451.502 74.4114 470.045C79.5336 487.754 84.5367 505.556 88.2957 523.597C95.3516 557.692 109.81 589.822 130.65 617.716C137.916 627.536 143.343 638.8 148.836 649.786C150.503 653.253 149.722 657.965 150.159 662.757Z" fill="black"/>
</g>
<defs>
<clipPath id="clip0_729_1314">
<rect width="150" height="676.158" fill="white" transform="translate(0.160156 0.0458984)"/>
</clipPath>
</defs>
</svg>
