<svg width="151" height="200" viewBox="0 0 151 200" fill="none" xmlns="http://www.w3.org/2000/svg">
<g clip-path="url(#clip0_729_1322)">
<path d="M53.0597 182.716C52.327 184.535 52.1978 186.164 51.2841 186.905C46.9742 190.508 42.6644 194.043 38.0528 197.249C33.6223 200.361 29.2176 200.145 25.6836 195.999C21.8564 191.517 18.012 186.914 17.0035 180.57C14.6159 165.658 15.2279 150.806 17.8655 136.066C20.5031 121.327 25.3474 107.251 31.3295 93.6058C33.5964 88.434 36.9926 83.788 40.4836 77.8749C38.9838 76.3492 37.3115 74.1856 35.2083 72.5737C27.7437 66.8416 19.7791 61.6267 12.5989 55.5067C8.5476 52.0588 5.41003 47.4042 2.25522 42.9823C-2.2615 36.5779 0.962263 26.3721 6.7116 22.295C16.1502 15.5889 26.0197 10.3481 37.7253 8.75349C50.4135 6.96921 62.9638 4.20229 75.6519 2.37491C83.7717 1.15091 92.0811 0.900942 101.528 0.133789C103.037 4.08161 105.08 8.12425 106.062 12.4169C107.117 16.5934 107.45 20.9198 107.045 25.2085C105.838 34.8022 110.251 42.3703 114.88 49.9039C115.811 51.4038 117.82 52.4898 119.552 53.2139C128.269 56.945 135.934 62.7651 141.868 70.1602C148.066 77.9179 151.35 85.8222 149.747 96.2865C148.557 103.803 148.213 110.768 141.92 116.276C138.547 119.391 134.15 121.163 129.56 121.258C114.13 121.835 101.175 116.31 89.5297 106.354C82.0771 100.121 74.2219 94.3847 66.0151 89.1839C60.1796 85.4171 59.8003 86.167 55.0336 91.8646C47.9741 100.286 45.3451 110.518 42.1558 120.629C38.0861 133.467 35.6845 146.776 35.0101 160.227C34.3291 173.588 38.3804 178.665 53.0597 182.716ZM137.722 98.8811C137.722 96.2951 138.05 95.2435 137.671 94.666C133.645 88.4598 129.913 82.0123 125.215 76.3233C123.138 73.7891 119.181 72.8237 115.734 71.0136L110.01 85.8567C117.432 93.7868 126.629 97.114 137.722 98.8811ZM64.9118 32.0267C60.5416 27.9151 56.6197 30.932 52.9649 30.7596C49.2549 30.5194 45.5321 30.5598 41.8283 30.8803C38.1476 31.2768 33.5964 30.1131 31.1398 35.9055L44.44 48.2748C48.7499 39.362 56.6369 36.4658 64.9118 32.0267Z" fill="black"/>
</g>
<defs>
<clipPath id="clip0_729_1322">
<rect width="150" height="199.262" fill="white" transform="translate(0.160156 0.133789)"/>
</clipPath>
</defs>
</svg>
