<svg width="151" height="155" viewBox="0 0 151 155" fill="none" xmlns="http://www.w3.org/2000/svg">
<g clip-path="url(#clip0_729_1174)">
<path d="M44.6346 1.27188C34.1621 23.268 24.7214 43.9527 31.3173 67.81C34.5682 80.1727 40.1307 91.8081 47.7108 102.101L57.6626 93.5284C76.7079 77.1349 97.084 62.9305 120.826 54.1455C128.415 51.3297 128.868 51.7251 133.169 60.3654C114.162 79.3143 88.5015 89.999 68.0097 109.661C71.3656 111.484 73.3424 112.921 75.5603 113.702C84.326 116.778 93.217 119.488 101.954 122.641C111.52 126.093 121.24 129.17 129.553 135.515C132.012 137.443 135.117 138.475 138.907 140.433C138.714 137.54 138.588 135.669 138.424 133.287C144.336 132.844 147.605 135.997 148.878 140.394C150.073 144.512 149.755 149.073 150.16 154.136C146.631 152.439 143.092 151.243 140.189 149.199C135.753 146.045 131.298 145.341 125.85 145.418C114.519 145.515 103.911 141.561 93.5738 137.019C88.9341 134.991 84.0584 133.553 79.0608 132.738C88.164 142.063 102.002 141.58 112.388 148.707C104.885 154.425 97.19 153.384 89.5623 150.529C83.5835 148.292 77.8072 145.476 71.9538 142.882C71.0859 142.497 70.3337 141.696 69.4369 141.503C61.0473 139.71 52.7735 137.646 46.0232 129.401L31.2884 153.577L23.1399 143.355L32.8603 118.678L12.0213 110.404L26.3029 112.178C20.7966 106.759 15.4253 104.666 10.2952 104.3C3.46777 103.827 6.49574 94.4638 0.160156 93.5477L11.5777 95.4763C13.881 90.2189 14.3893 84.3494 13.0242 78.7743C8.20259 56.2767 11.0955 34.6084 22.4649 14.5795C25.4736 9.29502 30.5555 4.93629 35.4061 1.07901C37.0936 -0.290323 40.9605 1.0983 44.6346 1.27188ZM111.549 137.55C102.542 131.31 76.9393 123.567 67.7108 124.29C74.2392 128.138 106.322 137.839 111.549 137.55Z" fill="black"/>
</g>
<defs>
<clipPath id="clip0_729_1174">
<rect width="150" height="153.664" fill="white" transform="translate(0.160156 0.47168)"/>
</clipPath>
</defs>
</svg>
