<svg width="151" height="147" viewBox="0 0 151 147" fill="none" xmlns="http://www.w3.org/2000/svg">
<g clip-path="url(#clip0_729_1286)">
<path d="M146.644 45.3235C150.317 48.7923 150.741 52.324 149.587 55.526C146.385 64.4021 142.289 72.8859 134.221 78.4973C129.512 81.8013 124.285 82.9236 118.776 79.9256C116.947 78.9367 114.891 78.356 113.031 77.4378C104.241 72.9958 97.2328 67.2353 96.966 56.248C96.825 53.6359 96.4998 51.0369 95.9928 48.4706C95.2787 44.2797 92.8536 41.6114 88.9296 39.8377C84.4452 37.8052 80.117 35.4444 75.9803 32.7744C73.053 30.9145 70.2747 29.2978 65.9112 29.8157C66.2016 31.7777 65.9112 33.8104 66.7745 34.9798C69.4425 38.4954 72.3256 41.8425 75.4074 45.0017C79.3314 49.1377 83.6557 52.9597 87.6033 57.1113C92.0361 61.6754 94.6197 67.7207 94.8549 74.0788C95.2316 83.1982 95.7809 92.3962 95.0275 101.453C93.5521 119.127 85.2802 133.183 69.9137 142.451C60.394 148.196 51.0784 147.246 41.5979 139.744C34.8407 134.415 28.4838 128.584 21.9778 122.917C14.7497 116.568 7.54518 110.164 0.160156 103.65C3.2052 93.5027 14.4672 85.9922 24.8031 88.1739C27.2831 88.6919 29.8651 90.9678 31.4347 93.1339C39.2043 103.886 49.5559 111.867 59.8761 119.817C62.9603 122.172 66.751 125.123 71.3342 122.745C75.9175 120.367 75.6821 115.94 75.8469 111.757C76.4747 95.606 72.7076 81.1499 59.5386 70.3981C54.7042 66.474 50.1209 62.189 45.2316 58.2571C42.1379 55.8104 39.9794 52.3745 39.1179 48.5255C38.9179 47.2306 38.4645 45.9878 37.7838 44.8683C31.5524 36.5258 34.9977 27.94 37.101 19.3857C37.4384 18.0279 38.7962 16.8507 39.8557 15.7598C49.8855 5.38471 62.3953 1.25663 76.5139 1.70397C82.4549 1.90802 88.4587 1.93941 94.0858 4.89028C96.0399 5.91838 99.1007 5.45534 101.479 4.89028C104.484 4.18396 107.255 2.53587 110.237 1.56271C118.328 -0.995762 120.675 0.699419 121.483 8.93988C122.064 14.9044 122.786 20.8768 123.838 26.7707C125.109 33.8889 128.084 40.1124 134.134 44.6407C138.223 47.7172 142.069 49.7733 146.644 45.3235Z" fill="black"/>
</g>
<defs>
<clipPath id="clip0_729_1286">
<rect width="150" height="145.684" fill="white" transform="translate(0.160156 0.47168)"/>
</clipPath>
</defs>
</svg>
