<svg width="151" height="136" viewBox="0 0 151 136" fill="none" xmlns="http://www.w3.org/2000/svg">
<g clip-path="url(#clip0_729_1466)">
<path d="M91.6596 60.4879C93.2043 64.32 94.5178 67.8127 96.0034 71.2366C99.7273 79.811 99.0042 88.5526 96.8397 97.2549C96.2248 99.7145 94.8474 102.13 93.3568 104.23C90.9701 107.539 88.3964 110.709 85.6482 113.725C82.0719 117.709 71.9823 119.22 67.245 116.73C64.6526 115.368 61.8977 114.271 59.3741 112.795C51.1244 107.807 43.5733 102.046 40.9168 92.1339C39.2787 85.9945 38.1079 79.7224 36.7551 73.5044C35.8647 69.3968 34.5217 65.6335 30.2616 63.8478C27.8019 64.3397 27.1181 65.9827 27.0099 68.1718C26.6852 74.5325 26.2425 80.8834 25.9473 87.2391C25.8637 89.0396 26.3507 91.0418 24.1272 91.8289C21.7364 92.6701 19.4637 93.9589 16.7138 92.1929C13.3096 90.0136 11.8977 87.3424 12.0306 83.2348C12.1978 78.1581 11.6419 72.9928 13.7868 68.2407C15.3167 64.8562 17.0975 61.457 19.4194 58.5988C20.9542 56.7098 23.5959 55.6472 25.844 54.4223C27.6789 53.404 29.7155 52.7547 31.5652 51.7511C34.9497 49.9113 38.4522 49.2915 41.8466 51.2936C46.0674 53.7533 50.2094 56.2622 51.0064 61.9637C51.9902 68.6933 53.343 75.3836 54.9025 82.005C56.2848 87.9082 59.2659 93.1276 64.4312 96.4137C69.2866 99.4981 74.9389 100.841 80.7043 100.728C83.4149 100.679 85.4613 98.8045 86.6616 96.2169C88.7474 91.7256 89.3918 86.9341 87.9505 82.3198C86.3114 77.2047 84.2155 72.2473 81.6882 67.5077C79.7204 63.7346 77.2952 60.2321 76.8279 55.8539C76.5475 53.222 74.9438 51.8938 72.4595 51.2051C53.4759 45.9316 34.4774 44.6034 15.3954 50.7919C11.2336 52.125 6.9981 53.3598 2.3641 54.7814C-0.587498 52.8629 0.0716912 49.3702 0.681687 46.7039C1.80821 41.7256 4.32691 37.8147 9.32002 34.9467C21.6872 27.8482 34.9841 25.6541 48.8861 24.9949C58.05 24.6438 67.2254 25.2539 76.2622 26.8151C81.2504 27.6219 86.1008 29.2748 91.0595 30.2586C99.0485 31.8525 107.057 33.7563 115.302 32.4625C118.522 31.9971 121.703 31.2883 124.816 30.3423C128.009 29.324 128.978 27.4743 127.831 24.2423C125.283 17.0552 129.307 12.1309 133.302 7.16732C134.736 5.38812 136.31 3.72664 138.01 2.19881C140.853 -0.319886 142.707 -0.0935973 144.941 2.93179C148.33 7.53627 150.268 12.7704 150.155 18.4473C150.032 24.6063 149.663 30.6915 147.022 36.6488C144.523 42.2864 140.853 46.5711 136.288 50.359C134.413 51.9184 132.411 53.3106 130.345 54.8995C130.532 55.8047 130.503 56.6803 130.881 57.3198C134.222 62.9426 135.56 69.1606 136.293 75.5213C137.065 82.2411 135.801 88.5182 131.914 94.2147C128.136 99.7441 124.57 105.426 120.748 110.94C117.432 115.717 117.004 120.607 119.685 125.698C120.93 128.065 121.323 130.387 119.793 132.64C116.797 137.067 111.849 136.821 109.591 131.739C107.131 126.19 106.014 120.253 107.431 114.03C109.694 104.103 114.367 95.42 120.261 87.2441C121.913 84.8104 123.313 82.2143 124.437 79.4961C126.095 75.787 125.155 72.4517 122.253 69.7067C118.549 66.2041 114.51 63.2673 109.34 62.2293C106.137 61.5898 102.989 60.6896 99.7962 60.0058C97.2873 59.4597 94.7244 58.7218 91.6596 60.4879Z" fill="black"/>
</g>
<defs>
<clipPath id="clip0_729_1466">
<rect width="150" height="135.276" fill="white" transform="translate(0.160156 0.47168)"/>
</clipPath>
</defs>
</svg>
