<svg width="151" height="245" viewBox="0 0 151 245" fill="none" xmlns="http://www.w3.org/2000/svg">
<g clip-path="url(#clip0_729_1290)">
<path d="M147.222 0.47168C152.16 10.8702 150.82 10.9042 143.618 19.4665C135.804 28.7701 130.655 39.0122 128.982 50.9137C128.459 54.6134 128.486 58.8163 129.73 62.2576C131.846 68.1063 131.886 74.6216 135.926 79.9398C137.545 82.0617 137.626 85.3805 138.701 89.1958L132.022 97.7989C127.126 95.1534 122.338 92.2358 117.271 89.9235C111.735 87.4004 105.975 85.3397 100.269 83.2927C97.7052 82.3746 95.5085 82.8982 92.7881 84.374C88.1295 86.8767 82.7365 88.2573 77.493 89.3659C71.1138 90.726 64.5713 91.2837 57.478 92.2766C58.1581 94.4121 58.3893 96.2415 59.2667 97.6765C63.7212 104.994 68.1078 112.38 72.984 119.439C77.3502 125.723 82.2264 131.681 87.1094 137.577C90.9657 142.356 96.2409 145.785 102.173 147.37C105.349 148.227 108.532 149.098 110.892 152.131C113.347 155.266 114.769 158.129 112.932 162.088C104.839 164.352 97.9092 161.775 91.1695 157.13C82.9473 151.444 73.188 149.377 63.5988 148.411C52.4522 147.282 41.1559 146.697 29.9753 149.934C23.018 151.975 18.7131 156.32 16.0471 162.523C12.4087 170.983 12.1162 180.117 11.579 189.141C11.3953 192.283 11.8102 195.459 11.9462 198.629C12.4563 210.319 17.4753 220.425 23.2629 230.205C24.0994 231.62 25.922 232.606 27.4862 233.415C30.0161 234.721 32.7025 235.714 35.484 236.911C35.2528 239.74 35.0624 242.141 34.8515 244.739C30.3154 245.33 26.6429 244.351 22.9228 242.392C12.1094 236.7 8.16492 226.07 5.00251 215.712C0.513938 201.023 -1.61473 185.7 1.93532 170.323C5.07732 156.742 11.5109 145.439 25.3235 140.06C29.506 138.427 33.8042 137.081 38.0275 140.243C38.6464 140.706 39.7346 140.678 40.5983 140.665C47.1203 140.536 53.6423 140.216 60.1644 140.243C63.8844 140.243 67.0333 139.447 69.944 135.53C66.394 130.552 62.8235 125.172 58.8654 120.085C51.33 110.401 44.672 100.2 40.5031 88.6246C38.9141 84.1497 37.9373 79.4805 37.5991 74.744C37.4017 71.5916 38.1096 68.4486 39.6393 65.6852C43.6859 58.8367 48.3717 52.0359 55.5194 48.3362C62.8303 44.5549 67.8902 38.6586 72.8344 32.6942C80.1793 23.7919 89.0545 17.1678 99.2354 11.9856C105.608 8.71433 112.375 6.64007 119.393 6.59246C129.016 6.54486 138.218 5.23229 147.222 0.47168ZM72.9296 42.1746C74.1878 43.2424 74.8679 43.7932 75.5139 44.3713C80.6962 49.0163 86.6946 53.0356 90.8431 58.4695C96.005 65.2296 101.106 70.5206 110.3 70.7111C114.939 70.8199 116.149 70.7111 115.659 65.9097C114.773 57.108 115.937 48.2206 119.06 39.9439C121.318 33.8231 124.018 27.8656 126.486 21.8196C127.167 20.099 127.779 18.3172 128.636 15.9641C105.071 15.0527 85.8513 21.0579 72.9296 42.1746ZM79.7305 67.9499C77.2414 59.578 69.2843 55.5587 62.1298 58.4287C52.2618 62.3596 48.8749 69.9154 53.0371 79.2326C60.586 72.7309 69.6244 69.6977 79.7305 67.9499ZM16.4824 228.804C15.5031 233.66 15.5031 233.66 20.9234 235.952L16.4824 228.804Z" fill="black"/>
</g>
<defs>
<clipPath id="clip0_729_1290">
<rect width="150" height="244.417" fill="white" transform="translate(0.160156 0.47168)"/>
</clipPath>
</defs>
</svg>
