<svg width="151" height="197" viewBox="0 0 151 197" fill="none" xmlns="http://www.w3.org/2000/svg">
<g clip-path="url(#clip0_729_1282)">
<path d="M64.0741 10.5327C61.3392 14.0698 57.6926 13.924 54.2011 12.5565C46.7166 9.62108 40.3534 12.2192 34.7104 16.6042C31.1824 19.3391 27.9825 21.3173 23.2876 20.8797C18.9027 20.4695 17.3529 23.1497 16.4322 27.4708C13.4694 41.2638 26.5969 59.1683 43.5623 54.0449C52.0314 51.4924 61.2389 47.5997 67.1554 39.8964C71.3489 34.4266 78.095 31.2359 80.2829 23.8972C80.7205 22.393 84.6223 22.156 86.5549 20.8068C90.8092 17.8714 94.9024 14.7445 98.8346 11.4261C104.304 6.86795 109.929 6.15688 116.593 8.60005C123.257 11.0432 129.247 14.4618 134.097 19.6308C138.445 24.271 142.593 29.1027 146.695 33.9617C147.655 35.1453 148.315 36.5433 148.619 38.0367C151.272 51.1824 151.272 64.1276 142.411 75.1128C139.292 78.7601 135.244 81.4945 130.696 83.0257C118.052 87.3104 105.17 88.0853 92.4988 82.5699C91.7786 82.2508 90.794 82.5699 89.071 82.5699C90.4476 89.863 94.8508 94.8131 100.084 98.5691C110.905 106.345 114.269 116.683 113.412 129.483C113.001 135.636 110.549 140.614 107.258 145.29C103.274 150.961 95.726 153.066 88.3873 149.958C80.1826 146.503 72.8896 141.753 71.7774 131.479C71.6133 129.966 69.5074 128.088 67.8938 127.468C66.5446 126.957 63.4815 127.641 63.1442 128.525C62.5752 130.466 62.7373 132.549 63.6 134.378C64.6119 136.502 66.499 138.234 68.1035 140.048C74.0809 146.593 78.0906 154.692 79.6721 163.413C81.1763 171.873 77.9674 179.504 73.9562 186.45C72.452 188.976 67.8118 189.687 64.7305 191.51C58.2852 195.284 51.5118 197.153 44.0729 195.375C41.179 194.726 38.329 193.895 35.54 192.887C33.0148 191.975 30.7539 190.152 28.1831 189.45C18.6474 186.715 10.5613 177.69 9.73167 168.364C9.20292 162.338 15.6573 150.787 21.355 147.943C27.0527 145.099 32.7595 142.473 39.5056 139.319C39.6059 121.305 51.3568 111.14 68.2038 105.27C67.3651 100.119 66.0523 95.7157 66.1253 91.3398C66.2751 86.7932 67.1048 82.2945 68.5867 77.9935C69.7624 74.3363 71.6182 70.9341 74.0564 67.9656C76.7913 64.784 80.4379 62.4411 83.7015 59.7062C91.9883 52.7413 101.141 51.4377 110.741 56.3605C118.325 60.2531 125.327 58.6213 132.246 55.6312C132.51 54.7195 132.966 54.0085 132.784 53.5891C128.727 44.2905 122.756 36.2681 114.378 30.698C106.501 25.4744 98.8802 26.5866 91.8242 32.6763C82.7078 40.5345 73.5915 48.2925 65.9612 57.6823C64.5117 59.46 62.1323 60.5175 60.0811 61.7573C57.5012 63.3253 54.429 64.3008 52.2411 66.2699C41.575 75.8694 29.1859 73.9094 16.9336 71.3933C14.1257 70.819 11.8193 67.5827 9.39436 65.4495C8.76534 64.8934 8.73799 63.69 8.14543 63.0519C-2.49333 51.4741 -0.42392 37.9728 2.58447 24.5172C3.40762 21.3413 5.09232 18.4546 7.45258 16.1757C14.5086 9.35671 22.3304 3.90514 32.8142 3.41286C36.9804 3.22142 41.0189 1.34346 45.2033 0.495638C53.6815 -1.21823 59.835 2.11834 64.0741 10.5327Z" fill="black"/>
</g>
<defs>
<clipPath id="clip0_729_1282">
<rect width="150" height="195.992" fill="white" transform="translate(0.160156 0.0673828)"/>
</clipPath>
</defs>
</svg>
