<svg width="151" height="200" viewBox="0 0 151 200" fill="none" xmlns="http://www.w3.org/2000/svg">
<g clip-path="url(#clip0_729_1518)">
<path d="M115.477 65.9231C116.568 66.0031 117.031 65.2972 117.005 64.1436C116.936 61.1232 117.078 58.0701 116.707 55.0825C116.154 50.6465 115.389 46.378 116.765 41.8292C117.686 38.7979 117.715 35.2608 117.223 32.0912C116.365 26.5381 118.122 21.7564 120.673 17.2004C124.025 11.2033 127.951 5.55555 133.024 0.460938C133.905 2.82265 133.519 4.95875 132.635 7.0621C131.605 9.51843 130.357 11.8983 129.556 14.4238C129.02 16.2608 128.768 18.1692 128.81 20.0825C128.832 23.9398 129.236 27.7972 129.225 31.6545C129.225 35.3918 128.788 39.1291 128.726 42.87C128.679 45.7593 129.108 48.6596 128.974 51.5417C128.814 54.9005 128.272 58.2448 127.882 61.5927C127.828 62.073 127.566 62.5643 127.631 63.0155C127.78 63.6769 127.989 64.3236 128.253 64.9478C128.981 64.7004 130.051 64.6713 130.408 64.1582C131.772 62.1858 133.242 60.1771 134.072 57.9718C135.717 53.5723 136.954 49.0162 138.384 44.5366C139.312 41.6254 139.975 38.7979 139.33 35.6429C138.988 33.9762 139.694 32.0767 140.022 30.3008C140.637 26.9748 141.114 23.6087 142.031 20.359C143.181 16.236 145.331 12.739 150.16 10.5701C149.942 13.2848 149.898 15.4973 149.563 17.6698C148.873 21.8347 148.569 26.0545 148.654 30.2753C148.77 34.1764 147.853 38.2157 146.772 42.0221C145.095 47.9391 143.028 53.7615 140.873 59.5293C138.21 66.6764 133.392 72.1785 126.994 76.2688C125.207 77.4042 124.065 78.6887 124.156 80.894C124.24 81.981 124.196 83.0741 124.025 84.1509C123.774 85.4209 123.639 87.1494 122.788 87.7899C120.884 89.2018 120.604 92.0111 118.01 92.8336C117.438 93.0155 117.136 94.6531 117.071 95.6574C116.983 96.9675 117.231 98.303 117.369 99.6276C117.806 103.867 115.913 106.862 112.682 109.453C111.27 110.596 110.164 112.444 109.56 114.184C107.165 121.141 105.106 128.201 102.78 135.192C100.888 140.832 99.1703 146.531 98.952 152.484C98.6682 160.21 98.952 167.954 98.6718 175.683C98.5881 177.95 99.2395 179.788 99.8654 181.822C100.28 183.157 100.04 184.977 99.4396 186.28C98.4462 188.427 96.9287 190.33 95.2802 192.881C94.396 191.851 93.388 191.221 93.2897 190.468C92.8153 187.142 92.5347 183.791 92.4491 180.432C92.3545 173.689 92.5583 166.938 92.4928 160.188C92.4312 151.367 93.3317 142.566 95.1783 133.94C96.6667 126.869 98.9156 119.941 101.092 113.034C103.122 106.589 105.499 100.254 107.718 93.867C108.468 91.7091 106.9 87.9536 104.527 86.498C103.293 85.7448 101.874 85.2972 100.651 84.533C98.6209 83.2593 96.4411 82.0876 94.7526 80.4355C91.5102 77.2695 87.6965 77.7608 83.8356 78.1829C82.4273 78.3394 82.38 79.5621 82.3581 80.7047C82.3581 83.3685 82.4091 86.0359 82.2453 88.7106C81.8195 95.5919 81.0335 102.462 80.8661 109.351C80.6878 116.84 81.3246 124.347 81.0808 131.833C80.8843 137.965 80.6623 144.267 79.1194 150.144C76.5248 160.042 76.0845 170.203 74.3086 180.181C74.0211 181.796 74.4433 183.543 74.5452 185.228C74.607 186.251 75.222 187.393 73.6281 188.299L71.5175 183.933C69.8581 184.839 69.698 185.832 70.1784 186.964C71.7286 190.712 73.3043 194.446 74.9309 198.321C73.7919 198.576 72.2744 197.826 70.9098 199.3C69.8654 200.421 66.321 198.496 65.6478 196.636C65.1872 195.384 64.89 194.078 64.7635 192.75C64.2395 186.742 63.5299 180.77 63.781 174.686C64.3123 161.735 64.0211 148.794 61.8778 135.949C60.3676 126.902 58.9193 117.841 57.6456 108.754C56.674 101.804 55.8516 94.8241 56.3137 87.7571C56.4411 85.7921 56.1536 83.7943 56.0444 81.5454C54.003 82.295 53.861 83.6123 53.781 84.9333C53.0823 95.5737 52.7511 106.218 53.3261 116.877C53.8683 126.927 53.992 136.982 53.0022 147.015C52.7293 149.777 52.0161 152.495 51.8159 155.257C51.7517 156.925 51.9644 158.593 52.4455 160.192C53.1259 162.717 54.265 165.13 54.8145 167.677C55.091 168.987 54.9782 171.174 54.174 171.756C52.3545 173.063 53.0823 174.398 53.246 175.861C53.2824 176.2 53.0786 176.56 52.9258 177.142C49.7526 176.935 48.1951 174.511 46.805 172.295C45.8943 170.704 45.448 168.89 45.5168 167.058C45.6587 162.139 46.1754 157.233 46.5211 152.313C46.8123 148.223 47.3108 144.125 47.2963 140.032C47.2526 128.187 46.1172 116.352 47.2963 104.493C47.8494 98.8488 47.9331 93.1538 48.2133 87.4806C48.388 83.8816 47.2853 82.9318 43.6099 83.6523C39.2177 84.5148 34.8508 85.5119 30.4586 86.3816C29.0292 86.6391 27.5855 86.8092 26.1354 86.8911C21.3829 87.255 20.7169 87.779 19.4651 92.4478C19.3414 92.91 19.2868 93.3903 19.1776 93.9871L15.1165 95.7411C14.7271 95.2535 14.345 94.8168 14.0248 94.3474C11.3865 90.6574 11.5612 89.2528 15.182 86.68C21.6303 82.0585 28.6027 78.4849 36.503 77.033C39.7162 76.4435 42.9476 75.9413 46.1827 75.5046C48.7664 75.1407 49.2904 74.8241 49.7235 72.2295C49.9964 70.581 50.0146 68.8889 50.1638 67.0039C49.4069 66.8474 48.6682 66.4507 48.1041 66.6218C44.7599 67.6225 41.4629 68.7724 38.1405 69.8459C36.1827 70.4755 34.1995 71.025 32.2453 71.6654C27.2999 73.263 22.3727 74.9406 17.4163 76.4871C14.5051 77.3969 12.904 79.1654 12.9294 82.2914C12.9294 83.1247 12.8021 83.9617 12.7366 84.7659C5.575 86.3525 3.5408 87.5534 0.160156 81.7564C1.97966 79.2673 3.91925 76.8146 6.84502 75.4646C12.1143 73.0301 17.3981 70.5883 22.7657 68.4049C28.2497 66.1778 33.9047 64.3692 39.3923 62.1604C43.2824 60.5956 46.8741 58.3612 51.1645 57.7317C52.1325 57.5898 53.1842 56.0759 53.6754 54.9624C55.9062 49.8678 58.1223 44.7732 60.011 39.5621C61.7358 34.7986 63.0386 29.8823 64.5233 25.0315C64.9345 23.6851 64.5452 22.6152 63.3152 21.9457C62.2562 21.367 61.19 20.6574 60.0401 20.4136C55.4185 19.4311 51.5903 16.6509 47.2853 14.9551C45.8297 14.3801 44.3377 13.7652 44.2177 11.7928C44.1545 11.3072 43.9272 10.8578 43.5735 10.5192C40.888 7.93546 41.4447 4.63852 41.3501 1.24332C43.5335 2.25133 45.5313 3.20111 47.5364 4.06356C48.5221 4.52793 49.5626 4.86541 50.6332 5.06792C59.2468 6.3343 66.3465 10.9995 73.6172 15.2572C77.773 17.6953 81.8014 20.3518 85.9389 22.819C92.4891 26.7491 97.6092 32.1422 101.739 38.4959C103.843 41.7346 106.052 44.9478 107.733 48.4049C110.48 54.0308 112.817 59.8387 115.477 65.9231ZM80.9207 33.2229C80.4622 43.5614 82.5728 53.3649 82.3363 63.6342C89.9782 63.9435 97.4746 62.2113 104.203 66.2834C106.001 62.1349 106.357 58.485 103.555 55.0352C103.264 54.6713 103.213 54.1254 102.955 53.7251C99.1813 47.8845 96.0408 41.5308 90.0037 37.4879C87.4054 35.7703 84.7963 34.1218 80.9207 33.2229ZM70.7861 148.412L71.7941 148.368C72.158 146.978 72.5546 145.603 72.8348 144.198C74.2686 137.015 73.8064 129.766 73.5917 122.517C73.4571 118.063 73.4826 113.59 73.6682 109.133C74.003 101.185 74.5779 93.2411 74.8945 85.2899C74.9746 83.3248 75.3276 81.1742 73.8865 79.2164C71.7322 79.3547 69.5888 79.4711 67.4491 79.6312C63.5881 79.9224 63.1078 80.4537 63.0423 84.2419C62.9112 91.7782 64.1922 99.1618 65.2257 106.589C66.9469 119.031 68.4207 131.505 70.0182 143.965C70.2038 145.454 70.5241 146.931 70.7861 148.412ZM64.7599 49.8532C64.6252 57.9318 65.0437 58.4813 72.1034 59.6785C72.2235 59.6785 72.3399 59.7295 72.4673 59.744C74.5161 60.0133 75.131 59.5548 75.2257 57.5061C75.4367 52.9318 75.5896 48.3576 75.7715 43.7833C75.8552 41.5454 75.7351 39.2855 75.9899 37.0694C76.3319 34.1218 75.4367 33.1829 72.6893 34.2346C71.6194 34.6458 70.6623 35.4755 69.7781 36.2652C68.9811 36.993 68.4353 37.9828 67.6638 38.7397C65.6478 40.7047 64.5051 42.9718 64.7344 45.8649C64.8472 47.1822 64.7599 48.5068 64.7599 49.8532ZM71.8123 27.0912L67.0816 24.3547V29.704L71.8123 27.0912ZM55.9826 67.3205C55.5633 68.8902 55.2233 70.48 54.9637 72.0839C54.9273 72.386 55.8588 72.8117 56.3428 73.1756C56.8123 72.2659 57.5037 71.3998 57.6929 70.4355C57.9258 69.2673 58.206 67.7935 55.9826 67.3205Z" fill="black"/>
</g>
<defs>
<clipPath id="clip0_729_1518">
<rect width="150" height="199.145" fill="white" transform="translate(0.160156 0.47168)"/>
</clipPath>
</defs>
</svg>
