<svg width="151" height="166" viewBox="0 0 151 166" fill="none" xmlns="http://www.w3.org/2000/svg">
<g clip-path="url(#clip0_729_1226)">
<path d="M150.16 86.786C147.802 93.4168 147.666 93.424 141.25 93.2168C134.262 92.9881 127.874 90.7088 121.043 87.3791C120.372 97.018 120.829 106.128 121.286 115.246C121.733 122.56 121.754 129.893 121.35 137.21C120.965 142.926 117.063 146.978 112.062 150.786C110.19 149.357 108.239 148.106 106.538 146.577C98.5929 139.432 90.8189 132.08 82.7948 125.013C67.3611 111.437 49.3979 108.693 30.1415 114.031C22.639 116.11 16.2154 120.533 14.9436 129.293C14.5239 131.624 14.6165 134.018 15.2151 136.31C16.6442 140.818 18.7234 145.105 20.3311 149.557C22.9677 156.867 28.2623 161.704 35.8005 165.748C22.9391 166.648 13.4002 162.254 5.59762 153.88C3.65829 151.835 2.23719 149.356 1.45338 146.649C-2.5408 131.351 2.76096 118.882 16.9443 108.45C37.8369 93.081 68.8473 94.9245 86.3888 106.528C88.9611 108.229 91.3191 110.251 93.8413 112.03C95.3349 113.184 96.9497 114.171 98.6572 114.974C104.231 117.296 107.003 115.417 106.61 109.494C106.045 100.919 104.931 92.4451 104.595 83.9065C103.938 67.058 103.166 50.181 103.459 33.3396C103.58 26.3945 106.01 19.385 108.089 12.6185C109.661 7.50246 112.562 3.19389 119.1 3.15101C121.043 3.15101 122.972 1.62193 125.645 0.48584C126.838 1.91489 128.682 3.20818 129.382 4.9802C136.205 22.3145 141.257 40.0776 141.157 58.9196C141.071 74.6963 140.978 74.6963 150.16 86.786ZM119.836 51.6243C119.443 57.6549 117.864 63.7712 120.679 70.4949C124.18 63.3497 122.222 57.4405 119.836 51.6243Z" fill="black"/>
</g>
<defs>
<clipPath id="clip0_729_1226">
<rect width="150" height="165.369" fill="white" transform="translate(0.160156 0.47168)"/>
</clipPath>
</defs>
</svg>
