<svg width="151" height="144" viewBox="0 0 151 144" fill="none" xmlns="http://www.w3.org/2000/svg">
<g clip-path="url(#clip0_729_1406)">
<path d="M25.1739 141.519C19.3042 142.985 14.0104 144.515 8.37342 142.618C1.16574 140.198 -1.76038 133.59 1.39262 126.638C6.04649 116.4 15.5636 112.199 26.6806 113.91C36.0581 115.347 43.2542 121.019 51.4799 124.643C54.5572 125.992 57.5939 128.18 60.584 125.736C63.3298 123.491 62.207 119.919 61.4624 117.01C59.9732 111.135 56.3373 106.58 51.4042 103.241C43.26 97.7259 34.6678 92.8219 26.7853 86.9522C22.0276 83.3592 17.8199 79.0908 14.2955 74.2821C6.51769 63.6713 1.74748 51.8272 2.75387 38.2844C3.06801 34.2414 4.81321 30.7219 7.04125 27.2315C15.1855 14.5904 27.1576 7.27801 40.8109 2.08313C45.378 0.37638 50.3395 0.0189547 55.1041 1.05346C61.9608 2.37323 68.5232 4.91935 74.4758 8.56946C86.1512 15.812 95.744 25.3525 104.103 36.0447C107.85 40.844 110.503 46.5625 113.167 52.1122C114.912 55.7131 116.948 58.68 120.148 61.0593C123.865 63.8051 127.129 67.1849 130.892 69.8435C134.501 72.413 138.349 74.6299 142.382 76.4636C146.96 78.5171 149.199 81.7457 149.822 86.6032C151.078 96.4636 148.658 102.397 141.404 106.417C134.534 110.233 123.714 109.436 117.861 104.491C116.413 103.264 115.476 101.449 114.197 100.006C108.676 93.7876 103.01 87.7085 97.6055 81.3909C93.1785 76.2193 89.1646 70.7742 88.3618 63.6247C88.1814 61.9726 87.2274 60.3612 86.4421 58.8254C84.0628 54.1715 81.5962 49.5817 79.1471 44.9685C78.8554 44.2555 78.4486 43.5952 77.9429 43.0139C70.997 36.673 66.1686 28.1564 57.687 23.4095C55.3251 22.0889 53.068 20.559 50.6131 19.4595C46.0174 17.4002 41.2472 16.801 36.6515 19.4595C32.812 21.6876 28.9086 23.9156 25.4648 26.6846C22.5561 29.0116 21.2821 32.438 20.9272 36.3763C19.8859 47.9412 24.9994 56.7079 32.4456 64.8813C39.7579 72.8743 49.025 78.1099 57.5474 84.3984C63.8824 89.0523 69.4845 94.0668 72.7015 101.49C76.3315 109.873 75.9476 118.471 74.7841 127.167C74.5512 128.502 74.0246 129.767 73.2425 130.873C65.5346 142.298 54.6271 146.336 40.5375 139.285C36.0872 137.057 31.9453 134.224 27.5764 131.821C25.8864 130.929 24.09 130.255 22.2303 129.814C21.4508 129.617 20.1303 129.913 19.694 130.478C19.2577 131.042 19.3275 132.391 19.7289 133.078C20.7876 134.893 22.1896 136.504 23.3763 138.249C24.0104 139.145 24.4409 140.152 25.1739 141.519Z" fill="black"/>
</g>
<defs>
<clipPath id="clip0_729_1406">
<rect width="150" height="143.031" fill="white" transform="translate(0.160156 0.47168)"/>
</clipPath>
</defs>
</svg>
