<svg width="151" height="120" viewBox="0 0 151 120" fill="none" xmlns="http://www.w3.org/2000/svg">
<g clip-path="url(#clip0_729_1482)">
<path d="M63.7004 78.7372L80.7862 97.9208L80.269 98.6393C79.1941 98.255 78.1428 97.8082 77.1203 97.301C74.4067 95.7697 71.8861 93.791 68.4993 93.9429C68.0909 93.8939 67.7005 93.7459 67.3622 93.5119C62.0911 90.7491 56.7297 88.134 51.6023 85.129C49.2336 83.7456 47.2672 83.7168 44.6892 84.4065C38.5642 86.0486 32.858 88.5528 27.3406 91.5701C21.0021 95.0349 15.5094 99.37 12.7671 106.386C12.6088 106.764 12.4838 107.156 12.3935 107.556C12.3735 107.824 12.39 108.093 12.4428 108.356C15.0127 109.924 15.0127 109.924 19.9841 109.485C19.6803 111.127 19.3847 112.704 19.1014 114.21C15.1686 115.733 11.3262 117.351 7.3934 118.701C4.10923 119.83 2.71757 118.894 1.42443 115.696C-0.7308 110.36 -0.0616522 105.548 2.78325 100.54C7.82855 91.6481 14.8772 84.7431 23.2066 79.1519C26.77 76.7585 31.0065 75.3833 34.9475 73.5359C35.6454 73.2034 36.3228 72.8216 37.152 72.3865C35.2472 68.5317 31.8152 66.3929 29.2167 63.4905C23.4365 56.9879 16.7615 51.257 12.217 43.6911C7.01572 35.0332 6.05921 26.2481 10.2588 16.7569C13.3952 9.71236 19.044 6.05052 25.5425 2.93467C34.9845 -1.58106 43.979 0.836908 52.8134 4.60138C54.5088 5.32389 56.0359 7.19587 56.9186 8.91184C58.5853 12.196 57.2798 14.9136 53.9218 16.5188C51.2288 17.8078 48.5398 19.1256 45.9248 20.5706C45.0381 21.0632 44.3854 21.9787 43.5849 22.7341C45.2269 25.3491 47.6901 26.3877 49.9808 27.4345C60.2889 32.1186 70.6628 36.663 81.012 41.2485C83.0646 42.1599 85.1788 42.4554 86.7962 41.9423C88.5532 38.8306 89.8135 35.9733 91.6239 33.5266C94.7275 29.3475 99.157 28.3418 104.059 29.5282C107.343 30.3246 110.446 31.2647 113.09 33.8879C116.329 37.1064 117.167 40.9858 117.236 45.0171C117.437 56.6882 121.822 66.3149 130.418 74.1148C134.991 78.2651 139.716 82.124 145.788 83.9673C149.105 84.973 149.557 88.0725 150.078 90.8599C150.846 94.9651 146.543 100.836 142.483 100.938C135.845 101.102 129.392 100.421 124.186 95.4372C122.955 94.2672 121.132 93.6925 119.539 92.933C116.965 91.7015 114.285 90.6793 111.768 89.341C104.921 85.6956 98.1348 81.9516 91.3407 78.1995C89.6309 77.3363 87.9847 76.3527 86.4144 75.256C81.0777 71.237 75.5849 72.3824 70.1455 74.7716C67.9862 75.7281 66.065 77.2594 63.7004 78.7372ZM39.1595 13.6616C36.5609 11.9127 34.069 11.7773 31.4581 13.1607C30.6371 13.6041 29.8612 14.2568 28.995 14.5113C25.2223 15.5951 23.0958 18.1239 22.0941 21.8186C20.8256 26.4862 21.0966 31.084 23.4981 35.2672C26.0101 39.6257 28.7621 43.8414 31.7414 47.8948C34.8736 52.1643 38.4328 56.1053 41.6924 60.3008C42.4888 61.323 42.8582 62.6818 43.3837 63.9051C44.2047 65.8592 46.1958 64.0735 47.3042 65.1162C47.636 65.3554 47.9553 65.6116 48.2607 65.8838C49.5497 67.3781 51.1343 67.4192 52.7189 66.6351C55.765 65.1244 58.9383 63.7615 61.7052 61.832C65.9131 58.8927 65.4697 53.0428 61.0279 50.2964C58.7084 48.8596 56.2864 47.587 53.8807 46.302C48.6014 43.4859 43.2318 40.8749 38.0798 37.8617C34.578 35.8091 31.0681 33.6375 28.6871 30.1398C26.3061 26.6422 27.0861 21.6133 30.5837 19.2528C33.3342 17.3932 36.1503 15.6197 39.1595 13.6616Z" fill="black"/>
</g>
<defs>
<clipPath id="clip0_729_1482">
<rect width="150" height="118.69" fill="white" transform="translate(0.160156 0.47168)"/>
</clipPath>
</defs>
</svg>
