<svg width="151" height="123" viewBox="0 0 151 123" fill="none" xmlns="http://www.w3.org/2000/svg">
<g clip-path="url(#clip0_729_1182)">
<path d="M33.8828 48.5126C46.1285 48.9553 59.5516 54.7767 70.1206 67.531C75.1938 73.8306 81.1597 79.3555 87.8297 83.9308C100.462 92.2202 117.662 82.1693 117.973 66.9753C118.048 62.7552 110.296 52.4029 105.671 50.4059C101.046 48.4089 96.3922 46.638 92.0026 44.2548C81.4243 38.5465 78.2592 21.7793 86.3508 12.9154C90.4431 8.68855 95.0289 4.9693 100.009 1.83773C103.335 -0.357069 107.451 0.179857 110.616 2.77971C121.656 11.8321 134.363 19.1701 142.643 31.0955C146.298 36.3234 150.622 43.181 150.047 48.8328C148.823 60.7865 147.099 73.0981 141.249 84.1192C140.163 86.0023 139.279 87.9946 138.612 90.0631C135.786 100.057 128.372 105.672 120.111 111.079C110.522 117.352 100.471 121.337 89.0731 122.58C79.6534 123.616 71.2698 122.58 64.902 114.658C57.9691 105.916 50.5369 97.4952 43.8489 88.5088C37.1609 79.5224 25.3768 74.6335 14.431 77.3841C10.0509 78.4862 5.64243 79.0325 2.18538 75.2081C-0.828935 71.817 -0.395627 66.5043 2.53391 61.201C8.63791 50.2364 18.9996 48.7952 33.8828 48.5126ZM128.269 57.5555L129.729 55.8882C129.173 51.6682 128.975 47.4105 127.845 43.294C127.44 41.7963 125.019 40.1384 123.389 39.9123C122.259 39.7616 119.744 41.9564 119.716 43.1527C119.631 46.2895 119.838 49.8784 121.336 52.4783C122.72 54.739 125.933 55.9071 128.269 57.5555Z" fill="black"/>
</g>
<defs>
<clipPath id="clip0_729_1182">
<rect width="150" height="122.447" fill="white" transform="translate(0.160156 0.47168)"/>
</clipPath>
</defs>
</svg>
