<svg width="151" height="190" viewBox="0 0 151 190" fill="none" xmlns="http://www.w3.org/2000/svg">
<g clip-path="url(#clip0_729_1426)">
<path d="M77.1655 68.3986C77.9355 67.3196 78.6343 66.6446 78.9718 65.8222C81.5577 59.4906 86.2303 55.3646 92.3337 52.5126C96.184 50.7253 96.1365 50.5494 95.4473 46.3949C95.2545 44.9944 94.9445 43.6126 94.5203 42.2641C92.2814 35.6853 92.3005 28.7358 92.7045 22.1C93.1276 15.1457 96.7449 9.03271 102.91 4.89721C106.014 2.8152 108.614 -0.0368764 112.973 0.543045C116.591 1.01839 117.475 1.74092 116.624 5.33928C115.312 10.8533 113.61 16.2722 112.408 21.8195C110.611 30.1285 111.756 38.1619 115.583 45.7627C117.075 48.7241 119.823 48.7526 122.585 48.3913C127.621 47.7592 132.736 48.3277 137.511 50.0503C139.146 50.6159 140.686 51.4763 142.326 52.042C146.979 53.6439 148.139 57.9648 149.965 61.7533C150.099 62.0418 150.172 62.3548 150.18 62.6729C150.188 62.991 150.131 63.3073 150.012 63.6024C147.911 67.2435 146.01 71.0653 143.391 74.3024C142.364 75.5716 139.64 76.0041 137.729 75.9281C131.112 75.6714 124.51 75.2483 118.416 72.0255C116.229 70.8704 113.634 70.4996 111.238 69.7106C110.336 69.4672 109.479 69.0804 108.7 68.565C103.828 64.8668 98.6606 64.4532 93.4508 67.4479C91.1026 68.7979 90.6653 70.0766 91.1596 72.9191C91.5874 75.4004 93.1276 75.8473 95.2666 75.7712C96.853 75.6994 98.4426 75.7551 100.02 75.9376C104.122 76.4462 107.25 78.1622 108.03 82.697C108.215 83.7713 108.852 84.7695 109.018 85.8438C109.232 87.2318 109.741 89.0001 109.137 90.0078C107.112 93.2829 105.025 96.6246 102.359 99.3436C99.8347 101.887 96.493 102.272 93.3272 99.8189C92.4811 99.1677 91.4258 98.8065 89.8239 97.9889C89.3486 100.256 88.7306 102.158 88.607 104.088C88.0886 111.196 88.6268 118.342 90.2042 125.293C92.5571 135.275 94.758 145.333 97.4485 155.239C99.4259 162.541 102.102 169.652 104.422 176.863C105.339 179.715 106.219 182.6 106.941 185.514C107.264 186.821 107.165 188.233 107.255 189.483C99.174 191.028 96.127 185.586 93.8548 180.11C87.856 165.64 83.3972 150.605 79.4614 135.47C76.5095 124.109 75.2118 112.416 76.6093 100.641C77.0324 97.0572 78.1209 93.5111 79.1619 90.0553C79.8559 87.7404 79.3853 86.0862 77.4887 84.6744C67.2735 77.0689 59.4256 67.0106 50.1278 58.4259C49.6532 58.0059 49.207 57.5549 48.7921 57.0759C46.0208 53.7199 43.0024 53.3016 38.8098 54.9321C31.2941 57.8983 24.3796 62.2051 18.4033 67.6428C13.26 72.2489 9.61412 78.3048 6.33899 84.4605C4.91296 87.1938 3.43463 89.927 0.439957 92.2562C0.321121 90.9585 -0.0068672 90.1409 0.230806 89.5467C1.28607 86.9038 1.82797 84.3179 1.2528 81.4041C0.259326 76.3939 3.22548 72.6054 5.71629 68.8122C12.5375 58.4354 21.2363 50.1596 32.8633 45.2968C33.595 44.9865 34.3022 44.621 34.9786 44.2035C35.2257 44.0514 35.3541 43.7282 35.8294 43.0484L24.6778 29.5486L28.2904 27.7471C26.6553 25.4274 25.0961 23.2123 23.537 21.0019L24.2215 20.4363C27.7676 23.7637 31.3327 27.0388 34.8597 30.3615C37.3933 32.7382 39.9554 35.1149 42.3702 37.6152C44.3666 39.6545 46.268 40.0918 49.1201 39.3122C55.6703 37.5487 62.3347 36.1131 69.0276 35.0056C74.1375 34.1642 79.3568 33.9693 84.5381 33.6366C85.774 33.5558 87.0431 34.0644 88.3408 34.8582C78.4394 41.1993 68.8849 47.7591 56.8872 50.0693C63.6989 56.5625 69.1511 63.6927 77.1655 68.3986Z" fill="black"/>
</g>
<defs>
<clipPath id="clip0_729_1426">
<rect width="150" height="189.259" fill="white" transform="translate(0.160156 0.47168)"/>
</clipPath>
</defs>
</svg>
