<svg width="151" height="155" viewBox="0 0 151 155" fill="none" xmlns="http://www.w3.org/2000/svg">
<g clip-path="url(#clip0_729_1330)">
<path d="M30.7606 31.6044C32.9405 29.3571 34.8432 27.9712 36.1092 26.106C41.9821 17.4613 49.3982 10.7644 59.1366 6.68176C62.7472 5.18356 65.9983 2.63662 69.7064 1.54293C73.2963 0.601973 77.0169 0.260282 80.7182 0.531642C85.0779 0.7339 87.3177 4.45693 85.6098 8.47211C84.6922 10.5115 83.3093 12.3075 81.5721 13.7158C75.9763 18.2778 70.2083 22.6301 64.4477 26.9749C59.8257 30.4358 55.9304 34.4135 54.3198 40.6685C55.6607 41.455 57.0166 42.5487 58.5747 43.118C80.6507 51.1933 103.476 56.0775 126.795 58.6544C130.908 59.1039 135.23 58.4147 139.38 57.7705C148.707 56.3397 152.227 60.3174 148.969 69.2916C147.103 74.423 145.058 79.5019 140.594 83.2249C134.466 88.3338 127.185 89.9668 119.716 89.3675C98.2546 87.6521 78.1338 80.7828 58.4998 72.2955C54.8667 70.7299 51.1586 69.3366 47.4356 67.9882C43.3904 66.5274 41.6076 67.3515 39.5476 71.112C37.8501 74.4246 35.9539 77.6316 33.8694 80.7154C30.034 86.064 30.416 91.2478 33.345 96.8136C37.6278 105.09 44.5695 111.686 53.0539 115.541C60.7321 119.137 67.9984 118.245 73.4669 111.856C84.7034 98.7388 105.978 102.926 114.33 111.945C119.731 117.781 123.275 125.227 122.368 133.048C121.582 139.79 117.559 146.052 111.776 150.277C106.794 153.91 101.176 155.588 94.8612 153.378C86.4413 150.434 77.6319 148.359 69.564 144.741C63.8334 142.172 58.9792 137.662 53.9752 133.205C68.9573 133.849 83.5797 138.037 98.9812 136.336C98.3895 131.842 95.5429 130.089 92.3892 128.501C87.5125 126.051 82.7258 123.384 77.7292 121.197C75.9356 120.525 73.9661 120.488 72.1484 121.092C64.148 123.819 56.3574 127.182 48.2896 129.692C39.9146 132.299 31.3149 133.04 22.8201 129.609C22.1181 129.373 21.4618 129.019 20.88 128.561C10.3925 118.822 1.47824 108.215 2.5944 92.6786C3.17121 84.6782 4.6769 77.0748 11.7709 71.5464C14.213 69.6362 15.6737 65.8757 16.5576 62.6771C18.0558 57.2086 16.8423 54.9613 12.2353 52.0848C10.5499 51.0285 8.75201 50.1446 7.0965 49.0509C2.13745 45.7399 -1.14361 40.9906 0.661721 35.1776C2.30225 29.8515 6.7594 26.1884 12.5275 24.9149C14.4677 24.4729 16.4752 24.3006 18.4454 24.0085C26.1611 22.8848 26.1611 22.8848 30.7606 31.6044Z" fill="black"/>
</g>
<defs>
<clipPath id="clip0_729_1330">
<rect width="150" height="153.88" fill="white" transform="translate(0.160156 0.47168)"/>
</clipPath>
</defs>
</svg>
