<svg width="151" height="136" viewBox="0 0 151 136" fill="none" xmlns="http://www.w3.org/2000/svg">
<g clip-path="url(#clip0_729_1390)">
<path d="M60.4062 132.667C59.1653 133.159 58.4579 133.453 57.7446 133.722C47.7574 137.445 46.4625 134.574 43.4771 126.133C41.8406 121.511 41.319 116.47 40.5637 111.578C39.7964 106.56 40.216 101.555 42.5 96.9628C43.8788 94.1753 43.0995 92.4248 40.7615 90.9141C40.5803 90.8319 40.4126 90.7228 40.264 90.5904C35.8279 85.0993 29.977 82.3117 23.1011 81.2566C21.733 80.9321 20.5005 80.188 19.5762 79.1285C12.7062 71.6771 5.55449 64.5014 2.2574 54.4243C-2.53838 39.7492 0.848636 29.8099 13.0119 20.4102C20.6972 14.4694 29.1977 11.514 38.4056 9.65566C47.6135 7.79729 55.5625 10.4949 62.1087 16.6575C68.0315 22.2266 73.3249 28.4911 78.6722 34.6417C86.3951 43.5055 94.9087 51.6479 104.108 58.9683C106.116 60.5689 108.34 61.2942 110.558 59.1541C112.566 57.2058 112.818 55.0177 111.391 52.6558C108.304 47.5543 104.989 42.5787 102.13 37.3513C98.4787 30.6971 92.6758 25.0081 93.2693 16.3997C93.677 10.7527 96.0748 6.85013 100.661 3.73887C105.57 0.423783 110.852 -0.871077 115.779 2.25817C118.705 4.12253 120.479 7.95316 122.416 11.1184C123.537 12.9168 123.92 15.2188 124.688 17.269C126.36 21.723 128.728 23.2637 133.386 22.6222C136.935 22.1427 140.454 21.4233 143.973 20.7519C149.146 19.7448 150.861 21.0756 149.901 26.2431C148.844 31.6973 147.485 37.0888 145.831 42.3929C144.788 45.8458 141.893 47.932 138.637 49.1249C133.326 51.0732 130.275 54.3523 129.046 60.1432C128.147 64.2916 125.617 68.1522 123.495 71.9588C119.053 79.8958 114.736 87.9468 109.707 95.4941C107.369 98.989 103.76 101.968 100.115 104.121C98.113 105.319 94.6181 104.834 92.1243 104.055C88.7733 103.017 85.608 101.159 82.5867 99.2948C76.2922 95.4642 69.4463 94.5889 62.5044 95.1284C55.6464 95.656 53.0447 98.8572 53.3324 105.841C53.6801 114.234 54.2976 122.626 59.3691 129.868C59.7708 130.491 59.9027 131.325 60.4062 132.667ZM62.2706 74.5186C58.2541 76.4429 55.5205 77.5579 53.0207 79.0626C52.3253 79.4822 52.3193 81.0528 51.9956 82.0959C53.0207 82.4461 54.0735 82.7088 55.1429 82.8812C55.6404 82.9232 56.156 82.2398 56.7195 82.1079C60.3583 81.2626 63.9971 79.8839 67.6598 79.7939C76.5081 79.5781 85.0445 81.1308 92.8677 85.7887C97.1719 88.3364 99.6297 87.737 101.548 84.4578C105.205 78.2053 104.923 76.9345 100.421 73.4275C93.8868 68.332 87.3405 63.2365 81.2379 57.6314C75.9625 52.8357 71.2687 47.3865 66.341 42.201C62.5224 38.1905 60.9937 38.4663 58.9675 43.7537C57.1691 48.3816 55.5745 53.0695 53.872 57.7274C52.4093 61.7318 50.9226 65.7303 49.25 70.2563C52.0136 70.7899 53.9919 70.9877 55.8442 71.5812C57.6966 72.1746 59.3092 73.1458 62.2706 74.5246V74.5186ZM38.8552 22.91C30.8582 23.1798 23.9583 25.7335 17.46 29.2045C12.5623 31.8182 11.1056 36.0265 12.7781 41.4157C13.7473 44.8658 15.1281 48.1867 16.8905 51.307C20.5773 57.4216 24.6117 63.4523 31.3318 66.7015C37.926 69.8787 38.4895 69.3212 41.0672 62.5651C44.706 53.0095 46.9241 42.7825 53.812 34.6716C55.3287 32.8732 55.2747 30.7571 53.4404 29.3723C48.9863 26.0213 44.2564 23.0898 38.8552 22.91Z" fill="black"/>
</g>
<defs>
<clipPath id="clip0_729_1390">
<rect width="150" height="134.851" fill="white" transform="translate(0.160156 0.47168)"/>
</clipPath>
</defs>
</svg>
