<svg width="151" height="182" viewBox="0 0 151 182" fill="none" xmlns="http://www.w3.org/2000/svg">
<g clip-path="url(#clip0_729_1374)">
<path d="M71.2606 35.3529C73.6174 38.5622 76.917 38.5221 80.2867 38.8029C87.2519 39.3796 94.3826 39.5902 101.082 41.3102C107.601 43.0151 113.699 46.44 119.967 49.1379C121.296 49.7045 122.574 50.3865 124.575 51.3593C124.575 46.415 124.48 42.1877 124.605 37.9705C124.643 34.6613 124.911 31.3588 125.408 28.0868C126.005 24.6695 126.871 21.3045 127.995 18.0226C130.763 9.84892 137.558 5.42108 144.373 1.18379C147.462 -0.736777 150.596 1.44455 150.094 5.2205C149.397 10.8869 148.063 16.5885 144.177 20.9311C140.811 24.7001 138.998 29.6039 139.102 34.6559C139.127 42.7895 140.105 50.9431 141.108 59.0316C141.419 61.5388 143.004 63.9057 144.227 66.2224C146.559 70.6151 149.548 74.7221 148.7 80.1678C148.199 83.3872 147.527 86.6868 144.508 88.1911C141.489 89.6955 138.786 87.4339 136.259 85.8794C135.286 85.2827 134.158 84.4753 133.752 83.4925C131.565 78.167 126.731 75.5294 122.484 72.4354C111.954 64.7281 101.152 57.3918 87.8838 55.2305C83.7819 54.5686 79.6098 54.3279 75.4778 53.8766C72.6847 53.5707 70.5986 54.4483 69.4603 57.1812C67.7253 61.3232 65.6994 65.3499 64.1901 69.5671C59.351 83.0713 54.7627 96.6456 49.9437 110.185C44.0617 126.678 38.9117 143.466 30.8183 159.082C28.311 163.961 25.3023 168.609 22.3487 173.253C21.0489 175.194 19.5443 176.989 17.8607 178.608C15.5991 180.865 13.2373 183.061 9.56164 181.181C5.88598 179.3 3.04273 177.039 2.9976 172.185C2.9976 168.92 1.84426 165.666 1.20741 162.396C1.11213 161.895 0.966712 161.423 0.881465 160.927C-0.0813274 155.346 -0.342084 150.076 1.7891 144.354C3.92028 138.632 6.30218 133.262 10.1534 128.623C12.6451 125.753 15.4507 123.171 18.5176 120.926C19.1093 122.832 18.5176 124.08 17.3492 125.329C13.4329 129.581 11.9887 134.947 11.8784 140.448C11.7881 144.725 12.8261 149.048 13.5432 153.32C13.7688 154.664 14.5762 155.913 15.6092 158.385C17.1135 155.877 18.2468 154.478 18.8736 152.869C23.0457 142.338 27.278 131.808 31.1643 121.157C34.9302 110.867 38.2699 100.397 41.8703 90.0315C45.0596 80.9 48.3892 71.8086 51.6788 62.7122C52.4761 60.5259 53.474 58.4098 54.3214 56.2435C54.9282 54.694 55.9913 53.0793 55.901 51.5499C55.5951 46.3999 59.4112 43.7322 62.3447 40.8137C64.6063 38.5822 67.8808 37.3537 71.2606 35.3529Z" fill="black"/>
</g>
<defs>
<clipPath id="clip0_729_1374">
<rect width="150" height="181.426" fill="white" transform="translate(0.160156 0.47168)"/>
</clipPath>
</defs>
</svg>
