<svg width="151" height="144" viewBox="0 0 151 144" fill="none" xmlns="http://www.w3.org/2000/svg">
<g clip-path="url(#clip0_729_1170)">
<path d="M93.1527 86.7182L105.941 96.873L101.848 97.7362L110.517 105.314L108.417 98.7327L109.813 97.8568L136.565 122.19C138.374 118.382 137.694 115.044 137.295 111.858C135.835 100.345 134.483 88.8063 132.573 77.363C130.269 63.6222 127.635 49.9766 124.734 36.3374C124.023 32.999 121.739 29.9906 120.171 26.8172C119.06 24.5831 118.057 22.2856 116.769 20.1531C116.312 19.3978 115.151 19.0614 113.716 18.1602V10.7154L118.159 10.0046C119.073 7.04061 119.968 4.12743 121.098 0.484375C124.271 7.28179 126.74 13.178 129.653 18.8139C133.038 25.5484 135.461 32.7247 136.85 40.1328C141.35 62.2767 144.365 84.6237 147.234 106.996C148.351 115.691 148.966 124.444 149.88 133.164C150.439 138.546 150.515 138.54 146.885 143.319C141.807 142.411 138.634 139.32 135.848 134.966C132.001 128.994 127.203 123.637 122.818 118.014L125.064 117.545C124.506 116.605 123.949 115.666 123.395 114.727C123.09 114.898 122.792 115.076 122.494 115.253L123.04 118.217C115.265 111.75 107.604 105.137 99.6835 98.8596C94.0793 94.4168 88.0626 90.5009 82.3314 86.2168C79.8498 84.3635 77.7173 82.047 75.2293 80.2127C73.7696 79.1401 71.9227 78.5943 70.2408 77.82L61.7234 73.904L66.2677 73.4534L61.552 70.3244C61.7107 72.1269 61.7995 73.0916 61.882 74.0563C57.6932 72.7299 53.3964 71.6636 49.3344 70.0134C44.4982 68.0523 39.7571 68.0332 34.6543 68.706C28.2295 69.5808 22.0817 71.8816 16.6612 75.4399C10.6444 79.248 9.52104 82.8403 10.6825 89.8789C12.0344 98.0916 16.6041 104.096 23.1349 109.459C16.5469 109.782 15.7028 109.681 12.4025 105.765C8.89906 101.62 5.02117 97.9139 2.2857 92.9444C-1.21773 86.5595 -0.151466 81.2409 3.63122 76.0619C8.85463 68.9218 15.322 64.0602 24.7343 62.7337C41.1217 60.379 56.1065 63.5397 70.1011 71.8477C78.0473 76.5633 85.6317 81.901 93.3748 86.9594L87.5548 86.0962C87.4088 86.3882 87.2629 86.6865 87.1105 86.9784L95.2535 93.5727L93.1527 86.7182Z" fill="black"/>
</g>
<defs>
<clipPath id="clip0_729_1170">
<rect width="150" height="142.841" fill="white" transform="translate(0.160156 0.47168)"/>
</clipPath>
</defs>
</svg>
