<svg width="151" height="110" viewBox="0 0 151 110" fill="none" xmlns="http://www.w3.org/2000/svg">
<g clip-path="url(#clip0_729_1158)">
<path d="M131.071 85.9466C124.176 57.5394 118.784 30.4 117.109 2.53079L122.451 0.47168C123.026 1.91862 123.799 3.11205 123.972 4.39204C125.209 13.3643 125.908 22.4232 127.54 31.3089C130.143 45.4692 132.889 59.6295 136.482 73.5548C138.201 80.2083 141.997 86.33 144.854 92.6928C144.934 92.8783 144.99 93.1442 145.139 93.2308C149.869 95.9824 149.467 100.824 150.16 105.635L146.01 109.345L141.348 104.547C137.02 100.144 132.957 95.8217 126.44 94.1707C121.777 92.9834 117.609 89.8422 113.207 87.6409C99.702 80.839 85.2758 76.461 70.5405 73.8145C61.3394 72.1697 51.7116 72.887 42.2756 72.5778C38.9365 72.4541 35.5974 72.3552 31.6337 72.2253C31.5595 72.4974 31.2565 73.5672 30.8175 75.1378L26.5694 72.9859C26.7116 74.2783 26.8167 75.212 26.9219 76.1457C10.6468 82.9476 4.91469 94.8014 14.5177 106.006C12.4029 106.872 10.4551 107.682 8.20433 108.609C5.42174 104.72 1.03762 102.741 0.332697 97.4108C-0.00732501 95.1927 0.109635 92.9284 0.676397 90.757C1.24316 88.5857 2.24776 86.5531 3.62852 84.7841C14.2642 70.562 29.2283 65.1081 46.2949 63.8961C54.4324 63.3149 61.8835 66.9879 69.8417 67.3342C73.5518 67.5073 77.262 69.8076 80.867 66.7529C81.2442 66.4314 82.3881 66.957 83.1549 67.1672C98.0695 71.2916 112.49 76.6713 126.149 84.0049C127.194 84.5676 128.363 84.8892 131.071 85.9466ZM65.1299 68.8739C64.9691 69.4922 64.8145 70.0611 64.6537 70.6547L89.0416 75.9664C81.6461 71.3658 73.2983 70.4754 65.1299 68.8739Z" fill="black"/>
</g>
<defs>
<clipPath id="clip0_729_1158">
<rect width="150" height="108.873" fill="white" transform="translate(0.160156 0.47168)"/>
</clipPath>
</defs>
</svg>
