<svg width="151" height="291" viewBox="0 0 151 291" fill="none" xmlns="http://www.w3.org/2000/svg">
<g clip-path="url(#clip0_729_1510)">
<path d="M71.9276 83.3909C74.4024 82.693 75.8873 82.0199 77.3721 81.9358C79.9211 81.7922 81.1783 80.7033 81.7079 78.1741C84.1744 66.1269 88.5381 54.5477 94.636 43.869C97.967 38.0583 100.907 32.0249 104.317 26.2636C107.153 21.4824 109.989 16.5824 113.617 12.405C117.245 8.22758 121.685 4.77777 126.046 1.32301C128.52 -0.656796 131.624 0.961696 132.178 4.44615C132.96 9.30658 133.287 14.2363 133.97 19.1165C134.276 21.0852 134.111 23.0983 133.489 24.991C132.867 26.8837 131.805 28.6021 130.391 30.0054C123.705 36.9051 118.77 45.0916 113.068 52.7237C110.529 56.1339 107.98 59.5986 106 63.3355C104.179 66.7655 103.115 70.5915 101.452 74.9421C103.06 75.1351 104.624 75.6746 106.05 75.4371C111.088 74.5659 115.419 76.6101 119.824 78.4068C122.106 79.3323 124.279 80.5252 126.58 81.421C135.672 84.9698 140.934 92.4238 144.864 100.615C147.527 106.139 150.486 111.905 150.105 118.433C149.61 127.15 145.977 134.208 138.85 139.419C133.544 143.3 127.867 142.003 122.239 140.706C119.245 140.018 116.359 138.845 112.484 137.588C113.108 140.711 113.474 143.062 114.053 145.354C116.795 156.04 120.373 166.587 122.111 177.432C123.314 184.925 122.061 192.825 121.779 200.536C121.71 202.328 121.027 204.085 120.789 205.877C120.27 209.925 121.626 211.519 125.768 212.128C133.049 213.197 139.434 215.85 142.978 222.843C147.467 231.708 150.001 240.939 147.259 250.922C145.675 256.683 141.948 259.673 135.841 260.123C128.783 260.618 122.061 259.534 115.85 255.941C112.566 254.047 109.259 252.199 105.926 250.397C104.759 249.856 103.565 249.377 102.347 248.962C97.5018 256.584 92.6711 264.009 88.0977 271.581C87.5186 272.542 87.969 274.427 88.4838 275.66C89.0332 276.971 90.2211 278.021 91.2407 279.332C90.7804 280.703 89.929 282.079 89.934 283.45C89.934 287.826 85.9051 288.236 83.4996 290.063C82.8067 290.588 80.2428 289.543 79.2232 288.533C77.5107 286.831 75.7586 284.757 75.0607 282.52C73.3135 276.818 72.3434 270.854 75.0904 265.196C78.2383 258.698 81.7524 252.377 85.1329 245.997C85.5141 245.275 86.0734 244.646 86.5188 243.953C89.8251 238.746 89.7063 238.014 84.7617 234.361C78.8223 229.981 73.0264 225.298 66.79 221.359C55.2181 214.048 43.166 212.737 30.9853 220.116C28.7728 221.458 26.6099 222.358 24.0559 221.463C23.4509 220.011 22.7702 218.592 22.0167 217.211C20.3438 214.494 20.4428 211.573 22.3088 209.054C28.3719 200.927 36.2416 196.769 46.4723 197.368C48.7689 197.502 51.0803 197.368 53.4016 197.368C59.8954 197.398 64.8597 201.145 70.027 204.322C75.0755 207.426 80.03 210.673 85.0538 213.811C88.751 216.122 92.1464 216.201 96.601 214.583C102.684 212.375 105.015 208.643 106.678 202.823C108.905 194.943 109.386 187.331 107.124 179.515C105.025 172.255 102.328 165.107 100.971 157.713C99.2341 148.244 95.5566 139.454 92.8245 130.337C91.8315 127.026 90.6144 123.787 89.1817 120.641C88.4019 119.015 87.2929 117.569 85.9249 116.394C78.0313 109.38 69.1742 103.531 59.6232 99.0264C53.1145 96.0023 45.9377 95.6954 38.8352 95.5618C28.466 95.3984 18.5422 97.1555 9.24204 101.996C5.17849 104.105 2.4909 102.664 1.12484 98.2197C0.832814 97.2793 0.327964 96.3636 0.243822 95.4083C-0.023452 92.7059 0.4715 90.5529 3.12939 88.7265C11.9395 82.7871 21.6604 79.4511 32.0841 78.1791C42.7505 76.8856 53.5622 77.5109 64.0084 80.0252C66.9781 80.733 69.7152 82.4307 71.9276 83.3909ZM99.348 94.9381C101.155 101.704 102.189 108.495 109.742 111.272C110.762 111.648 111.504 112.717 112.444 113.375C117.433 116.879 122.522 120.25 128.699 121.24C134.782 122.23 138.692 118.231 137.286 112.192C136.579 109.342 135.358 106.645 133.683 104.233C127.511 95.2203 111.608 90.8746 99.3381 94.9381H99.348ZM136.271 238.375C136.395 234.995 136.454 232.139 133.302 230.288C128.149 227.239 122.561 226.328 116.711 226.689C113.989 226.862 111.549 230.154 111.791 232.95C111.954 234.93 115.726 237.742 117.839 236.776C120.24 235.678 121.933 236.722 123.917 237.301C127.813 238.439 131.653 240.216 136.271 238.375Z" fill="black"/>
</g>
<defs>
<clipPath id="clip0_729_1510">
<rect width="150" height="289.73" fill="white" transform="translate(0.160156 0.47168)"/>
</clipPath>
</defs>
</svg>
