<svg width="151" height="173" viewBox="0 0 151 173" fill="none" xmlns="http://www.w3.org/2000/svg">
<g clip-path="url(#clip0_729_1190)">
<path d="M24.7862 172.918C17.8677 167.259 15.5403 159.767 12.6611 152.297C7.70921 139.464 5.33937 126.087 2.40361 112.788C0.0903648 102.297 -0.89294 91.5229 1.69619 81.2796C5.06348 67.966 11.2251 56.0107 23.7109 48.1089C34.117 41.5441 44.9616 40.0868 56.7542 41.4522C61.1189 41.9473 65.5969 41.53 70.1455 41.53C74.5669 36.6417 74.8569 29.1361 80.594 24.552C86.0482 20.1944 91.5943 16.6502 98.8665 16.0136C98.5482 11.1961 98.3218 6.81718 104.087 4.97083C105.566 4.50394 106.309 1.83699 107.207 0.47168C112.159 5.93999 117.655 10.7999 121.688 16.6502C129.193 27.5586 138.949 37.0945 142.351 50.6485C144.106 57.6236 147.232 64.2592 149.659 71.0716C150.025 72.1846 150.194 73.3526 150.161 74.5237C150.119 77.8981 148.746 80.3245 145.28 81.3857C142.174 82.3336 140.158 80.5792 138.722 78.464C136.883 75.7759 135.546 72.7411 134.082 69.8124C126.215 54.0583 115.321 41.2046 99.199 33.3381C97.9289 32.7301 96.5988 32.2559 95.2304 31.9233C88.4251 30.275 86.501 31.4352 84.3433 38.0424C82.023 45.1661 79.9362 52.3888 77.0711 59.2648C74.4678 65.5467 71.4118 66.5229 64.7621 64.4431C58.4874 62.4694 52.3329 59.9298 45.9308 58.614C41.6863 57.7439 36.8688 57.6449 32.7941 58.8616C21.0086 62.3987 16.7712 72.3025 15.6322 83.2037C14.0264 98.5051 16.5448 113.658 20.3648 128.478C23.2794 139.797 26.873 150.981 29.9503 162.278C31.3793 167.457 29.9503 170.032 24.7862 172.918Z" fill="black"/>
</g>
<defs>
<clipPath id="clip0_729_1190">
<rect width="150" height="172.446" fill="white" transform="translate(0.160156 0.47168)"/>
</clipPath>
</defs>
</svg>
