<svg width="151" height="160" viewBox="0 0 151 160" fill="none" xmlns="http://www.w3.org/2000/svg">
<g clip-path="url(#clip0_729_1514)">
<path d="M123.821 72.3769C122.963 74.8984 122.198 76.8229 121.646 78.8332C120.553 82.7902 119.321 86.7376 118.651 90.774C118.282 92.997 118.829 95.3852 119.162 97.6685C119.711 101.429 120.47 105.157 121.068 108.911C121.541 111.928 121.753 114.992 122.316 117.99C123.405 123.805 124.704 129.578 125.809 135.387C126.112 137.159 126.272 138.953 126.288 140.751C126.438 145.797 123.948 149.944 121.115 153.714C120.023 155.165 117.546 156.042 115.589 156.283C110.029 156.979 104.474 157.588 99.0183 158.916C96.1601 159.605 93.1749 159.71 90.2374 159.986C89.5673 160.05 88.8591 159.732 88.0683 159.567C88.1477 156.391 89.1386 154.451 92.3715 153.384C99.4058 151.059 106.478 149.055 113.836 148.106C119.235 147.41 120.334 145.968 119.213 140.519C118.197 135.584 116.79 130.731 115.72 125.802C114.649 120.874 113.906 115.821 112.826 110.876C112.256 108.412 111.489 105.997 110.534 103.655C109.393 100.736 109.07 97.7352 109.003 94.6516C108.955 92.5841 108.755 90.5231 108.577 87.7348C107.583 88.7256 106.904 89.1035 106.672 89.6656C103.055 98.8213 97.0462 106.697 92.8923 115.773L94.893 118.412C93.3051 119.083 91.9491 120 90.5073 120.175C88.0175 120.493 87.2744 122.204 86.4709 124.081C84.5655 128.527 82.6124 132.973 80.7165 137.442C80.1449 138.785 79.5224 139.954 77.6138 139.687C76.2546 136.8 78.341 134.034 78.1441 130.925C75.5432 131.674 75.4289 134.304 74.0506 135.828C72.6727 137.407 71.4328 139.1 70.3445 140.89C69.1631 142.755 68.1215 144.701 67.1116 146.68C66.1268 148.545 65.2654 150.472 64.5329 152.45C63.812 154.518 63.3896 156.69 62.8307 158.849C61.0427 158.814 60.36 158.135 60.071 156.417C59.4358 152.564 60.9761 149.3 62.5766 146.127C64.9997 141.325 67.5149 136.53 70.4747 132.052C72.4596 129.048 75.2955 126.606 77.7313 123.897C78.8428 122.662 79.9099 121.385 81.2056 119.883C80.3322 119.349 79.7924 118.857 79.1636 118.66C76.6452 117.869 74.0824 117.244 71.564 116.437C67.4546 115.097 63.3515 113.728 59.3024 112.223C58.0321 111.753 56.9111 110.87 55.8091 110.044C55.3645 109.705 54.8119 108.707 54.958 108.523C56.0981 107.081 54.5992 106.202 54.1006 104.681C57.0953 104.947 59.4993 106.164 62.0399 106.875C64.6853 107.618 67.3466 108.307 70.0047 109.003C72.6628 109.698 75.3304 110.337 77.9758 111.067C80.6212 111.797 83.2095 112.614 85.7246 113.36C88.0271 110.318 87.8683 109.692 85.4769 107.377C80.2528 102.315 73.7807 99.0976 67.823 95.1152C65.6508 93.6607 63.3356 92.4031 61.8811 90.0531C61.4715 89.3925 60.6108 88.9511 59.8614 88.5764C57.9178 87.6014 57.2795 85.5848 56.1521 83.9779C55.9012 83.6222 56.276 82.8251 56.4284 81.793C63.18 84.6988 69.1568 88.4112 75.0795 92.1554C80.9451 95.8647 86.7663 99.6978 91.5013 104.935C94.1213 102.928 94.6771 100.088 96.0204 97.7479C97.3638 95.4074 98.4499 92.835 99.5614 90.3325C100.628 87.9253 101.467 85.4165 102.626 83.0506C103.785 80.6846 105.205 78.3695 106.716 75.667C104.493 75.6066 103.556 76.6197 102.68 77.8296C101.203 79.8812 99.5741 81.8342 98.1609 83.9302C95.3027 88.1445 90.4978 87.1282 87.7222 84.6892C84.2066 81.5992 81.2913 78.0043 78.6999 74.1077C76.7944 71.2177 74.708 68.439 71.5672 66.6288C69.6617 65.5332 67.9913 64.0437 66.1684 62.7893C64.1709 61.4079 61.8494 61.1347 59.4993 61.0522C58.1164 60.9953 56.7607 61.4473 55.6884 62.3225C53.3511 64.1072 50.8264 65.6507 48.3842 67.3274C45.6721 69.2011 42.5313 69.5505 39.3937 70.0745C31.6068 71.3765 23.7976 70.8366 15.9853 70.5572C10.831 70.3762 5.6641 70.3889 0.567024 68.9217C-0.331712 67.3973 0.227219 66.1842 1.45941 65.1108C3.14255 63.6372 5.08611 62.9354 7.31231 63.2561C11.2756 63.8774 15.3074 63.9277 19.2849 63.4054C21.6699 63.0656 24.1438 63.2403 26.57 63.3705C33.4106 63.7325 40.0415 62.3002 46.6344 60.8743C48.6827 60.4297 50.4961 58.7974 52.3507 57.6128C56.2347 55.1389 60.2552 53.0366 65.0315 53.4113C66.7082 53.5069 68.3496 53.9321 69.8618 54.6626C76.3689 58.0828 82.2472 62.3288 86.5694 68.4326C87.0108 69.0678 87.8397 69.4203 88.5066 69.9316C93.772 64.7297 100.165 62.0811 106.745 59.7501C108.11 59.2674 109.362 58.4512 110.642 57.743C111.277 57.3905 111.813 56.7395 112.483 56.5712C114.297 56.1171 115.157 55.1675 115.081 53.2113C115.005 51.255 114.24 49.9688 112.461 49.2892C110.01 48.3365 107.58 47.3075 105.059 46.593C102.978 46.0023 101.156 44.37 98.7325 44.9702C98.3673 45.0591 97.8274 44.5129 97.3955 44.2239C96.7826 43.8142 96.2491 43.1695 95.5822 42.9822C92.743 42.1819 90.682 40.2701 88.459 38.4885C83.1301 34.2171 80.2941 28.6913 79.7288 21.9746C79.659 21.1267 79.8495 19.9199 80.4053 19.434C81.358 18.5925 82.2758 19.5293 83.1682 20.1454C86.6297 22.5399 89.9357 25.2933 93.6958 27.0844C98.0307 29.1455 102.74 30.4824 107.374 31.829C109.702 32.5054 109.832 32.2069 110.616 29.7266C112.969 22.2763 115.097 14.8006 115.126 6.86125C115.126 3.00589 116.879 1.40214 119.839 0.659016C121.334 0.284278 122.411 0.570095 122.878 2.03411C123.63 4.22889 124.243 6.46909 124.713 8.74129C125.539 13.1873 126.025 17.7318 126.92 22.1779C127.584 25.4679 128.645 28.6818 129.598 31.9084C130.023 33.3501 130.969 33.6614 132.926 33.347C134.361 33.1183 135.825 32.8039 137.257 32.8833C141.068 33.0961 142.767 34.6681 144.117 38.2503C145.61 42.0739 144.933 45.4942 142.434 48.5715C141.437 49.8069 141.227 50.9755 141.669 52.3824C142.11 53.7892 142.51 55.2215 143.069 56.5871C144.901 61.0585 146.804 65.5046 148.668 69.9633C150.608 74.6126 151.005 79.1349 147.629 83.3935C146.569 84.7274 145.429 85.0132 143.749 84.5559C138.239 83.0506 133.586 80.1098 129.305 76.4609C127.724 75.1017 125.961 73.9552 123.821 72.3769ZM138.823 72.6945L139.366 72.2499C139.144 71.3956 139.071 70.4651 138.671 69.7093C137.4 67.3052 136.108 64.9012 134.644 62.6146C133.132 60.2487 132.376 60.1788 129.794 61.6111C129.337 61.8683 128.816 62.0112 128.356 62.2653C126.536 63.2815 126.419 64.6916 128.095 65.8507C130.867 67.7689 133.657 69.6595 136.467 71.5226C137.228 71.9604 138.015 72.3518 138.823 72.6945ZM121.277 32.4355C120.547 29.2979 121.398 25.7665 118.679 22.5463L114.726 31.9115C117.266 33.5534 118.178 33.6169 121.277 32.4355Z" fill="black"/>
</g>
<defs>
<clipPath id="clip0_729_1514">
<rect width="150" height="159.524" fill="white" transform="translate(0.160156 0.47168)"/>
</clipPath>
</defs>
</svg>
