<svg width="151" height="241" viewBox="0 0 151 241" fill="none" xmlns="http://www.w3.org/2000/svg">
<g clip-path="url(#clip0_729_1238)">
<path d="M16.3222 140.775C21.4855 138.095 25.1858 136.266 28.8009 134.276C39.7911 128.219 51.5297 124.57 63.7788 128.407C82.1099 134.148 97.4893 144.228 105.638 162.738C106.761 165.29 108.088 168.122 108.037 170.793C107.612 192.68 115.327 211.624 128.018 229.002C132.203 234.727 131.336 236.539 124.182 240.86C116.662 233.672 111.244 224.859 105.468 216.192C96.7662 202.973 94.7417 187.832 91.6795 172.971C90.8288 168.82 89.3487 165.451 86.2695 162.763C76.3171 154.121 65.1143 149.153 51.9721 153.976C44.0643 156.96 36.4592 160.691 29.2603 165.12C26.1385 167.008 24.2586 171.074 22.0469 174.315C18.5253 179.487 13.8128 180.159 9.47463 175.565C7.79727 173.652 6.45951 171.465 5.5192 169.101C-1.54103 152.735 -1.00513 135.722 3.56275 119.177C8.53043 101.314 17.428 85.3051 31.6335 72.6563C46.2388 59.6246 62.6049 52.658 82.6713 54.7931C95.7899 56.1792 108.675 59.2497 121.009 63.9288C125.05 65.4514 129.881 65.3324 134.304 65.1027C135.81 65.0176 138.651 61.9554 138.388 60.8495C136.686 53.6277 136.065 45.6488 127.993 41.7104C124.497 40.0091 121.426 37.4572 117.947 35.6794C106.353 29.8271 94.6141 24.2555 83.0711 18.3776C79.6686 16.6764 76.5212 14.2691 73.3229 12.0915C70.771 10.3902 68.3892 8.48479 65.7863 6.57938C65.8884 0.471861 66.118 -0.0385173 71.1538 0.778087C74.764 1.4035 78.2991 2.40416 81.7016 3.7638C90.0973 7.00469 98.4164 10.4497 106.719 13.9714C118.474 18.905 130.74 23.3708 137.86 34.8968C144.512 45.6573 150.152 56.9452 150.16 70.1469C150.16 78.1684 141.518 88.3929 133.462 88.1633C126.215 87.9591 118.959 86.3004 111.788 84.8883C101.581 82.8808 91.4583 79.7846 81.1657 78.4491C57.1524 75.3273 34.313 89.0139 24.5478 110.348C21.3919 117.246 19.2399 124.613 16.8921 131.869C16.2371 134.089 16.5604 136.632 16.3222 140.775Z" fill="black"/>
</g>
<defs>
<clipPath id="clip0_729_1238">
<rect width="150" height="240.388" fill="white" transform="translate(0.160156 0.47168)"/>
</clipPath>
</defs>
</svg>
