<svg width="151" height="367" viewBox="0 0 151 367" fill="none" xmlns="http://www.w3.org/2000/svg">
<g clip-path="url(#clip0_729_1470)">
<path d="M127.037 329.697C122.393 336.271 115.996 338.344 109.422 340.058C107.661 340.514 105.707 340.594 104.138 341.411C89.2048 349.25 82.463 343.701 76.3778 328.832C74.9847 325.429 74.256 321.754 73.1751 318.223C73.1271 318.047 72.7347 317.975 71.5737 317.367C70.2233 318.992 68.7569 320.517 67.186 321.93C63.4868 324.869 59.8838 328.128 55.7362 330.25C50.788 332.78 48.0897 331.403 45.1512 326.662C43.3497 323.756 41.7083 320.601 39.3142 318.231C35.0145 313.972 29.4578 314.268 25.054 318.335C17.7838 325.061 16.0143 333.548 18.8968 342.476C20.7304 348.153 24.3815 353.285 27.4721 358.49C28.7692 360.684 30.7469 362.493 33.4212 365.64C24.8058 366.032 17.4796 368.202 11.3544 361.852C10.7678 361.309 10.1474 360.804 9.49677 360.339C6.66235 358.073 2.66694 357.064 1.69812 352.805C0.344961 347.088 -0.495756 341.563 0.833378 335.502C2.71498 326.935 6.86252 319.592 11.4104 312.418C17.5516 302.714 36.8161 293.602 48.2418 295.172C51.7008 295.644 54.9996 297.806 58.1943 299.535C59.9799 300.496 61.3971 302.146 63.2947 303.755C69.0276 297.55 70.8051 290.944 69.7642 283.001C68.1628 270.607 66.6495 258.18 66.025 245.673C65.3685 232.734 69.0116 220.924 78.8359 211.732C80.9308 209.716 83.297 208.002 85.8659 206.64C90.3099 204.251 94.9493 202.245 99.7338 200.643C103.193 199.57 107.036 199.562 110.711 199.458C113.033 199.394 115.363 200.034 118.342 200.451C118.502 197.993 118.974 195.903 118.718 193.917C117.341 183.444 117.301 172.787 114.426 162.522C114.041 160.716 113.405 158.972 112.537 157.342C110.335 153.811 108.093 153.563 104.602 156.061C94.4332 163.347 88.2119 162.61 79.2843 152.794C69.1076 141.585 59.1071 130.239 48.8584 119.085C46.5924 116.603 43.726 114.674 40.5473 111.991C37.3566 118.667 35.652 125.955 35.551 133.354C35.1827 153.138 31.8919 172.587 29.4498 192.108C27.7764 205.503 28.2167 206.112 40.4031 211.164C41.2679 211.524 42.0045 212.277 43.4858 213.39C34.0457 217.962 26.0149 223.574 15.598 223.278C11.7867 223.174 9.71296 221.789 8.28774 218.474C6.45417 214.206 5.46133 209.939 6.39813 205.279C11.2022 181.178 12.5073 156.709 14.1327 132.257C14.5731 125.651 15.9503 119.061 17.3355 112.568C18.6005 106.787 21.0827 101.43 26.207 97.9393C31.3314 94.4483 36.0875 90.4209 41.6522 88.235C48.8183 85.4166 56.4889 85.833 62.7742 91.2216C71.9341 98.9562 80.7896 106.963 89.7733 114.898C90.8942 115.891 92.1753 116.747 94.4172 118.509C93.4244 111.615 94.2091 105.842 90.9343 100.614C89.9895 99.1163 90.0375 97.0345 89.3329 95.3291C87.9557 91.9742 86.4024 88.6834 84.8731 85.3926C84.4327 84.4318 83.7521 83.583 83.3278 82.6222C77.3227 69.0106 72.8148 54.9426 72.5666 39.9858C72.4705 33.9807 73.9438 27.8875 75.1848 21.9384C76.1376 17.4146 78.3876 13.8195 83.2637 11.8578C86.5385 10.5367 88.9966 7.33398 92.0712 5.45237C98.9411 1.32085 107.004 2.10552 114.49 0.600234C117.973 -0.104367 119.959 2.2016 119.967 5.78866C119.967 7.91047 119.767 10.0403 119.743 12.1941C119.687 16.9502 120.103 21.8023 119.527 26.4543C118.974 30.9621 121.328 35.8783 117.485 40.0659C116.548 41.0828 116.956 43.717 117.333 45.4865C118.998 53.2852 120.802 61.0572 122.745 68.8024C123.098 70.1956 124.403 71.3486 125.436 72.8539C129.679 71.4127 133.587 69.8834 137.622 68.8505C139.272 68.4496 141.012 68.7082 142.474 69.5711C144.74 71.1725 143.667 73.4704 142.21 75.1278C139.055 78.7229 135.805 82.2459 132.426 85.6168C128.743 89.2839 128.638 93.0711 130.144 97.9553C132.169 104.489 132.97 111.399 134.363 118.133C134.844 120.447 135.164 122.937 136.165 124.986C143.211 139.11 145.693 154.091 146.005 169.769C146.189 178.76 147.791 187.768 149.336 196.672C152.219 213.318 146.718 227.578 137.326 240.709C133.587 245.946 129.239 246.538 123.714 242.575C116.788 237.643 109.95 232.79 101.735 230.108C94.4252 227.706 91.5988 229.444 92.2954 237.178C93.0961 245.801 91.9111 254.833 97.0995 262.728C97.8362 263.841 96.7712 266.171 96.491 267.932C96.0666 270.535 94.9937 273.185 95.2339 275.707C96.3149 286.836 97.7161 297.934 99.0932 309.023C100.006 316.342 104.242 321.178 110.943 323.844C116.084 325.854 121.28 327.599 127.037 329.697Z" fill="black"/>
</g>
<defs>
<clipPath id="clip0_729_1470">
<rect width="150" height="365.856" fill="white" transform="translate(0.160156 0.47168)"/>
</clipPath>
</defs>
</svg>
