<svg width="151" height="238" viewBox="0 0 151 238" fill="none" xmlns="http://www.w3.org/2000/svg">
<g clip-path="url(#clip0_729_1214)">
<path d="M18.4225 227.275C16.5955 229.839 14.8861 231.98 13.4512 234.332C11.883 236.818 9.67967 238.621 7.04506 237.516C6.05165 237.001 5.17525 236.287 4.47089 235.418C3.76653 234.549 3.24942 233.544 2.95201 232.466C0.333092 220.704 -0.9058 209.076 1.30539 196.875C5.34355 174.646 11.4988 152.738 12.032 129.905C12.1888 123.718 14.5176 117.61 15.1684 111.392C17.1287 91.9772 18.7204 72.5234 20.516 53.0854C21.7236 39.9672 25.0011 27.4529 32.2777 16.3185C33.8504 14.0166 35.83 12.021 38.1193 10.4299C42.1653 7.52866 46.2897 4.69019 50.7513 2.64367C54.0098 1.07711 57.608 0.349382 61.2191 0.526572C70.5736 1.35773 80.0377 2.1732 89.0942 4.53337C95.7278 6.26625 102.04 9.94372 107.913 13.6682C111.833 16.1774 114.797 16.3969 118.577 13.9192C121.842 11.8076 125.278 9.97169 128.849 8.43039C133.553 6.36034 137.591 8.10106 140.814 11.5668C146.93 18.1847 149.439 26.3786 150.137 35.145C150.498 39.4733 147.001 41.606 143.943 43.3546C141.332 44.8679 138.454 43.9897 136.062 41.7864C133.898 39.7398 131.522 37.9286 129.241 36.0075L127.555 36.9798C127.882 39.0817 128.329 41.163 128.896 43.2135C134.518 60.1972 137.701 77.5417 136.305 95.4821C136.047 98.8068 134.737 102.053 133.906 105.331C133.169 108.271 130.942 110.098 128.292 109.878C126.002 109.682 123.713 108.075 121.705 106.687C120.788 106.052 120.317 104.484 120.035 103.253C116.577 88.2919 111.888 73.3938 110.163 58.2135C108.368 42.1235 99.0445 32.4555 86.4125 25.7749C75.8036 20.1763 63.4617 18.9923 51.4099 18.5611C47.3169 18.4121 44.6744 21.2427 43.8041 25.2025C41.9144 33.8277 39.7973 42.4529 38.527 51.2114C36.7785 63.2945 36.5824 75.6364 34.2301 87.5705C27.7691 120.268 23.6211 153.436 15.1449 185.733C12.3927 196.24 11.6948 207.304 10.1815 218.132C9.3425 224.162 9.46012 224.162 15.537 226.021C16.5201 226.388 17.4832 226.807 18.4225 227.275Z" fill="black"/>
</g>
<defs>
<clipPath id="clip0_729_1214">
<rect width="150" height="237.358" fill="white" transform="translate(0.160156 0.47168)"/>
</clipPath>
</defs>
</svg>
