<svg width="151" height="129" viewBox="0 0 151 129" fill="none" xmlns="http://www.w3.org/2000/svg">
<g clip-path="url(#clip0_729_1458)">
<path d="M19.7092 79.8111C15.8553 77.1993 12.0015 75.049 8.72205 72.236C5.56043 69.5064 2.94375 66.0944 0.160156 63.0604C4.57856 55.9468 10.9313 53.1485 17.7405 55.4068C16.0713 56.045 14.7507 56.4377 13.5332 57.0367C10.5876 58.5095 10.2979 60.1835 12.8753 62.0736C14.9667 63.6103 17.2054 65.1567 19.6208 66.0011C28.7031 69.1725 38.0014 71.7647 47.0002 75.1472C53.51 77.6019 58.2917 75.1865 63.3974 71.2197C62.7542 69.8255 62.3664 68.3674 61.522 67.2579C58.0167 62.6382 58.5371 57.6258 60.4567 52.8097C62.3124 48.1606 64.4431 43.5163 68.6946 40.3498C70.6583 38.877 70.565 37.0655 69.1855 35.2245C67.6096 33.1429 66.0582 31.0417 64.4038 29.024C56.971 19.9564 60.5941 11.5025 67.9385 6.36244C76.1715 0.579234 85.5041 -0.235717 95.1117 0.922888C99.2998 1.48668 103.449 2.30643 107.537 3.37756C117.002 5.7144 124.479 10.2899 126.571 20.7615C126.746 21.2589 126.976 21.7349 127.258 22.1803C129.919 22.5927 132.658 22.7842 135.295 23.4813C139.021 24.4632 139.644 27.34 136.605 29.8634C134.49 31.6063 131.951 32.8434 129.57 34.2475C128.397 34.9397 127.008 35.6712 128.009 37.1931C128.397 37.7724 129.909 37.7429 130.906 37.7282C131.691 37.7282 132.457 37.2373 133.252 37.0949C136.998 36.4027 138.888 37.2667 140.125 40.88C142.34 47.3456 143.037 53.988 140.877 60.6107C139.517 64.7738 137.553 68.7454 136.296 72.9331C135.471 75.6823 135.354 78.6623 135.044 81.549C134.853 83.3213 135.074 85.1475 134.818 86.91C133.547 95.5652 126.473 98.8495 118.873 94.1316L115.613 96.0954C118.171 100.617 123.522 99.8657 126.792 102.89C129.939 105.806 134.004 107.799 137.848 109.871C141.692 111.943 145.756 113.568 150.16 115.595C149.232 118.924 148.687 122.125 147.44 125.041C146.017 128.418 142.973 129.356 139.782 127.638C135.486 125.316 131.176 122.974 127.13 120.274C120.628 115.897 113.66 112.255 106.354 109.414C96.7956 105.683 87.5121 101.231 77.9585 97.4749C71.4781 94.922 64.7622 92.9583 58.1002 90.8964C56.6958 90.4524 55.1903 90.4422 53.78 90.8669C48.2373 92.8307 42.7389 91.8095 37.3337 90.7C31.0006 89.399 24.7854 88.2993 18.7322 91.1909C15.1729 86.1687 15.2024 85.7317 19.7092 79.8111ZM94.5717 43.9729C95.0705 44.9663 95.6262 45.9302 96.236 46.8596C98.9705 50.4385 100.355 54.5623 101.42 58.8777C102.103 61.622 101.784 64.0128 100.051 66.2417C97.7873 69.1578 95.5683 72.1329 93.0891 75.373L116.595 92.8012C116.291 90.4496 116.291 89.1486 115.932 87.9655C114.808 84.2491 113.517 80.6015 112.348 76.8802C110.773 71.8874 109.403 66.8259 110.223 61.5238C111.051 56.0613 112.005 50.6136 113.085 45.1806C113.473 43.2169 113.762 41.0666 111.421 40.9438C105.641 40.5326 99.8501 41.5686 94.5717 43.9582V43.9729ZM72.8871 17.0992C76.3237 21.4243 79.8535 25.8378 83.3538 30.2857C84.4388 31.6603 85.7201 31.7045 87.2813 31.3019C91.6997 30.1629 96.2065 29.3382 100.537 27.9881C103.669 27.0062 107.311 26.962 109.658 24.1932C106.202 14.2665 79.9124 8.9202 72.8871 17.0992ZM88.4547 61.622C86.7658 56.5899 83.9479 52.9914 81.2477 49.3781C80.7568 48.7202 79.1024 48.3962 78.2383 48.6564C73.7708 50.1292 71.8562 55.9517 74.3845 59.9479C75.1125 61.2261 76.0483 62.3742 77.1533 63.3452C78.091 64.0766 79.608 64.818 80.5899 64.5676C83.2066 63.8999 85.6711 62.702 88.4547 61.622Z" fill="black"/>
</g>
<defs>
<clipPath id="clip0_729_1458">
<rect width="150" height="127.987" fill="white" transform="translate(0.160156 0.47168)"/>
</clipPath>
</defs>
</svg>
