<svg width="151" height="129" viewBox="0 0 151 129" fill="none" xmlns="http://www.w3.org/2000/svg">
<g clip-path="url(#clip0_729_1258)">
<path d="M90.7712 64.0879C97.0494 55.4368 99.429 45.7908 102.803 36.6489C103.684 34.2492 103.012 30.6664 101.822 28.2398C99.6844 23.8974 100.928 20.644 103.341 17.1217C105.217 14.3792 106.413 11.1526 108.423 8.53109C110.196 6.35531 112.298 4.47051 114.654 2.94516C116.059 1.98392 118.015 1.89654 119.709 1.30501C124.69 -0.435974 126.33 0.471487 128.616 4.95502C131.701 11.0518 130.565 16.6041 127.204 22.0489C125.342 25.1007 123.352 28.0986 121.228 30.9689C118.392 34.8071 118.183 38.242 120.946 42.497C125.786 49.9584 129.987 57.8365 134.39 65.5667C135.274 67.1178 136.018 68.7441 136.615 70.4267C138.82 76.7318 140.924 83.0706 143.095 89.3893C145.192 95.4861 147.363 101.556 149.42 107.673C149.983 109.336 150.209 111.095 150.087 112.847C149.964 114.598 149.495 116.308 148.706 117.877C147.918 119.446 146.826 120.843 145.493 121.986C144.161 123.13 142.614 123.997 140.944 124.538C131.291 127.899 121.228 128.007 111.152 128.114C102.299 128.208 94.5959 125.009 87.2489 120.485C84.5601 118.845 82.0394 117.42 78.5708 119.53C77.166 120.384 74.2621 119.463 72.3396 118.643C65.1471 115.585 58.0555 112.277 50.9773 108.964C46.9038 107.055 43.3008 105.603 38.3468 107.619C34.4951 109.206 29.5612 107.955 25.1583 108.459C17.7978 109.3 17.818 109.461 11.4053 104.151C12.4068 98.195 17.6365 95.923 21.878 93.0057C26.1196 90.0883 30.6972 87.8567 35.1135 85.2485C37.2645 83.9647 39.429 83.7092 41.3044 85.3897C43.321 87.171 43.8655 89.1607 42.1783 91.8495C40.4911 94.5383 41.3111 96.8842 43.8184 97.5833C48.5238 98.9277 53.2695 100.205 58.0824 101.079C62.3642 101.852 63.0902 100.897 62.7877 96.3733C62.5323 92.8107 61.7862 89.1809 62.2231 85.6989C62.66 82.2169 64.2867 79.0106 65.6849 74.7825C61.3694 73.1087 57.1413 71.2736 52.7922 69.8284C43.6302 66.817 34.3069 64.3299 25.3197 60.9689C15.6871 57.366 7.4057 51.7195 2.98939 41.845C-0.862279 33.2409 -0.512738 24.4755 2.37769 15.6967C2.73066 14.6302 3.27507 13.6371 3.98424 12.7659C5.51684 10.9308 6.93517 8.34287 9.91971 9.59988C12.9042 10.8569 13.2807 13.344 12.7967 16.3218C10.7801 28.7641 14.7729 37.1934 26.3885 41.9996C38.9652 47.1957 51.9318 51.4103 64.8379 55.8334C73.2538 58.7305 81.8041 61.2512 90.7712 64.0879ZM135.27 84.1327C135.176 83.2825 134.994 82.4445 134.726 81.6321C130.128 72.4769 125.745 63.2006 120.711 54.2873C119.333 51.8472 116.079 50.3214 113.464 48.7484C111.448 47.5183 109.68 48.3249 108.584 50.597C104.444 59.2279 100.229 67.8253 96.0277 76.4294C95.2412 78.0359 94.3539 79.5954 93.6145 81.2221C90.4956 88.065 87.4169 94.9281 84.2038 102.06C100.417 114.16 117.908 115.605 136.279 111.578C140.097 110.738 141.273 107.626 139.64 103.546C137.623 98.3899 134.934 93.4628 132.595 88.4347C132.319 87.8432 132.138 87.2046 131.822 86.3308L135.27 84.1327ZM77.8516 94.4307C79.196 91.8293 80.6412 89.8464 81.0983 87.6483C81.3873 86.2636 80.4261 83.5344 79.5186 83.2387C78.6151 83.028 77.677 83.0126 76.7671 83.1934C75.8571 83.3742 74.9962 83.7472 74.2419 84.2873C70.9549 86.9895 71.8825 89.8732 77.8516 94.4307Z" fill="black"/>
</g>
<defs>
<clipPath id="clip0_729_1258">
<rect width="150" height="127.643" fill="white" transform="translate(0.160156 0.47168)"/>
</clipPath>
</defs>
</svg>
