<svg width="151" height="311" viewBox="0 0 151 311" fill="none" xmlns="http://www.w3.org/2000/svg">
<g clip-path="url(#clip0_729_1394)">
<path d="M34.79 181.335C30.7967 206.883 27.0109 231.153 23.076 256.26L31.3218 252.721L32.1451 253.59C30.9912 254.374 29.6753 255.003 28.7158 255.982C24.0419 260.714 18.7327 264.843 15.6535 271.041C12.6974 276.979 7.12243 277.406 1.19736 276.946C0.0110558 274.548 -0.429758 271.968 1.35943 269.751C10.6749 258.199 12.3798 244.157 13.9356 230.246C15.7248 214.182 16.6583 198.021 18.0455 181.912C18.9596 171.669 27.0174 164.059 37.4349 164.163C39.989 164.163 42.6209 165.848 45.0519 167.119C47.2365 168.273 49.1618 169.926 52.0077 171.922C52.1827 169.329 52.6106 167.877 52.3189 166.568C49.4665 153.726 46.4132 140.929 43.5804 128.081C42.4703 123.27 41.6648 118.394 41.1688 113.482C40.8706 110.156 40.4233 107.868 36.5468 106.928C33.3055 106.137 33.0851 104.588 34.9391 101.619C35.5096 100.711 36.0735 99.6741 36.9228 99.0842C42.3681 95.3761 42.5172 89.8465 42.3098 84.1289C41.7717 69.2644 41.4152 54.3934 40.6502 39.5418C40.4233 35.0754 39.2565 30.6283 38.148 26.2656C37.7655 24.7616 36.4236 23.3549 35.2114 22.2399C32.6637 19.9191 29.7531 17.9744 27.3091 15.5628C25.7403 14.0135 24.7161 11.8872 25.306 10.7204C27.0239 8.29589 28.4825 5.61211 30.5245 3.49231C34.1612 -0.293503 37.4543 -0.345363 42.0634 2.35138C47.619 5.59266 53.3755 8.5163 58.8662 11.8613C61.2064 13.281 63.1058 15.4267 65.4331 17.4493L68.9272 14.208L70.3144 27.6982C66.2628 33.3834 60.2989 29.1503 55.1712 31.2247C54.9702 32.9685 54.5229 34.8485 54.5748 36.7154C55.223 54.5554 55.9102 72.3695 56.6233 90.8708C64.9858 91.4088 72.2981 88.6408 79.6947 86.884C87.0913 85.1272 94.2675 82.9944 101.392 80.5376C108.704 78.0288 115.816 74.9496 123.886 71.7796C125.274 76.1489 126.557 79.9217 127.659 83.7529C129.021 88.5046 130.382 93.2628 131.445 98.0858C132.508 102.909 133.221 107.738 134.038 112.581C134.284 114.065 134.038 115.705 134.544 117.067C136.839 123.076 139.205 129.072 141.798 134.965C143.315 138.407 146.407 139.788 150.069 139.911C150.582 147.483 149.246 149.104 142.128 149.635C140.832 149.739 139.535 149.953 138.278 150.141C134.894 150.646 132.366 149.337 130.674 146.452C129.616 144.827 128.746 143.087 128.081 141.266C124.658 130.155 121.345 119.012 118.046 107.868C116.522 102.682 115.161 97.4959 113.611 92.3099C112.801 89.6326 111.168 88.2259 108.257 89.7558C97.5866 95.3502 85.892 97.4506 74.2818 99.888C67.9807 101.185 61.751 102.857 55.7676 104.296C53.7061 108.892 55.0545 112.918 55.9102 116.853C59.2487 132.229 62.8271 147.548 66.1267 162.931C67.4232 169.07 67.2417 169.018 73.7308 170.619C76.0904 171.203 78.839 171.073 80.3495 173.861C80.7773 174.658 82.6183 174.775 83.8436 175.066C90.9873 176.862 93.8526 181.983 92.0764 189.114C89.5612 199.123 87.4543 209.21 85.0428 219.271C83.3379 226.363 80.9977 233.325 79.7012 240.482C78.489 247.172 77.2767 253.933 78.2685 260.902C78.7742 264.467 78.0676 268.201 77.9768 271.857C77.8666 276.168 77.8926 280.479 77.7435 284.79C77.5425 290.579 77.4064 296.381 76.8489 302.137C76.7257 303.466 75.2606 305.003 74.0095 305.82C71.5137 307.434 68.7392 308.614 65.2451 310.403C64.5968 308.458 63.3716 306.565 63.5207 304.776C64.7265 290.391 66.2564 276.039 67.5529 261.667C69.3544 242.548 72.7127 223.608 77.5944 205.035C78.9427 199.849 80.1226 194.566 81.0236 189.27C81.1145 188.472 81.0368 187.663 80.7956 186.897C80.5544 186.131 80.1551 185.424 79.6234 184.823C78.1324 183.377 76.045 182.437 74.0614 181.659C69.9449 180.051 68.7262 180.855 68.078 185.192C66.7814 193.788 57.2521 197.425 50.238 192.141C45.4603 188.531 40.4428 185.263 34.79 181.335Z" fill="black"/>
</g>
<defs>
<clipPath id="clip0_729_1394">
<rect width="150" height="309.912" fill="white" transform="translate(0.160156 0.47168)"/>
</clipPath>
</defs>
</svg>
