<svg width="151" height="161" viewBox="0 0 151 161" fill="none" xmlns="http://www.w3.org/2000/svg">
<g clip-path="url(#clip0_729_1438)">
<path d="M80.9265 160.583C69.5922 160.911 60.1719 157.833 51.2557 153.045C46.6747 150.669 42.2512 148 38.0127 145.056C35.3319 143.121 33.1176 140.403 30.9354 137.834C23.8957 129.562 16.8131 121.316 10.0683 112.807C6.85134 108.786 4.4172 104.185 1.60239 99.8586C-0.349217 96.8615 -0.15084 93.7625 1.18955 90.6635C1.61311 89.6824 2.26186 88.7816 2.59427 87.779C4.26171 83.1306 7.50009 80.6267 12.4166 79.9565C18.2285 79.163 23.9922 78.0585 29.7934 77.1578C34.7957 76.3857 39.4442 74.8255 43.5404 71.7319C44.5144 70.946 45.5674 70.2632 46.6823 69.6945C52.7033 66.8475 55.6682 62.0543 56.1615 55.4918C56.3062 53.5884 57.3196 51.7387 57.3732 49.8407C57.5287 44.3559 57.2928 38.8603 57.4054 33.37C57.5501 26.6252 57.5984 19.8643 58.215 13.1517C59.1371 2.93791 71.1845 -2.74533 80.8032 2.40711C89.698 7.18961 98.4051 12.3957 107.391 17.0924C115.567 21.3816 123.915 25.3599 132.317 29.188C135.63 30.7 139.351 30.759 142.504 33.2896C150.326 39.5144 152.777 51.8996 146.943 59.9901C145.245 62.2406 144.269 64.9532 144.144 67.7697C143.185 83.597 141.801 99.3117 136.638 114.565C133.089 125.053 127.073 133.363 119.288 140.955C113.219 146.853 105.981 151.029 99.3595 156.096C95.0702 159.361 90.0411 159.281 85.2157 160.24C83.7968 160.464 82.3629 160.579 80.9265 160.583ZM132.274 68.8367C130.505 68.3005 129.331 67.9252 128.13 67.6196C122.907 66.3712 118.251 63.4166 114.897 59.2234C109.97 53.1166 104.667 47.3905 98.0727 42.9029C94.9308 40.7583 91.6067 38.9568 88.6149 36.4154C83.7574 32.287 78.7711 34.5335 77.1948 40.903C76.3531 44.329 76.2941 47.9481 75.6346 51.4063C73.7581 61.1804 69.442 69.8447 63.6087 77.8548C59.8556 83.0448 55.443 87.1946 49.095 89.0444C46.2051 89.8861 43.5297 91.441 40.6666 92.4007C36.9987 93.6948 33.2568 94.769 29.461 95.6176C24.4962 96.647 23.6973 98.3895 26.7427 102.368C30.099 106.759 33.8199 110.946 36.624 115.664C43.149 126.661 52.7623 134.028 63.5711 140.236C69.0828 143.41 74.9376 145.941 81.2267 145.866C87.3282 145.796 93.6548 145.094 99.456 143.271C103.659 141.947 107.675 138.858 110.833 135.636C116.122 130.283 120 123.701 122.119 116.479C122.913 113.799 123.856 111.15 126.827 109.708C127.829 109.22 128.306 107.397 128.751 106.094C129.331 104.416 129.561 102.62 130.065 100.915C133.153 90.5456 132.928 79.8922 132.274 68.8367Z" fill="black"/>
</g>
<defs>
<clipPath id="clip0_729_1438">
<rect width="150" height="160.139" fill="white" transform="translate(0.160156 0.47168)"/>
</clipPath>
</defs>
</svg>
