<svg width="151" height="213" viewBox="0 0 151 213" fill="none" xmlns="http://www.w3.org/2000/svg">
<g clip-path="url(#clip0_729_1478)">
<path d="M139.359 210.745L134.678 212.992C125.439 208.764 123.816 200.265 122.496 191.702C121.724 186.703 120.181 181.963 118.391 177.27C117.262 174.303 116.224 171.304 114.979 168.381C113.219 164.253 111.371 160.163 109.435 156.111C106.758 150.512 104.046 144.924 101.187 139.408C98.9991 135.204 96.4458 131.191 94.2505 126.987C90.5438 119.9 85.6719 113.417 83.2339 105.662C81.8181 101.156 80.2113 96.7096 78.6125 92.2671C78.3302 91.4717 77.5427 90.1752 77.1887 90.2388C76.3098 90.3939 75.1366 91.0343 74.8025 91.7859C73.9481 93.6817 73.3722 95.691 73.0923 97.7516C72.5753 102.464 72.5316 107.233 71.9748 111.942C71.5294 115.708 70.7419 119.463 68.1051 122.481C66.3899 124.394 64.1524 125.764 61.6685 126.421C59.1845 127.078 56.5625 126.994 54.1256 126.18C53.4256 125.949 52.6183 126.068 51.8626 125.993C48.7724 125.667 45.5868 126.542 42.5682 124.927C41.4904 124.35 39.9751 124.569 38.6587 124.474C33.6754 124.116 28.6841 123.889 23.7168 123.408C16.2915 122.688 12.3343 127.21 9.00151 132.802C8.05894 134.393 7.13625 135.983 6.0863 137.499C5.03635 139.014 3.70005 139.384 1.92626 138.64C0.152481 137.896 0.0212375 136.624 0.19623 135.061C0.697343 130.753 2.666 126.991 4.93295 123.396C8.31347 117.999 13.0741 114.018 18.6579 111.067C20.3009 110.191 22.1225 109.703 23.9832 109.639C28.0677 109.591 32.1561 109.973 36.2406 110.152C38.7462 110.263 41.2597 110.228 43.7533 110.431C47.5674 110.733 51.3615 111.29 55.1755 111.528C57.1164 111.651 59.089 111.313 61.002 111.186C61.2247 110.594 61.5429 110.188 61.4673 109.882C60.1907 104.6 62.0718 99.3901 61.8292 94.1245C61.7537 92.474 62.5252 90.7877 62.8951 89.1173C64.5257 81.7875 65.8461 74.3663 67.8983 67.1558C69.0357 63.1588 71.4776 59.5436 73.1679 55.6859C73.9874 53.8994 74.5447 52.004 74.8224 50.0583C75.2917 46.1408 75.0888 42.1041 75.8365 38.2622C76.453 35.0805 78.0597 32.0938 79.1932 29.0115C79.9886 26.8201 80.8835 24.6367 81.5039 22.4056C83.0072 16.9172 85.2702 12.0055 89.3984 7.75793C92.4767 4.57625 95.9288 2.61952 99.9337 1.15993C104.627 -0.558172 108.492 1.15993 112.076 3.89219C112.978 4.6787 113.58 5.75403 113.778 6.93467C114.231 9.66693 114.371 12.4469 114.601 15.211C114.658 15.6051 114.586 16.0071 114.394 16.3564C111.837 19.8682 110.529 24.072 108.325 27.6871C106.456 30.7614 106.365 33.2551 107.649 36.1782C109.133 39.5468 110.624 42.9393 112.354 46.1727C115.83 52.6911 119.378 59.1698 123.092 65.557C124.544 68.0546 126.723 70.1267 128.195 72.6124C131.126 77.5479 134.467 82.2011 136.654 87.6338C139.713 95.2221 143.606 102.468 146.959 109.945C148.228 112.777 148.991 115.835 150.168 119.335C146.004 118.675 143.503 116.619 141.272 114.284C135.588 108.319 131.07 101.51 126.763 94.5261C125.534 92.5376 123.908 90.7916 122.528 88.8866C119.147 84.2374 114.804 80.3995 112.044 75.1816C109.495 70.3613 106.047 66.0343 103.004 61.4566C102.344 60.4703 101.835 59.3567 101.055 58.4738C99.7627 57.0102 98.4821 55.4234 96.8793 54.3655C93.9045 52.3769 91.3313 53.7092 90.4166 57.2528C89.2831 61.6276 88.9967 65.9825 89.9274 70.5045C90.7745 74.6168 90.8739 78.8803 91.5818 83.0284C92.2222 86.7986 93.1488 90.5292 94.1153 94.2358C96.5015 103.383 101.636 111.393 105.251 120.031C108.218 127.103 111.447 134.062 114.546 141.078C118.069 149.068 121.513 157.09 125.109 165.048C128.223 171.952 130.53 179.063 131.44 186.6C132.196 192.864 134.892 198.531 137.199 204.286C138.022 206.354 138.623 208.502 139.359 210.745ZM82.4584 80.5427C79.3602 81.6762 78.4813 82.9926 78.4296 86.6316L81.7107 87.8247C82.5061 85.2754 85.7395 83.2113 82.3272 80.4671C82.6175 80.2007 83.039 79.9859 83.1544 79.6717C83.2987 79.2476 83.2846 78.7856 83.1146 78.3712C82.9766 78.2571 82.812 78.1798 82.6361 78.1464C82.4601 78.113 82.2786 78.1247 82.1084 78.1803C81.7902 78.4468 81.4442 79.0036 81.5238 79.3456C81.6272 79.7791 82.1283 80.141 82.4584 80.5427ZM97.0742 46.4431C97.8696 47.9464 98.4622 48.8294 99.7309 47.8033C101.56 46.2959 102.475 44.3432 102.734 41.9848C102.948 40.0281 103.438 38.1071 103.696 36.1544C104.237 32.0341 104.818 27.9138 105.156 23.7777C105.287 22.163 104.551 20.7113 102.308 20.5284C102.197 23.5828 101.016 26.3827 101.91 29.3973C102.185 30.312 101.692 31.4495 101.584 32.4875C101.441 33.8715 101.529 35.3112 101.187 36.6356C100.24 40.0638 100.9 44.1523 97.0742 46.4431ZM85.1827 66.6109C84.785 68.7108 84.2879 70.7988 84.081 72.9186C84.0413 73.3362 85.0912 74.1873 85.6719 74.239C86.173 74.2827 87.1911 73.4754 87.215 73.0021C87.3462 70.8426 87.4775 68.6035 85.1827 66.6109Z" fill="black"/>
</g>
<defs>
<clipPath id="clip0_729_1478">
<rect width="150" height="212.52" fill="white" transform="translate(0.160156 0.47168)"/>
</clipPath>
</defs>
</svg>
