<svg width="151" height="121" viewBox="0 0 151 121" fill="none" xmlns="http://www.w3.org/2000/svg">
<g clip-path="url(#clip0_729_1462)">
<path d="M118.355 88.5854L114.05 98.6208L109.833 98.3941C107.359 93.9824 107.454 93.8134 99.525 88.8699C95.839 86.5774 91.6376 85.1303 87.7043 83.2254C85.8365 82.3266 84.4924 82.9409 83.4699 84.4871C82.233 86.3424 80.9961 87.6866 78.5223 88.2761C77.0174 88.6266 75.7351 91.0963 74.8899 92.8692C72.9521 96.9386 71.2534 101.115 69.6248 105.337C68.077 109.326 65.3845 112.769 61.8858 115.233C59.8243 116.684 56.7362 116.775 54.0521 117.203C51.9122 117.55 49.694 117.344 47.5377 117.616C42.6238 118.238 37.6401 118.023 32.7979 116.981C28.0193 115.966 23.5334 116.981 18.9816 117.962C16.3016 118.539 13.6464 119.219 10.9623 119.768C9.76259 120.062 8.52681 120.183 7.29278 120.127C4.90143 119.904 3.99436 118.065 5.21065 116.037C5.74452 115.074 6.48863 114.244 7.38761 113.608C9.93565 112.037 12.4507 110.021 15.2544 109.345C22.8407 107.522 30.5096 105.807 38.434 106.393C42.5282 106.694 46.643 106.776 50.7495 106.855C52.5316 106.895 54.3138 106.782 56.0765 106.516C57.6515 106.269 59.7872 106.191 60.6118 105.176C62.0095 103.424 62.7022 101.053 63.3908 98.8311C63.5516 98.3116 62.5868 96.8479 62.0425 96.7943C58.9997 96.4851 58.0803 94.1185 56.9176 91.9621C55.9539 90.3048 55.0973 88.5875 54.3531 86.8207C51.8545 80.3269 46.4822 76.777 40.8501 73.5281C38.4835 72.1592 35.9025 71.1367 33.4946 69.8709C29.3716 67.7105 25.5001 68.3784 21.9048 70.9965C18.0292 73.8249 14.2854 76.8347 10.4345 79.7002C9.24425 80.6301 7.94564 81.4123 6.56713 82.0297C4.29534 82.978 2.0318 83.1017 0.164062 80.7021C1.28243 78.1123 2.97415 75.8101 5.1117 73.9692C10.2572 69.5163 16.4871 67.0302 22.1068 63.472C23.9333 62.3175 25.8877 61.328 27.7842 60.2849C32.7319 57.5925 37.6177 58.3223 42.4169 60.5611C45.402 61.9547 48.2551 63.6245 51.1783 65.1501C58.2246 68.8278 63.399 74.2991 66.8459 81.4402C67.3612 82.5163 68.0828 83.5017 68.7012 84.553C70.8163 84.0583 70.7916 82.2854 71.5873 81.1351C74.1477 77.4944 74.8322 73.5404 74.8858 69.1247C74.9394 65.6737 76.4278 62.2639 77.0751 58.8171C77.8543 54.6693 78.4934 50.4844 79.0335 46.2996C79.2232 44.8235 78.8727 43.2856 78.881 41.7642C78.9057 37.6412 77.5699 35.8971 73.4592 35.6209C64.0669 34.9818 56.6743 30.5166 50.5104 23.7301C45.5628 18.2877 39.7245 15.9582 32.4227 17.5868C30.423 18.0321 28.3409 18.1104 26.3453 18.5763C24.3498 19.0422 21.6368 18.5474 21.7729 21.9118C19.7114 23.0786 17.7612 24.7979 15.5471 25.2803C12.4425 25.9359 9.30482 26.1462 6.73617 28.2778C6.5393 28.4689 6.29417 28.6028 6.02701 28.6654C4.29534 28.8633 2.27918 29.6672 1.07938 27.8779C-0.0132279 26.2286 1.32263 24.7691 2.27505 23.4373C2.60695 22.9979 3.00633 22.6139 3.45836 22.2994C10.8798 16.8611 18.4909 11.7032 27.3719 8.85007C34.7934 6.46283 42.4499 5.91034 50.1764 6.37625C53.4542 6.57003 56.1754 8.13266 58.4225 10.5529C61.6178 13.9915 65.0194 17.2487 69.4681 18.9721C72.1151 19.9987 74.9517 20.6213 77.7513 21.1656C80.6827 21.751 82.6577 20.6172 84.6821 18.1269C88.6938 13.1792 93.5878 8.87068 100.552 9.36957C104.291 9.63344 107.948 11.0435 111.638 11.9506C115.456 12.8865 119.237 14.0121 123.1 14.6718C124.197 14.8573 125.785 13.9874 126.683 13.1215C128.379 11.5222 129.859 9.70941 131.087 7.7286C133.478 3.77049 137.168 1.82442 141.37 0.785416C145.864 -0.323679 148.317 1.52344 149.364 5.93508C150.758 11.8228 150.572 17.5167 146.796 22.4272C143.53 26.6657 141.056 31.6298 135.762 34.149C131.59 36.128 127.384 35.6992 123.294 34.9736C117.971 34.0047 112.776 32.3019 107.573 30.7722C105.612 30.1948 103.721 29.3996 101.937 28.4015C97.3109 25.8205 91.8438 28.6571 91.4768 33.8851C91.1594 38.4204 90.8872 42.9228 90.3183 47.4087C90.0132 49.8247 89.1803 52.1831 88.4959 54.5415C87.259 58.7511 85.6098 62.8329 85.8448 67.3724C85.9602 69.6565 86.7807 71.2645 89.0649 71.3346C96.812 71.582 102.048 76.6945 107.821 80.764C111.272 83.1636 114.595 85.7735 118.355 88.5854Z" fill="black"/>
</g>
<defs>
<clipPath id="clip0_729_1462">
<rect width="150" height="119.679" fill="white" transform="translate(0.160156 0.47168)"/>
</clipPath>
</defs>
</svg>
