<svg width="151" height="217" viewBox="0 0 151 217" fill="none" xmlns="http://www.w3.org/2000/svg">
<g clip-path="url(#clip0_729_1486)">
<path d="M103.398 213.824C99.4842 214.685 95.8273 215.63 92.0977 216.251C90.4623 216.458 88.8027 216.355 87.2051 215.949C82.1335 214.831 77.1011 213.545 72.0519 212.326C71.3126 212.226 70.588 212.039 69.8935 211.767C60.2536 206.734 50.938 201.31 46.6828 190.44C45.8776 188.377 44.9326 186.163 44.9494 184.021C45.0221 173.431 46.6716 163.148 53.5045 154.57C55.4952 152.065 58.4811 150.343 61.5061 147.86C60.1194 147.15 59.1241 146.25 58.0505 146.149C41.6727 144.572 25.3621 144.517 9.30303 148.833C7.87013 149.22 6.41808 149.532 4.95277 149.767C4.15349 149.811 3.35184 149.775 2.55957 149.661C2.16257 148.822 1.73761 148.022 1.39093 147.195C-1.89693 139.255 1.5419 132.5 10.0411 130.812C22.0742 128.43 34.1576 126.512 46.5151 126.791C52.7329 126.931 58.9675 126.428 66.2813 126.176C63.8937 123.537 62.3169 121.58 60.522 119.841C48.5728 108.289 48.3435 92.1737 54.4887 77.9766C57.9275 70.0422 63.2339 63.802 71.1069 60.0165C73.0781 59.005 75.214 58.3537 77.4142 58.093C84.0738 57.5338 90.7613 57.3213 97.4377 56.9746C98.377 56.8661 99.3102 56.7093 100.233 56.5049C100.591 52.9711 98.2429 51.2265 96.0901 49.6385C93.5571 47.7765 90.588 46.5072 88.0494 44.6452C84.4708 42.0283 80.7803 39.4059 77.7553 36.2578C73.6958 32.0305 73.2149 26.6011 74.5513 21.0766C75.2811 18.1921 76.1886 15.3554 77.2688 12.583C80.4951 4.02786 90.1295 -1.26178 98.8356 1.0755C103.108 2.22178 107.189 4.16765 111.266 5.96255C114.822 7.53379 118.21 9.47407 121.739 11.1012C125.849 13.0024 130.126 13.1701 134.04 10.8608C137.295 8.94846 140.101 10.3016 140.94 14.3332C141.143 15.051 141.23 15.7966 141.197 16.5418C140.258 23.8724 140.666 31.5609 136.227 38.0247C134.348 40.7702 134.851 42.7608 137.172 44.7682C142.859 49.6345 147.017 56.0431 149.143 63.2204C149.702 65.1384 150.373 67.3079 150.032 69.1811C148.763 76.1202 147.628 83.16 145.391 89.8196C143.837 94.4439 140.627 98.5369 137.999 102.77C136.855 104.47 135.568 106.069 134.152 107.551C121.14 122.201 122.784 138.55 129.176 155.079C132.849 164.585 137.591 173.632 139.296 183.887C140.208 189.395 138.832 193.784 135.293 197.743C133.263 200.013 131.334 199.711 129.41 197.184C123.45 189.311 117.881 181.281 114.526 171.815C112.932 167.308 110.198 163.198 107.86 158.954C106.256 156.063 104.651 155.89 102.347 158.35C97.6501 163.355 91.8461 165.619 85.0803 166.279C78.0499 166.902 71.0591 167.912 64.1397 169.304C59.5099 170.277 58.9731 172.256 60.7009 176.646C62.4287 181.035 65.4202 184.144 69.189 186.739C77.4533 192.42 85.7792 198.022 93.887 203.916C97.4097 206.477 101.391 208.758 103.225 213.097C103.454 213.511 103.437 214.07 103.398 213.824ZM108.822 131.164L110.455 130.851C110.936 127.954 111.601 125.075 111.87 122.156C113.156 108.333 119.966 97.3795 129.131 87.4208C131.681 84.6586 133.257 80.9178 134.907 77.4454C135.466 76.2936 135.024 74.5434 134.722 73.1343C133.643 68.0628 130.053 64.6854 126.111 61.9176C118.417 56.5161 117.607 57.3493 115.191 65.39C112.954 72.7597 108.9 79.1509 101.212 81.5664C97.4992 82.7351 93.1936 81.9187 89.1621 82.1648C83.0617 82.5338 76.9501 82.8413 70.8888 83.585C67.8414 83.9597 66.354 86.4367 67.3661 89.2605C68.1489 91.4244 69.4462 93.8735 71.2523 95.1149C77.9622 99.7335 84.7783 104.263 91.9411 108.143C99.719 112.371 105.395 117.895 107.251 126.842C107.558 128.323 108.285 129.727 108.822 131.164Z" fill="black"/>
</g>
<defs>
<clipPath id="clip0_729_1486">
<rect width="150" height="215.897" fill="white" transform="translate(0.160156 0.47168)"/>
</clipPath>
</defs>
</svg>
