<svg width="151" height="368" viewBox="0 0 151 368" fill="none" xmlns="http://www.w3.org/2000/svg">
<g clip-path="url(#clip0_729_1454)">
<path d="M66.1756 112.424L55.9805 120.459L46.3196 121.373C44.5546 120.111 42.2865 118.54 40.0802 116.875C38.8726 115.97 37.2779 115.133 36.7206 113.879C34.2202 108.259 28.8014 106.525 23.8626 104.876C20.3945 103.708 17.5458 102.43 14.9757 99.8525C11.0355 95.9045 6.77787 92.2739 2.58991 88.5349C-1.59804 84.796 0.886865 79.9345 0.352726 75.6769C-0.258823 70.7381 0.809453 65.6134 1.20425 59.7921C2.7106 59.5383 4.23624 59.4165 5.76378 59.4283C15.0067 60.2024 24.2496 60.9146 33.4616 61.9829C36.4735 62.4385 39.4023 63.3331 42.1549 64.6381C45.9248 66.2714 49.4083 68.5938 53.2015 70.1885C55.6941 71.2258 58.5351 71.4503 60.8265 71.9534C62.963 67.1926 65.1073 63.2988 66.493 59.1496C69.5275 50.0925 67.9251 40.7799 67.5071 31.537C67.0891 22.294 67.0503 12.9582 71.9505 4.55911C72.9259 2.79413 75.1476 0.371151 76.6494 0.471785C78.2197 0.565193 79.7015 1.23008 80.8153 2.341C81.9291 3.45192 82.5978 4.93205 82.6952 6.50213C84.2047 20.5833 86.2019 34.6334 86.9451 48.7532C87.2779 54.9462 85.3968 61.3945 83.8486 67.5487C82.3623 73.3933 82.5946 77.8831 86.8909 83.031C93.9663 91.4611 99.7257 100.99 106.05 110.055C110.021 115.753 114.504 121.156 117.879 127.186C126.03 141.778 134.6 156.254 141.226 171.551C146.583 183.937 150.84 197.097 150.059 211.1C149.377 223.293 145.027 233.55 134.863 240.873C133.616 241.771 132.37 242.94 130.953 243.28C117.972 246.415 109.48 255.968 100.562 264.715C93.4321 271.682 86.0471 278.75 83.0435 288.814C81.9706 292.239 81.074 295.716 80.3574 299.233C79.1885 305.333 80.2025 310.396 86.8367 313.167C89.159 314.135 91.9923 315.613 90.475 319.647C90.0647 320.746 92.3329 322.851 93.347 324.469C92.5729 325.243 90.7924 326.18 90.9008 326.854C91.7678 332.35 88.0753 333.782 84.1118 335.493C80.9689 336.847 78.1279 338.914 74.0483 341.337C71.1609 348.134 77.2687 351.54 82.7958 355.635C80.1871 358.91 81.4179 361.604 84.8395 364.026L81.5495 367.897C77.1371 367.897 73.6922 367.897 70.2474 367.897C66.6401 367.897 64.101 366.527 62.0883 363.206C58.2177 356.75 57.134 349.713 56.8166 342.475C56.5301 335.841 56.894 329.253 54.889 322.689C52.3732 314.491 55.6631 306.432 56.623 298.297C57.281 292.692 58.1713 287.111 58.6744 281.49C59.0692 276.985 59.5647 272.58 54.7342 269.244C52.9692 268.029 53.395 263.949 52.2648 261.425C48.6755 253.69 46.8611 245.25 46.9544 236.724C47.2098 226.242 42.8129 217.371 39.2829 208.081C36.6741 201.246 36.4419 194.534 40.3667 188.326C42.8516 184.386 44.0437 180.492 43.4631 175.94C42.5651 168.547 41.6827 161.147 40.8776 153.746C40.266 148.088 39.7783 142.429 39.1281 135.717C47.2872 137.707 46.4667 144.294 48.6497 148.629C51.0107 153.328 52.7525 158.352 54.9742 163.748C55.871 162.802 56.7086 161.801 57.4823 160.752C61.3993 154.691 65.0686 148.467 69.1714 142.537C74.8225 134.378 73.8161 126.01 70.3868 117.556C69.6823 115.815 67.9251 114.499 66.1756 112.424ZM102.342 227.721C111.059 221.752 118.761 216.318 126.626 211.131C134.716 205.79 135.637 203.793 132.896 194.573C131.98 191.091 130.763 187.695 129.258 184.424C122.848 171.574 116.656 158.584 109.48 146.16C105.067 138.519 99.029 131.808 93.378 124.222C92.3871 125.77 91.7291 126.343 91.6594 126.977C90.4518 138.225 89.2597 149.473 88.2301 160.737C88.0675 162.471 88.6326 164.282 89.0042 166.039C92.8232 184.649 96.6654 203.259 100.531 221.868C100.864 223.556 101.568 225.181 102.342 227.721ZM66.8104 195.339C61.3297 201.377 55.0516 206.533 55.8334 216.024C56.7624 227.264 56.6076 238.589 57.0411 249.876C57.0672 251.682 57.4132 253.469 58.0629 255.155C58.5041 256.208 59.8279 256.897 61.5851 258.499C62.5605 236.615 69.3804 216.581 66.8026 195.339H66.8104Z" fill="black"/>
</g>
<defs>
<clipPath id="clip0_729_1454">
<rect width="150" height="367.41" fill="white" transform="translate(0.160156 0.47168)"/>
</clipPath>
</defs>
</svg>
