<svg width="151" height="156" viewBox="0 0 151 156" fill="none" xmlns="http://www.w3.org/2000/svg">
<g clip-path="url(#clip0_729_1210)">
<path d="M36.5172 112.47C33.3707 110.48 31.3255 109.717 30.0276 108.27C16.3876 93.0567 5.25701 76.1444 1.30032 55.9127C-2.49117 36.5068 3.06235 19.2878 19.6285 7.40198C30.1613 -0.165273 42.3145 -1.41599 54.7431 3.06772C57.9367 4.22405 61.1304 5.42757 64.1825 6.85135C78.2629 13.3331 84.8076 24.4952 85.3582 39.8027C85.7751 51.4997 85.2324 63.6451 88.253 74.7443C93.6885 94.7243 103.93 112.557 122.195 123.876C128.968 128.077 136.921 130.602 144.622 132.954C148.807 134.228 150.128 136.297 150.128 140.112C150.231 150.008 143.3 157.221 134.498 154.932C118.223 150.7 102.247 145.005 90.8409 131.829C77.5156 116.411 68.4381 98.6024 64.6781 78.3391C64.4072 77.3136 64.3272 76.2471 64.4421 75.1926C66.2985 65.5802 64.033 55.9913 64.3477 46.3946C64.6309 37.8047 61.2012 30.9061 54.0509 26.446C49.2032 23.3449 43.941 20.9455 38.4208 19.3192C31.1839 17.3134 25.0483 20.6093 20.9343 30.1745C17.7013 37.8519 19.8802 45.3091 22.8772 52.3257C25.9529 59.5232 29.7287 66.4376 33.4572 73.3362C35.9823 77.993 39.3962 81.7766 44.5564 83.9792C50.0627 86.339 50.2987 88.1561 47.3017 93.3478C43.8563 99.326 40.521 105.359 36.5172 112.47Z" fill="black"/>
</g>
<defs>
<clipPath id="clip0_729_1210">
<rect width="150" height="154.916" fill="white" transform="translate(0.160156 0.47168)"/>
</clipPath>
</defs>
</svg>
