<svg width="151" height="201" viewBox="0 0 151 201" fill="none" xmlns="http://www.w3.org/2000/svg">
<g clip-path="url(#clip0_729_1254)">
<path d="M43.0694 200.474C39.727 200.307 37.1801 197.185 33.8845 199.498C33.5035 199.772 31.5181 198.395 30.7694 197.406C26.2104 191.429 21.4976 185.54 17.3999 179.256C11.1897 169.731 6.70419 159.389 3.10108 148.54C-0.348267 138.125 -0.441854 127.67 1.13576 117.161C2.07163 110.945 5.39397 105.376 10.0198 101.084C17.0188 94.5868 24.4389 88.5839 33.4166 84.8605C38.2564 82.855 42.8689 80.2546 47.7822 78.4899C58.8857 74.479 70.5707 74.8801 82.122 74.7731C85.5981 74.7397 89.0675 76.2103 92.5837 76.5446C94.6359 76.7318 96.7684 76.0299 99.596 75.6221C99.6723 76.2945 99.8717 76.9471 100.184 77.5473C101.862 80.5555 104.195 82.8951 103.072 87.2269C101.535 93.1295 98.9476 98.0094 94.1412 101.579C90.5782 104.253 86.6877 106.432 83.0044 108.932C78.8999 111.72 78.7261 113.866 82.1353 117.395C83.0512 118.338 84.2344 119.187 84.729 120.323C86.915 125.337 90.6651 126.34 95.6453 125.297C110.953 121.988 122.979 114.073 130.714 100.262C133.535 95.2085 132.926 90.235 128.882 86.2242C117.398 74.7397 104.242 66.738 87.3829 65.8356C79.2676 65.401 72.7165 61.5372 68.8527 53.9099C65.7108 47.7064 67.6695 43.8292 74.5347 42.7262C76.5012 42.3842 78.4275 41.8422 80.2837 41.1085C82.5699 40.2328 84.6622 38.7889 86.9685 38.1271C100.104 34.3702 107.023 23.4206 115.299 14.0151C119.563 9.16191 124.33 4.85022 128.675 0.47168C134.691 3.20576 136.028 5.47859 134.811 10.7997C133.301 17.2839 130.266 22.732 124.189 26.1747C120.745 28.1981 117.417 30.4143 114.222 32.8127C110.88 35.2593 110.145 37.96 111.602 42.2583C115.305 53.1946 121.87 61.3033 133.568 64.3783C141.423 66.4439 146.891 71.0229 149.13 79.2051C151.136 86.4314 150.708 87.6881 143.649 90.703C143.869 108.237 132.037 118.204 119.584 127.409C114.684 131.026 108.634 133.085 103.085 135.812C100.024 137.323 96.9422 138.332 93.4995 136.734C92.5904 136.313 91.2868 136.494 90.2173 136.694C87.9177 137.122 85.5379 138.974 83.4389 136.514C80.8949 133.523 78.5331 130.383 76.3664 127.108C75.5909 125.912 75.9319 124.04 75.5241 122.549C73.8328 116.426 72.048 110.323 70.1228 103.605C70.8782 102.221 71.921 100.028 73.2379 98.0228C74.6885 95.8235 76.0188 93.5841 79.5149 94.1389C83.733 94.8074 85.3574 90.8768 89.1744 88.2029C86.6075 86.9595 85.0232 85.6693 83.2985 85.4354C73.8529 84.1452 64.2268 82.8684 54.9149 85.1947C48.5259 86.9067 42.4208 89.5415 36.7924 93.0159C30.3483 96.8797 24.5258 101.826 18.5897 106.499C11.7311 111.887 9.0706 118.833 10.3741 127.663C13.3689 147.925 21.9856 165.833 32.8016 182.846C34.2923 185.192 36.6855 187.171 39.0586 188.715C45.4492 192.9 45.6163 193.06 43.0694 200.474ZM102.003 47.0446C99.3955 42.7195 99.3955 42.7196 96.5077 45.5472L102.003 47.0446ZM90.0167 52.2922L90.1237 51.0755L85.5446 50.6811C85.5446 51.0488 85.4777 51.4231 85.451 51.7908L90.0167 52.2922Z" fill="black"/>
</g>
<defs>
<clipPath id="clip0_729_1254">
<rect width="150" height="200.002" fill="white" transform="translate(0.160156 0.47168)"/>
</clipPath>
</defs>
</svg>
