<svg width="151" height="184" viewBox="0 0 151 184" fill="none" xmlns="http://www.w3.org/2000/svg">
<g clip-path="url(#clip0_729_1266)">
<path d="M55.3462 45.9815C55.7558 41.9403 56.2564 40.1563 56.0653 38.436C54.9366 26.3486 60.6162 16.919 67.6793 7.98092C71.3201 3.42995 75.8711 0.517327 81.5234 0.453613C84.4815 0.471817 88.45 1.65507 90.2704 3.76672C96.2321 10.757 103.659 10.9482 111.678 10.0289C114.954 9.54624 118.26 9.2938 121.572 9.2734C125.213 9.38262 126.314 11.8219 124.976 14.953C123.205 19.4554 121.074 23.808 118.605 27.9688C114.836 33.9124 107.846 33.9397 101.957 35.7509C98.5895 36.7795 94.9305 36.8887 90.9348 37.4803C89.9063 46.0452 91.3171 53.791 92.9008 61.382C93.811 65.8329 96.8511 66.3426 103.14 66.3153C115.21 66.2424 127.297 66.5883 139.357 67.1435C142.461 67.2892 145.501 68.8729 148.204 69.683C148.687 75.1441 145.474 77.2285 142.525 79.24C136.09 83.6363 128.708 85.1381 121.062 85.7206C112.707 86.3486 104.151 85.5113 96.3049 88.6969V129.51L108.137 133.624C113.271 130.229 118.505 126.798 123.711 123.33C126.66 121.364 129.582 120.736 133.113 122.092C137.045 123.603 141.232 124.395 145.255 125.733C146.511 126.133 147.567 127.171 150.216 128.891C145.847 131.066 142.789 132.723 139.63 134.143C134.351 136.519 129.081 138.166 124.739 142.926C118.869 149.352 113.817 148.014 105.762 139.477C98.3165 145.338 91.2534 151.309 89.26 161.458C87.9129 168.321 86.1472 174.974 80.3583 179.789C75.6981 183.667 71.4384 184.631 67.1423 182.229C62.1909 179.498 60.9348 176.54 61.9815 169.977C62.5913 166.127 63.3195 162.304 63.8747 158.454C63.9384 158.036 63.2467 157.499 62.5094 156.488C53.544 162.095 44.6605 157.817 35.6951 155.66C28.3498 153.84 21.0228 152.019 13.6957 150.199C12.7855 149.98 11.8753 149.826 11.038 149.598C6.47788 148.406 2.05433 147.013 0.843776 141.716C0.16113 138.821 5.1763 131.485 9.17205 129.765C14.9518 127.289 20.8407 125.05 26.7661 122.938C34.439 120.208 42.1575 117.568 49.9488 115.184C51.9057 114.583 54.2085 115.093 58.4136 115.093L45.862 125.432C50.6132 129.374 55.7376 130.648 60.9985 130.894C62.6369 130.966 64.8122 129.219 65.9318 127.708C67.1921 125.997 67.8686 123.926 67.8614 121.801C67.3517 111.552 67.1241 101.221 65.5495 91.109C64.1933 82.3893 59.7697 80.7145 51.1775 80.0774C44.2898 79.5636 37.5847 77.62 31.49 74.3705C20.6223 68.4087 10.7649 60.7995 3.23759 50.5325C-2.05064 43.3784 -0.457802 34.9136 7.5428 30.9087C17.4548 25.9573 26.939 27.4955 35.9682 33.166C42.0301 36.9888 47.9372 41.0756 55.3462 45.9815Z" fill="black"/>
</g>
<defs>
<clipPath id="clip0_729_1266">
<rect width="150" height="183.031" fill="white" transform="translate(0.160156 0.47168)"/>
</clipPath>
</defs>
</svg>
