<svg width="151" height="238" viewBox="0 0 151 238" fill="none" xmlns="http://www.w3.org/2000/svg">
<g clip-path="url(#clip0_729_1150)">
<path d="M124.724 65.1932C130.658 72.9165 136.695 80.6398 142.475 88.5949C145.294 92.4565 147.624 96.7044 150.198 100.772L147.855 102.484C138.986 94.2458 128.547 87.1146 121.673 77.4604C114.799 67.8062 104.424 64.6397 95.0534 56.35C91.8096 67.4458 89.9045 77.0614 86.2102 85.9561C76.1441 110.027 65.3315 133.776 54.8149 157.654C45.3538 179.099 33.8975 199.747 28.8645 222.981C27.9472 226.712 26.3925 230.257 24.2691 233.459C20.4074 239.406 5.97766 238.865 2.24472 232.983C-1.01196 227.834 -0.39409 222.916 3.71215 218.978C7.81839 215.039 10.1483 211.164 10.2641 205.642C10.3396 203.9 11.0439 202.245 12.2464 200.982C22.2224 191.972 21.257 178.533 26.1484 167.514C28.5813 162.07 30.3576 156.303 33.0994 151.025C38.1582 141.294 44.324 132.116 48.8936 122.191C56.0249 106.745 61.7144 90.6802 64.5205 73.8433C65.2081 68.7796 65.6377 63.6842 65.8077 58.5768C66.5286 46.8245 60.8005 39.0754 50.5413 34.1196C47.0787 32.4591 43.0497 31.2749 40.4109 28.7004C37.2443 25.624 33.138 21.1959 33.3311 17.5531C33.5886 12.8805 35.1075 6.63743 42.6892 5.77499C45.5211 5.45319 48.0312 2.11928 50.2195 0.510254C60.0539 5.09276 70.017 9.30198 79.4523 14.4895C82.9149 16.7095 85.6112 19.9406 87.1756 23.7446C89.2094 28.4558 91.5264 31.056 96.8298 32.6007C101.863 34.0681 106.484 37.9169 110.577 41.5211C117.343 47.3747 123.691 53.6931 129.577 60.4304C132.035 63.2881 132.512 67.8706 133.837 71.7194L133.94 71.5778C130.748 69.5955 127.594 67.5359 124.441 65.4764C123.797 59.3878 119.292 57.0064 115.713 53.6468L113.834 55.4618L124.724 65.1932Z" fill="black"/>
</g>
<defs>
<clipPath id="clip0_729_1150">
<rect width="150" height="237.209" fill="white" transform="translate(0.160156 0.47168)"/>
</clipPath>
</defs>
</svg>
