<svg width="151" height="109" viewBox="0 0 151 109" fill="none" xmlns="http://www.w3.org/2000/svg">
<g clip-path="url(#clip0_729_1262)">
<path d="M126.767 71.0466C127.187 68.4186 127.518 66.1219 127.915 63.8362C129.423 55.1958 131.228 46.5941 132.332 37.8875C132.829 33.9565 131.935 29.8544 131.686 25.8296C131.609 24.5488 131.686 23.2513 131.521 21.9649C130.494 13.0927 135.165 7.36189 142.049 2.8954C143.616 1.99666 145.233 1.18745 146.891 0.47168C149.701 1.8961 150.275 4.22044 150.143 6.97542C149.745 15.3894 149.039 23.8145 149.16 32.2285C149.232 38.6991 149.116 45.1752 147.427 51.3256C145.216 59.1033 144.157 67.1632 144.285 75.2481C144.401 80.3329 144.627 85.5834 145.941 90.4419C147.598 96.4377 145.483 101.235 142.916 106.116C141.519 108.766 139.167 109.649 136.407 108.225C134.491 107.231 132.249 106.271 131.024 104.636C127.319 99.7227 122.825 95.7696 117.911 92.1589C103.844 81.8236 88.9151 73.5752 71.2866 70.8699C63.6013 69.6884 56.3026 71.5048 48.8658 72.2391C46.3206 72.4931 43.8969 73.9893 41.429 74.9996C33.418 78.3895 25.0261 80.0513 16.3858 80.6863C15.2997 80.8177 14.2348 81.0867 13.2167 81.4868C8.93793 82.9388 5.1726 81.531 1.87657 79.0244C0.811016 78.2129 -0.199327 75.8388 0.220269 74.8174C1.54531 71.7478 2.68816 68.7002 6.09461 66.5856C15.4141 60.8107 25.5782 58.3593 36.2061 56.7141C46.569 55.113 56.8933 53.7714 67.4053 53.5837C79.7502 53.3628 91.5376 55.7921 102.861 60.3745C109.978 63.2344 116.769 66.9003 123.719 70.1632C124.712 70.5317 125.731 70.8269 126.767 71.0466Z" fill="black"/>
</g>
<defs>
<clipPath id="clip0_729_1262">
<rect width="150" height="108.427" fill="white" transform="translate(0.160156 0.47168)"/>
</clipPath>
</defs>
</svg>
