<svg width="151" height="192" viewBox="0 0 151 192" fill="none" xmlns="http://www.w3.org/2000/svg">
<g clip-path="url(#clip0_729_1498)">
<path d="M67.2187 48.7125C63.2533 64.5655 56.5378 77.721 40.6236 84.5632C43.9945 88.2051 47.5271 89.7309 51.2739 90.7846C58.1511 92.717 64.989 94.6364 71.0748 98.6236C75.2064 101.33 78.5073 104.539 80.1861 109.331C81.266 112.457 81.9743 112.719 84.9954 111.652C88.834 110.301 92.677 108.955 96.4588 107.464C102.763 104.976 109.317 104.132 116.046 103.901C122.774 103.669 129.406 103.184 136.03 104.583C136.577 104.696 137.119 104.845 138.181 105.099C137.005 107.691 135.86 110.035 134.876 112.448C133.494 115.854 130.736 116.435 127.465 116.645C119.652 117.148 111.704 117.165 104.088 118.748C96.0348 120.418 88.0558 123.12 81.2048 128.043C79.7065 129.151 78.4718 130.577 77.5892 132.218C75.683 135.786 74.0041 139.489 72.4214 143.218C71.3765 145.671 71.547 145.767 72.7187 149.488C83.3515 148.74 93.8269 144.565 105.185 146.449C104.285 148.587 103.305 150.515 102.654 152.544C101.342 156.614 97.9672 157.143 94.4871 157.725C90.3424 158.411 86.2064 159.159 82.1055 160.046C80.737 160.344 79.6571 160.921 79.6877 163.002C79.6877 164.143 77.6504 165.315 76.1901 166.832C79.6877 169.7 82.7482 173.359 86.9759 175.668C91.2037 177.976 95.3527 180.35 99.6548 182.505C102.75 184.066 106.016 185.277 109.177 186.711C111.092 187.586 112.946 188.587 115.298 189.772C111.525 192.22 108.088 191.905 104.871 190.913C100.022 189.418 95.3265 187.415 90.561 185.666C88.987 185.081 87.4 184.525 85.437 183.817C86.1889 186.397 86.7486 188.381 87.4087 190.581C82.805 192.194 78.8877 191.892 75.1277 189.601C74.6337 189.3 74.214 188.679 73.7112 188.618C67.6297 187.892 65.4043 182.868 63.4806 178.404C61.1285 172.992 59.983 167.037 58.3435 161.332C58.068 160.361 57.9587 159.342 57.7183 158.359C55.576 149.549 57.3161 141.465 62.0466 133.836C64.6392 129.648 66.9957 125.311 69.326 120.973C71.1798 117.515 70.489 115.198 67.481 112.553C63.8828 109.396 59.6114 107.621 55.13 106.336C48.2047 104.325 42.7004 100.154 37.3228 95.6507C34.9838 93.6951 32.4991 91.9208 29.8903 90.343C28.1415 89.2981 26.2484 89.1101 24.0536 89.696C16.7873 91.6415 9.89701 89.6697 3.32585 86.7142C-0.700791 84.8998 -0.915021 76.969 2.72688 74.3938C5.49438 72.4308 8.44987 71.6438 11.7945 72.645C13.6045 73.1872 15.4539 73.6025 17.2857 74.0616C23.6777 75.6749 29.9209 73.8342 35.5521 71.6657C41.1833 69.4972 46.6439 65.9602 48.9043 59.424C50.1896 55.7209 52.6161 52.232 53.0664 48.4939C53.7485 42.8103 53.2544 36.9955 53.0664 31.2419C52.9877 29.0952 52.2226 26.9879 51.9253 24.8412C51.6106 22.5897 52.5068 20.8583 54.601 19.844C56.4067 18.9696 58.1467 17.811 60.0573 17.3257C64.2326 16.2546 65.072 16.9104 67.6253 20.4867C69.89 23.6564 72.5045 26.5857 75.0228 29.5674C75.46 30.0746 76.177 30.3238 77.1869 30.9577C77.1869 29.5456 77.1869 28.5925 77.1869 27.6437C77.0733 22.476 76.9115 17.3039 76.8372 12.1361C76.776 8.56418 78.8571 5.71799 82.3547 4.24024C84.7505 3.22593 87.0983 2.09357 89.4723 1.03554C91.6671 0.034346 93.722 0.38848 95.65 1.78316C101.39 5.91473 108.045 8.09637 114.546 10.6103C122.809 13.8019 131.055 17.0415 139.327 20.2069C141.771 21.1425 144.341 21.7546 146.759 22.747C150.182 24.1548 150.633 25.0905 149.819 28.7804C149.168 31.6616 149.203 34.5996 147.655 37.4196C146.011 40.4232 143.546 42.3775 140.979 44.1088C139.344 45.2062 136.883 45.4204 134.784 45.4204C128.698 45.5035 124.326 41.5686 119.666 38.4164C115.11 35.321 110.483 32.3378 105.784 29.4669C104.263 28.6061 102.626 27.9699 100.923 27.5781C98.811 27.0273 97.9628 27.6656 97.7224 29.8997C97.6409 31.3449 97.6598 32.7941 97.7792 34.2367C97.8798 36.86 98.2864 39.4832 98.0415 42.0583C97.7967 44.5679 98.7236 45.9931 100.901 46.7626C108.823 49.6263 116.688 52.6867 124.715 55.2181C129.962 56.8751 135.462 57.7452 140.844 58.9693C144.717 59.8437 145.92 61.798 144.035 65.2388C142.422 68.1509 140.427 70.8343 138.102 73.2178C135.969 75.4038 133.096 75.841 129.997 74.8748C122.521 72.5532 114.974 70.4503 107.489 68.1331C103.883 67.0182 100.367 65.6192 96.7999 64.3732C95.7375 64.0015 94.6445 63.7174 92.9831 63.2189C93.8575 67.0445 92.2223 69.3398 89.7653 71.2985C89.1478 71.8908 88.6608 72.6056 88.3356 73.397C86.7486 76.5755 83.9636 78.5167 80.9425 79.8939C76.4043 81.94 71.4771 78.027 72.4258 72.9642C72.9679 70.0437 74.5768 67.3199 75.766 64.5305C76.0458 63.8704 76.6055 63.337 76.9377 62.6943C79.1237 58.4928 78.8439 57.1418 75.0009 54.265C72.5876 52.4419 70.113 50.7499 67.2187 48.7125Z" fill="black"/>
</g>
<defs>
<clipPath id="clip0_729_1498">
<rect width="150" height="191.171" fill="white" transform="translate(0.160156 0.47168)"/>
</clipPath>
</defs>
</svg>
