<svg width="151" height="200" viewBox="0 0 151 200" fill="none" xmlns="http://www.w3.org/2000/svg">
<g clip-path="url(#clip0_729_1386)">
<path d="M147.553 0.47168C152.513 9.20892 150.288 14.9912 141.104 18.8957C138.752 19.909 136.144 20.3129 133.643 21.0216C126.755 22.9207 124.806 25.337 124.927 32.4232C125.019 37.9221 124.374 42.9391 120.328 47.3042C118.011 49.8056 115.849 52.0165 112.498 52.9731C109.776 53.7313 107.162 54.8864 104.455 55.68C102.024 56.3886 99.4944 56.8421 95.9868 57.65C97.6874 60.4844 98.7008 62.8016 100.302 64.6369C102.988 67.7123 103.909 71.1349 103.668 75.089C103.541 77.2149 103.349 79.4258 103.845 81.4666C104.859 85.6191 103.08 88.7724 100.883 91.8974C100.479 92.4714 99.8841 92.9249 99.5298 93.5272C95.76 99.9048 91.0264 104.312 83.012 100.812C82.105 102.016 81.3326 102.661 81.0491 103.476C76.6203 116.231 72.8646 129.064 73.7575 142.769C74.2747 150.606 75.9967 152.42 83.7915 154.943C87.1149 156.02 90.169 157.841 93.0814 159.195C95.4482 170.795 95.4482 170.795 93.2798 180.645C98.1535 182.837 103.433 183.981 108.777 184.003C114.446 184.003 119.407 185.534 122.765 190.601C121.632 192.337 120.739 194.229 119.357 195.653C117.975 197.077 116.182 198.856 114.482 198.948C105.114 199.494 95.7104 199.94 86.3354 199.657C80.298 199.473 74.2889 197.418 68.2657 197.247C61.7677 197.063 55.2342 198.169 48.7079 198.58C46.2986 198.728 43.7475 200.408 40.5233 197.779C42.8122 194.08 45.0585 190.452 47.6449 186.292C44.6404 185.187 41.7847 184.23 39.0069 183.082C30.9712 179.752 22.8363 176.655 15.0415 172.857C11.5551 171.163 8.4159 168.322 5.77276 165.409C-2.18501 156.615 -1.72441 147.503 7.72145 140.608C17.9468 133.153 29.3484 129.227 42.224 133.727C45.5578 134.912 48.9578 135.901 52.4068 136.689C56.4459 137.596 57.5868 136.795 58.0758 132.806C59.9336 116.863 63.5629 101.176 68.8963 86.0372C69.3428 84.7829 69.2081 83.309 69.2577 81.9272C69.3428 79.5887 68.7475 77.0236 69.4987 74.9331C73.0417 65.0125 69.2365 64.3818 60.9953 60.7041C56.2617 58.5783 51.4289 56.6721 46.8229 54.3266C44.5557 53.0843 42.4415 51.5813 40.5233 49.8481C38.766 48.3742 38.6313 46.057 40.4595 44.9799C45.7246 41.8832 46.6245 36.3064 48.8071 31.4595C49.9904 28.8447 51.2589 26.9314 54.1217 25.4079C57.8844 23.4167 60.4284 19.661 63.2274 16.1959C69.9734 7.91924 77.5982 -0.236937 90.2328 1.78262L109.082 4.7659C114.205 5.58789 119.3 6.82797 124.445 7.0689C127.329 7.20354 130.312 5.75087 133.217 4.89345C138.1 3.44787 142.954 1.88891 147.553 0.47168ZM69.7325 178.802C70.0089 178.264 70.2852 177.725 70.5545 177.187C68.4287 173.566 66.0123 170.1 64.262 166.302C61.5055 160.343 56.8215 156.587 51.0392 154.305C44.7105 151.779 38.2307 149.649 31.6373 147.928C25.862 146.454 20.5049 147.857 16.0477 152.888C19.1231 157.267 20.3703 162.887 25.7345 165.374C35.7402 170.015 45.7033 174.82 56.779 176.535C61.1016 177.229 65.4099 178.051 69.7325 178.802ZM62.7455 40.0196C65.1407 42.9887 65.1407 42.9887 68.4853 42.2801L62.7455 40.0196Z" fill="black"/>
</g>
<defs>
<clipPath id="clip0_729_1386">
<rect width="150" height="199.242" fill="white" transform="translate(0.160156 0.47168)"/>
</clipPath>
</defs>
</svg>
