<svg width="58" height="600" viewBox="0 0 58 600" fill="none" xmlns="http://www.w3.org/2000/svg">
<g clip-path="url(#clip0_729_121)">
<path d="M17.4612 261.792C17.8293 260.855 18.3333 259.946 18.5315 258.977C18.7959 257.589 18.9558 256.182 19.0101 254.77C19.0752 253.552 19.0837 252.34 17.5801 251.74C17.1298 251.558 16.6853 250.78 16.6485 250.247C16.2124 243.582 15.7565 236.913 15.5158 230.239C15.4082 227.24 15.8556 224.23 15.9122 221.223C16.0142 215.579 15.9887 209.935 16.0736 204.295C16.0963 202.808 16.3568 201.324 16.4701 199.838C16.572 198.629 16.6796 197.417 16.7362 196.205C17.044 189.361 17.3451 182.518 17.6396 175.675C17.8095 171.83 18.1521 167.987 18.1351 164.144C18.1124 158.699 17.7528 153.256 17.6707 147.814C17.5489 139.528 17.5801 131.254 18.4749 122.991C19.7775 111.002 20.8422 98.9958 22.0768 87.0036C22.2382 85.432 22.847 83.9085 23.1755 82.3454C24.5177 76.0053 25.7976 69.6538 27.1823 63.3222C27.5668 61.577 28.1109 59.8708 28.8077 58.2251C29.728 56.0561 30.3312 53.8955 29.9404 51.5197C29.8361 50.9669 29.8972 50.3956 30.116 49.8773C32.6815 44.6302 32.5682 38.7686 33.9727 33.2582C34.2559 32.1595 34.2559 30.956 32.5823 30.5369C32.3275 30.8937 31.9424 31.2222 31.8263 31.6271C29.8158 38.661 27.4542 45.6072 26.7576 52.9526C26.5537 55.0848 26.0497 57.1321 26.1912 59.3635C26.3555 61.98 24.6565 64.1292 22.4364 66.471C22.3798 64.9844 22.1334 63.897 22.3345 62.8974C23.3284 57.908 24.4356 52.9526 25.5145 47.9773C25.6136 47.5214 25.9279 47.0768 25.9081 46.6379C25.7721 43.4523 26.8085 40.5724 27.8902 37.6331C28.4396 36.1154 28.2074 34.3172 28.349 32.6465C28.3971 32.0802 28.366 31.4714 28.6095 31.007C29.5355 29.24 29.9432 27.5269 28.8304 25.6579C28.6293 25.321 28.9436 24.6754 29.0427 24.0411L35.4792 26.6179C35.4792 25.7316 35.7623 24.7999 35.4254 24.1883C34.6636 22.7498 35.3319 21.6624 35.8869 20.476C36.4816 19.213 36.9318 17.8652 37.6596 16.6843C39.0131 14.487 38.7073 12.3547 37.6596 10.0214L39.5936 8.42998L37.1499 2.20027C41.4484 1.94542 41.825 6.08818 44.1554 7.74471C45.0446 6.44497 45.8743 5.43122 46.4604 4.29005C46.7578 3.72372 46.7436 2.89687 46.6417 2.21726C46.5652 1.60279 46.2084 1.02512 45.9706 0.430469C47.9895 -0.288779 48.8022 -0.220819 49.2072 1.22334C49.8754 3.66142 51.3734 4.7318 53.7379 5.14239C54.8196 5.32928 55.8277 5.94942 57.2067 6.5101C56.8414 8.2261 56.7791 10.0554 56.074 11.5788C54.7941 14.2972 54.324 17.1799 54.004 20.0512C53.3018 26.3149 52.7411 32.6012 53.7209 38.9187C53.9899 40.663 53.786 42.4838 53.7888 44.2706C53.7888 44.7378 53.6359 45.239 53.7549 45.6695C54.8394 49.5885 54.0125 53.5189 53.9191 57.4464C53.8879 58.8481 54.2193 60.2526 54.2447 61.66C54.3138 63.6297 54.2722 65.6018 54.1201 67.5669C53.7549 71.4803 53.3443 75.3993 52.7609 79.2872C52.4155 81.595 51.7104 83.8519 51.1582 86.1314C51.1157 86.3098 50.9685 86.4684 50.9402 86.6468C50.0652 92.3554 47.6441 97.6167 46.1603 103.153C44.5066 109.32 42.7623 115.468 40.8622 121.559C39.7295 125.194 40.327 128.836 40.2959 132.475C40.2732 137.247 40.36 142.018 40.5564 146.789C40.6725 149.595 41.3577 152.39 41.3266 155.185C41.2615 161.296 41.9722 167.378 41.5616 173.517C41.2785 177.974 41.9241 182.505 42.2667 186.993C42.7283 193.053 43.2974 199.107 43.8185 205.164C43.8411 205.447 43.9686 205.801 43.844 205.985C41.9694 208.783 43.5919 211.513 44.2772 214.075C45.6931 219.371 46.5794 224.74 47.3411 230.14C47.5195 231.402 47.3666 232.714 47.3666 234.387C45.3844 233.127 45.4778 231.08 44.3678 229.67C43.3739 230.462 43.6429 231.439 43.6089 232.326C43.3711 239 42.9605 245.66 41.9099 252.269C41.168 256.899 40.5535 261.551 39.9985 266.207C39.7154 268.687 41.1793 270.681 42.1336 272.824C42.7623 274.24 43.3852 275.843 43.2918 277.315C43.221 278.448 42.1591 279.623 41.2926 280.546C38.1494 283.885 38.6138 285.533 40.0353 288.325C40.8169 289.854 40.9698 291.723 41.3719 293.422C41.8165 295.325 42.1365 297.262 42.6773 299.139C43.0369 300.396 43.2974 301.501 43.0794 302.908C42.7962 304.684 43.0992 306.64 43.5551 308.413C44.4046 311.695 44.4273 314.991 44.4952 318.324C44.5406 320.64 45.2287 322.94 45.5996 325.25C46.013 327.799 46.3132 330.381 45.8545 332.972C45.7885 333.25 45.7646 333.537 45.7837 333.822C46.4066 338.352 47.3921 342.863 47.5705 347.414C47.7177 351.245 50.0397 354.23 50.6258 357.851C51.0846 360.706 49.9774 364.461 47.528 365.984C46.1891 366.863 44.7874 367.641 43.3343 368.314C41.3521 369.164 40.6102 370.719 40.9103 372.616C41.3577 375.447 41.2218 378.18 40.7886 381.006C40.5054 382.895 41.0406 384.9 41.1312 386.859C41.2162 388.669 41.6154 390.433 40.9047 392.302C40.3553 393.743 40.5082 395.445 40.3213 397.028C40.1345 398.611 39.8994 400.171 39.7154 401.745C39.6259 402.3 39.6154 402.864 39.6842 403.422C40.1741 406.253 39.6587 409.014 39.3557 411.803C39.1434 413.76 39.0244 415.728 38.9536 417.696C38.7611 422.96 38.6365 428.224 38.4354 433.486C38.3986 434.412 38.0588 435.323 37.9484 436.252C37.7049 438.302 37.5095 440.361 37.3084 442.417C37.198 443.549 37.2745 444.716 36.9856 445.792C36.3404 448.248 36.0542 450.784 36.1361 453.322C36.289 459.815 35.8813 466.373 36.7025 472.778C37.3821 478.119 36.7761 483.255 36.3145 488.451C36.2012 489.734 36.0313 491.079 35.5103 492.24C34.1539 495.332 34.8817 498.646 34.2955 501.82C34.0124 503.309 34.4654 504.935 34.6212 506.959C32.639 509.349 31.7895 512.467 33.0836 515.995C33.1742 516.247 33.2421 516.635 33.1147 516.814C32.1038 518.229 32.8684 519.47 33.3979 520.778C34.1879 522.76 34.2021 524.884 33.8736 526.94C33.5649 528.865 34.0492 530.273 35.7227 531.238C35.3347 533.787 34.91 536.335 37.0649 538.334C36.6288 539.818 36.1361 541.322 35.7567 542.865C35.5103 543.868 36.088 544.42 37.0224 544.743C37.8719 545.043 38.1551 545.714 37.77 546.552C36.7534 548.817 37.3056 550.882 38.3363 552.969C38.8409 554.064 39.2511 555.201 39.5625 556.367C40.5111 559.586 41.5248 562.797 42.295 566.062C42.7623 568.044 42.7594 570.117 43.0851 572.131C43.6089 575.376 44.2432 578.601 44.8067 581.84C44.9795 582.832 45.2541 583.851 45.1664 584.831C44.8832 587.821 44.7359 590.862 44.0082 593.753C43.5296 595.653 42.3771 597.534 40.0438 598.029C39.4829 598.114 38.9475 598.321 38.4751 598.635C36.2522 600.399 33.6159 599.975 31.1807 599.79C27.2984 599.507 23.5889 597.953 20.4797 595.826C16.8976 593.388 14.0631 589.84 13.6837 585.224C13.4888 582.986 13.8225 580.732 14.6578 578.646C16.3568 574.662 16.0538 570.542 16.1048 566.47C16.1274 564.748 15.227 563.044 13.2731 562.146C14.6889 560.71 15.0089 559.184 14.3605 557.499C14.2104 557.106 14.0348 556.602 13.712 556.409C12.1971 555.503 12.2282 553.634 12.5538 552.711C13.5648 549.848 12.8144 547.166 12.5878 544.386C12.3386 541.359 12.3953 538.306 12.3047 535.265C12.2763 534.229 12.2622 533.189 12.1574 532.15C11.6985 527.908 11.5546 523.637 11.727 519.374C11.7906 517.646 11.9971 515.927 12.3443 514.234C12.5454 513.322 13.1343 512.518 12.3924 511.595C12.3327 511.486 12.3014 511.364 12.3014 511.239C12.3014 511.115 12.3327 510.993 12.3924 510.884C13.4288 509.723 12.8229 508.435 12.7379 507.186C12.6756 506.249 12.3556 505.229 12.619 504.394C13.4557 501.854 13.715 499.16 13.3779 496.508C13.2957 495.873 13.0437 494.953 13.3552 494.619C15.4592 492.379 15.1222 489.191 16.6371 486.69C17.9567 484.501 17.3111 483.524 14.8617 482.822C13.9555 482.562 13.0324 482.355 12.1064 482.185C6.03531 481.052 3.01107 476.683 1.38568 471.382C0.490869 468.463 0.87881 465.212 3.24044 462.669C4.32214 461.508 5.33588 460.285 6.39493 459.104C7.61256 457.748 7.60406 456.728 6.31565 454.573C6.40343 454.412 6.45157 454.199 6.59881 454.095C10.4329 451.065 11.7468 446.772 12.7237 442.241C13.7262 437.592 14.7739 432.942 17.1865 428.737C17.6339 427.961 17.6424 426.944 17.934 426.064C18.3107 424.931 18.7836 423.821 19.1828 422.694C19.4348 421.989 19.9049 421.247 19.8398 420.565C19.5085 417.107 20.8422 413.97 21.5218 410.705C22.0088 408.369 22.3005 405.99 22.6856 403.626C22.9688 401.978 23.252 400.335 23.5068 398.687C24.0533 395.266 24.529 391.832 25.1492 388.425C25.4182 386.947 24.9991 385.899 23.9259 384.914C21.788 382.949 19.7463 380.879 17.6254 378.894C13.4855 375.011 12.6699 370.268 13.8762 364.945C14.2415 363.325 14.4426 361.668 14.788 359.661L16.3341 358.726C15.4308 356.917 15.1052 355.224 16.8693 353.842C16.8014 350.614 18.7354 347.465 16.7731 344.126C13.9782 339.409 12.4576 334.139 10.7869 328.957C9.74481 325.734 8.89814 322.444 8.88115 319.026C8.84717 311.87 9.16432 304.822 12.03 298.043C13.93 293.558 15.3346 288.838 16.623 284.131C17.2063 282.01 17.1893 279.646 17.0364 277.423C16.807 274.215 17.5461 271.145 17.8236 268.011C18.0077 265.921 19.0044 263.74 17.5404 261.71L17.4612 261.792ZM38.6846 130.824C38.1183 131.622 37.6001 132.084 37.4529 132.645C36.4278 136.623 35.4084 140.607 34.5334 144.62C34.0827 146.631 33.8154 148.679 33.7348 150.739C33.6301 154.117 33.7348 157.504 33.8085 160.888C33.8821 164.272 34.001 167.593 34.1256 170.946C34.1907 172.702 34.0463 174.522 34.4626 176.199C35.5018 180.384 36.7987 184.504 38.022 188.641C38.1126 188.947 38.4185 189.188 38.8715 189.797C38.9423 188.924 39.0046 188.485 39.0074 188.049C39.0301 183.915 38.9876 179.778 39.0782 175.644C39.1745 171.238 39.4832 166.837 39.5256 162.431C39.5596 158.832 38.4751 155.182 40.1968 151.688C40.2505 151.5 40.2365 151.3 40.1571 151.121C39.0244 147.723 38.7413 144.204 38.4808 140.644C38.3562 138.928 38.2995 137.529 39.2906 136.618C39.0896 134.658 38.9168 133.021 38.6846 130.824ZM34.5504 201.143C33.4042 202.724 32.916 204.689 33.1883 206.622C33.6159 210.709 32.6928 214.865 33.8708 218.912C34.018 219.422 33.8255 220.025 33.8311 220.585C33.8963 225.835 33.9274 231.085 34.0633 236.332C34.1001 237.731 34.253 239.192 35.4508 240.733C35.8133 239.258 36.1418 238.184 36.3372 237.091C37.1272 232.651 37.6341 228.146 38.7045 223.782C40.1203 217.946 39.6616 212.416 37.1867 206.999C36.3825 205.241 35.5953 203.474 34.5504 201.152V201.143ZM37.7445 257.734C39.7097 254.053 43.1106 230.884 42.1733 227.58C41.8278 228.809 41.573 229.684 41.3379 230.567C39.9674 235.698 38.914 240.942 37.1357 245.929C35.6944 249.976 36.1531 253.594 37.7445 257.734ZM34.1256 132.54L35.0006 132.721C35.1818 132.163 35.333 131.596 35.4537 131.022C35.9096 128.151 36.2154 125.254 36.8016 122.414C37.5661 118.69 37.8833 115.009 37.0507 111.248C36.7676 109.923 36.9177 108.505 36.7676 107.14C36.7166 106.647 36.391 106.185 36.2012 105.707L35.4537 105.868C35.4537 110.322 35.6264 114.785 35.4055 119.228C35.1847 123.671 34.5674 128.103 34.1256 132.54ZM39.2991 87.8786C38.3278 91.9505 39.486 96.0904 39.3529 100.202C39.3133 101.439 39.3529 102.734 40.1005 104.011C42.1931 99.4998 41.992 94.0318 39.2991 87.8786ZM28.1734 93.8053C30.7021 89.1245 29.3656 84.0416 29.8271 79.1456C28.5897 83.9623 27.4202 88.7847 28.1734 93.8053ZM41.3861 35.1894C41.0746 32.6777 42.8019 30.2056 40.9387 27.4334C39.7663 29.645 38.3703 31.0551 39.1377 33.5895C39.6701 35.3366 39.132 35.5009 41.3861 35.1809V35.1894ZM40.1684 16.5314C39.7437 19.063 39.7607 19.1621 40.7999 20.779C42.5895 19.2329 42.4989 18.3692 40.1684 16.5229V16.5314ZM18.8374 329.891C19.6699 326.431 19.65 326.383 17.3139 326.21L18.8374 329.891ZM31.8631 48.9655L33.2223 52.0606C34.018 48.705 34.018 48.705 31.8603 48.9655H31.8631ZM25.9959 368.357C25.9477 367.462 25.8967 366.567 25.8288 365.307C24.093 366.567 24.8405 367.488 25.9959 368.357ZM16.5494 318.941C17.1695 317.565 17.0251 316.815 15.6715 316.469C15.1392 317.528 15.2751 318.256 16.5494 318.941ZM27.5051 328.66C26.3923 330.075 26.5395 330.605 27.8081 331.089C27.7119 330.319 27.6467 329.789 27.5051 328.66ZM26.6273 290.715C25.7778 290.211 25.4635 289.948 25.3927 290.001C25.1407 290.201 24.9406 290.458 24.8094 290.752C24.7839 290.811 25.1605 291.188 25.3361 291.174C25.673 291.151 26.0015 290.956 26.6273 290.718V290.715Z" fill="black"/>
</g>
<defs>
<clipPath id="clip0_729_121">
<rect width="56.2571" height="600" fill="white" transform="translate(0.931641)"/>
</clipPath>
</defs>
</svg>
