<svg width="156" height="965" viewBox="0 0 156 965" fill="none" xmlns="http://www.w3.org/2000/svg">
<g clip-path="url(#clip0_729_203)">
<path d="M11.6739 0L14.9271 3.53936L9.1982 8.99458C10.6413 12.3971 11.282 16.6642 16.8181 15.8369L18.6842 23.463H9.63984C6.08804 29.7394 15.8602 30.0006 13.6271 35.9472C13.9194 35.7979 13.2974 36.196 12.6256 36.4324C11.9538 36.6688 11.1078 36.7994 9.40347 37.1913L13.1792 47.5481C9.74559 49.9119 10.2557 53.2024 12.5074 56.748C12.9677 57.482 13.1854 58.9189 12.7749 59.5533C11.4313 61.6309 11.9289 63.4099 12.8868 65.388C13.3373 66.2877 13.4815 67.3099 13.2974 68.2991C12.495 71.4839 13.2974 73.661 16.0095 74.0156C15.8228 81.9963 15.5118 89.3611 15.5118 96.726C15.5118 101.64 17.776 103.649 23.4054 103.568C22.1862 88.6396 20.967 73.7481 19.7479 58.894L21.1412 58.5892C21.5829 59.5347 22.2982 60.4553 22.3853 61.4257C23.1131 67.3536 23.7475 73.3003 24.3322 79.2469C25.3213 89.274 25.1471 99.5749 27.5357 109.254C29.6195 117.72 31.1933 126.192 32.4684 134.757C33.134 139.242 33.2335 143.808 33.6441 148.33C33.8058 150.196 33.7933 152.118 34.4092 153.816C35.535 156.895 36.2753 159.576 33.4948 162.363C32.6612 163.203 32.7421 165.529 33.1713 166.941C35.3795 174.157 36.5676 181.372 35.0063 188.924C34.6393 190.671 35.0063 192.656 35.3982 194.466C36.8786 201.551 38.7447 208.561 39.9826 215.683C41.0027 221.562 41.2826 227.564 41.9855 233.505C43.043 242.518 44.1688 251.544 45.3072 260.532C45.6119 262.989 46.4393 265.44 46.3833 267.878C46.0225 283.945 48.8714 299.49 53.3438 314.848C57.5923 329.503 61.6044 344.233 65.716 358.931C68.285 368.087 71.3952 377.132 73.2986 386.431C76.5518 402.368 80.2716 418.223 81.1238 434.62C81.6711 445.089 83.9851 455.433 83.6554 466.039C83.4253 473.329 84.0909 480.644 84.2775 487.947C84.2775 489.135 83.6554 490.323 83.531 491.53C83.3005 492.944 83.2399 494.381 83.3506 495.809C83.9353 500.686 84.7129 505.544 85.3349 510.421C86.8527 522.445 88.246 534.481 89.8509 546.499C90.6274 553.111 92.1465 559.615 94.3793 565.887C96.2765 570.994 96.6435 576.804 96.8985 582.34C97.1411 587.559 94.3171 591.559 90.193 594.918C82.5731 601.138 73.6532 600.902 65.6041 598.177C58.6249 595.813 51.1978 591.453 47.6211 584.698C43.8889 577.731 40.3682 570.005 44.1937 561.272C50.5882 546.685 50.1777 531.159 49.2944 515.683C49.0704 511.808 48.0503 507.958 48.0068 504.095C47.9632 498.136 48.6661 492.177 48.6661 486.218C48.6661 483.194 47.8077 480.165 47.3599 477.136C47.2168 476.178 46.8498 475.127 47.0862 474.256C52.0624 455.838 51.9753 437.058 50.8184 418.273C50.0346 405.49 48.9896 392.701 47.4718 379.987C46.4952 371.82 44.5483 363.758 42.8439 355.69C40.1816 343.138 36.8911 330.697 34.7015 318.064C31.7033 300.771 29.1965 283.379 27.0381 265.962C25.794 255.724 26.416 245.199 24.6681 235.072C22.4039 222.072 23.1068 209.071 23.2748 196.139C23.3805 188.127 21.3092 180.731 20.4508 173.031C20.0402 169.336 19.3187 165.66 19.2067 161.958C19.1072 159.396 19.2067 157.038 16.9923 155.203C16.4681 154.593 16.2006 153.804 16.2458 153.001C16.3142 147.708 16.5817 142.427 16.5693 137.127C16.5693 134.9 15.9908 132.679 15.7544 130.446C14.5104 118.541 13.6333 106.604 12.4576 94.6982C12.3506 93.4593 12.0153 92.2508 11.4686 91.1339C8.769 85.8777 10.8466 79.8503 8.66325 74.5319C10.9959 70.9987 9.34749 68.2618 7.56848 64.9775C6.4737 62.9621 7.06463 59.6591 7.72398 57.1523C9.36615 50.932 6.33685 45.0724 7.10195 38.7153C7.72398 33.6395 4.12864 28.1407 5.31672 22.3807C5.4038 21.9515 4.75689 21.3046 4.34635 20.8505C2.31231 18.5614 -0.443296 16.5274 1.76492 12.8636C3.27646 10.3755 3.23291 6.97298 7.08951 5.79734C8.8001 5.24373 9.83267 2.42593 11.6739 0ZM76.2408 550.399C72.7388 548.365 69.8899 547.911 66.8108 551.207C64.1298 554.106 60.379 554.654 56.6281 552.781C53.6859 551.319 51.148 551.537 48.9647 554.473C49.369 556.433 48.3427 558.827 50.9241 560.899C53.6362 554.89 58.6124 555.985 63.4207 556.544C64.4156 556.749 65.4283 556.853 66.4438 556.856C70.6363 556.414 75.5317 557.042 76.2408 550.399ZM62.8485 511.46C64.8514 514.246 66.4003 516.056 69.0688 514.657C70.2382 514.035 71.8057 512.853 71.9177 511.789C72.2225 508.841 69.697 507.783 67.0596 506.129L62.8485 511.46Z" fill="black"/>
</g>
<defs>
<clipPath id="clip0_729_203">
<rect width="154.3" height="964.55" fill="white" transform="translate(0.919922)"/>
</clipPath>
</defs>
</svg>
