<svg width="143" height="600" viewBox="0 0 143 600" fill="none" xmlns="http://www.w3.org/2000/svg">
<g clip-path="url(#clip0_729_159)">
<path d="M77.3478 487.526L81.506 496.599C76.9567 499.15 76.7611 502.815 77.1608 507.5C78.1216 518.946 82.1863 530.255 79.0825 541.981C78.6318 543.682 79.6097 545.791 79.9329 548.002C76.7186 550.23 72.7305 552.254 74.9924 557.296C70.7917 568.027 71.7271 580.451 62.4584 589.575C53.3938 598.495 43.7509 601.378 31.1574 599.405C18.5638 597.432 10.239 590.366 5.38355 579.847C1.32742 571.097 -1.87836 561.284 2.16076 551.216C5.56212 542.636 9.04851 534.048 12.756 525.578C15.307 519.626 19.1421 514.218 19.1506 507.364C19.2608 505.951 19.6974 504.583 20.4261 503.368C27.875 489.124 30.358 473.818 29.9414 457.968C29.8648 455.009 28.5978 452.075 27.841 449.133C27.6455 448.368 26.9907 447.577 27.1097 446.896C28.0876 441.667 29.2526 436.463 30.2815 431.242C31.1999 426.607 32.6284 421.973 32.756 417.305C33.0281 406.93 33.6063 396.548 33.6063 386.157C33.6063 374.082 33.5298 362.049 32.807 349.975C32.671 347.611 34.1676 345.162 34.7883 342.721C35.3325 340.57 36.7441 337.849 35.9618 336.284C33.3002 330.953 35.9618 326.301 37.1948 321.65C41.9737 303.546 43.5213 285.085 43.8274 266.497C43.9445 265.364 43.793 264.219 43.3852 263.155C38.8699 254.652 41.2339 246.352 43.5638 237.764C48.0536 221.191 51.5145 204.328 56.1319 187.789C58.8529 178.061 57.8325 168.665 55.7662 159.277C54.4737 153.385 54.7713 148.563 58.3172 143.282C60.9162 139.258 62.3198 134.578 62.3648 129.788C62.2798 121.616 66.5315 115.264 69.8563 108.682C71.7526 104.932 73.6829 101.378 74.7118 97.2791C75.5621 94.0138 76.8631 92.177 81.1148 90.91C86.9737 89.2093 91.9992 84.524 97.2713 80.91C98.2832 80.2212 99.3206 78.4866 99.1761 77.3811C97.79 66.5478 104.006 57.1855 104.848 46.7008C105.647 36.7689 110.477 27.9338 115.97 19.49C119.924 13.4185 123.096 6.84539 126.931 -0.0678711L130.732 4.28587C133.674 4.84709 133.011 -1.8876 136.685 0.765462C140.613 3.59709 134.865 5.25526 135.367 8.41852C136.489 9.39641 138.045 10.5699 139.38 11.9559C143.564 16.3012 143.062 17.16 139.771 22.6192C136.906 27.3811 135.409 32.9508 133.164 38.1039C128.521 48.7076 123.768 59.2689 119.091 69.8641C117.722 72.9508 115.834 75.1872 112.05 74.728C108.266 74.2689 106.676 76.2076 105.077 79.4304C100.683 87.9433 98.5151 97.4303 98.7764 107.007C99.006 115.51 99.7373 125.374 91.3019 131.981C90.0434 132.968 89.6012 135.519 89.4992 137.381C89.1846 142.738 89.3121 148.129 89.091 153.495C88.904 157.993 88.4533 162.483 88.1642 166.981C88.0281 169.226 87.4329 171.633 88.0026 173.708C90.4346 182.823 87.2543 190.026 80.4686 195.578C77.6455 197.891 76.5485 200.145 76.8801 203.419C78.921 223.555 77.0927 243.929 80.5621 263.963C82.2628 273.733 80.7322 282.755 73.8104 289.966C69.6608 294.277 69.6608 298.852 70.171 304.031C71.2764 315.196 71.8716 326.412 73.3342 337.526C74.4057 345.927 76.2849 354.243 78.0196 362.543C80.222 373.07 78.9465 382.874 74.7543 392.951C72.3989 398.606 72.9856 405.612 72.8155 412.024C72.3478 429.473 77.0162 446.14 81.8291 462.628C84.5417 471.939 83.3597 479.694 77.3478 487.526Z" fill="black"/>
</g>
<defs>
<clipPath id="clip0_729_159">
<rect width="142.015" height="600" fill="white" transform="translate(0.298828)"/>
</clipPath>
</defs>
</svg>
