<svg width="116" height="1298" viewBox="0 0 116 1298" fill="none" xmlns="http://www.w3.org/2000/svg">
<g clip-path="url(#clip0_729_219)">
<path d="M13.2201 302.285C12.1565 312.786 11.0976 322.95 10.108 333.118C9.83522 335.939 9.9277 335.948 12.4432 337.419C11.9531 338.621 11.4259 339.851 10.945 341.118C10.6861 341.784 10.1774 342.968 10.33 343.079C12.2028 344.281 11.1069 345.853 11.2271 347.365C11.3843 349.34 12.471 351.148 9.88146 352.452C9.44679 352.669 9.61326 354.482 9.82134 355.495C10.2098 357.344 10.9404 358.977 10.4456 361.164C10.0849 362.759 11.597 364.979 14.5565 364.438C15.6339 362.167 16.5125 359.943 16.1934 357.099C15.9298 354.755 16.8084 352.29 17.1182 349.872C17.8535 344.101 18.5332 338.311 19.2823 332.545C19.4164 331.495 19.8789 330.483 20.0222 329.428C20.2858 327.495 20.3598 325.535 20.628 323.602C21.0303 320.744 21.5066 317.891 22.0152 315.047C22.3574 313.091 23.0834 311.158 23.1343 309.202C23.2822 303.357 23.3146 297.499 23.1343 291.631C22.9863 286.613 22.4869 281.656 20.1517 276.986C19.569 275.816 20.4661 273.902 20.7436 271.899C17.1599 269.925 17.072 266.586 18.2234 262.679C18.6211 261.338 18.0384 259.729 17.9876 258.24C17.8812 255.192 17.8812 252.145 17.7333 249.102C17.6109 247.749 17.4195 246.404 17.1599 245.07C16.998 244.025 16.4246 242.851 16.7206 241.972C18.2882 237.348 16.0732 233.334 15.079 229.098C14.4128 226.599 14.0251 224.034 13.923 221.45C13.8813 216.881 13.4605 212.202 15.1252 207.809C15.5137 206.787 16.3599 205.936 17.0119 205.034C17.3587 204.572 17.9367 204.156 18.0801 203.647C19.1529 199.208 20.0546 194.732 21.1782 190.306C22.8337 183.763 24.4845 177.22 26.3943 170.751C31.1063 154.798 35.0553 138.701 36.7061 122.1C37.3905 115.229 38.602 108.399 39.0783 101.518C39.7534 91.8537 39.5407 82.2077 36.7385 72.7698C35.0507 67.0405 33.7513 61.2095 32.0034 55.4848C31.2219 52.9276 29.7607 50.5785 28.1422 47.1336C27.1758 49.908 26.2925 51.5496 26.0475 53.2883C24.3597 64.525 22.5424 75.7524 21.28 87.0445C20.2072 96.672 19.7586 106.369 19.1482 116.043C18.4777 126.636 17.8119 137.23 17.3864 147.834C16.924 158.899 16.7992 169.974 16.5079 181.044C16.4339 183.768 16.8269 186.487 15.005 189.016C14.2282 190.094 14.5149 191.939 14.316 193.465C13.8536 193.326 13.3681 193.289 13.3403 193.159C11.4675 184.142 10.4086 175.093 11.093 165.831C11.7034 157.554 11.8421 149.239 12.0779 140.934C12.138 138.798 11.5924 136.648 11.6433 134.511C11.819 126.525 11.8236 118.521 12.4479 110.568C13.5299 96.8801 15.1854 83.2851 16.235 69.6393C16.8084 62.31 16.7344 54.9206 16.8131 47.5544C16.8593 43.3926 16.5865 39.3187 13.8536 35.7304C12.9288 34.4911 12.7207 32.5767 12.4664 30.9305C12.212 29.1456 14.5657 28.3641 14.7553 27.3792C15.6801 22.4637 18.917 17.8072 16.8685 12.4848C16.5726 11.6294 16.0871 10.8294 15.7726 9.94618C14.1172 5.32203 17.9598 1.84005 21.4464 0.397316C22.1804 0.166257 22.9709 0.190708 23.6892 0.466679C26.3665 1.44237 28.9144 3.00996 31.6658 3.50012C36.0634 4.31397 37.2749 7.3844 37.8853 10.982C39.2725 19.3054 40.2991 27.6844 41.9222 35.9524C43.1282 41.671 44.6566 47.3168 46.5001 52.8629C48.9994 60.7808 50.67 68.9368 51.4849 77.1997C51.9473 81.9395 52.6594 86.6977 52.6178 91.4421C52.5207 102.078 51.5265 112.588 48.1509 122.808C45.0666 132.148 42.6898 141.73 39.439 151.015C35.2985 162.599 31.7488 174.386 28.8035 186.33C27.8324 190.357 26.1631 194.218 25.2059 198.251C24.4013 201.626 23.384 204.937 23.4857 208.609C23.5366 210.269 23.6892 213.496 20.6048 214.537C20.0176 214.736 19.4349 216.618 19.717 217.418C20.5309 219.73 19.5783 221.51 18.843 223.545C17.6223 226.999 19.0095 230.055 22.6487 232.044C25.8856 228.104 22.5285 223.004 25.2984 218.403C25.5388 221.986 25.5989 225.048 25.9827 228.067C26.7133 233.815 26.2324 239.651 27.9942 245.357C29.2474 249.421 29.4092 253.833 29.9317 258.106C30.3202 261.301 30.3942 264.496 32.2438 267.382C32.8172 268.269 32.7432 269.828 32.4843 270.965C31.3282 276.001 31.9895 280.838 32.7479 285.911C33.8993 293.624 33.8761 301.522 34.1906 309.35C34.3354 313.05 34.2783 316.755 34.0195 320.448C33.6079 326.372 33.1825 332.249 31.5594 338.08C29.8647 344.309 28.7059 350.672 28.096 357.099C27.6336 361.612 26.385 366.102 27.4255 370.833C27.911 373.039 26.57 375.596 26.3665 378.019C26.0243 382.079 27.5087 386.236 25.414 390.245C24.9515 391.17 25.5804 392.645 25.659 393.875C25.7377 395.105 26.1862 396.502 25.7423 397.51C23.236 403.244 25.0487 408.936 25.4741 414.679C25.7978 419.091 26.066 423.608 25.4741 427.96C24.4383 435.747 26.3064 443.219 27.0139 450.826C27.9387 460.592 28.8636 470.358 29.7329 480.129C30.3156 486.709 30.852 493.29 31.3051 499.874C31.7953 507.023 32.1282 514.182 32.6091 521.33C32.7664 523.61 33.127 525.885 33.4831 528.146C34.3339 533.575 35.0969 539.027 36.1697 544.414C36.8217 547.702 38.2968 550.837 38.8332 554.125C39.476 558.055 40.3176 561.856 42.4632 565.223C45.344 569.759 46.1949 575.317 50.0792 579.4C52.812 582.272 53.1496 586.337 53.8247 590.101C54.3334 592.931 52.6502 595.187 50.6387 596.894C46.3197 600.593 40.2343 601.411 35.5778 598.41C31.6704 595.895 27.3561 593.541 25.5897 588.626C25.2475 587.673 24.0175 586.739 22.9909 586.383C14.205 583.326 10.0988 575.969 6.17752 568.432C5.79834 567.701 5.8677 566.629 5.99718 565.759C7.74375 554.211 7.87138 542.476 6.37636 530.893C6.04804 528.285 6.03879 525.691 7.611 523.31C8.21127 522.419 8.50361 521.357 8.44335 520.285C7.6295 513.483 8.58207 506.584 7.0561 499.787C6.44109 497.012 6.6538 493.919 7.22257 491.116C8.60982 484.374 8.22139 477.614 7.81446 470.89C7.06998 458.461 5.90932 446.059 4.93362 433.643C4.83123 432.721 4.83123 431.79 4.93362 430.868C5.53939 426.674 4.27699 422.915 2.15913 419.447C1.26668 418.018 1.2713 416.871 1.50713 415.211C1.99729 411.752 1.87706 408.196 1.89556 404.682C1.89556 401.953 1.73834 399.221 1.6736 396.492C1.6736 395.568 1.90018 394.606 1.70134 393.718C0.0736457 386.574 1.73834 379.383 1.39615 372.197C1.1557 367.111 2.76027 361.964 3.61112 356.854C3.66772 356.576 3.78768 356.314 3.96169 356.09C4.13571 355.865 4.3591 355.684 4.61456 355.559C7.34743 354.857 6.92663 352.873 6.82952 350.829C6.52433 343.07 5.56251 335.389 8.0503 327.579C9.3543 323.486 9.97856 319.019 11.093 314.751C11.523 313.091 10.5797 311.126 10.6676 309.318C10.8372 307.257 11.1916 305.216 11.7265 303.219C11.8097 302.853 12.6005 302.655 13.2201 302.285Z" fill="black"/>
</g>
<defs>
<clipPath id="clip0_729_219">
<rect width="114.53" height="1297.54" fill="white" transform="translate(0.976562 0.22998)"/>
</clipPath>
</defs>
</svg>
