<svg width="110" height="598" viewBox="0 0 110 598" fill="none" xmlns="http://www.w3.org/2000/svg">
<g clip-path="url(#clip0_729_235)">
<path d="M74.504 447.869C82.8011 455.543 82.8313 464.765 82.8212 473.554C82.8212 491.635 89.4509 507.526 95.8798 523.96C102.54 540.896 109.732 558.113 110.324 576.807C110.706 589.082 100.048 599.127 87.894 600.393C64.4188 602.844 41.8878 583.597 34.8864 565.114C32.4656 558.736 30.8684 551.051 31.9633 544.552C33.8719 533.362 29.3918 523.528 28.1362 513.081C25.8258 493.895 23.5657 474.689 20.7129 455.584C19.4975 447.487 19.7084 440.094 23.2342 432.48C24.3392 430.13 21.9183 426.363 22.0891 423.289C22.511 415.303 23.7164 407.358 24.0981 399.362C24.4195 393.465 23.9574 387.519 23.9574 381.592C23.9574 379.292 24.299 376.991 24.4396 374.691C24.9017 367.419 25.866 360.367 24.0378 352.873C22.2498 345.571 23.3648 337.615 22.6014 330.011C21.9384 323.421 20.3915 316.952 19.3167 310.383C18.9952 308.464 18.3122 306.254 18.9149 304.597C22.5511 294.753 20.9741 284.808 19.5979 274.974C16.725 254.523 13.5006 234.131 10.1656 213.75C9.36204 208.858 7.15214 204.197 6.34854 199.305C5.32395 192.495 5.03264 185.463 4.24913 178.542C3.9076 175.689 3.05377 172.907 2.32049 169.582C4.32949 168.176 7.73475 166.85 9.13101 164.379C10.4067 162.129 9.56294 158.623 9.49263 155.68C9.32186 147.322 8.97029 138.975 8.87988 130.617C8.72278 109.937 6.42359 89.3284 2.01914 69.1218C-0.553674 57.6876 -0.632474 45.8334 1.7881 34.366C3.16427 27.8267 3.7971 21.1167 5.39426 14.6376C6.59966 9.67538 8.8397 4.93414 10.4168 0.63487C17.9003 0.192889 19.1358 4.65288 20.2408 8.86174C21.3801 12.7203 22.038 16.7049 22.1996 20.7249C22.3201 32.6383 26.4386 43.3965 30.0849 54.5264C33.4701 64.923 34.6353 76.093 35.7302 87.022C38.0607 110.256 39.487 133.591 41.7572 156.845C42.5147 165.809 44.1053 174.684 46.5085 183.354C50.637 197.567 51.531 212.163 53.319 226.678C54.9162 239.224 57.2667 251.68 59.346 264.166C61.2847 275.979 63.2636 287.782 65.1922 299.595C66.699 308.782 68.1823 317.98 69.6422 327.188C70.6467 333.125 70.9882 339.242 72.5954 344.958C77.5175 362.627 75.3377 380.778 76.8746 398.669C78.0097 411.828 78.8032 425.027 79.3356 438.226C79.4361 441.611 81.6158 446.543 74.504 447.869ZM64.0471 460.576C61.7367 456.136 59.0246 453.404 59.4264 451.234C60.5816 444.916 57.2768 442.937 52.5757 441.551C43.4649 447.206 43.1233 447.899 43.8868 459.843C48.186 455.543 52.2442 454.067 56.5033 459.501C57.4274 460.697 60.5113 460.144 64.0471 460.576Z" fill="black"/>
</g>
<defs>
<clipPath id="clip0_729_235">
<rect width="109.87" height="597.28" fill="white" transform="translate(0.00976562 0.634766)"/>
</clipPath>
</defs>
</svg>
