<svg width="78" height="600" viewBox="0 0 78 600" fill="none" xmlns="http://www.w3.org/2000/svg">
<g clip-path="url(#clip0_729_171)">
<path d="M11.6944 50.3654C13.0917 47.226 12.7839 44.9361 10.6233 43.1202C6.696 39.8023 4.07987 35.5057 2.15316 30.889C-3.7747 16.6695 6.62829 -0.443072 22.9099 0.000132472C28.7393 0.17249 34.5748 0.351003 39.9609 3.93973C46.6952 8.42717 51.041 13.881 52.2045 22.0311C52.5061 24.204 54.0142 26.5801 55.6578 28.1251C60.7361 32.865 66.2269 37.1616 71.3853 41.8583C73.1705 43.4649 74.3339 45.7363 75.9774 47.5276C78.0396 49.7744 77.9349 52.1997 77.3932 54.9575C75.4788 64.7449 71.7916 73.9291 68.1598 83.1502C66.7403 86.5235 65.9376 90.1241 65.7899 93.7809C65.4883 105.612 64.448 117.418 63.8078 129.243C63.3461 137.812 63.0445 146.393 62.7306 154.974C62.5397 160.268 62.7736 165.598 62.275 170.862C61.3394 180.809 59.9421 190.713 58.8587 200.649C58.1323 207.346 57.5168 214.058 57.012 220.784C56.1564 231.981 55.6516 243.208 54.5497 254.381C53.3186 266.772 50.487 278.973 50.8564 291.573C51.0041 296.965 49.2005 302.352 48.2526 307.707C46.8245 315.795 44.9901 324.025 46.9168 332.539C48.0248 337.42 47.4215 342.677 47.7847 347.749C48.0679 351.615 49.2682 355.511 48.942 359.303C48.585 363.397 49.6191 366.949 50.9056 370.599C51.1088 371.177 51.1334 371.984 51.5212 372.304C56.8396 376.496 56.6057 382.639 56.7596 388.364C56.9135 394.089 56.1441 399.709 55.6085 405.372C54.993 411.848 53.7618 418.299 53.4602 424.787C53.2386 429.096 54.4943 433.294 58.0646 436.384C60.0529 438.101 60.9885 439.991 59.6835 442.853C58.791 444.817 58.6371 447.255 58.6432 449.477C58.6432 463.099 55.4423 476.383 54.5067 489.858C53.965 497.632 53.1586 505.795 56.2425 513.501C56.7473 514.733 56.6427 516.296 56.6365 517.706C56.6365 520.784 56.5257 523.701 59.0987 526.213C60.1514 527.235 60.4037 529.568 60.2745 531.248C59.9174 535.969 60.5576 540.537 61.0993 545.209C61.7149 550.509 61.007 555.963 60.9701 561.355C60.9701 562.968 61.3517 564.581 61.4009 566.194C61.4502 567.997 61.6656 569.887 61.1855 571.598C59.9544 576.012 60.8162 580.148 62.3304 584.217C65.1312 591.752 63.1553 596.178 55.3992 598.437C48.628 600.419 41.7953 601.607 36.1383 595.457C35.1903 594.429 33.8053 593.795 32.5804 593.05C26.7325 589.468 25.0213 583.885 24.9966 577.477C24.972 571.069 24.775 564.827 25.0397 558.517C25.1757 554.04 25.7259 549.585 26.6833 545.209C28.6777 536.64 27.779 528.183 26.5971 519.676C26.4555 518.666 26.4555 517.644 26.3263 516.635C25.7476 512.012 25.0951 507.401 24.5658 502.766C23.6547 494.678 22.7191 486.589 21.9804 478.482C21.7577 475.459 21.7289 472.424 21.8942 469.396C22.1774 461.782 18.7241 454.869 17.8438 447.47C17.6038 445.5 17.6038 443.814 19.6228 442.737C21.9004 441.505 22.7006 439.474 22.3497 437.049C21.5987 431.946 23.5809 427.397 24.8982 422.669C25.9754 418.95 26.7352 415.147 27.1696 411.3C27.9821 402.756 28.6038 394.187 28.9732 385.606C29.3733 376.373 31.7432 367.496 33.2821 358.466C33.9592 354.471 32.3957 350.07 31.6755 345.878C31.3065 344.281 30.7808 342.724 30.1058 341.23C27.5574 334.681 27.779 328.094 29.1024 321.323C31.2631 310.243 31.38 299.028 30.2043 287.75C29.6811 282.703 30.2043 277.526 30.4321 272.417C30.5921 268.723 30.9491 265.406 26.9726 262.833C23.8394 260.807 24.3749 258.007 27.976 256.425C30.8629 255.157 31.5216 253.064 31.3123 250.583C30.8014 244.495 30.2597 238.456 31.1215 232.325C31.5832 229.057 31.3123 225.757 27.582 223.917C26.6587 223.461 26.2709 221.928 25.4645 220.624C31.5647 214.332 31.46 207.266 28.1175 199.694C27.502 198.359 27.9267 196.475 28.2099 194.905C28.8254 191.483 27.8159 189.07 24.8366 187.069C20.2322 183.991 19.7828 182.489 21.4202 177.282C23.1561 171.742 24.7135 166.306 21.6418 160.662C21.3692 160.105 21.2092 159.499 21.1712 158.88C21.1332 158.261 21.2178 157.641 21.4202 157.054C24.3626 150.037 21.2602 143.715 19.0442 137.449C17.536 133.189 17.0744 129.17 18.1331 124.842C18.487 123.473 18.5519 122.046 18.324 120.65C17.3698 115.726 18.01 111.097 19.4012 106.203C20.3799 102.743 19.5243 98.4776 18.5456 94.8212C17.0682 89.2812 17.1729 84.5598 21.2602 79.9739C23.15 77.8502 24.0548 75.0063 22.4236 71.4914C21.0878 68.6045 21.6541 64.8618 21.2663 61.507C20.6323 55.9424 17.9546 51.9412 11.6944 50.3654ZM47.0522 477.134C47.2615 475.854 47.4708 475.072 47.5077 474.284C47.9386 464.343 45.7534 454.752 43.562 445.168C42.0662 438.625 40.4842 432.13 44.0175 425.692C44.4853 424.83 44.4976 423.716 44.7131 422.718C47.7909 408.561 44.9101 395.154 39.4685 382.091C39.253 381.648 38.6375 381.377 37.5664 380.54C36.6738 384.954 35.5351 388.856 35.1534 392.851C34.4517 400.146 34.0454 407.502 33.7869 414.889C33.6145 419.764 33.079 424.854 34.1931 429.49C36.206 437.843 33.7745 447.421 40.6935 454.494C40.9397 454.74 40.9397 455.269 40.9766 455.676C41.4752 461.117 42.1154 466.553 42.3863 472C42.5278 474.813 43.2788 476.666 47.0522 477.134ZM41.3398 104.344L37.0924 101.414L31.4908 109.527C35.8613 110.186 38.422 107.723 41.3398 104.344Z" fill="black"/>
</g>
<defs>
<clipPath id="clip0_729_171">
<rect width="77.2591" height="600" fill="white" transform="translate(0.472656)"/>
</clipPath>
</defs>
</svg>
