<svg width="105" height="600" viewBox="0 0 105 600" fill="none" xmlns="http://www.w3.org/2000/svg">
<g clip-path="url(#clip0_729_133)">
<path d="M33.7296 391.641C40.2134 384.024 33.025 379.263 29.864 372.913C36.0908 366.914 32.2919 359.126 32.0158 352.157C31.5588 340.56 29.4356 328.954 27.1124 317.538C25.1353 308.056 25.347 298.248 27.7313 288.86C28.9785 283.805 28.4263 278.311 28.6358 273.008C28.9024 266.2 29.1118 259.393 29.3499 252.585L31.3493 252.442C31.7777 254.289 32.549 256.137 32.5775 257.993C32.8441 272.551 32.1681 287.175 33.3487 301.647C34.8435 319.909 37.5094 337.999 40.2706 356.089C43.1269 375.131 46.6878 394.04 50.1058 412.977C50.9779 418.514 52.8319 423.85 55.5805 428.735C55.809 426.973 56.5326 425.088 56.1613 423.46C54.5046 416.367 52.8955 409.531 56.3898 402.295C57.2657 400.476 55.6662 396.468 53.9619 394.583C49.268 389.384 48.6872 384.7 54.7236 379.711L47.0401 368.933C47.4114 367.476 47.5351 365.505 48.392 363.934C50.2011 360.592 50.7247 357.574 48.392 354.213C45.6405 350.272 47.1067 345.92 50.5819 344.349C58.5987 340.712 57.8846 333.819 59.1509 326.678C56.723 325.545 54.4665 324.593 52.2957 323.46C48.392 321.413 46.4783 317.252 47.916 314.206C49.5251 310.797 53.4001 310.073 57.7037 312.444C58.5225 312.892 59.0938 313.777 59.9221 314.225C66.0156 317.509 69.5574 315.52 69.9859 308.512C70.1001 306.608 69.5384 304.704 69.7288 302.799C70.1096 299.143 67.0724 294.459 72.6803 292.26C72.528 287.594 72.4709 282.929 72.1662 278.283C72.052 276.512 70.9951 274.769 71.0522 273.036C71.3855 264.277 72.0043 255.537 72.3471 246.777C72.4138 244.987 71.4807 243.159 70.8237 240.703L62.0739 243.645C62.4737 247.453 62.8165 250.757 63.1688 254.118C55.9137 254.213 54.5427 253.328 53.9619 248.624C53.8857 248.005 54.1809 247.31 54.019 246.72C50.9818 236.323 48.0302 226.088 53.7334 215.377C54.7521 213.473 52.0862 209.597 50.8771 205.856L58.2083 193.193C62.2357 199.515 62.0167 207.179 70.5857 210.968C68.1388 202.2 69.8716 194.411 62.4833 188.375C58.9795 185.519 56.047 180.606 58.8462 174.217C60.7504 169.923 60.7504 164.029 59.6365 159.345C54.9711 140.303 50.1915 121.337 44.1361 102.752C40.0611 90.2791 43.2411 79.168 46.9924 67.8094C48.5634 63.0488 52.3528 60.6971 57.3323 59.0309C67.577 55.5938 77.3266 57.3647 87.1619 59.983C92.3033 61.3541 94.7788 65.7623 93.1983 70.9894C91.0751 78.1302 87.9807 84.9949 86.1527 92.1929C84.5341 98.572 83.0869 105.275 83.2964 111.778C83.8867 128.459 85.2006 145.102 86.7049 161.773C87.9903 176.255 90.342 190.641 91.3702 205.132C92.4652 220.585 92.7794 236.104 93.0555 251.595C93.3221 266.829 93.2745 281.986 93.0555 297.172C92.9222 307.236 92.3128 317.29 91.7987 327.345C91.4559 334.009 90.4467 340.617 90.5324 347.234C90.6942 360.069 87.6761 372.16 83.7629 384.252C82.3157 388.708 82.9631 393.85 80.9066 398.829C79.6593 389.822 77.9169 380.853 77.2981 371.808C76.6506 362.354 77.1077 352.823 77.0315 343.321C76.9553 333.99 76.822 324.66 76.6982 314.206C71.5949 316.338 72.6327 319.157 72.6708 321.823C72.728 325.155 72.2614 328.487 72.1376 331.829C71.8615 339.36 71.6616 346.911 71.4236 354.442C71.2998 358.193 71.1284 361.944 71.0332 365.686C70.9237 367.84 70.9237 369.997 71.0332 372.151C71.1665 374.008 72.3852 376.131 71.8044 377.626C69.5384 383.7 71.633 389.413 71.9853 395.392C72.6042 405.703 71.9853 416.081 72.1662 426.431C72.1662 429.849 73.0231 433.248 73.423 436.656C73.6705 438.818 74.6226 441.331 73.8514 443.074C71.414 448.605 73.3087 453.547 74.8035 458.707C78.6882 472.037 84.5817 485.281 85.391 498.81C86.1432 511.492 90.7228 522.832 93.8362 534.381C98.054 550.043 98.2445 566.286 103.138 581.663C103.424 582.571 103.637 583.501 103.776 584.443C105.223 594.126 103.195 597.315 93.3887 598.582C85.5464 599.651 77.6327 600.11 69.7193 599.953C59.4936 599.667 52.6575 590.251 54.5903 580.149C56.5516 569.894 56.5707 559.631 56.3041 549.177C56.0375 538.722 55.352 528.544 52.6956 518.462C52.3337 516.925 52.3533 515.323 52.7527 513.796C55.3615 503.771 54.3427 493.688 53.7048 483.557C53.324 477.654 53.9238 471.684 54.0952 465.743C54.0952 465.429 54.2951 465.086 54.2094 464.791C50.401 451.633 55.1615 436.885 46.2593 424.565C43.7934 421.118 42.5271 416.453 41.8225 412.187C40.8133 406.027 35.6147 401.009 37.1191 394.183C37.2143 393.735 35.3958 392.859 33.7296 391.641ZM69.5384 217.081C65.5205 216.976 62.2928 217.528 61.693 222.032C60.6838 229.554 62.8451 233.095 71.2998 236.971C70.9285 230.077 72.728 223.679 69.5384 217.081Z" fill="black"/>
<path d="M15.7153 325.735C13.4969 323.27 11.5926 322.127 11.307 320.68C9.2695 310.14 6.13706 299.552 6.03233 288.946C5.82286 266.286 7.11773 243.597 8.02223 220.937C8.83153 201.066 9.92645 181.215 10.9357 161.363C10.9357 161.049 10.9357 160.725 10.9357 160.411C11.8021 149.614 12.4591 148.986 23.6463 148.615C23.9129 143.997 24.1795 139.313 24.4461 134.638L25.3411 134.314L32.6247 155.108C28.9686 159.25 27.9594 165.238 27.8642 172.189C36.9283 174.588 37.0996 181.634 36.795 189.327C36.2427 203.456 36.2618 217.604 35.7762 231.743C35.4892 236.649 34.7272 241.514 33.5007 246.272C30.6443 238.408 34.1957 229.02 26.0361 222.003C23.3131 233.733 24.5223 245.358 22.0658 256.65C19.7046 267.543 20.3616 279.082 19.3809 290.307C18.4002 301.533 17.0673 312.872 15.7153 325.735Z" fill="black"/>
<path d="M22.9995 54.4225C13.2689 53.1943 12.6024 44.673 8.27033 38.3414C7.10876 39.1222 6.0424 40.2456 4.75705 40.6265C1.74839 41.4263 0.386871 39.4744 1.23425 37.0085C1.90072 35.1043 3.61452 32.6764 5.39496 32.1051C13.8211 29.3821 16.6965 21.7176 21.1428 15.4337C26.2366 8.24526 31.578 1.38056 41.8227 0C33.5012 13.3867 26.9793 26.7828 26.4556 42.4545C26.3318 46.3582 24.2753 50.1952 22.9995 54.4225Z" fill="black"/>
<path d="M59.4084 36.2944C55.7333 35.0853 52.6484 34.952 51.1346 33.3524C48.8718 30.8781 47.2646 27.8765 46.4597 24.6216C45.7266 21.5463 49.1542 19.5469 52.0772 21.2226C56.9139 24.0027 59.8749 28.0777 59.4084 36.2944Z" fill="black"/>
<path d="M63.8249 297.953C57.4648 294.554 57.2649 291.622 60.0165 287.48C64.4438 289.67 62.8728 293.25 63.8249 297.953Z" fill="black"/>
<path d="M3.53904 75.8162L3.08203 70.751H4.22456V75.8543L3.53904 75.8162Z" fill="black"/>
<path d="M36.2907 413.691C36.1112 412.914 36.0344 412.117 36.0622 411.321C36.0622 411.073 37.0143 410.949 37.5094 410.778C37.7701 411.494 37.9458 412.239 38.033 412.996C38.0426 413.215 37.1 413.387 36.2907 413.691Z" fill="black"/>
</g>
<defs>
<clipPath id="clip0_729_133">
<rect width="103.218" height="600" fill="white" transform="translate(0.986328)"/>
</clipPath>
</defs>
</svg>
