<svg width="122" height="601" viewBox="0 0 122 601" fill="none" xmlns="http://www.w3.org/2000/svg">
<g clip-path="url(#clip0_729_275)">
<path d="M0.117188 24.0435L15.7188 3.98167C19.4723 5.89974 22.6661 8.38682 26.2269 9.15772C31.458 10.2865 32.0362 4.89023 34.6976 0.953125C35.3951 2.7886 36.3679 4.0092 36.2302 5.10131C35.2024 12.9296 33.8349 20.7029 32.7887 28.522C31.559 37.6994 30.2833 46.8768 31.3112 56.2653C33.6055 77.1164 34.2112 98.1418 39.4699 118.672C42.0304 128.684 42.7829 139.165 44.4257 149.425C45.3434 155.445 47.0045 161.411 47.289 167.449C47.4634 171.185 46.1969 175.223 44.7102 178.756C41.2962 186.814 39.0752 194.807 41.9569 203.535C44.5266 211.299 47.0596 219.091 49.2989 226.965C51.5382 234.839 54.3097 242.686 53.0616 251.212C52.7995 253.642 53.1595 256.099 54.1078 258.352C59.7152 272.118 65.2492 285.884 71.4072 299.457C75.3076 308.029 80.7223 315.921 84.6502 324.493C94.1187 344.972 102.016 366.141 108.273 387.817C114.403 409.228 113.403 430.621 114.816 452.059C115.413 461.181 115.541 470.34 115.651 479.49C115.807 493.844 115.303 508.215 115.973 522.541C116.45 532.838 118.616 543.044 119.589 553.322C120.561 563.601 120.883 573.926 121.653 584.213C122.525 595.86 114.982 602.917 103.84 600.467C88.7617 597.154 77.3358 589.454 73.8117 573.439C72.894 569.355 73.5088 564.941 73.4354 560.673C73.1968 545.072 75.0965 529.727 77.6479 514.364C82.4568 485.474 86.2379 456.547 86.4123 427.078C86.5407 405.162 82.365 384.238 76.8402 363.176C70.7832 340.232 59.7703 319.473 51.2078 297.631C45.2425 282.323 39.1395 267.098 33.5229 251.625C27.3649 234.692 28.4937 217.439 26.8785 200.314C26.2269 193.376 26.4839 186.548 24.061 179.738C22.4825 175.305 22.7945 170.184 22.3724 165.366C21.3996 154.243 20.6103 143.102 19.4999 131.997C18.5821 122.361 17.9581 112.605 15.9023 103.18C13.8004 93.3668 10.7261 83.7872 6.72491 74.5834C4.99039 70.5912 4.87108 67.9481 5.5135 63.7541C7.00941 54.182 7.11037 44.4081 7.45911 34.6984C7.45911 33.2484 5.70622 31.7066 4.70589 30.2566C3.30174 28.3109 1.86089 26.4112 0.117188 24.0435Z" fill="black"/>
</g>
<defs>
<clipPath id="clip0_729_275">
<rect width="121.545" height="600" fill="white" transform="translate(0.117188 0.953125)"/>
</clipPath>
</defs>
</svg>
