<svg width="100" height="600" viewBox="0 0 100 600" fill="none" xmlns="http://www.w3.org/2000/svg">
<g clip-path="url(#clip0_729_125)">
<path d="M20.5549 0C27.9623 0.720565 34.0295 3.0552 39.2896 7.55152C39.9681 8.23412 40.6902 8.87196 41.4513 9.46102C51.2798 15.8813 55.142 25.8755 59.2276 36.3597C66.0514 53.9199 65.5902 71.4224 61.7928 89.2059C59.3789 100.533 58.9106 111.976 58.9106 123.447C58.9682 135.632 60.3949 147.853 59.6744 159.973C59.0115 171.127 61.1587 181.842 61.8361 192.758C62.3477 201.211 65.2299 208.985 66.2675 217.185C66.6566 220.219 66.4189 223.354 66.9881 226.344C67.8168 230.768 69.0994 235.099 70.1874 239.473C72.8391 250.137 75.4403 260.808 78.1857 271.451C78.7779 273.271 79.5529 275.026 80.4987 276.69C81.0247 277.749 82.2785 278.736 82.2641 279.745C82.12 289.833 87.7836 298.379 90.0966 307.847C93.5049 321.855 96.6754 335.769 96.8627 350.231C96.8627 350.951 97.3743 351.845 97.0789 352.299C92.9789 358.784 96.3583 364.836 98.5993 370.673C100.156 374.665 100.04 378.102 98.1021 381.662C96.1205 385.337 95.7747 389.019 96.0629 393.299C96.6754 402.544 95.9188 411.868 96.2286 421.141C96.4952 428.779 97.8355 436.389 98.0949 444.034C98.7362 462.898 99.7738 481.777 95.5081 500.483C94.3191 505.692 95.5081 511.428 94.4344 516.681C92.1574 527.713 94.1966 539.624 87.8052 549.827C87.3283 550.662 87.0198 551.583 86.8973 552.536C85.2184 563.345 83.1216 574.089 82.0551 584.962C80.9382 596.412 74.4604 601.974 63.234 599.373C59.5061 598.524 55.9554 597.029 52.7425 594.956C46.6394 590.957 40.3416 587.693 33.0567 586.655C29.7147 586.269 26.6596 584.581 24.554 581.957C20.3171 576.87 14.9489 572.633 13.4934 565.643C12.2972 559.879 10.3157 554.316 12.7728 548.271C13.9113 545.475 13.9401 542.153 14.1419 539.055C14.7688 529.363 20.4108 521.761 24.4748 513.46C24.8855 512.617 25.9159 512.019 26.2185 511.198C29.2882 501.708 32.2497 492.182 35.2616 482.67C36.4722 478.827 37.7092 474.984 38.9725 471.141C39.1887 470.478 39.9237 469.837 39.866 469.232C39.0518 459.994 43.0798 451.124 41.2135 441.533C40.003 435.25 38.9293 428.65 39.5634 421.826C40.1687 415.262 38.1223 408.488 37.5098 401.78C36.8973 395.071 36.6451 388.543 36.3209 381.921C35.8813 372.9 35.5427 363.907 35.1103 354.849C34.959 351.744 34.7644 348.638 34.3898 345.547C33.5323 337.786 32.6244 330.026 31.6012 322.28C31.421 320.932 30.5852 319.671 30.0375 318.374C29.5836 317.294 28.6973 316.213 28.7045 315.125C28.7045 308.546 28.9999 301.967 29.1368 295.388C29.2377 290.344 29.5404 285.337 29.2521 280.343C28.6469 270.118 28.2722 259.821 26.7518 249.712C24.972 237.931 22.0897 226.308 19.6542 214.627C17.6078 204.785 15.4533 194.963 13.4718 185.084C12.1603 178.369 8.1756 172.936 4.82498 167.171C0.912308 160.484 -1.09807 153.97 3.54237 146.498C6.42463 141.872 8.26928 136.561 10.15 131.409C13.0322 123.606 13.2556 123.245 21.3043 123.036C26.9896 122.892 26.586 122.813 27.6957 117.272C29.3746 108.877 29.5908 100.288 32.3073 91.9945C36.0831 80.4871 38.8356 68.6266 41.9341 56.9246C42.4168 55.0872 42.4529 53.1417 42.7699 51.2538C44.3552 41.9009 40.3921 34.5871 34.6708 27.6985C31.6516 24.0957 29.3314 19.8588 26.6869 15.9101C25.6277 14.3248 24.8567 12.3793 23.4372 11.2408C19.9136 8.40179 19.5245 4.95028 20.5549 0ZM59.3645 377.418C57.7649 375.695 55.632 375.068 55.1853 377.792C54.7745 380.257 53.5063 381.395 51.8851 382.714C51.7049 382.858 51.9643 383.535 52.0652 384.371H58.1396L59.2276 377.223L64.5742 378.297L60.6688 373.433C60.0202 375.364 59.696 376.394 59.3645 377.418ZM52.2742 282.872C44.2975 283.903 39.4481 287.844 37.6107 295.605C38.5186 295.9 39.9165 296.657 40.1615 296.383C41.4196 294.82 42.5727 293.176 43.613 291.461C44.6292 292.449 45.7074 293.371 46.8411 294.221C48.2822 295.165 49.8459 295.878 51.3663 296.7C52.0868 294.848 53.3118 293.032 53.4055 291.151C53.4991 288.644 52.7425 286.064 52.2742 282.872ZM71.0089 327.036C68.9352 326.819 66.8396 327.093 64.8918 327.837C62.9439 328.581 61.1985 329.772 59.7969 331.316L64.4445 337.614C71.1386 335.942 71.1386 335.942 71.0377 327.036H71.0089ZM62.1099 294.942C62.9097 289.076 59.8041 285.574 57.3325 281.575C56.2805 283.168 55.2357 285.178 55.8914 286.288C57.4911 289.062 56.5615 293.609 62.1099 294.942ZM66.5774 431.323C64.9273 433.377 64.0986 433.967 63.9545 434.688C63.8104 435.409 64.2428 436.468 64.4229 437.361L65.5974 437.275C65.828 435.87 66.0586 434.501 66.5774 431.323Z" fill="black"/>
</g>
<defs>
<clipPath id="clip0_729_125">
<rect width="98.7678" height="600" fill="white" transform="translate(0.861328)"/>
</clipPath>
</defs>
</svg>
