<svg width="66" height="601" viewBox="0 0 66 601" fill="none" xmlns="http://www.w3.org/2000/svg">
<g clip-path="url(#clip0_729_191)">
<path d="M52.336 58.7359C47.3975 61.5193 44.7755 68.1578 45.8819 73.7187C47.0632 79.6772 47.6107 85.7567 48.5269 91.7671C48.7838 93.5949 49.2239 95.3923 49.8408 97.132C51.4716 101.581 53.2983 105.96 54.9522 110.386C55.1233 111.096 55.069 111.841 54.7966 112.518C53.2004 117.324 53.5404 122.62 50.832 127.161C47.6222 132.543 48.5673 138.623 48.8093 144.379C49.4259 158.936 50.4459 173.475 51.5235 188.002C52.0306 194.825 52.4858 201.544 51.4889 208.419C51.0106 211.715 52.7278 215.3 53.2811 218.792C54.0355 222.908 53.9767 227.133 53.1082 231.227C52.3706 234.512 53.6441 238.217 53.7709 241.738C53.9783 247.576 53.6556 253.448 54.1454 259.257C55.2 271.6 52.3418 283.609 51.3967 295.774C50.855 302.804 49.0167 309.725 48.4059 316.75C47.5185 326.996 45.0348 337.034 45.5707 347.499C46.147 358.742 45.5707 370.019 44.7985 381.308C43.9457 393.876 45.1212 406.565 45.1328 419.203C45.1328 430.1 45.709 440.916 46.7521 451.773C47.3744 458.164 45.807 464.739 45.6341 471.239C45.4267 479.439 45.6341 487.645 45.6744 495.851C45.6744 496.427 45.5361 497.136 45.8185 497.539C49.3337 502.587 47.1151 507.704 46.6253 513.035C45.928 520.682 42.1362 528.248 45.3575 536.166C45.7205 537.059 45.1673 538.384 44.885 539.468C43.3867 545.156 41.8711 550.843 40.2749 556.508C39.4624 559.429 38.3214 562.27 37.6184 565.204C36.5524 569.676 36.7944 574.361 38.3156 578.7C39.4681 582.238 38.6556 585.874 35.8377 588.819C34.956 589.741 34.5411 591.124 33.9591 592.276C32.7317 594.794 31.5273 597.33 30.1097 600.292C28.6287 599.451 27.6721 598.961 26.7732 598.379C25.9837 597.866 25.2634 597.226 24.2549 596.489C24.6929 594.887 25.1136 593.337 25.7186 591.135C23.719 590.617 21.9614 590.127 20.1865 589.712C16.2738 588.801 13.8477 586.831 13.2715 582.434C11.5139 567.82 7.15735 553.621 6.5638 538.776C6.18347 529.297 4.16657 519.887 3.00829 510.43C2.66254 507.607 2.78931 504.731 2.61644 501.879C1.80391 487.956 0.34598 474.005 0.282591 460.054C0.230728 448.408 1.69442 436.738 2.70288 425.098C3.65946 414.028 4.71978 402.964 6.04517 391.934C7.25531 381.884 9.42205 371.921 10.1539 361.848C10.8929 352.897 10.4901 343.889 8.95528 335.04C7.67598 327.97 8.37902 320.53 8.26953 313.252C8.21767 309.823 8.14275 306.377 8.35597 302.96C8.60952 298.99 9.16273 295.042 9.61221 290.859L14.7121 291.25C15.565 279.356 16.4121 267.624 17.2534 255.874H17.9852C18.3886 268.05 18.112 280.29 19.3971 292.368C20.6994 304.614 23.5404 316.692 26.5542 328.874C26.7559 324.91 26.8884 320.945 27.1708 316.986C28.2426 302.124 29.5911 287.28 30.3517 272.401C30.6687 266.223 29.7755 259.983 29.424 253.776C29.3318 252.284 28.9111 250.791 28.9399 249.31C29.0091 245.38 29.6314 241.421 29.3318 237.532C28.5999 228.035 27.6549 218.515 26.4044 209.093C25.9491 205.636 24.399 202.322 23.1946 198.991C20.3594 191.149 18.8496 182.856 16.8558 174.679C16.4236 172.904 16.2795 171.06 16.0317 169.245L14.689 169.112C14.2741 170.398 13.4904 171.677 13.4962 172.956C13.5769 189.598 14.3779 206.252 12.384 222.849C11.9345 226.635 11.8827 230.461 11.5139 234.253C11.3449 235.733 10.8167 237.149 9.97525 238.379C8.63833 234.921 8.98409 231.492 9.66407 228.116C11.9979 216.464 12.286 204.708 12.1074 192.877C12.0094 186.636 12.8565 180.384 12.943 174.137C12.9948 170.519 13.0755 166.646 11.9576 163.31C8.18885 152.032 8.54613 140.219 6.77126 128.699C5.72823 122.072 4.61605 115.446 5.67637 108.744C6.38516 104.214 7.05362 99.6503 8.19462 95.2189C10.4996 86.2407 8.77087 77.3203 8.39631 68.3595C8.30333 64.16 7.33987 60.0256 5.56688 56.2177C3.8381 52.6679 4.7313 48.9972 7.77395 46.3118C12.7816 41.8919 18.0486 37.7774 23.0102 33.2941C26.715 29.9716 30.2318 26.4452 33.5442 22.7313C38.3156 17.3779 42.9776 11.9323 47.2822 6.22153C50.2615 2.25688 54.6986 1.76706 58.744 0.418612C61.1585 -0.382387 65.6591 3.80701 65.4804 7.00524C65.2672 11.3214 64.2761 15.6145 63.4405 19.8904C62.9274 22.0844 62.2945 24.2486 61.5446 26.3733C60.467 29.8308 59.5162 33.3287 58.2081 36.6941C56.024 42.3356 53.4539 47.8331 51.3967 53.515C50.9299 54.7943 51.9096 56.598 52.336 58.7359ZM35.4977 567.439C36.1259 566.195 36.6157 565.711 36.6041 565.18C36.4428 558.905 36.4255 552.607 35.9242 546.354C35.5035 541.07 33.4866 535.884 35.6821 530.524C36.1662 529.372 36.1028 527.868 36.0221 526.542C35.7052 521.2 35.1693 515.864 34.9272 510.522C34.6737 504.812 34.2933 499.153 34.8581 493.367C35.4092 486.706 35.3089 480.007 34.5584 473.365C33.4347 461.996 30.4439 450.937 30.9511 439.251C31.4351 428.054 29.7985 416.777 29.4297 405.528C28.888 388.5 26.6061 371.529 27.701 354.443C27.7528 353.607 27.1996 352.714 26.9288 351.879C24.9407 358.327 23.8458 364.66 22.7163 370.987C21.8116 376.047 20.4113 381.066 20.0252 386.166C19.132 397.213 18.7632 408.311 18.1466 419.364C18.0659 420.891 17.8181 422.407 17.6914 423.928C16.8212 434.376 15.248 444.633 17.3456 455.317C20.0252 468.986 20.9126 482.977 22.8258 496.807C23.6095 502.478 23.9322 508.655 26.4908 513.519C29.7582 519.737 30.1501 525.983 29.7812 532.38C29.5038 538.492 29.8688 544.617 30.8704 550.653C31.6944 556.03 32.5992 561.429 35.4977 567.439Z" fill="black"/>
</g>
<defs>
<clipPath id="clip0_729_191">
<rect width="65.1979" height="600" fill="white" transform="translate(0.283203 0.320801)"/>
</clipPath>
</defs>
</svg>
