<svg width="87" height="942" viewBox="0 0 87 942" fill="none" xmlns="http://www.w3.org/2000/svg">
<g clip-path="url(#clip0_729_239)">
<path d="M30.7993 265.087C27.2787 260.087 29.3898 253.607 25.2888 248.606C22.9927 251.483 22.036 254.091 22.9545 257.497C24.0642 261.611 24.5171 265.693 23.0374 270.011C22.272 272.224 22.5845 275.113 23.2925 277.46C25.2059 283.659 25.3781 289.942 25.6077 296.332C25.9967 307.067 25.6906 317.884 27.9101 328.465C29.4281 335.684 31.7369 342.751 33.0125 349.996C34.422 357.701 35.0598 365.546 36.1058 373.321C36.6734 377.511 37.3814 381.689 38.0192 385.86C38.657 389.814 39.7285 393.73 40.0091 397.71C40.329 401.653 41.0426 405.555 42.1393 409.356C43.67 414.962 43.8996 421.187 43.4149 427.029C42.4646 437.872 43.619 448.408 44.9966 459.155C45.9661 466.7 46.7825 474.462 46.1255 482.422C45.3602 491.721 44.2887 501.218 47.4011 510.759C49.3145 516.537 48.2303 523.305 48.4471 529.631C48.4471 530.467 47.9879 531.334 48.09 532.144C49.3719 541.947 46.2722 551.846 50.5774 561.719C53.4538 568.314 54.1107 575.98 55.0993 583.257C56.2155 591.44 51.5723 597.289 43.3639 599.451C33.2867 602.091 25.0656 599.502 17.4375 592.25C12.7434 587.786 9.25463 583.289 8.29156 576.879C8.06558 575.638 7.52045 574.478 6.70982 573.512C4.72628 571.063 4.72628 568.671 5.84242 565.82C6.48022 564.174 6.24423 562.172 6.35904 560.322C6.41006 559.512 6.17408 558.632 6.39731 557.886C7.95352 552.662 9.86053 547.528 11.0979 542.234C11.7356 539.645 11.2509 536.762 11.0979 534.026C10.6259 527.138 9.67557 520.262 9.59266 513.374C9.49061 507.506 10.4664 501.581 10.7853 495.669C11.3402 485.349 11.2637 474.972 12.3607 464.71C13.1834 457.057 12.4053 449.403 14.408 441.603C16.4107 433.803 16.5446 425.39 15.4731 417.08C14.5101 409.605 13.8786 402.047 14.6886 394.413C15.0841 390.707 13.7511 386.848 13.9169 383.092C14.3539 373.765 13.2308 364.432 10.594 355.475C7.55171 345.321 9.31841 335.257 8.09384 325.244C6.86927 315.23 5.58093 305.223 4.36274 295.21C4.21605 293.985 3.99282 292.659 4.36274 291.511C5.38321 288.181 5.80416 285.018 4.52857 281.561C4.03109 280.222 4.93675 278.34 5.26841 276.72C6.16132 272.383 7.5262 268.091 7.89612 263.709C8.33726 258.034 8.37989 252.335 8.02368 246.655C7.80475 243.916 6.99998 241.255 5.66384 238.854C4.27983 236.303 3.82061 234.135 5.80416 231.877C7.7877 229.619 7.51982 227.349 6.4866 224.772C5.12172 221.392 5.3577 218.011 5.8488 214.306C6.68431 207.666 6.23148 200.874 6.27612 194.139C6.27612 192.474 5.75313 190.739 6.07841 189.164C7.0351 184.508 6.34628 180.298 3.17006 176.306C4.13951 174.392 5.03242 172.517 6.07841 170.7C8.38723 166.669 9.73935 162.689 7.354 158.084C5.55542 154.602 8.27242 151.489 9.33116 148.517C10.6068 144.856 10.7152 142.222 7.81959 139.454C5.10896 136.858 4.82195 133.873 6.30801 130.181C8.45738 124.849 9.21636 119.536 5.84242 113.878C3.68668 110.269 6.37179 105.989 6.93943 101.397C11.8313 103.993 9.61817 109.05 12.0418 111.952C14.8481 108.712 15.1415 104.937 13.0623 97.2257L8.55305 98.042C7.67289 97.2575 6.46746 96.0776 5.15361 95.038C1.58195 92.1807 1.5118 88.8769 3.34865 84.9481C7.2247 76.9213 8.1897 67.7966 6.07841 59.1365C4.90487 54.2702 6.86927 50.7049 8.85282 46.5784C12.9538 50.2521 7.75581 56.005 12.6796 60.1251C13.9424 52.7586 18.8598 47.2736 17.3482 40.0027C16.6084 36.4247 16.8508 32.904 11.6655 32.3492C8.69974 32.0303 6.17408 27.0618 6.38455 23.7708C6.50422 21.8625 6.76214 19.9654 7.15628 18.0944C8.03644 13.936 7.15628 10.6705 3.39329 8.15122C2.04754 7.20728 1.42251 5.24288 0.261719 3.44429C4.96227 1.04618 8.75715 -1.792 12.6349 3.30398C13.2176 3.9335 13.9905 4.35469 14.8353 4.50303C17.4567 5.06429 19.9377 5.99547 20.7286 8.73161C21.8447 12.45 24.2492 16.2576 22.3486 20.1609C20.939 23.0629 22.3868 24.1344 24.3512 25.0911C25.6268 25.7288 27.2213 25.8054 28.6691 26.1243C31.3223 26.7174 32.7319 28.0377 33.7715 30.9141C36.3532 37.8581 38.067 45.0945 38.8738 52.4588C38.9822 53.5048 39.5116 54.6273 39.2629 55.5776C36.903 65.2339 38.3381 75.0113 38.0702 84.7376C37.7513 96.1733 36.6479 107.59 36.1568 119.025C35.5956 132.164 35.4042 145.315 34.9386 158.46C34.3072 176.491 33.4271 194.477 32.9168 212.494C32.6171 223.503 32.9615 234.53 32.8339 245.551C32.7701 251.425 32.3364 257.293 31.9984 263.161C31.9729 263.677 31.3989 264.156 30.7993 265.087ZM13.3875 93.2905C15.7219 83.8192 15.3009 74.4372 14.3953 65.0808C14.1146 62.3 12.2714 61.1839 9.29289 62.6508C7.98571 73.0463 9.3965 83.603 13.3875 93.2905ZM20.314 202.991C16.602 208.476 16.7615 209.369 21.4493 213.292C21.0156 209.337 20.6712 206.167 20.314 202.998V202.991ZM15.2499 153.447C16.7168 150.118 15.9323 147.624 13.5087 145.207C11.3912 149.136 11.5634 149.959 15.2499 153.447ZM18.9746 173.302C18.5856 170.336 18.6175 168.837 18.1391 167.562C17.9176 167.14 17.6111 166.769 17.239 166.471C16.8669 166.174 16.4372 165.956 15.977 165.833C15.4667 165.699 14.2932 166.471 14.121 167.039C13.8659 167.9 13.885 169.22 14.3953 169.845C15.2563 170.891 16.5893 171.548 18.9746 173.302ZM23.6241 241.476H25.1038C25.1612 238.217 25.276 234.938 21.1814 232.897C21.9978 235.733 22.812 238.584 23.6241 241.45V241.476ZM20.2821 224.255L22.3932 224.14C21.9786 222.125 21.5704 220.103 21.1559 218.088L19.9377 218.273L20.2821 224.255Z" fill="black"/>
</g>
<defs>
<clipPath id="clip0_729_239">
<rect width="86.24" height="940.72" fill="white" transform="translate(0.261719 0.458984)"/>
</clipPath>
</defs>
</svg>
