<svg width="86" height="600" viewBox="0 0 86 600" fill="none" xmlns="http://www.w3.org/2000/svg">
<g clip-path="url(#clip0_729_147)">
<path d="M70.0604 0C74.8 7.10307 78.18 12.7067 82.0555 17.7894C85.3212 22.1225 87.1382 26.2776 85.067 31.7669C83.6212 35.2773 82.9285 39.0521 83.034 42.8472C84.114 56.3036 79.4634 68.6927 75.232 80.7768C65.3081 109.037 56.2354 137.424 50.3141 166.865C43.9607 198.746 41.1271 231.06 37.8361 263.271C35.3469 288.462 34.2059 313.767 34.4179 339.08C34.3801 351.632 33.2492 364.157 31.0379 376.514C26.9311 401.511 24.5282 426.758 23.8459 452.081C23.2868 469.705 19.7925 487.228 17.8992 504.826C15.1037 531.142 12.5623 557.585 9.75414 583.939C9.10217 589.374 8.0014 594.746 6.4631 600C3.92175 582.49 -0.932232 565.311 1.03731 547.356C3.04498 528.944 -1.16095 510.684 0.554458 492.031C3.15934 464.406 2.07927 436.553 6.78076 408.891C11.3552 381.863 11.2917 354.366 8.92821 326.894C7.7846 313.526 8.92821 299.956 9.06798 286.474C9.06798 282.662 9.46189 278.85 8.80114 275.177C4.68415 252.305 2.54942 229.433 4.65874 206.205C6.34874 187.755 6.62828 169.178 8.08956 150.689C9.22046 136.496 11.1646 122.366 12.8165 108.211C15.7517 83.2927 18.6362 58.3748 21.7112 33.4823C23.3504 20.496 31.3683 12.478 44.9391 10.3941C50.5682 9.51736 55.1045 7.92901 59.5011 3.86285C62.4872 1.15631 67.5953 0.825939 70.0604 0Z" fill="black"/>
</g>
<defs>
<clipPath id="clip0_729_147">
<rect width="85.8214" height="600" fill="white" transform="translate(0.109375)"/>
</clipPath>
</defs>
</svg>
