<svg width="96" height="600" viewBox="0 0 96 600" fill="none" xmlns="http://www.w3.org/2000/svg">
<g clip-path="url(#clip0_729_163)">
<path d="M79.4833 89.8999C83.394 86.5914 87.3047 86.3255 91.7786 89.9546C91.3641 91.8943 90.9026 94.0687 90.3473 96.6967L95.6659 99.8253C95.7832 103.079 96.096 106.153 93.0848 108.851C90.4802 111.198 87.6098 113.951 90.6836 119.215L94.5943 114.897C94.7664 116.399 95.6189 118.3 95.0245 119.426C92.1618 124.815 92.1227 128.194 94.8602 134.396C95.4156 135.648 94.8603 137.72 94.1798 139.089C91.2937 145.072 88.2198 150.97 85.1069 156.836C84.3808 158.218 83.408 159.456 82.2364 160.489C78.8419 163.398 76.8631 166.746 77.6374 171.439C77.7031 172.677 77.4556 173.911 76.9178 175.029C74.5245 181.169 72.4674 187.121 77.1525 193.347C78.3648 194.958 77.9346 197.828 78.1927 200.128C78.6776 204.907 79.0844 209.693 80.8755 214.519L74.7513 225.587C76.996 229.028 79.0061 232.11 81.2978 235.637C74.9781 239.337 77.7782 244.194 77.5514 248.973C77.2776 255.175 83.0733 255.738 85.1225 260.157C83.5582 260.94 82.0956 261.299 81.1101 262.222C80.1357 263.257 79.3661 264.468 78.8419 265.789C82.7526 268.761 78.2944 272.351 79.7023 275.667C80.9693 278.663 80.1403 282.589 81.5247 285.491C83.9728 290.622 80.0386 294.478 79.8352 299.014C79.6319 303.551 82.5336 308.04 78.576 312.428C76.7145 314.485 77.1055 317.497 78.9279 320.367C80.1324 322.276 80.8598 325.842 79.8822 327.524C76.5737 333.257 78.443 339.256 78.1301 345.036C77.919 348.861 78.6307 352.732 78.9123 356.58C79.0844 358.637 78.795 360.929 79.6084 362.712C83.0107 370.158 83.2219 377.659 82.3068 385.747C80.8755 398.324 80.5783 411.041 80.1012 423.704C79.9995 426.418 81.1883 429.179 81.8923 432.425C76.6128 435.202 76.6206 439.558 78.6698 444.814C79.5536 447.075 79.976 450.289 79.0218 452.354C75.1736 460.621 78.0519 469.561 75.7368 477.923C75.0641 480.324 75.6116 482.037 76.6128 484.36C77.9424 487.441 77.4966 491.289 77.7938 494.809C77.9424 496.585 78.0519 498.368 78.1927 500.143C78.5681 504.938 81.0163 509.396 79.757 514.582C79.2486 516.631 80.6252 520.112 82.3146 521.574C89.5182 527.831 90.1361 537.068 91.6535 544.929C93.3272 553.713 90.8166 563.302 89.964 572.523C89.8623 573.649 88.7986 574.737 88.0399 575.738C86.6399 577.599 84.9114 579.265 83.7068 581.213C76.0809 593.258 64.8102 599.124 50.9427 599.75C46.4532 599.945 41.8464 600.829 37.0049 597.489C33.407 595.002 28.1588 594.916 24.5609 590.966C22.3553 588.534 18.515 587.587 15.754 586.148C13.4075 580.673 11.0064 575.198 8.59735 569.723C7.97945 568.315 6.6498 566.954 6.66544 565.586C6.85999 558.821 4.61711 552.212 0.345703 546.963C6.90791 540.463 7.32245 536.928 4.45979 530.921C13.7517 525.289 15.2065 515.434 17.5529 505.9C18.8591 500.425 20.4312 494.997 22.0346 489.592C23.7162 483.914 25.6403 478.314 27.3141 472.635C27.8331 471.155 27.973 469.569 27.7208 468.021C25.9453 460.754 27.0325 454.012 30.4192 447.388C31.4282 445.409 32.1008 442.695 31.569 440.606C29.817 433.888 32.2416 427.631 33.8137 421.569C36.8328 409.962 36.301 398.105 38.0452 386.443C39.3279 377.925 42.5268 369.713 44.3649 361.258C45.147 357.574 44.9046 353.608 44.7638 349.791C44.5761 344.676 44.7169 339.921 46.4767 334.782C48.4598 328.912 49.0017 322.65 48.0566 316.527C46.527 306.828 46.5877 296.945 48.2365 287.267C50.583 272.242 50.6299 257.17 51.2712 242.152C51.5606 235.293 52.9294 227.597 48.479 221.034C48.3365 220.686 48.2785 220.309 48.3098 219.934C48.341 219.558 48.4607 219.196 48.6589 218.876C51.9908 214.488 50.5673 209.287 50.669 204.586C50.8489 195.568 49.6913 186.526 49.5036 177.485C49.6047 174.958 50.3945 172.508 51.7875 170.398C53.821 167.113 53.516 165.025 50.5438 162.389C48.6511 160.708 47.822 157.696 46.7348 155.24C45.6113 152.933 44.7431 150.509 44.1459 148.013C42.0185 136.969 40.5324 126.019 41.5101 114.553C42.0576 108.108 43.9034 102.586 46.1638 96.8922C48.0566 92.2932 48.8857 87.4439 52.7886 83.408C54.8222 81.3041 53.735 76.0089 53.7037 72.1608C53.7037 70.4166 52.4523 68.6881 52.3662 66.9282C51.897 57.0966 52.1707 47.2416 51.0601 37.543C50.2779 30.5584 50.5517 23.6677 50.2388 16.7614C49.9572 10.5433 52.116 5.74093 54.525 0.0234375C60.1642 2.13523 63.6526 5.49846 64.6929 11.5053C66.0225 19.0452 65.9052 26.6008 65.8348 34.1876C65.7347 35.2018 65.7689 36.2248 65.9365 37.2301C68.2829 45.8337 66.9846 54.6251 66.8125 63.26C66.6952 68.954 67.8371 72.7709 72.7177 75.5475C74.282 76.4235 75.5569 77.7375 77.4106 79.2001L74.8217 83.3924C76.386 85.5433 77.9503 87.7411 79.5145 89.9311L86.5539 92.2307C83.4331 89.5557 83.4331 89.5557 79.4833 89.8999ZM68.5332 104.956C67.493 106.38 66.4214 107.224 66.5466 107.834C66.7421 108.836 67.712 109.68 68.3611 110.588C69.0181 109.97 70.2383 109.321 70.2148 108.726C70.1914 107.694 69.3857 106.693 68.5489 104.956H68.5332ZM71.3411 156.719C70.645 156.14 70.1053 155.702 69.5578 155.256C69.0756 155.932 68.6838 156.668 68.3924 157.446C68.3455 157.657 69.4952 158.525 69.8629 158.392C70.4416 158.205 70.7936 157.415 71.3568 156.719H71.3411Z" fill="black"/>
</g>
<defs>
<clipPath id="clip0_729_163">
<rect width="95.3905" height="600" fill="white" transform="translate(0.345703)"/>
</clipPath>
</defs>
</svg>
