<svg width="74" height="600" viewBox="0 0 74 600" fill="none" xmlns="http://www.w3.org/2000/svg">
<g clip-path="url(#clip0_729_183)">
<path d="M25.8935 0C26.6247 0.0567642 27.3507 0.166517 28.066 0.328393C39.9807 4.37016 41.0417 5.32166 40.2165 17.4975C38.9114 36.679 42.4058 55.2711 45.6055 73.9896C46.8181 81.0374 46.5823 88.3968 46.397 95.5962C46.0266 110.104 43.6941 124.739 45.0245 139.054C46.6581 156.736 45.816 174.284 46.7086 191.874C46.9528 196.927 47.7359 201.878 48.098 206.888C50.2788 237.285 51.4661 267.767 56.653 297.878C58.4466 308.345 60.4674 318.777 62.3115 329.244C66.5537 352.628 68.9106 376.315 69.3593 400.076C69.5109 410.854 72.5843 421.556 73.3842 432.359C74.0579 441.495 74.361 450.884 73.0895 459.885C70.0077 481.703 65.8565 503.368 62.2525 525.109C60.1475 537.746 58.1827 550.41 56.3583 563.102C55.9205 566.108 55.6931 569.392 56.4341 572.272C58.0003 578.309 55.9962 583.917 54.59 589.382C52.6281 596.96 45.1003 599.672 38.8861 599.966C19.0225 600.901 1.43241 584.187 0.45565 567.388C0.0683144 560.702 1.76922 554.353 6.29937 549.461C15.6544 539.256 20.7992 527.164 23.8474 513.927C26.163 503.873 29.0006 493.937 30.9541 483.816C35.0464 462.689 40.6375 441.622 39.4166 419.931C38.6335 406.054 35.4843 392.321 33.5223 378.503C32.3098 369.923 31.1394 361.317 30.3395 352.686C29.0006 338.195 27.3586 323.686 26.9713 309.161C26.6177 295.04 22.879 281.534 20.9929 267.708C18.9636 252.821 20.3698 238.11 21.4897 223.341C21.8686 218.331 22.5759 213.338 23.3842 208.378C24.8578 199.267 22.778 190.603 20.5803 181.896C20.0498 179.791 19.4014 177.484 19.7382 175.421C22.1549 161.393 24.7904 147.407 27.4008 133.395C27.6955 131.795 28.2933 130.086 27.9986 128.57C25.3209 114.55 24.9841 100.522 26.0703 86.2833C27.1 73.4607 27.339 60.5869 26.7861 47.7349C26.2472 36.3169 24.1084 25 22.5254 13.6073C21.7002 7.67935 21.9023 6.26474 25.8935 0Z" fill="black"/>
</g>
<defs>
<clipPath id="clip0_729_183">
<rect width="73.5264" height="600" fill="white" transform="translate(0.404297)"/>
</clipPath>
</defs>
</svg>
