<svg width="102" height="600" viewBox="0 0 102 600" fill="none" xmlns="http://www.w3.org/2000/svg">
<g clip-path="url(#clip0_729_151)">
<path d="M71.5579 159.687L66.0335 156.72C65.5649 157.318 65.1847 157.98 64.9047 158.686C62.8693 166.315 60.3722 173.866 59.0296 181.622C55.9595 199.418 53.4368 217.309 50.7686 235.165C50.5035 236.961 50.7686 238.825 50.7686 241.801L57.5502 237.961C57.9521 239.261 58.5079 240.074 58.4053 240.758C54.9846 258.289 51.0423 275.717 48.2544 293.342C45.6119 310.01 44.0982 326.865 42.2682 343.652C40.9512 355.796 40.0019 367.974 38.8475 380.126C37.5818 393.099 35.88 406.029 34.9992 419.028C34.0157 433.48 33.8618 447.992 33.1349 462.471C32.8099 468.97 31.9205 475.435 31.3647 481.926C29.7056 501.116 27.4993 520.28 26.6612 539.505C26.1224 551.939 27.5933 564.467 28.192 576.953C28.2604 578.373 28.5511 579.784 28.6623 581.229C29.5175 592.346 26.952 596.169 15.6636 600.043C8.53147 593.082 3.02414 585.59 2.01503 574.807C-0.0343088 551.849 0.634509 528.731 4.00759 505.931C6.39353 489.092 7.59933 472.083 9.87409 455.227C13.8678 425.689 16.0057 395.852 23.4372 366.836C28.6452 346.492 34.4946 326.284 38.8304 305.751C40.1302 299.594 43.6878 293.274 41.3189 286.407C41.1625 285.732 41.1693 285.029 41.3389 284.356C41.5084 283.684 41.8358 283.062 42.2938 282.542C45.4751 279.891 44.9705 276.153 44.7995 273.049C43.8246 255.604 47.365 238.654 49.9305 221.593C51.5297 210.938 52.6585 200.214 54.6083 189.61C58.5165 168.358 62.8522 147.193 67.0084 125.993C68.5933 117.943 70.1668 109.89 71.729 101.834C71.8829 100.979 72.1566 99.9102 71.729 99.3287C67.7695 93.2911 71.327 88.0831 73.14 82.4988C75.8424 74.1438 78.0145 65.6005 80.2038 57.0915C80.5659 55.4957 80.3822 53.8244 79.6821 52.3453C76.6633 46.4874 76.5607 40.3729 77.2791 34.0446C78.3138 25.0567 78.1342 15.8977 81.2129 7.17493C82.393 3.89105 83.214 0.607175 87.2761 0C86.3525 21.7044 85.4289 43.3061 84.4369 66.5754C93.707 49.8739 92.0308 31.9921 97.4099 15.2649C102.378 18.1212 101.138 22.0208 100.146 24.6034C96.5547 34.0103 97.9487 43.6824 97.6921 53.2775C97.6494 54.9878 97.504 56.8863 98.1881 58.3315C100.882 64.0185 99.3597 69.5771 97.7947 74.9904C94.3727 86.9792 92.3046 99.3136 91.6289 111.763C91.5177 113.721 91.6973 116.039 90.7737 117.544C86.609 124.018 85.7795 131.15 85.0954 138.581C84.6763 143.088 84.0948 148.51 77.4843 149.297C76.6291 149.399 75.774 151.238 75.1582 152.392C73.9439 154.505 72.9433 156.779 71.5579 159.687ZM66.042 147.826L68.6076 148.433C69.6505 146.17 70.553 143.845 71.3099 141.472C73.4906 132.92 75.3977 124.368 77.6211 115.816C78.2454 113.422 78.9723 110.172 80.7254 109.129C86.5919 105.657 87.0452 99.9957 87.7464 94.4285C88.6016 87.5187 89.0634 80.5661 89.6877 73.7333L80.0242 68.4996C79.4341 96.5494 68.3254 121.367 66.042 147.826ZM49.2892 250.892H50.5548V247.334H49.2892V250.892Z" fill="black"/>
</g>
<defs>
<clipPath id="clip0_729_151">
<rect width="100.218" height="600" fill="white" transform="translate(0.833984)"/>
</clipPath>
</defs>
</svg>
