<svg width="106" height="601" viewBox="0 0 106 601" fill="none" xmlns="http://www.w3.org/2000/svg">
<g clip-path="url(#clip0_729_283)">
<path d="M103.075 600.673C96.2351 586.386 89.8482 572.526 82.8541 559.017C79.7504 553.031 75.159 547.79 71.5935 541.967C70.0288 539.402 68.1735 535.982 68.6865 533.366C70.9437 520.78 66.9764 508.485 67.5579 496.01C67.6776 493.3 66.1727 490.53 65.4887 487.768C62.1969 474.532 58.8367 461.314 55.6988 448.044C54.6482 443.918 54.001 439.7 53.7664 435.449C53.0311 417.109 49.0724 399.453 43.1727 382.156C42.6341 380.583 41.8646 378.967 41.8389 377.351C41.7021 370.006 41.4371 362.636 41.8389 355.309C43.0359 334.839 38.9917 315.123 33.759 295.568C32.391 290.438 32.2713 284.975 31.5873 279.665C31.1426 276.245 30.5612 272.911 30.3133 269.516C29.9798 264.754 30.0311 259.966 29.6806 255.203C28.9624 245.576 27.8166 235.974 27.3378 226.338C26.7137 213.606 25.7304 200.798 26.4828 188.127C26.9434 180.211 26.5017 172.268 25.1661 164.452C22.601 149.138 19.6341 133.902 17.3427 118.554C15.8806 108.739 15.4616 98.7776 14.3501 88.9022C13.1445 78.1974 11.8535 67.5267 10.2375 56.8476C9.75011 53.248 8.09137 49.8279 7.0226 46.3138C4.80811 39.2684 1.9951 32.3086 0.618521 25.135C-1.95508 11.7368 7.1594 0.963629 20.9081 0.672923C33.3828 0.433518 44.6434 4.3495 53.4244 13.2502C55.9296 15.8153 57.4943 20.1502 57.785 23.8182C59.3326 42.7825 60.427 61.781 61.4445 80.7795C61.872 88.7141 61.5043 96.6914 61.8378 104.626C62.3251 115.938 63.0947 127.233 63.7958 138.536C64.2917 146.445 64.9842 154.354 65.3947 162.271C65.9248 172.48 66.4292 182.706 66.6173 192.924C66.7798 201.474 66.8567 210.024 66.2924 218.48C65.2921 233.528 64.7192 248.406 66.7199 263.531C68.9601 280.409 69.1054 297.569 70.3538 314.584C71.7047 332.993 73.1326 351.393 74.8084 369.775C76.3474 386.679 78.0831 403.574 80.1095 420.427C80.9645 427.729 83.0337 434.894 84.205 442.17C87.0351 459.775 89.8653 477.379 92.3277 495.044C94.4396 510.161 96.2095 525.329 97.8255 540.505C98.9712 551.21 99.356 561.983 100.57 572.671C101.177 577.972 103.135 583.111 103.99 588.403C104.683 592.345 107.231 596.62 103.075 600.673Z" fill="black"/>
</g>
<defs>
<clipPath id="clip0_729_283">
<rect width="105.218" height="600" fill="white" transform="translate(0.183594 0.672852)"/>
</clipPath>
</defs>
</svg>
