<svg width="131" height="601" viewBox="0 0 131 601" fill="none" xmlns="http://www.w3.org/2000/svg">
<g clip-path="url(#clip0_729_287)">
<path d="M45.4107 91.4117C47.5148 102.005 49.7187 112.57 51.6776 123.154C53.2013 131.444 55.1693 139.742 55.5956 148.113C56.3665 163.059 61.9441 176.854 64.7828 191.283C65.9528 197.178 67.0139 203.073 68.5194 208.923C71.0951 218.836 73.698 228.758 76.8088 238.507C81.3888 252.828 86.1955 267.094 91.3197 281.233C94.9474 291.109 99.2644 300.705 103.219 310.454C104.461 313.529 106.193 316.621 106.484 319.823C107.817 334.606 116.088 346.795 120.995 360.236C125.176 371.727 129.91 383.163 130.672 395.606C130.817 397.973 130.962 400.839 129.828 402.708C123.57 413.019 126.101 424.474 125.293 435.421C124.386 446.821 124.686 458.303 120.296 469.177C119.668 470.871 119.396 472.678 119.498 474.482C119.97 485.855 120.614 497.219 121.131 508.592C121.43 515.122 121.53 521.661 121.883 528.182C122.165 535.086 123.702 541.881 126.418 548.234C131.062 559.008 128.912 570.137 122.917 580.113C120.332 584.403 116.161 587.722 113.376 591.903C109.676 597.499 104.162 599.367 98.2033 600.365C95.7183 600.782 92.5894 600.782 90.5034 599.621C81.806 594.841 73.1085 589.989 65.1819 584.103C61.3734 581.069 58.6059 576.922 57.2643 572.241C54.1173 560.75 49.8728 549.295 50.5802 537.097C50.816 533.052 52.5574 529.107 53.4643 525.08C55.786 514.759 57.092 504.402 55.9856 493.736C54.7249 481.729 60.1756 470.818 62.588 459.418C65.9528 443.501 69.2449 427.567 73.0722 411.768C78.0785 391.117 75.6025 371.228 68.7008 351.457C62.5518 333.844 56.9106 316.086 51.0518 298.347C50.0089 295.209 48.5215 292.225 47.5511 289.078C44.9028 280.48 42.4178 271.846 39.8966 263.203C39.7333 262.641 39.8966 261.97 39.7877 261.389C36.8583 249.454 33.8836 237.519 31.0177 225.593C29.8115 220.641 28.5145 215.689 27.6802 210.673C24.1431 189.56 21.114 168.356 17.2504 147.306C12.879 123.59 7.74577 100.037 3.12948 76.3929C1.70086 69.6017 0.716261 62.7247 0.181949 55.8055C-0.0538534 51.3887 1.17958 46.9266 1.73281 42.3919C3.066 31.6357 4.23594 20.8432 5.84121 10.1142C6.22644 7.57689 7.472 5.24907 9.36918 3.52078C15.0103 -1.01389 16.8151 -0.206719 19.9078 6.45017C24.4424 16.2723 27.6076 26.4662 30.2831 36.9685C32.3213 44.8084 35.6763 52.2452 40.2049 58.9616C45.9005 67.3689 45.7735 76.5471 46.6532 85.7615C46.8255 87.5754 46.6532 89.3892 46.6532 91.2031L45.4107 91.4117Z" fill="black"/>
</g>
<defs>
<clipPath id="clip0_729_287">
<rect width="130.598" height="600" fill="white" transform="translate(0.183594 0.672852)"/>
</clipPath>
</defs>
</svg>
