<svg width="38" height="601" viewBox="0 0 38 601" fill="none" xmlns="http://www.w3.org/2000/svg">
<g clip-path="url(#clip0_729_279)">
<path d="M19.7907 1.39407C19.5397 4.0194 19.4854 6.68544 18.9902 9.27006C18.0676 14.1001 16.3988 18.842 15.9579 23.706C15.6933 26.4195 17.1789 29.2958 17.9455 32.0772C19.0513 36.1068 21.6088 40.3127 16.0053 43.2433C15.4762 43.5215 15.2795 44.8647 15.327 45.7059C15.5237 54.6944 15.8086 63.6761 16.046 72.6579C16.1071 74.9033 16.1342 77.1555 16.1139 79.4417C16.0325 87.7654 15.8018 96.0891 15.8493 104.413C15.9239 116.563 16.1749 128.712 16.3852 140.862C16.5752 152.123 16.8013 163.384 17.0636 174.646C17.3146 185.907 17.4842 197.175 17.9455 208.429C18.3322 217.885 19.4583 227.329 19.5668 236.785C19.5565 243.706 20.616 250.587 22.7077 257.184C24.8718 264.029 24.5394 271.627 21.914 278.811C21.4204 280.507 21.3528 282.299 21.7173 284.028C23.2369 292.69 25.1092 301.286 26.466 309.969C28.2976 321.698 31.988 333.115 31.8184 345.19C31.7573 349.871 32.8767 354.565 33.4668 359.253C33.6093 360.372 34.0367 361.519 33.8942 362.597C32.4832 373.736 35.251 384.584 36.0583 395.56C36.2753 398.477 36.1193 401.421 36.16 404.379C36.2143 407.968 35.7462 411.672 36.4653 415.124C37.8831 421.908 36.9469 428.556 36.2414 435.286C35.312 444.234 34.6404 453.216 34.0231 462.197C33.2565 473.411 32.6664 484.631 31.988 495.852C31.8982 498.113 31.9344 500.378 32.0965 502.636C32.4264 507.09 31.9343 511.567 30.6448 515.844C29.2541 520.273 28.976 525.144 28.7725 529.852C28.0558 543.822 29.1227 557.825 31.9473 571.525C32.7817 575.446 34.5116 579.177 35.8208 583.003C36.4992 584.916 37.3472 586.789 37.666 588.756C39.0228 596.808 34.8372 601.184 26.7238 600.919C12.1929 600.451 6.84043 588.369 6.98289 578.085C7.1457 566.037 6.12813 554.097 2.53272 542.701C-0.76421 532.281 0.117685 521.949 0.565415 511.434C1.35234 492.684 6.18919 474.53 8.5703 456.017C10.3816 441.948 12.4371 427.905 14.3162 413.842C14.5877 411.605 14.7101 409.353 14.6825 407.099C14.6825 388.417 15.1235 369.714 14.4722 351.051C14.0313 338.481 12.281 325.951 10.6529 313.449C8.93662 300.282 6.16205 287.229 4.86634 274.035C4.14048 266.803 5.4294 259.368 5.87713 252.022C6.18919 246.852 6.69797 241.69 6.8947 236.521C6.94219 235.293 6.02637 234.045 5.67362 232.776C5.26659 231.311 4.41183 229.655 4.75102 228.346C8.09543 215.491 7.17284 202.391 7.3153 189.353C7.51881 169.999 7.13213 150.604 8.29895 131.304C8.97733 120.558 10.4494 109.853 10.1781 99.0333C10.0831 95.2344 9.87957 91.4354 9.71676 87.6297C9.09944 72.78 8.53638 57.9235 7.84443 43.067C7.69613 35.8499 8.84499 28.6649 11.2363 21.854C12.7966 17.6481 13.8956 13.2725 15.2116 8.96479C16.0189 6.29876 16.8737 3.62594 17.7081 0.953125L19.7907 1.39407Z" fill="black"/>
</g>
<defs>
<clipPath id="clip0_729_279">
<rect width="37.7858" height="600" fill="white" transform="translate(0.117188 0.953125)"/>
</clipPath>
</defs>
</svg>
