<svg width="140" height="600" viewBox="0 0 140 600" fill="none" xmlns="http://www.w3.org/2000/svg">
<g clip-path="url(#clip0_729_155)">
<path d="M74.1361 455.493C72.564 457.799 70.0694 459.767 70.1259 461.649C70.6154 477.153 66.85 492.883 72.4981 508.143C73.4395 510.703 73.3077 513.706 73.5336 516.511C73.7783 519.627 74.3337 521.858 77.3555 524.259C80.3772 526.659 83.5778 530.698 80.6879 536.101C79.3512 538.605 78.6357 542.86 79.8689 545.072C83.5778 551.662 79.7183 557.611 79.4076 563.796C79.3041 565.791 78.0427 567.721 77.3178 569.688C75.8587 573.67 74.4938 577.699 72.9217 581.634C71.9804 584.101 71.2838 587.358 69.3822 588.694C58.2366 596.498 45.9049 601.581 32.067 599.558C24.0466 598.381 18.022 593.844 14.313 585.72C12.2703 581.248 7.1964 578.189 3.01679 574C2.35784 566.883 1.51062 558.938 0.926983 550.937C0.766953 548.866 1.36942 546.738 1.66124 544.639C2.38608 539.452 2.99796 534.284 3.93931 529.097C4.51178 526.728 5.30602 524.418 6.31153 522.197C7.05519 520.314 8.01537 518.432 8.78728 516.549C9.78512 514.083 10.67 511.588 11.6113 509.084C12.2326 507.38 13.1175 505.667 13.2587 503.907C14.0683 493.721 13.4564 483.376 17.0241 473.51C17.4101 472.428 16.657 470.969 16.9206 469.801C17.7207 466.234 10.6888 465.273 14.3319 460.228C15.9698 457.95 14.6049 453.478 14.5484 450.005C14.4825 446.239 14.2565 442.549 14.2754 438.821C14.2754 430.82 11.536 423.496 9.86043 414.431C15.5086 408.924 17.9843 400.311 18.4362 390.784C18.78 387.041 19.3522 383.322 20.1494 379.648C22.666 365.708 23.679 351.538 23.1712 337.381C22.917 331.441 24.7244 325.407 25.7599 318.215C27.8779 317.377 30.4667 315.485 28.7252 310.506C27.4543 306.853 32.5565 304.198 31.0597 299.275C29.4312 293.881 30.3349 287.725 30.1748 281.898C30.1233 281.274 30.237 280.647 30.5043 280.081C35.71 271.195 33.7237 260.83 36.4254 251.492C37.6586 247.199 40.6615 243.453 42.2336 239.254C43.4326 236.049 44.0356 232.651 44.0127 229.229C43.9374 224.908 45.4248 222.065 48.0888 218.535C51.4588 214.054 53.2286 207.936 54.2547 202.269C55.0266 198.004 57.2293 194.305 58.0201 190.53C60.8441 177.2 69.7117 165.405 68.2902 150.993C68.3091 149.736 68.6321 148.502 69.2316 147.397C72.3851 140.111 75.934 132.985 78.6451 125.558C80.462 120.663 80.8573 115.203 82.4106 110.233C84.1337 104.287 86.2662 98.4683 88.7929 92.8175C98.0182 73.1149 102.132 52.1698 104.796 30.7917C105.173 28.0744 106.46 25.5653 108.448 23.675C115.979 17.2738 122.531 10.3549 124.593 0C126.852 0.715429 128.49 0.941354 129.732 1.68502C136.407 5.94936 141.443 22.9408 138.327 30.2551C138.082 30.8199 137.979 31.6577 137.555 31.8931C128.64 36.7787 129.168 46.6817 125.317 54.2973C119.952 64.8969 114.727 75.6001 112.534 87.2447C110.896 95.8769 105.766 102.466 102.603 110.101C99.9762 116.445 99.7785 123.835 98.7242 130.811C98.4418 132.59 98.8278 134.463 98.7901 136.289C98.6677 143.34 99.5244 150.193 96.0508 157.225C93.961 161.452 95.3824 167.58 95.646 172.776C96.0037 180.09 94.1681 186.699 91.6546 193.571C88.8306 201.261 85.2817 208.726 85.517 217.735C85.6771 222.574 80.9703 227.695 84.3403 233.456C84.5663 233.842 83.3237 234.915 83.1448 235.753C82.3164 239.603 80.7538 243.566 81.1209 247.331C81.6355 251.987 80.5892 256.683 78.1462 260.68C76.7044 263.072 75.745 265.723 75.3222 268.483C74.1831 277.473 73.1853 286.501 72.6205 295.538C72.2345 301.657 73.27 307.898 72.6205 313.951C71.7638 321.378 69.4858 328.617 68.3373 336.016C65.9933 351.078 63.4611 366.196 64.6943 381.578C64.7508 382.199 65.1273 382.98 64.8731 383.413C60.0346 391.594 65.9463 398.663 66.7558 406.26C67.6972 415.193 72.1592 423.901 69.3728 433.173C69.1939 433.748 68.9963 434.679 69.2881 434.99C75.1056 441.062 70.5589 449.515 74.1361 455.493Z" fill="black"/>
</g>
<defs>
<clipPath id="clip0_729_155">
<rect width="138.313" height="600" fill="white" transform="translate(0.955078)"/>
</clipPath>
</defs>
</svg>
