<svg width="94" height="600" viewBox="0 0 94 600" fill="none" xmlns="http://www.w3.org/2000/svg">
<g clip-path="url(#clip0_729_129)">
<path d="M69.4177 34.2669L64.6873 27.2565C61.1585 27.2565 58.6609 28.7419 59.5785 31.6274C61.0166 36.178 57.5066 38.4107 56.4187 41.7504C53.9237 49.7699 52.0263 57.9632 50.7422 66.2631C50.0894 70.1988 48.7649 73.8317 47.8472 77.4457C45.851 85.2981 44.1481 93.0465 40.2124 100.246C39.588 101.372 40.3165 103.34 40.676 104.872C41.0828 106.642 41.764 108.345 42.3978 110.284C62.4735 108.392 74.4697 119.461 83.6183 134.882C87.4026 141.315 92.7763 147.181 92.9371 155.232C93.0128 158.496 92.1613 161.854 91.3666 165.062C90.2692 169.565 88.15 173.917 87.6675 178.467C85.9267 194.674 83.798 210.927 83.5237 227.19C83.2588 243.094 81.6315 258.827 80.2219 274.598C79.2758 285.8 76.2767 296.869 78.9731 308.193C74.659 315.478 81.149 322.63 79.238 330.142C78.4433 333.283 78.6798 336.415 76.8444 339.678C71.518 349.139 73.2209 356.339 82.0194 362.384C84.4697 364.068 88.2351 363.841 93.2588 364.872C90.6098 366.046 89.4745 367.001 88.3392 366.973C81.8775 366.821 80.1273 367.843 80.3827 373.718C80.7233 381.561 80.6854 389.745 83.0128 397.077C84.9806 403.255 83.7318 408.354 81.5653 413.274C77.2039 423.16 79.2285 432.914 80.6192 442.791C80.8084 444.125 81.4518 446.225 80.8557 446.708C75.6902 450.899 78.8217 455.109 80.5908 459.272C81.5369 461.561 82.8993 463.69 83.9399 465.951C86.1348 470.681 86.5889 475.043 83.1925 479.943C77.8094 487.72 80.1935 496.973 80.0894 505.62C80.1152 510.016 80.3964 514.407 80.9314 518.77C81.395 523.33 80.1083 526.944 77.658 531.022C72.7857 539.139 70.1367 547.853 75.3117 557.512C78.5284 563.52 78.3865 570.029 73.7791 576.102C72.0478 578.392 71.5558 581.873 71.149 584.891C69.1244 599.622 56.9579 602.517 46.9201 598.136C30.4111 591.041 17.289 579.414 16.3808 560.738C15.2928 538.259 11.991 515.487 16.5795 493.113C20.184 475.497 18.8406 458.174 17.3647 440.606C16.5322 430.662 17.1471 420.568 17.6864 410.577C17.9608 405.544 17.3363 401.334 13.7223 397.607C11.8302 395.62 9.51232 393.274 8.99198 390.757C5.95508 375.837 -0.147093 361.4 2.51137 345.535C3.21147 341.372 1.86804 336.888 1.5653 332.536C1.02604 323.822 0.00427882 315.09 0.136729 306.386C0.420551 289.357 1.3004 272.422 2.08564 255.45C2.30324 250.766 3.03171 246.102 3.55206 241.429C3.73181 239.868 4.32784 238.307 4.26161 236.774C2.97495 208.78 12.0856 182.309 16.3903 155.156C18.7365 140.331 21.7829 125.573 25.5483 111.05C27.0525 105.279 27.3553 98.6567 32.237 93.9453C33.4953 92.7154 34.1954 90.634 34.5738 88.8365C36.466 80.984 37.8188 73.0276 39.8813 65.2414C41.3523 59.7912 43.247 54.4644 45.5483 49.3095C48.1027 43.5195 50.7044 37.9566 48.992 31.3341C48.6325 29.9718 50.0989 27.8336 51.2058 26.4334C55.5293 21.0314 56.7687 15.0806 53.9399 8.81754C52.3505 5.26977 52.7668 2.19503 55.8321 0.700231C57.8472 -0.330989 61.8018 -0.236382 63.5237 1.12596C69.1433 5.56305 74.8766 10.2556 79.1717 15.8847C84.5927 22.9424 80.676 30.0947 69.4177 34.2669ZM39.9948 388.335C40.676 382.1 41.5558 376.5 41.887 370.88C42.2275 364.362 42.5965 357.777 42.0194 351.296C40.2976 331.892 37.0147 312.564 36.4376 293.132C35.8132 272.318 37.6202 251.41 43.202 231.079C43.5484 229.557 43.7292 228.003 43.7413 226.443C44.1765 218.032 44.3184 209.603 45.0752 201.23C45.4915 196.632 47.9135 192.091 47.7432 187.578C47.2417 174.134 46.3335 160.672 44.7536 147.323C43.8548 139.754 42.4168 131.977 38.131 125.128C32.8803 126.178 31.6883 130.539 31.3572 133.747C30.3259 143.576 23.1547 152.337 26.324 162.838C26.4261 163.47 26.3841 164.117 26.2011 164.73C24.3089 175.194 22.2086 185.629 20.3827 196.102C18.4906 206.821 16.4281 217.531 15.255 228.326C14.2143 237.947 14.1859 247.692 13.921 257.389C13.8359 260.766 14.4224 264.163 14.6211 267.55C15.1225 275.979 17.0904 284.683 15.6429 292.772C14.0724 301.504 15.5577 308.704 19.0582 316.348C20.5246 319.537 20.2976 323.586 20.4868 327.266C20.7044 331.552 20.4868 335.866 20.5435 340.161C20.6476 348.676 21.4139 357.039 26.4565 364.39C27.1188 365.336 27.1282 366.765 27.4688 367.966C29.0109 373.321 30.4868 378.695 32.1424 384.049C33.1263 387.417 35.4631 389.045 39.9948 388.335Z" fill="black"/>
</g>
<defs>
<clipPath id="clip0_729_129">
<rect width="93.122" height="600" fill="white" transform="translate(0.136719)"/>
</clipPath>
</defs>
</svg>
