<svg width="52" height="601" viewBox="0 0 52 601" fill="none" xmlns="http://www.w3.org/2000/svg">
<g clip-path="url(#clip0_729_195)">
<path d="M4.28276 402.461C4.00818 408.727 3.74184 414.99 3.48373 421.251L2.96065 421.411C2.6641 420.822 2.21104 420.254 2.10807 419.632C1.9203 418.544 1.86086 417.438 1.93097 416.337C2.42527 409.116 2.00178 401.861 0.670636 394.747C0.287595 392.654 0.17227 390.422 2.02158 388.606C2.60644 388.033 2.89063 386.818 2.80414 385.949C2.48288 382.806 3.11304 379.61 4.76053 377.3C8.40149 372.172 7.4789 366.179 8.82984 360.652C10.4032 354.235 11.4535 347.707 13.6941 341.442C15.7534 335.676 15.6175 329.58 15.5722 323.546C15.5722 321.561 13.9741 319.996 14.419 317.673C14.7938 315.729 14.5178 313.76 15.6093 311.832C16.19 310.799 15.9058 309.155 15.7081 307.829C15.3055 305.288 15.4886 302.689 16.2435 300.23C17.9817 294.398 16.9149 288.533 15.4445 282.775C14.8473 280.407 14.2089 278.158 14.5796 275.579C14.8555 273.644 13.8465 271.56 13.7558 269.525C13.6446 267.387 13.6117 265.151 14.0936 263.091C15.2756 258.062 17.2279 253.207 18.0352 248.112C19.0155 241.934 19.1308 235.57 19.658 229.293C19.7857 227.798 19.7115 226.138 20.3458 224.861C22.9653 219.577 22.4052 213.926 22.6358 208.349C22.7264 206.035 22.5864 203.679 22.9653 201.413C23.8961 195.808 23.6614 190.248 23.1301 184.63C22.8665 181.812 23.4143 178.925 23.3401 176.075C23.2248 171.717 23.2907 167.298 22.5534 163.031C21.4466 156.825 20.9377 150.528 21.0336 144.225C21.0913 141.144 20.0493 138.047 19.4973 134.95C18.9454 131.852 18.3112 128.771 17.8499 125.687C17.2732 121.79 16.6843 117.882 16.3712 113.952C15.9152 108.361 16.142 102.734 17.0467 97.1973C17.7345 92.9962 17.9734 88.6303 17.1373 84.2686C16.8037 82.5181 17.4915 80.5 17.9858 78.6754C19.3367 73.6711 20.9924 68.7451 22.2239 63.712C23.5461 58.3165 24.9711 52.8798 25.5436 47.3771C26.2603 40.503 26.7793 33.497 25.1318 26.6641C24.5799 24.3452 23.5337 21.7669 21.8862 20.1565C17.4751 15.8606 18.3935 10.8934 19.6291 6.01687C20.3458 3.20378 23.4266 2.19057 25.9061 1.11146C29.1269 -0.284785 32.1954 0.18475 35.0661 2.38003C37.8257 4.50942 41.5408 5.7368 42.414 9.6084C43.2871 13.48 43.7814 17.434 44.3951 21.3509C44.6504 22.9778 44.7369 24.6459 44.9882 26.2563C45.3547 28.6493 45.5401 30.9928 47.2576 33.0934C48.6085 34.7409 48.8145 36.8785 48.1225 39.2715C46.475 45.0377 45.4948 50.9687 43.8761 56.7349C42.4922 61.6774 40.507 66.4304 38.9666 71.3276C38.0811 74.1448 37.5209 77.0649 36.8743 79.9522C35.7581 84.9729 33.0315 89.5365 32.8379 94.8373C32.7555 97.0902 32.0595 99.3143 31.8865 101.567C31.8856 102.497 32.2156 103.396 32.8173 104.104C34.2177 105.752 34.2918 105.707 34.5513 107.96C31.9853 108.899 31.7135 110.884 31.87 113.507C32.1171 117.684 32.3766 121.712 35.754 125.114C32.6526 127.523 33.1798 130.963 33.3569 134.093C33.8346 142.549 34.9549 150.98 35.2515 159.427C35.581 168.719 35.3256 178.031 35.2515 187.336C35.1938 193.217 34.9755 199.095 34.8108 204.972C34.831 205.795 34.7438 206.618 34.5513 207.419C32.8338 213.127 32.3972 219.009 32.4137 224.903C32.4137 229.787 31.071 234.421 29.6624 238.906C27.8089 244.796 27.603 250.711 27.5453 256.699C27.5453 258.248 28.4062 259.805 28.9539 261.642C25.7207 265.283 25.5354 269.756 26.5445 274.488C26.734 275.382 26.2603 276.407 26.3921 277.33C26.5321 278.318 26.7504 279.566 27.4177 280.159C28.9663 281.539 29.3741 282.631 27.673 284.163C26.2809 285.419 26.4374 286.576 27.8625 287.948C28.5915 288.652 29.2464 290.456 28.851 291.128C26.7916 294.645 27.7389 298.43 27.9902 301.939C28.402 307.883 26.9852 313.55 26.6104 319.353C26.2891 324.353 24.065 328.04 20.284 331.108C19.6127 331.656 19.5262 333.048 19.3738 334.078C18.9866 336.78 18.7066 339.498 18.3894 342.212C17.9405 346.026 17.7345 349.708 18.9825 353.559C21.256 360.561 20.317 367.563 17.6604 374.384C17.1163 375.751 16.8489 377.212 16.8737 378.684C17.0096 382.65 17.5204 386.608 17.6068 390.574C17.586 392.213 17.2094 393.828 16.503 395.307C15.6422 397.214 15.7905 398.944 16.26 400.884C16.6719 402.531 16.5442 404.335 16.6719 406.065C16.8284 408.355 16.9767 410.645 17.1456 412.935C17.5863 418.87 19.2049 424.467 21.6144 429.904C22.9612 432.985 23.3648 436.461 24.411 439.69C26.145 445.016 27.9655 450.312 29.9342 455.556C30.7145 457.452 31.7168 459.249 32.9203 460.91C34.8808 463.768 36.0052 466.804 36.8578 470.226C38.3323 476.178 40.6511 481.944 42.9535 487.649C44.601 491.689 46.8828 495.45 48.6538 499.441C49.4117 501.15 50.0542 503.147 49.9471 504.96C49.5064 512.373 51.0015 519.639 51.5946 526.97C51.8047 529.66 51.2527 532.399 51.2569 535.117C51.2569 539.746 51.4134 544.38 51.5287 549.014C51.6111 551.355 50.8048 553.642 49.2716 555.414C45.0129 560.468 41.2154 565.76 39.815 572.449C39.5226 573.858 38.74 575.46 37.6692 576.362C33.1715 580.151 32.4919 585.501 31.4293 590.695C30.9474 593.039 30.2266 595.102 28.4267 596.828C24.0074 601.058 18.6612 601.519 13.7517 597.808C9.47236 594.575 6.74988 590.683 7.71778 584.847C8.15849 582.132 9.94601 580.818 11.7747 579.492C15.6628 576.704 18.8054 573.223 20.7494 568.956C22.5699 564.953 25.0041 561.543 27.6565 558.062C30.309 554.582 31.9853 550.237 32.6567 545.706C32.8127 544.769 33.126 543.866 33.5834 543.033C35.9517 538.597 36.8207 533.869 36.9896 528.865C37.1461 524.239 37.8957 519.635 38.2952 515.009C38.6269 510.619 38.0103 506.208 36.4871 502.077C35.6634 499.655 35.4286 497.011 34.9055 494.473C33.4351 487.303 30.5314 480.692 27.3641 474.127C23.5131 466.137 20.4076 457.776 16.3136 449.925C13.6405 444.793 12.7303 439.505 11.75 433.965C10.5885 427.375 10.0655 420.682 7.81251 414.282C6.46981 410.464 5.93437 406.366 5.03649 402.395L4.28276 402.461Z" fill="black"/>
</g>
<defs>
<clipPath id="clip0_729_195">
<rect width="51.1711" height="600" fill="white" transform="translate(0.439453 0.320801)"/>
</clipPath>
</defs>
</svg>
