<svg width="77" height="601" viewBox="0 0 77 601" fill="none" xmlns="http://www.w3.org/2000/svg">
<g clip-path="url(#clip0_729_247)">
<path d="M16.4485 191.209L19.5828 190.115C19.7691 190.458 20.0732 190.733 20.0291 190.983C19.7397 194.524 19.2492 197.963 17.9004 201.386C15.9384 206.37 17.6404 211.623 17.9004 216.763C17.9641 218.033 18.5184 219.559 18.0132 220.535C15.7962 224.817 16.8458 229.035 17.6159 233.356C17.9494 235.205 17.7729 237.158 17.7336 239.061C17.6797 241.621 17.3461 244.186 17.4688 246.737C17.7827 253.025 18.4252 259.298 18.6606 265.586C18.7636 268.274 19.0776 270.58 20.858 272.816C23.1339 275.671 24.4337 278.677 22.1333 282.626C21.1523 284.338 22.0695 287.286 22.3933 289.64C22.5649 290.876 23.8255 292.092 23.698 293.22C23.3007 296.654 23.1535 299.788 24.8555 303.128C25.5569 304.507 24.4141 307.391 23.281 309.014C21.3976 311.717 21.5202 314.473 22.869 316.818C25.7776 321.894 25.812 327.682 27.5042 333.038C27.9241 334.441 27.9036 335.939 27.4453 337.33C26.3319 340.415 26.6997 343.378 27.2638 346.463C28.4851 353.153 29.5299 359.873 30.6972 366.573C31.2171 369.58 31.7322 372.601 32.4826 375.554C34.0277 381.68 35.8719 387.738 37.3188 393.883C38.6235 399.416 39.4132 405.071 40.7179 410.599C41.4684 413.758 42.8368 416.765 43.8619 419.86C45.8582 425.878 47.8496 431.896 49.7478 437.939C51.9599 444.904 54.2064 451.864 56.2321 458.888C57.9488 464.818 59.3908 470.831 60.9064 476.815C61.6667 479.802 62.1915 482.853 63.0597 485.806C67.1209 499.598 69.2545 513.538 68.8523 528.042C68.6856 534.193 66.5274 539.814 66.3361 545.802C66.0059 554.922 67.9653 563.979 72.0356 572.147C74.3899 576.953 76.9405 581.893 76.5579 587.676C76.2195 592.713 73.615 596.661 68.9259 598.515C62.4956 601.046 56.0408 602.253 49.4879 599.006C43.9893 596.428 39.6266 591.924 37.2256 586.346C35.3176 582.059 34.7732 578.199 36.3084 573.746C37.0098 571.695 36.5537 569.233 36.5291 566.962C36.4703 560.674 37.1619 554.298 35.6365 548.142C33.4832 539.47 34.7045 530.774 34.7487 522.082C34.7487 517.369 34.7487 512.66 34.7487 507.947C34.7487 503.719 34.9645 499.486 34.7879 495.263C34.523 488.935 34.4495 482.544 33.4734 476.31C32.3158 468.923 30.2754 461.684 28.6323 454.371C28.3135 452.943 27.8671 451.496 27.8475 450.049C27.7347 442.27 25.346 434.908 23.0505 427.683C20.755 420.458 19.4209 413.223 17.6551 405.984C16.5761 401.569 15.0114 397.287 13.8588 392.893C12.5835 388.017 11.0777 383.142 10.4695 378.178C9.2825 368.349 7.89442 358.539 5.6676 348.827C4.76019 344.879 6.0698 340.783 4.53947 336.781C3.00915 332.778 2.14589 328.59 1.10605 324.455C0.857306 323.532 0.830413 322.564 1.02758 321.63C1.80961 318.818 1.71205 315.835 0.747997 313.08C0.149601 311.354 1.3562 308.627 2.44509 306.753C4.58852 303.06 4.14218 299.935 1.39054 296.943C-0.164311 295.251 -0.179026 293.51 0.900049 291.548C2.1606 289.223 3.01896 286.913 2.02327 284.083C1.61616 282.925 2.18513 281.14 2.84729 279.943C4.42176 277.069 4.51985 274.42 2.6609 271.673C1.38073 269.775 1.67993 267.901 2.41566 265.729C3.79393 261.805 5.6725 257.768 3.81355 253.408C3.75469 253.265 3.69583 253.035 3.7645 252.917C6.95268 248.409 4.49533 243.166 5.68722 238.438C6.29542 235.985 6.33957 233.886 4.51986 232.091C2.82767 230.418 3.04839 228.716 3.84298 226.73C4.88374 224.191 5.76987 221.592 6.49652 218.946C6.78126 217.72 6.73556 216.44 6.36409 215.238C5.94718 213.869 5.05939 212.653 4.40214 211.461C4.51985 211.167 4.53457 210.97 4.64248 210.872C9.8809 206.688 8.7822 200.66 9.25307 195.084C10.1997 183.802 8.61543 172.658 8.04647 161.456C7.64427 153.475 6.71724 145.368 7.66879 137.515C9.34626 123.595 7.06549 109.861 7.09002 96.049C7.09002 80.6084 6.19733 65.1482 6.472 49.7321C6.62896 40.9328 8.92444 32.4571 14.6386 25.1537C18.7587 19.9055 22.1186 14.0687 25.8757 8.53599C27.6521 5.85486 29.647 3.32514 31.8401 0.972656C32.4728 7.8395 31.5458 14.3434 29.8781 20.7001C28.0535 27.6062 25.8561 34.4338 23.4527 41.1535C21.4908 46.5783 20.8678 52.2287 20.0831 57.8301C19.2527 63.9722 18.8332 70.1628 18.8274 76.3608C18.7735 85.9743 19.1315 95.5879 19.4013 105.201C19.7495 117.596 19.8084 129.971 18.8127 142.361C17.7385 155.697 17.1941 169.073 16.478 182.439C16.3063 185.171 16.4485 187.932 16.4485 191.209Z" fill="black"/>
</g>
<defs>
<clipPath id="clip0_729_247">
<rect width="76.4868" height="600" fill="white" transform="translate(0.121094 0.972656)"/>
</clipPath>
</defs>
</svg>
