<svg width="66" height="600" viewBox="0 0 66 600" fill="none" xmlns="http://www.w3.org/2000/svg">
<g clip-path="url(#clip0_729_167)">
<path d="M52.2969 58.4151C47.3584 61.1985 44.7364 67.837 45.8428 73.3979C47.0242 79.3564 47.5716 85.4359 48.4879 91.4463C48.7447 93.2741 49.1849 95.0715 49.8017 96.8112C51.4325 101.26 53.2593 105.64 54.9131 110.065C55.0843 110.775 55.0299 111.52 54.7576 112.197C53.1613 117.003 53.5013 122.299 50.7929 126.84C47.5831 132.222 48.5282 138.302 48.7702 144.059C49.3868 158.615 50.4068 173.154 51.4844 187.681C51.9915 194.504 52.4468 201.223 51.4498 208.098C50.9715 211.394 52.6888 214.979 53.242 218.471C53.9964 222.588 53.9377 226.812 53.0691 230.907C52.3315 234.191 53.605 237.897 53.7318 241.417C53.9393 247.255 53.6166 253.127 54.1064 258.936C55.1609 271.279 52.3027 283.288 51.3576 295.453C50.8159 302.484 48.9777 309.404 48.3669 316.429C47.4794 326.675 44.9957 336.713 45.5317 347.178C46.1079 358.421 45.5317 369.698 44.7595 380.987C43.9066 393.555 45.0822 406.245 45.0937 418.882C45.0937 429.779 45.67 440.595 46.713 451.452C47.3353 457.843 45.7679 464.418 45.595 470.918C45.3876 479.118 45.595 487.324 45.6354 495.53C45.6354 496.106 45.4971 496.815 45.7794 497.219C49.2946 502.267 47.076 507.384 46.5862 512.714C45.8889 520.361 42.0972 527.927 45.3184 535.845C45.6815 536.738 45.1283 538.064 44.8459 539.147C43.3476 544.835 41.8321 550.522 40.2358 556.187C39.4233 559.109 38.2823 561.95 37.5793 564.883C36.5133 569.355 36.7553 574.04 38.2766 578.379C39.4291 581.917 38.6166 585.553 35.7987 588.498C34.917 589.42 34.5021 590.803 33.9201 591.955C32.6926 594.474 31.4882 597.009 30.0707 599.971C28.5897 599.13 27.6331 598.64 26.7341 598.058C25.9446 597.545 25.2243 596.905 24.2159 596.168C24.6538 594.566 25.0745 593.016 25.6796 590.814C23.6799 590.296 21.9224 589.806 20.1475 589.391C16.2347 588.481 13.8086 586.51 13.2324 582.113C11.4748 567.499 7.11829 553.3 6.52474 538.456C6.14441 528.976 4.12751 519.566 2.96923 510.109C2.62347 507.286 2.75025 504.41 2.57737 501.558C1.76485 487.635 0.306917 473.684 0.243529 459.733C0.191665 448.087 1.65536 436.417 2.66381 424.777C3.6204 413.707 4.68072 402.643 6.00611 391.613C7.21625 381.563 9.38298 371.6 10.1148 361.527C10.8538 352.576 10.4511 343.568 8.91621 334.719C7.63692 327.649 8.33996 320.209 8.23047 312.931C8.1786 309.502 8.10369 306.056 8.31691 302.639C8.57046 298.669 9.12367 294.721 9.57315 290.538L14.673 290.93C15.5259 279.036 16.373 267.303 17.2143 255.553H17.9462C18.3496 267.729 18.073 279.969 19.358 292.048C20.6604 304.293 23.5013 316.371 26.5151 328.553C26.7168 324.589 26.8494 320.624 27.1317 316.665C28.2036 301.804 29.552 286.959 30.3127 272.08C30.6296 265.903 29.7364 259.662 29.3849 253.455C29.2927 251.963 28.872 250.47 28.9008 248.989C28.97 245.059 29.5924 241.101 29.2927 237.211C28.5609 227.714 27.6158 218.194 26.3653 208.772C25.9101 205.315 24.3599 202.001 23.1556 198.671C20.3204 190.828 18.8106 182.535 16.8167 174.358C16.3845 172.583 16.2405 170.739 15.9927 168.924L14.65 168.792C14.2351 170.077 13.4514 171.356 13.4571 172.635C13.5378 189.278 14.3388 205.931 12.345 222.528C11.8955 226.314 11.8436 230.14 11.4748 233.932C11.3059 235.412 10.7777 236.828 9.93619 238.058C8.59927 234.6 8.94503 231.172 9.62501 227.795C11.9589 216.143 12.247 204.387 12.0683 192.557C11.9704 186.316 12.8175 180.063 12.9039 173.817C12.9558 170.198 13.0365 166.325 11.9185 162.989C8.14979 151.711 8.50707 139.898 6.7322 128.379C5.68917 121.752 4.57699 115.125 5.6373 108.423C6.3461 103.893 7.01456 99.3295 8.15555 94.8981C10.4606 85.9199 8.73181 76.9995 8.35724 68.0387C8.26427 63.8392 7.30081 59.7048 5.52782 55.8969C3.79904 52.3471 4.69224 48.6764 7.73488 45.991C12.7426 41.5711 18.0096 37.4566 22.9712 32.9733C26.676 29.6508 30.1927 26.1244 33.5052 22.4105C38.2766 17.0571 42.9385 11.6115 47.2431 5.90073C50.2224 1.93607 54.6596 1.44626 58.7049 0.0978111C61.1194 -0.703188 65.62 3.48621 65.4414 6.68444C65.2282 11.0006 64.237 15.2937 63.4014 19.5696C62.8884 21.7636 62.2555 23.9278 61.5055 26.0525C60.4279 29.51 59.4771 33.0079 58.169 36.3733C55.985 42.0148 53.4149 47.5123 51.3576 53.1942C50.8909 54.4735 51.8705 56.2772 52.2969 58.4151ZM35.4587 567.119C36.0868 565.874 36.5766 565.39 36.5651 564.86C36.4037 558.584 36.3864 552.286 35.8851 546.033C35.4644 540.749 33.4475 535.563 35.6431 530.204C36.1271 529.051 36.0637 527.547 35.9831 526.222C35.6661 520.88 35.1302 515.544 34.8882 510.202C34.6346 504.491 34.2543 498.832 34.819 493.046C35.3702 486.385 35.2698 479.686 34.5194 473.044C33.3957 461.675 30.4049 450.617 30.912 438.93C31.396 427.733 29.7595 416.456 29.3907 405.207C28.849 388.179 26.567 371.208 27.6619 354.122C27.7138 353.286 27.1605 352.393 26.8897 351.558C24.9016 358.006 23.8067 364.339 22.6773 370.666C21.7725 375.726 20.3722 380.745 19.9861 385.845C19.0929 396.892 18.7241 407.991 18.1075 419.043C18.0269 420.57 17.7791 422.086 17.6523 423.607C16.7821 434.055 15.209 444.312 17.3065 454.996C19.9861 468.665 20.8736 482.656 22.7867 496.487C23.5705 502.157 23.8932 508.335 26.4518 513.198C29.7191 519.416 30.111 525.663 29.7422 532.059C29.4647 538.171 29.8298 544.296 30.8313 550.332C31.6554 555.709 32.5601 561.108 35.4587 567.119Z" fill="black"/>
</g>
<defs>
<clipPath id="clip0_729_167">
<rect width="65.1979" height="600" fill="white" transform="translate(0.244141)"/>
</clipPath>
</defs>
</svg>
