<svg width="50" height="601" viewBox="0 0 50 601" fill="none" xmlns="http://www.w3.org/2000/svg">
<g clip-path="url(#clip0_729_243)">
<path d="M28.4762 0.972656C34.1458 1.11317 38.6728 3.73411 43.0166 6.27563C48.9978 9.758 50.7634 16.8144 47.7759 23.3148C46.5173 26.0702 44.6417 28.5628 43.5787 31.3731C41.4526 37.0182 39.7664 42.8649 37.7014 48.5528C34.9583 56.0918 34.1335 63.8264 34.2069 71.8236C34.2069 74.5789 33.1072 77.3587 32.4107 80.1019C29.5148 91.502 30.2968 103.085 30.8222 114.614C31.2743 124.523 32.0991 134.415 32.9972 144.294C33.6753 151.741 34.9461 159.146 35.557 166.599C36.0425 171.86 36.0997 177.152 35.7281 182.422C35.0805 190.487 37.2127 198.13 38.2268 205.968C39.6259 216.831 40.5301 227.797 40.8906 238.745C41.416 254.941 41.5015 271.162 41.3304 287.364C41.2205 296.901 40.0536 306.425 39.687 315.968C39.2166 328.309 39.577 340.711 38.6056 353.01C37.7992 363.28 35.5937 373.44 33.9991 383.648C33.4676 387.045 32.5329 390.436 32.5145 393.833C32.5369 396.229 33.2635 398.566 34.604 400.553C36.4368 403.192 36.73 405.545 35.7648 408.495C33.4432 415.649 34.0419 422.853 35.8442 430.037C36.168 431.332 36.6201 432.921 36.168 434.027C33.8036 439.818 30.7978 445.366 28.7389 451.255C26.8929 456.618 25.5472 462.14 24.7189 467.751C22.9655 479.359 21.5665 491.064 20.3079 502.752C19.9902 505.715 20.5828 508.806 21.0227 511.8C21.7742 516.901 22.0125 521.825 19.8008 526.762C18.9761 528.594 19.3426 531.038 19.4159 533.213C19.7397 542.31 20.2774 551.395 20.4973 560.492C20.6256 565.905 21.3526 571.299 19.8864 576.767C19.2754 579.052 20.6928 581.856 21.1632 584.428C21.9269 588.589 22.9472 592.737 23.2466 596.934C23.3382 598.266 21.7375 600.307 20.3996 600.942C19.5748 601.333 17.2899 600.026 16.5201 598.889C14.7422 596.281 13.4654 593.33 12.0419 590.471C11.2415 588.833 10.8628 586.958 9.89136 585.455C8.24182 582.901 7.55756 580.702 8.95051 577.549C9.79361 575.643 9.04826 572.833 8.48009 570.56C7.49036 566.613 6.03632 562.838 8.48009 558.848C9.01772 557.944 8.9444 556.404 8.60839 555.299C7.23377 550.82 5.77361 546.446 4.06909 542.145C2.73723 538.779 0.87997 535.779 2.11407 531.722C2.66392 529.89 1.36872 527.446 0.629483 525.338C-0.109756 523.23 -0.195288 521.605 1.46647 519.766C2.37067 518.764 3.08547 516.644 2.64559 515.49C-0.0547714 508.592 1.42371 501.957 3.21988 495.237C3.9469 492.53 4.2707 489.738 4.76556 486.946C5.86526 480.77 6.4762 474.465 13.1294 471.062C16.0374 469.577 17.5465 463.896 16.2268 460.132C14.7717 455.901 14.4041 451.371 15.1577 446.96C15.5365 444.419 14.7728 441.718 14.6017 439.085C14.0763 430.984 13.5448 422.877 13.111 414.776C13.0377 413.401 13.6609 411.99 13.5448 410.628C13.0499 404.616 12.5612 398.574 11.7303 392.586C11.1682 388.401 11.4493 386.666 15.1638 385.426C18.4873 384.32 19.086 382.28 18.7378 379.39C17.968 372.926 17.3815 366.438 16.294 360.029C14.2229 347.566 15.8908 335.561 19.0983 323.446C20.9861 316.304 22.4951 308.912 21.5848 301.232C20.0147 287.963 18.5973 274.656 17.7297 261.326C16.96 249.424 17.0272 237.468 16.7156 225.53C16.3368 209.493 16.0069 193.523 12.3412 177.724C9.63477 166.086 8.27848 154.136 6.30513 142.326C6.24929 141.513 6.06793 140.714 5.7675 139.956C1.78416 132.557 2.78 124.682 3.26875 116.783C3.54979 112.347 3.98966 107.729 3.09769 103.458C1.53368 95.9619 2.40122 88.5329 2.42565 81.0794C2.4562 70.8766 3.48869 60.8389 7.66753 51.3204C8.4632 49.2735 8.9372 47.1157 9.0727 44.9238C9.97689 35.6314 10.7833 26.3267 11.5531 17.0221C12.0052 11.5236 15.2188 7.41809 19.0066 4.19232C21.3771 2.19454 25.2688 1.98682 28.4762 0.972656Z" fill="black"/>
</g>
<defs>
<clipPath id="clip0_729_243">
<rect width="49.0831" height="600" fill="white" transform="translate(0.121094 0.972656)"/>
</clipPath>
</defs>
</svg>
